<?xml version="1.0" standalone="no"?>
<!DOCTYPE svg PUBLIC "-//W3C//DTD SVG 1.1//EN" "http://www.w3.org/Graphics/SVG/1.1/DTD/svg11.dtd" >
<svg xmlns="http://www.w3.org/2000/svg">
<metadata></metadata>
<defs>
<font id="thirsty_scriptregular_shd" horiz-adv-x="1062" >
<font-face units-per-em="2048" ascent="1638" descent="-410" />
<missing-glyph horiz-adv-x="512" />
<glyph unicode="dk" horiz-adv-x="2041" d="M68 -25q47 -38 120 -38q46 0 93 17t81 41t61 47.5t41 40.5l13 17q0 -20 8 -45q-28 -30 -60 -57.5t-92.5 -56.5t-119.5 -29q-92 0 -145 63zM197 199q0 49 19.5 131.5t56 175t81.5 174.5t102.5 136t112.5 54q43 0 72 -36q-18 12 -47 12q-68 0 -139 -82t-120.5 -193.5 t-81.5 -222.5t-32 -174q0 -30 10 -53q-34 18 -34 78zM539 -27q49 -36 125 -36q98 0 196 67l25 -24q-100 -68 -197 -68q-99 0 -149 61zM705 76q-71 24 24 260l432 1071h35l-442 -1096q-71 -174 -49 -235zM928 -61l10 24h180l307 762q65 71 133 110t113 39q44 0 53 -30 q-12 6 -28 6q-44 0 -112.5 -39.5t-133.5 -110.5l-307 -761h-215zM1430 -16q57 -47 135 -47q82 0 177.5 50t180 128t155.5 165.5t117 170.5q19 -5 25 -25q-46 -83 -117.5 -170.5t-156 -165.5t-180 -128t-177.5 -50q-97 0 -159 72zM1505 918l197 489h35l-178 -444zM1520 340 q219 20 333 246q99 206 99 311q0 57 -31 96q55 -42 55 -121q0 -107 -98 -311q-114 -226 -334 -246q-8 -169 29 -229q-66 41 -53 254z" />
<glyph unicode="cn" horiz-adv-x="1906" d="M104 6q81 -69 228 -69q166 0 321 94l25 -25q-155 -94 -322 -94q-170 0 -252 94zM209 231q0 61 31 167t80.5 214t122 186.5t143.5 78.5q39 0 47 -27q-6 2 -23 2q-71 0 -143.5 -78.5t-122 -186t-80.5 -213.5t-31 -167q0 -57 31 -96q-55 42 -55 120zM569 559l13 25h176 q45 85 61.5 161t6 133.5t-45.5 98.5q70 -58 73 -164t-71 -254h-213zM745 -61l11 24h180l307 762q64 71 131.5 110t112.5 39q43 0 55 -30q-15 6 -31 6q-44 0 -111.5 -39.5t-131.5 -110.5l-307 -761h-216zM1380 -27q44 -36 129 -36q74 0 148 39t144 112.5t131.5 160.5 t127.5 202q6 0 14 -7.5t11 -17.5q-66 -115 -127.5 -202t-131.5 -160.5t-144 -112.5t-148 -39q-107 0 -154 61zM1548 76q-72 23 25 260l125 307q67 170 67 252q0 58 -30 100q55 -45 55 -125t-68 -252l-125 -307q-71 -177 -49 -235z" />
<glyph unicode="lk" horiz-adv-x="1519" d="M14 -27q44 -36 129 -36q97 0 195 67l24 -24q-100 -68 -194 -68q-107 0 -154 61zM182 76q-70 24 25 260l432 1071h35l-443 -1096q-71 -174 -49 -235zM406 -61l10 24h180l307 762q65 71 133 110t113 39q44 0 53 -30q-12 6 -28 6q-44 0 -112.5 -39.5t-133.5 -110.5 l-307 -761h-215zM907 -16q57 -47 135 -47q82 0 177.5 50t180 128t156 165.5t117.5 170.5q19 -5 25 -25q-46 -83 -117.5 -170.5t-156 -165.5t-180 -128t-177.5 -50q-98 0 -160 72zM983 918l197 489h34l-178 -444zM997 340q220 20 334 246q99 206 99 311q0 57 -31 96 q55 -42 55 -121q0 -107 -98 -311q-114 -226 -334 -246q-8 -169 29 -229q-67 42 -54 254z" />
<glyph unicode="lm" horiz-adv-x="2056" d="M14 -27q44 -36 129 -36q100 0 197 69l25 -24q-98 -70 -197 -70q-107 0 -154 61zM182 76q-70 24 25 260l432 1071h35l-443 -1096q-71 -174 -49 -235zM408 -61l10 24h180l307 762q64 71 131.5 110t112.5 39q43 0 55 -30q-15 6 -30 6q-45 0 -112.5 -39.5t-131.5 -110.5 l-307 -761h-215zM893 -61q4 8 10 24h180l310 762q62 71 130 110t113 39q44 0 56 -30q-15 6 -31 6q-45 0 -113.5 -39.5t-130.5 -110.5l-309 -761h-215zM1530 -27q44 -36 129 -36q74 0 148 39t144 112.5t131.5 160.5t127.5 202q6 -2 13.5 -9t10.5 -16q-66 -115 -127.5 -202 t-131.5 -160.5t-144 -112.5t-148 -39q-106 0 -153 61zM1698 76q-73 23 24 260l125 307q68 166 68 250q0 57 -31 100q55 -42 55 -125q0 -87 -67 -250l-125 -307q-71 -177 -49 -235z" />
<glyph unicode="lmm" horiz-adv-x="3571" d="M14 -27q44 -36 129 -36q100 0 197 69l25 -24q-98 -70 -197 -70q-107 0 -154 61zM182 76q-70 24 25 260l432 1071h35l-443 -1096q-71 -174 -49 -235zM408 -61l10 24h180l307 762q64 71 131.5 110t112.5 39q43 0 55 -30q-15 6 -30 6q-45 0 -112.5 -39.5t-131.5 -110.5 l-307 -761h-215zM893 -61q4 8 10 24h180l310 762q62 71 130 110t113 39q44 0 56 -30q-15 6 -31 6q-45 0 -113.5 -39.5t-130.5 -110.5l-309 -761h-215zM1530 -27q44 -36 129 -36q99 0 196 69l25 -24q-98 -70 -197 -70q-106 0 -153 61zM1698 76q-73 23 24 260l125 307 q68 166 68 250q0 57 -31 100q55 -42 55 -125q0 -87 -67 -250l-125 -307q-71 -177 -49 -235zM1923 -61l10 24h181l307 762q64 71 131 110t112 39q44 0 56 -30q-15 6 -31 6q-45 0 -112.5 -39.5t-131.5 -110.5l-307 -761h-215zM2408 -61q5 8 11 24h180l309 762 q62 70 130.5 109.5t113.5 39.5q43 0 55 -30q-15 6 -31 6q-45 0 -113 -39.5t-130 -110.5l-310 -761h-215zM3045 -27q44 -36 129 -36q74 0 148 39t144 112.5t131.5 160.5t127.5 202q20 -7 25 -25q-66 -115 -127.5 -202t-131.5 -160.5t-144 -112.5t-148 -39q-107 0 -154 61z M3213 76q-72 23 25 260l125 307q67 163 67 250q0 58 -30 100q55 -42 55 -125q0 -84 -68 -250l-125 -307q-71 -177 -49 -235z" />
<glyph unicode="lmn" horiz-adv-x="3084" d="M14 -27q44 -36 129 -36q99 0 197 67l25 -24q-95 -68 -197 -68q-107 0 -154 61zM182 76q-70 24 25 260l432 1071h35l-443 -1096q-71 -174 -49 -235zM408 -61l10 24h180l307 762q64 71 131.5 110t112.5 39q43 0 55 -30q-15 6 -30 6q-45 0 -112.5 -39.5t-131.5 -110.5 l-307 -761h-215zM893 -61q4 8 10 24h180l310 762q62 71 130 110t113 39q44 0 56 -30q-15 6 -31 6q-45 0 -113.5 -39.5t-130.5 -110.5l-309 -761h-215zM1530 -27q44 -36 129 -36q99 0 196 69l25 -24q-98 -70 -197 -70q-106 0 -153 61zM1698 76q-73 23 24 260l125 307 q68 166 68 250q0 57 -31 100q55 -42 55 -125q0 -87 -67 -250l-125 -307q-71 -177 -49 -235zM1923 -61l10 24h181l307 762q64 71 131 110t112 39q44 0 56 -30q-15 6 -31 6q-45 0 -112.5 -39.5t-131.5 -110.5l-307 -761h-215zM2558 -27q44 -36 129 -36q74 0 148 39t144 112.5 t131.5 160.5t127.5 202q18 -5 24 -25q-66 -115 -127.5 -202t-131 -160.5t-143.5 -112.5t-148 -39q-107 0 -154 61zM2726 76q-73 23 24 260l125 307q68 172 68 252q0 57 -31 100q56 -46 56 -125q0 -80 -68 -252l-125 -307q-71 -177 -49 -235z" />
<glyph unicode="ln" horiz-adv-x="1568" d="M14 -27q44 -36 129 -36q100 0 197 69l25 -24q-98 -70 -197 -70q-107 0 -154 61zM182 76q-70 24 25 260l432 1071h35l-443 -1096q-71 -174 -49 -235zM408 -61l10 24h180l307 762q64 71 131.5 110t112.5 39q43 0 55 -30q-15 6 -30 6q-45 0 -112.5 -39.5t-131.5 -110.5 l-307 -761h-215zM1042 -27q44 -36 129 -36q74 0 148 39t144 112.5t131.5 160.5t127.5 202q19 -4 25 -25q-66 -115 -127.5 -202t-131.5 -160.5t-144 -112.5t-148 -39q-107 0 -154 61zM1210 76q-72 23 25 260l125 307q67 170 67 252q0 58 -30 100q55 -45 55 -125t-68 -252 l-124 -307q-72 -179 -50 -235z" />
<glyph unicode="kn" horiz-adv-x="2007" d="M-135 -61l10 24h180l307 762q65 71 133 110t113 39t54 -30q-12 6 -29 6q-44 0 -112.5 -39.5t-133.5 -110.5l-307 -761h-215zM367 -16q57 -47 135 -47q113 0 252 94l24 -25q-139 -94 -252 -94q-97 0 -159 72zM442 918l197 489h35l-178 -444zM457 340q220 20 334 246 q98 204 98 311q0 57 -31 96q55 -42 55 -121q0 -107 -98 -311q-114 -226 -334 -246q-8 -169 29 -229q-66 41 -53 254zM846 -61l10 24h180l307 762q64 71 131.5 110t112.5 39q43 0 55 -30q-15 6 -30 6q-45 0 -112.5 -39.5t-131.5 -110.5l-307 -761h-215zM1481 -27 q44 -36 129 -36q74 0 148 39t144 112.5t131.5 160.5t127.5 202q6 -2 13.5 -9t10.5 -16q-66 -115 -127.5 -202t-131.5 -160.5t-144 -112.5t-148 -39q-106 0 -153 61zM1649 76q-73 23 24 260l125 307q68 172 68 252q0 57 -31 100q55 -45 55 -125q0 -82 -67 -252l-125 -307 q-71 -177 -49 -235z" />
<glyph unicode="mh" horiz-adv-x="2545" d="M-133 -61l10 24h180l308 762q64 71 131 110t112 39q44 0 56 -30q-15 6 -31 6q-45 0 -112.5 -39.5t-131.5 -110.5l-307 -761h-215zM352 -61q4 8 10 24h181l309 762q62 70 130.5 109.5t113.5 39.5q43 0 55 -30q-15 6 -31 6q-45 0 -113 -39.5t-130 -110.5l-310 -761h-215z M989 -27q44 -36 129 -36q97 0 195 67l24 -24q-100 -68 -194 -68q-107 0 -154 61zM1157 76q-72 23 25 260l125 307q67 163 67 250q0 57 -31 100q56 -42 56 -125q0 -84 -68 -250l-125 -307q-71 -177 -49 -235zM1380 -61l11 24h180l307 758q65 73 134 113t114 40q43 0 55 -30 q-15 6 -31 6q-45 0 -113.5 -40.5t-133.5 -113.5l-308 -757h-215zM1958 918l196 489h35l-178 -444zM2019 -27q44 -36 129 -36q74 0 148 39t144 112.5t131.5 160.5t127.5 202q19 -5 25 -25q-66 -115 -127.5 -202t-131.5 -160.5t-144 -112.5t-148 -39q-107 0 -154 61zM2187 76 q-72 23 25 260l125 307q67 165 67 252q0 56 -30 98q55 -42 55 -123q0 -84 -68 -252l-125 -307q-71 -177 -49 -235z" />
<glyph unicode="mk" horiz-adv-x="2494" d="M-133 -61l10 24h180l308 762q64 71 131 110t112 39q44 0 56 -30q-15 6 -31 6q-45 0 -112.5 -39.5t-131.5 -110.5l-307 -761h-215zM352 -61q4 8 10 24h181l309 762q62 70 130.5 109.5t113.5 39.5q43 0 55 -30q-15 6 -31 6q-45 0 -113 -39.5t-130 -110.5l-310 -761h-215z M989 -27q44 -36 129 -36q100 0 195 67l24 -24q-100 -68 -194 -68q-107 0 -154 61zM1157 76q-72 23 25 260l125 307q67 163 67 250q0 57 -31 100q56 -42 56 -125q0 -84 -68 -250l-125 -307q-71 -177 -49 -235zM1380 -61l11 24h180l307 762q65 71 133 110t113 39q44 0 53 -30 q-12 6 -29 6q-44 0 -112 -39.5t-133 -110.5l-308 -761h-215zM1882 -16q57 -47 135 -47q82 0 177.5 50t180 128t156 165.5t117.5 170.5q19 -5 25 -25q-46 -83 -117.5 -170.5t-156 -165.5t-180 -128t-177.5 -50q-98 0 -160 72zM1958 918l196 489h35l-178 -444zM1972 340 q220 20 334 246q98 204 98 311q0 59 -30 96q55 -42 55 -121q0 -107 -98 -311q-114 -226 -334 -246q-8 -171 28 -229q-66 41 -53 254z" />
<glyph unicode="mm" horiz-adv-x="3031" d="M-133 -61l10 24h180l308 762q64 71 131 110t112 39q44 0 56 -30q-15 6 -31 6q-45 0 -112.5 -39.5t-131.5 -110.5l-307 -761h-215zM352 -61q4 8 10 24h181l309 762q62 70 130.5 109.5t113.5 39.5q43 0 55 -30q-15 6 -31 6q-45 0 -113 -39.5t-130 -110.5l-310 -761h-215z M989 -27q44 -36 129 -36q100 0 197 69l24 -24q-98 -70 -196 -70q-107 0 -154 61zM1157 76q-72 23 25 260l125 307q67 163 67 250q0 57 -31 100q56 -42 56 -125q0 -84 -68 -250l-125 -307q-71 -177 -49 -235zM1382 -61l11 24h180l307 762q64 71 131.5 110t112.5 39 q43 0 55 -30q-15 6 -31 6q-44 0 -111.5 -39.5t-131.5 -110.5l-308 -761h-215zM1868 -61q4 8 10 24h180l309 762q62 70 130.5 109.5t113.5 39.5q43 0 55 -30q-15 6 -30 6q-45 0 -113.5 -39.5t-130.5 -110.5l-309 -761h-215zM2505 -27q44 -36 129 -36q74 0 148 39t144 112.5 t131.5 160.5t127.5 202q18 -4 24 -25q-66 -115 -127.5 -202t-131.5 -160.5t-144 -112.5t-148 -39q-106 0 -153 61zM2673 76q-73 23 24 260l125 307q68 166 68 250q0 57 -31 100q55 -42 55 -125q0 -87 -67 -250l-125 -307q-71 -177 -49 -235z" />
<glyph unicode="mn" horiz-adv-x="2543" d="M-133 -61l10 24h180l308 762q64 71 131 110t112 39q44 0 56 -30q-15 6 -31 6q-45 0 -112.5 -39.5t-131.5 -110.5l-307 -761h-215zM352 -61q4 8 10 24h181l309 762q62 70 130.5 109.5t113.5 39.5q43 0 55 -30q-15 6 -31 6q-45 0 -113 -39.5t-130 -110.5l-310 -761h-215z M989 -27q44 -36 129 -36q96 0 197 69l24 -24q-98 -70 -196 -70q-107 0 -154 61zM1157 76q-72 23 25 260l125 307q67 163 67 250q0 57 -31 100q56 -42 56 -125q0 -84 -68 -250l-125 -307q-71 -177 -49 -235zM1382 -61l11 24h180l307 762q64 71 131.5 110t112.5 39 q43 0 55 -30q-15 6 -31 6q-44 0 -111.5 -39.5t-131.5 -110.5l-308 -761h-215zM2017 -27q44 -36 129 -36q74 0 148 39t144 112.5t131.5 160.5t127.5 202q19 -4 25 -25q-66 -115 -127.5 -202t-131.5 -160.5t-144 -112.5t-148 -39q-107 0 -154 61zM2185 76q-72 23 25 260 l125 307q67 170 67 252q0 58 -30 100q55 -45 55 -125t-68 -252l-125 -307q-71 -177 -49 -235z" />
<glyph unicode="ann" horiz-adv-x="3119" d="M68 -25q47 -38 120 -38q46 0 93 17t81 41t61 47.5t41 40.5l13 17q0 -20 8 -45q-28 -30 -60 -57.5t-92.5 -56.5t-119.5 -29q-92 0 -145 63zM197 199q0 49 19.5 131.5t56 175t81.5 174.5t102.5 136t112.5 54q43 0 72 -36q-18 12 -47 12q-68 0 -139 -82t-120.5 -193.5 t-81.5 -222.5t-32 -174q0 -30 10 -53q-34 18 -34 78zM539 -27q49 -36 125 -36q97 0 198 69l25 -24q-98 -70 -199 -70q-99 0 -149 61zM705 76q-71 26 24 260l260 643l43 22l-278 -690q-70 -173 -49 -235zM930 -61l10 24h180l307 762q64 71 131.5 110t112.5 39q43 0 55 -30 q-15 6 -30 6q-45 0 -112.5 -39.5t-131.5 -110.5l-307 -761h-215zM1565 -27q44 -36 129 -36q99 0 196 69l25 -24q-98 -70 -197 -70q-106 0 -153 61zM1733 76q-73 23 24 260l125 307q68 172 68 252q0 57 -31 100q55 -45 55 -125q0 -82 -67 -252l-125 -307q-71 -177 -49 -235z M1958 -61l10 24h180l308 762q64 71 131 110t112 39q44 0 56 -30q-15 6 -31 6q-45 0 -112.5 -39.5t-131.5 -110.5l-307 -761h-215zM2593 -27q44 -36 129 -36q74 0 148 39t144 112.5t131.5 160.5t127.5 202q18 -5 24 -25q-66 -115 -127.5 -202t-131.5 -160.5t-144 -112.5 t-148 -39q-106 0 -153 61zM2761 76q-73 23 24 260l125 307q68 172 68 252q0 57 -31 100q55 -45 55 -125q0 -82 -67 -252l-125 -307q-71 -177 -49 -235z" />
<glyph unicode="km" horiz-adv-x="2494" d="M-135 -61l10 24h180l307 762q65 71 133 110t113 39t54 -30q-12 6 -29 6q-44 0 -112.5 -39.5t-133.5 -110.5l-307 -761h-215zM367 -16q57 -47 135 -47q113 0 252 94l24 -25q-139 -94 -252 -94q-97 0 -159 72zM442 918l197 489h35l-178 -444zM457 340q220 20 334 246 q98 204 98 311q0 57 -31 96q55 -42 55 -121q0 -107 -98 -311q-114 -226 -334 -246q-8 -169 29 -229q-66 41 -53 254zM846 -61l10 24h180l307 762q64 71 131.5 110t112.5 39q43 0 55 -30q-15 6 -30 6q-45 0 -112.5 -39.5t-131.5 -110.5l-307 -761h-215zM1331 -61q4 8 10 24 h181l309 762q62 70 130.5 109.5t113.5 39.5q43 0 55 -30q-15 6 -31 6q-45 0 -113.5 -39.5t-130.5 -110.5l-309 -761h-215zM1968 -27q44 -36 129 -36q74 0 148 39t144 112.5t131.5 160.5t127.5 202q19 -5 25 -25q-66 -115 -127.5 -202t-131.5 -160.5t-144 -112.5t-148 -39 q-107 0 -154 61zM2136 76q-72 23 25 260l125 307q67 163 67 250q0 57 -31 100q56 -42 56 -125q0 -84 -68 -250l-125 -307q-71 -177 -49 -235z" />
<glyph unicode="anm" horiz-adv-x="3606" d="M68 -25q47 -38 120 -38q46 0 93 17t81 41t61 47.5t41 40.5l13 17q0 -20 8 -45q-28 -30 -60 -57.5t-92.5 -56.5t-119.5 -29q-92 0 -145 63zM197 199q0 49 19.5 131.5t56 175t81.5 174.5t102.5 136t112.5 54q43 0 72 -36q-18 12 -47 12q-68 0 -139 -82t-120.5 -193.5 t-81.5 -222.5t-32 -174q0 -30 10 -53q-34 18 -34 78zM539 -27q49 -36 125 -36q97 0 198 69l25 -24q-103 -70 -199 -70q-99 0 -149 61zM705 76q-71 26 24 260l260 643l43 22l-278 -690q-70 -173 -49 -235zM930 -61l10 24h180l307 762q64 71 131.5 110t112.5 39q43 0 55 -30 q-15 6 -30 6q-45 0 -112.5 -39.5t-131.5 -110.5l-307 -761h-215zM1565 -27q44 -36 129 -36q99 0 196 69l25 -24q-98 -70 -197 -70q-106 0 -153 61zM1733 76q-73 23 24 260l125 307q68 172 68 252q0 57 -31 100q55 -45 55 -125q0 -82 -67 -252l-125 -307q-71 -177 -49 -235z M1958 -61l10 24h180l308 762q64 71 131 110t112 39q44 0 56 -30q-15 6 -31 6q-45 0 -112.5 -39.5t-131.5 -110.5l-307 -761h-215zM2443 -61q5 8 11 24h180l309 762q62 70 130.5 109.5t113.5 39.5q43 0 55 -30q-15 6 -31 6q-45 0 -113 -39.5t-130 -110.5l-310 -761h-215z M3080 -27q44 -36 129 -36q74 0 148 39t144 112.5t131.5 160.5t127.5 202q8 0 15 -7.5t10 -17.5q-66 -115 -127.5 -202t-131.5 -160.5t-144 -112.5t-148 -39q-107 0 -154 61zM3248 76q-72 23 25 260l125 307q67 163 67 250q0 57 -31 100q56 -42 56 -125q0 -84 -68 -250 l-125 -307q-71 -177 -49 -235z" />
<glyph unicode="an" horiz-adv-x="2091" d="M68 -25q47 -38 120 -38q46 0 93 17t81 41t61 47.5t41 40.5l13 17q0 -20 8 -45q-28 -30 -60 -57.5t-92.5 -56.5t-119.5 -29q-92 0 -145 63zM197 199q0 49 19.5 131.5t56 175t81.5 174.5t102.5 136t112.5 54q43 0 72 -36q-18 12 -47 12q-68 0 -139 -82t-120.5 -193.5 t-81.5 -222.5t-32 -174q0 -30 10 -53q-34 18 -34 78zM539 -27q49 -36 125 -36q97 0 198 69l25 -24q-98 -70 -199 -70q-99 0 -149 61zM705 76q-71 26 24 260l260 643l43 22l-278 -690q-70 -173 -49 -235zM930 -61l10 24h180l307 762q64 71 131.5 110t112.5 39q43 0 55 -30 q-15 6 -30 6q-45 0 -112.5 -39.5t-131.5 -110.5l-307 -761h-215zM1565 -27q44 -36 129 -36q74 0 148 39t144 112.5t131.5 160.5t127.5 202q18 -3 24 -25q-66 -115 -127.5 -202t-131.5 -160.5t-144 -112.5t-148 -39q-106 0 -153 61zM1733 76q-73 23 24 260l125 307 q68 172 68 252q0 57 -31 100q55 -45 55 -125q0 -82 -67 -252l-125 -307q-71 -177 -49 -235z" />
<glyph unicode="amn" horiz-adv-x="3606" d="M68 -25q47 -38 120 -38q46 0 93 17t81 41t61 47.5t41 40.5l13 17q0 -20 8 -45q-28 -30 -60 -57.5t-92.5 -56.5t-119.5 -29q-92 0 -145 63zM197 199q0 49 19.5 131.5t56 175t81.5 174.5t102.5 136t112.5 54q43 0 72 -36q-18 12 -47 12q-68 0 -139 -82t-120.5 -193.5 t-81.5 -222.5t-32 -174q0 -30 10 -53q-34 18 -34 78zM539 -27q49 -36 125 -36q97 0 198 69l25 -24q-98 -70 -199 -70q-99 0 -149 61zM705 76q-71 26 24 260l260 643l43 22l-278 -690q-70 -173 -49 -235zM930 -61l10 24h180l307 762q64 71 131.5 110t112.5 39q43 0 55 -30 q-15 6 -30 6q-45 0 -112.5 -39.5t-131.5 -110.5l-307 -761h-215zM1415 -61q4 8 10 24h181l309 762q62 70 130.5 109.5t113.5 39.5q43 0 55 -30q-15 6 -31 6q-45 0 -113.5 -39.5t-130.5 -110.5l-309 -761h-215zM2052 -27q44 -36 129 -36q100 0 197 69l24 -24 q-98 -70 -196 -70q-107 0 -154 61zM2220 76q-72 23 25 260l125 307q67 163 67 250q0 57 -31 100q56 -42 56 -125q0 -84 -68 -250l-125 -307q-71 -177 -49 -235zM2445 -61l11 24h180l307 762q64 71 131.5 110t112.5 39q43 0 55 -30q-15 6 -31 6q-44 0 -111.5 -39.5 t-131.5 -110.5l-308 -761h-215zM3080 -27q44 -36 129 -36q74 0 148 39t144 112.5t131.5 160.5t127.5 202q19 -5 25 -25q-66 -115 -127.5 -202t-131.5 -160.5t-144 -112.5t-148 -39q-107 0 -154 61zM3248 76q-72 23 25 260l125 307q67 170 67 252q0 57 -31 100 q56 -46 56 -125q0 -80 -68 -252l-125 -307q-71 -177 -49 -235z" />
<glyph unicode="nh" horiz-adv-x="2058" d="M-133 -61l10 24h180l308 762q64 71 131 110t112 39q44 0 56 -30q-15 6 -31 6q-45 0 -112.5 -39.5t-131.5 -110.5l-307 -761h-215zM502 -27q44 -36 129 -36q96 0 194 67l25 -24q-100 -68 -195 -68q-106 0 -153 61zM670 76q-73 23 24 260l125 307q68 172 68 252 q0 57 -31 100q55 -45 55 -125q0 -82 -67 -252l-125 -307q-71 -177 -49 -235zM893 -61l10 24h180l308 758q65 73 133.5 113t113.5 40q44 0 56 -30q-15 6 -31 6q-45 0 -114 -40.5t-134 -113.5l-307 -757h-215zM1470 918l197 489h35l-178 -444zM1532 -27q44 -36 129 -36 q74 0 148 39t144 112.5t131.5 160.5t127.5 202q4 0 12.5 -8t11.5 -17q-66 -115 -127.5 -202t-131 -160.5t-143.5 -112.5t-148 -39q-107 0 -154 61zM1700 76q-73 23 24 260l125 307q68 168 68 252q0 55 -31 98q56 -43 56 -123q0 -84 -68 -252l-125 -307q-71 -177 -49 -235z " />
<glyph unicode="nk" horiz-adv-x="2007" d="M-133 -61l10 24h180l308 762q64 71 131 110t112 39q44 0 56 -30q-15 6 -31 6q-45 0 -112.5 -39.5t-131.5 -110.5l-307 -761h-215zM502 -27q44 -36 129 -36q96 0 194 67l25 -24q-100 -68 -195 -68q-106 0 -153 61zM670 76q-73 23 24 260l125 307q68 172 68 252 q0 57 -31 100q55 -45 55 -125q0 -82 -67 -252l-125 -307q-71 -177 -49 -235zM893 -61l10 24h180l308 762q65 71 132.5 110t112.5 39t54 -30q-12 6 -29 6q-44 0 -112.5 -39.5t-133.5 -110.5l-307 -761h-215zM1395 -16q57 -47 135 -47q82 0 177.5 50t180 128t156 165.5 t117.5 170.5q5 0 13 -7.5t11 -17.5q-46 -83 -117.5 -170.5t-156 -165.5t-180 -128t-177.5 -50q-97 0 -159 72zM1470 918l197 489h35l-178 -444zM1485 340q220 20 334 246q98 204 98 311q0 57 -31 96q56 -43 56 -121q0 -105 -99 -311q-114 -226 -334 -246q-8 -169 29 -229 q-66 41 -53 254z" />
<glyph unicode="nm" horiz-adv-x="2543" d="M-133 -61l10 24h180l308 762q64 71 131 110t112 39q44 0 56 -30q-15 6 -31 6q-45 0 -112.5 -39.5t-131.5 -110.5l-307 -761h-215zM502 -27q44 -36 129 -36q99 0 196 69l25 -24q-98 -70 -197 -70q-106 0 -153 61zM670 76q-73 23 24 260l125 307q68 172 68 252 q0 57 -31 100q55 -45 55 -125q0 -82 -67 -252l-125 -307q-71 -177 -49 -235zM895 -61l10 24h180l308 762q64 71 131 110t112 39q44 0 56 -30q-15 6 -31 6q-45 0 -112.5 -39.5t-131.5 -110.5l-307 -761h-215zM1380 -61q5 8 11 24h180l309 762q62 70 130.5 109.5t113.5 39.5 q43 0 55 -30q-15 6 -31 6q-45 0 -113 -39.5t-130 -110.5l-310 -761h-215zM2017 -27q44 -36 129 -36q74 0 148 39t144 112.5t131.5 160.5t127.5 202q19 -5 25 -25q-66 -115 -127.5 -202t-131.5 -160.5t-144 -112.5t-148 -39q-107 0 -154 61zM2185 76q-72 23 25 260l125 307 q67 163 67 250q0 58 -30 100q55 -42 55 -125q0 -84 -68 -250l-125 -307q-71 -177 -49 -235z" />
<glyph unicode="nn" horiz-adv-x="2056" d="M-133 -61l10 24h180l308 762q64 71 131 110t112 39q44 0 56 -30q-15 6 -31 6q-45 0 -112.5 -39.5t-131.5 -110.5l-307 -761h-215zM502 -27q44 -36 129 -36q95 0 196 69l25 -24q-98 -70 -197 -70q-106 0 -153 61zM670 76q-73 23 24 260l125 307q68 172 68 252 q0 57 -31 100q55 -45 55 -125q0 -82 -67 -252l-125 -307q-71 -177 -49 -235zM895 -61l10 24h180l308 762q64 71 131 110t112 39q44 0 56 -30q-15 6 -31 6q-45 0 -112.5 -39.5t-131.5 -110.5l-307 -761h-215zM1530 -27q44 -36 129 -36q74 0 148 39t144 112.5t131.5 160.5 t127.5 202q5 0 13 -7.5t11 -17.5q-66 -115 -127.5 -202t-131.5 -160.5t-144 -112.5t-148 -39q-106 0 -153 61zM1698 76q-73 23 24 260l125 307q68 172 68 252q0 57 -31 100q55 -45 55 -125q0 -82 -67 -252l-125 -307q-71 -177 -49 -235z" />
<glyph unicode="kk" horiz-adv-x="1957" d="M-135 -61l10 24h180l307 762q65 71 133 110t113 39t54 -30q-12 6 -29 6q-44 0 -112.5 -39.5t-133.5 -110.5l-307 -761h-215zM367 -16q57 -47 135 -47q114 0 250 92l24 -25q-136 -92 -250 -92q-97 0 -159 72zM442 918l197 489h35l-178 -444zM457 340q220 20 334 246 q98 204 98 311q0 57 -31 96q55 -42 55 -121q0 -107 -98 -311q-114 -226 -334 -246q-8 -169 29 -229q-66 41 -53 254zM844 -61l10 24h180l307 762q65 71 133 110t113 39q44 0 53 -30q-12 6 -28 6q-44 0 -112.5 -39.5t-133.5 -110.5l-307 -761h-215zM1346 -16q57 -47 135 -47 q82 0 177.5 50t180 128t155.5 165.5t117 170.5q19 -5 25 -25q-46 -83 -117.5 -170.5t-156 -165.5t-180 -128t-177.5 -50q-97 0 -159 72zM1421 918l197 489h35l-178 -444zM1436 340q219 20 333 246q99 206 99 311q0 57 -31 96q55 -42 55 -121q0 -107 -98 -311 q-114 -226 -334 -246q-8 -169 29 -229q-66 41 -53 254z" />
<glyph unicode="kh" horiz-adv-x="2009" d="M-135 -61l10 24h180l307 762q65 71 133 110t113 39t54 -30q-12 6 -29 6q-44 0 -112.5 -39.5t-133.5 -110.5l-307 -761h-215zM367 -16q57 -47 135 -47q114 0 250 92l24 -25q-136 -92 -250 -92q-97 0 -159 72zM442 918l197 489h35l-178 -444zM457 340q220 20 334 246 q98 204 98 311q0 57 -31 96q55 -42 55 -121q0 -107 -98 -311q-114 -226 -334 -246q-8 -169 29 -229q-66 41 -53 254zM844 -61l10 24h180l307 758q65 73 134 113t114 40q44 0 56 -30q-15 6 -31 6q-45 0 -114 -40.5t-134 -113.5l-307 -757h-215zM1421 918l197 489h35 l-178 -444zM1483 -27q44 -36 129 -36q74 0 148 39t144 112.5t131.5 160.5t127.5 202q6 -2 13.5 -9t10.5 -16q-66 -115 -127.5 -202t-131.5 -160.5t-144 -112.5t-148 -39q-106 0 -153 61zM1651 76q-73 23 24 260l125 307q68 168 68 252q0 55 -31 98q55 -42 55 -123 q0 -87 -67 -252l-125 -307q-71 -177 -49 -235z" />
<glyph unicode="amm" horiz-adv-x="4093" d="M68 -25q47 -38 120 -38q46 0 93 17t81 41t61 47.5t41 40.5l13 17q0 -20 8 -45q-28 -30 -60 -57.5t-92.5 -56.5t-119.5 -29q-92 0 -145 63zM197 199q0 49 19.5 131.5t56 175t81.5 174.5t102.5 136t112.5 54q43 0 72 -36q-18 12 -47 12q-68 0 -139 -82t-120.5 -193.5 t-81.5 -222.5t-32 -174q0 -30 10 -53q-34 18 -34 78zM539 -27q49 -36 125 -36q97 0 198 69l25 -24q-98 -70 -199 -70q-99 0 -149 61zM705 76q-71 26 24 260l260 643l43 22l-278 -690q-70 -173 -49 -235zM930 -61l10 24h180l307 762q64 71 131.5 110t112.5 39q43 0 55 -30 q-15 6 -30 6q-45 0 -112.5 -39.5t-131.5 -110.5l-307 -761h-215zM1415 -61q4 8 10 24h181l309 762q62 70 130.5 109.5t113.5 39.5q43 0 55 -30q-15 6 -31 6q-45 0 -113.5 -39.5t-130.5 -110.5l-309 -761h-215zM2052 -27q44 -36 129 -36q100 0 197 69l24 -24 q-98 -70 -196 -70q-107 0 -154 61zM2220 76q-72 23 25 260l125 307q67 163 67 250q0 57 -31 100q56 -42 56 -125q0 -84 -68 -250l-125 -307q-71 -177 -49 -235zM2445 -61l11 24h180l307 762q64 71 131.5 110t112.5 39q43 0 55 -30q-15 6 -31 6q-44 0 -111.5 -39.5 t-131.5 -110.5l-308 -761h-215zM2931 -61q4 8 10 24h180l309 762q62 70 130.5 109.5t113.5 39.5q43 0 55 -30q-15 6 -30 6q-45 0 -113.5 -39.5t-130.5 -110.5l-309 -761h-215zM3568 -27q44 -36 129 -36q74 0 148 39t144 112.5t131.5 160.5t127.5 202q18 -5 24 -25 q-66 -115 -127.5 -202t-131.5 -160.5t-144 -112.5t-148 -39q-106 0 -153 61zM3736 76q-73 23 24 260l125 307q68 166 68 250q0 57 -31 100q55 -42 55 -125q0 -87 -67 -250l-125 -307q-71 -177 -49 -235z" />
<glyph unicode="am" horiz-adv-x="2578" d="M68 -25q47 -38 120 -38q46 0 93 17t81 41t61 47.5t41 40.5l13 17q0 -20 8 -45q-28 -30 -60 -57.5t-92.5 -56.5t-119.5 -29q-92 0 -145 63zM197 199q0 49 19.5 131.5t56 175t81.5 174.5t102.5 136t112.5 54q43 0 72 -36q-18 12 -47 12q-68 0 -139 -82t-120.5 -193.5 t-81.5 -222.5t-32 -174q0 -30 10 -53q-34 18 -34 78zM539 -27q49 -36 125 -36q97 0 198 69l25 -24q-103 -70 -199 -70q-99 0 -149 61zM705 76q-71 26 24 260l260 643l43 22l-278 -690q-70 -173 -49 -235zM930 -61l10 24h180l307 762q64 71 131.5 110t112.5 39q43 0 55 -30 q-15 6 -30 6q-45 0 -112.5 -39.5t-131.5 -110.5l-307 -761h-215zM1415 -61q4 8 10 24h181l309 762q62 70 130.5 109.5t113.5 39.5q43 0 55 -30q-15 6 -31 6q-45 0 -113.5 -39.5t-130.5 -110.5l-309 -761h-215zM2052 -27q44 -36 129 -36q74 0 148 39t144 112.5t131.5 160.5 t127.5 202q19 -5 25 -25q-66 -115 -127.5 -202t-131.5 -160.5t-144 -112.5t-148 -39q-107 0 -154 61zM2220 76q-72 23 25 260l125 307q67 163 67 250q0 57 -31 100q56 -42 56 -125q0 -84 -68 -250l-125 -307q-71 -177 -49 -235z" />
<glyph unicode="ak" horiz-adv-x="2041" d="M68 -25q47 -38 120 -38q46 0 93 17t81 41t61 47.5t41 40.5l13 17q0 -20 8 -45q-28 -30 -60 -57.5t-92.5 -56.5t-119.5 -29q-92 0 -145 63zM197 199q0 49 19.5 131.5t56 175t81.5 174.5t102.5 136t112.5 54q43 0 72 -36q-18 12 -47 12q-68 0 -139 -82t-120.5 -193.5 t-81.5 -222.5t-32 -174q0 -30 10 -53q-34 18 -34 78zM539 -27q49 -36 125 -36q98 0 196 67l25 -24q-100 -68 -197 -68q-99 0 -149 61zM705 76q-71 26 24 260l260 643l43 22l-278 -690q-70 -173 -49 -235zM928 -61l10 24h180l307 762q65 71 133 110t113 39q44 0 53 -30 q-12 6 -28 6q-44 0 -112.5 -39.5t-133.5 -110.5l-307 -761h-215zM1430 -16q57 -47 135 -47q82 0 177.5 50t180 128t155.5 165.5t117 170.5q19 -4 25 -25q-46 -83 -117.5 -170.5t-156 -165.5t-180 -128t-177.5 -50q-97 0 -159 72zM1505 918l197 489h35l-178 -444zM1520 340 q219 20 333 246q99 206 99 311q0 57 -31 96q55 -42 55 -121q0 -107 -98 -311q-114 -226 -334 -246q-8 -169 29 -229q-66 41 -53 254z" />
<glyph unicode="ah" horiz-adv-x="2093" d="M68 -25q47 -38 120 -38q46 0 93 17t81 41t61 47.5t41 40.5l13 17q0 -20 8 -45q-28 -30 -60 -57.5t-92.5 -56.5t-119.5 -29q-92 0 -145 63zM197 199q0 49 19.5 131.5t56 175t81.5 174.5t102.5 136t112.5 54q43 0 72 -36q-18 12 -47 12q-68 0 -139 -82t-120.5 -193.5 t-81.5 -222.5t-32 -174q0 -30 10 -53q-34 18 -34 78zM539 -27q49 -36 125 -36q98 0 196 67l25 -24q-100 -68 -197 -68q-99 0 -149 61zM705 76q-71 26 24 260l260 643l43 22l-278 -690q-70 -173 -49 -235zM928 -61l10 24h180l307 758q65 73 134 113t114 40q44 0 56 -30 q-15 6 -31 6q-45 0 -114 -40.5t-134 -113.5l-307 -757h-215zM1505 918l197 489h35l-178 -444zM1567 -27q44 -36 129 -36q74 0 148 39t144 112.5t131.5 160.5t127.5 202q19 -6 24 -25q-66 -115 -127.5 -202t-131.5 -160.5t-144 -112.5t-148 -39q-106 0 -153 61zM1735 76 q-73 23 24 260l125 307q68 168 68 252q0 55 -31 98q55 -42 55 -123q0 -87 -67 -252l-125 -307q-71 -177 -49 -235z" />
<glyph unicode="jn" horiz-adv-x="1611" d="M-514 -592q54 -45 147 -45q59 0 111 20.5t90 52t73.5 82t60 97.5t52.5 111l60 145q178 83 280 156l25 -25q-18 -13 -38 -25.5t-35.5 -22t-38 -22t-34 -19t-37 -19t-32.5 -16t-34.5 -17t-31.5 -15.5q-41 -100 -59 -145q-28 -64 -52.5 -111t-60 -97.5t-73.5 -82t-90 -52 t-111 -20.5q-115 0 -172 70zM-455 -436q0 58 103 123q20 12 45 24.5t39.5 18.5t48 19.5t43.5 17.5q-2 -4 -8 -19t-9 -22q-78 -30 -135 -64q-102 -65 -102 -123q0 -10 4 -22q-29 13 -29 47zM141 23l398 978h34l-389 -956zM451 -61l10 24h180l307 762q64 71 131.5 110 t112.5 39q43 0 55 -30q-15 6 -30 6q-45 0 -112.5 -39.5t-131.5 -110.5l-307 -761h-215zM461 1184q34 -27 76 -27q52 0 88.5 37t36.5 90q0 40 -25 76q49 -36 49 -100q0 -53 -36.5 -90t-88.5 -37q-62 0 -100 51zM1085 -27q44 -36 129 -36q74 0 148 39t144 112.5t131.5 160.5 t127.5 202q19 -5 25 -25q-66 -115 -127.5 -202t-131.5 -160.5t-144 -112.5t-148 -39q-107 0 -154 61zM1253 76q-72 23 25 260l125 307q67 170 67 252q0 58 -30 100q55 -45 55 -125t-68 -252l-124 -307q-72 -179 -50 -235z" />
<glyph unicode="jm" horiz-adv-x="2099" d="M-514 -592q54 -45 147 -45q59 0 111 20.5t90 52t73.5 82t60 97.5t52.5 111l60 145q178 83 280 156l25 -25q-18 -13 -38 -25.5t-35.5 -22t-38 -22t-34 -19t-37 -19t-32.5 -16t-34.5 -17t-31.5 -15.5q-41 -100 -59 -145q-28 -64 -52.5 -111t-60 -97.5t-73.5 -82t-90 -52 t-111 -20.5q-115 0 -172 70zM-455 -436q0 58 103 123q20 12 45 24.5t39.5 18.5t48 19.5t43.5 17.5q-2 -4 -8 -19t-9 -22q-78 -30 -135 -64q-102 -65 -102 -123q0 -10 4 -22q-29 13 -29 47zM141 23l398 978h34l-389 -956zM451 -61l10 24h180l307 762q64 71 131.5 110 t112.5 39q43 0 55 -30q-15 6 -30 6q-45 0 -112.5 -39.5t-131.5 -110.5l-307 -761h-215zM461 1184q34 -27 76 -27q52 0 88.5 37t36.5 90q0 40 -25 76q49 -36 49 -100q0 -53 -36.5 -90t-88.5 -37q-62 0 -100 51zM936 -61q4 8 10 24h180l310 762q62 71 130 110t113 39 q44 0 56 -30q-15 6 -31 6q-45 0 -113.5 -39.5t-130.5 -110.5l-309 -761h-215zM1573 -27q44 -36 129 -36q74 0 148 39t144 112.5t131.5 160.5t127.5 202q18 -3 24 -25q-66 -115 -127.5 -202t-131.5 -160.5t-144 -112.5t-148 -39q-106 0 -153 61zM1741 76q-73 23 24 260 l125 307q68 166 68 250q0 57 -31 100q55 -42 55 -125q0 -87 -67 -250l-125 -307q-71 -177 -49 -235z" />
<glyph unicode="jk" horiz-adv-x="1562" d="M-514 -592q54 -45 147 -45q59 0 111 20.5t90 52t73.5 82t60 97.5t52.5 111l60 145q178 83 280 154l25 -25q-100 -70 -281 -154q-41 -100 -59 -145q-28 -64 -52.5 -111t-60 -97.5t-73.5 -82t-90 -52t-111 -20.5q-115 0 -172 70zM-455 -436q0 58 103 123q20 12 45 24.5 t39.5 18.5t48 19.5t43.5 17.5q-2 -4 -8 -19t-9 -22q-78 -30 -135 -64q-102 -65 -102 -123q0 -10 4 -22q-29 13 -29 47zM141 23l398 978h34l-389 -956zM449 -61l10 24h180l307 762q65 71 133 110t113 39q44 0 53 -30q-12 6 -28 6q-44 0 -112.5 -39.5t-133.5 -110.5l-307 -761 h-215zM461 1184q34 -27 76 -27q52 0 88.5 37t36.5 90q0 40 -25 76q49 -36 49 -100q0 -53 -36.5 -90t-88.5 -37q-62 0 -100 51zM950 -16q57 -47 135 -47q82 0 177.5 50t180 128t156 165.5t117.5 170.5q20 -8 25 -25q-46 -83 -117.5 -170.5t-156 -165.5t-180 -128t-177.5 -50 q-98 0 -160 72zM1026 918l197 489h34l-178 -444zM1040 340q220 20 334 246q99 206 99 311q0 57 -31 96q55 -42 55 -121q0 -107 -98 -311q-114 -226 -334 -246q-8 -169 29 -229q-67 42 -54 254z" />
<glyph unicode="jh" horiz-adv-x="1613" d="M-514 -592q54 -45 147 -45q59 0 111 20.5t90 52t73.5 82t60 97.5t52.5 111l60 145q189 92 280 156l25 -27q-100 -70 -281 -154q-41 -100 -59 -145q-28 -64 -52.5 -111t-60 -97.5t-73.5 -82t-90 -52t-111 -20.5q-115 0 -172 70zM-455 -436q0 58 103 123q20 12 45 24.5 t39.5 18.5t48 19.5t43.5 17.5q-2 -4 -8 -19t-9 -22q-78 -30 -135 -64q-102 -65 -102 -123q0 -10 4 -22q-29 13 -29 47zM141 23l398 978h34l-389 -956zM449 -61l10 24h180l307 758q65 73 134 113t114 40q43 0 55 -30q-15 6 -30 6q-45 0 -114 -40.5t-134 -113.5l-307 -757 h-215zM461 1184q34 -27 76 -27q52 0 88.5 37t36.5 90q0 40 -25 76q49 -36 49 -100q0 -53 -36.5 -90t-88.5 -37q-62 0 -100 51zM1026 918l197 489h34l-178 -444zM1087 -27q44 -36 130 -36q74 0 148 39t143.5 112.5t131 160.5t127.5 202q19 -4 25 -25q-66 -115 -127.5 -202 t-131.5 -160.5t-144 -112.5t-148 -39q-107 0 -154 61zM1255 76q-72 23 25 260l125 307q68 168 68 252q0 55 -31 98q55 -42 55 -123q0 -87 -67 -252l-125 -307q-72 -179 -50 -235z" />
<glyph unicode="Wr" horiz-adv-x="2861" d="M150 537q94 -84 231 -84v155q8 -2 25 -2v-178q-159 0 -256 109zM217 809q0 60 31 113t75 89t114 73t125 58t133 50.5t114 44.5l-16 -41q-25 -10 -74 -28.5t-82 -31t-81 -32.5t-81 -38t-72.5 -41.5t-65.5 -49t-49.5 -55t-34.5 -64t-11 -72.5q0 -72 39 -120q-64 48 -64 145 zM487 -66q58 -47 156 -47q88 0 176.5 46t165.5 124q4 -26 8 -39q-73 -72 -157.5 -113.5t-167.5 -41.5q-124 0 -181 71zM645 59q-79 38 14 263q32 87 385 964q20 48 46.5 87.5t49.5 61.5t43 37t32 20l12 5l-31 105h16l39 -129q-4 -2 -12 -5.5t-31 -19.5t-44 -37.5t-48 -61 t-47 -87.5l-385 -965q-72 -177 -39 -238zM1051 -66q56 -47 153 -47q94 0 180 40.5t149 101.5t122 150t97.5 167t76.5 172l319 791q35 83 76 121t84.5 39t99.5 -3l31 133q9 0 29 -4l-35 -153q-40 6 -76.5 4t-67 -13.5t-60 -48t-56.5 -100.5l-320 -790q-38 -94 -76 -172 t-97.5 -167t-122.5 -150t-148.5 -101.5t-179.5 -40.5q-120 0 -178 71zM1188 59q-76 35 18 263l443 1103h34l-452 -1128q-72 -176 -43 -238zM1888 -37q81 72 222 309.5t278 538.5l25 -25q-137 -300 -278 -537.5t-222 -309.5q-21 6 -25 24zM2388 -27q41 -36 121 -36 q57 0 113.5 29t102.5 71.5t100.5 117t94 137t95.5 159.5q18 -5 24 -25q-56 -97 -95.5 -159.5t-94 -137t-100.5 -117t-102.5 -71.5t-113.5 -29q-98 0 -145 61zM2451 969l76 174l27 -19l-78 -178zM2554 76q-74 26 24 260l93 227q24 60 24 107q0 71 -61 135q86 -86 86 -160 q0 -43 -25 -106l-92 -228q-73 -174 -49 -235z" />
<glyph unicode="Wi" horiz-adv-x="2553" d="M150 537q94 -84 231 -84v155q8 -2 25 -2v-178q-159 0 -256 109zM217 809q0 60 31 113t75 89t114 73t125 58t133 50.5t114 44.5l-16 -41q-25 -10 -74 -28.5t-82 -31t-81 -32.5t-81 -38t-72.5 -41.5t-65.5 -49t-49.5 -55t-34.5 -64t-11 -72.5q0 -72 39 -120q-64 48 -64 145 zM487 -66q58 -47 156 -47q88 0 176.5 46t165.5 124q4 -26 8 -39q-73 -72 -157.5 -113.5t-167.5 -41.5q-124 0 -181 71zM645 59q-79 38 14 263l385 964q20 48 46.5 87.5t49.5 61.5t43 37t32 20l12 5l-31 105h16l39 -129q-4 -2 -12 -5.5t-31 -19.5t-44 -37.5t-48 -61 t-47 -87.5q-354 -879 -385 -965q-72 -177 -39 -238zM1051 -66q56 -47 153 -47q94 0 180 40.5t149 101.5t122 150t97.5 167t76.5 172l319 791q49 115 114 140t151 -38q0 -5 -3 -8q-147 90 -237 -119l-320 -790q-38 -94 -76 -172t-97.5 -167t-122.5 -150t-148.5 -101.5 t-179.5 -40.5q-120 0 -178 71zM1188 59q-76 35 18 263l443 1103h34l-452 -1128q-72 -176 -43 -238zM2036 -27q44 -36 121 -36q74 0 148 39t143.5 112.5t131 160.5t127.5 202q19 -3 25 -25q-66 -115 -127.5 -202t-131.5 -160.5t-144 -112.5t-148 -39q-95 0 -145 61zM2195 76 q-70 25 25 260l268 665h35l-278 -690q-71 -175 -50 -235zM2454 1288q30 -24 73 -24q53 0 90 37t37 90q0 41 -26 73q51 -38 51 -98q0 -52 -37.5 -89.5t-89.5 -37.5q-58 0 -98 49z" />
<glyph unicode="Wh" horiz-adv-x="3043" d="M150 537q94 -84 231 -84v155q8 -2 25 -2v-178q-159 0 -256 109zM217 809q0 60 31 113t75 89t114 73t125 58t133 50.5t114 44.5l-16 -41q-25 -10 -74 -28.5t-82 -31t-81 -32.5t-81 -38t-72.5 -41.5t-65.5 -49t-49.5 -55t-34.5 -64t-11 -72.5q0 -72 39 -120q-64 48 -64 145 zM487 -66q58 -47 156 -47q88 0 176.5 46t165.5 124q4 -26 8 -39q-73 -72 -157.5 -113.5t-167.5 -41.5q-124 0 -181 71zM645 59q-79 38 14 263q32 87 385 964q20 48 46.5 87.5t49.5 61.5t43 37t32 20l12 5l-31 105h16l39 -129q-4 -2 -12 -5.5t-31 -19.5t-44 -37.5t-48 -61 t-47 -87.5l-385 -965q-72 -177 -39 -238zM1051 -66q56 -47 153 -47q94 0 180 40.5t149 101.5t122 150t97.5 167t76.5 172l319 791q88 213 285 90l-4 -8q-173 89 -256 -107l-320 -790q-38 -94 -76 -172t-97.5 -167t-122.5 -150t-148.5 -101.5t-179.5 -40.5q-120 0 -178 71z M1188 59q-76 35 18 263l443 1103h34l-452 -1128q-72 -176 -43 -238zM1878 -61l10 24h180l308 758q65 73 133.5 113t113.5 40q44 0 56 -30q-15 6 -31 6q-45 0 -114 -40.5t-134 -113.5l-307 -757h-215zM2456 918l206 514l25 -25l-178 -444zM2525 -27q44 -36 121 -36 q74 0 148 39t144 112.5t131.5 160.5t127.5 202q19 -4 25 -25q-66 -115 -127.5 -202t-131.5 -160.5t-144 -112.5t-148 -39q-96 0 -146 61zM2685 76q-72 23 25 260l124 307q68 168 68 252q0 55 -31 98q56 -43 56 -123q0 -84 -68 -252l-125 -307q-71 -177 -49 -235z" />
<glyph unicode="Vs" horiz-adv-x="2392" d="M150 537q94 -84 231 -84v155q8 -2 25 -2v-178q-159 0 -256 109zM217 809q0 62 33 116.5t81 92t119.5 74.5t131.5 59t135.5 50.5t113.5 45.5l-8 -39q-31 -13 -84.5 -33t-95 -35t-95.5 -38.5t-94.5 -45.5t-82 -52.5t-68.5 -62t-44 -72t-17 -85.5q0 -72 39 -120 q-64 48 -64 145zM567 -88l6 25h177q149 85 277.5 186.5t223.5 200.5t174.5 213t132.5 213t95.5 213t66.5 200.5t42 187.5t25 161.5t13 134.5l27 4q-8 -102 -16.5 -175t-38.5 -219t-72 -262.5t-122.5 -274t-184.5 -287.5t-264 -270t-355 -251h-207zM801 180l246 1114 q12 50 35 89.5t47 60t46.5 33.5t36.5 17l15 3l-31 105h16l39 -129q-6 -1 -15.5 -3.5t-35 -16.5t-48 -33.5t-46 -59.5t-35.5 -90l-235 -1063zM1442 -61q125 113 354 512q87 151 164 305v-76q-94 -176 -139 -254q-228 -397 -355 -512q-20 3 -24 25zM1663 18q93 -81 235 -81 q69 0 132.5 15.5t114.5 40t100.5 65t86.5 80.5t78 97.5t70 104t66 111.5q18 -4 24 -25q-38 -66 -66 -112t-69.5 -104t-78 -97.5t-86 -80t-100.5 -65t-114.5 -40t-132.5 -15.5q-93 0 -158.5 32t-101.5 74zM2134 123q23 70 23 164q0 22 -6 121.5t-9 183t5.5 204t31.5 218.5 l29 -13q-25 -99 -34.5 -221.5t-7 -206.5t8.5 -187.5t6 -123.5q0 -71 -10 -117q-21 -14 -37 -22z" />
<glyph unicode="ch" horiz-adv-x="1908" d="M104 6q81 -69 228 -69q167 0 319 92l25 -25q-152 -92 -320 -92q-170 0 -252 94zM209 231q0 61 31 167t80.5 214t122 186.5t143.5 78.5q39 0 47 -27q-6 2 -23 2q-71 0 -143.5 -78.5t-122 -186t-80.5 -213.5t-31 -167q0 -57 31 -96q-55 42 -55 120zM569 559l13 25h176 q45 85 61.5 161t6 133.5t-45.5 98.5q70 -58 73 -164t-71 -254h-213zM743 -61l11 24h180l307 758q65 73 134 113t114 40q43 0 55 -30q-15 6 -31 6q-45 0 -113.5 -40.5t-133.5 -113.5l-308 -757h-215zM1321 918l197 489h34l-178 -444zM1382 -27q44 -36 129 -36q74 0 148 39 t144 112.5t131.5 160.5t127.5 202q19 -4 25 -25q-66 -115 -127.5 -202t-131.5 -160.5t-144 -112.5t-148 -39q-107 0 -154 61zM1550 76q-72 23 25 260l125 307q67 165 67 252q0 56 -30 98q55 -42 55 -123q0 -84 -68 -252l-125 -307q-71 -177 -49 -235z" />
<glyph unicode="inn" horiz-adv-x="2596" d="M14 -27q44 -36 129 -36q99 0 197 67l22 -22q-98 -70 -194 -70q-107 0 -154 61zM182 76q-70 24 25 260l268 665h35l-279 -690q-71 -174 -49 -235zM397 1182q31 -25 74 -25q53 0 90 37.5t37 89.5q0 38 -25 74q50 -40 50 -98q0 -52 -37.5 -89.5t-89.5 -37.5q-63 0 -99 49z M408 -61l10 24h180l307 762q64 71 131.5 110t112.5 39q43 0 55 -30q-15 6 -30 6q-45 0 -112.5 -39.5t-131.5 -110.5l-307 -761h-215zM1042 -27q44 -36 129 -36q100 0 197 69l25 -24q-98 -70 -197 -70q-107 0 -154 61zM1210 76q-72 23 25 260l125 307q67 170 67 252 q0 58 -30 100q55 -45 55 -125t-68 -252l-124 -307q-72 -179 -50 -235zM1436 -61l10 24h180l307 762q64 71 131.5 110t112.5 39q43 0 55 -30q-15 6 -30 6q-45 0 -112.5 -39.5t-131.5 -110.5l-307 -761h-215zM2071 -27q44 -36 129 -36q74 0 148 39t143.5 112.5t131 160.5 t127.5 202q19 -4 25 -25q-66 -115 -127.5 -202t-131.5 -160.5t-144 -112.5t-148 -39q-106 0 -153 61zM2238 76q-72 23 25 260l125 307q68 172 68 252q0 57 -31 100q55 -45 55 -125q0 -82 -67 -252l-125 -307q-72 -179 -50 -235z" />
<glyph unicode="Un" horiz-adv-x="2703" d="M150 492q94 -84 231 -84v155q8 -2 25 -2v-178q-159 0 -256 109zM217 764q0 60 31 113t75 89t114 73t125 58t133 50.5t114 44.5l-16 -41q-25 -10 -74 -28.5t-82 -31t-81 -32.5t-81 -38t-72.5 -41.5t-65.5 -49t-49.5 -55t-34.5 -64t-11 -72.5q0 -73 39 -121q-64 48 -64 146 zM508 -68q58 -47 143 -47q202 0 443 297q-2 -20 -2 -57q-230 -264 -416 -264q-108 0 -168 71zM642 201.5q8 63.5 46 156.5l356 883q21 49 47 89t49 61.5t42.5 36.5t31.5 20l11 4l-31 104h16l39 -129q-4 -1 -11.5 -4.5t-30 -19t-43.5 -36.5t-47.5 -61t-47.5 -89l-356 -883 q-76 -188 -37 -252q-21 10 -31.5 33t-2.5 86.5zM1157 -25q49 -38 123 -38q97 0 195 67l22 -22q-99 -70 -192 -70q-99 0 -148 63zM1321 90q-67 22 14 229l443 1106h34l-452 -1130q-58 -150 -39 -205zM1542 -61l10 24h181l307 762q64 71 131.5 110t112.5 39q43 0 55 -30 q-15 6 -31 6q-45 0 -112.5 -39.5t-131.5 -110.5l-307 -761h-215zM2177 -27q44 -36 129 -36q74 0 148 39t144 112.5t131.5 160.5t127.5 202q19 -3 25 -25q-66 -115 -127.5 -202t-131.5 -160.5t-144 -112.5t-148 -39q-107 0 -154 61zM2345 76q-72 23 25 260l124 307 q68 172 68 252q0 57 -31 100q56 -46 56 -125q0 -80 -68 -252l-125 -307q-71 -177 -49 -235z" />
<glyph unicode="Um" horiz-adv-x="3190" d="M150 492q94 -84 231 -84v155q8 -2 25 -2v-178q-159 0 -256 109zM217 764q0 60 31 113t75 89t114 73t125 58t133 50.5t114 44.5l-16 -41q-25 -10 -74 -28.5t-82 -31t-81 -32.5t-81 -38t-72.5 -41.5t-65.5 -49t-49.5 -55t-34.5 -64t-11 -72.5q0 -73 39 -121q-64 48 -64 146 zM508 -68q58 -47 143 -47q202 0 443 297q-2 -20 -2 -57q-230 -264 -416 -264q-108 0 -168 71zM642 201.5q8 63.5 46 156.5l356 883q21 49 47 89t49 61.5t42.5 36.5t31.5 20l11 4l-31 104h16l39 -129q-4 -1 -11.5 -4.5t-30 -19t-43.5 -36.5t-47.5 -61t-47.5 -89l-356 -883 q-76 -188 -37 -252q-21 10 -31.5 33t-2.5 86.5zM1157 -25q49 -38 123 -38q100 0 195 67l22 -22q-99 -70 -192 -70q-99 0 -148 63zM1321 90q-67 22 14 229l443 1106h34l-452 -1130q-58 -150 -39 -205zM1542 -61l10 24h181l307 762q64 71 131.5 110t112.5 39q43 0 55 -30 q-15 6 -31 6q-45 0 -112.5 -39.5t-131.5 -110.5l-307 -761h-215zM2028 -61q4 8 10 24h180l309 762q62 70 130.5 109.5t113.5 39.5q43 0 55 -30q-15 6 -30 6q-45 0 -113.5 -39.5t-130.5 -110.5l-309 -761h-215zM2664 -27q44 -36 129 -36q74 0 148 39t144 112.5t131.5 160.5 t127.5 202q19 -3 25 -25q-66 -115 -127.5 -202t-131.5 -160.5t-144 -112.5t-148 -39q-107 0 -154 61zM2832 76q-72 23 25 260l125 307q67 163 67 250q0 58 -30 100q55 -42 55 -125q0 -84 -68 -250l-124 -307q-72 -179 -50 -235z" />
<glyph unicode="ph" horiz-adv-x="2007" d="M-299 -467l10 25h180l463 1144q57 78 119 125t113 47q38 0 53 -30q-12 6 -29 6q-51 0 -112.5 -46.5t-118.5 -125.5l-463 -1145h-215zM174 14q85 -77 244 -77q167 0 330 96l24 -25q-159 -96 -330 -96q-106 0 -171 31t-97 71zM539 55q57 51 129 172.5t129 284t57 289.5 q0 125 -55 192q80 -65 80 -217q0 -164 -86 -367.5t-183 -326.5q-62 -25 -71 -27zM842 -61l10 24h180l307 758q65 73 134 113t114 40q43 0 55 -30q-15 6 -30 6q-45 0 -114 -40.5t-134 -113.5l-307 -757h-215zM1419 918l197 489h35l-178 -444zM1481 -27q44 -36 129 -36 q74 0 148 39t144 112.5t131.5 160.5t127.5 202q18 -5 24 -25q-66 -115 -127.5 -202t-131.5 -160.5t-144 -112.5t-148 -39q-106 0 -153 61zM1649 76q-73 23 24 260l125 307q68 168 68 252q0 55 -31 98q55 -42 55 -123q0 -87 -67 -252l-125 -307q-71 -177 -49 -235z" />
<glyph unicode="pk" horiz-adv-x="1955" d="M-299 -467l10 25h180l463 1144q57 78 119 125t113 47q38 0 53 -30q-12 6 -29 6q-51 0 -112.5 -46.5t-118.5 -125.5l-463 -1145h-215zM174 14q85 -77 244 -77q167 0 330 96l24 -25q-159 -96 -330 -96q-106 0 -171 31t-97 71zM539 55q57 51 129 172.5t129 284t57 289.5 q0 125 -55 192q80 -65 80 -217q0 -164 -86 -367.5t-183 -326.5q-62 -25 -71 -27zM842 -61l10 24h180l307 762q65 71 133 110t113 39q44 0 53 -30q-12 6 -28 6q-44 0 -112.5 -39.5t-133.5 -110.5l-307 -761h-215zM1343 -16q57 -47 136 -47q82 0 177.5 50t180 128t155.5 165.5 t117 170.5q7 0 14.5 -7.5t10.5 -17.5q-46 -83 -117.5 -170.5t-156 -165.5t-180 -128t-177.5 -50q-98 0 -160 72zM1419 918l197 489h35l-178 -444zM1434 340q219 20 333 246q99 206 99 311q0 57 -31 96q55 -42 55 -121q0 -107 -98 -311q-114 -226 -334 -246q-8 -169 29 -229 q-66 41 -53 254z" />
<glyph unicode="pm" horiz-adv-x="2492" d="M-299 -467l10 25h180l463 1144q57 78 119 125t113 47q38 0 53 -30q-12 6 -29 6q-51 0 -112.5 -46.5t-118.5 -125.5l-463 -1145h-215zM174 14q85 -77 244 -77q169 0 332 96l24 -25q-163 -96 -332 -96q-106 0 -171 31t-97 71zM236 111q0 -3 2 -5q0 1 -1 2.5t-1 2.5zM539 55 q57 51 129 172.5t129 284t57 289.5q0 125 -55 192q80 -65 80 -217q0 -164 -86 -367.5t-183 -326.5q-62 -25 -71 -27zM844 -61l10 24h180l307 762q64 71 131.5 110t112.5 39q43 0 55 -30q-15 6 -30 6q-45 0 -112.5 -39.5t-131.5 -110.5l-307 -761h-215zM1329 -61q4 8 10 24 h181l309 762q62 70 130.5 109.5t113.5 39.5q43 0 55 -30q-15 6 -31 6q-45 0 -113.5 -39.5t-130.5 -110.5l-309 -761h-215zM1966 -27q44 -36 129 -36q74 0 148 39t144 112.5t131.5 160.5t127.5 202q19 -4 25 -25q-66 -115 -127.5 -202t-131.5 -160.5t-144 -112.5t-148 -39 q-107 0 -154 61zM2134 76q-72 23 25 260l125 307q67 163 67 250q0 57 -31 100q56 -42 56 -125q0 -84 -68 -250l-125 -307q-71 -177 -49 -235z" />
<glyph unicode="pn" horiz-adv-x="2004" d="M-299 -467l10 25h180l463 1144q57 78 119 125t113 47q38 0 53 -30q-12 6 -29 6q-51 0 -112.5 -46.5t-118.5 -125.5l-463 -1145h-215zM174 14q85 -77 244 -77q175 0 332 96l22 -25q-163 -96 -330 -96q-106 0 -171 31t-97 71zM539 55q57 51 129 172.5t129 284t57 289.5 q0 125 -55 192q80 -65 80 -217q0 -164 -86 -367.5t-183 -326.5q-62 -25 -71 -27zM844 -61l10 24h180l307 762q64 71 131.5 110t112.5 39q43 0 55 -30q-15 6 -30 6q-45 0 -112.5 -39.5t-131.5 -110.5l-307 -761h-215zM1479 -27q44 -36 129 -36q74 0 148 39t144 112.5 t131.5 160.5t127.5 202q5 0 13 -7.5t11 -17.5q-66 -115 -127.5 -202t-131.5 -160.5t-144 -112.5t-148 -39q-106 0 -153 61zM1647 76q-73 23 24 260l125 307q68 172 68 252q0 57 -31 100q55 -45 55 -125q0 -82 -67 -252l-125 -307q-71 -177 -49 -235z" />
<glyph unicode="Uk" horiz-adv-x="2654" d="M150 492q94 -84 231 -84v155q8 -2 25 -2v-178q-159 0 -256 109zM217 764q0 60 31 113t75 89t114 73t125 58t133 50.5t114 44.5l-16 -41q-25 -10 -74 -28.5t-82 -31t-81 -32.5t-81 -38t-72.5 -41.5t-65.5 -49t-49.5 -55t-34.5 -64t-11 -72.5q0 -73 39 -121q-64 48 -64 146 zM508 -68q58 -47 143 -47q202 0 443 297q-2 -20 -2 -57q-230 -264 -416 -264q-108 0 -168 71zM642 201.5q8 63.5 46 156.5l356 883q21 49 47 89t49 61.5t42.5 36.5t31.5 20l11 4l-31 104h16l39 -129q-4 -1 -11.5 -4.5t-30 -19t-43.5 -36.5t-47.5 -61t-47.5 -89l-356 -883 q-76 -188 -37 -252q-21 10 -31.5 33t-2.5 86.5zM1157 -25q49 -38 123 -38q98 0 193 67l24 -24q-100 -68 -192 -68q-99 0 -148 63zM1321 90q-67 22 14 229l443 1106h34l-452 -1130q-58 -150 -39 -205zM1540 -61l10 24h181l307 762q65 71 133 110t113 39q44 0 53 -30 q-12 6 -29 6q-44 0 -112.5 -39.5t-133.5 -110.5l-307 -761h-215zM2042 -16q57 -47 135 -47q82 0 177.5 50t180 128t156 165.5t117.5 170.5q18 -3 24 -25q-46 -83 -117 -170.5t-155.5 -165.5t-180 -128t-177.5 -50q-98 0 -160 72zM2118 918l196 489h35l-178 -444zM2132 340 q220 20 334 246q98 204 98 311q0 57 -31 96q56 -43 56 -121q0 -105 -99 -311q-114 -226 -333 -246q-8 -171 28 -229q-66 41 -53 254z" />
<glyph unicode="Uh" horiz-adv-x="2705" d="M150 492q94 -84 231 -84v155q8 -2 25 -2v-178q-159 0 -256 109zM217 764q0 60 31 113t75 89t114 73t125 58t133 50.5t114 44.5l-16 -41q-25 -10 -74 -28.5t-82 -31t-81 -32.5t-81 -38t-72.5 -41.5t-65.5 -49t-49.5 -55t-34.5 -64t-11 -72.5q0 -73 39 -121q-64 48 -64 146 zM508 -68q58 -47 143 -47q202 0 443 297q-2 -20 -2 -57q-230 -264 -416 -264q-108 0 -168 71zM642 201.5q8 63.5 46 156.5l356 883q21 49 47 89t49 61.5t42.5 36.5t31.5 20l11 4l-31 104h16l39 -129q-4 -1 -11.5 -4.5t-30 -19t-43.5 -36.5t-47.5 -61t-47.5 -89l-356 -883 q-76 -188 -37 -252q-21 10 -31.5 33t-2.5 86.5zM1157 -25q49 -38 123 -38q98 0 193 67l24 -24q-100 -68 -192 -68q-99 0 -148 63zM1321 90q-67 22 14 229l443 1106h34l-452 -1130q-58 -150 -39 -205zM1540 -61l10 24h181l307 758q65 73 134 113t114 40q43 0 55 -30 q-15 6 -31 6q-45 0 -114 -40.5t-134 -113.5l-307 -757h-215zM2118 918l196 489h35l-178 -444zM2179 -27q44 -36 129 -36q74 0 148 39t144 112.5t131.5 160.5t127.5 202q20 -7 25 -25q-66 -115 -127.5 -202t-131.5 -160.5t-144 -112.5t-148 -39q-107 0 -154 61zM2347 76 q-72 23 25 260l125 307q67 165 67 252q0 55 -31 98q56 -43 56 -123q0 -84 -68 -252l-125 -307q-71 -177 -49 -235z" />
<glyph unicode="inm" horiz-adv-x="3084" d="M14 -27q44 -36 129 -36q99 0 197 67l22 -22q-98 -70 -194 -70q-107 0 -154 61zM182 76q-70 24 25 260l268 665h35l-279 -690q-71 -174 -49 -235zM397 1182q31 -25 74 -25q53 0 90 37.5t37 89.5q0 38 -25 74q50 -40 50 -98q0 -52 -37.5 -89.5t-89.5 -37.5q-63 0 -99 49z M408 -61l10 24h180l307 762q64 71 131.5 110t112.5 39q43 0 55 -30q-15 6 -30 6q-45 0 -112.5 -39.5t-131.5 -110.5l-307 -761h-215zM1042 -27q44 -36 129 -36q96 0 197 69l25 -24q-98 -70 -197 -70q-107 0 -154 61zM1210 76q-72 23 25 260l125 307q67 170 67 252 q0 58 -30 100q55 -45 55 -125t-68 -252l-124 -307q-72 -179 -50 -235zM1436 -61l10 24h180l307 762q64 71 131.5 110t112.5 39q43 0 55 -30q-15 6 -30 6q-45 0 -112.5 -39.5t-131.5 -110.5l-307 -761h-215zM1921 -61q4 8 10 24h180l310 762q62 71 130 110t113 39 q44 0 56 -30q-15 6 -31 6q-45 0 -113.5 -39.5t-130.5 -110.5l-309 -761h-215zM2558 -27q44 -36 129 -36q74 0 148 39t144 112.5t131.5 160.5t127.5 202q18 -4 24 -25q-66 -115 -127.5 -202t-131 -160.5t-143.5 -112.5t-148 -39q-107 0 -154 61zM2726 76q-73 23 24 260 l125 307q68 166 68 250q0 57 -31 100q56 -42 56 -125q0 -84 -68 -250l-125 -307q-71 -177 -49 -235z" />
<glyph unicode="in" horiz-adv-x="1568" d="M14 -27q44 -36 129 -36q100 0 197 69l25 -24q-98 -70 -197 -70q-107 0 -154 61zM182 76q-70 24 25 260l268 665h35l-279 -690q-71 -174 -49 -235zM397 1182q31 -25 74 -25q53 0 90 37.5t37 89.5q0 38 -25 74q50 -40 50 -98q0 -52 -37.5 -89.5t-89.5 -37.5q-63 0 -99 49z M408 -61l10 24h180l307 762q64 71 131.5 110t112.5 39q43 0 55 -30q-15 6 -30 6q-45 0 -112.5 -39.5t-131.5 -110.5l-307 -761h-215zM1042 -27q44 -36 129 -36q74 0 148 39t144 112.5t131.5 160.5t127.5 202q8 0 15 -7.5t10 -17.5q-66 -115 -127.5 -202t-131.5 -160.5 t-144 -112.5t-148 -39q-107 0 -154 61zM1210 76q-72 23 25 260l125 307q67 170 67 252q0 58 -30 100q55 -45 55 -125t-68 -252l-124 -307q-72 -179 -50 -235z" />
<glyph unicode="Tr" horiz-adv-x="2181" d="M170 -2q121 -111 301 -111q58 0 115 12t123.5 45t125.5 84.5t117.5 138t102.5 198.5l399 983q188 -29 307 -29q78 0 140 14t97 33t59.5 45t33 42.5t12.5 31.5l27 -15q0 -4 -1.5 -10t-10 -24.5t-21.5 -35t-39.5 -37t-61 -35t-89.5 -24.5t-121 -10q-118 0 -307 29 l-400 -983q-44 -112 -102.5 -198.5t-117 -138t-125.5 -84t-123.5 -44.5t-114.5 -12q-201 0 -326 135zM215 301q0 45 16.5 88.5t47.5 80.5t83.5 57.5t116.5 15.5v155h25v-180q-64 5 -116.5 -15.5t-83.5 -57.5t-47.5 -80.5t-16.5 -88.5q0 -87 55 -151q-39 33 -59.5 80 t-20.5 96zM256 1063q99 -86 231 -86q45 0 86.5 10.5t69.5 25t49 29t31 24.5l10 11l25 -24q-4 -4 -10.5 -11t-30 -24.5t-50 -30.5t-68.5 -24t-87 -11q-76 0 -143 29t-113 82zM322 1309q0 36 12.5 68.5t40 63t80.5 48.5t125 18q55 0 140 -12.5t154 -27t194 -41.5t187 -40 l-8 -18q-42 9 -142.5 31.5t-151 33t-125 24.5t-128 20t-96.5 6q-72 0 -125 -18t-80.5 -49t-40 -63.5t-12.5 -68.5q0 -63 35 -104q-59 46 -59 129zM1208 -37q81 72 222 309.5t278 538.5l25 -25q-137 -300 -278 -537.5t-222 -309.5q-21 6 -25 24zM1708 -27q41 -36 121 -36 q57 0 113.5 29t102.5 71.5t100.5 117t94 137t95.5 159.5q18 -5 24 -25q-56 -97 -95.5 -159.5t-94 -137t-100.5 -117t-102.5 -71.5t-113.5 -29q-98 0 -145 61zM1772 969l75 174l27 -19l-78 -178zM1874 76q-74 26 24 260l93 227q24 60 24 107q0 71 -61 135q86 -86 86 -160 q0 -43 -25 -106l-92 -228q-73 -174 -49 -235z" />
<glyph unicode="Tin" horiz-adv-x="2891" d="M170 -2q121 -111 301 -111q58 0 114.5 12t122.5 45t124.5 85t117.5 138t105 198l387 954q191 -35 323 -35q69 0 120 15t76 34.5t39.5 46.5t17.5 43.5t3 32.5q0 41 -24 80q49 -39 49 -104q0 -16 -3 -32.5t-17.5 -43.5t-39.5 -46.5t-76 -34.5t-120 -15q-139 0 -324 34 l-387 -954q-46 -112 -104.5 -198t-117.5 -137.5t-125 -84.5t-122 -45t-114 -12q-201 0 -326 135zM215 303q0 44 16.5 87.5t47.5 80t83.5 57t116.5 15.5v155h25v-180q-64 5 -116.5 -15.5t-83.5 -57t-47.5 -79.5t-16.5 -87q0 -90 57 -156q-40 34 -61 82.5t-21 97.5zM256 1063 q99 -86 231 -86q45 0 86.5 10.5t69.5 25t49 29t31 24.5l10 11l25 -24q-4 -4 -10.5 -11t-30 -24.5t-50 -30.5t-68.5 -24t-87 -11q-76 0 -143 29t-113 82zM322 1309q0 36 12.5 68.5t39.5 63t78 48.5t121 18q58 0 144 -15t153 -31.5t192 -49t185 -47.5l-6 -16 q-51 13 -175.5 45.5t-185 47t-143.5 28.5t-139 14q-70 0 -121.5 -18.5t-78.5 -48.5t-39.5 -63t-12.5 -69q0 -63 35 -104q-59 46 -59 129zM1337 -27q44 -36 129 -36q96 0 197 69l25 -24q-98 -70 -197 -70q-107 0 -154 61zM1505 76q-70 25 25 260l268 665h35l-279 -690 q-70 -173 -49 -235zM1731 -61l10 24h180l307 762q64 71 131.5 110t112.5 39q43 0 55 -30q-15 6 -30 6q-45 0 -112.5 -39.5t-131.5 -110.5l-307 -761h-215zM2365 -27q44 -36 129 -36q74 0 148 39t144 112.5t131.5 160.5t127.5 202q7 0 14.5 -7.5t10.5 -17.5 q-66 -115 -127.5 -202t-131.5 -160.5t-144 -112.5t-148 -39q-107 0 -154 61zM2533 76q-72 23 25 260l125 307q67 170 67 252q0 58 -30 100q55 -45 55 -125t-68 -252l-124 -307q-72 -179 -50 -235z" />
<glyph unicode="imn" horiz-adv-x="3084" d="M14 -27q44 -36 129 -36q100 0 197 69l25 -24q-98 -70 -197 -70q-107 0 -154 61zM182 76q-70 24 25 260l268 665h35l-279 -690q-71 -174 -49 -235zM397 1182q31 -25 74 -25q53 0 90 37.5t37 89.5q0 38 -25 74q50 -40 50 -98q0 -52 -37.5 -89.5t-89.5 -37.5q-63 0 -99 49z M408 -61l10 24h180l307 762q64 71 131.5 110t112.5 39q43 0 55 -30q-15 6 -30 6q-45 0 -112.5 -39.5t-131.5 -110.5l-307 -761h-215zM893 -61q4 8 10 24h180l310 762q62 71 130 110t113 39q44 0 56 -30q-15 6 -31 6q-45 0 -113.5 -39.5t-130.5 -110.5l-309 -761h-215z M1530 -27q44 -36 129 -36q98 0 196 67l23 -22q-98 -70 -195 -70q-106 0 -153 61zM1698 76q-73 23 24 260l125 307q68 166 68 250q0 57 -31 100q55 -42 55 -125q0 -87 -67 -250l-125 -307q-71 -177 -49 -235zM1923 -61l10 24h181l307 762q64 71 131 110t112 39q44 0 56 -30 q-15 6 -31 6q-45 0 -112.5 -39.5t-131.5 -110.5l-307 -761h-215zM2558 -27q44 -36 129 -36q74 0 148 39t144 112.5t131.5 160.5t127.5 202q5 0 13 -7.5t11 -17.5q-66 -115 -127.5 -202t-131 -160.5t-143.5 -112.5t-148 -39q-107 0 -154 61zM2726 76q-73 23 24 260l125 307 q68 172 68 252q0 57 -31 100q56 -46 56 -125q0 -80 -68 -252l-125 -307q-71 -177 -49 -235z" />
<glyph unicode="Tim" horiz-adv-x="3379" d="M170 -2q121 -111 301 -111q58 0 114.5 12t122.5 45t124.5 85t117.5 138t105 198l387 954q191 -35 323 -35q69 0 120 15t76 34.5t39.5 46.5t17.5 43.5t3 32.5q0 41 -24 80q49 -39 49 -104q0 -16 -3 -32.5t-17.5 -43.5t-39.5 -46.5t-76 -34.5t-120 -15q-139 0 -324 34 l-387 -954q-46 -112 -104.5 -198t-117.5 -137.5t-125 -84.5t-122 -45t-114 -12q-201 0 -326 135zM215 303q0 44 16.5 87.5t47.5 80t83.5 57t116.5 15.5v155h25v-180q-64 5 -116.5 -15.5t-83.5 -57t-47.5 -79.5t-16.5 -87q0 -90 57 -156q-40 34 -61 82.5t-21 97.5zM256 1063 q99 -86 231 -86q45 0 86.5 10.5t69.5 25t49 29t31 24.5l10 11l25 -24q-4 -4 -10.5 -11t-30 -24.5t-50 -30.5t-68.5 -24t-87 -11q-76 0 -143 29t-113 82zM322 1309q0 36 12.5 68.5t39.5 63t78 48.5t121 18q58 0 144 -15t153 -31.5t192 -49t185 -47.5l-6 -16 q-51 13 -175.5 45.5t-185 47t-143.5 28.5t-139 14q-70 0 -121.5 -18.5t-78.5 -48.5t-39.5 -63t-12.5 -69q0 -63 35 -104q-59 46 -59 129zM1337 -27q44 -36 129 -36q96 0 197 69l25 -24q-103 -70 -197 -70q-107 0 -154 61zM1505 76q-70 25 25 260l268 665h35l-279 -690 q-70 -173 -49 -235zM1731 -61l10 24h180l307 762q64 71 131.5 110t112.5 39q43 0 55 -30q-15 6 -30 6q-45 0 -112.5 -39.5t-131.5 -110.5l-307 -761h-215zM2216 -61q4 8 10 24h180l310 762q62 71 130 110t113 39q44 0 56 -30q-15 6 -31 6q-45 0 -113.5 -39.5t-130.5 -110.5 l-309 -761h-215zM2853 -27q44 -36 129 -36q74 0 148 39t144 112.5t131.5 160.5t127.5 202q18 -3 24 -25q-66 -115 -127.5 -202t-131.5 -160.5t-144 -112.5t-148 -39q-106 0 -153 61zM3021 76q-73 23 24 260l125 307q68 166 68 250q0 57 -31 100q55 -42 55 -125 q0 -87 -67 -250l-125 -307q-71 -177 -49 -235z" />
<glyph unicode="Tik" horiz-adv-x="2842" d="M170 -2q121 -111 301 -111q58 0 114.5 12t122.5 45t124.5 85t117.5 138t105 198l387 954q191 -35 323 -35q69 0 120 15t76 34.5t39.5 46.5t17.5 43.5t3 32.5q0 41 -24 80q49 -39 49 -104q0 -16 -3 -32.5t-17.5 -43.5t-39.5 -46.5t-76 -34.5t-120 -15q-139 0 -324 34 l-387 -954q-46 -112 -104.5 -198t-117.5 -137.5t-125 -84.5t-122 -45t-114 -12q-201 0 -326 135zM215 303q0 44 16.5 87.5t47.5 80t83.5 57t116.5 15.5v155h25v-180q-64 5 -116.5 -15.5t-83.5 -57t-47.5 -79.5t-16.5 -87q0 -90 57 -156q-40 34 -61 82.5t-21 97.5zM256 1063 q99 -86 231 -86q45 0 86.5 10.5t69.5 25t49 29t31 24.5l10 11l25 -24q-4 -4 -10.5 -11t-30 -24.5t-50 -30.5t-68.5 -24t-87 -11q-76 0 -143 29t-113 82zM322 1309q0 36 12.5 68.5t39.5 63t78 48.5t121 18q58 0 144 -15t153 -31.5t192 -49t185 -47.5l-6 -16 q-51 13 -175.5 45.5t-185 47t-143.5 28.5t-139 14q-70 0 -121.5 -18.5t-78.5 -48.5t-39.5 -63t-12.5 -69q0 -63 35 -104q-59 46 -59 129zM1337 -27q44 -36 129 -36q97 0 195 67l25 -24q-100 -68 -195 -68q-107 0 -154 61zM1505 76q-70 25 25 260l268 665h35l-279 -690 q-70 -173 -49 -235zM1729 -61l10 24h180l307 762q65 71 133 110t113 39q44 0 53 -30q-12 6 -28 6q-44 0 -112.5 -39.5t-133.5 -110.5l-307 -761h-215zM2230 -16q57 -47 135 -47q82 0 177.5 50t180 128t156 165.5t117.5 170.5q19 -4 25 -25q-46 -83 -117.5 -170.5 t-156 -165.5t-180 -128t-177.5 -50q-98 0 -160 72zM2306 918l197 489h34l-178 -444zM2320 340q220 20 334 246q99 206 99 311q0 57 -31 96q55 -42 55 -121q0 -107 -98 -311q-114 -226 -334 -246q-8 -169 29 -229q-67 42 -54 254z" />
<glyph unicode="Tih" horiz-adv-x="2893" d="M170 -2q121 -111 301 -111q58 0 114.5 12t122.5 45t124.5 85t117.5 138t105 198l387 954q191 -35 323 -35q69 0 120 15t76 34.5t39.5 46.5t17.5 43.5t3 32.5q0 41 -24 80q49 -39 49 -104q0 -16 -3 -32.5t-17.5 -43.5t-39.5 -46.5t-76 -34.5t-120 -15q-139 0 -324 34 l-387 -954q-46 -112 -104.5 -198t-117.5 -137.5t-125 -84.5t-122 -45t-114 -12q-201 0 -326 135zM215 303q0 44 16.5 87.5t47.5 80t83.5 57t116.5 15.5v155h25v-180q-64 5 -116.5 -15.5t-83.5 -57t-47.5 -79.5t-16.5 -87q0 -90 57 -156q-40 34 -61 82.5t-21 97.5zM256 1063 q99 -86 231 -86q45 0 86.5 10.5t69.5 25t49 29t31 24.5l10 11l25 -24q-4 -4 -10.5 -11t-30 -24.5t-50 -30.5t-68.5 -24t-87 -11q-76 0 -143 29t-113 82zM322 1309q0 36 12.5 68.5t39.5 63t78 48.5t121 18q58 0 144 -15t153 -31.5t192 -49t185 -47.5l-6 -16 q-51 13 -175.5 45.5t-185 47t-143.5 28.5t-139 14q-70 0 -121.5 -18.5t-78.5 -48.5t-39.5 -63t-12.5 -69q0 -63 35 -104q-59 46 -59 129zM1337 -27q44 -36 129 -36q97 0 195 67l25 -24q-100 -68 -195 -68q-107 0 -154 61zM1505 76q-70 25 25 260l268 665h35l-279 -690 q-70 -173 -49 -235zM1729 -61l10 24h180l307 758q65 73 134 113t114 40q43 0 55 -30q-15 6 -30 6q-45 0 -114 -40.5t-134 -113.5l-307 -757h-215zM2306 918l197 489h34l-178 -444zM2367 -27q44 -36 130 -36q74 0 148 39t143.5 112.5t131 160.5t127.5 202q19 -5 25 -25 q-66 -115 -127.5 -202t-131.5 -160.5t-144 -112.5t-148 -39q-107 0 -154 61zM2535 76q-72 23 25 260l125 307q68 168 68 252q0 55 -31 98q55 -42 55 -123q0 -87 -67 -252l-125 -307q-72 -179 -50 -235z" />
<glyph unicode="Ti" horiz-adv-x="1863" d="M170 -2q121 -111 301 -111q58 0 114.5 12t122.5 45t124.5 85t117.5 138t105 198l387 954q191 -35 323 -35q69 0 120 15t76 34.5t39.5 46.5t17.5 43.5t3 32.5q0 41 -24 80q49 -39 49 -104q0 -16 -3 -32.5t-17.5 -43.5t-39.5 -46.5t-76 -34.5t-120 -15q-139 0 -324 34 l-387 -954q-46 -112 -104.5 -198t-117.5 -137.5t-125 -84.5t-122 -45t-114 -12q-201 0 -326 135zM215 303q0 44 16.5 87.5t47.5 80t83.5 57t116.5 15.5v155h25v-180q-64 5 -116.5 -15.5t-83.5 -57t-47.5 -79.5t-16.5 -87q0 -90 57 -156q-40 34 -61 82.5t-21 97.5zM256 1063 q99 -86 231 -86q45 0 86.5 10.5t69.5 25t49 29t31 24.5l10 11l25 -24q-4 -4 -10.5 -11t-30 -24.5t-50 -30.5t-68.5 -24t-87 -11q-76 0 -143 29t-113 82zM322 1309q0 36 12.5 68.5t39.5 63t78 48.5t121 18q58 0 144 -15t153 -31.5t192 -49t185 -47.5l-6 -16 q-51 13 -175.5 45.5t-185 47t-143.5 28.5t-139 14q-70 0 -121.5 -18.5t-78.5 -48.5t-39.5 -63t-12.5 -69q0 -63 35 -104q-59 46 -59 129zM1337 -27q44 -36 129 -36q74 0 148 39t144 112.5t131.5 160.5t127.5 202q19 -4 25 -25q-66 -115 -127.5 -202t-131.5 -160.5 t-144 -112.5t-148 -39q-107 0 -154 61zM1505 76q-70 25 25 260l268 665h35l-279 -690q-70 -173 -49 -235z" />
<glyph unicode="Th" horiz-adv-x="2394" d="M170 -2q121 -111 301 -111q58 0 115 12t123.5 45t125.5 84.5t117.5 138t102.5 198.5l399 983q181 -29 299 -29l-10 -25q-119 6 -264 29l-400 -983q-44 -112 -102.5 -198.5t-117 -138t-125.5 -84t-123.5 -44.5t-114.5 -12q-201 0 -326 135zM215 301q0 45 16.5 88.5 t47.5 80.5t83.5 57.5t116.5 15.5v155h25v-180q-64 5 -116.5 -15.5t-83.5 -57.5t-47.5 -80.5t-16.5 -88.5q0 -87 55 -151q-39 33 -59.5 80t-20.5 96zM256 1063q99 -86 231 -86q45 0 86.5 10.5t69.5 25t49 29t31 24.5l10 11l25 -24q-4 -4 -10.5 -11t-30 -24.5t-50 -30.5 t-68.5 -24t-87 -11q-76 0 -143 29t-113 82zM322 1309q0 36 12.5 68.5t40 63t80.5 48.5t125 18q55 0 140 -12.5t154 -27t194 -41.5t187 -40l-8 -18q-42 9 -142.5 31.5t-151 33t-125 24.5t-128 20t-96.5 6q-72 0 -125 -18t-80.5 -49t-40 -63.5t-12.5 -68.5q0 -63 35 -104 q-59 46 -59 129zM1229 -61l10 24h180l307 758q65 73 134 113t114 40q44 0 56 -30q-15 6 -31 6q-45 0 -114 -40.5t-134 -113.5l-307 -757h-215zM1806 918l179 442q90 44 118 125l27 -15q-1 -3 -2.5 -9t-10 -23.5t-20 -33.5t-35 -35.5t-53.5 -33.5l-149 -372zM1868 -27 q44 -36 129 -36q74 0 148 39t144 112.5t131.5 160.5t127.5 202q6 0 13.5 -7.5t10.5 -17.5q-66 -115 -127.5 -202t-131.5 -160.5t-144 -112.5t-148 -39q-106 0 -153 61zM2036 76q-73 23 24 260l125 307q68 168 68 252q0 55 -31 98q55 -42 55 -123q0 -87 -67 -252l-125 -307 q-71 -177 -49 -235z" />
<glyph unicode="imm" horiz-adv-x="3571" d="M14 -27q44 -36 129 -36q96 0 197 69l25 -24q-98 -70 -197 -70q-107 0 -154 61zM182 76q-70 24 25 260l268 665h35l-279 -690q-71 -174 -49 -235zM397 1182q31 -25 74 -25q53 0 90 37.5t37 89.5q0 38 -25 74q50 -40 50 -98q0 -52 -37.5 -89.5t-89.5 -37.5q-63 0 -99 49z M408 -61l10 24h180l307 762q64 71 131.5 110t112.5 39q43 0 55 -30q-15 6 -30 6q-45 0 -112.5 -39.5t-131.5 -110.5l-307 -761h-215zM893 -61q4 8 10 24h180l310 762q62 71 130 110t113 39q44 0 56 -30q-15 6 -31 6q-45 0 -113.5 -39.5t-130.5 -110.5l-309 -761h-215z M1530 -27q44 -36 129 -36q95 0 196 69l25 -24q-98 -70 -197 -70q-106 0 -153 61zM1698 76q-73 23 24 260l125 307q68 166 68 250q0 57 -31 100q55 -42 55 -125q0 -87 -67 -250l-125 -307q-71 -177 -49 -235zM1923 -61l10 24h181l307 762q64 71 131 110t112 39q44 0 56 -30 q-15 6 -31 6q-45 0 -112.5 -39.5t-131.5 -110.5l-307 -761h-215zM2408 -61q5 8 11 24h180l309 762q62 70 130.5 109.5t113.5 39.5q43 0 55 -30q-15 6 -31 6q-45 0 -113 -39.5t-130 -110.5l-310 -761h-215zM3045 -27q44 -36 129 -36q74 0 148 39t144 112.5t131.5 160.5 t127.5 202q19 -5 25 -25q-66 -115 -127.5 -202t-131.5 -160.5t-144 -112.5t-148 -39q-107 0 -154 61zM3213 76q-72 23 25 260l125 307q67 163 67 250q0 58 -30 100q55 -42 55 -125q0 -84 -68 -250l-125 -307q-71 -177 -49 -235z" />
<glyph unicode="im" horiz-adv-x="2056" d="M14 -27q44 -36 129 -36q100 0 197 69l25 -24q-98 -70 -197 -70q-107 0 -154 61zM182 76q-70 24 25 260l268 665h35l-279 -690q-71 -174 -49 -235zM397 1182q31 -25 74 -25q53 0 90 37.5t37 89.5q0 38 -25 74q50 -40 50 -98q0 -52 -37.5 -89.5t-89.5 -37.5q-63 0 -99 49z M408 -61l10 24h180l307 762q64 71 131.5 110t112.5 39q43 0 55 -30q-15 6 -30 6q-45 0 -112.5 -39.5t-131.5 -110.5l-307 -761h-215zM893 -61q4 8 10 24h180l310 762q62 71 130 110t113 39q44 0 56 -30q-15 6 -31 6q-45 0 -113.5 -39.5t-130.5 -110.5l-309 -761h-215z M1530 -27q44 -36 129 -36q74 0 148 39t144 112.5t131.5 160.5t127.5 202q17 0 24 -25q-66 -115 -127.5 -202t-131.5 -160.5t-144 -112.5t-148 -39q-106 0 -153 61zM1698 76q-73 23 24 260l125 307q68 166 68 250q0 57 -31 100q55 -42 55 -125q0 -87 -67 -250l-125 -307 q-71 -177 -49 -235z" />
<glyph unicode="ik" horiz-adv-x="1519" d="M14 -27q44 -36 129 -36q97 0 195 67l24 -24q-100 -68 -194 -68q-107 0 -154 61zM182 76q-70 24 25 260l268 665h35l-279 -690q-71 -174 -49 -235zM397 1182q31 -25 74 -25q53 0 90 37.5t37 89.5q0 38 -25 74q50 -40 50 -98q0 -52 -37.5 -89.5t-89.5 -37.5q-63 0 -99 49z M406 -61l10 24h180l307 762q65 71 133 110t113 39q44 0 53 -30q-12 6 -28 6q-44 0 -112.5 -39.5t-133.5 -110.5l-307 -761h-215zM907 -16q57 -47 135 -47q82 0 177.5 50t180 128t156 165.5t117.5 170.5q20 -7 25 -25q-46 -83 -117.5 -170.5t-156 -165.5t-180 -128 t-177.5 -50q-98 0 -160 72zM983 918l197 489h34l-178 -444zM997 340q220 20 334 246q99 206 99 311q0 57 -31 96q55 -42 55 -121q0 -107 -98 -311q-114 -226 -334 -246q-8 -169 29 -229q-67 42 -54 254z" />
<glyph unicode="ih" horiz-adv-x="1570" d="M14 -27q44 -36 129 -36q100 0 195 67l24 -24q-100 -68 -194 -68q-107 0 -154 61zM182 76q-70 24 25 260l268 665h35l-279 -690q-71 -174 -49 -235zM397 1182q31 -25 74 -25q53 0 90 37.5t37 89.5q0 38 -25 74q50 -40 50 -98q0 -52 -37.5 -89.5t-89.5 -37.5q-63 0 -99 49z M406 -61l10 24h180l307 758q65 73 134 113t114 40q43 0 55 -30q-15 6 -30 6q-45 0 -114 -40.5t-134 -113.5l-307 -757h-215zM983 918l197 489h34l-178 -444zM1044 -27q44 -36 130 -36q74 0 148 39t143.5 112.5t131 160.5t127.5 202q19 -4 25 -25q-66 -115 -127.5 -202 t-131.5 -160.5t-144 -112.5t-148 -39q-107 0 -154 61zM1212 76q-72 23 25 260l125 307q68 168 68 252q0 55 -31 98q55 -42 55 -123q0 -84 -68 -252l-124 -307q-72 -179 -50 -235z" />
<glyph unicode="ck" horiz-adv-x="1857" d="M104 6q81 -69 228 -69q167 0 319 92l25 -25q-152 -92 -320 -92q-170 0 -252 94zM209 231q0 61 31 167t80.5 214t122 186.5t143.5 78.5q39 0 47 -27q-6 2 -23 2q-71 0 -143.5 -78.5t-122 -186t-80.5 -213.5t-31 -167q0 -57 31 -96q-55 42 -55 120zM569 559l13 25h176 q45 85 61.5 161t6 133.5t-45.5 98.5q70 -58 73 -164t-71 -254h-213zM743 -61l11 24h180l307 762q65 71 133 110t113 39q44 0 53 -30q-12 6 -29 6q-44 0 -112 -39.5t-133 -110.5l-308 -761h-215zM1245 -16q57 -47 135 -47q82 0 177.5 50t180 128t156 165.5t117.5 170.5 q19 -4 25 -25q-46 -83 -117.5 -170.5t-156 -165.5t-180 -128t-177.5 -50q-98 0 -160 72zM1321 918l197 489h34l-178 -444zM1335 340q220 20 334 246q98 204 98 311q0 59 -30 96q55 -42 55 -121q0 -107 -98 -311q-114 -226 -334 -246q-8 -169 29 -229q-67 42 -54 254z" />
<glyph unicode="cm" horiz-adv-x="2394" d="M104 6q81 -69 228 -69q166 0 321 94l25 -25q-155 -94 -322 -94q-170 0 -252 94zM209 231q0 61 31 167t80.5 214t122 186.5t143.5 78.5q39 0 47 -27q-6 2 -23 2q-71 0 -143.5 -78.5t-122 -186t-80.5 -213.5t-31 -167q0 -57 31 -96q-55 42 -55 120zM569 559l13 25h176 q45 85 61.5 161t6 133.5t-45.5 98.5q70 -58 73 -164t-71 -254h-213zM745 -61l11 24h180l307 762q64 71 131.5 110t112.5 39q43 0 55 -30q-15 6 -31 6q-44 0 -111.5 -39.5t-131.5 -110.5l-307 -761h-216zM1231 -61q4 8 10 24h180l310 762q62 71 130 110t113 39q44 0 56 -30 q-15 6 -31 6q-45 0 -113.5 -39.5t-130.5 -110.5l-309 -761h-215zM1868 -27q44 -36 129 -36q74 0 148 39t144 112.5t131.5 160.5t127.5 202q18 -4 24 -25q-66 -115 -127.5 -202t-131.5 -160.5t-144 -112.5t-148 -39q-106 0 -153 61zM2036 76q-73 23 24 260l125 307 q68 166 68 250q0 57 -31 100q55 -42 55 -125q0 -87 -67 -250l-125 -307q-71 -177 -49 -235z" />
<glyph unicode="hn" horiz-adv-x="2058" d="M-135 -61l10 24h180l307 758q65 73 134 113t114 40q44 0 56 -30q-15 6 -31 6q-45 0 -114 -40.5t-134 -113.5l-307 -757h-215zM442 918l197 489h35l-178 -444zM504 -27q44 -36 129 -36q99 0 196 69l25 -24q-98 -70 -197 -70q-106 0 -153 61zM672 76q-73 23 24 260l125 307 q68 168 68 252q0 55 -31 98q55 -42 55 -123q0 -87 -67 -252l-125 -307q-71 -177 -49 -235zM897 -61l10 24h180l308 762q64 71 131 110t112 39q44 0 56 -30q-15 6 -31 6q-45 0 -112.5 -39.5t-131.5 -110.5l-307 -761h-215zM1532 -27q44 -36 129 -36q74 0 148 39t144 112.5 t131.5 160.5t127.5 202q18 -4 24 -25q-66 -115 -127.5 -202t-131 -160.5t-143.5 -112.5t-148 -39q-107 0 -154 61zM1700 76q-73 23 24 260l125 307q68 172 68 252q0 57 -31 100q56 -46 56 -125q0 -80 -68 -252l-125 -307q-71 -177 -49 -235z" />
<glyph unicode="hm" horiz-adv-x="2545" d="M-135 -61l10 24h180l307 758q65 73 134 113t114 40q44 0 56 -30q-15 6 -31 6q-45 0 -114 -40.5t-134 -113.5l-307 -757h-215zM442 918l197 489h35l-178 -444zM504 -27q44 -36 129 -36q98 0 196 67l23 -22q-98 -70 -195 -70q-106 0 -153 61zM672 76q-73 23 24 260l125 307 q68 168 68 252q0 55 -31 98q55 -42 55 -123q0 -87 -67 -252l-125 -307q-71 -177 -49 -235zM897 -61l10 24h180l308 762q64 71 131 110t112 39q44 0 56 -30q-15 6 -31 6q-45 0 -112.5 -39.5t-131.5 -110.5l-307 -761h-215zM1382 -61q5 8 11 24h180l309 762q62 70 130.5 109.5 t113.5 39.5q43 0 55 -30q-15 6 -31 6q-45 0 -113 -39.5t-130 -110.5l-310 -761h-215zM2019 -27q44 -36 129 -36q74 0 148 39t144 112.5t131.5 160.5t127.5 202q20 -7 25 -25q-66 -115 -127.5 -202t-131.5 -160.5t-144 -112.5t-148 -39q-107 0 -154 61zM2187 76 q-72 23 25 260l125 307q67 163 67 250q0 58 -30 100q55 -42 55 -125q0 -84 -68 -250l-125 -307q-71 -177 -49 -235z" />
<glyph unicode="hk" horiz-adv-x="2009" d="M-135 -61l10 24h180l307 758q65 73 134 113t114 40q44 0 56 -30q-15 6 -31 6q-45 0 -114 -40.5t-134 -113.5l-307 -757h-215zM442 918l197 489h35l-178 -444zM504 -27q44 -36 129 -36q96 0 194 67l25 -24q-100 -68 -195 -68q-106 0 -153 61zM672 76q-73 23 24 260 l125 307q68 168 68 252q0 55 -31 98q55 -42 55 -123q0 -87 -67 -252l-125 -307q-71 -177 -49 -235zM895 -61l10 24h180l308 762q65 71 132.5 110t112.5 39t54 -30q-12 6 -29 6q-44 0 -112.5 -39.5t-133.5 -110.5l-307 -761h-215zM1397 -16q57 -47 135 -47q82 0 177.5 50 t180 128t156 165.5t117.5 170.5q19 -8 24 -25q-46 -83 -117.5 -170.5t-156 -165.5t-180 -128t-177.5 -50q-97 0 -159 72zM1473 918l196 489h35l-178 -444zM1487 340q220 20 334 246q98 204 98 311q0 57 -31 96q56 -43 56 -121q0 -105 -99 -311q-114 -226 -334 -246 q-8 -169 29 -229q-66 41 -53 254z" />
<glyph unicode="rh" horiz-adv-x="1839" d="M154 451q85 148 182 360l24 -25q-97 -212 -182 -360q-21 4 -24 25zM336 -27q41 -36 121 -36q82 0 161 57l25 -25q-83 -57 -162 -57q-98 0 -145 61zM399 967l76 176l27 -19l-78 -180zM476 101q-8 20 2 80.5t48 154.5l92 227q25 63 25 105q0 73 -61 137q86 -86 86 -162 q0 -41 -25 -104l-92 -228q-71 -177 -49 -235q-18 5 -26 25zM674 -61l10 24h180l307 758q65 73 134 113t114 40q44 0 56 -30q-15 6 -31 6q-45 0 -114 -40.5t-134 -113.5l-307 -757h-215zM1251 918l197 489h35l-178 -444zM1313 -27q44 -36 129 -36q74 0 148 39t144 112.5 t131.5 160.5t127.5 202q6 0 13.5 -7.5t10.5 -17.5q-66 -115 -127.5 -202t-131.5 -160.5t-144 -112.5t-148 -39q-106 0 -153 61zM1481 76q-73 23 24 260l125 307q68 168 68 252q0 55 -31 98q55 -42 55 -123q0 -87 -67 -252l-125 -307q-71 -177 -49 -235z" />
<glyph unicode="rk" horiz-adv-x="1787" d="M154 451q85 148 182 360l24 -25q-97 -212 -182 -360q-21 4 -24 25zM336 -27q41 -36 121 -36q82 0 161 57l25 -25q-83 -57 -162 -57q-98 0 -145 61zM399 967l76 176l27 -19l-78 -180zM476 101q-8 20 2 80.5t48 154.5l92 227q25 63 25 105q0 73 -61 137q86 -86 86 -162 q0 -41 -25 -104l-92 -228q-71 -177 -49 -235q-18 5 -26 25zM674 -61l10 24h180l307 762q65 71 133 110t113 39q44 0 53 -30q-12 6 -28 6q-44 0 -112.5 -39.5t-133.5 -110.5l-307 -761h-215zM1176 -16q57 -47 135 -47q82 0 177.5 50t180 128t156 165.5t117.5 170.5 q19 -6 24 -25q-46 -83 -117.5 -170.5t-156 -165.5t-180 -128t-177.5 -50q-97 0 -159 72zM1251 918l197 489h35l-178 -444zM1266 340q219 20 333 246q99 206 99 311q0 57 -31 96q55 -42 55 -121q0 -107 -98 -311q-114 -226 -334 -246q-8 -169 29 -229q-66 41 -53 254z" />
<glyph unicode="rm" horiz-adv-x="2324" d="M154 451q85 148 182 360l24 -25q-97 -212 -182 -360q-21 4 -24 25zM336 -27q41 -36 121 -36q82 0 161 57l25 -25q-79 -57 -162 -57q-98 0 -145 61zM399 967l76 176l27 -19l-78 -180zM476 101q-8 20 2 80.5t48 154.5l92 227q25 63 25 105q0 73 -61 137q86 -86 86 -162 q0 -41 -25 -104l-92 -228q-71 -177 -49 -235q-18 5 -26 25zM676 -61l10 24h180l308 762q64 71 131 110t112 39q44 0 56 -30q-15 6 -31 6q-45 0 -112.5 -39.5t-131.5 -110.5l-307 -761h-215zM1161 -61q4 8 10 24h181l309 762q62 70 130.5 109.5t113.5 39.5q43 0 55 -30 q-15 6 -31 6q-45 0 -113 -39.5t-130 -110.5l-310 -761h-215zM1798 -27q44 -36 129 -36q74 0 148 39t144 112.5t131.5 160.5t127.5 202q5 0 13.5 -7.5t11.5 -17.5q-66 -115 -127.5 -202t-131.5 -160.5t-144 -112.5t-148 -39q-107 0 -154 61zM1966 76q-72 23 25 260l125 307 q67 163 67 250q0 57 -31 100q56 -42 56 -125q0 -84 -68 -250l-125 -307q-71 -177 -49 -235z" />
<glyph unicode="rn" horiz-adv-x="1837" d="M154 451q85 148 182 360l24 -25q-97 -212 -182 -360q-21 4 -24 25zM336 -27q41 -36 121 -36q82 0 161 57l25 -25q-79 -57 -162 -57q-98 0 -145 61zM399 967l76 176l27 -19l-78 -180zM476 101q-8 20 2 80.5t48 154.5l92 227q25 63 25 105q0 73 -61 137q86 -86 86 -162 q0 -41 -25 -104l-92 -228q-71 -177 -49 -235q-18 5 -26 25zM676 -61l10 24h180l308 762q64 71 131 110t112 39q44 0 56 -30q-15 6 -31 6q-45 0 -112.5 -39.5t-131.5 -110.5l-307 -761h-215zM1311 -27q44 -36 129 -36q74 0 148 39t144 112.5t131.5 160.5t127.5 202 q18 -4 24 -25q-66 -115 -127.5 -202t-131.5 -160.5t-144 -112.5t-148 -39q-106 0 -153 61zM1479 76q-73 23 24 260l125 307q68 172 68 252q0 57 -31 100q55 -45 55 -125q0 -82 -67 -252l-125 -307q-71 -177 -49 -235z" />
<glyph unicode="hh" horiz-adv-x="2060" d="M-135 -61l10 24h180l307 758q65 73 134 113t114 40q44 0 56 -30q-15 6 -31 6q-45 0 -114 -40.5t-134 -113.5l-307 -757h-215zM442 918l197 489h35l-178 -444zM504 -27q44 -36 129 -36q96 0 194 67l25 -24q-100 -68 -195 -68q-106 0 -153 61zM672 76q-73 23 24 260 l125 307q68 168 68 252q0 55 -31 98q55 -42 55 -123q0 -87 -67 -252l-125 -307q-71 -177 -49 -235zM895 -61l10 24h180l308 758q65 73 133.5 113t113.5 40q44 0 56 -30q-15 6 -31 6q-45 0 -114 -40.5t-134 -113.5l-307 -757h-215zM1473 918l196 489h35l-178 -444zM1534 -27 q44 -36 129 -36q74 0 148 39t144 112.5t131.5 160.5t127.5 202q18 -4 24 -25q-66 -115 -127.5 -202t-131 -160.5t-143.5 -112.5t-148 -39q-107 0 -154 61zM1702 76q-73 23 24 260l125 307q68 168 68 252q0 55 -31 98q56 -43 56 -123q0 -84 -68 -252l-125 -307 q-71 -177 -49 -235z" />
<glyph unicode="lh" horiz-adv-x="1570" d="M14 -27q44 -36 129 -36q100 0 195 67l24 -24q-100 -68 -194 -68q-107 0 -154 61zM182 76q-70 24 25 260l432 1071h35l-443 -1096q-71 -174 -49 -235zM406 -61l10 24h180l307 758q65 73 134 113t114 40q43 0 55 -30q-15 6 -30 6q-45 0 -114 -40.5t-134 -113.5l-307 -757 h-215zM983 918l197 489h34l-178 -444zM1044 -27q44 -36 130 -36q74 0 148 39t143.5 112.5t131 160.5t127.5 202q20 -7 25 -25q-66 -115 -127.5 -202t-131.5 -160.5t-144 -112.5t-148 -39q-107 0 -154 61zM1212 76q-72 23 25 260l125 307q68 168 68 252q0 55 -31 98 q55 -42 55 -123q0 -84 -68 -252l-124 -307q-72 -179 -50 -235z" />
<glyph unicode="Sr" horiz-adv-x="2246" d="M-25 -522h129q-38 219 119 428q165 -127 391 -127q270 0 440.5 178.5t170.5 464.5q0 130 -49 424q8 8 25 24q168 162 232 243q134 167 134 312q0 111 -64 187q88 -79 88 -211q0 -94 -61 -200t-118.5 -168t-189.5 -190l-7.5 -7.5l-7 -7l-7.5 -7.5q49 -294 49 -424 q0 -286 -170.5 -464.5t-439.5 -178.5q-226 0 -391 127q-157 -209 -119 -428h-149zM186 379q0 97 39.5 179.5t107 131.5t156.5 62t189 -29l61 149l29 -14l-66 -160q-100 42 -189 29t-156 -62t-106.5 -131.5t-39.5 -179.5q0 -100 41 -184l-8 -8q-58 99 -58 217zM350 49 l647 625l7 -43l-625 -602zM1130 1237q0 136 49.5 211.5t120.5 75.5q53 0 80 -41q-26 16 -55 16q-71 0 -120.5 -75.5t-49.5 -211.5q0 -61 10 -159l-18 -19q-17 129 -17 203zM1274 -37q81 72 222 309.5t278 538.5l24 -25q-137 -300 -278 -537.5t-222 -309.5q-20 6 -24 24z M1774 -27q41 -36 120 -36q57 0 113.5 29t102.5 71.5t100.5 117t94 137t95.5 159.5q19 -5 25 -25q-56 -97 -95.5 -159.5t-94 -137t-100.5 -117t-102.5 -71.5t-113.5 -29q-98 0 -145 61zM1837 969l76 174l26 -19l-77 -178zM1939 76q-73 25 25 260l92 227q25 63 25 107 q0 70 -62 135q86 -86 86 -160q0 -46 -24 -106l-92 -228q-73 -176 -50 -235z" />
<glyph unicode="dh" horiz-adv-x="2093" d="M68 -25q47 -38 120 -38q46 0 93 17t81 41t61 47.5t41 40.5l13 17q0 -20 8 -45q-28 -30 -60 -57.5t-92.5 -56.5t-119.5 -29q-92 0 -145 63zM197 199q0 49 19.5 131.5t56 175t81.5 174.5t102.5 136t112.5 54q43 0 72 -36q-18 12 -47 12q-68 0 -139 -82t-120.5 -193.5 t-81.5 -222.5t-32 -174q0 -30 10 -53q-34 18 -34 78zM539 -27q49 -36 125 -36q98 0 196 67l25 -24q-100 -68 -197 -68q-99 0 -149 61zM705 76q-71 24 24 260l432 1071h35l-442 -1096q-71 -174 -49 -235zM928 -61l10 24h180l307 758q65 73 134 113t114 40q44 0 56 -30 q-15 6 -31 6q-45 0 -114 -40.5t-134 -113.5l-307 -757h-215zM1505 918l197 489h35l-178 -444zM1567 -27q44 -36 129 -36q74 0 148 39t144 112.5t131.5 160.5t127.5 202q17 0 24 -25q-66 -115 -127.5 -202t-131.5 -160.5t-144 -112.5t-148 -39q-106 0 -153 61zM1735 76 q-73 23 24 260l125 307q68 168 68 252q0 55 -31 98q55 -42 55 -123q0 -87 -67 -252l-125 -307q-71 -177 -49 -235z" />
<glyph unicode="enn" horiz-adv-x="2934" d="M104 6q81 -69 228 -69q167 0 319 92l25 -25q-152 -92 -320 -92q-170 0 -252 94zM211 236q1 37 7 71t13 55l7 21q206 -23 336.5 32t207.5 216q52 112 50.5 199.5t-50.5 144.5q65 -54 74 -148.5t-49 -220.5q-77 -161 -208 -216t-337 -32q-3 -7 -6.5 -18.5t-11 -44.5 t-9.5 -63t5 -66.5t26 -61.5q-29 22 -42.5 58.5t-12.5 73.5zM274 500q5 15 15 40.5t42.5 90.5t66.5 115t85 90.5t101 40.5q43 0 55 -31q-12 6 -31 6q-44 0 -88 -30.5t-76 -71.5t-62.5 -95.5t-46.5 -90.5t-28 -68q-13 0 -33 4zM745 -61l11 24h180l307 762q64 71 131.5 110 t112.5 39q43 0 55 -30q-15 6 -31 6q-44 0 -111.5 -39.5t-131.5 -110.5l-307 -761h-216zM1380 -27q44 -36 129 -36q100 0 197 69l25 -24q-98 -70 -197 -70q-107 0 -154 61zM1548 76q-72 23 25 260l125 307q67 170 67 252q0 58 -30 100q55 -45 55 -125t-68 -252l-125 -307 q-71 -177 -49 -235zM1774 -61l10 24h180l307 762q64 71 131.5 110t112.5 39q43 0 55 -30q-15 6 -30 6q-45 0 -112.5 -39.5t-131.5 -110.5l-307 -761h-215zM2408 -27q44 -36 129 -36q74 0 148 39t144 112.5t131.5 160.5t127.5 202q6 0 14 -7.5t11 -17.5q-66 -115 -127.5 -202 t-131.5 -160.5t-144 -112.5t-148 -39q-107 0 -154 61zM2576 76q-72 23 25 260l125 307q67 170 67 252q0 58 -30 100q55 -45 55 -125t-68 -252l-124 -307q-72 -179 -50 -235z" />
<glyph unicode="sh" horiz-adv-x="1779" d="M20 18q93 -81 236 -81q161 0 283 75l24 -24q-129 -76 -282 -76q-93 0 -159 32t-102 74zM154 451q85 151 163 303v-74q-79 -149 -139 -254q-21 7 -24 25zM492 123q22 67 22 164q0 21 -6 121.5t-8.5 183t6 203.5t31.5 219l28 -13q-25 -99 -34.5 -221.5t-7 -207t9 -187 t6.5 -123.5q0 -66 -11 -117q-24 -16 -36 -22zM614 -61l11 24h180l307 758q65 73 134 113t114 40q43 0 55 -30q-15 6 -31 6q-45 0 -113.5 -40.5t-133.5 -113.5l-308 -757h-215zM1192 918l197 489h34l-178 -444zM1253 -27q44 -36 129 -36q74 0 148 39t144 112.5t131.5 160.5 t127.5 202q19 -4 25 -25q-66 -115 -127.5 -202t-131.5 -160.5t-144 -112.5t-148 -39q-107 0 -154 61zM1421 76q-72 23 25 260l125 307q67 165 67 252q0 56 -30 98q55 -42 55 -123q0 -84 -68 -252l-125 -307q-71 -177 -49 -235z" />
<glyph unicode="sk" horiz-adv-x="1728" d="M20 18q93 -81 236 -81q155 0 283 75l24 -24q-129 -76 -282 -76q-93 0 -159 32t-102 74zM154 451q85 151 163 303v-74q-79 -149 -139 -254q-21 7 -24 25zM492 123q22 67 22 164q0 21 -6 121.5t-8.5 183t6 203.5t31.5 219l28 -13q-25 -99 -34.5 -221.5t-7 -207t9 -187 t6.5 -123.5q0 -66 -11 -117q-24 -16 -36 -22zM614 -61l11 24h180l307 762q65 71 133 110t113 39q44 0 53 -30q-12 6 -29 6q-44 0 -112 -39.5t-133 -110.5l-308 -761h-215zM1116 -16q57 -47 135 -47q82 0 177.5 50t180 128t156 165.5t117.5 170.5q20 -7 25 -25 q-46 -83 -117.5 -170.5t-156 -165.5t-180 -128t-177.5 -50q-98 0 -160 72zM1192 918l197 489h34l-178 -444zM1206 340q220 20 334 246q98 204 98 311q0 59 -30 96q55 -42 55 -121q0 -107 -98 -311q-114 -226 -334 -246q-8 -169 29 -229q-67 42 -54 254z" />
<glyph unicode="sm" horiz-adv-x="2265" d="M20 18q93 -81 236 -81q157 0 285 75l24 -24q-129 -76 -284 -76q-93 0 -159 32t-102 74zM154 451q85 151 163 303v-74q-79 -149 -139 -254q-21 7 -24 25zM492 123q22 67 22 164q0 21 -6 121.5t-8.5 183t6 203.5t31.5 219l28 -13q-25 -99 -34.5 -221.5t-7 -207t9 -187 t6.5 -123.5q0 -66 -11 -117q-24 -16 -36 -22zM616 -61l11 24h180l307 762q64 71 131.5 110t112.5 39q43 0 55 -30q-15 6 -31 6q-44 0 -111.5 -39.5t-131.5 -110.5l-308 -761h-215zM1102 -61q4 8 10 24h180l310 762q62 71 130 110t113 39q44 0 56 -30q-15 6 -31 6 q-45 0 -113.5 -39.5t-130.5 -110.5l-309 -761h-215zM1739 -27q44 -36 129 -36q74 0 148 39t144 112.5t131.5 160.5t127.5 202q18 -5 24 -25q-66 -115 -127.5 -202t-131.5 -160.5t-144 -112.5t-148 -39q-106 0 -153 61zM1907 76q-73 23 24 260l125 307q68 166 68 250 q0 57 -31 100q55 -42 55 -125q0 -87 -67 -250l-125 -307q-71 -177 -49 -235z" />
<glyph unicode="sn" horiz-adv-x="1777" d="M20 18q93 -81 236 -81q157 0 285 75l24 -24q-129 -76 -284 -76q-93 0 -159 32t-102 74zM154 451q85 151 163 303v-74q-79 -149 -139 -254q-21 7 -24 25zM492 123q22 67 22 164q0 21 -6 121.5t-8.5 183t6 203.5t31.5 219l28 -13q-25 -99 -34.5 -221.5t-7 -207t9 -187 t6.5 -123.5q0 -66 -11 -117q-24 -16 -36 -22zM616 -61l11 24h180l307 762q64 71 131.5 110t112.5 39q43 0 55 -30q-15 6 -31 6q-44 0 -111.5 -39.5t-131.5 -110.5l-308 -761h-215zM1251 -27q44 -36 129 -36q74 0 148 39t144 112.5t131.5 160.5t127.5 202q19 -4 25 -25 q-66 -115 -127.5 -202t-131.5 -160.5t-144 -112.5t-148 -39q-107 0 -154 61zM1419 76q-72 23 25 260l125 307q67 170 67 252q0 58 -30 100q55 -45 55 -125t-68 -252l-125 -307q-71 -177 -49 -235z" />
<glyph unicode="dm" horiz-adv-x="2578" d="M68 -25q47 -38 120 -38q46 0 93 17t81 41t61 47.5t41 40.5l13 17q0 -20 8 -45q-28 -30 -60 -57.5t-92.5 -56.5t-119.5 -29q-92 0 -145 63zM197 199q0 49 19.5 131.5t56 175t81.5 174.5t102.5 136t112.5 54q43 0 72 -36q-18 12 -47 12q-68 0 -139 -82t-120.5 -193.5 t-81.5 -222.5t-32 -174q0 -30 10 -53q-34 18 -34 78zM539 -27q49 -36 125 -36q97 0 198 69l25 -24q-98 -70 -199 -70q-99 0 -149 61zM705 76q-71 24 24 260l432 1071h35l-442 -1096q-71 -174 -49 -235zM930 -61l10 24h180l307 762q64 71 131.5 110t112.5 39q43 0 55 -30 q-15 6 -30 6q-45 0 -112.5 -39.5t-131.5 -110.5l-307 -761h-215zM1415 -61q4 8 10 24h181l309 762q62 70 130.5 109.5t113.5 39.5q43 0 55 -30q-15 6 -31 6q-45 0 -113.5 -39.5t-130.5 -110.5l-309 -761h-215zM2052 -27q44 -36 129 -36q74 0 148 39t144 112.5t131.5 160.5 t127.5 202q19 -5 25 -25q-66 -115 -127.5 -202t-131.5 -160.5t-144 -112.5t-148 -39q-107 0 -154 61zM2220 76q-72 23 25 260l125 307q67 163 67 250q0 57 -31 100q56 -42 56 -125q0 -84 -68 -250l-125 -307q-71 -177 -49 -235z" />
<glyph unicode="gn" horiz-adv-x="2070" d="M-55 -592q54 -45 147 -45q59 0 111 20.5t90 52t73.5 82t60 97.5t52.5 111l60 145q170 79 280 156l25 -25q-18 -13 -38 -25.5t-35.5 -22t-38 -22t-34 -19t-37 -19t-32.5 -16t-34.5 -17t-31.5 -15.5q-26 -69 -59 -145q-28 -64 -52.5 -111t-60 -97.5t-73.5 -82t-90 -52 t-111 -20.5q-115 0 -172 70zM4 -436q0 58 102 123q20 12 44.5 24t40.5 19t48 19.5t44 17.5q-2 -4 -8 -19t-9 -22q-78 -30 -135 -64q-102 -65 -102 -123q0 -10 4 -22q-29 13 -29 47zM70 -25q44 -38 112 -38q40 0 78 14.5t63.5 35.5t45.5 41.5t29 35.5l10 14l-41 -101 q-73 -65 -160 -65t-137 63zM197 199q0 49 19.5 131.5t56 175t81.5 174.5t102.5 136t112.5 54q43 0 72 -36q-18 12 -47 12q-68 0 -139 -82t-120.5 -193.5t-81.5 -222.5t-32 -174q0 -30 10 -53q-34 18 -34 78zM600 23l389 956l43 22l-389 -956zM909 -61l11 24h180l307 762 q64 71 131.5 110t112.5 39q43 0 55 -30q-15 6 -31 6q-44 0 -111.5 -39.5t-131.5 -110.5l-308 -761h-215zM1544 -27q44 -36 129 -36q74 0 148 39t144 112.5t131.5 160.5t127.5 202q6 0 14 -7.5t11 -17.5q-66 -115 -127.5 -202t-131.5 -160.5t-144 -112.5t-148 -39 q-107 0 -154 61zM1712 76q-72 23 25 260l125 307q67 170 67 252q0 57 -31 100q56 -46 56 -125q0 -80 -68 -252l-125 -307q-71 -177 -49 -235z" />
<glyph unicode="gm" horiz-adv-x="2557" d="M-55 -592q54 -45 147 -45q59 0 111 20.5t90 52t73.5 82t60 97.5t52.5 111l60 145q170 79 280 156l25 -25q-18 -13 -38 -25.5t-35.5 -22t-38 -22t-34 -19t-37 -19t-32.5 -16t-34.5 -17t-31.5 -15.5q-26 -69 -59 -145q-28 -64 -52.5 -111t-60 -97.5t-73.5 -82t-90 -52 t-111 -20.5q-115 0 -172 70zM4 -436q0 58 102 123q20 12 44.5 24t40.5 19t48 19.5t44 17.5q-2 -4 -8 -19t-9 -22q-78 -30 -135 -64q-102 -65 -102 -123q0 -10 4 -22q-29 13 -29 47zM70 -25q44 -38 112 -38q40 0 78 14.5t63.5 35.5t45.5 41.5t29 35.5l10 14l-41 -101 q-73 -65 -160 -65t-137 63zM197 199q0 49 19.5 131.5t56 175t81.5 174.5t102.5 136t112.5 54q43 0 72 -36q-18 12 -47 12q-68 0 -139 -82t-120.5 -193.5t-81.5 -222.5t-32 -174q0 -30 10 -53q-34 18 -34 78zM600 23l389 956l43 22l-389 -956zM909 -61l11 24h180l307 762 q64 71 131.5 110t112.5 39q43 0 55 -30q-15 6 -31 6q-44 0 -111.5 -39.5t-131.5 -110.5l-308 -761h-215zM1395 -61q4 8 10 24h180l309 762q62 70 130.5 109.5t113.5 39.5q43 0 55 -30q-15 6 -30 6q-45 0 -113.5 -39.5t-130.5 -110.5l-309 -761h-215zM2032 -27 q44 -36 129 -36q74 0 148 39t144 112.5t131.5 160.5t127.5 202q18 -5 24 -25q-66 -115 -127.5 -202t-131.5 -160.5t-144 -112.5t-148 -39q-106 0 -153 61zM2200 76q-73 23 24 260l125 307q68 166 68 250q0 57 -31 100q55 -42 55 -125q0 -87 -67 -250l-125 -307 q-71 -177 -49 -235z" />
<glyph unicode="gk" horiz-adv-x="2021" d="M-55 -592q54 -45 147 -45q59 0 111 20.5t90 52t73.5 82t60 97.5t52.5 111l60 145q170 79 280 156l25 -25q-108 -76 -281 -156q-26 -69 -59 -145q-28 -64 -52.5 -111t-60 -97.5t-73.5 -82t-90 -52t-111 -20.5q-115 0 -172 70zM4 -436q0 58 102 123q20 12 44.5 24t40.5 19 t48 19.5t44 17.5q-2 -4 -8 -19t-9 -22q-78 -30 -135 -64q-102 -65 -102 -123q0 -10 4 -22q-29 13 -29 47zM70 -25q44 -38 112 -38q40 0 78 14.5t63.5 35.5t45.5 41.5t29 35.5l10 14l-41 -101q-73 -65 -160 -65t-137 63zM197 199q0 49 19.5 131.5t56 175t81.5 174.5 t102.5 136t112.5 54q43 0 72 -36q-18 12 -47 12q-68 0 -139 -82t-120.5 -193.5t-81.5 -222.5t-32 -174q0 -30 10 -53q-34 18 -34 78zM600 23l389 956l43 22l-389 -956zM907 -61l11 24h180l307 762q65 71 133 110t113 39q44 0 53 -30q-12 6 -29 6q-44 0 -112 -39.5 t-133 -110.5l-308 -761h-215zM1409 -16q57 -47 135 -47q82 0 177.5 50t180 128t156 165.5t117.5 170.5q19 -4 25 -25q-46 -83 -117.5 -170.5t-156 -165.5t-180 -128t-177.5 -50q-98 0 -160 72zM1485 918l196 489h35l-178 -444zM1499 340q220 20 334 246q98 204 98 311 q0 59 -30 96q55 -42 55 -121q0 -107 -98 -311q-114 -226 -334 -246q-8 -171 28 -229q-66 41 -53 254z" />
<glyph unicode="Ps" horiz-adv-x="2148" d="M125 -88l10 25h180l236 585q195 -93 364 -73t293 114.5t195.5 240t71.5 302.5q0 236 -158 403q182 -176 182 -428q0 -157 -71.5 -302.5t-195.5 -239.5t-293 -114t-364 73l-235 -586h-215zM125 690l137 103q-5 10 -13.5 27.5t-22 68t-13.5 96.5q0 69 25 144.5t76.5 149 t121.5 132t168.5 95t208.5 36.5q213 0 344 -141q-127 117 -319 117q-110 0 -208.5 -36.5t-168.5 -95t-121.5 -132t-76.5 -149t-25 -144.5q0 -46 12 -94.5t24 -73.5l13 -25l-146 -109q-8 11 -16 31zM606 659l174 428q20 47 45.5 85.5t48.5 60t43 36.5t32 20l12 5l-31 105h16 l39 -129q-4 -2 -12 -5.5t-31 -19t-44 -36.5t-47 -60t-46 -86l-170 -416q-6 1 -16.5 6t-12.5 6zM1198 -61q125 113 354 512q87 151 164 305v-76q-94 -176 -139 -254q-229 -399 -354 -512q-21 4 -25 25zM1419 18q93 -81 236 -81q69 0 132.5 15.5t114.5 40t100.5 65t86 80 t78 97.5t69.5 104t66 112q19 -4 25 -25q-37 -65 -66 -111.5t-70 -104t-78 -97.5t-86.5 -80.5t-100.5 -65t-114.5 -40t-132.5 -15.5q-93 0 -158.5 32t-101.5 74zM1890 123q23 70 23 164q0 22 -6 121.5t-9 183t5.5 204t31.5 218.5l29 -13q-25 -99 -34.5 -221.5t-7 -206.5 t8.5 -187.5t6 -123.5q0 -71 -10 -117q-21 -14 -37 -22z" />
<glyph unicode="Pr" horiz-adv-x="2189" d="M125 -88l10 25h180l236 585q195 -93 364 -73t293 114.5t195.5 240t71.5 302.5q0 236 -158 403q182 -176 182 -428q0 -157 -71.5 -302.5t-195.5 -239.5t-293 -114t-364 73l-235 -586h-215zM125 690l137 103q-5 10 -13.5 27.5t-22 68t-13.5 96.5q0 69 25 144.5t76.5 149 t121.5 132t168.5 95t208.5 36.5q213 0 344 -141q-127 117 -319 117q-110 0 -208.5 -36.5t-168.5 -95t-121.5 -132t-76.5 -149t-25 -144.5q0 -46 12 -94.5t24 -73.5l13 -25l-146 -109q-8 11 -16 31zM606 659l174 428q20 47 45.5 85.5t48.5 60t43 36.5t32 20l12 5l-31 105h16 l39 -129q-4 -2 -12 -5.5t-31 -19t-44 -36.5t-47 -60t-46 -86l-170 -416q-6 1 -16.5 6t-12.5 6zM1217 -37q81 72 221.5 309t277.5 539l25 -25q-137 -300 -278 -537.5t-222 -309.5q-20 6 -24 24zM1716 -27q41 -36 121 -36q57 0 113.5 29t102.5 71.5t100.5 117t94 137 t95.5 159.5q18 -5 24 -25q-57 -98 -95.5 -160t-93.5 -136.5t-100.5 -117t-102 -71.5t-113.5 -29q-99 0 -146 61zM1780 969l75 174l27 -19l-78 -178zM1882 76q-73 25 25 260l92 227q24 60 24 107q0 71 -61 135q86 -86 86 -160q0 -43 -25 -106l-92 -228q-73 -174 -49 -235z " />
<glyph unicode="gh" horiz-adv-x="2072" d="M-55 -592q54 -45 147 -45q59 0 111 20.5t90 52t73.5 82t60 97.5t52.5 111l60 145q170 79 280 156l25 -25q-108 -76 -281 -156q-26 -69 -59 -145q-28 -64 -52.5 -111t-60 -97.5t-73.5 -82t-90 -52t-111 -20.5q-115 0 -172 70zM4 -436q0 58 102 123q20 12 44.5 24t40.5 19 t48 19.5t44 17.5q-2 -4 -8 -19t-9 -22q-78 -30 -135 -64q-102 -65 -102 -123q0 -10 4 -22q-29 13 -29 47zM70 -25q44 -38 112 -38q40 0 78 14.5t63.5 35.5t45.5 41.5t29 35.5l10 14l-41 -101q-73 -65 -160 -65t-137 63zM197 199q0 49 19.5 131.5t56 175t81.5 174.5 t102.5 136t112.5 54q43 0 72 -36q-18 12 -47 12q-68 0 -139 -82t-120.5 -193.5t-81.5 -222.5t-32 -174q0 -30 10 -53q-34 18 -34 78zM600 23l389 956l43 22l-389 -956zM907 -61l11 24h180l307 758q65 73 134 113t114 40q43 0 55 -30q-15 6 -31 6q-45 0 -113.5 -40.5 t-133.5 -113.5l-308 -757h-215zM1485 918l196 489h35l-178 -444zM1546 -27q44 -36 129 -36q74 0 148 39t144 112.5t131.5 160.5t127.5 202q19 -4 25 -25q-66 -115 -127.5 -202t-131.5 -160.5t-144 -112.5t-148 -39q-107 0 -154 61zM1714 76q-72 23 25 260l125 307 q67 165 67 252q0 56 -30 98q55 -42 55 -123q0 -84 -68 -252l-125 -307q-71 -177 -49 -235z" />
<glyph unicode="dn" horiz-adv-x="2091" d="M68 -25q47 -38 120 -38q46 0 93 17t81 41t61 47.5t41 40.5l13 17q0 -20 8 -45q-28 -30 -60 -57.5t-92.5 -56.5t-119.5 -29q-92 0 -145 63zM197 199q0 49 19.5 131.5t56 175t81.5 174.5t102.5 136t112.5 54q43 0 72 -36q-18 12 -47 12q-68 0 -139 -82t-120.5 -193.5 t-81.5 -222.5t-32 -174q0 -30 10 -53q-34 18 -34 78zM539 -27q49 -36 125 -36q97 0 198 69l25 -24q-98 -70 -199 -70q-99 0 -149 61zM705 76q-71 24 24 260l432 1071h35l-442 -1096q-71 -174 -49 -235zM930 -61l10 24h180l307 762q64 71 131.5 110t112.5 39q43 0 55 -30 q-15 6 -30 6q-45 0 -112.5 -39.5t-131.5 -110.5l-307 -761h-215zM1565 -27q44 -36 129 -36q74 0 148 39t144 112.5t131.5 160.5t127.5 202q17 0 24 -25q-66 -115 -127.5 -202t-131.5 -160.5t-144 -112.5t-148 -39q-106 0 -153 61zM1733 76q-73 23 24 260l125 307 q68 172 68 252q0 57 -31 100q55 -45 55 -125q0 -82 -67 -252l-125 -307q-71 -177 -49 -235z" />
<glyph unicode="Ms" horiz-adv-x="2865" d="M150 598q94 -84 231 -84v156q8 -2 25 -2v-179q-159 0 -256 109zM217 870q0 62 33 116t81.5 91.5t124 76t139.5 62.5t151 57.5t137 55.5l-17 -43q-41 -17 -114.5 -44.5t-123 -47t-115 -48.5t-108.5 -58t-83 -66t-60 -81t-20 -95q0 -73 39 -121q-64 48 -64 145zM348 -88 l10 25h181l483 1202q73 81 161.5 133.5t149.5 52.5q44 0 58 -31q-12 6 -33 6q-61 0 -149.5 -52.5t-161.5 -133.5l-484 -1202h-215zM899 -88l10 25h181l483 1202q73 81 161.5 133.5t149.5 52.5q44 0 58 -31q-12 6 -33 6q-61 0 -150 -52.5t-162 -133.5l-483 -1202h-215z M1528 -397q42 -40 125 -82l71 178l27 -18l-74 -185q-94 46 -149 107zM1587 1460q50 -40 58 -100l-23 -23q6 72 -35 123zM1629.5 -166q-6.5 58 23.5 133l442 1098q78 196 78 285q0 69 -37 112q62 -49 62 -137q0 -89 -78 -285l-443 -1097q-51 -136 9 -209q-50 42 -56.5 100z M1915 -61q125 113 354 512q87 151 164 305v-76q-94 -176 -139 -254q-228 -397 -355 -512q-20 3 -24 25zM2136 18q93 -81 236 -81q69 0 132.5 15.5t114.5 40t100.5 65t86 80t78 97.5t69.5 104t66 112q18 -4 24 -25q-38 -66 -66 -112t-69.5 -104t-78 -97.5t-86 -80t-100.5 -65 t-114.5 -40t-132.5 -15.5q-93 0 -158.5 32t-101.5 74zM2607 123q23 70 23 164q0 22 -6 121.5t-9 183t5.5 204t31.5 218.5l29 -13q-25 -99 -34.5 -221.5t-7 -206.5t8.5 -187.5t6 -123.5q0 -71 -10 -117q-21 -14 -37 -22z" />
<glyph unicode="th" horiz-adv-x="1605" d="M14 -27q44 -36 136 -36q108 0 217 73l24 -24q-110 -74 -217 -74q-113 0 -160 61zM106 1001l11 25h153l-10 -25h-154zM182 78q-70 24 25 258l278 690h181l34 86h35l-45 -111h-180l-279 -690q-71 -175 -49 -233zM440 -61l11 24h180l307 758q65 73 134 113t114 40 q43 0 55 -30q-15 6 -31 6q-45 0 -113.5 -40.5t-133.5 -113.5l-308 -757h-215zM530 1137l109 270h35l-109 -270h-35zM1018 918l196 489h35l-178 -444zM1079 -27q44 -36 129 -36q74 0 148 39t144 112.5t131.5 160.5t127.5 202q7 0 14.5 -7.5t10.5 -17.5q-66 -115 -127.5 -202 t-131.5 -160.5t-144 -112.5t-148 -39q-107 0 -154 61zM1247 76q-72 23 25 260l125 307q67 165 67 252q0 56 -30 98q55 -42 55 -123q0 -84 -68 -252l-125 -307q-71 -177 -49 -235z" />
<glyph unicode="tk" horiz-adv-x="1554" d="M14 -27q44 -36 136 -36q108 0 217 73l24 -24q-110 -74 -217 -74q-113 0 -160 61zM106 1001l11 25h153l-10 -25h-154zM182 78q-70 24 25 258l278 690h181l34 86h35l-45 -111h-180l-279 -690q-71 -175 -49 -233zM440 -61l11 24h180l307 762q65 71 133 110t113 39 q44 0 53 -30q-12 6 -29 6q-44 0 -112 -39.5t-133 -110.5l-308 -761h-215zM530 1137l109 270h35l-109 -270h-35zM942 -16q57 -47 135 -47q82 0 177.5 50t180 128t156 165.5t117.5 170.5q8 0 15 -7.5t10 -17.5q-46 -83 -117.5 -170.5t-156 -165.5t-180 -128t-177.5 -50 q-98 0 -160 72zM1018 918l196 489h35l-178 -444zM1032 340q220 20 334 246q98 204 98 311q0 59 -30 96q55 -42 55 -121q0 -107 -98 -311q-114 -226 -334 -246q-8 -171 28 -229q-66 41 -53 254z" />
<glyph unicode="tm" horiz-adv-x="2091" d="M14 -27q44 -36 136 -36q110 0 219 73l24 -24q-110 -74 -219 -74q-113 0 -160 61zM106 1001l11 25h153l-10 -25h-154zM182 78q-70 24 25 258l278 690h181l34 86h35l-45 -111h-180l-279 -690q-71 -175 -49 -233zM442 -61l11 24h180l307 762q64 71 131.5 110t112.5 39 q43 0 55 -30q-15 6 -31 6q-44 0 -111.5 -39.5t-131.5 -110.5l-308 -761h-215zM530 1137l109 270h35l-109 -270h-35zM928 -61q4 8 10 24h180l309 762q62 70 130.5 109.5t113.5 39.5q43 0 55 -30q-15 6 -30 6q-45 0 -113.5 -39.5t-130.5 -110.5l-309 -761h-215zM1565 -27 q44 -36 129 -36q74 0 148 39t144 112.5t131.5 160.5t127.5 202q18 -5 24 -25q-66 -115 -127.5 -202t-131.5 -160.5t-144 -112.5t-148 -39q-106 0 -153 61zM1733 76q-73 23 24 260l125 307q68 166 68 250q0 57 -31 100q55 -42 55 -125q0 -87 -67 -250l-125 -307 q-71 -177 -49 -235z" />
<glyph unicode="tn" horiz-adv-x="1603" d="M14 -27q44 -36 136 -36q110 0 219 73l24 -24q-110 -74 -219 -74q-113 0 -160 61zM106 1001l11 25h153l-10 -25h-154zM182 78q-70 24 25 258l278 690h181l34 86h35l-45 -111h-180l-279 -690q-71 -175 -49 -233zM442 -61l11 24h180l307 762q64 71 131.5 110t112.5 39 q43 0 55 -30q-15 6 -31 6q-44 0 -111.5 -39.5t-131.5 -110.5l-308 -761h-215zM530 1137l109 270h35l-109 -270h-35zM1077 -27q44 -36 129 -36q74 0 148 39t144 112.5t131.5 160.5t127.5 202q6 0 14 -7.5t11 -17.5q-66 -115 -127.5 -202t-131.5 -160.5t-144 -112.5t-148 -39 q-107 0 -154 61zM1245 76q-72 23 25 260l125 307q67 170 67 252q0 58 -30 100q55 -45 55 -125t-68 -252l-125 -307q-71 -177 -49 -235z" />
<glyph unicode="Mr" horiz-adv-x="2906" d="M150 598q94 -84 231 -84v156q8 -2 25 -2v-179q-159 0 -256 109zM217 870q0 62 33 116t81.5 91.5t124 76t139.5 62.5t151 57.5t137 55.5l-17 -43q-41 -17 -114.5 -44.5t-123 -47t-115 -48.5t-108.5 -58t-83 -66t-60 -81t-20 -95q0 -73 39 -121q-64 48 -64 145zM348 -88 l10 25h181l483 1202q73 81 161.5 133.5t149.5 52.5q44 0 58 -31q-12 6 -33 6q-61 0 -149.5 -52.5t-161.5 -133.5l-484 -1202h-215zM899 -88l10 25h181l483 1202q73 81 161.5 133.5t149.5 52.5q44 0 58 -31q-12 6 -33 6q-61 0 -150 -52.5t-162 -133.5l-483 -1202h-215z M1528 -397q42 -40 125 -82l71 178l27 -18l-74 -185q-94 46 -149 107zM1587 1460q50 -40 58 -100l-23 -23q6 72 -35 123zM1629.5 -166q-6.5 58 23.5 133l442 1098q78 196 78 285q0 69 -37 112q62 -49 62 -137q0 -89 -78 -285l-443 -1097q-51 -136 9 -209q-50 42 -56.5 100z M1933 -37q81 72 222 309.5t278 538.5l25 -25q-137 -300 -278 -537.5t-222 -309.5q-21 6 -25 24zM2433 -27q41 -36 121 -36q57 0 113.5 29t102.5 71.5t100.5 117t94 137t95.5 159.5q18 -5 24 -25q-56 -97 -95.5 -159.5t-94 -137t-100.5 -117t-102.5 -71.5t-113.5 -29 q-98 0 -145 61zM2497 969l75 174l27 -19l-78 -178zM2599 76q-74 26 24 260l93 227q24 60 24 107q0 71 -61 135q86 -86 86 -160q0 -43 -25 -106l-92 -228q-73 -174 -49 -235z" />
<glyph unicode="Kr" horiz-adv-x="2578" d="M47 -111q120 -110 301 -110q58 0 114.5 12t123.5 44.5t126 84t117.5 138t102.5 198.5l125 307l61 -16q40 -26 62 -53q-20 17 -37 28l-62 17l-125 -308q-44 -112 -102.5 -198.5t-117 -138t-125.5 -84t-123.5 -44.5t-114.5 -12q-201 0 -326 135zM92 195q0 44 16.5 87 t47.5 79.5t83.5 57t116.5 15.5v156h25v-180q-64 5 -116.5 -15.5t-83.5 -57t-47.5 -80t-16.5 -87.5q0 -90 57 -156q-40 34 -61 83t-21 98zM481 598q94 -84 232 -84v156q8 -2 24 -2v-179q-159 0 -256 109zM549 868q0 50 20 92.5t57.5 74.5t81 57t101 46t106 36.5t107 34 t94.5 32.5l-16 -39q-30 -10 -81.5 -26.5t-89 -28t-87 -30.5t-84.5 -36t-72 -42.5t-60 -53t-38 -64t-15 -77.5q0 -71 39 -119q-63 48 -63 143zM1106 688l246 602q20 48 45.5 86.5t48.5 60t42.5 36t31.5 19.5l12 5l-31 105h17l38 -129q-4 -2 -12 -5.5t-31 -19t-44 -36 t-47 -59.5t-46 -87l-237 -584zM1262 -549q92 -76 237 -61v164h25v-189q-169 -17 -262 86zM1323 541q302 55 473 483l111 274q27 67 57.5 106t61.5 51.5t67.5 14.5t77.5 -4l31 133q8 0 28 -4l-35 -153q-41 6 -77.5 4t-67.5 -14.5t-61.5 -51.5t-57.5 -106l-110 -275 q-170 -423 -467 -481zM1364.5 -345q-7.5 43 1.5 114l64 352q42 261 -56 375q130 -112 80 -400l-63 -352q-9 -112 10 -150q-29 18 -36.5 61zM1606 -37q81 72 221.5 309t277.5 539l25 -25q-137 -300 -278 -537.5t-222 -309.5q-20 6 -24 24zM2105 -27q41 -36 121 -36 q57 0 113.5 29t102.5 71.5t100.5 117t94 137t95.5 159.5q19 -5 25 -25q-56 -97 -95.5 -159.5t-94 -137t-100.5 -117t-102.5 -71.5t-113.5 -29q-99 0 -146 61zM2169 969l76 174l26 -19l-78 -178zM2271 76q-73 25 25 260l92 227q25 62 25 107q0 70 -62 135q86 -86 86 -160 q0 -46 -24 -106l-93 -228q-73 -174 -49 -235z" />
<glyph unicode="Kl" horiz-adv-x="2312" d="M47 -111q120 -110 301 -110q58 0 114.5 12t123.5 44.5t126 84t117.5 138t102.5 198.5l125 307l61 -16q40 -26 62 -53q-20 17 -37 28l-62 17l-125 -308q-44 -112 -102.5 -198.5t-117 -138t-125.5 -84t-123.5 -44.5t-114.5 -12q-201 0 -326 135zM92 195q0 44 16.5 87 t47.5 79.5t83.5 57t116.5 15.5v156h25v-180q-64 5 -116.5 -15.5t-83.5 -57t-47.5 -80t-16.5 -87.5q0 -90 57 -156q-40 34 -61 83t-21 98zM481 598q94 -84 232 -84v156q8 -2 24 -2v-179q-159 0 -256 109zM549 868q0 50 20 92.5t57.5 74.5t81 57t101 46t106 36.5t107 34 t94.5 32.5l-16 -39q-30 -10 -81.5 -26.5t-89 -28t-87 -30.5t-84.5 -36t-72 -42.5t-60 -53t-38 -64t-15 -77.5q0 -71 39 -119q-63 48 -63 143zM1106 688l246 602q20 48 45.5 86.5t48.5 60t42.5 36t31.5 19.5l12 5l-31 105h17l38 -129q-4 -2 -12 -5.5t-31 -19t-44 -36 t-47 -59.5t-46 -87l-237 -584zM1262 -549q92 -76 237 -61v164h25v-189q-169 -17 -262 86zM1323 541q299 54 473 483l115 285q46 111 115 131t165 -43l-4 -8q-84 46 -146.5 21.5t-105.5 -126.5l-114 -285q-174 -424 -467 -481zM1364.5 -345q-7.5 43 1.5 114l64 352 q42 261 -56 375q130 -112 80 -400l-63 -352q-9 -112 10 -150q-29 18 -36.5 61zM1794 -27q44 -36 121 -36q74 0 148 39t144 112.5t131.5 160.5t127.5 202q19 -6 24 -25q-66 -115 -127.5 -202t-131.5 -160.5t-144 -112.5t-148 -39q-95 0 -145 61zM1954 76q-71 24 24 260 l443 1096l24 -25l-442 -1096q-71 -174 -49 -235z" />
<glyph unicode="Kin" horiz-adv-x="3319" d="M47 -111q120 -110 301 -110q58 0 114.5 12t123.5 44.5t126 84t117.5 138t102.5 198.5l125 307l61 -16q40 -26 62 -53q-20 17 -37 28l-62 17l-125 -308q-44 -112 -102.5 -198.5t-117 -138t-125.5 -84t-123.5 -44.5t-114.5 -12q-201 0 -326 135zM92 195q0 44 16.5 87 t47.5 79.5t83.5 57t116.5 15.5v156h25v-180q-64 5 -116.5 -15.5t-83.5 -57t-47.5 -80t-16.5 -87.5q0 -90 57 -156q-40 34 -61 83t-21 98zM481 598q94 -84 232 -84v156q8 -2 24 -2v-179q-159 0 -256 109zM549 868q0 50 20 92.5t57.5 74.5t81 57t101 46t106 36.5t107 34 t94.5 32.5l-16 -39q-30 -10 -81.5 -26.5t-89 -28t-87 -30.5t-84.5 -36t-72 -42.5t-60 -53t-38 -64t-15 -77.5q0 -71 39 -119q-63 48 -63 143zM1106 688l246 602q20 48 45.5 86.5t48.5 60t42.5 36t31.5 19.5l12 5l-31 105h17l38 -129q-4 -2 -12 -5.5t-31 -19t-44 -36 t-47 -59.5t-46 -87l-237 -584zM1262 -549q92 -76 237 -61v164h25v-189q-169 -17 -262 86zM1323 541q299 54 473 483l115 285q47 118 107.5 142t146.5 -40q0 -4 -2 -8q-75 46 -129.5 18t-98.5 -137l-114 -285q-174 -424 -467 -481zM1364.5 -345q-7.5 43 1.5 114l64 352 q42 261 -56 375q130 -112 80 -400l-63 -352q-9 -112 10 -150q-29 18 -36.5 61zM1774 -27q44 -36 120 -36q96 0 197 69l25 -24q-98 -70 -197 -70q-95 0 -145 61zM1933 76q-70 25 25 260l268 665h35l-279 -690q-70 -173 -49 -235zM2159 -61l10 24h180l307 762q64 71 131.5 110 t112.5 39q43 0 55 -30q-15 6 -30 6q-45 0 -112.5 -39.5t-131.5 -110.5l-307 -761h-215zM2206 1288q30 -24 73 -24q53 0 90 37t37 90q0 41 -26 73q51 -38 51 -98q0 -52 -37.5 -89.5t-89.5 -37.5q-58 0 -98 49zM2793 -27q44 -36 129 -36q74 0 148 39t144 112.5t131.5 160.5 t127.5 202q7 0 14.5 -7.5t10.5 -17.5q-66 -115 -127.5 -202t-131.5 -160.5t-144 -112.5t-148 -39q-107 0 -154 61zM2961 76q-72 23 25 260l125 307q67 170 67 252q0 58 -30 100q55 -45 55 -125t-68 -252l-124 -307q-72 -179 -50 -235z" />
<glyph unicode="eh" horiz-adv-x="1908" d="M104 6q81 -69 228 -69q167 0 319 92l25 -25q-152 -92 -320 -92q-170 0 -252 94zM211 236q1 37 7 71t13 55l7 21q206 -23 336.5 32t207.5 216q52 112 50.5 199.5t-50.5 144.5q65 -54 74 -148.5t-49 -220.5q-77 -161 -208 -216t-337 -32q-3 -7 -6.5 -18.5t-11 -44.5 t-9.5 -63t5 -66.5t26 -61.5q-29 22 -42.5 58.5t-12.5 73.5zM274 500q5 15 15 40.5t42.5 90.5t66.5 115t85 90.5t101 40.5q43 0 55 -31q-12 6 -31 6q-44 0 -88 -30.5t-76 -71.5t-62.5 -95.5t-46.5 -90.5t-28 -68q-13 0 -33 4zM743 -61l11 24h180l307 758q65 73 134 113 t114 40q43 0 55 -30q-15 6 -31 6q-45 0 -113.5 -40.5t-133.5 -113.5l-308 -757h-215zM1321 918l197 489h34l-178 -444zM1382 -27q44 -36 129 -36q74 0 148 39t144 112.5t131.5 160.5t127.5 202q6 0 14 -7.5t11 -17.5q-66 -115 -127.5 -202t-131.5 -160.5t-144 -112.5 t-148 -39q-107 0 -154 61zM1550 76q-72 23 25 260l125 307q67 165 67 252q0 56 -30 98q55 -42 55 -123q0 -84 -68 -252l-125 -307q-71 -177 -49 -235z" />
<glyph unicode="ek" horiz-adv-x="1857" d="M104 6q81 -69 228 -69q167 0 319 92l25 -25q-152 -92 -320 -92q-170 0 -252 94zM211 236q1 37 7 71t13 55l7 21q206 -23 336.5 32t207.5 216q52 112 50.5 199.5t-50.5 144.5q65 -54 74 -148.5t-49 -220.5q-77 -161 -208 -216t-337 -32q-3 -7 -6.5 -18.5t-11 -44.5 t-9.5 -63t5 -66.5t26 -61.5q-29 22 -42.5 58.5t-12.5 73.5zM274 500q5 15 15 40.5t42.5 90.5t66.5 115t85 90.5t101 40.5q43 0 55 -31q-12 6 -31 6q-44 0 -88 -30.5t-76 -71.5t-62.5 -95.5t-46.5 -90.5t-28 -68q-13 0 -33 4zM743 -61l11 24h180l307 762q65 71 133 110 t113 39q44 0 53 -30q-12 6 -29 6q-44 0 -112 -39.5t-133 -110.5l-308 -761h-215zM1245 -16q57 -47 135 -47q82 0 177.5 50t180 128t156 165.5t117.5 170.5q19 -5 25 -25q-46 -83 -117.5 -170.5t-156 -165.5t-180 -128t-177.5 -50q-98 0 -160 72zM1321 918l197 489h34 l-178 -444zM1335 340q220 20 334 246q98 204 98 311q0 59 -30 96q55 -42 55 -121q0 -107 -98 -311q-114 -226 -334 -246q-8 -169 29 -229q-67 42 -54 254z" />
<glyph unicode="Kim" horiz-adv-x="3807" d="M47 -111q120 -110 301 -110q58 0 114.5 12t123.5 44.5t126 84t117.5 138t102.5 198.5l125 307l61 -16q40 -26 62 -53q-20 17 -37 28l-62 17l-125 -308q-44 -112 -102.5 -198.5t-117 -138t-125.5 -84t-123.5 -44.5t-114.5 -12q-201 0 -326 135zM92 195q0 44 16.5 87 t47.5 79.5t83.5 57t116.5 15.5v156h25v-180q-64 5 -116.5 -15.5t-83.5 -57t-47.5 -80t-16.5 -87.5q0 -90 57 -156q-40 34 -61 83t-21 98zM481 598q94 -84 232 -84v156q8 -2 24 -2v-179q-159 0 -256 109zM549 868q0 50 20 92.5t57.5 74.5t81 57t101 46t106 36.5t107 34 t94.5 32.5l-16 -39q-30 -10 -81.5 -26.5t-89 -28t-87 -30.5t-84.5 -36t-72 -42.5t-60 -53t-38 -64t-15 -77.5q0 -71 39 -119q-63 48 -63 143zM1106 688l246 602q20 48 45.5 86.5t48.5 60t42.5 36t31.5 19.5l12 5l-31 105h17l38 -129q-4 -2 -12 -5.5t-31 -19t-44 -36 t-47 -59.5t-46 -87l-237 -584zM1262 -549q92 -76 237 -61v164h25v-189q-169 -17 -262 86zM1323 541q299 54 473 483l115 285q47 118 107.5 142t146.5 -40q0 -4 -2 -8q-75 46 -129.5 18t-98.5 -137l-114 -285q-174 -424 -467 -481zM1364.5 -345q-7.5 43 1.5 114l64 352 q42 261 -56 375q130 -112 80 -400l-63 -352q-9 -112 10 -150q-29 18 -36.5 61zM1774 -27q44 -36 120 -36q96 0 197 69l25 -24q-98 -70 -197 -70q-95 0 -145 61zM1933 76q-70 25 25 260l268 665h35l-279 -690q-70 -173 -49 -235zM2159 -61l10 24h180l307 762q64 71 131.5 110 t112.5 39q43 0 55 -30q-15 6 -30 6q-45 0 -112.5 -39.5t-131.5 -110.5l-307 -761h-215zM2206 1288q30 -24 73 -24q53 0 90 37t37 90q0 41 -26 73q51 -38 51 -98q0 -52 -37.5 -89.5t-89.5 -37.5q-58 0 -98 49zM2644 -61q4 8 10 24h180l310 762q62 71 130 110t113 39 q44 0 56 -30q-15 6 -31 6q-45 0 -113.5 -39.5t-130.5 -110.5l-309 -761h-215zM3281 -27q44 -36 129 -36q74 0 148 39t144 112.5t131.5 160.5t127.5 202q18 -3 24 -25q-66 -115 -127.5 -202t-131.5 -160.5t-144 -112.5t-148 -39q-106 0 -153 61zM3449 76q-73 23 24 260 l125 307q68 166 68 250q0 57 -31 100q55 -42 55 -125q0 -87 -67 -250l-125 -307q-71 -177 -49 -235z" />
<glyph unicode="Kik" horiz-adv-x="3270" d="M47 -111q120 -110 301 -110q58 0 114.5 12t123.5 44.5t126 84t117.5 138t102.5 198.5l125 307l61 -16q40 -26 62 -53q-20 17 -37 28l-62 17l-125 -308q-44 -112 -102.5 -198.5t-117 -138t-125.5 -84t-123.5 -44.5t-114.5 -12q-201 0 -326 135zM92 195q0 44 16.5 87 t47.5 79.5t83.5 57t116.5 15.5v156h25v-180q-64 5 -116.5 -15.5t-83.5 -57t-47.5 -80t-16.5 -87.5q0 -90 57 -156q-40 34 -61 83t-21 98zM481 598q94 -84 232 -84v156q8 -2 24 -2v-179q-159 0 -256 109zM549 868q0 50 20 92.5t57.5 74.5t81 57t101 46t106 36.5t107 34 t94.5 32.5l-16 -39q-30 -10 -81.5 -26.5t-89 -28t-87 -30.5t-84.5 -36t-72 -42.5t-60 -53t-38 -64t-15 -77.5q0 -71 39 -119q-63 48 -63 143zM1106 688l246 602q20 48 45.5 86.5t48.5 60t42.5 36t31.5 19.5l12 5l-31 105h17l38 -129q-4 -2 -12 -5.5t-31 -19t-44 -36 t-47 -59.5t-46 -87l-237 -584zM1262 -549q92 -76 237 -61v164h25v-189q-169 -17 -262 86zM1323 541q299 54 473 483l115 285q47 118 107.5 142t146.5 -40q0 -4 -2 -8q-75 46 -129.5 18t-98.5 -137l-114 -285q-174 -424 -467 -481zM1364.5 -345q-7.5 43 1.5 114l64 352 q42 261 -56 375q130 -112 80 -400l-63 -352q-9 -112 10 -150q-29 18 -36.5 61zM1774 -27q44 -36 120 -36q97 0 195 67l25 -24q-100 -68 -195 -68t-145 61zM1933 76q-70 25 25 260l268 665h35l-279 -690q-70 -173 -49 -235zM2157 -61l10 24h180l307 762q65 71 133 110t113 39 q44 0 53 -30q-12 6 -28 6q-44 0 -112.5 -39.5t-133.5 -110.5l-307 -761h-215zM2206 1288q30 -24 73 -24q53 0 90 37t37 90q0 41 -26 73q51 -38 51 -98q0 -52 -37.5 -89.5t-89.5 -37.5q-58 0 -98 49zM2658 -16q57 -47 135 -47q82 0 177.5 50t180 128t156 165.5t117.5 170.5 q19 -4 25 -25q-46 -83 -117.5 -170.5t-156 -165.5t-180 -128t-177.5 -50q-98 0 -160 72zM2734 918l197 489h35l-179 -444zM2748 340q220 20 334 246q99 206 99 311q0 57 -31 96q55 -42 55 -121q0 -107 -98 -311q-114 -226 -334 -246q-8 -169 29 -229q-67 42 -54 254z" />
<glyph unicode="Kih" horiz-adv-x="3321" d="M47 -111q120 -110 301 -110q58 0 114.5 12t123.5 44.5t126 84t117.5 138t102.5 198.5l125 307l61 -16q40 -26 62 -53q-20 17 -37 28l-62 17l-125 -308q-44 -112 -102.5 -198.5t-117 -138t-125.5 -84t-123.5 -44.5t-114.5 -12q-201 0 -326 135zM92 195q0 44 16.5 87 t47.5 79.5t83.5 57t116.5 15.5v156h25v-180q-64 5 -116.5 -15.5t-83.5 -57t-47.5 -80t-16.5 -87.5q0 -90 57 -156q-40 34 -61 83t-21 98zM481 598q94 -84 232 -84v156q8 -2 24 -2v-179q-159 0 -256 109zM549 868q0 50 20 92.5t57.5 74.5t81 57t101 46t106 36.5t107 34 t94.5 32.5l-16 -39q-30 -10 -81.5 -26.5t-89 -28t-87 -30.5t-84.5 -36t-72 -42.5t-60 -53t-38 -64t-15 -77.5q0 -71 39 -119q-63 48 -63 143zM1106 688l246 602q20 48 45.5 86.5t48.5 60t42.5 36t31.5 19.5l12 5l-31 105h17l38 -129q-4 -2 -12 -5.5t-31 -19t-44 -36 t-47 -59.5t-46 -87l-237 -584zM1262 -549q92 -76 237 -61v164h25v-189q-169 -17 -262 86zM1323 541q299 54 473 483l115 285q47 118 107.5 142t146.5 -40q0 -4 -2 -8q-75 46 -129.5 18t-98.5 -137l-114 -285q-174 -424 -467 -481zM1364.5 -345q-7.5 43 1.5 114l64 352 q42 261 -56 375q130 -112 80 -400l-63 -352q-9 -112 10 -150q-29 18 -36.5 61zM1774 -27q44 -36 120 -36q97 0 195 67l25 -24q-100 -68 -195 -68t-145 61zM1933 76q-70 25 25 260l268 665h35l-279 -690q-70 -173 -49 -235zM2157 -61l10 24h180l307 758q65 73 134 113t114 40 q43 0 55 -30q-15 6 -30 6q-45 0 -114 -40.5t-134 -113.5l-307 -757h-215zM2206 1288q30 -24 73 -24q53 0 90 37t37 90q0 41 -26 73q51 -38 51 -98q0 -52 -37.5 -89.5t-89.5 -37.5q-58 0 -98 49zM2734 918l197 489h35l-179 -444zM2796 -27q44 -36 129 -36q74 0 148 39 t143.5 112.5t131 160.5t127.5 202q19 -5 25 -25q-66 -115 -127.5 -202t-131.5 -160.5t-144 -112.5t-148 -39q-106 0 -153 61zM2963 76q-72 23 25 260l125 307q68 168 68 252q0 55 -31 98q55 -42 55 -123q0 -87 -67 -252l-125 -307q-72 -179 -50 -235z" />
<glyph unicode="uh" horiz-adv-x="2058" d="M14 -27q44 -36 125 -36t153.5 47t147.5 131q0 -24 6 -45q-72 -75 -139 -116.5t-143 -41.5q-105 0 -150 61zM178 96q-64 15 29 240l268 665h35l-279 -690q-67 -163 -53 -215zM502 -25q46 -38 129 -38q96 0 194 69l25 -24q-103 -70 -195 -70q-104 0 -153 63zM670 76 q-71 26 24 260l269 665h34l-278 -690q-70 -173 -49 -235zM893 -61l10 24h180l308 758q65 73 133.5 113t113.5 40q44 0 56 -30q-15 6 -31 6q-45 0 -114 -40.5t-134 -113.5l-307 -757h-215zM1470 918l197 489h35l-178 -444zM1532 -27q44 -36 129 -36q74 0 148 39t144 112.5 t131.5 160.5t127.5 202q20 -10 24 -25q-66 -115 -127.5 -202t-131 -160.5t-143.5 -112.5t-148 -39q-107 0 -154 61zM1700 76q-73 23 24 260l125 307q68 168 68 252q0 55 -31 98q56 -43 56 -123q0 -84 -68 -252l-125 -307q-71 -177 -49 -235z" />
<glyph unicode="uk" horiz-adv-x="2007" d="M14 -27q44 -36 125 -36t153.5 47t147.5 131q0 -24 6 -45q-72 -75 -139 -116.5t-143 -41.5q-105 0 -150 61zM178 96q-64 15 29 240l268 665h35l-279 -690q-67 -163 -53 -215zM502 -25q46 -38 129 -38q96 0 194 69l25 -24q-99 -70 -195 -70q-104 0 -153 63zM670 76 q-71 26 24 260l269 665h34l-278 -690q-70 -173 -49 -235zM893 -61l10 24h180l308 762q65 71 132.5 110t112.5 39t54 -30q-12 6 -29 6q-44 0 -112.5 -39.5t-133.5 -110.5l-307 -761h-215zM1395 -16q57 -47 135 -47q82 0 177.5 50t180 128t156 165.5t117.5 170.5q18 -5 24 -25 q-46 -83 -117.5 -170.5t-156 -165.5t-180 -128t-177.5 -50q-97 0 -159 72zM1470 918l197 489h35l-178 -444zM1485 340q220 20 334 246q98 204 98 311q0 57 -31 96q56 -43 56 -121q0 -105 -99 -311q-114 -226 -334 -246q-8 -169 29 -229q-66 41 -53 254z" />
<glyph unicode="um" horiz-adv-x="2543" d="M14 -27q44 -36 125 -36t153.5 47t147.5 131q0 -24 6 -45q-72 -75 -139 -116.5t-143 -41.5q-105 0 -150 61zM178 96q-64 15 29 240l268 665h35l-279 -690q-67 -163 -53 -215zM502 -25q46 -38 129 -38q95 0 196 69l25 -24q-98 -70 -197 -70q-104 0 -153 63zM670 76 q-71 26 24 260l269 665h34l-278 -690q-70 -173 -49 -235zM895 -61l10 24h180l308 762q64 71 131 110t112 39q44 0 56 -30q-15 6 -31 6q-45 0 -112.5 -39.5t-131.5 -110.5l-307 -761h-215zM1380 -61q5 8 11 24h180l309 762q62 70 130.5 109.5t113.5 39.5q43 0 55 -30 q-15 6 -31 6q-45 0 -113 -39.5t-130 -110.5l-310 -761h-215zM2017 -27q44 -36 129 -36q74 0 148 39t144 112.5t131.5 160.5t127.5 202q7 0 14.5 -7.5t10.5 -17.5q-66 -115 -127.5 -202t-131.5 -160.5t-144 -112.5t-148 -39q-107 0 -154 61zM2185 76q-72 23 25 260l125 307 q67 163 67 250q0 58 -30 100q55 -42 55 -125q0 -84 -68 -250l-125 -307q-71 -177 -49 -235z" />
<glyph unicode="umm" horiz-adv-x="4059" d="M14 -27q44 -36 125 -36t153.5 47t147.5 131q0 -24 6 -45q-72 -75 -139 -116.5t-143 -41.5q-105 0 -150 61zM178 96q-64 15 29 240l268 665h35l-279 -690q-67 -163 -53 -215zM502 -25q46 -38 129 -38q95 0 196 69l25 -24q-103 -70 -197 -70q-104 0 -153 63zM670 76 q-71 26 24 260l269 665h34l-278 -690q-70 -173 -49 -235zM895 -61l10 24h180l308 762q64 71 131 110t112 39q44 0 56 -30q-15 6 -31 6q-45 0 -112.5 -39.5t-131.5 -110.5l-307 -761h-215zM1380 -61q5 8 11 24h180l309 762q62 70 130.5 109.5t113.5 39.5q43 0 55 -30 q-15 6 -31 6q-45 0 -113 -39.5t-130 -110.5l-310 -761h-215zM2017 -27q44 -36 129 -36q100 0 197 69l24 -24q-98 -70 -196 -70q-107 0 -154 61zM2185 76q-72 23 25 260l125 307q67 163 67 250q0 58 -30 100q55 -42 55 -125q0 -84 -68 -250l-125 -307q-71 -177 -49 -235z M2410 -61l11 24h180l307 762q64 71 131.5 110t112.5 39q43 0 55 -30q-15 6 -31 6q-44 0 -111.5 -39.5t-131.5 -110.5l-307 -761h-216zM2896 -61q4 8 10 24h180l310 762q62 71 130 110t113 39q44 0 56 -30q-15 6 -31 6q-45 0 -113.5 -39.5t-130.5 -110.5l-309 -761h-215z M3533 -27q44 -36 129 -36q74 0 148 39t144 112.5t131.5 160.5t127.5 202q18 -3 24 -25q-66 -115 -127.5 -202t-131.5 -160.5t-144 -112.5t-148 -39q-106 0 -153 61zM3701 76q-73 23 24 260l125 307q68 166 68 250q0 57 -31 100q55 -42 55 -125q0 -87 -67 -250l-125 -307 q-71 -177 -49 -235z" />
<glyph unicode="umn" horiz-adv-x="3571" d="M14 -27q44 -36 125 -36t153.5 47t147.5 131q0 -24 6 -45q-72 -75 -139 -116.5t-143 -41.5q-105 0 -150 61zM178 96q-64 15 29 240l268 665h35l-279 -690q-67 -163 -53 -215zM502 -25q46 -38 129 -38q95 0 196 69l25 -24q-103 -70 -197 -70q-104 0 -153 63zM670 76 q-71 26 24 260l269 665h34l-278 -690q-70 -173 -49 -235zM895 -61l10 24h180l308 762q64 71 131 110t112 39q44 0 56 -30q-15 6 -31 6q-45 0 -112.5 -39.5t-131.5 -110.5l-307 -761h-215zM1380 -61q5 8 11 24h180l309 762q62 70 130.5 109.5t113.5 39.5q43 0 55 -30 q-15 6 -31 6q-45 0 -113 -39.5t-130 -110.5l-310 -761h-215zM2017 -27q44 -36 129 -36q100 0 197 69l24 -24q-98 -70 -196 -70q-107 0 -154 61zM2185 76q-72 23 25 260l125 307q67 163 67 250q0 58 -30 100q55 -42 55 -125q0 -84 -68 -250l-125 -307q-71 -177 -49 -235z M2410 -61l11 24h180l307 762q64 71 131.5 110t112.5 39q43 0 55 -30q-15 6 -31 6q-44 0 -111.5 -39.5t-131.5 -110.5l-307 -761h-216zM3045 -27q44 -36 129 -36q74 0 148 39t144 112.5t131.5 160.5t127.5 202q6 0 14 -7.5t11 -17.5q-66 -115 -127.5 -202t-131.5 -160.5 t-144 -112.5t-148 -39q-107 0 -154 61zM3213 76q-72 23 25 260l125 307q67 170 67 252q0 58 -30 100q55 -45 55 -125t-68 -252l-125 -307q-71 -177 -49 -235z" />
<glyph unicode="un" horiz-adv-x="2056" d="M14 -27q44 -36 125 -36t153.5 47t147.5 131q0 -24 6 -45q-72 -75 -139 -116.5t-143 -41.5q-105 0 -150 61zM178 96q-64 15 29 240l268 665h35l-279 -690q-67 -163 -53 -215zM502 -25q46 -38 129 -38q95 0 196 69l25 -24q-98 -70 -197 -70q-104 0 -153 63zM670 76 q-71 26 24 260l269 665h34l-278 -690q-70 -173 -49 -235zM895 -61l10 24h180l308 762q64 71 131 110t112 39q44 0 56 -30q-15 6 -31 6q-45 0 -112.5 -39.5t-131.5 -110.5l-307 -761h-215zM1530 -27q44 -36 129 -36q74 0 148 39t144 112.5t131.5 160.5t127.5 202 q18 -4 24 -25q-66 -115 -127.5 -202t-131.5 -160.5t-144 -112.5t-148 -39q-106 0 -153 61zM1698 76q-73 23 24 260l125 307q68 172 68 252q0 57 -31 100q55 -45 55 -125q0 -82 -67 -252l-125 -307q-71 -177 -49 -235z" />
<glyph unicode="unm" horiz-adv-x="3571" d="M14 -27q44 -36 125 -36t153.5 47t147.5 131q0 -24 6 -45q-72 -75 -139 -116.5t-143 -41.5q-105 0 -150 61zM178 96q-64 15 29 240l268 665h35l-279 -690q-67 -163 -53 -215zM502 -25q46 -38 129 -38q95 0 196 69l25 -24q-103 -70 -197 -70q-104 0 -153 63zM670 76 q-71 26 24 260l269 665h34l-278 -690q-70 -173 -49 -235zM895 -61l10 24h180l308 762q64 71 131 110t112 39q44 0 56 -30q-15 6 -31 6q-45 0 -112.5 -39.5t-131.5 -110.5l-307 -761h-215zM1530 -27q44 -36 129 -36q99 0 196 69l25 -24q-98 -70 -197 -70q-106 0 -153 61z M1698 76q-73 23 24 260l125 307q68 172 68 252q0 57 -31 100q55 -45 55 -125q0 -82 -67 -252l-125 -307q-71 -177 -49 -235zM1923 -61l10 24h181l307 762q64 71 131 110t112 39q44 0 56 -30q-15 6 -31 6q-45 0 -112.5 -39.5t-131.5 -110.5l-307 -761h-215zM2408 -61 q5 8 11 24h180l309 762q62 70 130.5 109.5t113.5 39.5q43 0 55 -30q-15 6 -31 6q-45 0 -113 -39.5t-130 -110.5l-310 -761h-215zM3045 -27q44 -36 129 -36q74 0 148 39t144 112.5t131.5 160.5t127.5 202q19 -4 25 -25q-66 -115 -127.5 -202t-131.5 -160.5t-144 -112.5 t-148 -39q-107 0 -154 61zM3213 76q-72 23 25 260l125 307q67 163 67 250q0 58 -30 100q55 -42 55 -125q0 -84 -68 -250l-125 -307q-71 -177 -49 -235z" />
<glyph unicode="unn" horiz-adv-x="3084" d="M14 -27q44 -36 125 -36t153.5 47t147.5 131q0 -24 6 -45q-72 -75 -139 -116.5t-143 -41.5q-105 0 -150 61zM178 96q-64 15 29 240l268 665h35l-279 -690q-67 -163 -53 -215zM502 -25q46 -38 129 -38q95 0 196 69l25 -24q-98 -70 -197 -70q-104 0 -153 63zM670 76 q-71 26 24 260l269 665h34l-278 -690q-70 -173 -49 -235zM895 -61l10 24h180l308 762q64 71 131 110t112 39q44 0 56 -30q-15 6 -31 6q-45 0 -112.5 -39.5t-131.5 -110.5l-307 -761h-215zM1530 -27q44 -36 129 -36q99 0 196 69l25 -24q-98 -70 -197 -70q-106 0 -153 61z M1698 76q-73 23 24 260l125 307q68 172 68 252q0 57 -31 100q55 -45 55 -125q0 -82 -67 -252l-125 -307q-71 -177 -49 -235zM1923 -61l10 24h181l307 762q64 71 131 110t112 39q44 0 56 -30q-15 6 -31 6q-45 0 -112.5 -39.5t-131.5 -110.5l-307 -761h-215zM2558 -27 q44 -36 129 -36q74 0 148 39t144 112.5t131.5 160.5t127.5 202q6 0 13.5 -7.5t10.5 -17.5q-66 -115 -127.5 -202t-131 -160.5t-143.5 -112.5t-148 -39q-107 0 -154 61zM2726 76q-73 23 24 260l125 307q68 172 68 252q0 57 -31 100q56 -46 56 -125q0 -80 -68 -252l-125 -307 q-71 -177 -49 -235z" />
<glyph unicode="Ki" horiz-adv-x="2291" d="M47 -111q120 -110 301 -110q58 0 114.5 12t123.5 44.5t126 84t117.5 138t102.5 198.5l125 307l61 -16q40 -26 62 -53q-20 17 -37 28l-62 17l-125 -308q-44 -112 -102.5 -198.5t-117 -138t-125.5 -84t-123.5 -44.5t-114.5 -12q-201 0 -326 135zM92 195q0 44 16.5 87 t47.5 79.5t83.5 57t116.5 15.5v156h25v-180q-64 5 -116.5 -15.5t-83.5 -57t-47.5 -80t-16.5 -87.5q0 -90 57 -156q-40 34 -61 83t-21 98zM481 598q94 -84 232 -84v156q8 -2 24 -2v-179q-159 0 -256 109zM549 868q0 50 20 92.5t57.5 74.5t81 57t101 46t106 36.5t107 34 t94.5 32.5l-16 -39q-30 -10 -81.5 -26.5t-89 -28t-87 -30.5t-84.5 -36t-72 -42.5t-60 -53t-38 -64t-15 -77.5q0 -71 39 -119q-63 48 -63 143zM1106 688l246 602q20 48 45.5 86.5t48.5 60t42.5 36t31.5 19.5l12 5l-31 105h17l38 -129q-4 -2 -12 -5.5t-31 -19t-44 -36 t-47 -59.5t-46 -87l-237 -584zM1262 -549q92 -76 237 -61v164h25v-189q-169 -17 -262 86zM1323 541q299 54 473 483l115 285q47 118 107.5 142t146.5 -40q0 -4 -2 -8q-75 46 -129.5 18t-98.5 -137l-114 -285q-174 -424 -467 -481zM1364.5 -345q-7.5 43 1.5 114l64 352 q42 261 -56 375q130 -112 80 -400l-63 -352q-9 -112 10 -150q-29 18 -36.5 61zM1774 -27q44 -36 120 -36q74 0 148 39t144 112.5t131.5 160.5t127.5 202q20 -7 25 -25q-66 -115 -127.5 -202t-131.5 -160.5t-144 -112.5t-148 -39q-95 0 -145 61zM1933 76q-70 25 25 260 l268 665h35l-279 -690q-70 -173 -49 -235zM2206 1288q30 -24 73 -24q53 0 90 37t37 90q0 41 -26 73q51 -38 51 -98q0 -52 -37.5 -89.5t-89.5 -37.5q-58 0 -98 49z" />
<glyph unicode="Kh" horiz-adv-x="2801" d="M47 -111q120 -110 301 -110q58 0 114.5 12t123.5 44.5t126 84t117.5 138t102.5 198.5l125 307l61 -16q40 -26 62 -53q-20 17 -37 28l-62 17l-125 -308q-44 -112 -102.5 -198.5t-117 -138t-125.5 -84t-123.5 -44.5t-114.5 -12q-201 0 -326 135zM92 195q0 44 16.5 87 t47.5 79.5t83.5 57t116.5 15.5v156h25v-180q-64 5 -116.5 -15.5t-83.5 -57t-47.5 -80t-16.5 -87.5q0 -90 57 -156q-40 34 -61 83t-21 98zM481 598q94 -84 232 -84v156q8 -2 24 -2v-179q-159 0 -256 109zM549 868q0 50 20 92.5t57.5 74.5t81 57t101 46t106 36.5t107 34 t94.5 32.5l-16 -39q-30 -10 -81.5 -26.5t-89 -28t-87 -30.5t-84.5 -36t-72 -42.5t-60 -53t-38 -64t-15 -77.5q0 -71 39 -119q-63 48 -63 143zM1106 688l246 602q20 48 45.5 86.5t48.5 60t42.5 36t31.5 19.5l12 5l-31 105h17l38 -129q-4 -2 -12 -5.5t-31 -19t-44 -36 t-47 -59.5t-46 -87l-237 -584zM1262 -549q92 -76 237 -61v164h25v-189q-169 -17 -262 86zM1323 541q299 54 473 483l115 285q46 111 115 131t165 -43l-4 -8q-84 46 -146.5 21.5t-105.5 -126.5l-114 -285q-174 -424 -467 -481zM1364.5 -345q-7.5 43 1.5 114l64 352 q42 261 -56 375q130 -112 80 -400l-63 -352q-9 -112 10 -150q-29 18 -36.5 61zM1636 -61l11 24h180l307 758q65 73 134 113t114 40q43 0 55 -30q-15 6 -31 6q-45 0 -113.5 -40.5t-133.5 -113.5l-308 -757h-215zM2214 918l207 514l24 -25l-178 -444zM2284 -27q44 -36 120 -36 q74 0 148 39t144 112.5t131.5 160.5t127.5 202q19 -3 25 -25q-66 -115 -127.5 -202t-131.5 -160.5t-144 -112.5t-148 -39q-95 0 -145 61zM2443 76q-72 23 25 260l125 307q67 165 67 252q0 56 -30 98q55 -42 55 -123q0 -84 -68 -252l-125 -307q-71 -177 -49 -235z" />
<glyph unicode="Is" horiz-adv-x="2025" d="M45 -111q120 -110 301 -110q58 0 114.5 12t123.5 44.5t126 84t117.5 138t102.5 198.5l446 1096q20 48 45.5 86.5t48.5 60t42.5 36t31.5 19.5l12 5l-30 104h16l39 -129q-4 -2 -12 -5.5t-31 -19t-44 -36t-47 -59.5t-46 -87l-447 -1096q-44 -112 -102.5 -198.5t-117 -138 t-125.5 -84t-123.5 -44.5t-114.5 -12q-201 0 -326 135zM90 195q0 44 16.5 87t47.5 79.5t83.5 57t116.5 15.5v156h25v-180q-64 5 -116.5 -15.5t-83.5 -57t-47.5 -80t-16.5 -87.5q0 -90 57 -156q-40 34 -61 83t-21 98zM479 598q94 -84 232 -84v156q8 -2 24 -2v-179 q-159 0 -256 109zM547 870q0 60 31 113t75 89t114 73t125 58t133 50.5t114 44.5l-17 -41q-26 -10 -84 -32t-93 -35.5t-90 -38t-89.5 -44.5t-75.5 -50.5t-64 -60.5t-39 -69t-16 -81q0 -73 39 -121q-63 48 -63 145zM1075 -61q127 115 355 512q80 138 163 305v-76 q-94 -176 -139 -254q-229 -399 -354 -512q-21 4 -25 25zM1296 18q93 -81 236 -81q69 0 132.5 15.5t114.5 40t100.5 65t86 80t78 97.5t69.5 104t66 112q19 -4 25 -25q-37 -65 -66 -111.5t-70 -104t-78 -97.5t-86.5 -80.5t-100.5 -65t-114.5 -40t-132.5 -15.5q-93 0 -158.5 32 t-101.5 74zM1767 123q23 70 23 164q0 22 -6 121.5t-9 183t5.5 204t31.5 218.5l29 -13q-25 -99 -34.5 -221.5t-7 -207t9 -187t6.5 -123.5q0 -66 -11 -117q-21 -14 -37 -22z" />
<glyph unicode="Ir" horiz-adv-x="2076" d="M45 -111q120 -110 301 -110q58 0 114.5 12t123.5 44.5t126 84t117.5 138t102.5 198.5l446 1096q20 48 45.5 86.5t48.5 60t42.5 36t31.5 19.5l12 5l-30 104h16l39 -129q-4 -2 -12 -5.5t-31 -19t-44 -36t-47 -59.5t-46 -87l-447 -1096q-44 -112 -102.5 -198.5t-117 -138 t-125.5 -84t-123.5 -44.5t-114.5 -12q-201 0 -326 135zM90 195q0 44 16.5 87t47.5 79.5t83.5 57t116.5 15.5v156h25v-180q-64 5 -116.5 -15.5t-83.5 -57t-47.5 -80t-16.5 -87.5q0 -90 57 -156q-40 34 -61 83t-21 98zM479 598q94 -84 232 -84v156q8 -2 24 -2v-179 q-159 0 -256 109zM547 870q0 60 31 113t75 89t114 73t125 58t133 50.5t114 44.5l-17 -41q-26 -10 -84 -32t-93 -35.5t-90 -38t-89.5 -44.5t-75.5 -50.5t-64 -60.5t-39 -69t-16 -81q0 -73 39 -121q-63 48 -63 145zM1104 -37q81 72 222 309.5t278 538.5l24 -25 q-137 -300 -278 -537.5t-222 -309.5q-20 6 -24 24zM1604 -27q41 -36 120 -36q57 0 113.5 29t102.5 71.5t100.5 117t94 137t95.5 159.5q19 -5 25 -25q-56 -97 -95.5 -159.5t-94 -137t-100.5 -117t-102.5 -71.5t-113.5 -29q-98 0 -145 61zM1667 969l76 174l26 -19l-77 -178z M1769 76q-73 25 25 260l92 227q25 63 25 107q0 70 -62 135q86 -86 86 -160q0 -46 -24 -106l-92 -228q-73 -176 -50 -235z" />
<glyph unicode="em" horiz-adv-x="2394" d="M104 6q81 -69 228 -69q166 0 321 94l25 -25q-155 -94 -322 -94q-170 0 -252 94zM211 236q1 37 7 71t13 55l7 21q206 -23 336.5 32t207.5 216q52 112 50.5 199.5t-50.5 144.5q65 -54 74 -148.5t-49 -220.5q-77 -161 -208 -216t-337 -32q-3 -7 -6.5 -18.5t-11 -44.5 t-9.5 -63t5 -66.5t26 -61.5q-29 22 -42.5 58.5t-12.5 73.5zM274 500q5 15 15 40.5t42.5 90.5t66.5 115t85 90.5t101 40.5q43 0 55 -31q-12 6 -31 6q-44 0 -88 -30.5t-76 -71.5t-62.5 -95.5t-46.5 -90.5t-28 -68q-13 0 -33 4zM745 -61l11 24h180l307 762q64 71 131.5 110 t112.5 39q43 0 55 -30q-15 6 -31 6q-44 0 -111.5 -39.5t-131.5 -110.5l-307 -761h-216zM1231 -61q4 8 10 24h180l310 762q62 71 130 110t113 39q44 0 56 -30q-15 6 -31 6q-45 0 -113.5 -39.5t-130.5 -110.5l-309 -761h-215zM1868 -27q44 -36 129 -36q74 0 148 39t144 112.5 t131.5 160.5t127.5 202q18 -4 24 -25q-66 -115 -127.5 -202t-131.5 -160.5t-144 -112.5t-148 -39q-106 0 -153 61zM2036 76q-73 23 24 260l125 307q68 166 68 250q0 57 -31 100q55 -42 55 -125q0 -87 -67 -250l-125 -307q-71 -177 -49 -235z" />
<glyph unicode="Gn" horiz-adv-x="2623" d="M213 1094q0 53 17 101t39 79t53.5 59t49 39.5t36.5 22.5l24 -25q-19 -11 -36.5 -22.5t-48.5 -39.5t-53 -59t-39 -79t-17 -101q0 -128 86 -223q-111 102 -111 248zM492 -14q55 -49 147 -49q167 0 354 165l-26 -67q-163 -123 -303 -123q-111 0 -172 74zM522 -596 q56 -47 148 -47q51 0 96 15t80.5 41t67.5 63t56.5 77.5t48 90t41.5 94t38 95.5q3 9 5 14.5t5 13.5t6 14q137 67 256 156l25 -25q-119 -89 -256 -156q-74 -188 -103 -248q-101 -202 -236 -252q-50 -18 -106 -18q-113 0 -172 72zM582 -440q0 36 29.5 69.5t70.5 57.5 q49 26 178 84l-18 -45q-93 -41 -135 -64q-41 -24 -71 -57.5t-30 -69.5q0 -8 4 -20q-28 14 -28 45zM586 262q0 110 55 291q25 -2 80 -2q226 0 404.5 74t304.5 196q121 117 184 259.5t63 269.5q0 142 -75 229q100 -87 100 -254q0 -126 -63 -268.5t-185 -259.5 q-126 -123 -305 -197t-404 -74q-54 0 -79 2q-56 -184 -56 -290q0 -77 29 -119q-53 36 -53 143zM698 719q56 139 128 269t156 239t178.5 175t180.5 66q73 0 101 -45q-32 21 -76 21q-84 0 -176 -63t-174.5 -168.5t-154.5 -231t-128 -262.5h-35zM1180 35l227 557l39 12 l-219 -541q-36 -22 -47 -28zM1462 -61l11 24h180l307 762q64 71 131.5 110t112.5 39q43 0 55 -30q-15 6 -31 6q-44 0 -111.5 -39.5t-131.5 -110.5l-308 -761h-215zM2097 -27q44 -36 129 -36q74 0 148 39t144 112.5t131.5 160.5t127.5 202q20 -8 25 -25q-66 -115 -127.5 -202 t-131.5 -160.5t-144 -112.5t-148 -39q-107 0 -154 61zM2265 76q-72 23 25 260l125 307q67 170 67 252q0 57 -31 100q56 -46 56 -125q0 -80 -68 -252l-125 -307q-71 -177 -49 -235z" />
<glyph unicode="emm" horiz-adv-x="3909" d="M104 6q81 -69 228 -69q166 0 321 94l25 -25q-155 -94 -322 -94q-170 0 -252 94zM211 236q1 37 7 71t13 55l7 21q206 -23 336.5 32t207.5 216q52 112 50.5 199.5t-50.5 144.5q65 -54 74 -148.5t-49 -220.5q-77 -161 -208 -216t-337 -32q-3 -7 -6.5 -18.5t-11 -44.5 t-9.5 -63t5 -66.5t26 -61.5q-29 22 -42.5 58.5t-12.5 73.5zM274 500q5 15 15 40.5t42.5 90.5t66.5 115t85 90.5t101 40.5q43 0 55 -31q-12 6 -31 6q-44 0 -88 -30.5t-76 -71.5t-62.5 -95.5t-46.5 -90.5t-28 -68q-13 0 -33 4zM745 -61l11 24h180l307 762q64 71 131.5 110 t112.5 39q43 0 55 -30q-15 6 -31 6q-44 0 -111.5 -39.5t-131.5 -110.5l-307 -761h-216zM1231 -61q4 8 10 24h180l310 762q62 71 130 110t113 39q44 0 56 -30q-15 6 -31 6q-45 0 -113.5 -39.5t-130.5 -110.5l-309 -761h-215zM1868 -27q44 -36 129 -36q95 0 196 69l25 -24 q-98 -70 -197 -70q-106 0 -153 61zM2036 76q-73 23 24 260l125 307q68 166 68 250q0 57 -31 100q55 -42 55 -125q0 -87 -67 -250l-125 -307q-71 -177 -49 -235zM2261 -61l10 24h180l308 762q64 71 131 110t112 39q44 0 56 -30q-15 6 -31 6q-45 0 -112.5 -39.5t-131.5 -110.5 l-307 -761h-215zM2746 -61q5 8 11 24h180l309 762q62 70 130.5 109.5t113.5 39.5q43 0 55 -30q-15 6 -31 6q-45 0 -113 -39.5t-130 -110.5l-310 -761h-215zM3383 -27q44 -36 129 -36q74 0 148 39t144 112.5t131.5 160.5t127.5 202q19 -5 25 -25q-66 -115 -127.5 -202 t-131.5 -160.5t-144 -112.5t-148 -39q-107 0 -154 61zM3551 76q-72 23 25 260l125 307q67 163 67 250q0 58 -30 100q55 -42 55 -125q0 -84 -68 -250l-125 -307q-71 -177 -49 -235z" />
<glyph unicode="Gh" horiz-adv-x="2625" d="M213 1094q0 53 17 101t39 79t53.5 59t49 39.5t36.5 22.5l24 -25q-19 -11 -36.5 -22.5t-48.5 -39.5t-53 -59t-39 -79t-17 -101q0 -128 86 -223q-111 102 -111 248zM492 -14q55 -49 147 -49q167 0 354 165l-26 -67q-163 -123 -303 -123q-111 0 -172 74zM522 -596 q56 -47 148 -47q51 0 96 15t80.5 41t67.5 63t56.5 77.5t48 90t41.5 94t38 95.5q3 9 5 14.5t5 13.5t6 14q152 76 256 154l25 -25q-111 -83 -256 -154q-74 -188 -103 -248q-101 -202 -236 -252q-50 -18 -106 -18q-113 0 -172 72zM582 -440q0 36 29.5 69.5t70.5 57.5 q49 26 178 84l-18 -45q-93 -41 -135 -64q-41 -24 -71 -57.5t-30 -69.5q0 -8 4 -20q-28 14 -28 45zM586 262q0 110 55 291q25 -2 80 -2q226 0 404.5 74t304.5 196q121 117 184 259.5t63 269.5q0 142 -75 229q100 -87 100 -254q0 -126 -63 -268.5t-185 -259.5 q-126 -123 -305 -197t-404 -74q-54 0 -79 2q-56 -184 -56 -290q0 -77 29 -119q-53 36 -53 143zM698 719q56 139 128 269t156 239t178.5 175t180.5 66q73 0 101 -45q-32 21 -76 21q-84 0 -176 -63t-174.5 -168.5t-154.5 -231t-128 -262.5h-35zM1180 35l227 557l39 12 l-219 -541zM1460 -61l10 24h181l307 758q65 73 134 113t114 40q43 0 55 -30q-15 6 -31 6q-45 0 -114 -40.5t-134 -113.5l-307 -757h-215zM2038 918l196 489h35l-178 -444zM2099 -27q44 -36 129 -36q74 0 148 39t144 112.5t131.5 160.5t127.5 202q19 -4 25 -25 q-66 -115 -127.5 -202t-131.5 -160.5t-144 -112.5t-148 -39q-107 0 -154 61zM2267 76q-72 23 25 260l125 307q67 165 67 252q0 56 -30 98q55 -42 55 -123q0 -84 -68 -252l-125 -307q-71 -177 -49 -235z" />
<glyph unicode="Fr" horiz-adv-x="2293" d="M170 -111q120 -110 301 -110q58 0 114.5 12t123.5 44.5t126 84t117.5 138t102.5 198.5l172 422h188l35 86h35l-45 -111h-189l-172 -422q-44 -112 -102.5 -198.5t-117 -138t-125.5 -84t-123.5 -44.5t-114.5 -12q-201 0 -326 135zM215 195q0 60 27.5 115.5t90 93 t148.5 30.5v156h25v-180q-65 5 -118 -15.5t-84 -57t-47.5 -80t-16.5 -87.5q0 -90 57 -156q-40 34 -61 83t-21 98zM299 1006q96 -86 231 -86q45 0 86.5 10.5t69.5 25t49 29t31 25.5l10 10l25 -25q-4 -4 -10.5 -11t-30 -24t-50 -30t-68.5 -24t-87 -11q-75 0 -142.5 29.5 t-113.5 81.5zM365 1251q0 38 14 73.5t42 66.5t77 50t112 19q71 0 192.5 -27.5t253.5 -54.5t228 -26l-10 -25q-112 4 -335 56.5t-304 52.5q-122 0 -184 -63.5t-62 -145.5q0 -64 35 -105q-59 46 -59 129zM856 653l10 25h148l-10 -25h-148zM1272 788l205 502q20 48 45.5 86.5 t48.5 60t43 36t32 19.5l11 5l-31 105h16l39 -129q-4 -2 -12 -5.5t-31 -19t-44 -36t-47 -59.5t-46 -87l-194 -478h-35zM1321 -37q81 72 222 309.5t278 538.5l24 -25q-137 -301 -277.5 -538t-221.5 -309q-21 6 -25 24zM1821 -27q41 -36 121 -36q57 0 113.5 29t102 71.5 t100.5 117t93.5 136.5t95.5 160q19 -5 25 -25q-56 -97 -95.5 -159.5t-94 -137t-100.5 -117t-102.5 -71.5t-113.5 -29q-98 0 -145 61zM1884 969l76 174l27 -19l-78 -178zM1987 76q-74 26 24 260l92 227q25 63 25 107q0 70 -62 135q86 -86 86 -160q0 -46 -24 -106l-92 -228 q-73 -174 -49 -235z" />
<glyph unicode="xh" horiz-adv-x="2091" d="M8 -61l23 24h127l268 277q-4 -36 -4 -54l-240 -247h-174zM154 451q13 23 47 82.5t51.5 89.5t48.5 80.5t51.5 77.5t45.5 57.5t45.5 43.5t37.5 13q22 0 25 -25q-17 0 -37.5 -13t-46 -44t-45.5 -57t-51.5 -78t-48.5 -80t-52 -90t-47 -82q-17 0 -24 25zM498 -23 q49 -40 129 -40q108 0 221 77l24 -24q-119 -78 -221 -78q-101 0 -153 65zM627 172q0 60 41 320l469 485l24 -25l-469 -485q-41 -260 -41 -320q0 -43 13 -69q-37 16 -37 94zM670 995q84 -66 63 -252l-33 -34q36 200 -30 286zM926 -61l10 24h180l307 758q65 73 134 113t114 40 q43 0 55 -30q-15 6 -30 6q-45 0 -114 -40.5t-134 -113.5l-307 -757h-215zM1503 918l197 489h35l-179 -444zM1565 -27q44 -36 129 -36q74 0 148 39t144 112.5t131.5 160.5t127.5 202q18 -3 24 -25q-66 -115 -127.5 -202t-131.5 -160.5t-144 -112.5t-148 -39q-106 0 -153 61z M1733 76q-73 23 24 260l125 307q68 168 68 252q0 55 -31 98q55 -42 55 -123q0 -87 -67 -252l-125 -307q-71 -177 -49 -235z" />
<glyph unicode="xk" horiz-adv-x="2039" d="M8 -61l23 24h127l268 277q-4 -36 -4 -54l-240 -247h-174zM154 451q13 23 47 82.5t51.5 89.5t48.5 80.5t51.5 77.5t45.5 57.5t45.5 43.5t37.5 13q22 0 25 -25q-17 0 -37.5 -13t-46 -44t-45.5 -57t-51.5 -78t-48.5 -80t-52 -90t-47 -82q-17 0 -24 25zM498 -23 q49 -40 129 -40q108 0 221 77l24 -24q-118 -78 -221 -78q-101 0 -153 65zM627 172q0 60 41 320l469 485l24 -25l-469 -485q-41 -260 -41 -320q0 -43 13 -69q-37 16 -37 94zM670 995q84 -66 63 -252l-33 -34q36 200 -30 286zM926 -61l10 24h180l307 762q65 71 133 110t113 39 q44 0 53 -30q-12 6 -28 6q-44 0 -112.5 -39.5t-133.5 -110.5l-307 -761h-215zM1427 -16q57 -47 136 -47q82 0 177.5 50t180 128t155.5 165.5t117 170.5q19 -4 25 -25q-46 -83 -117.5 -170.5t-156 -165.5t-180 -128t-177.5 -50q-98 0 -160 72zM1503 918l197 489h35l-179 -444 zM1518 340q219 20 333 246q99 206 99 311q0 57 -31 96q55 -42 55 -121q0 -107 -98 -311q-114 -226 -334 -246q-8 -169 29 -229q-66 41 -53 254z" />
<glyph unicode="xm" horiz-adv-x="2576" d="M8 -61l23 24h127l268 277q-4 -36 -4 -54l-240 -247h-174zM154 451q13 23 47 82.5t51.5 89.5t48.5 80.5t51.5 77.5t45.5 57.5t45.5 43.5t37.5 13q22 0 25 -25q-17 0 -37.5 -13t-46 -44t-45.5 -57t-51.5 -78t-48.5 -80t-52 -90t-47 -82q-17 0 -24 25zM498 -23 q49 -40 129 -40q110 0 223 77l24 -24q-118 -78 -223 -78q-101 0 -153 65zM627 172q0 60 41 320l469 485l24 -25l-469 -485q-41 -260 -41 -320q0 -43 13 -69q-37 16 -37 94zM670 995q84 -66 63 -252l-33 -34q36 200 -30 286zM928 -61l10 24h180l307 762q64 71 131.5 110 t112.5 39q43 0 55 -30q-15 6 -30 6q-45 0 -112.5 -39.5t-131.5 -110.5l-307 -761h-215zM1413 -61q4 8 10 24h181l309 762q62 70 130.5 109.5t113.5 39.5q43 0 55 -30q-15 6 -31 6q-45 0 -113.5 -39.5t-130.5 -110.5l-309 -761h-215zM2050 -27q44 -36 129 -36q74 0 148 39 t144 112.5t131.5 160.5t127.5 202q21 -10 25 -25q-66 -115 -127.5 -202t-131.5 -160.5t-144 -112.5t-148 -39q-107 0 -154 61zM2218 76q-72 23 25 260l124 307q68 166 68 250q0 57 -31 100q56 -42 56 -125q0 -84 -68 -250l-125 -307q-71 -177 -49 -235z" />
<glyph unicode="xn" horiz-adv-x="2088" d="M8 -61l23 24h127l268 277q-4 -36 -4 -54l-240 -247h-174zM154 451q13 23 47 82.5t51.5 89.5t48.5 80.5t51.5 77.5t45.5 57.5t45.5 43.5t37.5 13q22 0 25 -25q-17 0 -37.5 -13t-46 -44t-45.5 -57t-51.5 -78t-48.5 -80t-52 -90t-47 -82q-17 0 -24 25zM498 -23 q49 -40 129 -40q110 0 223 77l24 -24q-118 -78 -223 -78q-101 0 -153 65zM627 172q0 60 41 320l469 485l24 -25l-469 -485q-41 -260 -41 -320q0 -43 13 -69q-37 16 -37 94zM670 995q84 -66 63 -252l-33 -34q36 200 -30 286zM928 -61l10 24h180l307 762q64 71 131.5 110 t112.5 39q43 0 55 -30q-15 6 -30 6q-45 0 -112.5 -39.5t-131.5 -110.5l-307 -761h-215zM1563 -27q44 -36 129 -36q74 0 148 39t144 112.5t131.5 160.5t127.5 202q18 -5 24 -25q-66 -115 -127.5 -202t-131.5 -160.5t-144 -112.5t-148 -39q-106 0 -153 61zM1731 76 q-73 23 24 260l125 307q68 172 68 252q0 57 -31 100q55 -45 55 -125q0 -82 -67 -252l-125 -307q-71 -177 -49 -235z" />
<glyph unicode="yh" horiz-adv-x="2037" d="M-90 -592q54 -45 147 -45q59 0 111 20.5t90 52t73.5 82t60 97.5t52.5 111l60 145q178 83 280 154l25 -25q-100 -70 -281 -154q-26 -69 -59 -145q-28 -64 -52.5 -111t-60 -97.5t-73.5 -82t-90 -52t-111 -20.5q-115 0 -172 70zM-31 -436q0 58 103 123q20 12 45 24.5 t39.5 18.5t48 19.5t43.5 17.5q-2 -4 -8 -19t-9 -22q-78 -30 -135 -64q-102 -65 -102 -123q0 -10 4 -22q-29 13 -29 47zM14 -29q42 -34 119 -34q38 0 76 13t65.5 31.5t50 37t33.5 31.5l11 13l-33 -81q-91 -70 -178 -70q-99 0 -144 59zM178 96q-64 15 29 240l268 665h35 l-279 -690q-67 -163 -53 -215zM565 23l398 978h34l-389 -956zM872 -61l11 24h180l307 758q65 73 134 113t114 40q43 0 55 -30q-15 6 -31 6q-45 0 -113.5 -40.5t-133.5 -113.5l-308 -757h-215zM1450 918l197 489h34l-178 -444zM1511 -27q44 -36 129 -36q74 0 148 39 t144 112.5t131.5 160.5t127.5 202q19 -4 25 -25q-66 -115 -127.5 -202t-131.5 -160.5t-144 -112.5t-148 -39q-107 0 -154 61zM1679 76q-72 23 25 260l125 307q67 165 67 252q0 56 -30 98q55 -42 55 -123q0 -84 -68 -252l-124 -307q-72 -179 -50 -235z" />
<glyph unicode="yk" horiz-adv-x="1986" d="M-90 -592q54 -45 147 -45q59 0 111 20.5t90 52t73.5 82t60 97.5t52.5 111l60 145q178 83 280 154l25 -25q-100 -70 -281 -154q-26 -69 -59 -145q-28 -64 -52.5 -111t-60 -97.5t-73.5 -82t-90 -52t-111 -20.5q-115 0 -172 70zM-31 -436q0 58 103 123q20 12 45 24.5 t39.5 18.5t48 19.5t43.5 17.5q-2 -4 -8 -19t-9 -22q-78 -30 -135 -64q-102 -65 -102 -123q0 -10 4 -22q-29 13 -29 47zM14 -29q42 -34 119 -34q38 0 76 13t65.5 31.5t50 37t33.5 31.5l11 13l-33 -81q-91 -70 -178 -70q-99 0 -144 59zM178 96q-64 15 29 240l268 665h35 l-279 -690q-67 -163 -53 -215zM565 23l398 978h34l-389 -956zM872 -61l11 24h180l307 762q65 71 133 110t113 39q44 0 53 -30q-12 6 -29 6q-44 0 -112 -39.5t-133 -110.5l-308 -761h-215zM1374 -16q57 -47 135 -47q82 0 177.5 50t180 128t156 165.5t117.5 170.5 q19 -4 25 -25q-46 -83 -117.5 -170.5t-156 -165.5t-180 -128t-177.5 -50q-98 0 -160 72zM1450 918l197 489h34l-178 -444zM1464 340q220 20 334 246q98 204 98 311q0 59 -30 96q55 -42 55 -121q0 -107 -98 -311q-114 -226 -334 -246q-8 -169 29 -229q-67 42 -54 254z" />
<glyph unicode="ym" horiz-adv-x="2523" d="M-90 -592q54 -45 147 -45q59 0 111 20.5t90 52t73.5 82t60 97.5t52.5 111l60 145q178 83 280 156l25 -25q-18 -13 -38 -25.5t-35.5 -22t-38 -22t-34 -19t-37 -19t-32.5 -16t-34.5 -17t-31.5 -15.5q-26 -69 -59 -145q-28 -64 -52.5 -111t-60 -97.5t-73.5 -82t-90 -52 t-111 -20.5q-115 0 -172 70zM-31 -436q0 58 103 123q20 12 45 24.5t39.5 18.5t48 19.5t43.5 17.5q-2 -4 -8 -19t-9 -22q-78 -30 -135 -64q-102 -65 -102 -123q0 -10 4 -22q-29 13 -29 47zM14 -29q42 -34 119 -34q38 0 76 13t65.5 31.5t50 37t33.5 31.5l11 13l-33 -81 q-91 -70 -178 -70q-99 0 -144 59zM178 96q-64 15 29 240l268 665h35l-279 -690q-67 -163 -53 -215zM565 23l398 978h34l-389 -956zM874 -61l11 24h180l307 762q64 71 131.5 110t112.5 39q43 0 55 -30q-15 6 -31 6q-44 0 -111.5 -39.5t-131.5 -110.5l-307 -761h-216z M1360 -61q4 8 10 24h180l310 762q62 71 130 110t113 39q44 0 56 -30q-15 6 -31 6q-45 0 -113.5 -39.5t-130.5 -110.5l-309 -761h-215zM1997 -27q44 -36 129 -36q74 0 148 39t144 112.5t131.5 160.5t127.5 202q18 -4 24 -25q-66 -115 -127.5 -202t-131.5 -160.5t-144 -112.5 t-148 -39q-106 0 -153 61zM2165 76q-73 23 24 260l125 307q68 166 68 250q0 57 -31 100q55 -42 55 -125q0 -87 -67 -250l-125 -307q-71 -177 -49 -235z" />
<glyph unicode="ymm" horiz-adv-x="4038" d="M-90 -592q54 -45 147 -45q59 0 111 20.5t90 52t73.5 82t60 97.5t52.5 111l60 145q170 79 280 156l25 -25q-18 -13 -38 -25.5t-35.5 -22t-38 -22t-34 -19t-37 -19t-32.5 -16t-34.5 -17t-31.5 -15.5q-26 -69 -59 -145q-28 -64 -52.5 -111t-60 -97.5t-73.5 -82t-90 -52 t-111 -20.5q-115 0 -172 70zM-31 -436q0 58 103 123q20 12 45 24.5t39.5 18.5t48 19.5t43.5 17.5q-2 -4 -8 -19t-9 -22q-78 -30 -135 -64q-102 -65 -102 -123q0 -10 4 -22q-29 13 -29 47zM14 -29q42 -34 119 -34q38 0 76 13t65.5 31.5t50 37t33.5 31.5l11 13l-33 -81 q-91 -70 -178 -70q-99 0 -144 59zM178 96q-64 15 29 240l268 665h35l-279 -690q-67 -163 -53 -215zM565 23l398 978h34l-389 -956zM874 -61l11 24h180l307 762q64 71 131.5 110t112.5 39q43 0 55 -30q-15 6 -31 6q-44 0 -111.5 -39.5t-131.5 -110.5l-307 -761h-216z M1360 -61q4 8 10 24h180l310 762q62 71 130 110t113 39q44 0 56 -30q-15 6 -31 6q-45 0 -113.5 -39.5t-130.5 -110.5l-309 -761h-215zM1997 -27q44 -36 129 -36q95 0 196 69l25 -24q-98 -70 -197 -70q-106 0 -153 61zM2165 76q-73 23 24 260l125 307q68 166 68 250 q0 57 -31 100q55 -42 55 -125q0 -87 -67 -250l-125 -307q-71 -177 -49 -235zM2390 -61l10 24h180l308 762q64 71 131 110t112 39q44 0 56 -30q-15 6 -31 6q-45 0 -112.5 -39.5t-131.5 -110.5l-307 -761h-215zM2875 -61q5 8 11 24h180l309 762q62 70 130.5 109.5t113.5 39.5 q43 0 55 -30q-15 6 -31 6q-45 0 -113 -39.5t-130 -110.5l-310 -761h-215zM3512 -27q44 -36 129 -36q74 0 148 39t144 112.5t131.5 160.5t127.5 202q19 -4 25 -25q-66 -115 -127.5 -202t-131.5 -160.5t-144 -112.5t-148 -39q-107 0 -154 61zM3680 76q-72 23 25 260l125 307 q67 163 67 250q0 58 -30 100q55 -42 55 -125q0 -84 -68 -250l-125 -307q-71 -177 -49 -235z" />
<glyph unicode="ymn" horiz-adv-x="3551" d="M-90 -592q54 -45 147 -45q59 0 111 20.5t90 52t73.5 82t60 97.5t52.5 111l60 145q178 83 280 156l25 -25q-18 -13 -38 -25.5t-35.5 -22t-38 -22t-34 -19t-37 -19t-32.5 -16t-34.5 -17t-31.5 -15.5q-26 -69 -59 -145q-28 -64 -52.5 -111t-60 -97.5t-73.5 -82t-90 -52 t-111 -20.5q-115 0 -172 70zM-31 -436q0 58 103 123q20 12 45 24.5t39.5 18.5t48 19.5t43.5 17.5q-2 -4 -8 -19t-9 -22q-78 -30 -135 -64q-102 -65 -102 -123q0 -10 4 -22q-29 13 -29 47zM14 -29q42 -34 119 -34q38 0 76 13t65.5 31.5t50 37t33.5 31.5l11 13l-33 -81 q-91 -70 -178 -70q-99 0 -144 59zM178 96q-64 15 29 240l268 665h35l-279 -690q-67 -163 -53 -215zM565 23l398 978h34l-389 -956zM874 -61l11 24h180l307 762q64 71 131.5 110t112.5 39q43 0 55 -30q-15 6 -31 6q-44 0 -111.5 -39.5t-131.5 -110.5l-307 -761h-216z M1360 -61q4 8 10 24h180l310 762q62 71 130 110t113 39q44 0 56 -30q-15 6 -31 6q-45 0 -113.5 -39.5t-130.5 -110.5l-309 -761h-215zM1997 -27q44 -36 129 -36q99 0 196 69l25 -24q-98 -70 -197 -70q-106 0 -153 61zM2165 76q-73 23 24 260l125 307q68 166 68 250 q0 57 -31 100q55 -42 55 -125q0 -87 -67 -250l-125 -307q-71 -177 -49 -235zM2390 -61l10 24h180l308 762q64 71 131 110t112 39q44 0 56 -30q-15 6 -31 6q-45 0 -112.5 -39.5t-131.5 -110.5l-307 -761h-215zM3025 -27q44 -36 129 -36q74 0 148 39t144 112.5t131.5 160.5 t127.5 202q18 -5 24 -25q-66 -115 -127.5 -202t-131.5 -160.5t-144 -112.5t-148 -39q-106 0 -153 61zM3193 76q-73 23 24 260l125 307q68 172 68 252q0 57 -31 100q55 -45 55 -125q0 -82 -67 -252l-125 -307q-71 -177 -49 -235z" />
<glyph unicode="yn" horiz-adv-x="2035" d="M-90 -592q54 -45 147 -45q59 0 111 20.5t90 52t73.5 82t60 97.5t52.5 111l60 145q178 83 280 156l25 -25q-18 -13 -38 -25.5t-35.5 -22t-38 -22t-34 -19t-37 -19t-32.5 -16t-34.5 -17t-31.5 -15.5q-26 -69 -59 -145q-28 -64 -52.5 -111t-60 -97.5t-73.5 -82t-90 -52 t-111 -20.5q-115 0 -172 70zM-31 -436q0 58 103 123q20 12 45 24.5t39.5 18.5t48 19.5t43.5 17.5q-2 -4 -8 -19t-9 -22q-78 -30 -135 -64q-102 -65 -102 -123q0 -10 4 -22q-29 13 -29 47zM14 -29q42 -34 119 -34q38 0 76 13t65.5 31.5t50 37t33.5 31.5l11 13l-33 -81 q-91 -70 -178 -70q-99 0 -144 59zM178 96q-64 15 29 240l268 665h35l-279 -690q-67 -163 -53 -215zM565 23l398 978h34l-389 -956zM874 -61l11 24h180l307 762q64 71 131.5 110t112.5 39q43 0 55 -30q-15 6 -31 6q-44 0 -111.5 -39.5t-131.5 -110.5l-307 -761h-216z M1509 -27q44 -36 129 -36q74 0 148 39t144 112.5t131.5 160.5t127.5 202q19 -4 25 -25q-66 -115 -127.5 -202t-131.5 -160.5t-144 -112.5t-148 -39q-107 0 -154 61zM1677 76q-72 23 25 260l125 307q67 170 67 252q0 58 -30 100q55 -45 55 -125t-68 -252l-125 -307 q-71 -177 -49 -235z" />
<glyph unicode="Es" horiz-adv-x="2174" d="M213 -72q159 -149 381 -149q109 0 208 35.5t174 100t125.5 154t62.5 196.5t-15 229l16 4q34 -126 25.5 -237t-58 -204.5t-125 -160.5t-177 -104.5t-212.5 -37.5q-120 0 -224 46t-181 128zM244 342q0 160 102.5 273.5t259.5 113.5q65 0 126 -21t90 -42l28 -21l92 143 q25 -19 27 -20l-95 -147q-4 3 -11.5 9t-32 20.5t-51 25.5t-67 20t-81.5 9q-157 0 -260 -114t-103 -274q0 -151 97 -262q-121 109 -121 287zM813 1712l27 -4q-9 -84 0 -164l-19 -14q-16 94 -8 182zM818.5 989.5q-25.5 109.5 4.5 210.5l23 -31q-25 -90 -6 -189.5t80 -166.5 q-76 67 -101.5 176.5zM887 1128q116 -110 282 -110q82 0 151.5 28t114 74t69.5 104.5t26 121.5q0 113 -76 198q50 -44 75 -103t25 -120q-2 -132 -100 -230t-260 -98q-185 0 -307 135zM893 1339q101 127 262 127q113 0 164 -65q-51 41 -139 41q-161 0 -262 -127 q16 -31 45 -60q-39 34 -70 84zM1225 -61q125 113 354 512q87 151 164 305v-76q-94 -176 -139 -254q-228 -397 -355 -512q-20 3 -24 25zM1446 18q93 -81 235 -81q69 0 132.5 15.5t114.5 40t100.5 65t86.5 80.5t78 97.5t70 104t66 111.5q18 -4 24 -25q-38 -66 -66 -112 t-69.5 -104t-78 -97.5t-86 -80t-100.5 -65t-114.5 -40t-132.5 -15.5q-93 0 -158.5 32t-101.5 74zM1917 123q22 67 22 164q0 21 -6 121.5t-8.5 183t6 203.5t31.5 219l29 -13q-25 -99 -34.5 -221.5t-7 -206.5t8.5 -187.5t6 -123.5q0 -71 -10 -117q-21 -14 -37 -22z" />
<glyph unicode="Er" horiz-adv-x="2205" d="M213 -72q159 -149 381 -149q109 0 208 35.5t174 100t125.5 154t62.5 196.5t-15 229l16 4q34 -126 25.5 -237t-58 -204.5t-125 -160.5t-177 -104.5t-212.5 -37.5q-120 0 -224 46t-181 128zM244 342q0 160 102.5 273.5t259.5 113.5q65 0 126 -21t90 -42l28 -21l92 143 q25 -19 27 -20l-95 -147q-4 3 -11.5 9t-32 20.5t-51 25.5t-67 20t-81.5 9q-157 0 -260 -114t-103 -274q0 -151 97 -262q-121 109 -121 287zM813 1712l27 -4q-9 -84 0 -164l-19 -14q-16 94 -8 182zM818.5 989.5q-25.5 109.5 4.5 210.5l23 -31q-25 -90 -6 -189.5t80 -166.5 q-76 67 -101.5 176.5zM887 1128q116 -110 282 -110q82 0 151.5 28t114 74t69.5 104.5t26 121.5q0 113 -76 198q50 -44 75 -103t25 -120q-2 -132 -100 -230t-260 -98q-185 0 -307 135zM893 1339q101 127 262 127q113 0 164 -65q-51 41 -139 41q-161 0 -262 -127 q16 -31 45 -60q-39 34 -70 84zM1233 -37q81 72 222 309.5t278 538.5l24 -25q-137 -300 -278 -537.5t-222 -309.5q-20 6 -24 24zM1733 -27q41 -36 120 -36q57 0 113.5 29t102.5 71.5t100.5 117t94 137t95.5 159.5q19 -5 25 -25q-56 -97 -95.5 -159.5t-94 -137t-100.5 -117 t-102.5 -71.5t-113.5 -29q-98 0 -145 61zM1796 969l76 174l26 -19l-77 -178zM1898 76q-73 25 25 260l92 227q25 63 25 107q0 70 -62 135q86 -86 86 -160q0 -46 -24 -106l-92 -228q-73 -176 -50 -235z" />
<glyph unicode="Dr" horiz-adv-x="2754" d="M61 -33q87 -80 240 -80q211 0 377 146q126 -101 210.5 -143t196.5 -42q121 0 234 48.5t203 131.5t164.5 194t124 235t77 254.5t27.5 253.5q0 323 -182 518q206 -193 206 -543q0 -148 -37.5 -304.5t-111.5 -301t-172.5 -259t-231 -183t-276.5 -68.5q-112 0 -197.5 42 t-210.5 142q-165 -145 -376 -145q-175 0 -265 104zM141 170q0 45 39.5 83t98.5 38q103 0 249 -133l-2 -2q-129 110 -223 110q-59 0 -98 -37.5t-39 -83.5q0 -27 16 -53q-41 27 -41 78zM545 653l143 105q-5 10 -13 27t-21 68t-13 99q0 69 25 145t76.5 149t120.5 131t165.5 94 t204.5 36q217 0 344 -137q-122 113 -320 113q-108 0 -204.5 -36t-165.5 -94t-120 -131t-76 -149t-25 -145q0 -48 12 -97t24 -73l11 -25l-150 -108q-8 10 -18 28zM793 158q87 112 161 299l242 596q20 48 46 87t48 60.5t41.5 36t30.5 19.5l12 4l-31 104h17l39 -129 q-4 -1 -11.5 -4.5t-30 -19t-43 -36t-47 -60t-46.5 -87.5q-242 -594 -242 -596q-76 -190 -160 -295zM1782 -37q81 72 221.5 309t277.5 539l25 -25q-137 -300 -278 -537.5t-222 -309.5q-20 6 -24 24zM2281 -27q41 -36 121 -36q57 0 113.5 29t102.5 71.5t100.5 117t94 137 t95.5 159.5q19 -5 25 -25q-56 -97 -95.5 -159.5t-94 -137t-100.5 -117t-102.5 -71.5t-113.5 -29q-99 0 -146 61zM2345 969l76 174l26 -19l-77 -178zM2447 76q-73 25 25 260l92 227q25 62 25 107q0 70 -62 135q86 -86 86 -160q0 -46 -24 -106l-92 -228q-73 -176 -50 -235z " />
<glyph unicode="Ch" horiz-adv-x="2420" d="M213 1069q0 67 23.5 127.5t59.5 100.5t63 63t49 35l24 -25q-22 -12 -49 -35t-62.5 -63t-59 -100.5t-23.5 -127.5q0 -119 90 -215q-54 49 -84.5 113t-30.5 127zM498 -76q88 -78 243 -78q223 0 439 166l24 -24q-216 -166 -438 -166q-179 0 -268 102zM592 233q0 145 53 318 h29q204 0 371 70.5t290 189.5q124 121 185 265t61 272q0 148 -80 237q50 -44 77.5 -113t27.5 -149q0 -128 -61 -272t-185 -265q-123 -119 -290.5 -189.5t-371.5 -70.5h-28q-54 -177 -54 -317q0 -105 43 -162q-67 56 -67 186zM705 723q72 189 163 354t197.5 278t194.5 113 q51 0 81 -41q-24 17 -57 17q-86 0 -190 -108t-194 -267t-161 -344q-12 -2 -34 -2zM1255 -61l11 24h180l307 758q65 73 134 113t114 40q43 0 55 -30q-15 6 -31 6q-45 0 -113.5 -40.5t-133.5 -113.5l-308 -757h-215zM1833 918l197 489h34l-178 -444zM1894 -27q44 -36 129 -36 q74 0 148 39t144 112.5t131.5 160.5t127.5 202q19 -4 25 -25q-66 -115 -127.5 -202t-131.5 -160.5t-144 -112.5t-148 -39q-107 0 -154 61zM2062 76q-72 23 25 260l125 307q67 165 67 252q0 56 -30 98q55 -42 55 -123q0 -84 -68 -252l-125 -307q-71 -177 -49 -235z" />
<glyph unicode="&#x7a;h" horiz-adv-x="2043" d="M127 -35q60 51 108.5 66t87.5 2t74.5 -34t89 -41.5t111.5 -20.5q105 0 211 69l25 -24q-107 -70 -211 -70q-58 0 -111.5 20.5t-89 42t-75 34.5t-88 -2.5t-109.5 -67.5zM154 451q126 220 144 248q63 98 119 126q36 17 83 17q54 0 138.5 -28.5t117.5 -29.5l-19 -18 q-4 1 -84 26t-129 25q-87 0 -139 -59t-160 -250q-30 -53 -47 -82q-6 2 -13.5 9t-10.5 16zM395 231l697 693l24 -25l-676 -672q-28 4 -45 4zM879 -61l10 24h180l307 758q65 73 134 113t114 40q43 0 55 -30q-15 6 -30 6q-45 0 -114 -40.5t-134 -113.5l-307 -757h-215z M1456 918l197 489h35l-179 -444zM1518 -27q44 -36 129 -36q74 0 148 39t144 112.5t131.5 160.5t127.5 202q19 -8 24 -25q-66 -115 -127.5 -202t-131.5 -160.5t-144 -112.5t-148 -39q-106 0 -153 61zM1686 76q-73 23 24 260l125 307q68 168 68 252q0 55 -31 98 q55 -42 55 -123q0 -87 -67 -252l-125 -307q-71 -177 -49 -235z" />
<glyph unicode="&#x7a;k" horiz-adv-x="1992" d="M127 -35q60 51 108.5 66t87.5 2t74.5 -34t89 -41.5t111.5 -20.5q105 0 211 69l25 -24q-107 -70 -211 -70q-58 0 -111.5 20.5t-89 42t-75 34.5t-88 -2.5t-109.5 -67.5zM154 451q126 220 144 248q63 98 119 126q36 17 83 17q54 0 138.5 -28.5t117.5 -29.5l-19 -18 q-4 1 -84 26t-129 25q-87 0 -139 -59t-160 -250q-30 -53 -47 -82q-6 2 -13.5 9t-10.5 16zM395 231l697 693l24 -25l-676 -672q-28 4 -45 4zM879 -61l10 24h180l307 762q65 71 133 110t113 39q44 0 53 -30q-12 6 -28 6q-44 0 -112.5 -39.5t-133.5 -110.5l-307 -761h-215z M1380 -16q57 -47 136 -47q82 0 177.5 50t180 128t155.5 165.5t117 170.5q20 -8 25 -25q-46 -83 -117.5 -170.5t-156 -165.5t-180 -128t-177.5 -50q-98 0 -160 72zM1456 918l197 489h35l-179 -444zM1470 340q220 20 334 246q99 206 99 311q0 57 -31 96q55 -42 55 -121 q0 -107 -98 -311q-114 -226 -334 -246q-8 -169 29 -229q-67 42 -54 254z" />
<glyph unicode="&#x7a;m" horiz-adv-x="2529" d="M127 -35q60 51 108.5 66t87.5 2t74.5 -34t89 -41.5t111.5 -20.5q112 0 213 69l25 -24q-103 -70 -213 -70q-58 0 -111.5 20.5t-89 42t-75 34.5t-88 -2.5t-109.5 -67.5zM154 451q126 220 144 248q63 98 119 126q36 17 83 17q54 0 138.5 -28.5t117.5 -29.5l-19 -18 q-4 1 -84 26t-129 25q-87 0 -139 -59t-160 -250q-30 -53 -47 -82q-6 2 -13.5 9t-10.5 16zM395 231l697 693l24 -25l-676 -672q-28 4 -45 4zM881 -61l10 24h180l307 762q64 71 131.5 110t112.5 39q43 0 55 -30q-15 6 -30 6q-45 0 -112.5 -39.5t-131.5 -110.5l-307 -761h-215z M1366 -61q4 8 10 24h180l310 762q62 71 130 110t113 39q44 0 56 -30q-15 6 -31 6q-45 0 -113.5 -39.5t-130.5 -110.5l-309 -761h-215zM2003 -27q44 -36 129 -36q74 0 148 39t144 112.5t131.5 160.5t127.5 202q18 -4 24 -25q-66 -115 -127.5 -202t-131 -160.5t-143.5 -112.5 t-148 -39q-107 0 -154 61zM2171 76q-73 23 24 260l125 307q68 166 68 250q0 57 -31 100q56 -42 56 -125q0 -84 -68 -250l-125 -307q-71 -177 -49 -235z" />
<glyph unicode="&#x7a;n" horiz-adv-x="2041" d="M127 -35q60 51 108.5 66t87.5 2t74.5 -34t89 -41.5t111.5 -20.5q112 0 213 69l25 -24q-103 -70 -213 -70q-58 0 -111.5 20.5t-89 42t-75 34.5t-88 -2.5t-109.5 -67.5zM154 451q126 220 144 248q63 98 119 126q36 17 83 17q54 0 138.5 -28.5t117.5 -29.5l-19 -18 q-4 1 -84 26t-129 25q-87 0 -139 -59t-160 -250q-30 -53 -47 -82q-6 2 -13.5 9t-10.5 16zM395 231l697 693l24 -25l-676 -672q-28 4 -45 4zM881 -61l10 24h180l307 762q64 71 131.5 110t112.5 39q43 0 55 -30q-15 6 -30 6q-45 0 -112.5 -39.5t-131.5 -110.5l-307 -761h-215z M1516 -27q44 -36 129 -36q74 0 148 39t143.5 112.5t131 160.5t127.5 202q7 0 14.5 -7.5t10.5 -17.5q-66 -115 -127.5 -202t-131.5 -160.5t-144 -112.5t-148 -39q-106 0 -153 61zM1683 76q-72 23 25 260l125 307q68 172 68 252q0 57 -31 100q55 -45 55 -125q0 -82 -67 -252 l-125 -307q-72 -179 -50 -235z" />
<glyph unicode="emn" horiz-adv-x="3422" d="M104 6q81 -69 228 -69q166 0 321 94l25 -25q-155 -94 -322 -94q-170 0 -252 94zM211 236q1 37 7 71t13 55l7 21q206 -23 336.5 32t207.5 216q52 112 50.5 199.5t-50.5 144.5q65 -54 74 -148.5t-49 -220.5q-77 -161 -208 -216t-337 -32q-3 -7 -6.5 -18.5t-11 -44.5 t-9.5 -63t5 -66.5t26 -61.5q-29 22 -42.5 58.5t-12.5 73.5zM274 500q5 15 15 40.5t42.5 90.5t66.5 115t85 90.5t101 40.5q43 0 55 -31q-12 6 -31 6q-44 0 -88 -30.5t-76 -71.5t-62.5 -95.5t-46.5 -90.5t-28 -68q-13 0 -33 4zM745 -61l11 24h180l307 762q64 71 131.5 110 t112.5 39q43 0 55 -30q-15 6 -31 6q-44 0 -111.5 -39.5t-131.5 -110.5l-307 -761h-216zM1231 -61q4 8 10 24h180l310 762q62 71 130 110t113 39q44 0 56 -30q-15 6 -31 6q-45 0 -113.5 -39.5t-130.5 -110.5l-309 -761h-215zM1868 -27q44 -36 129 -36q99 0 196 69l25 -24 q-98 -70 -197 -70q-106 0 -153 61zM2036 76q-73 23 24 260l125 307q68 166 68 250q0 57 -31 100q55 -42 55 -125q0 -87 -67 -250l-125 -307q-71 -177 -49 -235zM2261 -61l10 24h180l308 762q64 71 131 110t112 39q44 0 56 -30q-15 6 -31 6q-45 0 -112.5 -39.5t-131.5 -110.5 l-307 -761h-215zM2896 -27q44 -36 129 -36q74 0 148 39t144 112.5t131.5 160.5t127.5 202q6 0 13.5 -7.5t10.5 -17.5q-66 -115 -127.5 -202t-131.5 -160.5t-144 -112.5t-148 -39q-106 0 -153 61zM3064 76q-73 23 24 260l125 307q68 172 68 252q0 57 -31 100q55 -45 55 -125 q0 -82 -67 -252l-125 -307q-71 -177 -49 -235z" />
<glyph unicode="en" horiz-adv-x="1906" d="M104 6q81 -69 228 -69q166 0 321 94l25 -25q-155 -94 -322 -94q-170 0 -252 94zM211 236q1 37 7 71t13 55l7 21q206 -23 336.5 32t207.5 216q52 112 50.5 199.5t-50.5 144.5q65 -54 74 -148.5t-49 -220.5q-77 -161 -208 -216t-337 -32q-3 -7 -6.5 -18.5t-11 -44.5 t-9.5 -63t5 -66.5t26 -61.5q-29 22 -42.5 58.5t-12.5 73.5zM274 500q5 15 15 40.5t42.5 90.5t66.5 115t85 90.5t101 40.5q43 0 55 -31q-12 6 -31 6q-44 0 -88 -30.5t-76 -71.5t-62.5 -95.5t-46.5 -90.5t-28 -68q-13 0 -33 4zM745 -61l11 24h180l307 762q64 71 131.5 110 t112.5 39q43 0 55 -30q-15 6 -31 6q-44 0 -111.5 -39.5t-131.5 -110.5l-307 -761h-216zM1380 -27q44 -36 129 -36q74 0 148 39t144 112.5t131.5 160.5t127.5 202q19 -5 25 -25q-66 -115 -127.5 -202t-131.5 -160.5t-144 -112.5t-148 -39q-107 0 -154 61zM1548 76 q-72 23 25 260l125 307q67 170 67 252q0 58 -30 100q55 -45 55 -125t-68 -252l-125 -307q-71 -177 -49 -235z" />
<glyph unicode="Br" horiz-adv-x="2621" d="M66 -37q82 -76 225 -76q202 0 364 176q144 -112 251 -163.5t229 -51.5q118 0 213 47.5t152.5 124.5t87.5 167t30 182q0 184 -123 321q147 -136 147 -346q0 -92 -30 -182t-87.5 -166.5t-152.5 -124t-213 -47.5q-122 0 -228 51.5t-251 163.5q-162 -176 -365 -176 q-163 0 -249 100zM141 170q0 45 39.5 83t98.5 38q48 0 101 -27t122 -78l-4 -4q-122 84 -195 84q-59 0 -98 -37.5t-39 -83.5q0 -29 18 -53q-43 32 -43 78zM530 723l144 106q-5 9 -13 26.5t-21 69t-13 101.5q0 68 21 138.5t65.5 138.5t106.5 121t151.5 85.5t193.5 32.5 q204 0 308 -119q-110 95 -283 95q-104 0 -194 -32.5t-152 -86t-106.5 -121.5t-65.5 -138.5t-21 -138.5q0 -50 11.5 -99t23.5 -73l12 -24l-151 -113q-7 11 -17 31zM758 197q65 103 133 266q41 95 127 313q217 -50 317 -160q-100 94 -293 136q-91 -230 -127 -314 q-65 -156 -131 -262zM1075 918l68 169q19 46 44.5 84.5t48.5 60.5t43 37t32 20l12 5l-31 105h17l39 -129q-5 -2 -13 -5.5t-31 -19.5t-44.5 -37t-47.5 -60t-45 -85l-61 -154q-17 3 -31 9zM1384 786q8 1 24 5t52 18t70.5 33t74.5 53.5t69.5 76.5t49 104.5t19.5 135.5 q0 192 -127 328q151 -142 151 -352q0 -92 -31.5 -168t-73.5 -119.5t-96.5 -76t-87.5 -43.5t-59 -17zM1649 -37q81 72 221.5 309t277.5 539l25 -25q-137 -300 -278 -537.5t-222 -309.5q-20 6 -24 24zM2148 -27q41 -36 121 -36q57 0 113.5 29t102.5 71.5t100.5 117t94 137 t95.5 159.5q19 -5 25 -25q-56 -97 -95.5 -159.5t-94 -137t-100.5 -117t-102.5 -71.5t-113.5 -29q-99 0 -146 61zM2212 969l76 174l26 -19l-78 -178zM2314 76q-73 25 25 260l92 227q25 62 25 107q0 70 -62 135q86 -86 86 -160q0 -46 -24 -106l-93 -228q-73 -174 -49 -235z " />
<glyph unicode="enm" horiz-adv-x="3422" d="M104 6q81 -69 228 -69q166 0 321 94l25 -25q-155 -94 -322 -94q-170 0 -252 94zM211 236q1 37 7 71t13 55l7 21q206 -23 336.5 32t207.5 216q52 112 50.5 199.5t-50.5 144.5q65 -54 74 -148.5t-49 -220.5q-77 -161 -208 -216t-337 -32q-3 -7 -6.5 -18.5t-11 -44.5 t-9.5 -63t5 -66.5t26 -61.5q-29 22 -42.5 58.5t-12.5 73.5zM274 500q5 15 15 40.5t42.5 90.5t66.5 115t85 90.5t101 40.5q43 0 55 -31q-12 6 -31 6q-44 0 -88 -30.5t-76 -71.5t-62.5 -95.5t-46.5 -90.5t-28 -68q-13 0 -33 4zM745 -61l11 24h180l307 762q64 71 131.5 110 t112.5 39q43 0 55 -30q-15 6 -31 6q-44 0 -111.5 -39.5t-131.5 -110.5l-307 -761h-216zM1380 -27q44 -36 129 -36q100 0 197 69l25 -24q-98 -70 -197 -70q-107 0 -154 61zM1548 76q-72 23 25 260l125 307q67 170 67 252q0 58 -30 100q55 -45 55 -125t-68 -252l-125 -307 q-71 -177 -49 -235zM1774 -61l10 24h180l307 762q64 71 131.5 110t112.5 39q43 0 55 -30q-15 6 -30 6q-45 0 -112.5 -39.5t-131.5 -110.5l-307 -761h-215zM2259 -61q4 8 10 24h180l310 762q62 71 130 110t113 39q44 0 56 -30q-15 6 -31 6q-45 0 -113.5 -39.5t-130.5 -110.5 l-309 -761h-215zM2896 -27q44 -36 129 -36q74 0 148 39t144 112.5t131.5 160.5t127.5 202q18 -4 24 -25q-66 -115 -127.5 -202t-131.5 -160.5t-144 -112.5t-148 -39q-106 0 -153 61zM3064 76q-73 23 24 260l125 307q68 166 68 250q0 57 -31 100q55 -42 55 -125 q0 -87 -67 -250l-125 -307q-71 -177 -49 -235z" />
<glyph unicode="&#xd;" horiz-adv-x="778" />
<glyph unicode=" "  horiz-adv-x="512" />
<glyph unicode="&#x09;" horiz-adv-x="512" />
<glyph unicode="&#xa0;" horiz-adv-x="512" />
<glyph unicode="!" horiz-adv-x="679" d="M188 -27q45 -30 93 -30q61 0 104 42.5t43 104.5q0 46 -31 92q56 -49 56 -116q0 -62 -43.5 -105t-104.5 -43q-72 0 -117 55zM352 340l8 25h101l473 1042h37l-486 -1067h-133z" />
<glyph unicode="&#x22;" horiz-adv-x="866" d="M225 735l6 25h72l283 518q14 28 14 57q0 38 -25 74q50 -40 50 -98q0 -28 -15 -58l-282 -518h-103zM643 735l6 25h72l283 518q14 28 14 57q0 38 -25 74q49 -39 49 -98q0 -30 -14 -58l-283 -518h-102z" />
<glyph unicode="#" horiz-adv-x="1406" d="M27 307l10 25h250l-11 -25h-249zM162 -61l10 24h143l150 369h315l-10 -25h-281l-149 -368h-178zM262 887l10 24h248l-10 -24h-248zM524 481l174 430h316l-10 -24h-281l-164 -406h-35zM655 -61l11 24h143l149 369h285l51 125h35l-61 -150h-285l-149 -368h-179zM760 1061 l139 346h35l-139 -346h-35zM1018 481l174 430h287l49 125h35l-60 -149h-286l-164 -406h-35zM1253 1061l140 346h34l-139 -346h-35z" />
<glyph unicode="$" horiz-adv-x="954" d="M170 -178l10 24h78l74 185q100 -1 182 25t133.5 67t86.5 95t49 105.5t14 100.5q0 51 -13 98.5t-41.5 96.5t-49 77t-60.5 80l176 441q26 -9 43 -33l-18 8l-177 -440q40 -51 60.5 -80t49 -77.5t41.5 -96.5t13 -99q0 -49 -14 -100.5t-49 -105.5t-86.5 -95t-133.5 -67 t-182 -25l-73 -184h-113zM226 287.5q-6 45.5 7 91.5t37 94h39q-24 -40 -40 -84.5t-20 -91.5t17 -76q-34 21 -40 66.5zM401 203l150 370l20 -34l-133 -328q-11 -4 -37 -8zM518 981q0 90 47 155t133 83l-14 -37q-67 -26 -104 -87t-37 -139q0 -31 20 -71l-4 -11q-41 64 -41 107 zM825 903l15 25h161q25 42 41.5 104.5t9 143t-52.5 133.5q46 -39 66 -98.5t14.5 -118t-19.5 -108t-34 -81.5h-201zM879 1384l61 156h35l-66 -166z" />
<glyph unicode="%" horiz-adv-x="1357" d="M225 -61l21 24h114l951 1149h45l-971 -1173h-160zM236 637q82 -72 192 -72q120 0 204.5 84.5t84.5 204.5q0 111 -72 193q96 -86 96 -218q0 -120 -84 -204t-204 -84q-131 0 -217 96zM289 852q0 59 39.5 99t97.5 40q68 0 111 -53q-40 29 -86 29q-58 0 -98 -40.5t-40 -99.5 q0 -47 29 -84q-53 40 -53 109zM899 41q82 -72 193 -72q120 0 204 84.5t84 204.5q0 113 -71 193q96 -86 96 -218q0 -120 -84.5 -204t-204.5 -84q-131 0 -217 96zM952 256q0 59 40 99t98 40q67 0 110 -53q-40 29 -86 29q-58 0 -97.5 -40.5t-39.5 -99.5q0 -47 29 -84 q-54 41 -54 109z" />
<glyph unicode="&#x26;" horiz-adv-x="1433" d="M197 76q150 -137 360 -137q169 0 306.5 93t209 241t64.5 313q137 16 224 50.5t122 83.5t37 112t-31 137l12 4q31 -66 40.5 -120t-5.5 -103t-58 -85.5t-122.5 -63.5t-194.5 -40q5 -123 -36 -240t-116.5 -207t-187 -145t-239.5 -55q-113 0 -212.5 42.5t-172.5 119.5z M238 457q0 137 89 233t208 96q44 0 84 -14t59 -28l18 -15l90 133l27 -22l-92 -135q-7 6 -20.5 15.5t-55.5 25.5t-86 16q-119 0 -208 -96.5t-89 -233.5q0 -135 84 -231q-52 46 -80 114.5t-28 141.5zM557 305q0 9 4 25h111q5 52 19.5 88.5t46 68t87 51.5t138.5 31v-28 q-146 -23 -201.5 -78t-65.5 -158h-139zM684 1087q0 69 25 124.5t64.5 88t84.5 49.5t90 17q94 0 152 -68q-49 43 -127 43q-45 0 -90 -17t-84.5 -49t-64.5 -87.5t-25 -124.5q0 -116 67 -189q-92 80 -92 213zM905 944q49 -43 129 -43q114 0 192.5 84.5t78.5 202.5 q0 131 -88 229q55 -49 83.5 -117.5t28.5 -136.5q0 -118 -78 -202t-192 -84q-103 0 -154 67z" />
<glyph unicode="'" horiz-adv-x="448" d="M225 735l6 25h72l283 518q14 28 14 57q0 38 -25 74q50 -40 50 -98q0 -28 -15 -58l-282 -518h-103z" />
<glyph unicode="(" horiz-adv-x="788" d="M90 -352l166 110q-8 11 -20 28.5t-32 64.5t-20 83q0 19 4.5 42.5t15.5 55.5t18 50t23.5 58t20.5 50l410 1016q36 87 122.5 187t237.5 194l25 -24q-151 -94 -238 -194t-123 -187l-409 -1016q-4 -10 -20.5 -50t-23.5 -58t-18 -50t-15.5 -55.5t-4.5 -42.5q0 -36 18 -80 t36 -70l18 -26l-172 -115q-9 11 -19 29z" />
<glyph unicode=")" horiz-adv-x="788" d="M102 -352q120 77 207.5 155t139 153t71.5 113t45 98q3 6 4 9l422 1049q64 150 64 245q0 70 -27.5 140t-60.5 119l6 4q4 -6 11.5 -16.5t25.5 -42.5t32 -64.5t25.5 -77.5t11.5 -86q0 -98 -63 -246l-422 -1048q-47 -114 -93 -183q-125 -187 -382 -350z" />
<glyph unicode="*" horiz-adv-x="866" d="M180 811q23 -15 51.5 -15t53.5 15q3 2 36 32.5t85 79.5t77 72q0 -7 1 -22t1 -23q-169 -159 -176 -164q-33 -21 -70 -13.5t-59 38.5zM537 668q34 -24 73 -15q38 10 57.5 44t10.5 73q-11 33 -115 246q252 -70 262 -70q40 -3 71 22.5t32 63.5q3 30 -17 60q44 -30 41 -84 q-1 -38 -31.5 -63.5t-70.5 -22.5q-14 0 -262 69q19 -38 46.5 -97.5t47 -102.5t20.5 -46q9 -39 -10 -72.5t-57 -43.5q-27 -7 -53.5 4t-44.5 35zM571 1100q84 127 146 227q19 48 -8 90q27 -19 36 -50t-4 -64l-125 -197z" />
<glyph unicode="+" horiz-adv-x="1198" d="M133 434l10 25h318l-10 -25h-318zM340 72l10 24h164l148 363h354l63 157h35l-74 -182h-354l-147 -362h-199zM735 641l137 338h35l-137 -338h-35z" />
<glyph unicode="," horiz-adv-x="552" d="M59 -369q22 12 40 23t59.5 38.5t73.5 53.5t72 65.5t66.5 77.5t45 86t18.5 95q0 65 -33 106q58 -44 58 -131q0 -52 -21 -104.5t-55 -94.5t-75 -81t-82.5 -68t-75.5 -50.5t-55 -32.5l-21 -11z" />
<glyph unicode="-" horiz-adv-x="1003" d="M322 444l10 25h504l55 139h35l-66 -164h-538z" />
<glyph unicode="." horiz-adv-x="552" d="M188 -27q45 -30 93 -30q61 0 104 42.5t43 104.5q0 46 -31 92q56 -49 56 -116q0 -62 -43.5 -105t-104.5 -43q-72 0 -117 55z" />
<glyph unicode="/" horiz-adv-x="917" d="M164 -315l10 24h78l782 1942h35l-793 -1966h-112z" />
<glyph unicode="0" horiz-adv-x="1021" d="M131 -4q67 -59 172 -59q101 0 201.5 61t181.5 160t151 225.5t117 258.5t74 258t27 224q0 160 -76 250q100 -86 100 -274q0 -98 -26.5 -224t-74 -258t-117.5 -258.5t-150.5 -226t-181 -160.5t-201.5 -61q-124 0 -197 84zM227 233q0 76 35 208.5t94.5 277.5t129 275 t146.5 215t138 85q42 0 66 -34q-20 10 -41 10q-61 0 -138 -85t-146.5 -215t-129 -275t-94.5 -277.5t-35 -208.5q0 -61 22 -94q-47 26 -47 118z" />
<glyph unicode="1" horiz-adv-x="796" d="M160 561q206 194 409 428l-39 -96q-152 -174 -348 -358zM180 -61l10 24h172l582 1444h35l-592 -1468h-207z" />
<glyph unicode="2" horiz-adv-x="946" d="M-117 -61l11 24h747l70 176h34l-79 -200h-783zM215 164q129 102 250 198q85 68 154 129t151.5 147.5t138 166.5t93.5 175.5t38 184.5q0 121 -65 195q90 -75 90 -219q0 -89 -38 -184.5t-93.5 -175.5t-138.5 -167t-152 -147.5t-154 -128.5l-219 -174h-55zM264 928v24h182 q0 135 77.5 239.5t189.5 104.5q61 0 92 -45q-32 21 -68 21q-112 0 -189 -104.5t-77 -239.5h-207z" />
<glyph unicode="3" horiz-adv-x="1001" d="M78 10q83 -73 241 -73q107 0 199 35t154.5 92t107.5 130t65.5 148t20.5 147q0 123 -63 195q88 -78 88 -219q0 -72 -20.5 -147t-65.5 -148t-107.5 -130.5t-154.5 -92.5t-199 -35q-185 0 -266 98zM195.5 216q-6.5 62 10.5 123.5t46 117.5h39q-29 -47 -49 -106t-24.5 -122.5 t24.5 -103.5q-40 29 -46.5 91zM307 1001q0 9 4 25h176q19 106 91.5 188t171.5 82q66 0 94 -43q-30 19 -70 19q-99 0 -171 -82.5t-91 -188.5h-205zM420 623l10 26q157 13 207 -53q-58 43 -217 27zM715 750q177 56 268.5 174.5t91.5 255.5q0 111 -61 184q86 -75 86 -209 q0 -135 -88.5 -252t-259.5 -174q-15 10 -37 21z" />
<glyph unicode="4" horiz-adv-x="1056" d="M-8 299l10 25h500l-10 -25h-500zM227 512l629 692l-37 -92l-545 -600h-47zM381 -61l10 24h172l146 361q62 3 116.5 19.5t87 37.5t56.5 42t33 35l10 15l24 -24q-3 -6 -10 -15.5t-32.5 -34t-57 -44t-86.5 -36.5t-117 -20l-145 -360h-207zM786 518l359 889h35l-357 -883z " />
<glyph unicode="5" horiz-adv-x="1019" d="M98 2q75 -65 213 -65q86 0 165 29.5t140.5 80t114 116.5t89.5 139t63 148t38.5 143t12.5 124q0 149 -72 233q96 -84 96 -258q0 -81 -24 -180.5t-76 -205.5t-123 -193.5t-175.5 -144t-223.5 -56.5q-161 0 -238 90zM213 702l4 13l152 -60q55 104 122.5 168t131.5 64 q59 0 84 -41q-26 16 -60 16q-64 0 -131.5 -63.5t-122.5 -167.5zM214 243q2 90 52 214h35q-50 -113 -60.5 -202.5t21.5 -137.5q-50 36 -48 126zM489 961l101 249q207 -34 270 -34q195 0 303 151l25 -24q-109 -152 -303 -152q-28 0 -96 8.5t-121 17.5l-54 9l-77 -193 q-14 -7 -26 -15t-17 -12z" />
<glyph unicode="6" horiz-adv-x="1005" d="M141 6q79 -69 197 -69q82 0 158.5 32.5t137 86.5t111.5 124.5t85 147t53.5 153t21.5 144.5q3 141 -61 217q92 -79 86 -242q-2 -67 -21.5 -144t-53.5 -153.5t-85.5 -147t-111.5 -124.5t-137 -86.5t-159 -32.5q-140 0 -221 94zM238 246q0 102 65 303q51 93 138.5 160 t158.5 67q55 0 82 -41q-27 17 -57 17q-71 0 -158.5 -67.5t-138.5 -160.5q-66 -204 -66 -303q0 -65 25 -106q-49 34 -49 131zM406 815q61 136 122 239t129.5 171.5t126.5 68.5q46 0 66 -34q-17 10 -41 10q-78 0 -168.5 -114.5t-179.5 -301.5q-33 -20 -55 -39zM852 969 q2 3 5 12t5 12h182q72 251 -38 381q67 -58 84 -160.5t-21 -244.5h-217z" />
<glyph unicode="7" horiz-adv-x="915" d="M84 -61l10 24h225q271 615 830 1380l25 -24q-559 -765 -830 -1380h-260zM193 944l10 25h172l104 264q263 -31 309 -31q38 0 76 6l-24 -30h-27q-54 0 -309 30l-105 -264h-206z" />
<glyph unicode="8" horiz-adv-x="1005" d="M70 20q95 -83 274 -83q105 0 196 35t153.5 92.5t107 130t65.5 147.5t21 145q0 122 -66 201q90 -80 90 -225q0 -71 -21 -145.5t-65.5 -147.5t-106.5 -130t-153 -92.5t-196 -35.5q-206 0 -299 108zM193 250q0 44 13.5 96t41.5 106t66 98.5t92.5 72.5t115.5 28q85 0 123 -53 q-40 29 -98 29q-75 0 -140.5 -42.5t-105 -106t-62 -131t-22.5 -122.5q0 -57 27 -96q-51 38 -51 121zM512 969q0 45 17.5 99.5t48 105.5t81 85.5t107.5 34.5q67 0 94 -43q-29 19 -69 19q-57 0 -107.5 -34.5t-81 -85.5t-48 -106t-17.5 -100q0 -46 20 -76q-45 30 -45 101z M770 731q76 25 139.5 78t103 117t60.5 131t21 127q0 106 -62 174q86 -73 86 -199q0 -81 -34.5 -168.5t-109 -167.5t-173.5 -114q-7 6 -14.5 11t-11.5 7.5t-5 3.5z" />
<glyph unicode="9" horiz-adv-x="980" d="M92 -4q68 -59 180 -59q90 0 178.5 44.5t162 120.5t140.5 175.5t117 211t87 224t56 218.5t19 191q0 155 -76 242q101 -86 101 -266q0 -85 -19 -191t-56 -219t-87 -224.5t-117 -210.5t-140.5 -175.5t-162 -121t-178.5 -44.5q-133 0 -205 84zM208.5 179.5 q-7.5 50.5 1.5 100.5t26 97h34q-16 -34 -27.5 -81.5t-13.5 -100t19 -84.5q-32 18 -39.5 68.5zM254 528q62 -53 158 -53q126 0 256 105l-31 -64q-95 -65 -201 -65q-117 0 -182 77zM369 754q0 64 32 156t81.5 177.5t118 146t132.5 60.5q50 0 76 -39q-21 15 -51 15 q-84 0 -172 -100.5t-140.5 -227t-52.5 -213.5q0 -55 23 -96q-47 35 -47 121z" />
<glyph unicode=":" horiz-adv-x="634" d="M188 -27q45 -30 93 -30q61 0 104 42.5t43 104.5q0 46 -31 92q56 -49 56 -116q0 -62 -43.5 -105t-104.5 -43q-72 0 -117 55zM457 635q46 -31 92 -31q61 0 104 43t43 105q0 47 -30 92q55 -48 55 -117q0 -61 -43 -104t-105 -43q-71 0 -116 55z" />
<glyph unicode=";" horiz-adv-x="634" d="M61 -369q22 12 40 23t59.5 38.5t73.5 53.5t72 65t66.5 77t45 85.5t18.5 94.5q0 65 -33 106q58 -44 58 -131q0 -51 -21 -103.5t-55 -94.5t-75 -81t-82.5 -67.5t-75.5 -50t-55 -32.5l-21 -11zM457 635q46 -31 92 -31q61 0 104 43t43 105q0 47 -30 92q55 -48 55 -117 q0 -61 -43 -104t-105 -43q-71 0 -116 55z" />
<glyph unicode="&#x3c;" horiz-adv-x="1300" d="M418 522l792 277l76 186l41 14l-92 -225l-778 -270zM920 76l65 160l29 -15l-70 -170z" />
<glyph unicode="=" horiz-adv-x="1228" d="M61 229l11 25h872l64 160h34l-73 -185h-908zM221 635l10 24h873l65 160h35l-76 -184h-907z" />
<glyph unicode="&#x3e;" horiz-adv-x="1300" d="M-4 51l16 39l1082 375l63 160l29 -15l-68 -170z" />
<glyph unicode="?" horiz-adv-x="923" d="M186 -27q45 -30 93 -30q61 0 104 42.5t43 104.5q0 46 -31 92q56 -49 56 -116q0 -62 -43.5 -105t-104.5 -43q-72 0 -117 55zM313 928v24h164q0 133 74 238.5t170 105.5q59 0 88 -43q-25 19 -64 19q-96 0 -169.5 -105.5t-73.5 -238.5h-189zM334 340q4 18 8 25h135 q17 56 57.5 115t90.5 110.5t107 105.5t110.5 109.5t97 112t70 123t26.5 133.5q0 114 -65 190q90 -78 90 -215q0 -67 -26.5 -133.5t-70 -123t-97 -112t-110.5 -109.5t-107 -105.5t-90.5 -110.5t-57.5 -115h-168z" />
<glyph unicode="@" horiz-adv-x="2048" d="M442 279q0 182 63.5 351t170.5 293.5t256 199.5t313 75q245 0 389 -156q-141 132 -364 132q-164 0 -313 -75t-256 -200t-170.5 -294t-63.5 -351q0 -265 141 -418q-166 152 -166 443zM471 -266q97 -92 228.5 -139.5t281.5 -47.5q157 0 301.5 51t255.5 142l25 -25 q-110 -91 -255 -141.5t-302 -50.5q-160 0 -298.5 53.5t-236.5 157.5zM760 39q40 -29 92 -29q42 0 83 14.5t69.5 35.5t51 42t33.5 36l11 14q0 -21 6 -48q-38 -44 -97 -81t-132 -37q-74 0 -117 53zM864 223q0 53 27 146.5t68 186t98 160.5t110 68q43 0 68 -39q-18 15 -43 15 q-53 0 -110 -68t-98 -160.5t-68 -186t-27 -146.5q0 -24 6 -39q-31 12 -31 63zM1178 -18q60 -50 157 -50q103 0 209 66t187.5 172t133.5 249t52 288q0 129 -42.5 248t-127.5 210q97 -90 146 -217.5t49 -265.5q0 -193 -86.5 -374t-222 -290.5t-273.5 -109.5q-122 0 -182 74z M1303 78q-84 51 2 262l213 524l43 23l-232 -572q-68 -170 -26 -237z" />
<glyph unicode="A" horiz-adv-x="1730" d="M0 31q112 -97 281 -97q302 0 530 353l25 -25q-227 -352 -531 -352q-194 0 -305 121zM74 287q0 36 13 68.5t40 61t75 45.5t111 17q139 0 332 -100l-6 -8q-172 84 -301 84q-63 0 -111 -17t-75.5 -46t-40.5 -61.5t-13 -68.5q0 -60 39 -108q-63 51 -63 133zM897 428l590 991 l20 -8l-12 -43l-569 -956zM1233 -379l117 447q33 -6 64 -6q17 0 34 2q47 5 85 13.5t75.5 33t69.5 52.5t67 73.5t67.5 96t71.5 118.5q6 0 14 -7.5t11 -17.5q-69 -121 -123 -194t-117 -122q-63 -50 -133 -64q-40 -8 -86 -8q-36 0 -76 5l-117 -446zM1386 209l314 1184 q12 45 12 83q0 68 -39 113q62 -50 62 -138q0 -38 -11 -83l-307 -1161q-5 0 -15.5 1t-15.5 1z" />
<glyph unicode="B" horiz-adv-x="1710" d="M66 -37q82 -76 225 -76q202 0 364 176q144 -112 251 -163.5t229 -51.5q118 0 213 47.5t152.5 124.5t87.5 167t30 182q0 184 -123 321q147 -136 147 -346q0 -92 -30 -182t-87.5 -166.5t-152.5 -124t-213 -47.5q-122 0 -228 51.5t-251 163.5q-162 -176 -365 -176 q-163 0 -249 100zM141 170q0 45 39.5 83t98.5 38q48 0 101 -27t122 -78l-4 -4q-122 84 -195 84q-59 0 -98 -37.5t-39 -83.5q0 -29 18 -53q-43 32 -43 78zM530 723l144 106q-5 9 -13 26.5t-21 69t-13 101.5q0 68 21 138.5t65.5 138.5t106.5 121t151.5 85.5t193.5 32.5 q204 0 308 -119q-110 95 -283 95q-104 0 -194 -32.5t-152 -86t-106.5 -121.5t-65.5 -138.5t-21 -138.5q0 -50 11.5 -99t23.5 -73l12 -24l-151 -113q-7 11 -17 31zM758 197q65 103 133 266q41 95 127 313q217 -50 317 -160q-100 94 -293 136q-91 -230 -127 -314 q-65 -156 -131 -262zM1075 918l68 169q19 46 44.5 84.5t48.5 60.5t43 37t32 20l12 5l-31 105h17l39 -129q-5 -2 -13 -5.5t-31 -19.5t-44.5 -37t-47.5 -60t-45 -85l-61 -154q-17 3 -31 9zM1384 786q8 1 24 5t52 18t70.5 33t74.5 53.5t69.5 76.5t49 104.5t19.5 135.5 q0 192 -127 328q151 -142 151 -352q0 -92 -31.5 -168t-73.5 -119.5t-96.5 -76t-87.5 -43.5t-59 -17z" />
<glyph unicode="C" horiz-adv-x="1390" d="M213 1069q0 67 23.5 127.5t59.5 100.5t63 63t49 35l24 -25q-22 -12 -49 -35t-62.5 -63t-59 -100.5t-23.5 -127.5q0 -119 90 -215q-54 49 -84.5 113t-30.5 127zM498 -76q88 -78 243 -78q120 0 235 45.5t216 129t188 191t164 239.5q19 -5 25 -25q-160 -275 -365 -439.5 t-438 -164.5q-179 0 -268 102zM592 233q0 145 53 318h29q204 0 371 70.5t290 189.5q124 121 185 265t61 272q0 148 -80 237q50 -44 77.5 -113t27.5 -149q0 -128 -61 -272t-185 -265q-123 -119 -290.5 -189.5t-371.5 -70.5h-28q-54 -177 -54 -317q0 -105 43 -162 q-67 56 -67 186zM705 723q72 189 163 354t197.5 278t194.5 113q51 0 81 -41q-24 17 -57 17q-86 0 -190 -108t-194 -267t-161 -344q-12 -2 -34 -2z" />
<glyph unicode="D" horiz-adv-x="1896" d="M61 -33q87 -80 240 -80q211 0 377 146q126 -101 210.5 -143t196.5 -42q121 0 234 48.5t203 131.5t164.5 194t124 235t77 254.5t27.5 253.5q0 323 -182 518q206 -193 206 -543q0 -148 -37.5 -304.5t-111.5 -301t-172.5 -259t-231 -183t-276.5 -68.5q-112 0 -197.5 42 t-210.5 142q-165 -145 -376 -145q-175 0 -265 104zM141 170q0 45 39.5 83t98.5 38q103 0 249 -133l-2 -2q-129 110 -223 110q-59 0 -98 -37.5t-39 -83.5q0 -27 16 -53q-41 27 -41 78zM545 653l143 105q-5 10 -13 27t-21 68t-13 99q0 69 25 145t76.5 149t120.5 131t165.5 94 t204.5 36q217 0 344 -137q-122 113 -320 113q-108 0 -204.5 -36t-165.5 -94t-120 -131t-76 -149t-25 -145q0 -48 12 -97t24 -73l11 -25l-150 -108q-8 10 -18 28zM793 158q87 112 161 299l242 596q20 48 46 87t48 60.5t41.5 36t30.5 19.5l12 4l-31 104h17l39 -129 q-4 -1 -11.5 -4.5t-30 -19t-43 -36t-47 -60t-46.5 -87.5q-242 -594 -242 -596q-76 -190 -160 -295z" />
<glyph unicode="E" horiz-adv-x="1265" d="M213 -72q159 -149 381 -149q109 0 208 35.5t174 100t125.5 154t62.5 196.5q4 33 4 67q0 77 -19 162l16 4q27 -101 28 -192q-1 -23 -3 -45q-8 -111 -57.5 -204.5t-125 -160.5t-177 -104.5t-212.5 -37.5q-120 0 -224 46t-181 128zM244 342q0 160 102.5 273.5t259.5 113.5 q65 0 126 -21t90 -42l28 -21l92 143q25 -19 27 -20l-95 -147q-4 3 -11.5 9t-32 20.5t-51 25.5t-67 20t-81.5 9q-157 0 -260 -114t-103 -274q0 -151 97 -262q-121 109 -121 287zM813 1712l27 -4q-4 -42 -4.5 -83t4.5 -81l-19 -14q-11 63 -11 123q0 30 3 59zM818 990 q-12 50 -11 98q0 57 16 112l23 -31q-14 -51 -14 -105q0 -40 8 -84q19 -100 80 -167q-76 67 -102 177zM887 1128q116 -110 282 -110q82 0 151.5 28t114 74t69.5 104.5t26 121.5q0 113 -76 198q50 -44 75 -103t25 -120q-2 -132 -100 -230t-260 -98q-185 0 -307 135zM893 1339 q101 127 262 127q113 0 164 -65q-51 41 -139 41q-161 0 -262 -127q16 -31 45 -60q-39 34 -70 84z" />
<glyph unicode="F" horiz-adv-x="1415" d="M170 -111q120 -110 301 -110q58 0 114.5 12t123.5 44.5t126 84t117.5 138t102.5 198.5l172 422h188l35 86h35l-45 -111h-189l-172 -422q-44 -112 -102.5 -198.5t-117 -138t-125.5 -84t-123.5 -44.5t-114.5 -12q-201 0 -326 135zM215 195q0 60 27.5 115.5t89.5 93.5 q53 32 123 31q13 0 26 -1v156h25v-180q-13 1 -25 1q-50 -1 -93 -17q-53 -20 -84 -56.5t-47.5 -80t-16.5 -87.5q0 -90 57 -156q-40 34 -61 83t-21 98zM299 1006q96 -86 231 -86q45 0 86.5 10.5t69.5 25t49 29t31 25.5l10 10l25 -25q-4 -4 -10.5 -11t-30 -24t-50 -30 t-68.5 -24t-87 -11q-75 0 -142.5 29.5t-113.5 81.5zM365 1251q0 38 14 73.5t42 66.5t77 50t112 19q71 0 192.5 -27.5t253.5 -54.5q127 -26 221 -26h7l-10 -25q-112 4 -335 56.5t-304 52.5q-122 0 -184 -63.5t-62 -145.5q0 -64 35 -105q-59 46 -59 129zM856 653l10 25h148 l-10 -25h-148zM1272 788l205 502q20 48 45.5 86.5t48.5 60t43 36t32 19.5l11 5l-31 105h16l39 -129q-4 -2 -12 -5.5t-31 -19t-44 -36t-47 -59.5t-46 -87l-194 -478h-35z" />
<glyph unicode="G" horiz-adv-x="1595" d="M213 1094q0 53 17 101t39 79t53.5 59t49 39.5t36.5 22.5l24 -25q-19 -11 -36.5 -22.5t-48.5 -39.5t-53 -59t-39 -79t-17 -101q0 -128 86 -223q-111 102 -111 248zM492 -14q55 -49 147 -49q167 0 354 165l-26 -67q-163 -123 -303 -123q-111 0 -172 74zM522 -596 q56 -47 148 -47q51 0 96 15t80.5 41t67.5 63t56.5 77.5t48 90t41.5 94t38 95.5q3 9 5 14.5t5 13.5t6 14q83 40 163 91t166 121t165.5 163.5t140.5 200.5q6 0 14 -7.5t11 -17.5q-61 -107 -140.5 -200.5t-165.5 -163.5t-166 -121t-163 -91q-74 -188 -103 -248 q-101 -202 -236 -252q-50 -18 -106 -18q-113 0 -172 72zM582 -440q0 36 29.5 69.5t70.5 57.5q49 26 178 84l-18 -45q-93 -41 -135 -64q-41 -24 -71 -57.5t-30 -69.5q0 -8 4 -20q-28 14 -28 45zM586 262q0 110 55 291q25 -2 80 -2q226 0 404.5 74t304.5 196 q121 117 184 259.5t63 269.5q0 142 -75 229q100 -87 100 -254q0 -126 -63 -268.5t-185 -259.5q-126 -123 -305 -197t-404 -74q-54 0 -79 2q-56 -184 -56 -290q0 -77 29 -119q-53 36 -53 143zM698 719q56 139 128 269t156 239t178.5 175t180.5 66q73 0 101 -45q-32 21 -76 21 q-84 0 -176 -63t-174.5 -168.5t-154.5 -231t-128 -262.5h-35zM1180 35l227 557l39 12l-219 -541z" />
<glyph unicode="H" horiz-adv-x="1884" d="M145 31q109 -97 269 -97q93 0 172.5 29t142 83t110.5 117.5t93 147.5l24 -24q-45 -84 -93 -147.5t-110.5 -117.5t-142 -83t-172.5 -29q-185 0 -293 121zM217 285q0 82 62.5 138t175.5 56q125 0 303 -80l-6 -12q-157 68 -273 68q-113 0 -175 -56.5t-62 -138.5 q0 -57 37 -104q-62 49 -62 129zM242 928q99 -86 231 -86q45 0 86.5 10.5t69.5 25t49 29t31 25.5l10 10l24 -24q-3 -4 -10 -11t-30 -24.5t-49.5 -30.5t-68.5 -24t-87 -11q-76 0 -143 29t-113 82zM307 1178q0 40 13.5 76t42.5 67.5t82 50.5t124 19q64 0 255 -33 q170 -29 286 -29h27l-11 -24h-7q-111 0 -283 30q-178 31 -242 31q-71 0 -124 -19t-82 -50.5t-42.5 -67.5t-13.5 -76q0 -68 35 -109q-60 46 -60 134zM999 461l338 829q20 48 45.5 86.5t48.5 60t43 36t32 19.5l12 5l-31 105h16l39 -129q-4 -2 -12 -5.5t-31 -19t-44 -36 t-47 -59.5t-46 -87l-334 -822zM1245 -399l191 471q72 -19 132 -21h13q55 -1 101 15q52 18 96.5 47.5t89 82t84 112t86.5 143.5q18 -4 24 -25q-47 -84 -86.5 -143.5t-84 -112t-89.5 -82.5q-44 -28 -96 -46q-47 -16 -101 -16h-13q-60 2 -132 21l-192 -477zM1495 215l490 1210 h34l-491 -1216z" />
<glyph unicode="I" horiz-adv-x="1177" d="M45 -111q120 -110 301 -110q58 0 114.5 12t123.5 44.5t126 84t117.5 138t102.5 198.5l446 1096q20 48 45.5 86.5t48.5 60t42.5 36t31.5 19.5l12 5l-30 104h16l39 -129q-4 -2 -12 -5.5t-31 -19t-44 -36t-47 -59.5t-46 -87l-447 -1096q-44 -112 -102.5 -198.5t-117 -138 t-125.5 -84t-123.5 -44.5t-114.5 -12q-201 0 -326 135zM90 195q0 44 16.5 87t47.5 80q32 36 84 56q42 16 91 17q12 0 25 -1v156h25v-180q-13 1 -25 1q-50 -1 -92 -17q-52 -20 -83 -56.5t-47.5 -80t-16.5 -87.5q0 -90 57 -156q-40 34 -61 83t-21 98zM479 598q94 -84 232 -84 v156q8 -2 24 -2v-179q-159 0 -256 109zM547 870q0 60 31 113t75 89t114 73t125 58t133 50.5t114 44.5l-17 -41q-26 -10 -84 -32t-93 -35.5t-90 -38t-89.5 -44.5t-75.5 -50.5t-64 -60.5t-39 -69t-16 -81q0 -73 39 -121q-63 48 -63 145z" />
<glyph unicode="J" horiz-adv-x="1093" d="M-156 -563q83 -74 207 -74q206 0 356.5 153t294.5 521q118 36 201.5 75.5t146 92t105 107.5t92.5 139q6 0 14 -7.5t11 -17.5q-50 -84 -92.5 -139t-105 -107.5t-146 -92t-201.5 -75.5q-144 -368 -294.5 -521t-356.5 -153q-68 0 -129 25.5t-103 73.5zM-63 -346 q0 46 21 85.5t62 70.5t87 55.5t112 46t118.5 35.5t123.5 30l-15 -34q-79 -18 -141 -36t-129.5 -46t-112 -59.5t-73.5 -76t-29 -96.5q0 -40 21 -67q-45 31 -45 92zM238 414q106 -95 264 -95v156q8 -2 24 -2v-178q-179 0 -288 119zM297 702q0 39 12.5 77t32 69.5t52 64 t64.5 57.5t77.5 53t83.5 48t90 45t88.5 41t88.5 38.5t81 35.5l-19 -43q-221 -99 -272 -124q-255 -130 -325 -266q-29 -58 -29 -120q0 -81 45 -135q-70 60 -70 159zM772 213l440 1090q20 46 45.5 83t48 56.5t42 33t30.5 17.5l11 4l-31 105h16l39 -129q-4 -1 -11.5 -4 t-29.5 -17.5t-42.5 -34t-46.5 -56.5t-46 -83l-424 -1049q-30 -13 -41 -16z" />
<glyph unicode="K" horiz-adv-x="1679" d="M47 -111q120 -110 301 -110q58 0 114.5 12t123.5 44.5t126 84t117.5 138t102.5 198.5l125 307l61 -16q40 -26 62 -53q-20 17 -37 28l-62 17l-125 -308q-44 -112 -102.5 -198.5t-117 -138t-125.5 -84t-123.5 -44.5t-114.5 -12q-201 0 -326 135zM92 195q0 44 16.5 87 t47.5 80q32 36 84 56q42 16 91 17q12 0 25 -1v156h25v-180q-13 1 -25 1q-50 -1 -92 -17q-52 -20 -83 -56.5t-47.5 -80t-16.5 -87.5q0 -90 57 -156q-40 34 -61 83t-21 98zM481 598q94 -84 232 -84v156q8 -2 24 -2v-179q-159 0 -256 109zM549 868q0 50 20 92.5t57.5 74.5 t81 57t101 46t106 36.5t107 34t94.5 32.5l-16 -39q-30 -10 -81.5 -26.5t-89 -28t-87 -30.5t-84.5 -36t-72 -42.5t-60 -53t-38 -64t-15 -77.5q0 -71 39 -119q-63 48 -63 143zM1106 688l246 602q20 48 45.5 86.5t48.5 60t42.5 36t31.5 19.5l12 5l-31 105h17l38 -129 q-4 -2 -12 -5.5t-31 -19t-44 -36t-47 -59.5t-46 -87l-237 -584zM1262 -549q77 -63 191 -63q22 0 46 2v164h25v-189q-24 -2 -46 -2q-136 0 -216 88zM1323 541q302 55 473 483l111 274q27 67 57.5 106t61.5 52q32 12 68 14h18q28 0 59 -4l31 133q8 0 28 -4l-35 -153 q-31 4 -59 4h-18q-36 -2 -67.5 -14.5t-62 -51.5t-57.5 -106l-110 -275q-170 -423 -467 -481zM1364 -345q-3 20 -3 45q0 30 5 69l64 352q13 78 13 143q0 152 -69 232q94 -81 94 -254q0 -66 -14 -146l-63 -352q-3 -36 -3 -64q0 -60 13 -86q-29 18 -37 61z" />
<glyph unicode="L" horiz-adv-x="1495" d="M-4 -106q82 -76 219 -76h10q202 6 342 164l25 -25q-140 -158 -342 -164h-16q-72 0 -130 25q-66 28 -108 76zM80 104q0 45 36 80t99 35q87 0 199 -104q0 -2 -2 -2q-97 82 -172 82q-63 0 -99.5 -35t-36.5 -80q0 -39 21 -66q-45 36 -45 90zM422 1069q0 67 23.5 127.5 t59 100.5t62.5 63t49 35l25 -25q-22 -12 -49 -35t-63 -63t-59.5 -100.5t-23.5 -127.5q0 -115 89 -213q-113 107 -113 238zM674 135q70 129 180 416h15q398 0 667 260q125 122 188.5 267t63.5 272q0 135 -82 229q53 -47 79.5 -114.5t26.5 -139.5q0 -128 -63 -272.5 t-188 -266.5q-269 -260 -667 -260h-15q-107 -278 -181 -413zM918 719q281 745 532 745q66 0 94 -45q-27 21 -69 21q-247 0 -523 -719q-6 0 -17 -1t-17 -1zM993 -412q206 -161 375 -161q192 0 399 192l25 -25q-207 -192 -399 -192q-168 0 -375 162z" />
<glyph unicode="M" horiz-adv-x="2007" d="M150 598q94 -84 231 -84v156q8 -2 25 -2v-179q-159 0 -256 109zM217 870q0 62 33 116t81.5 91.5t124 76t139.5 62.5t151 57.5t137 55.5l-17 -43q-41 -17 -114.5 -44.5t-123 -47t-115 -48.5t-108.5 -58t-83 -66t-60 -81t-20 -95q0 -73 39 -121q-64 48 -64 145zM348 -88 l10 25h181l483 1202q73 81 161.5 133.5t149.5 52.5q44 0 58 -31q-12 6 -33 6q-61 0 -149.5 -52.5t-161.5 -133.5l-484 -1202h-215zM899 -88l10 25h181l483 1202q73 81 161.5 133.5t149.5 52.5q44 0 58 -31q-12 6 -33 6q-61 0 -150 -52.5t-162 -133.5l-483 -1202h-215z M1528 -397q42 -40 125 -82l71 178l27 -18l-74 -185q-94 46 -149 107zM1587 1460q50 -40 58 -100l-23 -23q1 9 1 18q0 61 -36 105zM1630 -166q-1 10 -2 21q0 50 25 112l442 1098q78 196 78 285q0 69 -37 112q62 -49 62 -137q0 -89 -78 -285l-443 -1097q-23 -62 -24 -112 q0 -58 33 -97q-50 42 -56 100z" />
<glyph unicode="N" horiz-adv-x="1519" d="M150 598q94 -84 231 -84v156q8 -2 25 -2v-179q-159 0 -256 109zM217 870q0 47 19 89.5t49 75.5t77 65t93 55t107 48t109 41.5t109.5 38.5t98.5 36l-17 -41q-27 -10 -77 -27.5t-83.5 -29t-82.5 -30.5t-83 -34t-76.5 -37t-71.5 -42.5t-58.5 -47.5t-47.5 -54.5t-29 -60.5 t-11 -69q0 -73 39 -121q-64 48 -64 145zM348 -88l10 25h181l442 1101q90 100 225.5 193.5t202.5 93.5q34 0 45 -29q-12 4 -20 4q-67 0 -202.5 -93t-225.5 -193l-443 -1102h-215zM1042 -397q42 -40 125 -82l72 178l27 -18l-74 -185q-96 47 -150 107zM1144 -166q-1 10 -2 21 q0 50 25 112l441 1098q80 193 80 285q0 67 -37 114q61 -48 61 -139q0 -92 -80 -285l-440 -1097q-25 -62 -25 -113q0 -55 33 -96q-50 42 -56 100z" />
<glyph unicode="O" horiz-adv-x="1406" d="M176 -135q99 -86 250 -86q177 0 337.5 123.5t291.5 333.5q53 -14 107 -14q86 0 174 36q144 59 225 193q6 0 13.5 -7.5t10.5 -17.5q-81 -134 -225 -193q-88 -36 -174 -36q-54 0 -107 14q-132 -210 -291.5 -333.5t-336.5 -123.5q-175 0 -275 111zM240 225q0 200 114 504.5 t246 470.5l-12 -74q-124 -183 -224 -461.5t-100 -463.5q0 -141 60 -215q-84 68 -84 239zM750 954q0 136 33.5 251.5t93 184t131.5 68.5q70 0 112 -53q-36 29 -88 29q-72 0 -131.5 -68.5t-93 -184t-33.5 -251.5q0 -150 42.5 -276t119.5 -210q-88 82 -137 215t-49 295z M1122 350q117 218 182.5 454.5t65.5 436.5q0 209 -102 326q127 -114 127 -350q0 -196 -63.5 -428.5t-176.5 -446.5z" />
<glyph unicode="P" horiz-adv-x="1331" d="M125 -88l10 25h180l236 585q160 -77 303 -77q31 0 61 4q169 20 293 114.5t195.5 240t71.5 302.5q0 236 -158 403q182 -176 182 -428q0 -157 -71.5 -302.5t-195.5 -239.5t-293 -114q-30 -4 -61 -4q-143 0 -303 77l-235 -586h-215zM125 690l137 103q-5 10 -13.5 27.5 t-22 68t-13.5 96.5q0 69 25 144.5t76.5 149t121.5 132t168.5 95t208.5 36.5q213 0 344 -141q-127 117 -319 117q-110 0 -208.5 -36.5t-168.5 -95t-121.5 -132t-76.5 -149t-25 -144.5q0 -46 12 -94.5t24 -73.5l13 -25l-146 -109q-8 11 -16 31zM606 659l174 428 q20 47 45.5 85.5t48.5 60t43 36.5t32 20l12 5l-31 105h16l39 -129q-4 -2 -12 -5.5t-31 -19t-44 -36.5t-47 -60t-46 -86l-170 -416q-6 1 -16.5 6t-12.5 6z" />
<glyph unicode="Q" horiz-adv-x="1351" d="M53 -137q95 -82 260 -82q205 0 400 131l24 -25q-195 -131 -399 -131q-192 0 -285 107zM139 66q0 46 39 78t107 32q130 0 286 -139l-2 -2q-140 117 -260 117q-68 0 -106.5 -32t-38.5 -79q0 -31 18 -55q-43 32 -43 80zM246 532q88 -82 250 -100l45 141l30 -6l-51 -159 q-182 18 -274 124zM326 844q0 96 44.5 208t117.5 209.5t178.5 162.5t216.5 65q124 0 198 -84q-69 59 -174 59q-111 0 -216.5 -65t-178.5 -162.5t-117.5 -209.5t-44.5 -208q0 -110 49 -168q-73 60 -73 193zM862 29q224 211 366 527t142 581q0 256 -131 401q84 -77 120 -190 t36 -236q0 -265 -142 -581t-366 -527zM1112 -449q213 -161 375 -161q194 0 399 190l25 -24q-206 -191 -400 -191q-89 0 -179.5 41.5t-194.5 120.5z" />
<glyph unicode="R" horiz-adv-x="1320" d="M125 -88l10 25h180l275 677q82 -39 166 -61q47 -29 73 -59q-22 19 -49 34q-79 21 -166 62l-274 -678h-215zM125 690l137 103q-5 10 -13.5 27.5t-22 68t-13.5 96.5q0 69 25.5 144.5t77 149t122 132t170.5 95t211 36.5q228 0 357 -139q-128 115 -332 115q-111 0 -211 -36.5 t-170.5 -95t-122 -132t-77 -149t-25.5 -144.5q0 -46 12 -94.5t24 -73.5l13 -25l-146 -109q-8 11 -16 31zM643 748l137 339q20 47 45.5 85.5t48.5 60t43 36.5t32 20l12 5l-31 105h16l39 -129q-4 -2 -12 -5.5t-31 -19t-44 -36.5t-47 -60t-46 -86l-133 -330zM899 -547 q75 -65 192 -66q22 0 46 3v149h24v-174q-22 -2 -43 -2q-141 0 -219 90zM967 535q114 11 210.5 65.5t161 137.5t100.5 188t36 217q0 219 -142 370q166 -156 166 -395q0 -150 -60.5 -282t-177 -221.5t-266.5 -104.5zM1004 -231l63 352q12 73 15 130v19q0 50 -12 108 q-16 70 -56 116q40 -36 63 -84.5t27 -104.5q3 -32 3 -60q1 -23 -1 -44q-4 -48 -14 -105l-64 -352q-4 -34 -4 -62q0 -66 20 -98q-32 20 -40 64q-4 22 -4 54q0 30 4 67z" />
<glyph unicode="S" horiz-adv-x="1327" d="M-25 -522h129q-7 43 -7 85q0 175 126 343q165 -127 391 -127q270 0 440.5 178.5t170.5 464.5q0 130 -49 424q8 8 25 24q168 162 232 243q134 167 134 312q0 111 -64 187q88 -79 88 -211q0 -94 -61 -200t-118.5 -168t-189.5 -190l-7.5 -7.5l-7 -7l-7.5 -7.5 q49 -294 49 -424q0 -286 -170.5 -464.5t-439.5 -178.5q-226 0 -391 127q-126 -168 -126 -343q0 -42 7 -85h-149zM186 379q0 97 39.5 179.5t107 131.5t156.5 62q21 3 43 3q70 0 146 -32l61 149l29 -14l-66 -160q-76 32 -146 32q-22 0 -43 -3q-89 -13 -156 -62t-106.5 -131.5 t-39.5 -179.5q0 -100 41 -184l-8 -8q-58 99 -58 217zM350 49l647 625l7 -43l-625 -602zM1130 1237q0 136 49.5 211.5t120.5 75.5q53 0 80 -41q-26 16 -55 16q-71 0 -120.5 -75.5t-49.5 -211.5q0 -61 10 -159l-18 -19q-17 129 -17 203z" />
<glyph unicode="T" horiz-adv-x="1261" d="M170 -2q121 -111 301 -111q58 0 115 12t123.5 45t125.5 84.5t117.5 138t102.5 198.5l399 983q188 -29 307 -29q78 0 140 14t97 33t59.5 45t33 42.5t12.5 31.5l27 -15q0 -4 -1.5 -10t-10 -24.5t-21.5 -35t-39.5 -37t-61 -35t-89.5 -24.5t-121 -10q-118 0 -307 29 l-400 -983q-44 -112 -102.5 -198.5t-117 -138t-125.5 -84t-123.5 -44.5t-114.5 -12q-201 0 -326 135zM215 301q0 45 16.5 88.5t47.5 80.5q31 38 83 58q42 16 92 16q12 0 25 -1v155h25v-180q-13 1 -25 1q-49 -1 -91 -17q-52 -20 -83.5 -57t-48 -80.5t-16.5 -88.5 q0 -87 55 -151q-39 33 -59.5 80t-20.5 96zM256 1063q99 -86 231 -86q45 0 86.5 10.5t69.5 25t49 29t31 24.5l10 11l25 -24q-4 -4 -10.5 -11t-30 -24.5t-50 -30.5t-68.5 -24t-87 -11q-76 0 -143 29t-113 82zM322 1309q0 36 12.5 68.5t40 63t80.5 48.5t125 18q55 0 140 -12.5 t154 -27t194 -41.5t187 -40l-8 -18q-42 9 -142.5 31.5t-151 33t-125 24.5t-128 20t-96.5 6q-72 0 -125 -18t-80.5 -49t-40 -63.5t-12.5 -68.5q0 -63 35 -104q-59 46 -59 129z" />
<glyph unicode="U" horiz-adv-x="1675" d="M150 492q94 -84 231 -84v155q8 -2 25 -2v-178q-159 0 -256 109zM217 764q0 60 31 113t75 89t114 73t125 58t133 50.5t114 44.5l-16 -41q-25 -10 -74 -28.5t-82 -31t-81 -32.5t-81 -38t-72.5 -41.5t-65.5 -49t-49.5 -55t-34.5 -64t-11 -72.5q0 -73 39 -121q-64 48 -64 146 zM508 -68q58 -47 143 -47q202 0 443 297q-2 -20 -2 -57q-230 -264 -416 -264q-108 0 -168 71zM642 202q8 64 46 156l356 883q21 49 47 89t49 61.5t42.5 36.5t31.5 20l11 4l-31 104h16l39 -129q-4 -1 -11.5 -4.5t-30 -19t-43.5 -36.5t-47.5 -61t-47.5 -89l-356 -883 q-50 -124 -50 -194q0 -36 13 -58q-22 10 -32 33q-6 13 -5 39q0 21 3 48zM1157 -25q49 -38 123 -38t149 40.5t145 115.5t131 161.5t124 196.5q6 -2 13.5 -9t10.5 -16q-50 -87 -97.5 -158.5t-103.5 -139.5t-110.5 -114t-115.5 -74t-121 -28q-99 0 -148 63zM1321 90 q-30 10 -30 58q0 58 44 171l443 1106h34l-452 -1130q-44 -113 -43 -172q-1 -19 4 -33z" />
<glyph unicode="V" horiz-adv-x="1574" d="M150 537q94 -84 231 -84v155q8 -2 25 -2v-178q-159 0 -256 109zM217 809q0 62 33 116.5t81 92t119.5 74.5t131.5 59t135.5 50.5t113.5 45.5l-8 -39q-31 -13 -84.5 -33t-95 -35t-95.5 -38.5t-94.5 -45.5t-82 -52.5t-68.5 -62t-44 -72t-17 -85.5q0 -72 39 -120 q-64 48 -64 145zM567 -88l6 25h177q149 85 277.5 186.5t223.5 200.5t174.5 213t132.5 213t95.5 213t66.5 200.5t42 187.5t25 161.5t13 134.5l27 4q-8 -102 -16.5 -175t-38.5 -219t-72 -262.5t-122.5 -274t-184.5 -287.5t-264 -270t-355 -251h-207zM801 180l246 1114 q12 50 35 89.5t47 60t46.5 33.5t36.5 17l15 3l-31 105h16l39 -129q-6 -1 -15.5 -3.5t-35 -16.5t-48 -33.5t-46 -59.5t-35.5 -90l-235 -1063z" />
<glyph unicode="W" horiz-adv-x="1941" d="M150 537q94 -84 231 -84v155q8 -2 25 -2v-178q-159 0 -256 109zM217 809q0 60 31 113t75 89t114 73t125 58t133 50.5t114 44.5l-16 -41q-25 -10 -74 -28.5t-82 -31t-81 -32.5t-81 -38t-72.5 -41.5t-65.5 -49t-49.5 -55t-34.5 -64t-11 -72.5q0 -72 39 -120q-64 48 -64 145 zM487 -66q58 -47 156 -47q88 0 176.5 46t165.5 124q4 -26 8 -39q-73 -72 -157.5 -113.5t-167.5 -41.5q-124 0 -181 71zM645 59q-36 17 -36 74q0 67 50 189q32 87 385 964q20 48 46.5 87.5t49.5 61.5t43 37t32 20l12 5l-31 105h16l39 -129q-4 -2 -12 -5.5t-31 -19.5 t-44 -37.5t-48 -61t-47 -87.5l-385 -965q-49 -121 -49 -188q0 -31 10 -50zM1051 -66q56 -47 153 -47q94 0 180 40.5t149 101.5t122 150t97.5 167t76.5 172l319 791q35 83 76 121q40 38 84 39h18q37 0 82 -3l31 133q9 0 29 -4l-35 -153q-30 4 -58 4h-19q-36 -2 -66.5 -13.5 t-60 -48t-56.5 -100.5l-320 -790q-38 -94 -76 -172t-97.5 -167t-122.5 -150t-148.5 -101.5t-179.5 -40.5q-120 0 -178 71zM1188 59q-34 16 -34 70q0 67 52 193l443 1103h34l-452 -1128q-51 -125 -51 -193q0 -27 8 -45z" />
<glyph unicode="X" horiz-adv-x="1499" d="M61 -283q103 -90 254 -90q47 0 94.5 11.5t87.5 28t83 46t74 53.5t68.5 63t59 63t52.5 64t42.5 55.5t34.5 47.5l138 195l4 -55l-117 -164q-23 -32 -34.5 -47.5t-42.5 -55.5t-52.5 -64t-59 -63t-68.5 -63t-74 -53.5t-83 -46t-87.5 -28t-94.5 -11.5q-179 0 -279 114z M133 -33q0 87 66 143t153 56v147h25v-172q-87 0 -153 -55.5t-66 -142.5q0 -63 30 -101q-55 44 -55 125zM289 598q94 -84 231 -84v156q8 -2 25 -2v-179q-159 0 -256 109zM356 868q0 62 33.5 117t82.5 93.5t122.5 76t134 60t138 51.5t114.5 45l2 -35q-30 -12 -85 -32 t-97.5 -35.5t-99 -40t-98.5 -46.5t-86 -53.5t-72 -63.5t-46 -74t-18 -87q0 -71 39 -119q-64 48 -64 143zM1178 1305v13q0 42 17 82q20 46 53.5 77.5t61.5 50.5t54 31l-31 104h17l39 -129q-26 -12 -54.5 -31t-62.5 -51q-33 -30 -53 -76q-17 -40 -17 -83v-13l27 -432l-21 -31z M1206 -565q76 -69 181 -69q57 0 122 20l-30 157q6 0 18 4l37 -186q-58 -18 -115 -19h-5q-56 0 -110 22q-58 23 -98 71zM1229 506l643 907q28 38 53 63.5t51 37.5t45.5 17.5t48 1t45.5 -9.5t50 -16l63 129l31 -12l-70 -141q-33 11 -50 16t-45.5 9.5t-48 -1t-45.5 -17.5 t-51 -37.5t-53 -63.5l-643 -908l47 -757q6 -100 41 -144q-57 40 -65 168z" />
<glyph unicode="Y" horiz-adv-x="1615" d="M147 492q94 -84 232 -84v155q8 -2 24 -2v-178q-159 0 -256 109zM215 762q0 52 21 97.5t61.5 82.5t85 66.5t107 57.5t110.5 46.5t113 42t98 37.5l-16 -41q-21 -8 -74.5 -27.5t-83 -31t-81 -33t-82.5 -38.5t-72.5 -42t-66.5 -50t-49 -55t-35 -64.5t-11 -72.5q0 -71 39 -119 q-64 48 -64 144zM510 -72q51 -43 129 -43q93 0 199.5 66.5t208.5 179.5l-35 -86q-191 -184 -348 -184q-96 0 -154 67zM563 -596q56 -47 148 -47q51 0 96 15t80.5 41t67.5 63t56.5 77.5t48 90t41.5 94t38 95.5q3 9 5 14.5t5 13.5t6 14q111 53 213.5 126.5t211 191 t189.5 258.5q6 0 14 -7.5t11 -17.5q-81 -141 -189.5 -258.5t-211 -191t-213.5 -126.5q-74 -188 -103 -248q-101 -202 -236 -252q-50 -18 -106 -18q-113 0 -172 72zM623 -440q0 36 29.5 69.5t70.5 57.5q49 26 178 84l-18 -45q-93 -41 -135 -64q-41 -24 -71 -57.5t-30 -69.5 q0 -8 4 -20q-28 14 -28 45zM672 80q-35 16 -35 74q0 71 53 204l354 883q21 49 47.5 89t49.5 61.5t43 36.5t32 20l11 4l-31 104h16l39 -129q-4 -1 -12 -4.5t-30.5 -19t-43.5 -36.5t-48 -61t-48 -89l-354 -883q-52 -130 -52 -203q0 -31 9 -51zM1225 45l555 1380h35l-545 -1353 z" />
<glyph unicode="Z" horiz-adv-x="1228" d="M-25 -104q92 -78 217 -78h9q100 1 184 40.5t170 116.5l25 -24q-86 -78 -170.5 -117.5t-184.5 -40.5h-8q-150 0 -242 103zM59 104q0 47 36 83t89 36q96 0 224 -121l-2 -2q-111 99 -197 99q-53 0 -89 -36t-36 -83q0 -37 22 -68q-47 35 -47 92zM430 1004q94 -84 234 -84 q45 0 86.5 10.5t69 25t49 29t31.5 25.5l9 10l25 -25q-4 -4 -10.5 -11t-30 -24t-50 -30t-68.5 -24t-87 -11q-160 0 -258 109zM498 1251q0 38 14 73.5t42 66.5t77 50t112 19q81 0 303.5 -52t333.5 -56l-16 -23q-99 9 -307 58t-289 49q-122 0 -184 -63.5t-62 -145.5 q0 -64 35 -105q-59 46 -59 129zM682 111q62 74 166 211l772 1017q61 79 95.5 107.5t84.5 50.5l-31 105h17l39 -129q-34 -15 -53.5 -27t-52 -44t-74.5 -87l-773 -1018q-114 -150 -165 -211zM973 -412q211 -161 375 -161q192 0 399 192l25 -25q-207 -192 -400 -192 q-163 0 -375 162z" />
<glyph unicode="[" horiz-adv-x="788" d="M-147 -381l10 25h403l56 135h34l-65 -160h-438zM109 -197l725 1794h221l55 136h35l-66 -160h-221l-715 -1770h-34z" />
<glyph unicode="\" horiz-adv-x="757" d="M297 1651h20l256 -1966h-112l-4 24h92z" />
<glyph unicode="]" horiz-adv-x="786" d="M-63 -381l10 25h403l844 2089h35l-854 -2114h-438zM725 1573l10 24h189l-11 -24h-188z" />
<glyph unicode="^" horiz-adv-x="1005" d="M61 559l21 25h197l479 590v-56l-455 -559h-242zM782 559v25h160v823h25v-848h-185z" />
<glyph unicode="_" horiz-adv-x="1085" d="M-152 -291l11 25h1052l39 96h35l-49 -121h-1088z" />
<glyph unicode="`" horiz-adv-x="757" d="M565 1151h156l24 -25h-155z" />
<glyph unicode="a" d="M68 -25q47 -38 120 -38q46 0 93 17t81 41t61 47.5t41 40.5l13 17q0 -20 8 -45q-28 -30 -60 -57.5t-92.5 -56.5t-119.5 -29q-92 0 -145 63zM197 199q0 49 19.5 131.5t56 175t81.5 174.5t102.5 136t112.5 54q43 0 72 -36q-18 12 -47 12q-68 0 -139 -82t-120.5 -193.5 t-81.5 -222.5t-32 -174q0 -30 10 -53q-34 18 -34 78zM539 -27q49 -36 125 -36t152 40.5t146 115.5t130 160.5t125 197.5q17 0 24 -25q-65 -112 -125 -197.5t-130 -160.5t-146 -115.5t-152 -40.5q-99 0 -149 61zM705 76q-30 11 -30 60q0 66 54 200l260 643l43 22l-278 -690 q-54 -133 -53 -200q-1 -21 4 -35z" />
<glyph unicode="b" horiz-adv-x="978" d="M88 -10q62 -53 172 -53q205 0 356 186q103 1 184.5 25.5t142.5 72.5t103.5 101t86.5 129q5 0 13 -7.5t11 -17.5q-35 -60 -67 -104.5t-78 -88.5t-97 -71.5t-121 -45t-153 -18.5q-151 -186 -356 -186q-131 0 -197 78zM233 90q-41 23 -41 99.5t41 207.5q6 -24 19 -47 q-36 -113 -36 -183q0 -49 17 -77zM322 539q0 81 28.5 148t70 105t82 58t70.5 20q60 0 80 -36q-21 12 -55 12q-24 0 -55 -12t-66 -39t-64 -64t-48 -94t-19 -123q0 -119 70 -199q-94 83 -94 224zM444 940l189 467h35l-170 -422zM696 238q95 165 139 323.5t44 259.5 q0 105 -48 168q72 -60 72 -192q0 -97 -39.5 -247t-126.5 -306q-1 0 -41 -6z" />
<glyph unicode="c" horiz-adv-x="878" d="M104 6q81 -69 228 -69q95 0 185 30.5t162.5 79t140 117.5t117 138.5t95.5 148.5q6 0 14 -7.5t11 -17.5q-58 -101 -124.5 -185.5t-154 -162t-196.5 -122t-226 -44.5q-170 0 -252 94zM209 231q0 61 31 167t80.5 214t122 186.5t143.5 78.5q39 0 47 -27q-6 2 -23 2 q-71 0 -143.5 -78.5t-122 -186t-80.5 -213.5t-31 -167q0 -57 31 -96q-55 42 -55 120zM569 559l13 25h176q46 85 62 161q10 46 10 86q0 25 -4 47q-10 58 -46 99q70 -58 73 -164q0 -4 1 -8q0 -103 -72 -246h-213z" />
<glyph unicode="d" d="M68 -25q47 -38 120 -38q46 0 93 17t81 41t61 47.5t41 40.5l13 17q0 -20 8 -45q-28 -30 -60 -57.5t-92.5 -56.5t-119.5 -29q-92 0 -145 63zM197 199q0 49 19.5 131.5t56 175t81.5 174.5t102.5 136t112.5 54q43 0 72 -36q-18 12 -47 12q-68 0 -139 -82t-120.5 -193.5 t-81.5 -222.5t-32 -174q0 -30 10 -53q-34 18 -34 78zM539 -27q49 -36 125 -36t152 40.5t146 115.5t130 160.5t125 197.5q18 -4 24 -25q-65 -112 -125 -197.5t-130 -160.5t-146 -115.5t-152 -40.5q-99 0 -149 61zM705 76q-30 10 -30 59q0 66 54 201l432 1071h35l-442 -1096 q-54 -133 -54 -200q0 -21 5 -35z" />
<glyph unicode="e" horiz-adv-x="878" d="M104 6q81 -69 228 -69q95 0 185 30.5t162.5 79t140 117.5t117 138.5t95.5 148.5q19 -4 25 -25q-58 -101 -124.5 -185.5t-154 -162t-196.5 -122t-226 -44.5q-170 0 -252 94zM211 236q1 37 7 71t13 55l7 21q61 -7 115 -7q129 0 221 39q130 55 208 216q51 109 51 195 q0 91 -51 149q65 -55 74 -149q1 -13 2 -25q0 -85 -51 -195q-77 -161 -208 -216q-92 -39 -222 -39q-54 0 -115 7q-3 -7 -6.5 -18.5t-11 -44.5t-9.5 -63v-14q0 -24 5 -52q7 -36 26 -62q-28 22 -42 58q-13 34 -13 69v5zM274 500q5 15 15 40.5t42.5 90.5t66.5 115t85 90.5 t101 40.5q43 0 55 -31q-12 6 -31 6q-44 0 -88 -30.5t-76 -71.5t-62.5 -95.5t-46.5 -90.5t-28 -68q-13 0 -33 4z" />
<glyph unicode="f" horiz-adv-x="790" d="M-262 -645q43 -35 119 -35q93 0 161.5 55.5t126.5 157.5q100 183 136 387q4 27 5 57t0 46l-1 16q22 -1 43 -1q388 0 616 413q6 0 14 -7.5t11 -17.5q-228 -413 -617 -413q-21 0 -43 1q2 -21 2 -43q0 -37 -6 -75q-37 -208 -135 -388q-58 -102 -127 -157.5t-162 -55.5 q-95 0 -143 60zM-109 -434l215 528q30 -10 44 -33q-8 5 -19 9l-215 -529q-18 -50 -18 -78h-4q-21 3 -21 31q0 25 18 72zM156 217l47 115q74 2 131 15.5t98 34.5t77.5 59.5t63.5 79t62 104.5q73 133 148.5 308t113.5 296q29 92 29 163q0 86 -43 140q53 -42 64 -126 q3 -19 3 -41q0 -70 -28 -161q-38 -120 -113.5 -295t-149.5 -309q-35 -64 -62 -104.5t-63.5 -79t-77.5 -59.5t-98 -34.5t-131 -15.5l-45 -110q-15 9 -26 20zM250 449l280 690q52 128 102.5 205t104.5 77q24 0 31 -24h-6q-54 0 -104.5 -77t-102.5 -206l-268 -657q-8 -3 -37 -8 z" />
<glyph unicode="g" horiz-adv-x="1042" d="M-55 -592q54 -45 147 -45q59 0 111 20.5t90 52t73.5 82t60 97.5t52.5 111l60 145q56 26 86.5 41.5t89 48t97.5 60.5t95.5 74.5t100.5 95.5t94 116t94 144q19 -4 25 -25q-44 -77 -94 -144t-94 -116t-101 -95.5t-96 -74.5t-98 -61t-89 -47.5t-86 -41.5q-26 -69 -59 -145 q-28 -64 -52.5 -111t-60 -97.5t-73.5 -82t-90 -52t-111 -20.5q-115 0 -172 70zM4 -436q0 58 102 123q20 12 44.5 24t40.5 19t48 19.5t44 17.5q-2 -4 -8 -19t-9 -22q-78 -30 -135 -64q-102 -65 -102 -123q0 -10 4 -22q-29 13 -29 47zM70 -25q44 -38 112 -38q40 0 78 14.5 t63.5 35.5t45.5 41.5t29 35.5l10 14l-41 -101q-73 -65 -160 -65t-137 63zM197 199q0 49 19.5 131.5t56 175t81.5 174.5t102.5 136t112.5 54q43 0 72 -36q-18 12 -47 12q-68 0 -139 -82t-120.5 -193.5t-81.5 -222.5t-32 -174q0 -30 10 -53q-34 18 -34 78zM600 23l389 956 l43 22l-389 -956z" />
<glyph unicode="h" horiz-adv-x="1030" d="M-135 -61l10 24h180l307 758q65 73 134 113t114 40q44 0 56 -30q-15 6 -31 6q-45 0 -114 -40.5t-134 -113.5l-307 -757h-215zM442 918l197 489h35l-178 -444zM504 -27q44 -36 129 -36q74 0 148 39t144 112.5t131.5 160.5t127.5 202q18 -5 24 -25q-66 -115 -127.5 -202 t-131.5 -160.5t-144 -112.5t-148 -39q-106 0 -153 61zM672 76q-31 10 -31 59q0 66 55 201l125 307q68 168 68 252q0 55 -31 98q55 -42 55 -123q0 -87 -67 -252l-125 -307q-54 -135 -54 -201q0 -20 5 -34z" />
<glyph unicode="i" horiz-adv-x="540" d="M14 -27q44 -36 129 -36q74 0 148 39t144 112.5t131.5 160.5t127.5 202q19 -3 25 -25q-66 -115 -127.5 -202t-131.5 -160.5t-144 -112.5t-148 -39q-107 0 -154 61zM182 76q-30 10 -30 59q0 66 55 201l268 665h35l-279 -690q-54 -133 -55 -200q1 -21 6 -35zM397 1182 q31 -25 74 -25q53 0 90 37.5t37 89.5q0 38 -25 74q50 -40 50 -98q0 -52 -37.5 -89.5t-89.5 -37.5q-63 0 -99 49z" />
<glyph unicode="j" horiz-adv-x="583" d="M-514 -592q54 -45 147 -45q59 0 111 20.5t90 52t73.5 82t60 97.5t52.5 111l60 145q58 27 86.5 41.5t88.5 47.5t98 60.5t95 74t101 95.5t94 116.5t94 144.5q19 -4 25 -25q-34 -60 -72.5 -115t-73 -97.5t-77.5 -83.5t-75 -69t-78 -58.5t-73 -48t-74.5 -42t-68.5 -34.5 t-66 -32q-41 -100 -59 -145q-28 -64 -52.5 -111t-60 -97.5t-73.5 -82t-90 -52t-111 -20.5q-115 0 -172 70zM-455 -436q0 58 103 123q20 12 45 24.5t39.5 18.5t48 19.5t43.5 17.5q-2 -4 -8 -19t-9 -22q-78 -30 -135 -64q-102 -65 -102 -123q0 -10 4 -22q-29 13 -29 47z M141 23l398 978h34l-389 -956zM461 1184q34 -27 76 -27q52 0 88.5 37t36.5 90q0 40 -25 76q49 -36 49 -100q0 -53 -36.5 -90t-88.5 -37q-62 0 -100 51z" />
<glyph unicode="k" horiz-adv-x="978" d="M-135 -61l10 24h180l307 762q65 71 133 110t113 39t54 -30q-12 6 -29 6q-44 0 -112.5 -39.5t-133.5 -110.5l-307 -761h-215zM367 -16q57 -47 135 -47q82 0 177.5 50t180 128t156 165.5t117.5 170.5q18 -4 24 -25q-46 -83 -117.5 -170.5t-156 -165.5t-180 -128t-177.5 -50 q-97 0 -159 72zM442 918l197 489h35l-178 -444zM457 340q220 20 334 246q98 204 98 311q0 57 -31 96q55 -42 55 -121q0 -107 -98 -311q-114 -226 -334 -246q-1 -30 -1 -57q0 -123 30 -172q-55 34 -55 189q0 30 2 65z" />
<glyph unicode="l" horiz-adv-x="540" d="M14 -27q44 -36 129 -36q74 0 148 39t144 112.5t131.5 160.5t127.5 202q20 -7 25 -25q-66 -115 -127.5 -202t-131.5 -160.5t-144 -112.5t-148 -39q-107 0 -154 61zM182 76q-30 10 -30 59q0 66 55 201l432 1071h35l-443 -1096q-54 -133 -55 -200q1 -21 6 -35z" />
<glyph unicode="m" horiz-adv-x="1515" d="M-133 -61l10 24h180l308 762q64 71 131 110t112 39q44 0 56 -30q-15 6 -31 6q-45 0 -112.5 -39.5t-131.5 -110.5l-307 -761h-215zM352 -61q4 8 10 24h181l309 762q62 70 130.5 109.5t113.5 39.5q43 0 55 -30q-15 6 -31 6q-45 0 -113 -39.5t-130 -110.5l-310 -761h-215z M989 -27q44 -36 129 -36q74 0 148 39t144 112.5t131.5 160.5t127.5 202q19 -3 25 -25q-66 -115 -127.5 -202t-131.5 -160.5t-144 -112.5t-148 -39q-107 0 -154 61zM1157 76q-31 10 -31 58q0 66 56 202l125 307q67 163 67 250q0 57 -31 100q56 -42 56 -125q0 -84 -68 -250 l-125 -307q-54 -135 -55 -201q1 -20 6 -34z" />
<glyph unicode="n" horiz-adv-x="1028" d="M-133 -61l10 24h180l308 762q64 71 131 110t112 39q44 0 56 -30q-15 6 -31 6q-45 0 -112.5 -39.5t-131.5 -110.5l-307 -761h-215zM502 -27q44 -36 129 -36q74 0 148 39t144 112.5t131.5 160.5t127.5 202q17 0 24 -25q-66 -115 -127.5 -202t-131.5 -160.5t-144 -112.5 t-148 -39q-106 0 -153 61zM670 76q-31 10 -31 59q0 66 55 201l125 307q68 172 68 252q0 57 -31 100q55 -45 55 -125q0 -82 -67 -252l-125 -307q-54 -135 -54 -201q0 -20 5 -34z" />
<glyph unicode="o" horiz-adv-x="1005" d="M100 -4q68 -59 179 -59q209 0 370 221q48 -12 93 -12q98 0 188 55q132 81 229 250q19 -5 25 -25q-97 -169 -229 -250q-90 -55 -188 -55q-46 0 -93 12q-161 -221 -371 -221q-134 0 -203 84zM201 207q0 72 35.5 190t89 231.5t125 196t135.5 82.5q43 0 63 -35q-18 11 -39 11 q-64 0 -135.5 -82.5t-125 -196.5t-89 -232t-35.5 -190q0 -55 23 -88q-47 27 -47 113zM723 276q64 121 100.5 255t36.5 233q0 130 -65 205q90 -77 90 -230q0 -95 -33.5 -222t-93.5 -245q-11 0 -35 4z" />
<glyph unicode="p" horiz-adv-x="976" d="M-299 -467l10 25h180l463 1144q57 78 119 125t113 47q38 0 53 -30q-12 6 -29 6q-51 0 -112.5 -46.5t-118.5 -125.5l-463 -1145h-215zM174 14q85 -77 244 -77q111 0 217.5 41t196 113.5t163.5 162.5t135 197q19 -5 25 -25q-61 -107 -135 -197t-163.5 -162.5t-196.5 -113.5 t-218 -41q-106 0 -171 31t-97 71zM539 55q57 51 129 172.5t129 284t57 289.5q0 125 -55 192q80 -65 80 -217q0 -165 -86 -369t-183 -325q-62 -25 -71 -27z" />
<glyph unicode="q" horiz-adv-x="1058" d="M68 -27q45 -36 116 -36q104 0 199 71l-23 -55q-74 -41 -151 -41q-92 0 -141 61zM207 279q14 72 47.5 167.5t79.5 193t107.5 164t119.5 66.5q50 0 82 -43q-25 19 -57 19q-58 0 -119.5 -66.5t-108 -164.5t-80 -193.5t-47.5 -167.5q-9 -46 -9 -79t9 -54q-32 14 -32 79 q0 33 8 79zM266 -643q49 -37 125 -37q244 0 367 422q21 71 21 129q0 64 -25 113q130 38 242.5 162t215.5 305q19 -5 25 -25q-228 -400 -459 -467q25 -49 25 -113q0 -58 -21 -129q-123 -422 -366 -422q-102 0 -150 62zM414 -434l164 403q33 -10 51 -37l-27 13l-164 -404 q-16 -47 -16 -72v-8q-1 0 -3 1t-3 1q-19 6 -19 33q0 26 17 70zM629 92l360 887l43 22l-370 -913q-13 0 -33 4z" />
<glyph unicode="r" horiz-adv-x="808" d="M154 451q85 148 182 360l24 -25q-97 -212 -182 -360q-21 4 -24 25zM336 -27q41 -36 121 -36q57 0 113.5 29t102.5 71.5t100.5 117t94 137t95.5 159.5q6 0 13.5 -7.5t10.5 -17.5q-56 -97 -95.5 -159.5t-94 -137t-100.5 -117t-102.5 -71.5t-113.5 -29q-98 0 -145 61z M399 967l76 176l27 -19l-78 -180zM476 101q-4 9 -4 26q0 21 6 55q10 60 48 154l92 227q25 63 25 105q0 73 -61 137q86 -86 86 -162q0 -41 -25 -104l-92 -228q-54 -135 -55 -201q0 -20 6 -34q-18 5 -26 25z" />
<glyph unicode="s" horiz-adv-x="749" d="M20 18q93 -81 236 -81q69 0 132.5 15.5t114.5 40t100.5 65t86 80t78 97.5t69.5 104t66 112q19 -5 25 -25q-38 -66 -66 -112t-69.5 -104t-78 -97.5t-86 -80t-100.5 -65t-114.5 -40t-132.5 -15.5q-93 0 -159 32t-102 74zM154 451q85 151 163 303v-74q-79 -149 -139 -254 q-20 3 -24 25zM492 123q22 67 22 164q0 21 -6 121q-6 102 -8 184q-1 19 -1 39q1 71 7 164q8 121 31 219l28 -13q-25 -99 -35 -221q-8 -97 -7 -171q1 -19 1 -37q2 -84 8.5 -186.5t6.5 -123.5q0 -66 -11 -117q-24 -16 -36 -22z" />
<glyph unicode="t" horiz-adv-x="575" d="M14 -27q44 -36 136 -36q284 0 579 514q19 -5 25 -25q-295 -514 -580 -514q-113 0 -160 61zM106 1001l11 25h153l-10 -25h-154zM182 78q-30 10 -30 58q0 65 55 200l278 690h181l34 86h35l-45 -111h-180l-279 -690q-54 -134 -55 -199q1 -20 6 -34zM530 1137l109 270h35 l-109 -270h-35z" />
<glyph unicode="u" horiz-adv-x="1028" d="M14 -27q44 -36 125 -36t153.5 47t147.5 131q0 -24 6 -45q-72 -75 -139 -116.5t-143 -41.5q-105 0 -150 61zM178 96q-26 6 -26 47q0 60 55 193l268 665h35l-279 -690q-55 -135 -55 -194q0 -12 2 -21zM502 -25q46 -38 129 -38q60 0 122 28t116.5 74t111 114t104 139.5 t97.5 158.5q17 0 24 -25q-50 -87 -97.5 -158.5t-104 -139.5t-111 -114t-116.5 -74t-122 -28q-104 0 -153 63zM670 76q-30 11 -30 60q0 66 54 200l269 665h34l-278 -690q-54 -133 -53 -200q-1 -21 4 -35z" />
<glyph unicode="v" horiz-adv-x="915" d="M-33 -61l6 24h179q80 44 157 100.5t115 90.5l37 34q97 -42 183 -42q1 0 2 -1q84 -1 162 39t143 107t118 160q19 -5 25 -25q-52 -93 -117 -159.5t-143 -106.5q-78 -39 -164 -39q-1 1 -2 1q-87 0 -183 42q-14 -14 -40.5 -37.5t-107.5 -83.5t-161 -104h-209zM197 162 l182 839h31l-179 -813zM563 295q86 97 152.5 204.5t106 205.5t61.5 173t35 146l30 4q-12 -69 -31.5 -141t-57.5 -174.5t-105.5 -215t-155.5 -214.5q-21 3 -35 12z" />
<glyph unicode="w" horiz-adv-x="1447" d="M12 -27q44 -36 127 -36q146 0 303 182q0 -9 3.5 -26t3.5 -19q-148 -162 -285 -162q-102 0 -152 61zM154 158q2 24 15 70t38 108l268 665h35l-279 -690q-55 -139 -54 -199q0 -10 1 -18q-7 1 -12.5 5t-9.5 19q-3 10 -3 23q0 8 1 17zM508 -25q49 -38 129 -38q95 0 197 61 t198 182q80 -35 156 -35q82 0 159 41q148 78 255 265q6 0 13.5 -7.5t10.5 -17.5q-106 -186 -254 -264q-76 -40 -159 -41q-76 0 -156 35q-96 -121 -198 -182.5t-197 -61.5q-105 0 -154 63zM670 96q-28 6 -28 50q0 60 52 190l269 665h34l-278 -690q-52 -131 -52 -190 q0 -15 3 -25zM1114 295q179 286 279 729l30 4q-97 -455 -278 -745q-17 3 -31 12z" />
<glyph unicode="x" horiz-adv-x="1060" d="M8 -61l23 24h127l268 277q-4 -36 -4 -54l-240 -247h-174zM154 451q13 23 47 82.5t51.5 89.5t48.5 80.5t51.5 77.5t45.5 57.5t45.5 43.5t37.5 13q22 0 25 -25q-17 0 -37.5 -13t-46 -44t-45.5 -57t-51.5 -78t-48.5 -80t-52 -90t-47 -82q-18 3 -24 25zM498 -23 q49 -40 129 -40t162.5 42t158 116.5t141 162.5t125.5 193q6 0 14 -7.5t11 -17.5q-60 -105 -126 -193t-141 -162t-158 -116.5t-163 -42.5q-101 0 -153 65zM627 172q0 60 41 320l469 485l24 -25l-469 -485q-41 -260 -41 -320q0 -43 13 -69q-37 16 -37 94zM670 995 q67 -53 67 -182q0 -32 -4 -70l-33 -34q13 71 13 127q0 103 -43 159z" />
<glyph unicode="y" horiz-adv-x="1007" d="M-90 -592q54 -45 147 -45q59 0 111 20.5t90 52t73.5 82t60 97.5t52.5 111l60 145q58 27 86.5 41.5t88.5 47.5t98 60.5t95 74t101 95.5t94 116.5t94 144.5q19 -5 25 -25q-34 -60 -72.5 -115t-73 -97.5t-77.5 -83.5t-75 -69t-78 -58.5t-73 -48t-74.5 -42t-68.5 -34.5 t-66 -32q-26 -69 -59 -145q-28 -64 -52.5 -111t-60 -97.5t-73.5 -82t-90 -52t-111 -20.5q-115 0 -172 70zM-31 -436q0 58 103 123q20 12 45 24.5t39.5 18.5t48 19.5t43.5 17.5q-2 -4 -8 -19t-9 -22q-78 -30 -135 -64q-102 -65 -102 -123q0 -10 4 -22q-29 13 -29 47zM14 -29 q42 -34 119 -34q38 0 76 13t65.5 31.5t50 37t33.5 31.5l11 13l-33 -81q-91 -70 -178 -70q-99 0 -144 59zM178 96q-26 6 -26 47q0 60 55 193l268 665h35l-279 -690q-55 -135 -55 -194q0 -12 2 -21zM565 23l398 978h34l-389 -956z" />
<glyph unicode="z" horiz-adv-x="1013" d="M127 -35q61 51 109 66q26 8 49 8q20 0 38 -6q39 -13 74.5 -34t89 -41.5t111.5 -20.5q68 0 134 28.5t121 73.5t113 114.5t103.5 138.5t97.5 159q19 -3 25 -25q-52 -90 -97.5 -159t-103.5 -138.5t-113 -114.5t-121 -73.5t-134 -28.5q-58 0 -111.5 20.5t-89.5 41.5 q-34 22 -74 35q-18 6 -38 6q-24 -1 -50 -9q-48 -16 -110 -67zM154 451q126 220 144 248q63 98 119 126q36 17 83 17q54 0 138.5 -28.5t117.5 -29.5l-19 -18q-4 1 -84 26t-129 25q-87 0 -139 -59t-160 -250q-30 -53 -47 -82q-19 6 -24 25zM395 231l697 693l24 -25l-676 -672 q-28 4 -45 4z" />
<glyph unicode="{" horiz-adv-x="870" d="M59 -309q57 -47 170 -47h93l53 133h35l-64 -158h-92q-140 0 -195 72zM143 600l11 25h2q113 0 135 -45q-38 20 -111 20h-37zM211.5 -151.5q-3.5 25.5 5.5 53t31 75.5q95 218 196 433q69 150 2 233q103 -84 23 -258q-121 -257 -197 -432q-47 -107 -34 -141 q-23 11 -26.5 36.5zM381 690q1 0 18.5 3t27.5 6t32.5 11.5t39 19t40 30t42 44t39 60.5t37.5 80q15 37 67 194.5t77 221.5q19 49 38.5 85.5t49 74.5t71 58.5t91.5 20.5h59l53 134h35l-63 -158h-60q-50 0 -91.5 -20.5t-71 -59t-49 -75t-38.5 -85.5q-25 -64 -76.5 -221 t-66.5 -194q-23 -61 -54 -107.5t-57.5 -71t-59.5 -42t-49.5 -22.5t-39.5 -9q-19 16 -41 22z" />
<glyph unicode="|" horiz-adv-x="757" d="M393 -291h82v1942h25v-1966h-107v24z" />
<glyph unicode="}" horiz-adv-x="870" d="M-33 -381l10 25h68q91 0 163.5 20t117.5 49t81.5 77t54.5 87.5t38 95.5q54 154 127 416q10 34 20.5 60.5t33 61.5t50 58t72 39.5t98.5 16.5h37l49 127h35l-59 -152h-37q-67 0 -118 -22.5t-81.5 -62t-46.5 -73.5t-29 -77q-73 -262 -127 -416q-20 -57 -38 -96t-54 -87 t-81 -77.5t-117.5 -49.5t-163.5 -20h-103zM756 1575l10 24h49q73 0 88 -34q-23 10 -63 10h-84zM838 911q1 2 53.5 108t112.5 231t81 177q18 44 26.5 87.5t2 91t-32.5 80.5q40 -31 53 -83t5 -101t-29 -99q-21 -52 -81 -177t-113 -231l-54 -108q-29 -57 -12 -90 q-53 30 -12 114z" />
<glyph unicode="~" horiz-adv-x="1449" d="M403 432q81 90 193 90q44 0 84.5 -13.5t73.5 -32t68 -37.5t84.5 -32.5t107.5 -13.5q95 0 165.5 36.5t149.5 115.5l25 -25q-78 -78 -149.5 -114.5t-166.5 -36.5q-58 0 -107 13.5t-84 32.5t-68 37.5t-73.5 32t-84.5 13.5q-115 0 -199 -97z" />
<glyph unicode="&#xa1;" horiz-adv-x="679" d="M-145 -467l10 25h213l362 1042h33l-371 -1067h-247zM391 795q46 -31 92 -31q62 0 105 43t43 104q0 46 -31 93q55 -48 55 -117q0 -62 -43 -105t-104 -43q-71 0 -117 56z" />
<glyph unicode="&#xa2;" horiz-adv-x="847" d="M127 -266l10 24h78l72 181q119 -11 247 46t242 171l27 -23q-115 -115 -244 -172.5t-248 -46.5l-71 -180h-113zM216.5 216q-1.5 67 21.5 153.5t64 185t89 183.5t101.5 148.5t97.5 80.5l-23 -54q-81 -67 -168 -227t-132 -323t-15 -232l-2 -4q-32 22 -33.5 89zM350 96 l355 879q14 -8 24 -25l-344 -854q-17 -3 -35 0zM678 614l14 25h180q37 73 55 153t8.5 159.5t-52.5 131.5q57 -47 73.5 -131t-1 -170.5t-58.5 -167.5h-219zM776 1151l68 168h35l-72 -178z" />
<glyph unicode="&#xa3;" horiz-adv-x="1316" d="M186 -12q43 -35 114 -31.5t128 45.5q40 -5 133 -35t154 -30q291 0 434 436h33q-57 -173 -123 -270q-130 -191 -320 -191q-61 0 -153.5 30t-132.5 35q-68 -50 -148 -46t-119 57zM442 629l11 24h135l-4 -24h-142zM553 147q200 216 252 506h231l41 105h35l-51 -129h-232 q-52 -285 -239 -492q-19 3 -37 10zM825 782q18 92 44 172t62 150.5t85.5 111.5t105.5 41q52 0 68 -32q-20 8 -43 8q-71 0 -132 -69t-98 -165.5t-63 -216.5h-29zM1163 967l13 24h170q60 113 62.5 216t-52.5 169q73 -63 76.5 -174.5t-62.5 -234.5h-207z" />
<glyph unicode="&#xa4;" horiz-adv-x="1183" d="M274 229l146 146q101 -72 226 -72t228 72l25 -25q-103 -72 -228.5 -72t-226.5 72l-145 -145zM429 696q0 90 63 154q64 63 154 63t155 -63l12 -14q-65 55 -150 52t-147 -63q-60 -61 -63 -147t53 -150l-14 13q-63 65 -63 155zM967 467q72 103 72 228.5t-72 226.5l145 145 l25 -25l-146 -145q72 -101 72 -226.5t-72 -228.5zM1018 229l94 95l25 -25l-95 -94z" />
<glyph unicode="&#xa5;" horiz-adv-x="993" d="M100 504l11 24h223l-10 -24h-224zM131 -61l10 24h172l228 565h276l41 105h35l-51 -129h-277l-227 -565h-207zM197 737l10 25h170l-2 -25h-178zM567 844l58 563h26l-53 -518zM635 657l78 105h198l43 104h35l-53 -129h-199l-59 -80h-43zM807 891l383 516h43l-383 -516h-43z " />
<glyph unicode="&#xa6;" horiz-adv-x="757" d="M393 -291h82v852h25v-876h-107v24zM393 774v25h82v852h25v-877h-107z" />
<glyph unicode="&#xa7;" horiz-adv-x="1044" d="M154 -8q65 -55 163 -55q70 0 127 27t91.5 71t54 93.5t22.5 100.5q70 17 122 51.5t80.5 78t42 88t13.5 90.5q0 104 -77 188q102 -95 102 -213q0 -46 -13.5 -90.5t-42 -88t-80.5 -77.5t-122 -51q-3 -51 -22.5 -100.5t-54 -93.5t-91.5 -71.5t-127 -27.5q-122 0 -188 80z M229 129q40 6 66.5 37.5t26.5 73.5q0 35 -21 63q45 -28 45 -88q0 -43 -26 -74t-66 -37l8 -16q-23 14 -33 41zM346 682q0 50 30 90.5t85 54.5q4 -10 16 -26q-51 -17 -78.5 -56.5t-27.5 -87.5q0 -60 49 -112q-74 70 -74 137zM600 961q0 62 35.5 111.5t99.5 49.5q50 0 72 -37 q-19 13 -47 13q-64 0 -99.5 -50t-35.5 -112q0 -52 45 -100q-70 60 -70 125zM770 870q27 -20 64 -20q70 0 109 57.5t32 136.5t-57 138q48 -41 68.5 -103.5t12 -118t-45.5 -95.5t-95 -40q-60 0 -88 45z" />
</font>
</defs>
</svg>
