<?xml version="1.0" standalone="no"?>
<!DOCTYPE svg PUBLIC "-//W3C//DTD SVG 1.1//EN" "http://www.w3.org/Graphics/SVG/1.1/DTD/svg11.dtd" >
<svg xmlns="http://www.w3.org/2000/svg">
<metadata></metadata>
<defs>
<font id="thirsty_scriptblack" horiz-adv-x="1269" >
<font-face units-per-em="2048" ascent="1638" descent="-410" />
<missing-glyph horiz-adv-x="512" />
<glyph unicode="Br" horiz-adv-x="2906" d="M-59 260q0 44 11.5 88t39.5 88.5t70 78.5t108 55.5t147 21.5q78 0 143.5 -20.5t147.5 -69.5q11 23 21 46t18 42t10 24l187 465q23 56 60.5 108t90.5 98t125 73.5t152 27.5l65 -190q-4 -1 -10.5 -4t-26 -16.5t-37.5 -32.5t-42 -54t-43 -79l-13 -27q59 -21 124.5 -11.5 t120 36.5t90.5 81t36 121q0 109 -86.5 181.5t-251.5 72.5q-118 0 -218.5 -40t-163 -102.5t-97.5 -134t-35 -138.5q0 -39 12 -85t24 -72l11 -26l-242 -178q-4 6 -11 17.5t-24 48t-30 76t-24 98t-11 116.5q0 108 36.5 211.5t107.5 192t167.5 155.5t226 105.5t273.5 38.5 q201 0 352 -70t228.5 -188.5t77.5 -267.5q0 -66 -16 -123.5t-42 -97t-57 -72t-62.5 -51.5t-57.5 -31.5t-42 -17.5l-16 -5q7 -6 19 -16.5t42 -48t52.5 -80.5t41.5 -112.5t19 -143.5q0 -97 -30.5 -190t-88 -171.5t-153 -127t-214.5 -48.5q-128 0 -253.5 57t-272.5 167 q-175 -185 -408 -185q-76 0 -140 20.5t-107.5 54t-73.5 77.5t-43.5 90.5t-13.5 93.5zM211 281q0 -39 29.5 -57.5t68.5 -18.5q86 0 172 96q-85 64 -157 64q-54 0 -83.5 -23.5t-29.5 -60.5zM879 315q158 -114 286 -114q111 0 172.5 68t61.5 161q0 21 -3.5 46t-22.5 69 t-50.5 81t-95.5 74t-150 56q-96 -230 -108 -256q-47 -108 -90 -185zM1688 82q78 74 208 290.5t267 518.5q-33 35 -48.5 61.5t-15.5 61.5q0 75 63.5 151.5t131.5 98.5l139 -74l-59 -158q20 -16 69.5 -47t96.5 -62.5t94.5 -70t76.5 -84t29 -90.5q0 -40 -24 -103l-45 -116 q-27 -67 -41 -117.5t-15.5 -77t4.5 -43t14 -20.5t17 -4q78 0 299 378q35 -3 72 -30t51 -58q-53 -92 -96 -159t-100 -138t-110.5 -115.5t-119.5 -73t-135 -28.5q-50 0 -96.5 14.5t-86 50.5t-60 89t-12.5 138t50 190l64 159q18 46 18 74q0 15 -6.5 29t-26 33t-29 27.5 t-38.5 33.5q-127 -282 -261.5 -511t-214.5 -300q-36 3 -71 27t-53 55z" />
<glyph unicode="Dr" horiz-adv-x="3039" d="M-61 258q0 44 12 89t40 89.5t69 78.5t104.5 55.5t140.5 21.5q160 0 352 -119q28 55 50 105l184 454q23 55 61 107t91 98t125.5 74t152.5 28l65 -190q-4 -2 -11.5 -6t-29 -19.5t-40.5 -35t-42 -53t-38 -72.5q-189 -467 -189 -469q-40 -105 -110 -222q133 -94 254 -94 q111 0 209.5 72.5t163 186t102 250t37.5 267.5q0 82 -15 152t-49.5 131t-85.5 103.5t-127.5 67t-171.5 24.5q-102 0 -189.5 -27t-147 -71t-102 -101t-62 -116t-19.5 -116q0 -43 11.5 -89.5t23.5 -71.5l12 -25l-242 -180q-4 6 -11 17t-24 48t-30 76t-24 98.5t-11 118.5 q0 106 32 208.5t100 195t165 162.5t236 111.5t303 41.5q159 0 289.5 -37.5t222.5 -105.5t155 -163.5t93 -210.5t30 -247q0 -99 -16 -202t-50.5 -207.5t-84 -200t-120.5 -178.5t-156 -144t-195 -96t-232 -35q-74 0 -136 13t-116.5 42t-94.5 57.5t-97 76.5 q-177 -150 -416 -150q-91 0 -163 22.5t-115.5 57t-72 80.5t-39.5 88.5t-11 85.5zM207 279q0 -38 30 -56t78 -18q102 0 193 78q-116 82 -189 82q-54 0 -83 -24.5t-29 -61.5zM1821 82q78 74 208 290.5t267 518.5q-33 35 -48.5 61.5t-15.5 61.5q0 75 63.5 151.5t131.5 98.5 l139 -74l-59 -158q20 -16 69.5 -47t96.5 -62.5t94.5 -70t76.5 -84t29 -90.5q0 -40 -24 -103l-45 -116q-27 -67 -41 -117.5t-15.5 -77t4.5 -43t14 -20.5t17 -4q79 0 299 378q35 -3 72 -30t51 -58q-53 -92 -96 -159t-100 -138t-110.5 -115.5t-119.5 -73t-135 -28.5 q-50 0 -96.5 14.5t-86 50.5t-60 89t-12.5 138t50 190l64 159q18 46 18 74q0 15 -6.5 29t-26 33t-29 27.5t-38.5 33.5q-127 -283 -261 -511.5t-214 -299.5q-36 3 -71.5 27t-53.5 55z" />
<glyph unicode="Er" horiz-adv-x="2424" d="M0 383q0 138 55 259t142.5 200t198 120t220.5 31q-14 45 -14 127q0 166 74 299q-64 178 -58 383l234 -33q0 -82 14 -145q145 94 328 94q103 0 182.5 -30.5t125.5 -82t68.5 -111.5t22.5 -126q0 -71 -27.5 -136t-77.5 -115.5t-127 -80.5t-169 -30q-150 0 -270 69 q13 -133 95 -210q20 -18 24 -18l-3 3l-176 -262q-4 3 -11.5 9t-32 20.5t-51 25.5t-67.5 20t-82 9q-124 0 -196 -74.5t-72 -204.5q0 -132 74.5 -219.5t204.5 -87.5q64 0 119.5 25.5t92.5 68.5t57.5 97t18.5 115t-28 118l303 88q60 -176 33.5 -328t-110 -263.5t-216 -175.5 t-283.5 -64q-177 0 -319 83t-219.5 223.5t-77.5 309.5zM999 1339q75 -69 172 -69q115 0 115 67q0 36 -34 54t-83 18q-100 0 -170 -70zM1206 82q78 74 208 290.5t267 518.5q-32 34 -47.5 61t-15.5 62q0 76 63.5 152t130.5 98l140 -74l-60 -158q20 -16 69.5 -47t96.5 -62.5 t95 -70t77 -84t29 -90.5q0 -38 -25 -103l-45 -116q-27 -67 -41 -117.5t-15 -77t5 -43t14 -20.5t17 -4q78 0 299 378q35 -3 72 -30t51 -58q-53 -92 -96 -159t-100 -138t-110.5 -115.5t-119.5 -73t-135 -28.5q-50 0 -96.5 14.5t-86 50.5t-60 89t-12.5 138t50 190l63 159 q19 49 19 74q0 38 -91 114q-7 6 -10 9q-127 -283 -261 -511.5t-214 -299.5q-36 3 -71.5 27t-53.5 55z" />
<glyph unicode="Fr" horiz-adv-x="2547" d="M0 264q0 98 36 185t102 152t168 99t224 23v-301q-56 4 -98 -6t-64.5 -26.5t-36 -40.5t-17 -43t-3.5 -40q0 -82 56.5 -128t121.5 -46q126 0 231.5 119t203.5 344l49 125h-182l73 182h183l167 416q-96 10 -295.5 58t-283.5 48q-100 0 -149.5 -40t-49.5 -97q0 -54 35.5 -80 t83.5 -26q36 0 70.5 14.5t51.5 29.5l17 15l144 -219q-5 -5 -14.5 -13t-40.5 -28.5t-64.5 -36t-85 -28.5t-103.5 -13q-74 0 -142.5 24t-124 69.5t-89 119t-33.5 164.5q0 84 29 159t86 135.5t152 96t217 35.5q90 0 203.5 -21t201 -44t189 -36.5t178.5 -0.5q121 100 278 100 l66 -190q-4 -2 -11.5 -6t-28.5 -19.5t-40.5 -34.5t-42.5 -53.5t-39 -73.5l-170 -424h186l-71 -182h-189l-118 -297q-237 -592 -693 -592q-132 0 -235 40.5t-164.5 109t-93 151t-31.5 172.5zM1329 82q78 74 208 290.5t267 518.5q-32 34 -47.5 61t-15.5 62q0 76 63.5 152 t130.5 98l140 -74l-60 -158q20 -16 69.5 -47t96.5 -62.5t95 -70t77 -84t29 -90.5q0 -38 -25 -103l-45 -116q-27 -67 -41 -117.5t-15 -77t5 -43t14 -20.5t17 -4q78 0 299 378q35 -3 72 -30t51 -58q-53 -92 -96 -159t-100 -138t-110.5 -115.5t-120 -73t-135.5 -28.5 q-50 0 -96 14.5t-86 50.5t-60 89t-12 138t50 190l63 159q19 49 19 74q0 38 -91 114q-7 6 -10 9q-127 -283 -261 -511.5t-214 -299.5q-36 3 -71.5 27t-53.5 55z" />
<glyph unicode="Es" horiz-adv-x="2359" d="M0 383q0 138 55 259t142.5 200t198 120t220.5 31q-14 45 -14 127q0 166 74 299q-64 178 -58 383l234 -33q0 -82 14 -145q145 94 328 94q103 0 182.5 -30.5t125.5 -82t68.5 -111.5t22.5 -126q0 -71 -27.5 -136t-77.5 -115.5t-127 -80.5t-169 -30q-150 0 -270 69 q13 -133 95 -210q20 -18 24 -18l-3 3l-176 -262q-4 3 -11.5 9t-32 20.5t-51 25.5t-67.5 20t-82 9q-124 0 -196 -74.5t-72 -204.5q0 -132 74.5 -219.5t204.5 -87.5q64 0 119.5 25.5t92.5 68.5t57.5 97t18.5 115t-28 118l303 88q60 -176 33.5 -328t-110 -263.5t-216 -175.5 t-283.5 -64q-177 0 -319 83t-219.5 223.5t-77.5 309.5zM999 1339q75 -69 172 -69q115 0 115 67q0 36 -34 54t-83 18q-100 0 -170 -70zM1174 57q77 79 151.5 185.5t204.5 335.5q163 292 289 557l319 -72q-22 -137 -22.5 -278t10 -280t10.5 -186q0 -40 -6 -88q82 70 142.5 147 t129.5 197q35 -3 72 -30t51 -58q-48 -87 -98 -158t-116.5 -139t-138 -114.5t-163 -74.5t-192.5 -28h-6q-245 -5 -363 140q137 86 203 127q19 -19 47 -19q48 0 74 56.5t26 197.5q0 26 -3 133.5t-1 155.5q-116 -233 -141 -277q-79 -144 -189 -307t-166 -207q-36 3 -71 27.5 t-53 56.5z" />
<glyph unicode="Ir" horiz-adv-x="2367" d="M-125 264q0 99 37 187t103.5 152.5t168 97.5t222.5 22v-301q-69 5 -116.5 -10t-68 -42.5t-28 -51t-7.5 -48.5q0 -74 59 -126t134 -52q132 0 240 119t204 344l277 684q-81 -23 -132 -39t-109.5 -37t-93 -39t-65 -41t-44 -48.5t-13.5 -55.5q0 -34 15.5 -57t41 -32.5 t43.5 -12.5t37 -3v-296q-198 0 -320.5 106.5t-121.5 280.5q0 211 182 341q124 88 399 177q54 17 167 51q137 42 208 65q128 125 305 125l66 -190q-4 -2 -11.5 -6t-28.5 -19t-40.5 -34.5t-42.5 -53.5t-39 -73l-387 -965q-56 -142 -128.5 -250t-144.5 -171.5t-154 -103 t-151 -53.5t-143 -14q-104 0 -191 27t-147 72.5t-101.5 106.5t-61 128.5t-19.5 138.5zM1149 82q78 74 208 290.5t267 518.5q-32 34 -47.5 61t-15.5 62q0 76 63.5 152t130.5 98l139 -74l-59 -158q20 -16 69.5 -47t96.5 -62.5t95 -70t77 -84t29 -90.5q0 -38 -25 -103l-45 -116 q-27 -67 -41 -117.5t-15.5 -77t4.5 -43t14 -20.5t17 -4q79 0 299 378q35 -3 72 -30t51 -58q-53 -92 -96 -159t-100 -138t-110.5 -115.5t-119.5 -73t-135 -28.5q-50 0 -96.5 14.5t-86 50.5t-60 89t-12.5 138t50 190l64 159q18 46 18 74q0 15 -6.5 29t-26 33t-29 27.5 t-38.5 33.5q-127 -283 -261 -511.5t-214 -299.5q-36 3 -71.5 27t-53.5 55z" />
<glyph unicode="Is" horiz-adv-x="2306" d="M-125 264q0 99 37 187t103.5 152.5t168 97.5t222.5 22v-301q-69 5 -116.5 -10t-68 -42.5t-28 -51t-7.5 -48.5q0 -74 59 -126t134 -52q132 0 240 119t204 344l277 684q-81 -23 -132 -39t-109.5 -37t-93 -39t-65 -41t-44 -48.5t-13.5 -55.5q0 -34 15.5 -57t41 -32.5 t43.5 -12.5t37 -3v-296q-198 0 -320.5 106.5t-121.5 280.5q0 211 182 341q124 88 399 177q54 17 167 51q137 42 208 65q128 125 305 125l66 -190q-4 -2 -11.5 -6t-28.5 -19t-40.5 -34.5t-42.5 -53.5t-39 -73l-387 -965q-56 -142 -128.5 -250t-144.5 -171.5t-154 -103 t-151 -53.5t-143 -14q-104 0 -191 27t-147 72.5t-101.5 106.5t-61 128.5t-19.5 138.5zM1120 57q78 79 153 186t204 335q157 281 288 557l320 -72q-22 -137 -22.5 -278t10 -280t10.5 -186q0 -40 -6 -88q82 70 142.5 147t129.5 197q35 -3 72 -30t51 -58q-48 -87 -98 -158 t-116.5 -139t-138.5 -114.5t-163.5 -74.5t-192.5 -28h-6q-32 -1 -62 1.5t-88.5 13t-114.5 43t-97 82.5q136 86 202 127q19 -19 48 -19q48 0 74 56.5t26 197.5q0 26 -3 133.5t-1 155.5q-108 -215 -142 -277q-79 -145 -188.5 -307.5t-165.5 -206.5q-36 3 -71.5 27.5 t-53.5 56.5z" />
<glyph unicode="Wr" horiz-adv-x="3317" d="M0 846q0 59 14 111t37 93t62.5 78.5t80 66t100 57t112.5 49t127.5 45.5t134 42.5t144 43.5t146.5 47q63 82 153 133t202 51l65 -190q-4 -2 -11.5 -5.5t-28 -19t-39.5 -35t-41.5 -53.5t-38.5 -74l-316 -782q-28 -69 -44 -119t-21 -78.5t-1.5 -44.5t11 -21t20.5 -5 q69 0 173 123t182 298l333 830h365l-397 -983q-28 -69 -44 -119t-21 -78.5t-1.5 -44.5t11 -21t20.5 -5q69 0 172.5 123.5t179.5 297.5l277 682q167 412 645 318l-60 -256q-40 6 -76.5 4t-67 -13.5t-60 -48t-56.5 -100.5l-278 -688q-37 -92 -83 -176.5t-111.5 -169 t-138.5 -146.5t-166.5 -100.5t-192.5 -38.5q-81 0 -140 24.5t-87 62.5t-39 77t-5 76q-31 -37 -72.5 -74t-100.5 -76.5t-134 -64.5t-150 -25q-129 0 -197.5 74t-65.5 221t85 350l228 559q-260 -76 -344 -115q-130 -59 -144 -134q-2 -10 -2 -21q0 -34 15.5 -56.5t40.5 -32 t44 -12.5t37 -3v-297q-197 0 -320 107.5t-122 281.5zM2099 82q78 74 208 290.5t267 518.5q-32 34 -47.5 61t-15.5 62q0 76 63.5 152t130.5 98l140 -74l-60 -158q20 -16 69.5 -47t96.5 -62.5t95 -70t77 -84t29 -90.5q0 -38 -25 -103l-45 -116q-27 -67 -41 -117.5t-15 -77 t5 -43t14 -20.5t17 -4q78 0 299 378q35 -3 72 -30t51 -58q-53 -92 -96 -159t-100 -138t-110.5 -115.5t-120 -73t-135.5 -28.5q-50 0 -96 14.5t-86 50.5t-60 89t-12 138t50 190l63 159q19 49 19 74q0 38 -91 114q-7 6 -10 9q-127 -283 -261 -511.5t-214 -299.5 q-36 3 -71.5 27t-53.5 55z" />
<glyph unicode="Wi" horiz-adv-x="2973" d="M0 846q0 59 14 111t37 93t62.5 78.5t80 66t100 57t112.5 49t127.5 45.5t134 42.5t144 43.5t146.5 47q63 82 153 133t202 51l65 -190q-4 -2 -11.5 -5.5t-28 -19t-39.5 -35t-41.5 -53.5t-38.5 -74q-20 -51 -53.5 -133.5t-103.5 -256t-115.5 -286t-43.5 -106.5 q-28 -69 -44 -119t-21 -78.5t-1.5 -44.5t11 -21t20.5 -5q69 0 173 123t182 298l333 830h365l-397 -983q-28 -69 -44 -119t-21 -78.5t-1.5 -44.5t11 -21t20.5 -5q69 0 172.5 123.5t179.5 297.5l277 682q23 57 55.5 109t82 106t120 86.5t151.5 32.5q104 0 193 -45t178 -125 q63 -18 105 -70.5t42 -119.5q0 -80 -58.5 -139.5t-137.5 -59.5q-93 0 -149.5 70t-45.5 166q-56 44 -113.5 17t-97.5 -124l-278 -688q-37 -92 -83 -176.5t-111.5 -169t-138.5 -146.5t-166.5 -100.5t-192.5 -38.5q-81 0 -140 24.5t-87 62.5t-39 77t-5 76q-31 -37 -72.5 -74 t-100.5 -76.5t-134 -64.5t-150 -25q-129 0 -197.5 74t-65.5 221t85 350l228 559q-260 -76 -344 -115q-130 -59 -144 -134q-2 -10 -2 -21q0 -34 15.5 -56.5t40.5 -32t44 -12.5t37 -3v-297q-197 0 -320 107.5t-122 281.5zM2281 265.5q8 104.5 62 238.5l225 559h363l-244 -606 q-28 -69 -42.5 -119t-17.5 -76.5t2 -42t12.5 -19t18.5 -3.5q61 0 156.5 97t200.5 281q35 -3 72 -30t51 -58q-61 -107 -127.5 -196t-144 -162.5t-165.5 -114.5t-176 -41q-76 0 -133 31.5t-89 94t-24 167z" />
<glyph unicode="Wh" horiz-adv-x="3610" d="M0 846q0 59 14 111t37 93t62.5 78.5t80 66t100 57t112.5 49t127.5 45.5t134 42.5t144 43.5t146.5 47q63 82 153 133t202 51l65 -190q-4 -2 -11.5 -5.5t-28 -19t-39.5 -35t-41.5 -53.5t-38.5 -74l-316 -782q-28 -69 -44 -119t-21 -78.5t-1.5 -44.5t11 -21t20.5 -5 q69 0 173 123t182 298l333 830h365l-397 -983q-28 -69 -44 -119t-21 -78.5t-1.5 -44.5t11 -21t20.5 -5q69 0 172.5 123.5t179.5 297.5q29 73 277 682q18 46 40.5 86.5t61 88t84.5 81t113.5 56t144.5 22.5q135 0 267 -47.5t290 -157.5l-207 -514q7 6 19 15t51 32.5t78.5 41.5 t96.5 32.5t110 14.5q102 0 155 -50t53 -135q0 -75 -61 -225l-90 -223q-27 -66 -42 -115t-18.5 -76.5t1 -43.5t12.5 -20.5t20 -4.5q61 0 156.5 97t200.5 281q35 -3 72 -30t51 -58q-66 -115 -132 -203.5t-144 -161t-167 -111t-184 -38.5q-180 0 -224.5 138t58.5 405l14 33 q6 16 16.5 42t16 39.5t13 33t11.5 31t8 24.5t5.5 21.5t1.5 15.5q0 20 -14.5 31.5t-38.5 11.5q-39 0 -103 -37.5t-123 -104.5l-266 -657h-362l551 1358q-190 77 -271 -115l-278 -688q-37 -92 -83 -176.5t-111.5 -169t-138.5 -146.5t-166.5 -100.5t-192.5 -38.5 q-81 0 -140 24.5t-87 62.5t-39 77t-5 76q-31 -37 -72.5 -74t-100.5 -76.5t-134 -64.5t-150 -25q-129 0 -197.5 74t-65.5 221t85 350l228 559q-260 -76 -344 -115q-130 -59 -144 -134q-2 -10 -2 -21q0 -34 15.5 -56.5t40.5 -32t44 -12.5t37 -3v-297q-197 0 -320 107.5 t-122 281.5z" />
<glyph unicode="Vs" horiz-adv-x="2701" d="M0 846q0 59 14 110t36.5 92t61.5 78.5t78.5 66t99 57t110.5 49t125 45.5t132 42.5t142.5 43t144.5 45.5q129 188 377 188l65 -190q-6 -1 -15.5 -4t-35 -17.5t-48 -35t-46 -60.5t-35.5 -90l-188 -867q137 108 251.5 245t190.5 270.5t131.5 274.5t83 258t37.5 222l338 43 q-5 -65 -14 -130.5t-30 -161t-49.5 -188t-75.5 -205t-106 -217t-144 -220t-185.5 -219t-234.5 -207t-287 -191.5h-355l258 1166q-276 -81 -364 -120q-140 -62 -156 -138q-2 -11 -2 -23q0 -34 15.5 -56.5t40.5 -32t44 -12.5t37 -3v-297q-197 0 -320 107.5t-122 281.5z M1516 57q77 79 151.5 185.5t204.5 335.5q163 292 289 557l319 -72q-22 -137 -22.5 -278t10 -280t10.5 -186q0 -40 -6 -88q82 70 142.5 147t129.5 197q35 -3 72 -30t51 -58q-48 -87 -98 -158t-116.5 -139t-138 -114.5t-163 -74.5t-192.5 -28h-6q-245 -5 -363 140 q137 86 203 127q19 -19 47 -19q48 0 74 56.5t26 197.5q0 26 -3 133.5t-1 155.5q-116 -233 -141 -277q-79 -144 -189 -307t-166 -207q-36 3 -71 27.5t-53 56.5z" />
<glyph unicode="Tr" horiz-adv-x="2447" d="M0 373q0 77 21.5 148t66 131.5t107 103t149 63t186.5 12.5v-301q-56 4 -98 -5.5t-64.5 -26t-36 -40.5t-17 -43t-3.5 -40q0 -84 56.5 -129t128.5 -45q69 0 127.5 30t110 93t95.5 142.5t95 197.5l262 649q-16 3 -76 16.5t-79 17.5t-71.5 15t-75 15.5t-65.5 12.5t-67.5 11.5 t-57 8t-57.5 6t-47 1.5q-93 0 -140 -30.5t-47 -86.5q0 -50 37 -76t84 -26q35 0 68.5 15t49.5 29l17 15l146 -219q-5 -5 -14 -13t-39.5 -28t-64 -35.5t-85 -28.5t-104.5 -13q-75 0 -143.5 23.5t-124 69t-88.5 120t-33 167.5q0 66 17 126.5t55.5 115t95.5 94t142.5 63 t190.5 23.5q115 0 285 -29.5t317 -64.5t317.5 -64.5t285.5 -29.5q87 0 149 15t81 29l19 15l191 -106q-1 -5 -3 -13t-12 -32.5t-24.5 -46.5t-43.5 -50.5t-64.5 -50.5t-91.5 -39.5t-122 -23.5l80 -41l-59 -158q20 -16 69.5 -47t96.5 -62.5t94.5 -70t76.5 -84t29 -90.5 q0 -40 -24 -103l-45 -116q-27 -67 -41 -117.5t-15.5 -77t4.5 -43t14 -20.5t17 -4q79 0 299 378q35 -3 72 -30t51 -58q-53 -92 -96 -159t-100 -138t-110.5 -115.5t-119.5 -73t-135 -28.5q-50 0 -96.5 14.5t-86 50.5t-60 89t-12.5 138t50 190l64 159q18 46 18 74q0 15 -6.5 29 t-26 33t-29 27.5t-38.5 33.5q-127 -283 -261 -511.5t-214 -299.5q-36 3 -71.5 27t-53.5 55q78 74 208 290.5t267 518.5q-33 35 -48.5 61.5t-15.5 61.5q0 57 38 116t91 99q-153 4 -243 20l-307 -757q-233 -592 -697 -592q-130 0 -232.5 40.5t-164 109t-93.5 151t-32 172.5z " />
<glyph unicode="Ti" horiz-adv-x="2070" d="M0 373q0 98 36.5 185.5t102.5 152t168 98t223 22.5v-301q-56 4 -98 -5.5t-64.5 -26t-36 -40.5t-17 -43t-3.5 -40q0 -84 57.5 -129t127.5 -45q69 0 127 30t109.5 93t94.5 142.5t93 197.5l262 647q-18 4 -97.5 22t-103 23t-87.5 18.5t-93 18t-75 12t-78.5 10t-61.5 2.5 q-50 0 -87 -10t-54.5 -22.5t-28 -30.5t-12 -28t-1.5 -21q0 -45 35 -79t86 -34q35 0 68.5 16.5t49.5 32.5l17 16l146 -219q-5 -5 -13.5 -13t-37.5 -28t-61 -35.5t-82.5 -28.5t-102.5 -13q-74 0 -144 24t-127.5 69.5t-92.5 120.5t-35 169q0 83 28 155.5t85 133t155.5 95.5 t228.5 35q117 0 282 -31.5t306.5 -69.5t316 -71.5t306.5 -36.5q14 67 68 112.5t124 45.5q82 0 140.5 -57.5t58.5 -147.5q0 -172 -174 -230q-79 -26 -187 -26q-132 0 -327 31l-301 -749q-237 -592 -699 -592q-104 0 -191 27t-147 72.5t-101.5 106.5t-61 128.5t-19.5 138.5z M1381 306.5q13 89.5 57 197.5l227 559h363l-244 -606q-28 -69 -42.5 -119t-17.5 -76.5t2 -42t12.5 -19t18.5 -3.5q60 0 154.5 96.5t202.5 281.5q35 -3 71.5 -30t50.5 -58q-61 -108 -127.5 -196t-144 -162t-165 -115t-175.5 -41q-59 0 -108 19t-84 61.5t-49.5 103t-1.5 150z " />
<glyph unicode="Sr" horiz-adv-x="2494" d="M-94 -485q-24 132 21 274t149 277q-117 161 -117 376q0 118 35 220.5t94.5 176.5t140 124.5t170.5 70t188 7t189 -59.5l-110 -279q-72 41 -141 37.5t-123 -36.5t-86.5 -97.5t-32.5 -144.5q0 -87 32 -150q105 97 337 300.5t280 246.5q-60 250 -60 389q0 222 118.5 356 t309.5 134q70 0 127.5 -20.5t95 -53t62.5 -75.5t36 -87t11 -88q0 -70 -27 -143.5t-78.5 -146.5t-107.5 -136.5t-133 -138.5q45 -214 45 -350q0 -206 -93 -362.5t-252 -238t-359 -81.5q-205 0 -369 90q-81 -94 -110.5 -185t-8.5 -206h-233zM506 145q49 -16 121 -16 q160 0 261 114t101 277q0 8 -1 25t-1 26q-96 -88 -265 -235.5t-216 -190.5zM1207 1308q-2 -24 1 -29v-1q0 -50 17 -137q123 131 123 227q0 62 -56 62q-34 0 -54.5 -22t-24.5 -49t-6 -51zM1276 82q78 74 208 290.5t267 518.5q-32 34 -47.5 61t-15.5 62q0 76 63.5 152 t130.5 98l139 -74l-59 -158q20 -16 69.5 -47t96.5 -62.5t95 -70t77 -84t29 -90.5q0 -38 -25 -103l-45 -116q-27 -67 -41 -117.5t-15.5 -77t4.5 -43t14 -20.5t17 -4q78 0 299 378q35 -3 72 -30t51 -58q-53 -92 -96 -159t-100 -138t-110.5 -115.5t-119.5 -73t-135 -28.5 q-50 0 -96.5 14.5t-86 50.5t-60 89t-12.5 138t50 190l64 159q18 46 18 74q0 15 -6.5 29t-26 33t-29 27.5t-38.5 33.5q-127 -283 -261 -511.5t-214 -299.5q-36 3 -71.5 27t-53.5 55z" />
<glyph unicode="Ps" horiz-adv-x="2404" d="M-8 1014q0 61 13.5 127t44 138t75.5 138.5t114 127t153.5 105t198.5 71t245 26.5q157 0 284 -38t209.5 -100t138.5 -146t79.5 -172t23.5 -181q0 -162 -71.5 -305.5t-199 -236t-304 -114.5t-386.5 60l-217 -541h-362l446 1106q23 56 61 108t91 98t125.5 73.5t152.5 27.5 l66 -190q-4 -2 -11.5 -6t-28 -19.5t-39.5 -35t-42 -53t-39 -72.5l-108 -265q57 -35 128.5 -39t139.5 24t125 78t92 129.5t35 172.5q0 49 -9 94t-35 94t-67.5 84.5t-112.5 58.5t-163 23q-103 0 -193.5 -28t-153 -74t-108 -105t-67 -120t-21.5 -119q0 -44 11.5 -91t22.5 -73 l11 -25l-240 -180q-4 7 -11.5 19.5t-26 51.5t-33 79.5t-26 99.5t-11.5 115zM1219 57q77 79 151.5 185.5t204.5 335.5q163 292 289 557l319 -72q-22 -137 -22.5 -278t10 -280t10.5 -186q0 -40 -6 -88q82 70 142.5 147t129.5 197q35 -3 72 -30t51 -58q-48 -87 -98 -158 t-116.5 -139t-138 -114.5t-163 -74.5t-192.5 -28h-6q-245 -5 -363 140q137 86 203 127q19 -19 47 -19q48 0 74 56.5t26 197.5q0 26 -3 133.5t-1 155.5q-117 -233 -141 -277q-79 -144 -189 -307t-166 -207q-36 3 -71 27.5t-53 56.5z" />
<glyph unicode="Pr" horiz-adv-x="2455" d="M-8 1014q0 61 13.5 127t44 138t75.5 138.5t114 127t153.5 105t198.5 71t245 26.5q157 0 284 -38t209.5 -100t138.5 -146t79.5 -172t23.5 -181q0 -162 -71.5 -305.5t-199 -236t-304 -114.5t-386.5 60l-217 -541h-362l446 1106q23 56 61 108t91 98t125.5 73.5t152.5 27.5 l66 -190q-4 -2 -11.5 -6t-28 -19.5t-39.5 -35t-42 -53t-39 -72.5l-108 -265q57 -35 128.5 -39t139.5 24t125 78t92 129.5t35 172.5q0 49 -9 94t-35 94t-67.5 84.5t-112.5 58.5t-163 23q-103 0 -193.5 -28t-153 -74t-108 -105t-67 -120t-21.5 -119q0 -44 11.5 -91t22.5 -73 l11 -25l-240 -180q-4 7 -11.5 19.5t-26 51.5t-33 79.5t-26 99.5t-11.5 115zM1237 82q78 74 208 290.5t267 518.5q-32 34 -47.5 61t-15.5 62q0 76 63.5 152t130.5 98l139 -74l-59 -158q20 -16 69.5 -47t96.5 -62.5t95 -70t77 -84t29 -90.5q0 -38 -25 -103l-45 -116 q-27 -67 -41 -117.5t-15 -77t5 -43t14 -20.5t17 -4q78 0 299 378q35 -3 71.5 -30t50.5 -58q-53 -92 -96 -159t-100 -138t-110.5 -115.5t-119.5 -73t-135 -28.5q-50 0 -96.5 14.5t-86 50.5t-60 89t-12.5 138t50 190l64 159q18 46 18 74q0 15 -6.5 29t-26 33t-29 27.5 t-38.5 33.5q-127 -283 -261 -511.5t-214 -299.5q-36 3 -71.5 27t-53.5 55z" />
<glyph unicode="Ms" horiz-adv-x="3414" d="M0 922q0 78 24.5 143t63.5 113t104.5 91.5t130.5 73.5t158.5 62.5t172 56t188 57.5t190.5 62l295 -164q86 66 191 106t184 40q94 0 149.5 -59t61.5 -146q101 97 225.5 151t216.5 54q99 0 153 -65.5t54 -160.5q0 -93 -76 -284l-424 -1049q-17 -48 -22.5 -82t1 -65.5 t31.5 -56.5t70 -46l-108 -270q-127 38 -208.5 101.5t-112 142t-28 161.5t36.5 174l342 846q83 204 93 252q2 12 2 21q0 21 -14 33t-36 12q-48 0 -127.5 -51t-154.5 -136l-428 -1067h-363l377 936q94 230 94 273q0 21 -13.5 33t-37.5 12q-45 0 -119.5 -46t-152.5 -124 l-434 -1084h-363l508 1262q-42 -13 -107.5 -32t-102.5 -30.5t-90.5 -28.5t-84 -29t-68.5 -29t-59 -32.5t-41 -34.5t-28.5 -40t-8.5 -45q0 -34 15.5 -56.5t40.5 -32t44 -13t37 -3.5v-294q-198 0 -320.5 106.5t-121.5 280.5zM2228 57q78 79 153 186t204 335q157 281 288 557 l320 -72q-22 -137 -22.5 -278t10 -280t10.5 -186q0 -40 -6 -88q82 70 142.5 147t129.5 197q35 -3 72 -30t51 -58q-48 -87 -98 -158t-116.5 -139t-138.5 -114.5t-163.5 -74.5t-192.5 -28h-6q-244 -5 -362 140q136 86 202 127q19 -19 48 -19q48 0 74 56.5t26 197.5 q0 26 -3 133.5t-1 155.5q-108 -215 -142 -277q-79 -145 -188.5 -307.5t-165.5 -206.5q-36 3 -71.5 27.5t-53.5 56.5z" />
<glyph unicode="Mr" horiz-adv-x="3465" d="M0 922q0 78 24.5 143t63.5 113t104.5 91.5t130.5 73.5t158.5 62.5t172 56t188 57.5t190.5 62l295 -164q86 66 191 106t184 40q94 0 149.5 -59t61.5 -146q101 97 225.5 151t216.5 54q99 0 153 -65.5t54 -160.5q0 -93 -76 -284l-424 -1049q-17 -48 -22.5 -82t1 -65.5 t31.5 -56.5t70 -46l-108 -270q-127 38 -208.5 101.5t-112 142t-28 161.5t36.5 174l342 846q83 204 93 252q2 12 2 21q0 21 -14 33t-36 12q-48 0 -127.5 -51t-154.5 -136l-428 -1067h-363l377 936q94 230 94 273q0 21 -13.5 33t-37.5 12q-45 0 -119.5 -46t-152.5 -124 l-434 -1084h-363l508 1262q-42 -13 -107.5 -32t-102.5 -30.5t-90.5 -28.5t-84 -29t-68.5 -29t-59 -32.5t-41 -34.5t-28.5 -40t-8.5 -45q0 -34 15.5 -56.5t40.5 -32t44 -13t37 -3.5v-294q-198 0 -320.5 106.5t-121.5 280.5zM2247 82q78 74 208 290.5t267 518.5 q-33 35 -48.5 61.5t-15.5 61.5q0 75 63.5 151.5t131.5 98.5l139 -74l-59 -158q20 -16 69.5 -47t96.5 -62.5t94.5 -70t76.5 -84t29 -90.5q0 -40 -24 -103l-45 -116q-27 -67 -41 -117.5t-15.5 -77t4.5 -43t14 -20.5t17 -4q79 0 299 378q35 -3 72 -30t51 -58q-53 -92 -96 -159 t-100 -138t-110.5 -115.5t-119.5 -73t-135 -28.5q-50 0 -96.5 14.5t-86 50.5t-60 89t-12.5 138t50 190l64 159q18 46 18 74q0 15 -6.5 29t-26 33t-29 27.5t-38.5 33.5q-127 -283 -261 -511.5t-214 -299.5q-36 3 -71.5 27t-53.5 55z" />
<glyph unicode="Kr" horiz-adv-x="2945" d="M-125 264q0 99 37 187t103.5 152.5t168 97.5t222.5 22v-301q-69 5 -116.5 -10t-68 -42.5t-28 -51t-7.5 -48.5q0 -74 59 -126t134 -52q138 0 242 117t200 346l256 627q-44 -11 -108.5 -26t-98 -23t-77.5 -20.5t-66 -23.5t-44.5 -27.5t-31 -36.5t-8.5 -46q0 -34 15.5 -57 t40.5 -32.5t43 -12.5t36 -3v-296q-198 0 -320.5 106.5t-121.5 280.5q0 73 21 133t55 102.5t91 79.5t114.5 61.5t142 51t157 45t174.5 47t181 53.5q128 125 305 125l65 -190q-4 -2 -11.5 -6t-28 -19.5t-39.5 -34.5t-41.5 -53.5t-38.5 -73.5l-215 -526q229 -59 379 280 l122 301q21 54 48.5 99.5t68 89.5t90.5 73.5t116 50.5t144.5 20t176.5 -17l-60 -256q-40 6 -76.5 4.5t-67 -13.5t-60 -48t-56.5 -99l-76 -184q-177 -428 -473 -483q162 -106 107 -420l-52 -291q-11 -113 14 -152.5t120 -38.5v-249q-104 -19 -186.5 -6.5t-142.5 51.5t-97 97 t-50.5 130t-1.5 151l43 263q19 100 22.5 167.5t-10.5 117t-41.5 81.5t-76.5 64h-12l-64 -160q-57 -142 -129.5 -250t-144 -171.5t-153.5 -103t-151 -53.5t-143 -14q-104 0 -191 27t-147 72.5t-101.5 106.5t-61 128.5t-19.5 138.5zM1726 82q78 75 208.5 291t267.5 518 q-33 35 -48.5 61.5t-15.5 61.5q0 75 63.5 151.5t131.5 98.5l139 -74l-59 -158q20 -16 69.5 -47t96.5 -62.5t94.5 -70t76.5 -84t29 -90.5q0 -40 -24 -103l-45 -116q-27 -67 -41 -117.5t-15.5 -77t4.5 -43t14 -20.5t17 -4q79 0 299 378q35 -3 72 -30t51 -58q-53 -92 -96 -159 t-100 -138t-110.5 -115.5t-119.5 -73t-135 -28.5q-50 0 -96.5 14.5t-86 50.5t-60 89t-12.5 138t50 190l63 159q19 49 19 74q0 15 -6.5 29t-26 33t-29 27.5t-38.5 33.5q-127 -282 -261.5 -511t-214.5 -300q-36 3 -71.5 27t-53.5 55z" />
<glyph unicode="Kl" horiz-adv-x="2643" d="M-125 264q0 99 37 187t103.5 152.5t168 97.5t222.5 22v-301q-69 5 -116.5 -10t-68 -42.5t-28 -51t-7.5 -48.5q0 -74 59 -126t134 -52q136 0 241.5 118t200.5 345l256 627q-44 -11 -108.5 -26t-98 -23t-77.5 -20.5t-66 -23.5t-44.5 -27.5t-31 -36.5t-8.5 -46 q0 -34 15.5 -57t40.5 -32.5t43 -12.5t36 -3v-296q-198 0 -320.5 106.5t-121.5 280.5q0 73 21 133t55 102.5t91 79.5t114.5 61.5t142 51t157 45t174.5 47t181 53.5q128 125 305 125l65 -190q-4 -2 -11.5 -6t-29 -20t-40 -35t-41 -53t-37.5 -73l-215 -526q229 -59 379 280 l120 299q17 44 42 86.5t64.5 88.5t86.5 80t111.5 56.5t136.5 22.5q136 0 270.5 -48t286.5 -157l-408 -1011q-28 -68 -42.5 -117.5t-18 -76t2 -42.5t13 -20t19.5 -4q60 0 154 96.5t202 281.5q35 -3 72 -30t51 -58q-61 -108 -127.5 -196t-144 -162t-165 -115t-175.5 -41 q-61 0 -110 19t-84 61.5t-48.5 103t0 150t57.5 197.5l342 854q-52 20 -99.5 20.5t-91.5 -34t-71 -101.5l-76 -182q-179 -430 -473 -483q162 -106 107 -420l-52 -291q-11 -113 14 -152.5t120 -38.5v-249q-104 -19 -186.5 -6.5t-142.5 51.5t-97 97t-50.5 130t-1.5 151l43 263 q19 100 22.5 167.5t-10.5 117t-41.5 81.5t-76.5 64h-12l-64 -160q-57 -142 -129.5 -250t-144 -171.5t-153.5 -103t-151 -53.5t-143 -14q-104 0 -191 27t-147 72.5t-101.5 106.5t-61 128.5t-19.5 138.5z" />
<glyph unicode="Ki" horiz-adv-x="2623" d="M-125 264q0 99 37 187t103.5 152.5t168 97.5t222.5 22v-301q-69 5 -116.5 -10t-68 -42.5t-28 -51t-7.5 -48.5q0 -74 59 -126t134 -52q136 0 241.5 118t200.5 345l256 627q-44 -11 -108.5 -26t-98 -23t-77.5 -20.5t-66 -23.5t-44.5 -27.5t-31 -36.5t-8.5 -46 q0 -34 15.5 -57t40.5 -32.5t43 -12.5t36 -3v-296q-198 0 -320.5 106.5t-121.5 280.5q0 73 21 133t55 102.5t91 79.5t114.5 61.5t142 51t157 45t174.5 47t181 53.5q128 125 305 125l65 -190q-4 -2 -11.5 -6t-29 -20t-40 -35t-41 -53t-37.5 -73l-215 -526q229 -59 379 280 l120 299q23 57 55.5 109.5t82 106t120.5 86t152 32.5q113 0 195.5 -43t173.5 -127q63 -18 105 -70.5t42 -119.5q0 -80 -59 -139.5t-140 -59.5q-91 0 -149.5 73t-44.5 161q-56 43 -111.5 17.5t-95.5 -122.5q-33 -81 -76 -182q-179 -430 -473 -483q162 -106 107 -420 q-9 -48 -26 -145.5t-26 -145.5q-11 -113 14 -152.5t120 -38.5v-249q-104 -19 -186.5 -6.5t-142.5 51.5t-97 97t-50.5 130t-1.5 151q5 39 12.5 83.5t16.5 97.5t14 82q19 100 22.5 167.5t-10.5 117t-41.5 81.5t-76.5 64h-12l-64 -160q-57 -142 -129.5 -250t-144 -171.5 t-153.5 -103t-151 -53.5t-143 -14q-104 0 -191 27t-147 72.5t-101.5 106.5t-61 128.5t-19.5 138.5zM1935 156.5q-14 60.5 0 150t58 197.5l225 559h362l-243 -606q-28 -69 -42.5 -119t-17.5 -76.5t2 -42t12.5 -19t18.5 -3.5q60 0 154 96.5t202 281.5q35 -3 72 -30t51 -58 q-61 -108 -127.5 -196t-144 -162t-165 -115t-175.5 -41q-61 0 -110 19t-83.5 61.5t-48.5 103z" />
<glyph unicode="Kh" horiz-adv-x="3256" d="M-125 264q0 99 37 187t103.5 152.5t168 97.5t222.5 22v-301q-69 5 -116.5 -10t-68 -42.5t-28 -51t-7.5 -48.5q0 -74 59 -126t134 -52q136 0 241.5 118t200.5 345l256 627q-44 -11 -108.5 -26t-98 -23t-77.5 -20.5t-66 -23.5t-44.5 -27.5t-31 -36.5t-8.5 -46 q0 -34 15.5 -57t40.5 -32.5t43 -12.5t36 -3v-296q-198 0 -320.5 106.5t-121.5 280.5q0 73 21 133t55 102.5t91 79.5t114.5 61.5t142 51t157 45t174.5 47t181 53.5q128 125 305 125l65 -190q-4 -2 -11.5 -6t-29 -20t-40 -35t-41 -53t-37.5 -73l-215 -526q229 -59 379 280 l120 299q17 44 42 86.5t64.5 88.5t86.5 80t111.5 56.5t136.5 22.5q136 0 270.5 -48t286.5 -157l-207 -514q7 6 19 15t50.5 32.5t78 41.5t96.5 32.5t110 14.5q102 0 154.5 -50t52.5 -135q0 -80 -59 -225l-90 -223q-27 -66 -42 -115t-18.5 -76.5t1 -43.5t12.5 -20.5t20 -4.5 q60 0 154 96.5t202 281.5q35 -3 72 -30t51 -58q-66 -115 -132.5 -203.5t-144 -161t-166.5 -111t-183 -38.5q-181 0 -226 138t60 405l12 33q72 174 72 207q0 20 -14 31.5t-38 11.5q-40 0 -103 -37t-122 -105l-266 -657h-363l547 1358q-52 20 -99.5 20.5t-91.5 -34t-71 -101.5 l-76 -182q-179 -430 -473 -483q162 -106 107 -420l-52 -291q-11 -113 14 -152.5t120 -38.5v-249q-104 -19 -186.5 -6.5t-142.5 51.5t-97 97t-50.5 130t-1.5 151l43 263q19 100 22.5 167.5t-10.5 117t-41.5 81.5t-76.5 64h-12l-64 -160q-42 -106 -93 -193.5t-102.5 -148 t-109.5 -106.5t-110 -72.5t-109 -43.5t-103 -22.5t-94 -5.5q-104 0 -191 27t-147 72.5t-101.5 106.5t-61 128.5t-19.5 138.5z" />
<glyph unicode="&#xd;" horiz-adv-x="778" />
<glyph unicode=" "  horiz-adv-x="512" />
<glyph unicode="&#x09;" horiz-adv-x="512" />
<glyph unicode="&#xa0;" horiz-adv-x="512" />
<glyph unicode="!" horiz-adv-x="884" d="M141 203q0 95 66.5 162t163.5 67t164 -67t67 -162q0 -97 -67 -163.5t-164 -66.5t-163.5 66.5t-66.5 163.5zM391 526l287 942h420l-482 -942h-225z" />
<glyph unicode="&#x22;" horiz-adv-x="1077" d="M141 641l156 711q12 60 62.5 101.5t119.5 41.5q79 0 137 -55.5t58 -128.5q0 -63 -31 -115l-342 -555h-160zM659 641l156 711q14 61 64 102t118 41q81 0 138 -55.5t57 -128.5q0 -69 -31 -115l-342 -555h-160z" />
<glyph unicode="#" horiz-adv-x="1566" d="M-57 317l106 254h258l129 326h-258l105 254h258l127 317h311l-129 -317h240l129 317h309l-127 -317h260l-105 -254h-262l-129 -326h262l-106 -254h-260l-127 -317h-307l127 317h-242l-127 -317h-309l127 317h-260zM614 571h242l131 326h-242z" />
<glyph unicode="$" horiz-adv-x="1048" d="M7 415q4 48 14 93.5t23 79t26 55.5h311q-19 -32 -35 -67.5t-28 -76.5t-9 -78.5t23 -60.5l119 291q-46 47 -77 83.5t-65 87t-51.5 105t-17.5 111.5q0 76 21.5 140t59.5 109t89 79t109.5 50.5t121.5 23t125 -3.5l68 166h153l-82 -201q84 -30 134 -88.5t63 -123t8 -133.5 t-21 -119t-34 -81h-312q125 198 56 277l-119 -297q95 -97 127 -140q88 -115 88 -235q0 -60 -18 -119t-59 -115t-100.5 -96.5t-151 -62t-201.5 -13.5l-70 -172h-154l82 207q-65 19 -111 54.5t-68 78.5t-31.5 93.5t-5.5 98.5zM475 330q40 4 67.5 22t38.5 41t15 38t4 26 q0 34 -39 90zM530 1055q0 -42 43 -94l86 208q-32 1 -57 -10.5t-38 -27t-21.5 -33.5t-10.5 -28.5t-2 -14.5z" />
<glyph unicode="%" horiz-adv-x="1542" d="M109 858q0 131 92.5 223.5t222.5 92.5t222.5 -92.5t92.5 -223.5q0 -130 -92.5 -222.5t-222.5 -92.5t-222.5 92.5t-92.5 222.5zM213 0l969 1174h248l-971 -1174h-246zM342 858q0 -34 24 -59t58 -25q35 0 59.5 25t24.5 59t-24.5 58t-59.5 24q-34 0 -58 -24t-24 -58z M899 315q0 131 93 223.5t225 92.5q130 0 222.5 -92.5t92.5 -223.5t-92 -223t-223 -92q-132 0 -225 92t-93 223zM1133 315q0 -34 24.5 -58t59.5 -24q34 0 57.5 24t23.5 58q0 35 -23.5 59.5t-57.5 24.5q-35 0 -59.5 -24.5t-24.5 -59.5z" />
<glyph unicode="&#x26;" horiz-adv-x="1499" d="M2 489q0 135 64.5 252.5t176 191t244.5 83.5q-18 56 -18 112q0 190 133 314.5t332 124.5q95 0 171 -31t121 -81.5t68 -109t23 -120.5q0 -127 -86 -219.5t-211 -92.5q-110 0 -167 69.5t-42 154.5q5 54 45.5 91.5t97.5 37.5q65 0 117 -52q-5 38 -19.5 62.5t-36 35t-39 14 t-40.5 3.5q-78 0 -134.5 -58.5t-56.5 -144.5q0 -123 105 -213l-156 -229q-7 6 -19.5 15t-53.5 24.5t-84 15.5q-101 0 -170.5 -71t-69.5 -174q0 -97 65 -166.5t193 -69.5q133 0 216 74.5t91 183.5q-40 -11 -64.5 -23.5t-37.5 -33t-17 -35t-10 -47.5h-188q8 73 26.5 129 t50.5 97t69.5 69.5t93 49t110.5 33.5t133 25q195 30 239.5 58.5t6.5 126.5l215 79q66 -137 60.5 -237.5t-99 -165.5t-279.5 -90q-6 -114 -54 -219t-127 -184.5t-193 -127t-244 -47.5q-124 0 -229 42.5t-174.5 114t-108.5 165t-39 194.5z" />
<glyph unicode="'" horiz-adv-x="559" d="M141 641l156 711q12 60 62.5 101.5t119.5 41.5q79 0 137 -55.5t58 -128.5q0 -63 -31 -115l-342 -555h-160z" />
<glyph unicode="(" horiz-adv-x="935" d="M-31 51q0 88 64 238l393 973q28 69 58.5 121t86 118t146 138t221.5 155l174 -291q-162 -101 -247 -190t-126 -191l-329 -817q-4 -10 -20.5 -50t-23.5 -58t-18 -50t-15.5 -55.5t-4.5 -42.5q0 -36 18 -80t36 -70l17 -26l-270 -192q-7 9 -17.5 24t-38 60t-48.5 88 t-38.5 98.5t-17.5 99.5z" />
<glyph unicode=")" horiz-adv-x="935" d="M-4 -29q162 101 247 190t126 191l331 817q4 10 20.5 50t23.5 58t18 50t15.5 55.5t4.5 42.5q0 36 -18 80.5t-36 70.5l-17 26l270 192q6 -9 17 -24t38 -60.5t48 -88.5t38 -98.5t17 -99.5q0 -87 -64 -237l-393 -973q-28 -69 -58.5 -121t-86 -118t-146 -138t-221.5 -155z" />
<glyph unicode="*" horiz-adv-x="866" d="M97 990.5q16 62.5 73 99.5q18 10 104 22q-35 9 -48.5 13t-28.5 10t-23 14q-52 42 -58 106t34 113q41 47 105.5 51t113.5 -37q17 -15 53 -92q0 91 8 107q25 61 83.5 87t115.5 3q59 -23 84 -83.5t0 -121.5q-6 -16 -72 -82q79 31 102 31q66 -5 109 -52t39 -110 q-4 -64 -53.5 -106t-114.5 -37q-27 4 -100 43q7 -10 17.5 -24t16 -21t11.5 -16t9 -15t5 -12q17 -64 -16 -120.5t-93 -70.5q-61 -15 -115 18.5t-71 98.5q-5 18 8 104q-7 -11 -19.5 -29.5t-17.5 -26t-13 -16t-15 -12.5q-56 -34 -118.5 -20t-96.5 67q-34 54 -18 116.5z" />
<glyph unicode="+" horiz-adv-x="1247" d="M51 432l129 309h297l125 310h342l-125 -310h303l-127 -309h-301l-127 -309h-338l123 309h-301z" />
<glyph unicode="," horiz-adv-x="757" d="M53 -283q87 65 144 126t74 90t24 53q-70 25 -112 84t-42 133q0 95 66.5 162t163.5 67q93 0 162 -63.5t69 -184.5q0 -89 -41 -182.5t-109 -173t-144.5 -144.5t-157.5 -114z" />
<glyph unicode="-" horiz-adv-x="1099" d="M260 479l88 217h613l-89 -217h-612z" />
<glyph unicode="." horiz-adv-x="757" d="M141 203q0 95 66.5 162t163.5 67t164 -67t67 -162q0 -97 -67 -163.5t-164 -66.5t-163.5 66.5t-66.5 163.5z" />
<glyph unicode="/" horiz-adv-x="958" d="M102 -254l793 1966h154l-793 -1966h-154z" />
<glyph unicode="0" horiz-adv-x="1159" d="M2 375q0 68 13.5 158t44 197.5t73.5 213.5t108 206t141.5 176.5t180 122.5t217.5 46q99 0 174 -34.5t117.5 -93.5t63 -128t20.5 -147q0 -57 -11 -132.5t-32.5 -166.5t-57 -185t-80.5 -186t-107.5 -173t-134.5 -142.5t-164 -97.5t-193 -36q-79 0 -143 22.5t-106 60.5 t-70.5 90t-41 109t-12.5 120zM313 342q0 -65 25.5 -90t56.5 -25q62 0 144 110t148 257.5t112.5 299t46.5 232.5q0 54 -21.5 84.5t-54.5 30.5q-53 0 -118.5 -72t-123.5 -182.5t-107.5 -233t-78.5 -234.5t-29 -177z" />
<glyph unicode="1" horiz-adv-x="944" d="M37 690q120 113 234 234.5t190 214.5t135.5 170t87.5 118l27 41h354l-592 -1468h-354l325 807q-19 -19 -79.5 -82.5t-104 -106.5t-86.5 -83z" />
<glyph unicode="2" horiz-adv-x="1218" d="M-131 0l137 338q34 18 90 49.5t201 122t254 172.5q319 237 319 414q0 52 -24.5 87.5t-75.5 35.5q-89 0 -151 -106t-62 -239h-354q0 50 7.5 103t27.5 115t49.5 118t78 109t109 91.5t145.5 61.5t185 23q96 0 173 -21.5t127 -56.5t83 -83t47 -98.5t14 -105.5 q0 -87 -37.5 -176.5t-91.5 -160.5t-131.5 -143.5t-140.5 -120t-135 -95.5l-166 -106h459l-132 -328h-1005z" />
<glyph unicode="3" horiz-adv-x="1196" d="M-23.5 381.5q3.5 61.5 20 118t42.5 106.5h362q-28 -45 -48 -103t-25.5 -116t23.5 -97.5t95 -39.5q45 0 85.5 19t68.5 49t48.5 66.5t30 72t9.5 65.5q0 36 -16 63.5t-37.5 42.5t-56 23.5t-59.5 11.5t-60 1.5t-46 -2.5t-28 -3l102 250q74 0 134 11t97.5 27.5t65.5 39.5 t41.5 43t21.5 42.5t9.5 33.5t1.5 20q0 5 -1 12.5t-6.5 22.5t-16 27t-32 21.5t-50.5 9.5q-151 0 -189 -246h-352q10 68 31.5 133t67.5 138t109.5 126.5t164 89t223.5 35.5q66 0 121.5 -10.5t95 -26.5t70.5 -41t50.5 -48t33.5 -53.5t20.5 -51t9.5 -48t3.5 -37t0.5 -24.5 q0 -111 -83 -212.5t-255 -156.5q152 -73 152 -260q0 -72 -21 -146.5t-69 -148t-117 -130.5t-173.5 -92.5t-229.5 -35.5q-101 0 -180.5 23t-129 62.5t-81.5 92t-42 111t-6.5 120z" />
<glyph unicode="4" horiz-adv-x="1251" d="M-70 360l127 312l723 796h494l-320 -790q36 4 66 16t42 22l13 9l144 -156q-5 -9 -14.5 -23t-44 -50.5t-76 -64t-111 -50t-146.5 -21.5l-145 -360h-354l145 360h-543zM352 672h246l197 487z" />
<glyph unicode="5" horiz-adv-x="1218" d="M-9.5 342.5q0.5 58.5 12 114.5t32.5 110h368q-40 -82 -48 -156.5t19 -120.5t83 -46q68 0 134 64.5t106 162t40 191.5q0 124 -86 124q-118 0 -205 -165l-327 71l317 776q487 -82 553 -82q105 0 209 82l141 -161q-20 -28 -30 -41t-35 -41.5t-45 -44t-55 -37.5t-70.5 -33.5 t-85 -20t-105.5 -8.5q-26 0 -100 8.5t-135 16.5l-60 8l-65 -164q11 8 31.5 19.5t81 31t116.5 19.5q68 0 123 -22.5t90 -59t58.5 -85t33 -98t9.5 -100.5q0 -52 -10 -110.5t-33.5 -125.5t-58.5 -129.5t-89.5 -120.5t-121.5 -101t-159.5 -69t-199.5 -26q-96 0 -171.5 20 t-124 55t-80.5 82.5t-45 100.5t-12.5 111.5z" />
<glyph unicode="6" horiz-adv-x="1198" d="M27 387q0 76 15.5 170t48 200.5t79 210.5t113.5 199.5t146 168.5t182 116t216 43q212 0 313.5 -139t41.5 -371h-365q16 36 27 73t16 77t-10.5 65t-52.5 25q-72 0 -138.5 -86.5t-146.5 -253.5q107 71 244 71q79 0 139 -25t95 -69t52.5 -99.5t18.5 -121.5q0 -91 -30 -186.5 t-87.5 -181t-133 -153t-173.5 -107.5t-203 -40q-24 0 -48.5 2t-67.5 11t-79 24.5t-77 47t-69.5 73.5t-47 108t-18.5 148zM352 358q0 -114 84 -114q65 0 131.5 64.5t107 150.5t40.5 153q0 47 -24.5 77t-67.5 30q-50 0 -110.5 -36t-113.5 -93q-47 -146 -47 -232z" />
<glyph unicode="7" horiz-adv-x="1042" d="M23 0q40 97 102.5 208t119.5 198t148 207.5t142 184.5t149.5 184t126.5 155q-42 -7 -74 -7q-20 0 -49 2.5t-75.5 8t-71.5 8.5l-97 -242h-354l225 561q518 -82 584 -82q105 0 209 82l131 -149q-7 -10 -68 -92.5t-89.5 -122.5t-96.5 -136.5t-111.5 -164t-110.5 -175 t-117.5 -199t-108.5 -205.5t-107 -224h-407z" />
<glyph unicode="8" horiz-adv-x="1214" d="M-45 338q0 165 106 298t297 179q-3 2 -10 7.5t-20.5 22.5t-24 38.5t-19 58t-8.5 78.5q0 63 17 126t59 127t105 112.5t163.5 79t225.5 30.5q97 0 172.5 -18.5t121.5 -48.5t75.5 -72.5t41 -85t11.5 -90.5q0 -134 -85.5 -247.5t-238.5 -164.5q117 -78 117 -246 q0 -72 -20 -144.5t-67.5 -146.5t-117.5 -130.5t-180.5 -92t-245.5 -35.5q-219 0 -347 91.5t-128 273.5zM319 362q0 -63 38.5 -92.5t91.5 -29.5q96 0 170.5 88.5t74.5 185.5q0 63 -34.5 95t-88.5 32q-65 0 -124.5 -43.5t-93.5 -108.5t-34 -127zM651 1026q0 -44 23.5 -69 t58.5 -25q60 0 112 65.5t52 135.5q0 43 -22 67.5t-58 24.5q-60 0 -113 -64t-53 -135z" />
<glyph unicode="9" horiz-adv-x="1138" d="M-24.5 329q1.5 74 24.5 154h365q-13 -25 -25 -61t-18.5 -78t9.5 -71t58 -29q63 0 132 84.5t149 253.5q-115 -70 -244 -70q-79 0 -139 25t-95 69t-52.5 99.5t-18.5 121.5q-1 91 29 186.5t87.5 181t133 153t174 107.5t203.5 40q24 0 48.5 -2t67.5 -11t79 -24.5t77 -47 t69.5 -73.5t47 -108t18.5 -148q0 -76 -15.5 -170t-48 -200.5t-79 -210.5t-114 -199.5t-146.5 -168.5t-182 -116t-216 -43q-87 0 -159 28t-118.5 76t-74.5 113t-26.5 139zM467 856q0 -47 24.5 -76.5t67.5 -29.5q49 0 109 35t114 89q45 157 45 236q0 115 -82 115 q-66 0 -132.5 -64.5t-106 -151t-39.5 -153.5z" />
<glyph unicode=":" horiz-adv-x="770" d="M141 203q0 95 66.5 162t163.5 67t164 -67t67 -162q0 -97 -67 -163.5t-164 -66.5t-163.5 66.5t-66.5 163.5zM342 698q0 97 65.5 164.5t161.5 67.5q97 0 164.5 -67.5t67.5 -164.5q0 -96 -67.5 -161.5t-164.5 -65.5t-162 65t-65 162z" />
<glyph unicode=";" horiz-adv-x="770" d="M53 -283q67 50 116 96.5t73.5 80.5t35.5 55t15 37q-69 27 -110.5 85t-41.5 132q0 97 66.5 164t163.5 67t163 -68t66 -161q0 -83 -28 -164.5t-72 -147t-105.5 -128.5t-120 -108t-124.5 -87zM342 698q0 97 65.5 164.5t161.5 67.5q97 0 164.5 -67.5t67.5 -164.5 q0 -96 -67.5 -161.5t-164.5 -65.5t-162 65t-65 162z" />
<glyph unicode="&#x3c;" horiz-adv-x="1349" d="M63 444l97 248l1155 398l-158 -385l-534 -185l387 -184l-117 -289z" />
<glyph unicode="=" horiz-adv-x="1286" d="M-25 233l125 312h940l-122 -312h-943zM133 627l125 311h942l-125 -311h-942z" />
<glyph unicode="&#x3e;" horiz-adv-x="1333" d="M-94 43l157 385l537 186l-387 187l117 289l827 -402l-98 -246z" />
<glyph unicode="?" horiz-adv-x="1107" d="M141 203q0 95 66.5 162t163.5 67t164 -67t67 -162q0 -97 -67 -163.5t-164 -66.5t-163.5 66.5t-66.5 163.5zM190 989q0 71 14.5 139t54.5 141t100.5 127t162 89t230.5 35q94 0 170.5 -22.5t124 -58.5t79.5 -83t45 -93t13 -92q0 -67 -22 -125t-58.5 -102.5t-82 -84 t-95.5 -77.5t-95.5 -75t-86 -84t-62.5 -97h-313q21 73 65.5 144t95 123t105.5 104.5t98.5 92.5t72 83t28.5 80q0 38 -23.5 73.5t-75.5 35.5q-82 0 -145.5 -74.5t-63.5 -198.5h-336z" />
<glyph unicode="@" horiz-adv-x="2203" d="M225 309q0 152 42.5 304t130.5 292.5t210.5 249t297 173.5t374.5 65q153 0 280 -38t213 -102.5t145.5 -152t86.5 -183t27 -198.5q0 -138 -50 -274t-134.5 -241t-204.5 -170t-250 -65q-75 0 -131.5 22.5t-83.5 54.5t-43.5 64.5t-19.5 55.5l-3 22q-5 -6 -14.5 -15.5 t-39 -33.5t-59.5 -43t-74.5 -34t-86.5 -15q-91 0 -148 62t-57 167q0 48 12 115t35 146t63 155t90 139t121 101.5t152 38.5q49 0 89 -14t63 -34.5t38.5 -40.5t21.5 -34l5 -14l346 114l-196 -483q-35 -83 -50.5 -125t-23 -81.5t5 -54t45.5 -14.5q64 0 124 56.5t99.5 139.5 t63.5 175t24 166q0 124 -66 221.5t-175.5 149t-239.5 51.5q-135 0 -258.5 -49.5t-216 -132.5t-161.5 -188.5t-104.5 -222t-35.5 -228.5q0 -109 32 -198.5t97.5 -159t176.5 -108t259 -38.5q83 0 195 26t206 82l117 -172q-236 -176 -577 -176q-171 0 -313.5 46.5t-248 135.5 t-164.5 228t-59 315zM926 346q0 -59 55 -59q25 0 51 11t44.5 26.5t34 31t23.5 26.5l7 11l100 246q-7 86 -74 86q-58 0 -116.5 -76t-91.5 -164t-33 -139z" />
<glyph unicode="A" horiz-adv-x="1894" d="M-131 354q0 66 19.5 129.5t60 121t98 100.5t140 68.5t178.5 25.5q173 0 389 -90l354 602q14 23 41.5 71.5t41.5 72.5t41 64.5t46 61t49.5 48t59.5 40.5t67 23t80 10q115 0 195 -58q81 -58 109 -152q15 -48 14 -100q0 -49 -13 -100l-248 -948h27t32.5 0.5t35 5.5 t41.5 13.5t44 25.5t51 41t54 61t61 84q35 -3 72 -30t51 -58q-67 -120 -120.5 -192.5t-115.5 -121.5q-64 -49 -134 -64q-42 -9 -93 -9q-34 0 -71 4l-117 -446l-319 158l104 383q-128 54 -295 141q-76 -118 -158 -198.5t-194 -131.5t-240 -51q-204 0 -321 114.5t-117 280.5z M176 369q0 -41 26.5 -69t57 -37t59.5 -9q8 0 20 1.5t44.5 13t65 32t77 64.5t84.5 104q-133 47 -233 47q-98 0 -149.5 -44t-51.5 -103zM1036 567q191 -95 230 -114l229 837l-20 8z" />
<glyph unicode="B" horiz-adv-x="1812" d="M-59 260q0 44 11.5 88t39.5 88.5t70 78.5t108 55.5t147 21.5q78 0 143.5 -20.5t147.5 -69.5q11 23 21 46t18 42t10 24l187 465q23 56 60.5 108t90.5 98t125 73.5t152 27.5l65 -190q-4 -1 -10.5 -4t-26 -16.5t-37.5 -32.5t-42 -54t-43 -79l-13 -27q41 -14 84 -14 q21 1 41 3q66 10 120 36.5t90 80.5t36 121q0 109 -86.5 181.5t-251.5 72.5q-118 0 -218.5 -40t-163 -102.5t-97.5 -134t-35 -138.5q0 -39 12 -85t24 -72l11 -26l-242 -178q-4 6 -11 17.5t-24 48t-30 76t-24 98t-11 116.5q0 108 36.5 211.5t107.5 192t167.5 155.5t226 105.5 t273.5 38.5q201 0 352 -70t228.5 -188.5t77.5 -267.5q0 -66 -16 -123.5t-42 -97t-57 -72t-62.5 -51.5t-57.5 -31.5t-42 -17.5l-16 -5q7 -6 19 -16.5t42 -48t52.5 -80.5t41.5 -112.5t19 -143.5q0 -97 -30.5 -190t-88 -171.5t-153 -127t-214.5 -48.5q-128 0 -253.5 57 t-272.5 167q-175 -185 -408 -185q-76 0 -140 20.5t-107.5 54t-73.5 77.5t-43.5 90.5t-13.5 93.5zM211 281q0 -39 29.5 -57.5t68.5 -18.5q86 0 172 96q-85 64 -157 64q-54 0 -83.5 -23.5t-29.5 -60.5zM879 315q158 -114 286 -114q111 0 172.5 68t61.5 161q0 21 -3.5 46 t-22.5 69t-50.5 81t-95.5 74t-150 56q-96 -230 -108 -256q-47 -108 -90 -185z" />
<glyph unicode="C" horiz-adv-x="1587" d="M0 1102q0 156 73 280.5t195 194.5l174 -254l-24 -11q-84 -50 -101 -159q-4 -25 -4 -51l-1 -9v-17t1 -22.5t4 -27.5t9 -30.5t14.5 -33t22 -33t31 -32.5t42 -29.5t53.5 -25.5q47 131 109 253t145 235.5t174 197t202 134t224 50.5q95 0 170.5 -34.5t121.5 -94t70 -134 t24 -159.5q0 -158 -92.5 -324.5t-266.5 -287.5q-254 -168 -606 -168h2q-16 -94 -16 -166q0 -223 196 -223q52 0 114 14t139 48t150 84t148 130t133 178q35 -3 72 -30t51 -58q-164 -284 -395 -444t-502 -160q-231 0 -349 121.5t-118 337.5q0 105 23 217q-195 65 -303.5 205.5 t-108.5 337.5zM856 811q190 24 318 125q95 76 139.5 169.5t44.5 158.5q0 86 -74 86q-99 0 -218 -157.5t-210 -381.5z" />
<glyph unicode="D" horiz-adv-x="2048" d="M-61 258q0 44 12 89t40 89.5t69 78.5t104.5 55.5t140.5 21.5q160 0 352 -119q28 55 50 105l184 454q23 55 61 107t91 98t125.5 74t152.5 28l65 -190q-4 -2 -11.5 -6t-29 -19.5t-40.5 -35t-42 -53t-38 -72.5q-189 -467 -189 -469q-40 -105 -110 -222q133 -94 254 -94 q111 0 209.5 72.5t163 186t102 250t37.5 267.5q0 82 -15 152t-49.5 131t-85.5 103.5t-127.5 67t-171.5 24.5q-102 0 -189.5 -27t-147 -71t-102 -101t-62 -116t-19.5 -116q0 -43 11.5 -89.5t23.5 -71.5l12 -25l-242 -180q-4 6 -11 17t-24 48t-30 76t-24 98.5t-11 118.5 q0 106 32 208.5t100 195t165 162.5t236 111.5t303 41.5q159 0 289.5 -37.5t222.5 -105.5t155 -163.5t93 -210.5t30 -247q0 -99 -16 -202t-50.5 -207.5t-84 -200t-120.5 -178.5t-156 -144t-195 -96t-232 -35q-74 0 -136 13t-116.5 42t-94.5 57.5t-97 76.5 q-177 -150 -416 -150q-91 0 -163 22.5t-115.5 57t-72 80.5t-39.5 88.5t-11 85.5zM207 279q0 -38 30 -56t78 -18q102 0 193 78q-116 82 -189 82q-54 0 -83 -24.5t-29 -61.5z" />
<glyph unicode="E" horiz-adv-x="1327" d="M0 383q0 138 55 259t143 200t198 120q89 33 177 33q22 0 43 -2q-14 45 -14 127q0 166 74 299q-59 163 -59 348q0 17 1 35l234 -33q0 -82 14 -145q145 94 328 94q103 0 182.5 -30.5t125.5 -82t68.5 -111.5t22.5 -126q0 -71 -27.5 -136t-77.5 -115.5t-127 -80.5t-169 -30 q-150 0 -270 69q13 -133 95 -210q20 -18 24 -18l-3 3l-176 -262q-4 3 -11.5 9t-32 20.5t-51 25.5t-67.5 20t-82 9q-124 0 -196 -74.5t-72 -204.5q0 -132 74.5 -219.5t204.5 -87.5q64 0 119.5 25.5t92.5 68.5t57 97q19 49 19 104v11q-2 61 -28 118l303 88q42 -122 41 -233 q1 -49 -7 -95q-26 -152 -110 -263.5t-216.5 -175.5t-283.5 -64q-177 0 -319 83t-219.5 223.5t-77.5 309.5zM999 1339q75 -69 172 -69q115 0 115 67q0 36 -34 54t-83 18q-100 0 -170 -70z" />
<glyph unicode="F" horiz-adv-x="1536" d="M0 264q0 98 36 185t102 152t168 99q77 26 166 26q29 0 58 -3v-301q-16 1 -31 1q-37 0 -67 -7q-42 -10 -64.5 -26.5t-36 -40.5t-17 -43t-3.5 -40q0 -82 56.5 -128t121.5 -46q126 0 231.5 119t203.5 344l49 125h-182l73 182h183l167 416q-96 10 -295.5 58t-283.5 48 q-100 0 -149.5 -40t-49.5 -97q0 -54 35.5 -80t83.5 -26q36 0 70.5 14.5t51.5 29.5l17 15l144 -219q-5 -5 -14.5 -13t-40.5 -28.5t-64.5 -36t-85 -28.5t-103.5 -13q-74 0 -142.5 24t-124 69.5t-89 119t-33.5 164.5q0 84 29 159t86 135.5t152 96t217 35.5q90 0 203.5 -21 t201.5 -44q86 -22 188 -36q52 -7 98 -7q44 0 81 6q121 100 278 100l66 -190q-4 -2 -11.5 -6t-28.5 -19.5t-40.5 -34.5t-42.5 -53.5t-39 -73.5l-170 -424h186l-71 -182h-189l-118 -297q-237 -592 -693 -592q-132 0 -235 40.5t-164.5 109t-93 151t-31.5 172.5z" />
<glyph unicode="G" horiz-adv-x="1789" d="M0 1104q0 154 75.5 281.5t192.5 191.5l174 -254q-37 -19 -74 -60q-55 -61 -55 -133q0 -16 1 -30t11 -48t28.5 -60.5t58.5 -57.5t96 -51q51 126 118 242.5t157 224.5t191 187.5t225 127t253 47.5q207 0 318.5 -112.5t111.5 -290.5q0 -83 -22 -160.5t-60 -140.5t-92 -119.5 t-114 -100.5t-130 -81q-146 -77 -322 -116.5t-351 -39.5h-27q-21 -94 -21 -170q0 -60 19.5 -95.5t75.5 -35.5q80 0 184 73t176 175l25 57l387 72l-183 -457q293 200 406 405q35 -3 72 -30t51 -58q-106 -187 -265 -330.5t-378 -265.5q-13 -33 -35.5 -97.5t-39.5 -111.5 t-45.5 -111.5t-55.5 -111.5t-67.5 -97t-85 -81t-104 -51.5t-126.5 -20.5q-68 0 -122 19t-86.5 49t-54 69t-30 75.5t-8.5 75.5q0 200 270 327q29 15 67.5 30.5t92 36.5t86.5 35l65 164q-132 -117 -295 -117q-162 0 -253 110.5t-91 295.5q0 89 29 221q-196 59 -310 189.5 t-114 314.5zM657 -487q0 -27 18 -39.5t40 -12.5q38 0 71 50.5t86 177.5q-67 -23 -112 -49q-43 -24 -73 -58.5t-30 -68.5zM872 844q229 22 396 102q243 130 243 307q0 97 -112 97q-95 0 -196 -72.5t-183 -183.5t-148 -250z" />
<glyph unicode="H" horiz-adv-x="2023" d="M0 356q0 82 31 159.5t90.5 141.5t157 103t219.5 39q148 0 331 -64l209 518q-87 9 -232.5 47.5t-223.5 38.5q-59 0 -100.5 -13t-61 -34.5t-27.5 -41t-8 -40.5q0 -48 32 -70t81 -22q40 0 76 14.5t52 29.5l17 14l145 -220q-5 -5 -14 -12.5t-39.5 -27.5t-64 -35.5t-85 -28 t-104.5 -12.5q-75 0 -143.5 23t-124 67.5t-88.5 117t-33 162.5q0 60 14.5 117t49 113t86 98t132 68t179.5 26t219.5 -27.5t231.5 -52.5q99 -22 176 -22h18q133 133 309 133l68 -190q-4 -2 -11.5 -6.5t-29 -20.5t-41 -35.5t-42.5 -53t-38 -71.5l-278 -694q17 -10 99.5 -55.5 t127.5 -71.5l414 1022h364l-463 -1141q12 0 37.5 -1t40 -1.5t40.5 3t45 11.5t47 25t54 41.5t58.5 62.5t66.5 88q35 -3 72 -30t51 -58q-38 -69 -72 -121.5t-71.5 -98t-75 -76.5t-80.5 -53q-42 -22 -90 -32q-45 -9 -97 -10h-5q-54 0 -117 13l-192 -478l-287 187l162 405 q-42 21 -119 61.5t-119 61.5q-36 -65 -72.5 -116.5t-88.5 -104t-110 -87.5t-136 -57t-166 -22q-105 0 -191.5 32t-143 86.5t-87.5 126.5t-31 152zM307 369q0 -51 44.5 -83t107.5 -32q28 0 58 10t65.5 33t71.5 69t67 111q-119 39 -213 39q-100 0 -150.5 -44.5t-50.5 -102.5z " />
<glyph unicode="I" horiz-adv-x="1335" d="M-125 264q0 99 37 187t103.5 152.5t168.5 97.5q76 25 163 24q29 0 59 -2v-301q-17 1 -33 1q-47 0 -83 -11q-48 -15 -68.5 -42.5t-28 -51t-7.5 -48.5q0 -74 59 -126t134 -52q132 0 240 119t204 344l277 684q-81 -23 -132 -39t-109.5 -37t-93 -39t-65 -41t-44 -48.5 t-13.5 -55.5q0 -34 15.5 -57t41 -32.5t43.5 -12.5t37 -3v-296q-198 0 -320.5 106.5t-121.5 280.5q0 211 182 341q124 88 399 177q54 17 167 51q137 42 208 65q128 125 305 125l66 -190q-4 -2 -11.5 -6t-28.5 -19t-40.5 -34.5t-42.5 -53.5t-39 -73l-387 -965 q-56 -142 -128.5 -250t-144.5 -171.5t-154 -103t-151 -53.5t-143 -14q-104 0 -191 27t-147 72.5t-101.5 106.5t-61 128.5t-19.5 138.5z" />
<glyph unicode="J" horiz-adv-x="1230" d="M-322 -346q0 82 24.5 152t66 124t106 99.5t134 78t161 61t176 47.5t189.5 38l350 868q-32 -15 -89.5 -41.5t-87 -40t-76 -36.5t-71 -38t-58 -36t-50.5 -39t-34.5 -39.5t-24.5 -44t-7 -47.5q0 -34 12 -58.5t28 -37t38.5 -19.5t35.5 -8.5t27 -1.5v-295q-197 0 -322 110 q-124 108 -124 290q0 79 23.5 146.5t61.5 119.5t101.5 103.5t126.5 89.5t155 83t169.5 78.5t186.5 82.5t190 89q131 131 313 131l66 -190q-4 -2 -11.5 -6t-29 -20t-41 -36t-42.5 -54.5t-38 -74.5l-383 -950q112 29 197 85t147 158q35 -3 72 -30t51 -58q-46 -80 -90.5 -137.5 t-110.5 -114.5t-158 -100t-215 -76q-63 -159 -122 -275.5t-129 -211t-148 -152.5t-172.5 -89t-208.5 -31q-151 0 -258 102.5t-107 251.5zM-12 -305q0 -46 25.5 -70t70.5 -24q168 0 332 366q-217 -56 -322.5 -117t-105.5 -155z" />
<glyph unicode="K" horiz-adv-x="1888" d="M-125 264q0 99 37 187t103.5 152.5t168.5 97.5q76 25 163 24q29 0 59 -2v-301q-17 1 -33 1q-47 0 -83 -11q-48 -15 -68.5 -42.5t-28 -51t-7.5 -48.5q0 -74 59 -126t134 -52q138 0 242 117t200 346l256 627q-44 -11 -108.5 -26t-98 -23t-77.5 -20.5t-66 -23.5t-44.5 -27.5 t-31 -36.5t-8.5 -46q0 -34 15.5 -57t40.5 -32.5t43 -12.5t36 -3v-296q-198 0 -320 106t-122 278q0 76 21 136t55 102.5t91 79.5t114.5 61.5t142 51t157 45t174.5 47t181 53.5q128 125 305 125l65 -190q-4 -2 -11.5 -6t-28 -19.5t-39.5 -34.5t-41.5 -53.5t-38.5 -73.5 l-215 -526q34 -9 66 -9q185 0 313 289l122 301q21 54 48.5 99.5t68 89.5t90.5 73.5t116 50.5q63 20 137 21q3 0 7 -1q78 -1 177 -17l-60 -256q-32 5 -62 5h-15q-36 -2 -66.5 -14t-60 -48t-56.5 -99l-76 -184q-177 -428 -473 -483q121 -79 121 -274q0 -66 -14 -146l-52 -291 q-3 -35 -4 -62q0 -63 18 -91q24 -39 115 -38h5v-249q-63 -11 -118 -11q-37 0 -69 4q-82 12 -142 51.5t-97 97.5t-51 130q-7 38 -7 78q0 36 6 73l43 263q18 99 22 167q1 14 1 27q0 51 -11 91q-14 50 -41.5 81.5t-76.5 63.5h-12l-64 -160q-57 -142 -129.5 -250t-144 -171.5 t-153.5 -103t-151 -53.5t-143 -14q-104 0 -191 27t-147 72.5t-101.5 106.5t-61 128.5t-19.5 138.5z" />
<glyph unicode="L" horiz-adv-x="1699" d="M-133 195q0 61 23 123t66.5 117.5t118 90.5t167.5 35q148 0 305 -104q30 67 51 102q-195 66 -305.5 206.5t-110.5 336.5q0 156 73 281t196 194l174 -254l-24 -11q-84 -50 -101 -159q-4 -25 -4 -51q0 -203 217 -268q35 84 60.5 142.5t63.5 138.5t70 136t76 123t86 112.5 t95.5 91.5t108.5 73t121.5 44t137.5 17q70 0 137 -24.5t125 -73.5t93.5 -133t35.5 -191q0 -103 -37.5 -209.5t-120 -214t-200.5 -188.5q-255 -168 -614 -168h-21q-51 -144 -121 -279q80 -74 216.5 -193t205.5 -175q71 -57 112 -75.5t80 -18.5q122 0 273 145l205 -233 q-109 -105 -234 -162.5t-240 -57.5q-96 0 -182.5 40.5t-191.5 123.5q-60 47 -116 97t-148 137t-152 141q-155 -145 -375 -145q-87 1 -156.5 23t-113 57t-72.5 81t-41 90.5t-12 88.5zM143 207q0 -36 27.5 -57t65.5 -21q74 0 155 88q-96 84 -160 84q-37 0 -62.5 -28t-25.5 -66 zM1051 813q186 21 319 123q93 76 138.5 168.5t45.5 150.5q0 97 -90 97q-176 0 -413 -539z" />
<glyph unicode="M" horiz-adv-x="2433" d="M24.5 1065q24.5 65 63.5 113t104.5 91.5t130.5 73.5t158.5 62.5t172 56t188 57.5t190.5 62l295 -164q86 66 191 106t184 40q94 0 149.5 -59t61.5 -146q101 97 225.5 151t216.5 54q99 0 153 -65.5t54 -160.5q0 -93 -76 -284l-424 -1049q-16 -48 -22 -82q-3 -16 -3 -31 q-1 -19 3 -35q6 -32 31.5 -56.5t70.5 -45.5l-108 -270q-127 38 -208 102q-82 64 -112 142q-28 73 -29 148q1 6 1 13q2 83 36 174l342 846q83 204 93 252q2 12 2 21q0 21 -14 33t-36 12q-48 0 -127.5 -51t-154.5 -136l-428 -1067h-363l377 936q94 230 94 273q0 21 -13.5 33 t-37.5 12q-45 0 -119.5 -46t-152.5 -124l-434 -1084h-363l508 1262q-42 -13 -107.5 -32t-102.5 -30.5t-90.5 -28.5t-84 -29t-68.5 -29t-59 -32.5t-41 -34.5t-28.5 -40t-8.5 -45q0 -34 15.5 -56.5t40.5 -32t44 -13t37 -3.5v-294q-198 1 -320 107t-122 277q0 81 24.5 146z" />
<glyph unicode="N" horiz-adv-x="1847" d="M24.5 1065q24.5 65 63.5 113t104.5 91.5t130.5 73.5t158.5 62.5t172 56t188 57.5t190.5 62l256 -266q118 107 243 177.5t232 70.5q103 0 157 -65t54 -163q0 -54 -17.5 -114.5t-58.5 -167.5l-421 -1049q-17 -48 -23 -82q-3 -16 -2 -31q0 -19 4 -35q6 -32 30.5 -56.5 t69.5 -45.5l-108 -270q-103 31 -175.5 79t-110.5 104q-40 56 -54 123q-9 43 -9 86q0 24 3 48q8 67 35 139l342 846q10 26 28.5 72.5t27 69t19.5 52t15 48t4 31.5q0 21 -13.5 33t-31.5 12q-53 0 -173 -88.5t-214 -188.5l-391 -977h-363l508 1264q-44 -14 -129 -39 q-87 -26 -129.5 -39.5t-108 -36.5t-96.5 -40t-65.5 -41t-48 -50t-13.5 -57q0 -34 15.5 -56.5t40.5 -32t44 -13t37 -3.5v-294q-198 1 -320 107t-122 277q0 81 24.5 146z" />
<glyph unicode="O" horiz-adv-x="1517" d="M0 362q0 116 27 248.5t84.5 272.5t138 263.5t197.5 226.5t253 157q139 176 357 176q64 0 122 -15.5t113.5 -53t95.5 -95t64.5 -148.5t24.5 -206q0 -189 -64 -414t-178 -420q198 4 326 221q35 -3 71.5 -30t50.5 -58q-17 -29 -36.5 -56.5t-46.5 -60.5t-56.5 -60.5 t-67 -55.5t-76.5 -46t-86 -32q-45 -14 -93 -15q-2 1 -3 1q-49 0 -106 8q-285 -354 -641 -354q-100 0 -180 29.5t-133.5 80.5t-89.5 121t-52 148.5t-16 166.5zM338 340q0 -108 39 -176t119 -68q142 0 303 213q-11 8 -30 24t-67 75t-84.5 129t-67.5 188t-32 250 q-81 -173 -130.5 -340.5t-49.5 -294.5zM811 958q0 -254 121 -428q86 170 140 344t54 289q0 80 -28.5 128t-79.5 48q-81 0 -144 -99t-63 -282z" />
<glyph unicode="P" horiz-adv-x="1464" d="M-8 1014q0 61 13.5 127t44 138t75.5 138.5t114 127t153.5 105t198.5 71t245 26.5q157 0 284 -38t209.5 -100t138.5 -146t79.5 -172t23.5 -181q0 -162 -71.5 -305.5t-199.5 -236.5q-128 -92 -304 -114q-37 -5 -76 -5q-145 0 -310 65l-217 -541h-362l446 1106q23 56 61 108 t91 98t125.5 73.5t152.5 27.5l66 -190q-4 -2 -11.5 -6t-28 -19.5t-39.5 -35t-42 -53t-39 -72.5l-108 -265q57 -35 129 -39q9 0 17 -1q62 0 122 25q68 28 125 78t92 129.5t35 172.5q0 49 -9 94t-35 94t-67.5 84.5t-112.5 58.5t-163 23q-103 0 -193.5 -28t-153 -74t-108 -105 t-67 -120t-21.5 -119q0 -44 11.5 -91t22.5 -73l11 -25l-240 -180q-4 7 -11.5 19.5t-26 51.5t-33 79.5t-26 99.5t-11.5 115z" />
<glyph unicode="Q" horiz-adv-x="1501" d="M-72 80q0 60 22 121.5t67 118.5t127 93t188 36q116 0 216 -42.5t200 -119.5q172 188 292.5 416.5t120.5 406.5q0 130 -70.5 210.5t-197.5 80.5q-94 0 -179 -45.5t-142.5 -117t-91.5 -157.5t-34 -168q0 -52 14.5 -89.5t37 -55.5t48 -28t50.5 -10t40.5 1.5t22.5 3.5 l-51 -241q-27 -2 -52 -2q-100 0 -179 25q-100 31 -159.5 93.5t-88.5 143t-29 178.5q0 94 27 187.5t76.5 179.5t124 160.5t165.5 129t206.5 86t240.5 31.5q103 0 188.5 -22t144 -58t103 -87t70.5 -103t42.5 -112t22 -109t5.5 -99q0 -238 -153 -522.5t-386 -511.5 q322 -290 373 -332q67 -54 110 -74t82 -20q122 0 273 145l204 -233q-108 -104 -233 -161.5t-238 -57.5q-99 0 -189 43t-190 121q-96 74 -221.5 200.5t-193.5 186.5q-239 -158 -432 -158q-104 0 -193.5 42t-145 120.5t-55.5 175.5zM205 104q0 -45 42.5 -66.5t88.5 -21.5 q81 0 188 72q-126 90 -223 90q-46 0 -71 -21t-25 -53z" />
<glyph unicode="R" horiz-adv-x="1454" d="M-8 1012q0 61 13 127t44 138.5t75.5 139t113 127.5t152.5 105.5t197.5 71t243.5 26.5q158 0 286.5 -39.5t211 -102.5t139 -146t80 -166t23.5 -167q0 -97 -33.5 -193t-95 -177t-155.5 -139.5t-206 -77.5q42 -35 66.5 -81.5t30.5 -100.5q4 -37 4 -70q0 -15 -2 -29 q-2 -44 -11 -100l-51 -291q-3 -35 -4 -63q0 -62 18 -88q24 -38 114 -38h5v-251q-64 -12 -122 -12q-59 1 -111 13q-102 26 -161.5 87.5t-84.5 148.5q-16 54 -16 113q0 35 6 73l43 263q31 136 31 234q0 27 -2 51q-10 112 -89 169q-60 19 -96 37l-256 -631h-362l446 1106 q23 56 61 108t91 98t125.5 73.5t152.5 27.5l66 -190q-4 -2 -11.5 -6t-29 -20t-40.5 -35.5t-41.5 -53t-37.5 -71.5l-70 -174q55 -39 123 -47q17 -2 34 -2q49 -1 96 17q62 24 114.5 67t83.5 108.5t31 138.5q0 42 -8.5 84t-35 90.5t-67.5 85.5t-113.5 61.5t-166.5 24.5 q-127 0 -232.5 -42.5t-170.5 -109.5t-100.5 -144t-35.5 -150q0 -44 11.5 -91t22.5 -73l11 -25l-240 -180q-4 7 -11.5 19t-26 51.5t-33 80t-26 99t-11.5 113.5z" />
<glyph unicode="S" horiz-adv-x="1417" d="M-94 -485q-8 46 -8 93q0 88 29 181q45 142 149 277q-117 161 -117 376q0 118 35 220.5t94.5 176.5t140 124.5t170.5 70.5q55 12 113 12q37 0 75 -6q98 -12 189 -59l-110 -279q-66 38 -130 38h-11q-69 -4 -123 -37t-86.5 -97.5t-32.5 -144.5q0 -87 32 -150 q105 97 337 300.5t280 246.5q-60 250 -60 389q0 222 118.5 356t309.5 134q70 0 127.5 -20.5t95 -53t62.5 -75.5t36 -87t11 -88q0 -70 -27 -143.5t-78.5 -146.5t-107.5 -136.5t-133 -138.5q45 -214 45 -350q0 -206 -93 -362.5t-252 -238t-359 -81.5q-205 0 -369 90 q-80 -94 -110 -185q-17 -53 -17 -115q0 -44 8 -91h-233zM506 145q49 -16 121 -16q160 0 261 114t101 277q0 8 -1 25t-1 26q-96 -88 -265 -235.5t-216 -190.5zM1207 1308q-1 -10 -1 -16q0 -10 2 -13v-1q0 -50 17 -137q123 131 123 227q0 62 -56 62q-34 0 -54.5 -22t-24.5 -49 t-6 -51z" />
<glyph unicode="T" horiz-adv-x="1394" d="M0 373q0 77 21.5 148t66 131.5t106.5 103.5q64 42 150 62q62 15 131 15q27 0 55 -2v-301q-17 1 -32 1q-36 -1 -66 -7q-42 -10 -64.5 -26t-36 -40t-17 -43t-3.5 -40q0 -84 56.5 -129t128.5 -45q69 0 127.5 30t110 93t95.5 142.5t95 197.5l262 649q-16 3 -76 16.5t-79 17.5 t-71.5 15t-75 15.5t-65.5 12.5t-67.5 11.5t-57 8t-57.5 6t-47 1.5q-93 0 -140 -30.5t-47 -86.5q0 -50 37 -76t84 -26q35 0 68.5 15t49.5 29l17 15l146 -219q-5 -5 -14 -13t-39.5 -28t-64 -35.5t-85 -28.5t-104.5 -13q-75 0 -143.5 23.5t-124 69t-88.5 120t-33 167.5 q0 66 17 126.5t55.5 115t95.5 94t142.5 63t190.5 23.5q115 0 285 -29.5t317 -64.5t317.5 -64.5t285.5 -29.5q87 0 149 15t81 29l19 15l191 -106q-1 -5 -3 -14.5t-14 -36.5t-29 -51t-51 -54t-76.5 -51.5t-109.5 -36t-147 -14.5q-176 0 -299 20l-307 -757q-233 -592 -697 -592 q-130 0 -232.5 40.5t-164 109t-93.5 151t-32 172.5z" />
<glyph unicode="U" horiz-adv-x="1884" d="M14 929.5q14 51.5 37 93t62.5 79.5t79.5 66t100 57.5t111.5 50t127 45.5t134 43t144 44t146.5 46q60 73 147 118.5t193 45.5l66 -191q-4 -2 -11.5 -6t-28.5 -19t-40 -34.5t-42 -53.5t-38 -73l-289 -715q-49 -126 -61 -194q-6 -38 -7 -58q1 -18 5 -22q10 -10 29 -10 q79 0 206 99t197 234l365 912h362l-403 -1012q-23 -60 -33.5 -104.5t-10.5 -69.5t8.5 -39.5t20 -19t27.5 -4.5q65 0 133 74.5t176 262.5q35 -3 72 -30t51 -58q-64 -112 -125.5 -197t-135.5 -160.5t-159 -116t-174 -40.5q-50 0 -93 13.5t-79 41.5q-37 26 -55 76 q-13 37 -13 83q0 15 1 32q-240 -297 -480 -297q-72 0 -126.5 26t-86.5 80q-33 52 -41 128q-2 21 -2 44q0 62 15 138q21 106 73 229l215 535q-66 -19 -105 -31t-92 -29.5t-83.5 -30t-67.5 -29.5t-57 -32t-39 -34t-27 -39t-8 -43q0 -34 15.5 -57t41 -32.5t43.5 -12.5t37 -3 v-297q-198 0 -320 106t-122 278q0 62 14 113.5z" />
<glyph unicode="V" horiz-adv-x="1761" d="M14 956q14 51 36.5 92t61.5 78.5t78.5 66t99 57t110.5 49t125 45.5t132 42.5t142.5 43t144.5 45.5q129 188 377 188l65 -190q-6 -1 -15.5 -4t-35 -17.5t-48 -35t-46 -60.5t-35.5 -90l-188 -867q137 108 251.5 245t190.5 270.5t131.5 274.5t83 258t37.5 222l338 43 q-5 -65 -14 -130.5t-30 -161t-49.5 -188t-75.5 -205t-106 -217t-144 -220t-185.5 -219t-234.5 -207t-287 -191.5h-355l258 1166q-276 -81 -364 -120q-140 -62 -156 -138q-2 -11 -2 -23q0 -34 15.5 -56.5t40.5 -32t44 -12.5t37 -3v-297q-197 -1 -320 107q-122 107 -122 279 q0 62 14 113z" />
<glyph unicode="W" horiz-adv-x="2265" d="M14 957q14 52 37 93t62.5 78.5t80 66t100 57t112.5 49t127.5 45.5t134 42.5t144 43.5t146.5 47q63 82 153 133t202 51l65 -190q-4 -2 -11.5 -5.5t-28 -19t-39.5 -35t-41.5 -53.5t-38.5 -74l-316 -782q-28 -69 -44 -119t-21 -78.5t-1.5 -44.5t11 -21t20.5 -5q69 0 173 123 t182 298l333 830h365l-397 -983q-28 -69 -44 -119t-21 -78.5t-1.5 -44.5t11 -21t20.5 -5q69 0 172.5 123.5t179.5 297.5l277 682q136 335 478 336q78 0 167 -18l-60 -256q-30 5 -58 5q-9 0 -19 -1q-36 -2 -66.5 -13.5t-60 -48t-56.5 -100.5l-278 -688q-37 -92 -83 -176.5 t-111.5 -169t-138.5 -146.5t-166.5 -100.5t-192.5 -38.5q-81 0 -140 24.5t-87 62.5t-39 77q-7 25 -7 50q0 13 2 26q-31 -37 -72.5 -74t-100.5 -76.5t-134 -64.5t-150 -25q-129 0 -197 74q-66 71 -66 209v12q3 147 85 350l228 559q-260 -76 -344 -115q-130 -59 -144 -134 q-2 -10 -2 -21q0 -34 15.5 -56.5t40.5 -32t44 -12.5t37 -3v-297q-197 -1 -320 107q-122 107 -122 279q0 62 14 114z" />
<glyph unicode="X" horiz-adv-x="1660" d="M-82 45q0 48 9.5 96.5t41 109t82 106t141.5 77t209 31.5v-287q-182 0 -182 -117q0 -41 25 -67t55 -34.5t63 -8.5q66 0 141 39t141 101t115.5 119t88.5 112l196 278l-38 617q-33 -10 -96 -29q-92 -28 -135.5 -41.5t-111.5 -37t-99.5 -41t-67 -42t-49 -51t-13.5 -57.5 q0 -33 15.5 -55.5t40.5 -31.5t44 -12.5t37 -3.5v-297q-197 0 -320 108q-122 107 -122 278q0 59 13 108.5t33.5 89.5t56.5 76.5t72 64.5t91.5 56t102.5 48t117 44t124 41t133 41q106 32 160 49q105 202 393 202l66 -190q-27 -10 -51 -24t-54 -40q-30 -25 -46 -66 q-14 -35 -13 -76v-15l19 -289l374 528q52 72 114 118t142 70q51 15 112 15q34 -1 72 -5q104 -14 226 -64l-119 -240q-32 11 -50.5 16t-47 9t-49.5 -1.5t-47.5 -17.5t-52.5 -38t-54 -64l-588 -828l43 -651q4 -61 15 -101t26 -59.5t40 -25t47 -2t57 13.5l53 -275 q-43 -12 -89 -20q-38 -6 -82 -7q-9 1 -18 1q-54 2 -103 14t-96.5 43.5t-83.5 79.5t-61 125t-32 176l-19 262q-33 -49 -78 -101.5t-115.5 -116t-147 -112t-175.5 -81.5t-197 -33q-196 0 -320 112t-124 281z" />
<glyph unicode="Y" horiz-adv-x="1822" d="M20 952.5q20 61.5 57 108.5t90 87.5t116.5 72.5t140 61t158 55t171.5 53q45 13 69.5 20.5t63 19.5t70.5 22q60 75 147 120.5t193 45.5l66 -191q-4 -2 -11.5 -6t-28.5 -19t-40 -34.5t-42 -53.5t-38 -73l-289 -715q-51 -129 -61 -198q-5 -34 -5 -53t5 -24q10 -9 29 -9 q80 0 203 100.5t198 232.5l367 912h360l-536 -1329q128 84 221.5 180.5t171.5 236.5q35 -3 72 -30t51 -58q-70 -123 -142.5 -216t-152.5 -162.5t-154 -118.5t-176 -103q-14 -34 -37 -97t-40.5 -111t-45.5 -111.5t-55.5 -110.5t-68 -96t-84.5 -80.5t-102.5 -51.5t-125.5 -20 q-68 0 -122 19t-86.5 49t-54.5 69t-30.5 75.5t-9.5 72.5q0 204 272 330q21 11 51.5 24t55.5 23t68 27.5t69 27.5l63 156q-174 -160 -346 -160q-89 0 -150 42t-88 122q-17 48 -17 114q0 41 7 89q17 124 80 278l217 535q-69 -20 -105.5 -31.5t-91 -29t-83.5 -29.5t-67.5 -29 t-57.5 -32t-39 -34t-27.5 -39.5t-7.5 -43.5q0 -34 15.5 -57t41 -32.5t43.5 -12.5t37 -3v-297q-198 0 -320 106t-122 278q0 75 20 136.5zM709 -487q0 -27 17.5 -39.5t39.5 -12.5q38 0 71.5 52t86.5 180q-76 -31 -113 -53q-42 -24 -72 -58.5t-30 -68.5z" />
<glyph unicode="Z" horiz-adv-x="1415" d="M-154 197q0 58 22.5 118.5t66 117t120 92.5t172.5 36q107 0 201.5 -45t196.5 -127q66 69 131 152l565 745q-74 11 -259.5 54.5t-264.5 43.5q-100 0 -149.5 -40t-49.5 -97q0 -54 36.5 -80t84.5 -26q36 0 70 14.5t51 29.5l16 15l143 -219q-5 -5 -14 -13t-39.5 -28.5 t-64 -36t-85 -28.5t-104.5 -13q-73 0 -141.5 24t-124 69.5t-89.5 119t-34 164.5q0 85 29 159.5t86 135t152.5 96t217.5 35.5q94 0 217.5 -23t213.5 -46t203 -35q40 -4 75 -4q64 0 111 14q117 92 276 92l66 -190q-107 -36 -162 -97l-655 -860q-166 -220 -277 -336 q170 -153 367 -317q71 -57 112 -75.5t80 -18.5q122 0 273 145l204 -233q-116 -111 -241 -168q-115 -52 -216 -52h-18q-186 5 -375 162q-38 30 -91.5 79t-145.5 136t-166 154q-202 -137 -403 -137q-104 0 -183 33t-122 86t-64 109.5t-21 113.5zM123 207q0 -37 26 -56.5 t66 -19.5h6q72 0 185 70q-123 98 -193 98q-40 0 -65 -27t-25 -65z" />
<glyph unicode="[" horiz-adv-x="935" d="M-209 -319l854 2113h586l-111 -268h-221l-635 -1577h223l-110 -268h-586z" />
<glyph unicode="\" horiz-adv-x="796" d="M143 1712h152l256 -1966h-152z" />
<glyph unicode="]" horiz-adv-x="933" d="M-125 -319l111 268h221l635 1577h-224l111 268h586l-854 -2113h-586z" />
<glyph unicode="^" horiz-adv-x="1087" d="M0 623l696 845h291v-845h-313v327l-264 -327h-410z" />
<glyph unicode="_" horiz-adv-x="1159" d="M-225 -256l65 160h1161l-65 -160h-1161z" />
<glyph unicode="`" horiz-adv-x="757" d="M109 1491h380l283 -330h-283z" />
<glyph unicode="a" d="M-23 254q0 49 10.5 115.5t33 146t54.5 159.5t80 155t104 132.5t131.5 92.5t158.5 35q59 0 107 -17t74.5 -41.5t45 -49t24.5 -41.5l7 -17l420 139l-244 -606q-28 -69 -42.5 -119t-17.5 -76.5t2 -42t12.5 -19t18.5 -3.5q60 0 154.5 96.5t202.5 281.5q35 -3 72 -30t51 -58 q-64 -112 -129.5 -199.5t-143.5 -161t-167.5 -113.5t-184.5 -40q-46 0 -84.5 9.5t-64.5 24.5t-46 33.5t-31.5 37t-19 33.5t-9.5 25l-3 9q-6 -7 -17 -18.5t-46.5 -41t-72.5 -52.5t-90.5 -41.5t-105.5 -18.5q-117 0 -180.5 79.5t-63.5 201.5zM332 334q0 -72 65 -72 q31 0 63 13.5t55 33t41.5 38.5t27.5 33l10 13l121 297q0 4 -1 11t-6 25.5t-13.5 32t-26 25t-41.5 11.5q-54 0 -110.5 -55t-95.5 -130.5t-64 -152t-25 -123.5z" />
<glyph unicode="b" horiz-adv-x="1187" d="M-10 290q-1 14 -1 29q0 148 85 359l319 790h363l-205 -512q4 5 12 14.5t35 32.5t57 40.5t77.5 32t96.5 14.5q114 0 184 -68t70 -174q0 -88 -40 -242t-121 -287q107 24 179.5 90t129.5 166q35 -3 72 -30t51 -58q-42 -73 -90 -128t-114 -101.5t-154 -71.5t-195 -26 q-179 -187 -441 -187q-170 0 -265 80.5t-105 236.5zM326 276q4 -30 22.5 -48.5t50.5 -18.5q45 0 88 37q-98 64 -147 164q-10 -38 -14 -71q-2 -16 -2 -32t2 -31zM449 586q0 -65 35 -123.5t100 -97.5q50 86 85.5 193.5t35.5 146.5q0 35 -21.5 62.5t-71.5 27.5 q-54 0 -108.5 -59t-54.5 -150z" />
<glyph unicode="c" horiz-adv-x="1103" d="M4 354q0 69 17.5 147.5t51 162t89.5 159t126.5 136t169 96t210.5 35.5q158 0 252 -68.5t106 -196.5q1 -14 1 -29q0 -119 -81 -284h-362q101 208 104 256q-4 35 -39 37q-59 0 -116.5 -53t-96.5 -127.5t-63.5 -151t-24.5 -127.5q0 -149 221 -149q167 0 320 95.5t258 282.5 q35 -3 72 -30t51 -58q-44 -79 -96.5 -148.5t-127.5 -138t-159.5 -117.5t-194 -79.5t-229.5 -30.5q-227 0 -343 102t-116 279z" />
<glyph unicode="d" horiz-adv-x="1267" d="M-29 252q0 59 17 141.5t48 177t81.5 186.5t112 166.5t145 120.5t174.5 46q57 0 104 -17t74 -41.5t46 -49t25 -41.5l7 -17l221 544h363l-410 -1011q-27 -68 -41.5 -117.5t-17.5 -76.5t2 -42.5t12.5 -19.5t19.5 -4q59 0 154.5 97t202.5 281q35 -3 72 -30t51 -58 q-52 -89 -102.5 -161t-112 -139.5t-124 -113.5t-136.5 -73t-150 -27q-46 0 -84.5 9.5t-64.5 24.5t-46 33.5t-31.5 37t-19 33.5t-9.5 25l-3 9q-6 -7 -17 -18.5t-47 -41t-73 -52.5t-91.5 -41.5t-107.5 -18.5q-116 0 -180 81.5t-64 197.5zM330 334q0 -72 65 -72q31 0 62.5 13.5 t54.5 33t41 38.5t27 33l10 13l121 297q0 4 -0.5 11t-5.5 25.5t-13.5 32t-26.5 25t-42 11.5q-54 0 -109.5 -55t-94.5 -130.5t-64 -152t-25 -123.5z" />
<glyph unicode="e" horiz-adv-x="1101" d="M2 354q0 83 23.5 178t76.5 195t127.5 180t189 131.5t249.5 51.5q94 0 173 -27.5t135 -83.5q56 -55 64 -141q1 -13 1 -27q0 -76 -40 -176q-21 -46 -47 -83.5t-65 -73.5t-89 -59q-48 -23 -116 -40q-64 -16 -141 -16h-9q-82 1 -188 12q-1 -4 -2 -10.5t0 -25t6 -35t20 -37 t38 -35.5t63.5 -25t93.5 -10q167 0 322 96t258 282q35 -3 72 -30t51 -58q-45 -79 -98 -148.5t-128 -138.5t-159.5 -117.5t-194 -79t-229.5 -30.5q-226 0 -341.5 102t-115.5 279zM408 571q35 -8 66 -8q15 0 30 2q43 6 71 15.5t50.5 32.5t35.5 45t25 53q7 19 10 31t3 28 t-12.5 24.5t-37.5 8.5q-39 0 -78.5 -24t-67.5 -58t-50.5 -68t-33.5 -58z" />
<glyph unicode="f" horiz-adv-x="927" d="M-290 -519q-27 55 -27 124q0 88 43 198l559 1389q93 236 207 338t278 102q70 0 123.5 -22t82.5 -58.5t47 -83.5q17 -42 17 -87v-7q-2 -48 -10 -94q-55 -265 -248 -618q-42 -79 -79 -127.5t-90.5 -87.5t-125 -57t-172.5 -21l-32 -78q74 -66 178 -66q161 0 283 83t227 267 q35 -3 72 -30t51 -58q-225 -411 -636 -411h-18v-29q0 -44 -4 -90q-31 -219 -129 -375q-142 -225 -366 -225q-169 0 -231 124zM16 -400q0 -14 6.5 -19t20.5 -5q36 1 69 30t56 70t44 97t33.5 101t22.5 93q8 38 8 67q0 80 -57 97l-178 -442q-13 -35 -19 -55t-6 -34zM381 526 q71 10 109.5 52t101.5 157q156 291 215 488q17 62 17 96q0 41 -25 41q-83 0 -197 -283z" />
<glyph unicode="g" horiz-adv-x="1249" d="M-43 -425q0 181 236 298q14 7 111.5 50.5t123.5 58.5l53 133q-5 -6 -14 -15.5t-37.5 -34t-58 -43t-72 -34t-82.5 -15.5q-114 0 -178 80.5t-64 202.5q0 49 10 115t33 146t55.5 159.5t80.5 154.5t105.5 132t134 92t161.5 35q156 0 229 -120q5 -7 23 -46l420 139l-398 -979 q143 72 247.5 184.5t215.5 306.5q35 -3 72 -30t51 -58q-62 -108 -127.5 -195t-126 -147.5t-134.5 -113.5t-138 -88t-150 -76q-31 -78 -41 -107q-23 -57 -46.5 -104.5t-55.5 -98t-69.5 -88.5t-82.5 -69t-100.5 -47.5t-118.5 -16.5q-131 0 -199 69q-69 71 -69 170zM125 -399 q0 -25 15 -38.5t34 -13.5q35 0 80.5 53t91.5 177q-31 -21 -77 -45.5t-68 -38.5q-76 -51 -76 -94zM332 334q0 -72 65 -72q31 0 62 13.5t53.5 33t40.5 38.5t27 33l10 13l121 297q0 4 -0.5 11t-5.5 25.5t-13 32t-25 25t-40 11.5q-54 0 -110.5 -55t-95.5 -130.5t-64 -152 t-25 -123.5z" />
<glyph unicode="h" horiz-adv-x="1253" d="M-195 0l594 1468h363l-207 -514q7 6 19 15t50.5 32.5t78 41.5t96.5 32.5t110 14.5q103 0 156 -50t53 -135q0 -75 -61 -225l-90 -223q-27 -66 -42 -115t-18.5 -76.5t1 -43.5t12.5 -20.5t20 -4.5q61 0 156 97t200 281q35 -3 72 -30t51 -58q-66 -115 -132 -203t-144 -161 t-166.5 -111.5t-183.5 -38.5q-175 0 -221 138q-14 43 -14 97q0 123 71 308l14 33q6 16 16.5 42t16 39.5t13 33t11.5 31t8 24.5t5.5 21.5t1.5 15.5q0 20 -15.5 31.5t-40.5 11.5q-39 0 -102.5 -37.5t-122.5 -104.5l-266 -657h-363z" />
<glyph unicode="i" horiz-adv-x="641" d="M-52 265q8 105 62 239l226 559h362l-244 -606q-27 -68 -41.5 -117.5t-18 -76.5t1.5 -42.5t12.5 -19.5t19.5 -4q61 0 156 97t200 281q35 -3 72 -30t51 -58q-61 -108 -127.5 -196t-144 -162t-165 -115t-175.5 -41q-75 0 -131.5 31.5t-89.5 93.5q-27 51 -27 130q0 18 1 37z M328 1335q0 82 57 138.5t139 56.5q80 0 139.5 -57t59.5 -138q0 -79 -59.5 -138.5t-139.5 -59.5q-81 0 -138.5 59t-57.5 139z" />
<glyph unicode="j" horiz-adv-x="706" d="M-588 -428q0 54 21.5 103.5t58 87t75.5 64.5t81 46q32 16 121 55.5t114 53.5l215 532q-20 16 -34 31t-18 23l-3 7q40 69 162 287l114 201h365l-397 -979q143 72 247.5 184.5t215.5 306.5q35 -3 71.5 -30t50.5 -58q-77 -134 -156 -234t-166 -171t-165 -117.5t-186 -97.5 q-29 -72 -43 -107q-28 -69 -57 -125t-72 -114t-91 -97t-114 -63.5t-141 -24.5q-133 0 -200 69t-69 167zM-420 -399q0 -24 16 -38t35 -14q36 0 79.5 53t90.5 177q-31 -20 -76.5 -44.5t-68.5 -39.5q-23 -16 -35.5 -26t-26.5 -29.5t-14 -38.5zM412 1335q0 82 56 138.5t138 56.5 q80 0 139.5 -57t59.5 -138q0 -79 -59.5 -138.5t-139.5 -59.5q-81 0 -137.5 59t-56.5 139z" />
<glyph unicode="k" horiz-adv-x="1200" d="M-195 0l594 1468h363l-207 -514q7 6 19 15t51 32.5t78 41.5t95.5 32.5t108.5 14.5q103 0 157 -50.5t54 -128.5q0 -96 -92 -288q-53 -104 -137.5 -171.5t-173.5 -74.5q-4 -14 -1 -45.5t9 -63.5q7 -32 33 -54q23 -20 59 -19h10q88 6 203.5 107.5t214.5 272.5q35 -3 72 -30 t51 -58q-39 -68 -88.5 -135.5t-116 -137t-136 -122t-152 -86t-160.5 -33.5q-149 1 -250 107q-89 94 -89 245q0 19 1 40q6 71 27 97.5t59 26.5q23 0 39 1.5t46.5 11t53 27.5t49 55.5t45.5 89.5q13 41 13 74q0 28 -10 39.5t-35 11.5q-43 0 -102.5 -36t-125.5 -108l-266 -655 h-363z" />
<glyph unicode="l" horiz-adv-x="641" d="M-52 265q8 105 62 239l389 964h363l-408 -1011q-27 -68 -41.5 -117.5t-18 -76.5t1.5 -42.5t12.5 -19.5t19.5 -4q61 0 156 97t200 281q35 -3 72 -30t51 -58q-61 -108 -127.5 -196t-144 -162t-165 -115t-175.5 -41q-75 0 -131.5 31.5t-89.5 93.5q-27 51 -27 130q0 18 1 37z " />
<glyph unicode="m" horiz-adv-x="1869" d="M-195 0l431 1063l319 -109q-3 -3 0 -1q1 1 4 3q182 130 348 134q101 0 154.5 -49.5t56.5 -129.5q21 19 47.5 39.5t83.5 57t130 59.5t145 23q104 0 156.5 -50.5t52.5 -134.5q0 -73 -60 -225l-90 -223q-27 -66 -42 -115t-18.5 -76.5t1 -43.5t12.5 -20.5t20 -4.5 q60 0 154.5 96.5t202.5 281.5q35 -3 72 -30t51 -58q-65 -114 -131 -202t-144 -161t-167 -112t-183 -39q-86 0 -142.5 34t-80.5 100q-16 43 -16 101q0 32 4 70q14 104 67 238l12 33q5 12 13 31.5t12 30.5t10.5 28t10.5 27t8.5 23t7.5 21.5t5.5 18t3.5 16t1 11.5 q0 20 -14.5 31.5t-36.5 11.5q-41 0 -104 -37t-123 -103l-265 -659h-366q139 339 223 549q72 179 72 209q0 18 -15 29.5t-39 11.5q-39 0 -102.5 -38t-122.5 -106l-266 -655h-363z" />
<glyph unicode="n" horiz-adv-x="1253" d="M-195 0l431 1063l319 -109q-3 -3 0 -1q0 1 3 3q164 125 329 133l22 1q103 0 156 -50t53 -135q0 -75 -61 -225l-90 -223q-27 -67 -41.5 -115.5t-18 -76t1 -43.5t12.5 -20.5t21 -4.5q59 0 152.5 96.5t201.5 281.5q35 -3 72 -30t51 -58q-66 -114 -131 -201.5t-143 -161 t-166.5 -112.5t-183.5 -39q-85 0 -141.5 33.5t-81.5 99.5q-16 43 -16 102q0 32 4 68q14 104 67 240l14 33q72 177 72 207q0 20 -15 31.5t-39 11.5q-39 0 -102.5 -38t-122.5 -106l-266 -655h-363z" />
<glyph unicode="o" horiz-adv-x="1234" d="M14 395q0 87 23.5 179.5t76 185.5t126.5 166t185.5 118.5t242.5 45.5q205 0 314.5 -110.5t109.5 -301.5q0 -172 -78 -338q154 45 264 235q35 -3 72 -30t51 -58q-83 -142 -218 -231q-131 -86 -276 -86h-10q-182 -197 -448 -197q-209 0 -322 116.5t-113 305.5zM365 313 q0 -47 21 -75.5t56 -28.5q64 0 129 82q-45 51 -45 123q0 74 52 126q51 51 130 50h3q30 94 30 162q0 52 -21.5 77t-55.5 25q-55 0 -112 -65t-96.5 -154.5t-65 -179t-25.5 -142.5z" />
<glyph unicode="p" horiz-adv-x="1200" d="M-358 -406l594 1469l325 -88q5 5 13.5 12.5t37.5 27.5t59.5 35t76.5 27.5t92 12.5q66 0 116 -25.5t78.5 -68.5t42 -94t13.5 -109q0 -91 -32 -197t-80.5 -197t-86 -151t-66.5 -98q126 63 221.5 157t196.5 268q35 -3 72 -30t51 -58q-61 -108 -134.5 -196t-168 -162 t-215 -115t-256.5 -41q-76 0 -139.5 13t-100.5 31.5t-63 37.5t-35 32l-10 13l114 105q31 -43 66 -43q50 0 121 99.5t122.5 233t51.5 222.5q0 86 -64 86q-55 0 -117.5 -49t-113.5 -123l-420 -1037h-362z" />
<glyph unicode="q" horiz-adv-x="1316" d="M-25 227v18q0 41 7 97q9 67 30.5 149t54 165t81 161.5t106 139t135.5 97t164 36.5q161 0 233 -119q10 -14 23 -47l420 139l-363 -893q23 -6 47 -6q40 0 83 17q68 27 132 88t121 137t111 169q35 -3 72 -30t51 -58q-228 -400 -459 -467q23 -46 23 -110q0 -40 -9 -86 q-18 -91 -53.5 -171.5t-89.5 -148.5t-134 -107.5t-175 -39.5q-176 0 -241 124q-30 56 -30 128q0 86 43 194l103 258q-122 -88 -238 -88q-112 0 -177.5 73t-70.5 181zM332 317q5 -55 67 -55q91 0 176 103q3 4 21 30l121 297l-1 1q-7 94 -74 101q-5 1 -11 1q-56 0 -114.5 -58 t-98 -137t-64.5 -158q-22 -74 -22 -118v-7zM678 -424q29 2 53 16t41 33.5t35 57.5t30 70.5t31 88.5q13 35 13 64q0 26 -11 46q-23 41 -69 54l-129 -317q-26 -68 -26 -90q0 -23 32 -23z" />
<glyph unicode="r" horiz-adv-x="942" d="M43 575q73 132 156 316q-33 35 -48.5 61.5t-15.5 61.5q0 75 63.5 151.5t131.5 98.5l139 -74l-59 -158q20 -16 69.5 -47t96.5 -62.5t94.5 -70t76.5 -84t29 -90.5q0 -40 -24 -103l-45 -116q-27 -65 -40.5 -114.5t-15.5 -77t4 -44t14.5 -21.5t18.5 -5q75 0 297 378 q35 -3 72 -30t51 -58q-53 -92 -96 -159t-100 -138t-110.5 -115.5t-119.5 -73t-135 -28.5q-50 0 -96.5 14.5t-86.5 50.5t-60 89q-15 38 -14 93q0 21 2 45q8 85 50 190l64 159q18 46 18 72q0 7 -1.5 13.5t-5.5 13.5t-7 13t-10.5 14t-11.5 13t-14.5 14.5t-15 13.5t-17 15 t-17.5 15q-64 -158 -158 -324q-35 3 -72 30t-51 58z" />
<glyph unicode="s" horiz-adv-x="872" d="M-39 113l203 127q19 -19 47 -19q48 0 74 56.5t26 197.5q0 25 -3 133q-2 64 -2 108q0 29 1 48q-19 -36 -49.5 -98t-53 -106t-38.5 -73q-35 3 -72 30t-51 58q61 103 146.5 269t142.5 291l319 -72q-21 -129 -22 -275v-25q-1 -133 9 -269q10 -148 11 -170q0 -45 -6 -93 q82 70 142.5 147t129.5 197q35 -3 72 -30t51 -58q-48 -87 -98 -158t-116.5 -139t-138 -114.5t-163 -74.5t-192.5 -28q-246 0 -369 140z" />
<glyph unicode="t" horiz-adv-x="675" d="M-50 203q-2 18 -3 38q0 108 63 263l226 559h-164l75 182h160l92 223h363l-92 -223h159l-75 -182h-156l-244 -606q-27 -67 -40.5 -116.5t-15.5 -76.5t5.5 -43.5t17.5 -21t25 -4.5q71 0 167.5 97.5t205.5 282.5q35 -3 72 -30t51 -58q-292 -514 -631 -514q-111 0 -179 56 t-82 174z" />
<glyph unicode="u" horiz-adv-x="1224" d="M-54 266q8 104 62 238l225 559h363l-244 -606q-24 -59 -36.5 -102t-15 -67t3 -38.5t14 -18.5t22.5 -4q47 0 102 62t158 231l219 543h363l-244 -606q-27 -67 -41.5 -116.5t-17 -76.5t3.5 -43.5t15 -21t22 -4.5q126 0 348 380q35 -3 72 -30t51 -58q-62 -108 -128.5 -196.5 t-143.5 -162t-164 -114.5t-175 -41q-93 0 -158.5 46.5t-86.5 140.5q-156 -187 -342 -187q-76 0 -132.5 31.5t-89.5 93.5q-27 50 -27 128q0 20 2 40z" />
<glyph unicode="v" horiz-adv-x="1089" d="M-92 0l233 1063h357l-170 -782q167 125 297.5 319.5t193.5 462.5l291 27q-66 -399 -330 -723q44 -15 86 -16q14 0 26 2q54 6 116.5 61.5t124.5 160.5q35 -3 71.5 -30t50.5 -58q-53 -94 -115 -159q-62 -66 -140 -106q-75 -39 -159 -40h-6q-87 2 -188 43q-6 -7 -23 -21.5 t-114.5 -72.5t-245.5 -131h-356z" />
<glyph unicode="w" horiz-adv-x="1751" d="M-47 304q13 90 57 200l226 559h362l-244 -606q-23 -57 -35.5 -99t-15.5 -67t2.5 -39.5t14.5 -19.5t24 -5q47 0 102 63t160 236l215 537h363l-244 -606q-55 -137 -55 -191q0 -22 9 -31q9 -8 26 -8q67 0 153 86q-29 44 -29 101q0 82 60 133q50 43 118 43q13 0 27 -2 q89 200 150 475l315 27q-103 -481 -301 -754q17 -2 34 -2q87 0 171 51q100 61 176 190q35 -3 72 -30t51 -58q-65 -112 -161 -190q-94 -79 -214 -111q-57 -15 -116 -15q-65 0 -134 19q-213 -217 -475 -217q-240 0 -278 185q-163 -185 -342 -185q-59 0 -107.5 18.5t-84 60 t-50.5 101.5q-8 32 -8 73q0 36 6 78z" />
<glyph unicode="x" horiz-adv-x="1159" d="M-16 0l438 455q35 247 35 325q0 30 -5.5 43t-23.5 13q-17 0 -35.5 -11t-38 -33.5t-37 -46t-39.5 -60t-37.5 -64t-38.5 -69.5t-36 -65q-35 3 -72 30t-51 58q17 29 51.5 90.5t53 93.5t52.5 84.5t58.5 81t62 65t72 55t79.5 32t93 13.5q224 0 242 -234l235 246l136 -127 l-396 -412q-3 -20 -10.5 -69t-11 -74t-7 -60.5t-3.5 -62.5q0 -100 61 -100q72 0 182.5 104.5t208.5 273.5q35 -3 72 -30t51 -58q-60 -105 -129 -194t-150.5 -162.5t-176 -115.5t-189.5 -42q-225 0 -270 205l-170 -178h-256z" />
<glyph unicode="y" horiz-adv-x="1206" d="M-86 -428q1 54 23 103.5t58 87t74.5 64.5t80.5 46q32 16 121 55.5t114 53.5l47 118q-4 -5 -11 -13.5t-31.5 -30.5t-51.5 -39t-69.5 -30.5t-86.5 -13.5q-53 0 -98 18.5t-79.5 60t-48.5 101.5q-8 32 -8 73q0 36 6 78q12 91 56 200l226 559h362l-244 -606 q-24 -59 -36.5 -102t-15 -67t3 -38.5t14 -18.5t22.5 -4q49 0 102.5 61.5t157.5 235.5l219 539h363l-398 -979q143 72 247.5 184.5t215.5 306.5q35 -3 72 -30t51 -58q-62 -108 -127.5 -195t-126 -147.5t-134.5 -113.5t-137 -88t-149 -76q-33 -78 -43 -107q-28 -69 -56.5 -125 t-71.5 -114t-90.5 -96.5t-113.5 -63.5t-141 -25q-68 0 -120.5 20t-83.5 54.5t-47 75t-17 86.5zM80 -391q0 -24 14.5 -40.5t38.5 -17.5q36 0 80.5 53t91.5 175q-120 -57 -155 -78q-70 -45 -70 -92z" />
<glyph unicode="z" horiz-adv-x="1110" d="M16 154l609 532q-14 3 -58 17t-81.5 22t-73.5 8q-63 0 -110 -45t-136 -201q-35 3 -72 30t-51 58q30 52 65 120t57.5 111t52 93.5t56.5 81t62 58t78 39.5t96 12q52 0 126 -14t130 -28q51 -12 118 -13q7 1 15 1q77 2 148 27l110 -154l-565 -497q27 -6 119.5 -48t148.5 -42 q28 0 53 7t63 30t83.5 78t93.5 138q35 -3 72 -30t51 -58q-42 -71 -76 -124t-74.5 -109t-77.5 -96t-81.5 -77t-89.5 -59.5t-97.5 -35.5t-109.5 -13q-70 0 -136 19.5t-109 40t-89 33.5q-21 6 -43 6q-25 0 -53 -8q-52 -15 -113 -64z" />
<glyph unicode="{" horiz-adv-x="1019" d="M-2 -17q9 52 31 101q17 39 55 115t79 155.5t50 98.5q33 69 3.5 102t-126.5 33h-37l121 299h37q211 0 274 235q3 12 20.5 83.5t37 141t39.5 117.5q2 5 13 31.5t17 39.5t22 41.5t29.5 45t38.5 42.5t51 41.5t64.5 34.5t81 29.5t98.5 17.5t119 7h170l-104 -260h-60 q-50 0 -91 -20.5t-71 -58t-49.5 -75t-38.5 -86.5q-24 -62 -55.5 -168t-46.5 -145q-17 -44 -37.5 -80t-39 -60.5t-42 -44t-40 -30t-39 -19t-32.5 -11.5t-27.5 -6t-18.5 -3q12 -3 28 -12t34.5 -31.5t28.5 -52t4.5 -78.5t-32.5 -107q-2 -6 -59.5 -124.5t-94.5 -204.5 q-17 -37 -25 -59.5t-12 -47.5t4 -38t29 -22t58 -9h84l-107 -260h-123q-100 0 -169 27.5t-101 70t-42 97.5t-1 107z" />
<glyph unicode="|" horiz-adv-x="794" d="M332 -254v1966h143v-1966h-143z" />
<glyph unicode="}" horiz-adv-x="1007" d="M-94 -319l104 260h60q50 0 91 20.5t70.5 58t49 74.5t38.5 86q24 62 56 168.5t47 145.5q17 44 37.5 80t39 60.5t42 44t40 30t39 19t32.5 11.5t27.5 6t18.5 3q-12 3 -27.5 12t-34.5 31t-29 51.5t-4.5 78.5t32.5 107q2 6 60.5 125t95.5 205q17 37 25 59.5t12 47.5t-4 38 t-29 22t-58 9h-84l105 260h125q99 0 168 -27.5t101 -70t42 -97.5t0.5 -107t-31.5 -101q-17 -39 -54.5 -114l-78.5 -157l-49 -98q-35 -69 -5.5 -102t128.5 -33h37l-121 -299h-37q-210 0 -274 -236q-3 -10 -20.5 -83t-37.5 -141.5t-41 -117.5q-2 -5 -13 -31.5t-17 -39 t-22 -41.5t-29.5 -45t-38.5 -42t-51 -41.5t-64 -34.5t-80.5 -29.5t-98 -17.5t-118.5 -7h-172z" />
<glyph unicode="~" horiz-adv-x="1574" d="M297 621q171 198 379 198q62 0 123 -20t102 -43.5t94.5 -43.5t102.5 -20q104 0 188 94l131 -229q-160 -201 -368 -201q-62 0 -122 20t-100 44.5t-93.5 44.5t-104.5 20q-117 0 -199 -96z" />
<glyph unicode="&#xa1;" horiz-adv-x="829" d="M-207 -406l483 943h224l-287 -943h-420zM291 860q0 97 67 163.5t164 66.5q95 0 161.5 -66.5t66.5 -163.5q0 -95 -66.5 -162t-161.5 -67q-97 0 -164 67t-67 162z" />
<glyph unicode="&#xa2;" horiz-adv-x="1019" d="M-23 317q0 66 13 142t42 160t70.5 164.5t102 154.5t133 130t168.5 91t203 39l73 182h113l-74 -184q112 -16 174.5 -75t72.5 -141.5t-9 -170t-64 -174.5h-342q68 100 83 174.5t-31 99.5l-277 -690q112 -8 212.5 30.5t219.5 121.5l129 -129q-313 -288 -661 -267l-72 -180 h-113l78 193q-244 59 -244 329zM333 448q-29 -132 1 -182l252 625q-79 -45 -151.5 -178t-101.5 -265z" />
<glyph unicode="&#xa3;" horiz-adv-x="1525" d="M108 173q-2 40 12.5 74.5t39.5 65.5t61.5 51t77 29.5t87.5 2.5t91 -31q9 16 16.5 31.5t14 34.5t11.5 31.5t11 35t8.5 32t8 35.5t7 32t7 36t6.5 33h-139l70 178h104q14 66 28 118t40.5 123t57.5 124.5t80.5 110t108 92.5t141 59.5t179.5 23.5q99 0 169.5 -23.5t107.5 -64 t53.5 -92.5t10 -112t-25 -118t-49.5 -116h-317q42 85 51 117q35 118 -66 118q-42 0 -77 -22.5t-57 -54.5t-41 -84t-29.5 -95t-22.5 -104h305l-69 -178h-273q-29 -132 -65 -210.5t-121 -197.5q10 -3 34 -12.5t41 -14t33 -4.5q30 0 58 19t46.5 42t41 68.5t33 72.5t30.5 79h312 q-70 -183 -119 -266q-150 -257 -401 -268q-12 -1 -25 -1q-60 0 -111 12.5t-99 30t-81 23.5q-58 -39 -133.5 -50t-147 16t-104.5 91q-19 37 -21 77z" />
<glyph unicode="&#xa4;" d="M131 410l109 108q-52 100 -52 214t52 214l-109 109l193 192l108 -108q100 53 214 53t214 -53l109 108l192 -192l-108 -109q53 -101 53 -214.5t-53 -213.5l108 -108l-192 -193l-109 109q-100 -54 -214 -54t-214 54l-108 -109zM497 731.5q0 -62.5 44 -106.5 q44 -43 106.5 -43t106.5 43q43 44 43 106.5t-43 106.5q-44 44 -106.5 44t-106.5 -44t-44 -106.5z" />
<glyph unicode="&#xa5;" horiz-adv-x="1132" d="M39 541l67 178h213l7 55h-193l70 178h135l41 516h332l-37 -399l274 399h381l-383 -516h131l-67 -178h-195l-41 -55h209l-68 -178h-264l-217 -541h-379l217 541h-233z" />
<glyph unicode="&#xa6;" horiz-adv-x="794" d="M332 -254v877h143v-877h-143zM332 836v876h143v-876h-143z" />
<glyph unicode="&#xa7;" horiz-adv-x="1253" d="M48 310q9 106 78 158q42 32 97 32q58 0 98.5 -40.5t40.5 -99.5q0 -82 -69 -124q20 -58 80 -58q37 0 64 25.5t36.5 52t9.5 47.5q0 33 -29 67t-70.5 66.5t-83 71t-70.5 95.5t-29 124q0 46 13 90.5t40.5 87t77 76t114.5 49.5q3 42 15.5 83t39.5 84.5t66 76t100.5 53.5 t137.5 21q187 0 281 -125q70 -94 60 -212q-9 -106 -78 -158q-42 -32 -97 -32q-59 0 -99.5 40.5t-40.5 99.5q0 82 70 126q-22 56 -80 56q-37 0 -64 -25.5t-36.5 -52t-9.5 -47.5q0 -33 29 -67t70.5 -66.5t83 -71t70.5 -95.5t29 -124q0 -46 -13.5 -90.5t-41 -87.5t-77.5 -76.5 t-116 -48.5q-3 -42 -14 -83t-37.5 -84.5t-65 -76t-100 -53.5t-137.5 -21q-187 0 -282 125q-70 94 -61 212zM444 741q0 -41 26 -77.5t59.5 -60.5t80.5 -59.5t74 -66.5q66 38 66 103q0 40 -26 76t-59.5 60t-80 59.5t-74.5 66.5q-66 -36 -66 -101z" />
<glyph unicode="&#xa8;" horiz-adv-x="907" d="M129 1376q0 73 50.5 123.5t121.5 50.5q72 0 123 -50.5t51 -123.5q0 -70 -51 -120t-123 -50q-71 0 -121.5 50t-50.5 120zM528 1376q0 73 50.5 123.5t121.5 50.5q72 0 123 -50.5t51 -123.5q0 -70 -51 -120t-123 -50q-71 0 -121.5 50t-50.5 120z" />
<glyph unicode="&#xa9;" horiz-adv-x="1441" d="M102 483q0 138 61.5 270.5t162 230t234 157t271.5 59.5q225 0 371 -145t146 -365q0 -139 -62 -271.5t-163 -229.5t-235 -156.5t-272 -59.5q-224 0 -369 145t-145 365zM270 481q0 -151 100.5 -248.5t250.5 -97.5q137 0 267.5 80t211 207.5t80.5 259.5q0 146 -95.5 247 t-255.5 101q-106 0 -209.5 -48t-179.5 -124.5t-123 -176.5t-47 -200zM389 496q0 105 58 209.5t155.5 173.5t202.5 69q88 0 144 -33.5t74 -87.5t9 -118.5t-45 -128.5h-229q27 56 40 85t21 55.5t2.5 36t-22.5 9.5q-41 0 -87 -52t-75 -119.5t-29 -115.5q0 -39 22 -63.5 t58 -24.5q50 0 114 38.5t103 94.5l109 -80q-49 -87 -154.5 -149t-218.5 -62q-110 0 -181 67.5t-71 195.5z" />
<glyph unicode="&#xaa;" horiz-adv-x="1107" d="M143 811q0 55 17 136.5t55 177.5t90.5 178t133 137t173.5 55q46 0 84 -13.5t59 -32.5t35.5 -38.5t19.5 -32.5l5 -14l334 109l-195 -486q-21 -53 -32.5 -91.5t-14 -60t2.5 -34t12.5 -16t19.5 -3.5q25 0 55 21l80 -94q-127 -105 -258 -105q-50 0 -90 14t-61 34t-34.5 39.5 t-17.5 33.5l-4 14q-5 -5 -13.5 -14.5t-36.5 -32.5t-57.5 -41t-74 -32.5t-88.5 -14.5q-91 0 -145 56.5t-54 150.5zM436 889q0 -53 51 -53q38 0 77.5 25t59.5 50l21 25l92 242q0 3 -0.5 8.5t-4 20t-10 25t-20.5 19.5t-32 9q-56 0 -113 -74t-89 -160.5t-32 -136.5z" />
<glyph unicode="&#xab;" horiz-adv-x="1804" d="M219 479l70 170l729 418l-172 -422l-236 -151l113 -150l-115 -289zM836 479l67 170l729 418l-172 -422l-235 -151l114 -150l-116 -289z" />
<glyph unicode="&#xac;" horiz-adv-x="1263" d="M53 432l127 309h940l-233 -577h-316l111 268h-629z" />
<glyph unicode="&#xad;" horiz-adv-x="1099" d="M260 479l88 217h613l-89 -217h-612z" />
<glyph unicode="&#xae;" horiz-adv-x="860" d="M119 985q0 133 73.5 251.5t193 188.5t249.5 70q161 0 263.5 -104t102.5 -261q0 -98 -44 -191.5t-115 -162t-166 -110t-193 -41.5q-160 0 -263 102.5t-101 257.5zM264 987q0 -97 59 -157t173 -60q25 0 47.5 3.5t32.5 6.5l10 4q-11 15 -11 50q0 22 7.5 72.5t7.5 62.5 q0 27 -12 45l-60 -152h-115l121 303h117l-37 -94q24 6 42 29.5t18 48.5q0 27 -20.5 44t-59.5 17q-56 0 -86.5 -34t-30.5 -66q0 -7 2 -15t4 -12l2 -4l-100 -22q-6 24 -6 51q0 80 63.5 136t157.5 56q83 0 133.5 -43t50.5 -108q0 -49 -32 -88t-97 -47l3 -1l5 -2.5t7 -4t8 -5.5 t8 -7t7.5 -9t6.5 -11t4.5 -13.5t1.5 -16.5q0 -17 -7 -54.5t-7 -43.5q0 -19 29 2l14 12q5 5 14 13.5t31.5 37.5t40 59t31.5 74.5t14 88.5q0 94 -59.5 155.5t-161.5 61.5q-139 0 -255 -109t-116 -254z" />
<glyph unicode="&#xaf;" horiz-adv-x="757" d="M88 1257l70 170h673l-69 -170h-674z" />
<glyph unicode="&#xb0;" horiz-adv-x="653" d="M133 1126q0 152 108.5 260.5t260.5 108.5q149 0 256.5 -108.5t107.5 -260.5q0 -149 -107.5 -255.5t-256.5 -106.5q-152 0 -260.5 106.5t-108.5 255.5zM356 1126q0 -58 43 -98.5t103 -40.5q58 0 99.5 40.5t41.5 98.5q0 61 -41.5 103.5t-99.5 42.5q-60 0 -103 -42.5 t-43 -103.5z" />
<glyph unicode="&#xb1;" horiz-adv-x="1284" d="M-106 0l124 311h943l-125 -311h-942zM94 551l127 313h301l76 187h334l-72 -187h305l-127 -313h-303l-76 -186h-337l75 186h-303z" />
<glyph unicode="&#xb2;" horiz-adv-x="841" d="M-43 594l94 223q194 100 350 217q179 132 179 238q0 32 -14.5 53t-43.5 21q-52 0 -88.5 -66.5t-38.5 -151.5h-233q1 46 10.5 95t37 106.5t68.5 101.5t111.5 73.5t159.5 29.5q77 0 134.5 -21t89 -56t46.5 -75t15 -84q0 -213 -328 -428l-90 -57h274l-92 -219h-641z" />
<glyph unicode="&#xb3;" horiz-adv-x="815" d="M23.5 775.5q-8.5 54.5 3 108t36.5 101.5h238q-17 -30 -29 -66t-16 -72t13.5 -60.5t56.5 -24.5q42 0 74.5 29t46.5 64.5t14 64.5q0 32 -19 52t-42.5 27t-55 8.5t-46 0t-24.5 -3.5l66 163q58 0 102.5 11.5t66.5 26.5t36 34.5t17 31.5t3 21q0 11 -1 17.5t-6.5 16.5t-20 15 t-37.5 5q-32 0 -54.5 -22.5t-33.5 -53.5t-19 -76h-233q8 44 22 85.5t43.5 89.5t69.5 83t104.5 58.5t143.5 23.5q65 0 115 -17.5t76 -41.5t42 -55.5t20.5 -54t4.5 -42.5q0 -73 -50 -137.5t-157 -98.5q90 -43 90 -159q0 -58 -22 -116.5t-65.5 -112t-120.5 -87.5t-175 -34 q-88 0 -150 27.5t-90.5 71.5t-37 98.5z" />
<glyph unicode="&#xb4;" horiz-adv-x="757" d="M127 1161l283 330h381l-381 -330h-283z" />
<glyph unicode="&#xb5;" horiz-adv-x="1226" d="M-358 -406l594 1469h362l-244 -606q-23 -57 -35.5 -99t-15.5 -67t2.5 -39.5t14.5 -19.5t24 -5q47 0 101 61t155 230l221 545h363l-244 -606q-28 -69 -42.5 -119t-17.5 -76.5t2 -42t12.5 -19t18.5 -3.5q61 0 156.5 97t200.5 281q35 -3 72 -30t51 -58q-60 -106 -125 -193 t-142 -162t-166 -117t-180 -42q-94 0 -157.5 47.5t-83.5 139.5q-159 -187 -344 -187q-11 0 -23 1t-14 1l-154 -381h-362z" />
<glyph unicode="&#xb6;" horiz-adv-x="1617" d="M152 811q62 151 210 257t297 106h1018l-106 -269h-105l-364 -905q-19 -46 -47.5 -91t-72.5 -93t-108.5 -77.5t-138.5 -29.5l-55 191q3 0 8 2t20 10.5t29 21t32.5 38.5t33.5 59l352 874h-129l-367 -905q-19 -47 -47 -91.5t-72 -92.5t-108 -77.5t-137 -29.5l-55 191 q3 0 8 2t19.5 10.5t28.5 21t32 38.5t32 59l170 418h-163q-149 0 -212 105.5t-3 256.5z" />
<glyph unicode="&#xb7;" horiz-adv-x="948" d="M274 588q0 97 66.5 164t163.5 67q95 0 162 -67t67 -164q0 -96 -66.5 -163t-162.5 -67q-97 0 -163.5 66.5t-66.5 163.5z" />
<glyph unicode="&#xb8;" horiz-adv-x="757" d="M37 -414l98 154q24 -12 50 -19.5t49 -9t38 7t15 27.5q0 29 -36 35.5t-93 -2.5l121 221h237l-49 -96q55 -21 80.5 -52.5t25.5 -87.5q0 -71 -40.5 -124t-103.5 -77.5t-135.5 -32t-141.5 8t-115 47.5z" />
<glyph unicode="&#xb9;" horiz-adv-x="657" d="M59 1026q118 113 222 235.5t149 188.5l45 66h236l-371 -922h-236l193 483q-24 -24 -73 -77t-74 -78z" />
<glyph unicode="&#xba;" horiz-adv-x="980" d="M170 918q0 66 18 140t59.5 152.5t100.5 141t151.5 103t202.5 40.5q158 0 243 -80.5t85 -224.5q0 -69 -18.5 -145.5t-60 -155.5t-100.5 -142t-149.5 -103t-197.5 -40q-160 0 -247 86.5t-87 227.5zM446 870q0 -38 17 -58.5t45 -20.5q56 0 115.5 85.5t94 188t34.5 164.5 q0 41 -16.5 60.5t-43.5 19.5q-43 0 -89 -52.5t-79.5 -124t-55.5 -145t-22 -117.5z" />
<glyph unicode="&#xbb;" horiz-adv-x="1804" d="M145 59l168 424l240 150l-119 151l115 289l389 -422l-70 -172zM760 59l170 424l237 150l-118 151l116 289l387 -422l-67 -172z" />
<glyph unicode="&#xbc;" horiz-adv-x="1810" d="M158 0l1214 1468h189l-1217 -1468h-186zM160 979q118 112 222 234.5t148 188.5l45 66h236l-371 -923h-235l192 485q-18 -19 -68.5 -73.5t-78.5 -82.5zM862 225l86 209l430 490h332l-192 -484q19 1 36.5 8t25.5 14l7 7l94 -104q-3 -6 -9.5 -15.5t-29 -34t-49 -43 t-70.5 -33.5t-93 -14l-91 -225h-237l92 225h-332zM1145 434h133l113 283z" />
<glyph unicode="&#xbd;" horiz-adv-x="1857" d="M158 0l1214 1468h189l-1217 -1468h-186zM160 979q118 112 222 234.5t148 188.5l45 66h236l-371 -923h-235l192 485q-18 -19 -68.5 -73.5t-78.5 -82.5zM928 0l94 225q-1 1 27.5 16.5t75.5 41t103 58.5t113 74.5t103.5 83.5t76 89.5t29.5 89.5q0 31 -15 52.5t-42 21.5 q-52 0 -88.5 -66t-38.5 -149h-233q1 46 10.5 95t37 106t68.5 100.5t111.5 72.5t159.5 29q77 0 134.5 -20.5t89 -55.5t46 -75t14.5 -84q-1 -69 -35 -138.5t-90.5 -126.5t-106.5 -97t-106 -75l-63 -43q-5 -3 -11 -7l1 1h268l-92 -219h-641z" />
<glyph unicode="&#xbe;" horiz-adv-x="1947" d="M119.5 781.5q-8.5 54.5 2.5 108t36 101.5h237q-17 -30 -29 -66t-16 -72t13.5 -60.5t56.5 -24.5q42 0 74.5 29t46.5 64.5t14 64.5q0 32 -19 52t-43 27t-55.5 8.5t-46 0t-24.5 -3.5l67 164q58 0 101.5 10t66 23.5t36 32t16.5 30.5t3 24q0 9 -1.5 15.5t-6.5 18t-19 18 t-36 6.5q-32 0 -54.5 -22.5t-33.5 -53.5t-19 -76h-233q7 43 21 85t43.5 90t70 83t105 58.5t143.5 23.5q65 0 115 -17.5t76 -41.5t42 -55.5t20.5 -54t4.5 -42.5q0 -73 -50 -137t-157 -98q90 -44 90 -160q0 -58 -22 -116.5t-65.5 -112t-120.5 -87.5t-175 -34 q-87 0 -148.5 27.5t-90 71.5t-37 98.5zM297 0l1214 1468h189l-1217 -1468h-186zM999 225l86 209l431 490h331l-194 -484q20 1 37.5 8t25.5 14l8 7l95 -104q-3 -6 -9.5 -15.5t-29 -34t-49.5 -43t-71 -33.5t-93 -14l-92 -225h-236l92 225h-332zM1282 434h133l111 283z" />
<glyph unicode="&#xbf;" horiz-adv-x="1134" d="M8 -109q0 91 41 166.5t104.5 131t131 105.5t131.5 113t94 130h313q-21 -73 -65.5 -144t-95 -123t-105.5 -104.5t-98.5 -92.5t-72 -83t-28.5 -80q0 -38 22.5 -73.5t74.5 -35.5q82 0 146.5 74.5t64.5 198.5h335q0 -71 -14.5 -139t-54.5 -141t-100.5 -127t-162 -89 t-231.5 -35q-94 0 -169.5 22.5t-123 58t-79.5 82.5t-45 93t-13 92zM590 860q0 97 67 163.5t164 66.5q95 0 161.5 -66.5t66.5 -163.5q0 -95 -66.5 -162t-161.5 -67q-97 0 -164 67t-67 162z" />
<glyph unicode="&#xc0;" horiz-adv-x="1894" d="M-131 354q0 66 19.5 129.5t60 121t98 100.5t140 68.5t178.5 25.5q173 0 389 -90l354 602q14 23 41.5 71.5t41.5 72.5t41 64.5t46 61t49.5 48t59.5 40.5t67 23t80 10q115 0 195 -58t108.5 -152t1.5 -200l-248 -948h27t32.5 0.5t35 5.5t41.5 13.5t44 25.5t51 41t54 61 t61 84q35 -3 72 -30t51 -58q-67 -120 -120.5 -192.5t-116 -121.5t-133 -64t-164.5 -5l-117 -446l-319 158l104 383q-128 54 -295 141q-76 -118 -158 -198.5t-194 -131.5t-240 -51q-204 0 -321 114.5t-117 280.5zM176 369q0 -41 26.5 -69t57 -37t59.5 -9q8 0 20 1.5t44.5 13 t65 32t77 64.5t84.5 104q-133 47 -233 47q-98 0 -149.5 -44t-51.5 -103zM1036 567q191 -95 230 -114l229 837l-20 8zM1221 2089h381l282 -330h-282z" />
<glyph unicode="&#xc1;" horiz-adv-x="1894" d="M-131 354q0 66 19.5 129.5t60 121t98 100.5t140 68.5t178.5 25.5q173 0 389 -90l354 602q14 23 41.5 71.5t41.5 72.5t41 64.5t46 61t49.5 48t59.5 40.5t67 23t80 10q115 0 195 -58t108.5 -152t1.5 -200l-248 -948h27t32.5 0.5t35 5.5t41.5 13.5t44 25.5t51 41t54 61 t61 84q35 -3 72 -30t51 -58q-67 -120 -120.5 -192.5t-116 -121.5t-133 -64t-164.5 -5l-117 -446l-319 158l104 383q-128 54 -295 141q-76 -118 -158 -198.5t-194 -131.5t-240 -51q-204 0 -321 114.5t-117 280.5zM176 369q0 -41 26.5 -69t57 -37t59.5 -9q8 0 20 1.5t44.5 13 t65 32t77 64.5t84.5 104q-133 47 -233 47q-98 0 -149.5 -44t-51.5 -103zM1036 567q191 -95 230 -114l229 837l-20 8zM1485 1759l284 330h379l-379 -330h-284z" />
<glyph unicode="&#xc2;" horiz-adv-x="1894" d="M-131 354q0 66 19.5 129.5t60 121t98 100.5t140 68.5t178.5 25.5q173 0 389 -90l354 602q14 23 41.5 71.5t41.5 72.5t41 64.5t46 61t49.5 48t59.5 40.5t67 23t80 10q115 0 195 -58t108.5 -152t1.5 -200l-248 -948h27t32.5 0.5t35 5.5t41.5 13.5t44 25.5t51 41t54 61 t61 84q35 -3 72 -30t51 -58q-67 -120 -120.5 -192.5t-116 -121.5t-133 -64t-164.5 -5l-117 -446l-319 158l104 383q-128 54 -295 141q-76 -118 -158 -198.5t-194 -131.5t-240 -51q-204 0 -321 114.5t-117 280.5zM176 369q0 -41 26.5 -69t57 -37t59.5 -9q8 0 20 1.5t44.5 13 t65 32t77 64.5t84.5 104q-133 47 -233 47q-98 0 -149.5 -44t-51.5 -103zM1036 567q191 -95 230 -114l229 837l-20 8zM1219 1761l479 375h186l178 -375h-254l-84 137l-186 -137h-319z" />
<glyph unicode="&#xc3;" horiz-adv-x="1894" d="M-131 354q0 66 19.5 129.5t60 121t98 100.5t140 68.5t178.5 25.5q173 0 389 -90l354 602q14 23 41.5 71.5t41.5 72.5t41 64.5t46 61t49.5 48t59.5 40.5t67 23t80 10q115 0 195 -58t108.5 -152t1.5 -200l-248 -948h27t32.5 0.5t35 5.5t41.5 13.5t44 25.5t51 41t54 61 t61 84q35 -3 72 -30t51 -58q-67 -120 -120.5 -192.5t-116 -121.5t-133 -64t-164.5 -5l-117 -446l-319 158l104 383q-128 54 -295 141q-76 -118 -158 -198.5t-194 -131.5t-240 -51q-204 0 -321 114.5t-117 280.5zM176 369q0 -41 26.5 -69t57 -37t59.5 -9q8 0 20 1.5t44.5 13 t65 32t77 64.5t84.5 104q-133 47 -233 47q-98 0 -149.5 -44t-51.5 -103zM1036 567q191 -95 230 -114l229 837l-20 8zM1321 1880q19 30 23.5 37t25 35.5t31 39t33 31t41.5 29t45.5 16t54.5 7.5q49 0 93 -19.5t81.5 -39t69.5 -19.5q29 0 59 18.5t51 52.5l109 -120 q-21 -33 -33 -50.5t-37.5 -48t-49 -46.5t-58.5 -29t-74 -13q-49 0 -92.5 19.5t-81 39t-70.5 19.5q-26 0 -56.5 -20t-53.5 -54z" />
<glyph unicode="&#xc4;" horiz-adv-x="1894" d="M-131 354q0 66 19.5 129.5t60 121t98 100.5t140 68.5t178.5 25.5q173 0 389 -90l354 602q14 23 41.5 71.5t41.5 72.5t41 64.5t46 61t49.5 48t59.5 40.5t67 23t80 10q115 0 195 -58t108.5 -152t1.5 -200l-248 -948h27t32.5 0.5t35 5.5t41.5 13.5t44 25.5t51 41t54 61 t61 84q35 -3 72 -30t51 -58q-67 -120 -120.5 -192.5t-116 -121.5t-133 -64t-164.5 -5l-117 -446l-319 158l104 383q-128 54 -295 141q-76 -118 -158 -198.5t-194 -131.5t-240 -51q-204 0 -321 114.5t-117 280.5zM176 369q0 -41 26.5 -69t57 -37t59.5 -9q8 0 20 1.5t44.5 13 t65 32t77 64.5t84.5 104q-133 47 -233 47q-98 0 -149.5 -44t-51.5 -103zM1036 567q191 -95 230 -114l229 837l-20 8zM1272 1911q0 72 50.5 123t121.5 51q72 0 123 -51t51 -123q0 -71 -51 -121.5t-123 -50.5q-70 0 -121 50.5t-51 121.5zM1671 1911q0 72 50.5 123t121.5 51 q72 0 123 -51t51 -123q0 -71 -51 -121.5t-123 -50.5q-71 0 -121.5 50.5t-50.5 121.5z" />
<glyph unicode="&#xc5;" horiz-adv-x="1894" d="M-131 354q0 66 19.5 129.5t60 121t98 100.5t140 68.5t178.5 25.5q173 0 389 -90l354 602q14 23 41.5 71.5t41.5 72.5t41 64.5t46 61t49.5 48t59.5 40.5t67 23t80 10q115 0 195 -58t108.5 -152t1.5 -200l-248 -948h27t32.5 0.5t35 5.5t41.5 13.5t44 25.5t51 41t54 61 t61 84q35 -3 72 -30t51 -58q-67 -120 -120.5 -192.5t-116 -121.5t-133 -64t-164.5 -5l-117 -446l-319 158l104 383q-128 54 -295 141q-76 -118 -158 -198.5t-194 -131.5t-240 -51q-204 0 -321 114.5t-117 280.5zM176 369q0 -41 26.5 -69t57 -37t59.5 -9q8 0 20 1.5t44.5 13 t65 32t77 64.5t84.5 104q-133 47 -233 47q-98 0 -149.5 -44t-51.5 -103zM1036 567q191 -95 230 -114l229 837l-20 8zM1483 2019q0 124 87 210.5t210 86.5t209 -86.5t86 -210.5q0 -123 -86 -209t-209 -86t-210 86t-87 209zM1675 2019q0 -41 31 -71.5t74 -30.5t73.5 30.5 t30.5 71.5q0 43 -30.5 74t-73.5 31t-74 -31t-31 -74z" />
<glyph unicode="&#xc6;" horiz-adv-x="2600" d="M-131 354q0 66 19.5 129.5t60 121t98 100.5t140 68.5t178.5 25.5q173 0 389 -90l354 602q14 23 41.5 71.5t41.5 72.5t41 64.5t46 61t49.5 48t59.5 40.5t67 23t80 10q115 0 195 -58t108.5 -152t1.5 -200l-80 -301q61 5 131 2q-14 45 -14 127q0 166 74 299q-64 178 -58 383 l234 -33q0 -82 14 -145q145 94 328 94q103 0 182.5 -30.5t125.5 -82t68.5 -111.5t22.5 -126q0 -71 -27.5 -136t-77.5 -115.5t-127 -80.5t-169 -30q-151 0 -271 69q13 -133 95 -209q22 -20 25 -19l-3 3l-176 -262q-4 3 -11.5 9t-32 20.5t-51 25.5t-67.5 20t-82 9 q-123 0 -195.5 -74t-72.5 -203q0 -130 73.5 -213.5t194.5 -83.5q63 0 116.5 23.5t88 64.5t53.5 92.5t16 111t-28 116.5l328 92q44 -141 37.5 -265t-60.5 -228t-137.5 -179t-194 -117t-229.5 -42q-236 0 -405 147l-68 -256l-319 158l104 383q-128 54 -295 141 q-114 -177 -258.5 -273t-333.5 -96q-205 0 -321.5 109t-116.5 274zM176 369q0 -32 15 -54t39 -31.5t45.5 -13.5t43.5 -4q11 0 19 0.5t43.5 10.5t66.5 28.5t76.5 61t85.5 102.5q-133 47 -233 47q-98 0 -149.5 -44t-51.5 -103zM1036 567q191 -95 230 -114l229 837l-20 8z M2273 1339q75 -69 172 -69q115 0 115 67q0 36 -34 54t-83 18q-100 0 -170 -70z" />
<glyph unicode="&#xc7;" horiz-adv-x="1587" d="M0 1102q0 156 73 280.5t195 194.5l174 -254l-24 -11q-84 -50 -101 -159q-4 -25 -4 -51l-1 -9v-17t1 -22.5t4 -27.5t9 -30.5t14.5 -33t22 -33t31 -32.5t42 -29.5t53.5 -25.5q47 131 109 253t145 235.5t174 197t202 134t224 50.5q95 0 170.5 -34.5t121.5 -94t70 -134 t24 -159.5q0 -158 -92.5 -324.5t-266.5 -287.5q-254 -168 -606 -168h2q-16 -94 -16 -166q0 -223 196 -223q52 0 114 14t139 48t150 84t148 130t133 178q35 -3 72 -30t51 -58q-151 -263 -363.5 -420t-459.5 -180l-43 -80q56 -22 82 -52.5t26 -86.5q0 -89 -62 -148t-148 -76.5 t-177.5 -6t-150.5 52.5l100 154q24 -12 50 -19.5t49 -9.5t38 6.5t15 28.5q0 30 -36.5 36t-94.5 -3l118 219q-152 37 -229.5 152t-77.5 288q0 105 23 217q-195 65 -303.5 205.5t-108.5 337.5zM856 811q190 24 318 125q95 76 139.5 169.5t44.5 158.5q0 86 -74 86 q-99 0 -218 -157.5t-210 -381.5z" />
<glyph unicode="&#xc8;" horiz-adv-x="1327" d="M0 383q0 138 55 259t142.5 200t198 120t220.5 31q-14 45 -14 127q0 166 74 299q-64 178 -58 383l234 -33q0 -82 14 -145q145 94 328 94q103 0 182.5 -30.5t125.5 -82t68.5 -111.5t22.5 -126q0 -71 -27.5 -136t-77.5 -115.5t-127 -80.5t-169 -30q-150 0 -270 69 q13 -133 95 -210q20 -18 24 -18l-3 3l-176 -262q-4 3 -11.5 9t-32 20.5t-51 25.5t-67.5 20t-82 9q-124 0 -196 -74.5t-72 -204.5q0 -132 74.5 -219.5t204.5 -87.5q64 0 119.5 25.5t92.5 68.5t57.5 97t18.5 115t-28 118l303 88q60 -176 33.5 -328t-110 -263.5t-216 -175.5 t-283.5 -64q-177 0 -319 83t-219.5 223.5t-77.5 309.5zM909 2114h379l285 -330h-283zM999 1339q75 -69 172 -69q115 0 115 67q0 36 -34 54t-83 18q-100 0 -170 -70z" />
<glyph unicode="&#xc9;" horiz-adv-x="1327" d="M0 383q0 138 55 259t142.5 200t198 120t220.5 31q-14 45 -14 127q0 166 74 299q-64 178 -58 383l234 -33q0 -82 14 -145q145 94 328 94q103 0 182.5 -30.5t125.5 -82t68.5 -111.5t22.5 -126q0 -71 -27.5 -136t-77.5 -115.5t-127 -80.5t-169 -30q-150 0 -270 69 q13 -133 95 -210q20 -18 24 -18l-3 3l-176 -262q-4 3 -11.5 9t-32 20.5t-51 25.5t-67.5 20t-82 9q-124 0 -196 -74.5t-72 -204.5q0 -132 74.5 -219.5t204.5 -87.5q64 0 119.5 25.5t92.5 68.5t57.5 97t18.5 115t-28 118l303 88q60 -176 33.5 -328t-110 -263.5t-216 -175.5 t-283.5 -64q-177 0 -319 83t-219.5 223.5t-77.5 309.5zM999 1339q75 -69 172 -69q115 0 115 67q0 36 -34 54t-83 18q-100 0 -170 -70zM1163 1784l283 330h381l-381 -330h-283z" />
<glyph unicode="&#xca;" horiz-adv-x="1327" d="M0 383q0 138 55 259t142.5 200t198 120t220.5 31q-14 45 -14 127q0 166 74 299q-64 178 -58 383l234 -33q0 -82 14 -145q145 94 328 94q103 0 182.5 -30.5t125.5 -82t68.5 -111.5t22.5 -126q0 -71 -27.5 -136t-77.5 -115.5t-127 -80.5t-169 -30q-150 0 -270 69 q13 -133 95 -210q20 -18 24 -18l-3 3l-176 -262q-4 3 -11.5 9t-32 20.5t-51 25.5t-67.5 20t-82 9q-124 0 -196 -74.5t-72 -204.5q0 -132 74.5 -219.5t204.5 -87.5q64 0 119.5 25.5t92.5 68.5t57.5 97t18.5 115t-28 118l303 88q60 -176 33.5 -328t-110 -263.5t-216 -175.5 t-283.5 -64q-177 0 -319 83t-219.5 223.5t-77.5 309.5zM907 1786l482 375h186l176 -375h-252l-84 137l-186 -137h-322zM999 1339q75 -69 172 -69q115 0 115 67q0 36 -34 54t-83 18q-100 0 -170 -70z" />
<glyph unicode="&#xcb;" horiz-adv-x="1327" d="M0 383q0 138 55 259t142.5 200t198 120t220.5 31q-14 45 -14 127q0 166 74 299q-64 178 -58 383l234 -33q0 -82 14 -145q145 94 328 94q103 0 182.5 -30.5t125.5 -82t68.5 -111.5t22.5 -126q0 -71 -27.5 -136t-77.5 -115.5t-127 -80.5t-169 -30q-150 0 -270 69 q13 -133 95 -210q20 -18 24 -18l-3 3l-176 -262q-4 3 -11.5 9t-32 20.5t-51 25.5t-67.5 20t-82 9q-124 0 -196 -74.5t-72 -204.5q0 -132 74.5 -219.5t204.5 -87.5q64 0 119.5 25.5t92.5 68.5t57.5 97t18.5 115t-28 118l303 88q60 -176 33.5 -328t-110 -263.5t-216 -175.5 t-283.5 -64q-177 0 -319 83t-219.5 223.5t-77.5 309.5zM946 1933q0 72 50.5 123t121.5 51q72 0 123 -51t51 -123q0 -71 -51 -121.5t-123 -50.5q-70 0 -121 50.5t-51 121.5zM999 1339q75 -69 172 -69q115 0 115 67q0 36 -34 54t-83 18q-100 0 -170 -70zM1346 1933 q0 72 50.5 123t121.5 51q72 0 123 -51t51 -123q0 -71 -51 -121.5t-123 -50.5q-70 0 -121 50.5t-51 121.5z" />
<glyph unicode="&#xcc;" horiz-adv-x="1335" d="M-125 264q0 99 37 187t103.5 152.5t168 97.5t222.5 22v-301q-69 5 -116.5 -10t-68 -42.5t-28 -51t-7.5 -48.5q0 -74 59 -126t134 -52q132 0 240 119t204 344l277 684q-81 -23 -132 -39t-109.5 -37t-93 -39t-65 -41t-44 -48.5t-13.5 -55.5q0 -34 15.5 -57t41 -32.5 t43.5 -12.5t37 -3v-296q-198 0 -320.5 106.5t-121.5 280.5q0 211 182 341q124 88 399 177q54 17 167 51q137 42 208 65q128 125 305 125l66 -190q-4 -2 -11.5 -6t-28.5 -19t-40.5 -34.5t-42.5 -53.5t-39 -73l-387 -965q-56 -142 -128.5 -250t-144.5 -171.5t-154 -103 t-151 -53.5t-143 -14q-104 0 -191 27t-147 72.5t-101.5 106.5t-61 128.5t-19.5 138.5zM1018 2134h379l284 -330h-284z" />
<glyph unicode="&#xcd;" horiz-adv-x="1335" d="M-125 264q0 99 37 187t103.5 152.5t168 97.5t222.5 22v-301q-69 5 -116.5 -10t-68 -42.5t-28 -51t-7.5 -48.5q0 -74 59 -126t134 -52q132 0 240 119t204 344l277 684q-81 -23 -132 -39t-109.5 -37t-93 -39t-65 -41t-44 -48.5t-13.5 -55.5q0 -34 15.5 -57t41 -32.5 t43.5 -12.5t37 -3v-296q-198 0 -320.5 106.5t-121.5 280.5q0 211 182 341q124 88 399 177q54 17 167 51q137 42 208 65q128 125 305 125l66 -190q-4 -2 -11.5 -6t-28.5 -19t-40.5 -34.5t-42.5 -53.5t-39 -73l-387 -965q-56 -142 -128.5 -250t-144.5 -171.5t-154 -103 t-151 -53.5t-143 -14q-104 0 -191 27t-147 72.5t-101.5 106.5t-61 128.5t-19.5 138.5zM1311 1804l284 330h379l-379 -330h-284z" />
<glyph unicode="&#xce;" horiz-adv-x="1335" d="M-125 264q0 99 37 187t103.5 152.5t168 97.5t222.5 22v-301q-69 5 -116.5 -10t-68 -42.5t-28 -51t-7.5 -48.5q0 -74 59 -126t134 -52q132 0 240 119t204 344l277 684q-81 -23 -132 -39t-109.5 -37t-93 -39t-65 -41t-44 -48.5t-13.5 -55.5q0 -34 15.5 -57t41 -32.5 t43.5 -12.5t37 -3v-296q-198 0 -320.5 106.5t-121.5 280.5q0 211 182 341q124 88 399 177q54 17 167 51q137 42 208 65q128 125 305 125l66 -190q-4 -2 -11.5 -6t-28.5 -19t-40.5 -34.5t-42.5 -53.5t-39 -73l-387 -965q-56 -142 -128.5 -250t-144.5 -171.5t-154 -103 t-151 -53.5t-143 -14q-104 0 -191 27t-147 72.5t-101.5 106.5t-61 128.5t-19.5 138.5zM975 1806l479 375h188l177 -375h-254l-84 138l-187 -138h-319z" />
<glyph unicode="&#xcf;" horiz-adv-x="1335" d="M-125 264q0 99 37 187t103.5 152.5t168 97.5t222.5 22v-301q-69 5 -116.5 -10t-68 -42.5t-28 -51t-7.5 -48.5q0 -74 59 -126t134 -52q132 0 240 119t204 344l277 684q-81 -23 -132 -39t-109.5 -37t-93 -39t-65 -41t-44 -48.5t-13.5 -55.5q0 -34 15.5 -57t41 -32.5 t43.5 -12.5t37 -3v-296q-198 0 -320.5 106.5t-121.5 280.5q0 211 182 341q124 88 399 177q54 17 167 51q137 42 208 65q128 125 305 125l66 -190q-4 -2 -11.5 -6t-28.5 -19t-40.5 -34.5t-42.5 -53.5t-39 -73l-387 -965q-56 -142 -128.5 -250t-144.5 -171.5t-154 -103 t-151 -53.5t-143 -14q-104 0 -191 27t-147 72.5t-101.5 106.5t-61 128.5t-19.5 138.5zM1085 1956q0 72 50 123t120 51q73 0 124 -51t51 -123q0 -71 -51 -121.5t-124 -50.5q-70 0 -120 50.5t-50 121.5zM1485 1956q0 72 50 123t120 51q73 0 123.5 -51t50.5 -123 q0 -71 -50.5 -121.5t-123.5 -50.5q-70 0 -120 50.5t-50 121.5z" />
<glyph unicode="&#xd0;" horiz-adv-x="2043" d="M-61 258q0 44 12 89t40 89.5t69 78.5t104.5 55.5t140.5 21.5q160 0 352 -119q2 3 12 22.5t15 30.5h-86l88 219h88l117 287q23 55 61 107t91 98t125.5 74t152.5 28l65 -190q-4 -2 -11.5 -6t-29 -19.5t-40.5 -35t-42 -53t-38 -72.5q-43 -105 -88 -218h161l-88 -219h-161 q-8 -16 -48.5 -106t-74.5 -148q133 -94 254 -94q111 0 209.5 72.5t163 186t102 250t37.5 267.5q0 82 -15 152t-49.5 131t-85.5 103.5t-127.5 67t-171.5 24.5q-102 0 -189.5 -27t-147 -71t-102 -101t-62 -116t-19.5 -116q0 -43 11.5 -89.5t23.5 -71.5l12 -25l-242 -180 q-4 6 -11 17t-24 48t-30 76t-24 98.5t-11 118.5q0 106 32 208.5t100 195t165 162.5t236 111.5t303 41.5q159 0 289.5 -37.5t222.5 -105.5t155 -163.5t93 -210.5t30 -247q0 -99 -16 -202t-50.5 -207.5t-84 -200t-120.5 -178.5t-156 -144t-195 -96t-232 -35q-74 0 -136 13 t-116.5 42t-94.5 57.5t-97 76.5q-177 -150 -416 -150q-91 0 -163 22.5t-115.5 57t-72 80.5t-39.5 88.5t-11 85.5zM207 279q0 -38 30 -56t78 -18q102 0 193 78q-116 82 -189 82q-54 0 -83 -24.5t-29 -61.5z" />
<glyph unicode="&#xd1;" horiz-adv-x="1847" d="M0 922q0 78 24.5 143t63.5 113t104.5 91.5t130.5 73.5t158.5 62.5t172 56t188 57.5t190.5 62l256 -266q118 107 243 177.5t232 70.5q103 0 157 -65t54 -163q0 -54 -17.5 -114.5t-58.5 -167.5l-421 -1049q-17 -48 -22.5 -82t1 -65.5t31 -56.5t69.5 -46l-108 -270 q-103 31 -175.5 79t-111 104t-53 123t-6.5 134t35 139l342 846q10 26 28.5 72.5t27 69t19.5 52t15 48t4 31.5q0 21 -13.5 33t-31.5 12q-53 0 -173 -88.5t-214 -188.5l-391 -977h-363l508 1264q-44 -14 -129 -39q-87 -26 -129.5 -39.5t-108 -36.5t-96.5 -40t-65.5 -41 t-48 -50t-13.5 -57q0 -34 15.5 -56.5t40.5 -32t44 -13t37 -3.5v-294q-198 0 -320.5 106.5t-121.5 280.5zM1247 1794q19 30 23.5 37t25 35.5t31 39t33 31t41.5 29t45.5 16t54.5 7.5q49 0 93 -19.5t81.5 -39t69.5 -19.5q29 0 59 18.5t51 52.5l107 -120q-22 -34 -32.5 -50.5 t-37 -47.5t-49 -47t-57.5 -29t-74 -13q-49 0 -92.5 19.5t-81 39t-70.5 19.5q-26 0 -56.5 -20t-53.5 -54z" />
<glyph unicode="&#xd2;" horiz-adv-x="1517" d="M0 362q0 116 27 248.5t84.5 272.5t138 263.5t197.5 226.5t253 157q139 176 357 176q64 0 122 -15.5t113.5 -53t95.5 -95t64.5 -148.5t24.5 -206q0 -189 -64 -414t-178 -420q198 4 326 221q35 -3 71.5 -30t50.5 -58q-17 -29 -36.5 -56.5t-46.5 -60.5t-56.5 -60.5 t-67 -55.5t-76.5 -46t-86 -32.5t-96 -14t-106 8.5q-285 -354 -641 -354q-100 0 -180 29.5t-133.5 80.5t-89.5 121t-52 148.5t-16 166.5zM338 340q0 -108 39 -176t119 -68q142 0 303 213q-11 8 -30 24t-67 75t-84.5 129t-67.5 188t-32 250q-81 -173 -130.5 -340.5 t-49.5 -294.5zM686 2089h381l283 -330h-283zM811 958q0 -254 121 -428q86 170 140 344t54 289q0 80 -28.5 128t-79.5 48q-81 0 -144 -99t-63 -282z" />
<glyph unicode="&#xd3;" horiz-adv-x="1517" d="M0 362q0 116 27 248.5t84.5 272.5t138 263.5t197.5 226.5t253 157q139 176 357 176q64 0 122 -15.5t113.5 -53t95.5 -95t64.5 -148.5t24.5 -206q0 -189 -64 -414t-178 -420q198 4 326 221q35 -3 71.5 -30t50.5 -58q-17 -29 -36.5 -56.5t-46.5 -60.5t-56.5 -60.5 t-67 -55.5t-76.5 -46t-86 -32.5t-96 -14t-106 8.5q-285 -354 -641 -354q-100 0 -180 29.5t-133.5 80.5t-89.5 121t-52 148.5t-16 166.5zM338 340q0 -108 39 -176t119 -68q142 0 303 213q-11 8 -30 24t-67 75t-84.5 129t-67.5 188t-32 250q-81 -173 -130.5 -340.5 t-49.5 -294.5zM811 958q0 -254 121 -428q86 170 140 344t54 289q0 80 -28.5 128t-79.5 48q-81 0 -144 -99t-63 -282zM903 1759l285 330h379l-379 -330h-285z" />
<glyph unicode="&#xd4;" horiz-adv-x="1517" d="M0 362q0 116 27 248.5t84.5 272.5t138 263.5t197.5 226.5t253 157q139 176 357 176q64 0 122 -15.5t113.5 -53t95.5 -95t64.5 -148.5t24.5 -206q0 -189 -64 -414t-178 -420q198 4 326 221q35 -3 71.5 -30t50.5 -58q-17 -29 -36.5 -56.5t-46.5 -60.5t-56.5 -60.5 t-67 -55.5t-76.5 -46t-86 -32.5t-96 -14t-106 8.5q-285 -354 -641 -354q-100 0 -180 29.5t-133.5 80.5t-89.5 121t-52 148.5t-16 166.5zM338 340q0 -108 39 -176t119 -68q142 0 303 213q-11 8 -30 24t-67 75t-84.5 129t-67.5 188t-32 250q-81 -173 -130.5 -340.5 t-49.5 -294.5zM680 1761l479 375h187l178 -375h-254l-84 137l-187 -137h-319zM811 958q0 -254 121 -428q86 170 140 344t54 289q0 80 -28.5 128t-79.5 48q-81 0 -144 -99t-63 -282z" />
<glyph unicode="&#xd5;" horiz-adv-x="1517" d="M0 362q0 116 27 248.5t84.5 272.5t138 263.5t197.5 226.5t253 157q139 176 357 176q64 0 122 -15.5t113.5 -53t95.5 -95t64.5 -148.5t24.5 -206q0 -189 -64 -414t-178 -420q198 4 326 221q35 -3 71.5 -30t50.5 -58q-17 -29 -36.5 -56.5t-46.5 -60.5t-56.5 -60.5 t-67 -55.5t-76.5 -46t-86 -32.5t-96 -14t-106 8.5q-285 -354 -641 -354q-100 0 -180 29.5t-133.5 80.5t-89.5 121t-52 148.5t-16 166.5zM338 340q0 -108 39 -176t119 -68q142 0 303 213q-11 8 -30 24t-67 75t-84.5 129t-67.5 188t-32 250q-81 -173 -130.5 -340.5 t-49.5 -294.5zM809 1880q19 30 23.5 37t25 35.5t31 39t33 31t41.5 29t45.5 16t54.5 7.5q49 0 93 -19.5t81.5 -39t69.5 -19.5q29 0 59 18.5t51 52.5l109 -120q-21 -33 -33 -50.5t-37.5 -48t-49 -46.5t-58.5 -29t-74 -13q-49 0 -92.5 19.5t-81 39t-70.5 19.5q-26 0 -56.5 -20 t-53.5 -54zM811 958q0 -254 121 -428q86 170 140 344t54 289q0 80 -28.5 128t-79.5 48q-81 0 -144 -99t-63 -282z" />
<glyph unicode="&#xd6;" horiz-adv-x="1517" d="M0 362q0 116 27 248.5t84.5 272.5t138 263.5t197.5 226.5t253 157q139 176 357 176q64 0 122 -15.5t113.5 -53t95.5 -95t64.5 -148.5t24.5 -206q0 -189 -64 -414t-178 -420q198 4 326 221q35 -3 71.5 -30t50.5 -58q-17 -29 -36.5 -56.5t-46.5 -60.5t-56.5 -60.5 t-67 -55.5t-76.5 -46t-86 -32.5t-96 -14t-106 8.5q-285 -354 -641 -354q-100 0 -180 29.5t-133.5 80.5t-89.5 121t-52 148.5t-16 166.5zM338 340q0 -108 39 -176t119 -68q142 0 303 213q-11 8 -30 24t-67 75t-84.5 129t-67.5 188t-32 250q-81 -173 -130.5 -340.5 t-49.5 -294.5zM770 1911q0 71 50 121.5t120 50.5q72 0 123 -50t51 -122q0 -70 -51 -120t-123 -50q-69 0 -119.5 50t-50.5 120zM811 958q0 -254 121 -428q86 170 140 344t54 289q0 80 -28.5 128t-79.5 48q-81 0 -144 -99t-63 -282zM1167 1911q0 72 50.5 122t121.5 50 t121.5 -50t50.5 -122q0 -70 -50.5 -120t-121.5 -50t-121.5 50t-50.5 120z" />
<glyph unicode="&#xd7;" horiz-adv-x="1265" d="M70 393l311 223l-119 199l256 186l121 -198l326 231l151 -270l-319 -227q19 -31 64.5 -110t64.5 -110l-260 -180l-129 217l-314 -223z" />
<glyph unicode="&#xd8;" horiz-adv-x="1517" d="M0 362q0 116 27 248.5t84.5 272.5t138 263.5t197.5 226.5t253 157q111 144 279 172l53 129h154l-51 -131q72 -12 131.5 -46.5t108 -94.5t75.5 -154.5t27 -216.5q0 -189 -64 -414t-178 -420q198 4 326 221q35 -3 71.5 -30t50.5 -58q-17 -29 -36.5 -56.5t-46.5 -60.5 t-56.5 -60.5t-67 -55.5t-76.5 -46t-86 -32.5t-96 -14t-106 8.5q-148 -187 -337.5 -283t-401.5 -65l-70 -176h-153l90 223q-125 66 -182.5 197.5t-57.5 295.5zM338 340q0 -108 39 -176t119 -68q143 0 301 213q-6 4 -16 12t-38.5 37.5t-54.5 64t-58 92.5t-55.5 122t-39.5 153 t-17 185q-81 -173 -130.5 -340.5t-49.5 -294.5zM811 958q0 -254 121 -428q86 170 140 344t54 289q0 80 -28.5 128t-79.5 48q-81 0 -144 -99t-63 -282z" />
<glyph unicode="&#xd9;" horiz-adv-x="1884" d="M0 819q0 59 14 110.5t37 93t62.5 79.5t79.5 66t100 57.5t111.5 50t127 45.5t134 43t144 44t146.5 46q60 73 147 118.5t193 45.5l66 -191q-4 -2 -11.5 -6t-28.5 -19t-40 -34.5t-42 -53.5t-38 -73l-289 -715q-50 -126 -61.5 -194.5t-2 -79t29.5 -10.5q79 0 206 99t197 234 l365 912h362l-403 -1012q-23 -60 -33.5 -104.5t-10.5 -69.5t8.5 -39.5t20 -19t27.5 -4.5q65 0 133 74.5t176 262.5q35 -3 72 -30t51 -58q-64 -112 -125.5 -197t-135.5 -160.5t-159 -116t-174 -40.5q-50 0 -93 13.5t-79.5 41t-54.5 77t-12 114.5q-240 -297 -480 -297 q-72 0 -126.5 26t-87 79.5t-40.5 129t13 181t73 229.5l215 535q-66 -19 -105 -31t-92 -29.5t-83.5 -30t-67.5 -29.5t-57 -32t-39 -34t-27 -39t-8 -43q0 -34 15.5 -57t41 -32.5t43.5 -12.5t37 -3v-297q-198 0 -320.5 106.5t-121.5 280.5zM1192 2003h379l284 -330h-282z" />
<glyph unicode="&#xda;" horiz-adv-x="1884" d="M0 819q0 59 14 110.5t37 93t62.5 79.5t79.5 66t100 57.5t111.5 50t127 45.5t134 43t144 44t146.5 46q60 73 147 118.5t193 45.5l66 -191q-4 -2 -11.5 -6t-28.5 -19t-40 -34.5t-42 -53.5t-38 -73l-289 -715q-50 -126 -61.5 -194.5t-2 -79t29.5 -10.5q79 0 206 99t197 234 l365 912h362l-403 -1012q-23 -60 -33.5 -104.5t-10.5 -69.5t8.5 -39.5t20 -19t27.5 -4.5q65 0 133 74.5t176 262.5q35 -3 72 -30t51 -58q-64 -112 -125.5 -197t-135.5 -160.5t-159 -116t-174 -40.5q-50 0 -93 13.5t-79.5 41t-54.5 77t-12 114.5q-240 -297 -480 -297 q-72 0 -126.5 26t-87 79.5t-40.5 129t13 181t73 229.5l215 535q-66 -19 -105 -31t-92 -29.5t-83.5 -30t-67.5 -29.5t-57 -32t-39 -34t-27 -39t-8 -43q0 -34 15.5 -57t41 -32.5t43.5 -12.5t37 -3v-297q-198 0 -320.5 106.5t-121.5 280.5zM1374 1673l283 330h381l-381 -330 h-283z" />
<glyph unicode="&#xdb;" horiz-adv-x="1884" d="M0 819q0 59 14 110.5t37 93t62.5 79.5t79.5 66t100 57.5t111.5 50t127 45.5t134 43t144 44t146.5 46q60 73 147 118.5t193 45.5l66 -191q-4 -2 -11.5 -6t-28.5 -19t-40 -34.5t-42 -53.5t-38 -73l-289 -715q-50 -126 -61.5 -194.5t-2 -79t29.5 -10.5q79 0 206 99t197 234 l365 912h362l-403 -1012q-23 -60 -33.5 -104.5t-10.5 -69.5t8.5 -39.5t20 -19t27.5 -4.5q65 0 133 74.5t176 262.5q35 -3 72 -30t51 -58q-64 -112 -125.5 -197t-135.5 -160.5t-159 -116t-174 -40.5q-50 0 -93 13.5t-79.5 41t-54.5 77t-12 114.5q-240 -297 -480 -297 q-72 0 -126.5 26t-87 79.5t-40.5 129t13 181t73 229.5l215 535q-66 -19 -105 -31t-92 -29.5t-83.5 -30t-67.5 -29.5t-57 -32t-39 -34t-27 -39t-8 -43q0 -34 15.5 -57t41 -32.5t43.5 -12.5t37 -3v-297q-198 0 -320.5 106.5t-121.5 280.5zM1135 1675l479 375h186l178 -375 h-254l-84 137l-186 -137h-319z" />
<glyph unicode="&#xdc;" horiz-adv-x="1884" d="M0 819q0 59 14 110.5t37 93t62.5 79.5t79.5 66t100 57.5t111.5 50t127 45.5t134 43t144 44t146.5 46q60 73 147 118.5t193 45.5l66 -191q-4 -2 -11.5 -6t-28.5 -19t-40 -34.5t-42 -53.5t-38 -73l-289 -715q-50 -126 -61.5 -194.5t-2 -79t29.5 -10.5q79 0 206 99t197 234 l365 912h362l-403 -1012q-23 -60 -33.5 -104.5t-10.5 -69.5t8.5 -39.5t20 -19t27.5 -4.5q65 0 133 74.5t176 262.5q35 -3 72 -30t51 -58q-64 -112 -125.5 -197t-135.5 -160.5t-159 -116t-174 -40.5q-50 0 -93 13.5t-79.5 41t-54.5 77t-12 114.5q-240 -297 -480 -297 q-72 0 -126.5 26t-87 79.5t-40.5 129t13 181t73 229.5l215 535q-66 -19 -105 -31t-92 -29.5t-83.5 -30t-67.5 -29.5t-57 -32t-39 -34t-27 -39t-8 -43q0 -34 15.5 -57t41 -32.5t43.5 -12.5t37 -3v-297q-198 0 -320.5 106.5t-121.5 280.5zM1204 1825q0 72 50.5 123t121.5 51 q72 0 122 -51t50 -123q0 -71 -50 -121.5t-122 -50.5q-70 0 -121 50.5t-51 121.5zM1604 1825q0 72 50.5 123t121.5 51q72 0 122 -51t50 -123q0 -71 -50 -121.5t-122 -50.5q-70 0 -121 50.5t-51 121.5z" />
<glyph unicode="&#xdd;" horiz-adv-x="1822" d="M0 819q0 72 20 133.5t57 108.5t90 87.5t116.5 72.5t140 61t158 55t171.5 53q45 13 69.5 20.5t63 19.5t70.5 22q60 75 147 120.5t193 45.5l66 -191q-4 -2 -11.5 -6t-28.5 -19t-40 -34.5t-42 -53.5t-38 -73l-289 -715q-51 -129 -61 -197.5t0 -77.5t29 -9q80 0 203 100.5 t198 232.5l367 912h360l-536 -1329q128 84 221.5 180.5t171.5 236.5q35 -3 72 -30t51 -58q-70 -123 -142.5 -216t-152.5 -162.5t-154 -118.5t-176 -103q-14 -34 -37 -97t-40.5 -111t-45.5 -111.5t-55.5 -110.5t-68 -96t-84.5 -80.5t-102.5 -51.5t-125.5 -20q-68 0 -122 19 t-86.5 49t-54.5 69t-30.5 75.5t-9.5 72.5q0 204 272 330q21 11 51.5 24t55.5 23t68 27.5t69 27.5l63 156q-174 -160 -346 -160q-89 0 -150 42t-88 121.5t-10 203.5t80 278l217 535q-69 -20 -105.5 -31.5t-91 -29t-83.5 -29.5t-67.5 -29t-57.5 -32t-39 -34t-27.5 -39.5 t-7.5 -43.5q0 -34 15.5 -57t41 -32.5t43.5 -12.5t37 -3v-297q-198 0 -320.5 106.5t-121.5 280.5zM709 -487q0 -27 17.5 -39.5t39.5 -12.5q38 0 71.5 52t86.5 180q-76 -31 -113 -53q-42 -24 -72 -58.5t-30 -68.5zM1368 1675l285 330h379l-379 -330h-285z" />
<glyph unicode="&#xde;" horiz-adv-x="1617" d="M-4 713q0 68 17.5 141.5t52.5 153.5t96.5 152.5t141.5 132.5t195 100.5t251 50.5q24 55 61.5 106.5t90 96.5t124.5 72.5t152 27.5l65 -191q-9 -4 -24.5 -13.5t-52.5 -46t-62 -81.5q99 -26 179.5 -74t134 -107.5t89.5 -131.5t52 -144.5t16 -148.5q0 -162 -71.5 -305.5 t-199 -236t-304 -113.5t-386.5 61l-94 -242h-360l465 1155q-156 -58 -241 -176t-85 -235q0 -44 11.5 -91t22.5 -72l11 -26l-240 -180q-4 7 -11.5 19.5t-26 51.5t-33 79.5t-26 99.5t-11.5 115zM709 444q57 -35 128.5 -39t139.5 24t125 78t92 129.5t35 172.5q0 51 -10.5 97 t-35 94.5t-74.5 86.5t-120 58z" />
<glyph unicode="&#xdf;" horiz-adv-x="1232" d="M-266 -184l401 997q26 63 45.5 107t50 105t57.5 104t65.5 95t77 87.5t89.5 71.5t105.5 57.5t122 35t141.5 13.5q88 0 156.5 -19t108.5 -47.5t66 -68t35 -76.5t9 -76q0 -66 -28.5 -133.5t-75 -123t-100 -99.5t-108.5 -72q70 -43 111 -116t41 -169q0 -23 -2.5 -46.5 t-6.5 -42.5t-8.5 -37.5t-9 -32t-8.5 -23.5l-6 -15l-2 -5q123 127 215 288q35 -3 72 -30t51 -58q-52 -92 -100 -159.5t-118.5 -138t-147.5 -115t-183.5 -73t-231.5 -28.5q-69 0 -132 13t-103.5 31.5t-71.5 37.5t-45 32l-14 13l115 107q8 -6 21 -15.5t52.5 -25.5t75.5 -16 q59 0 108.5 29.5t80.5 75t48 97t17 99.5q0 94 -65.5 148t-182.5 54l88 226q73 19 128.5 56t84.5 78.5t42.5 79t13.5 68.5q0 56 -62 56q-38 0 -74 -17.5t-66 -51.5t-53 -66.5t-46 -81t-34.5 -76t-27.5 -68.5l-420 -1040h-362z" />
<glyph unicode="&#xe0;" d="M-23 254q0 49 10.5 115.5t33 146t54.5 159.5t80 155t104 132.5t131.5 92.5t158.5 35q59 0 107 -17t74.5 -41.5t45 -49t24.5 -41.5l7 -17l420 139l-244 -606q-28 -69 -42.5 -119t-17.5 -76.5t2 -42t12.5 -19t18.5 -3.5q60 0 154.5 96.5t202.5 281.5q35 -3 72 -30t51 -58 q-64 -112 -129.5 -199.5t-143.5 -161t-167.5 -113.5t-184.5 -40q-46 0 -84.5 9.5t-64.5 24.5t-46 33.5t-31.5 37t-19 33.5t-9.5 25l-3 9q-6 -7 -17 -18.5t-46.5 -41t-72.5 -52.5t-90.5 -41.5t-105.5 -18.5q-117 0 -180.5 79.5t-63.5 201.5zM332 334q0 -72 65 -72 q31 0 63 13.5t55 33t41.5 38.5t27.5 33l10 13l121 297q0 4 -1 11t-6 25.5t-13.5 32t-26 25t-41.5 11.5q-54 0 -110.5 -55t-95.5 -130.5t-64 -152t-25 -123.5zM440 1491h379l285 -330h-285z" />
<glyph unicode="&#xe1;" d="M-23 254q0 49 10.5 115.5t33 146t54.5 159.5t80 155t104 132.5t131.5 92.5t158.5 35q59 0 107 -17t74.5 -41.5t45 -49t24.5 -41.5l7 -17l420 139l-244 -606q-28 -69 -42.5 -119t-17.5 -76.5t2 -42t12.5 -19t18.5 -3.5q60 0 154.5 96.5t202.5 281.5q35 -3 72 -30t51 -58 q-64 -112 -129.5 -199.5t-143.5 -161t-167.5 -113.5t-184.5 -40q-46 0 -84.5 9.5t-64.5 24.5t-46 33.5t-31.5 37t-19 33.5t-9.5 25l-3 9q-6 -7 -17 -18.5t-46.5 -41t-72.5 -52.5t-90.5 -41.5t-105.5 -18.5q-117 0 -180.5 79.5t-63.5 201.5zM332 334q0 -72 65 -72 q31 0 63 13.5t55 33t41.5 38.5t27.5 33l10 13l121 297q0 4 -1 11t-6 25.5t-13.5 32t-26 25t-41.5 11.5q-54 0 -110.5 -55t-95.5 -130.5t-64 -152t-25 -123.5zM524 1161l285 330h379l-379 -330h-285z" />
<glyph unicode="&#xe2;" d="M-23 254q0 49 10.5 115.5t33 146t54.5 159.5t80 155t104 132.5t131.5 92.5t158.5 35q59 0 107 -17t74.5 -41.5t45 -49t24.5 -41.5l7 -17l420 139l-244 -606q-28 -69 -42.5 -119t-17.5 -76.5t2 -42t12.5 -19t18.5 -3.5q60 0 154.5 96.5t202.5 281.5q35 -3 72 -30t51 -58 q-64 -112 -129.5 -199.5t-143.5 -161t-167.5 -113.5t-184.5 -40q-46 0 -84.5 9.5t-64.5 24.5t-46 33.5t-31.5 37t-19 33.5t-9.5 25l-3 9q-6 -7 -17 -18.5t-46.5 -41t-72.5 -52.5t-90.5 -41.5t-105.5 -18.5q-117 0 -180.5 79.5t-63.5 201.5zM332 334q0 -72 65 -72 q31 0 63 13.5t55 33t41.5 38.5t27.5 33l10 13l121 297q0 4 -1 11t-6 25.5t-13.5 32t-26 25t-41.5 11.5q-54 0 -110.5 -55t-95.5 -130.5t-64 -152t-25 -123.5zM350 1141l481 375h187l176 -375h-252l-84 137l-186 -137h-322z" />
<glyph unicode="&#xe3;" d="M-23 254q0 49 10.5 115.5t33 146t54.5 159.5t80 155t104 132.5t131.5 92.5t158.5 35q59 0 107 -17t74.5 -41.5t45 -49t24.5 -41.5l7 -17l420 139l-244 -606q-28 -69 -42.5 -119t-17.5 -76.5t2 -42t12.5 -19t18.5 -3.5q60 0 154.5 96.5t202.5 281.5q35 -3 72 -30t51 -58 q-64 -112 -129.5 -199.5t-143.5 -161t-167.5 -113.5t-184.5 -40q-46 0 -84.5 9.5t-64.5 24.5t-46 33.5t-31.5 37t-19 33.5t-9.5 25l-3 9q-6 -7 -17 -18.5t-46.5 -41t-72.5 -52.5t-90.5 -41.5t-105.5 -18.5q-117 0 -180.5 79.5t-63.5 201.5zM332 334q0 -72 65 -72 q31 0 63 13.5t55 33t41.5 38.5t27.5 33l10 13l121 297q0 4 -1 11t-6 25.5t-13.5 32t-26 25t-41.5 11.5q-54 0 -110.5 -55t-95.5 -130.5t-64 -152t-25 -123.5zM512 1321q19 30 23.5 37t25 35.5t31 39t33 31t41.5 29t45.5 16t54.5 7.5q49 0 93 -19.5t81.5 -39t69.5 -19.5 q29 0 59 18.5t51 52.5l109 -120q-21 -33 -33 -50.5t-37.5 -48t-49 -46.5t-58.5 -29t-74 -13q-49 0 -92.5 19.5t-81 39t-70.5 19.5q-26 0 -56.5 -20t-53.5 -54z" />
<glyph unicode="&#xe4;" d="M-23 254q0 49 10.5 115.5t33 146t54.5 159.5t80 155t104 132.5t131.5 92.5t158.5 35q59 0 107 -17t74.5 -41.5t45 -49t24.5 -41.5l7 -17l420 139l-244 -606q-28 -69 -42.5 -119t-17.5 -76.5t2 -42t12.5 -19t18.5 -3.5q60 0 154.5 96.5t202.5 281.5q35 -3 72 -30t51 -58 q-64 -112 -129.5 -199.5t-143.5 -161t-167.5 -113.5t-184.5 -40q-46 0 -84.5 9.5t-64.5 24.5t-46 33.5t-31.5 37t-19 33.5t-9.5 25l-3 9q-6 -7 -17 -18.5t-46.5 -41t-72.5 -52.5t-90.5 -41.5t-105.5 -18.5q-117 0 -180.5 79.5t-63.5 201.5zM332 334q0 -72 65 -72 q31 0 63 13.5t55 33t41.5 38.5t27.5 33l10 13l121 297q0 4 -1 11t-6 25.5t-13.5 32t-26 25t-41.5 11.5q-54 0 -110.5 -55t-95.5 -130.5t-64 -152t-25 -123.5zM463 1333q0 72 50.5 123t121.5 51q72 0 123 -51t51 -123q0 -71 -51 -121.5t-123 -50.5q-71 0 -121.5 50.5 t-50.5 121.5zM862 1333q0 72 50.5 123t121.5 51q72 0 123 -51t51 -123q0 -71 -51 -121.5t-123 -50.5q-70 0 -121 50.5t-51 121.5z" />
<glyph unicode="&#xe5;" d="M-23 254q0 49 10.5 115.5t33 146t54.5 159.5t80 155t104 132.5t131.5 92.5t158.5 35q59 0 107 -17t74.5 -41.5t45 -49t24.5 -41.5l7 -17l420 139l-244 -606q-28 -69 -42.5 -119t-17.5 -76.5t2 -42t12.5 -19t18.5 -3.5q60 0 154.5 96.5t202.5 281.5q35 -3 72 -30t51 -58 q-64 -112 -129.5 -199.5t-143.5 -161t-167.5 -113.5t-184.5 -40q-46 0 -84.5 9.5t-64.5 24.5t-46 33.5t-31.5 37t-19 33.5t-9.5 25l-3 9q-6 -7 -17 -18.5t-46.5 -41t-72.5 -52.5t-90.5 -41.5t-105.5 -18.5q-117 0 -180.5 79.5t-63.5 201.5zM332 334q0 -72 65 -72 q31 0 63 13.5t55 33t41.5 38.5t27.5 33l10 13l121 297q0 4 -1 11t-6 25.5t-13.5 32t-26 25t-41.5 11.5q-54 0 -110.5 -55t-95.5 -130.5t-64 -152t-25 -123.5zM596 1430q0 124 86 210t209 86t210 -86t87 -210q0 -123 -87 -209t-210 -86t-209 86t-86 209zM786 1430 q0 -41 31 -72t74 -31t73.5 30.5t30.5 72.5q0 43 -30.5 73.5t-73.5 30.5t-74 -30.5t-31 -73.5z" />
<glyph unicode="&#xe6;" horiz-adv-x="1732" d="M-23 254q0 49 10.5 115.5t33 146t54.5 159.5t80 155t104 132.5t131.5 92.5t158.5 35q59 0 107 -17t74.5 -41.5t45 -49t24.5 -41.5l7 -17l111 32q168 134 380 134q94 0 173.5 -27.5t135 -83.5t64 -141.5t-38.5 -202.5q-21 -46 -46.5 -83.5t-65 -73.5t-88.5 -59t-116.5 -40 t-150 -16t-188.5 12q-1 -4 -2 -10.5t0 -25t6 -35t20 -37t38 -35.5t63.5 -25t93.5 -10q168 0 321.5 95.5t258.5 282.5q35 -3 71.5 -30t50.5 -58q-44 -79 -96.5 -148.5t-127.5 -138t-159 -117.5t-193.5 -79.5t-229.5 -30.5q-331 0 -428 211q-13 -15 -33 -34.5t-64.5 -53 t-92 -59t-116 -45t-137.5 -19.5q-117 0 -180.5 79.5t-63.5 201.5zM332 334q0 -72 65 -72q31 0 63 13.5t55 33t41.5 38.5t27.5 33l10 13l121 297q0 4 -1 11t-6 25.5t-13.5 32t-26 25t-41.5 11.5q-54 0 -110.5 -55t-95.5 -130.5t-64 -152t-25 -123.5zM1038 571q47 -5 82 -6.5 t64 8.5t48.5 21.5t36.5 32.5t27.5 40t20.5 44q7 19 10 31t3 28t-12 24.5t-36 8.5q-39 0 -79 -24t-68.5 -58t-51 -68t-33.5 -58z" />
<glyph unicode="&#xe7;" horiz-adv-x="1103" d="M4 354q0 69 17.5 147.5t51 162t89.5 159t126.5 136t169 96t210.5 35.5q158 0 252 -68.5t105.5 -196.5t-79.5 -313h-362q101 208 104 256q-4 35 -39 37q-59 0 -116.5 -53t-96.5 -127.5t-63.5 -151t-24.5 -127.5q0 -149 221 -149q167 0 320 95.5t258 282.5q35 -3 72 -30 t51 -58q-43 -77 -95 -145.5t-125 -136.5t-155 -117t-188.5 -80.5t-221.5 -34.5l-36 -69q56 -22 82 -53t26 -87q0 -71 -40.5 -124t-104 -77.5t-136 -32t-142 8t-116.5 47.5l101 154q24 -12 49.5 -19.5t48.5 -9t38 7t15 27.5q0 30 -36 36t-95 -3l121 223q-126 36 -191 128 t-65 224z" />
<glyph unicode="&#xe8;" horiz-adv-x="1101" d="M2 354q0 83 23.5 178t76.5 195t127.5 180t189 131.5t249.5 51.5q94 0 173 -27.5t134.5 -83.5t64 -141.5t-38.5 -202.5q-21 -46 -47 -83.5t-65 -73.5t-88.5 -59t-117 -40t-150 -16t-187.5 12q-1 -4 -2 -10.5t0 -25t6 -35t20 -37t38 -35.5t63.5 -25t93.5 -10q167 0 322 96 t258 282q35 -3 72 -30t51 -58q-45 -79 -98 -148.5t-128 -138.5t-159.5 -117.5t-194 -79t-229.5 -30.5q-226 0 -341.5 102t-115.5 279zM326 1491h381l282 -330h-282zM408 571q53 -12 96 -6t71 15.5t50.5 32.5t35.5 45t25 53q7 19 10 31t3 28t-12.5 24.5t-37.5 8.5 q-39 0 -78.5 -24t-67.5 -58t-50.5 -68t-33.5 -58z" />
<glyph unicode="&#xe9;" horiz-adv-x="1101" d="M2 354q0 83 23.5 178t76.5 195t127.5 180t189 131.5t249.5 51.5q94 0 173 -27.5t134.5 -83.5t64 -141.5t-38.5 -202.5q-21 -46 -47 -83.5t-65 -73.5t-88.5 -59t-117 -40t-150 -16t-187.5 12q-1 -4 -2 -10.5t0 -25t6 -35t20 -37t38 -35.5t63.5 -25t93.5 -10q167 0 322 96 t258 282q35 -3 72 -30t51 -58q-45 -79 -98 -148.5t-128 -138.5t-159.5 -117.5t-194 -79t-229.5 -30.5q-226 0 -341.5 102t-115.5 279zM408 571q53 -12 96 -6t71 15.5t50.5 32.5t35.5 45t25 53q7 19 10 31t3 28t-12.5 24.5t-37.5 8.5q-39 0 -78.5 -24t-67.5 -58t-50.5 -68 t-33.5 -58zM500 1161l284 330h379l-379 -330h-284z" />
<glyph unicode="&#xea;" horiz-adv-x="1101" d="M2 354q0 83 23.5 178t76.5 195t127.5 180t189 131.5t249.5 51.5q94 0 173 -27.5t134.5 -83.5t64 -141.5t-38.5 -202.5q-21 -46 -47 -83.5t-65 -73.5t-88.5 -59t-117 -40t-150 -16t-187.5 12q-1 -4 -2 -10.5t0 -25t6 -35t20 -37t38 -35.5t63.5 -25t93.5 -10q167 0 322 96 t258 282q35 -3 72 -30t51 -58q-45 -79 -98 -148.5t-128 -138.5t-159.5 -117.5t-194 -79t-229.5 -30.5q-226 0 -341.5 102t-115.5 279zM295 1141l479 375h187l178 -375h-254l-84 137l-187 -137h-319zM408 571q53 -12 96 -6t71 15.5t50.5 32.5t35.5 45t25 53q7 19 10 31t3 28 t-12.5 24.5t-37.5 8.5q-39 0 -78.5 -24t-67.5 -58t-50.5 -68t-33.5 -58z" />
<glyph unicode="&#xeb;" horiz-adv-x="1101" d="M2 354q0 83 23.5 178t76.5 195t127.5 180t189 131.5t249.5 51.5q94 0 173 -27.5t134.5 -83.5t64 -141.5t-38.5 -202.5q-21 -46 -47 -83.5t-65 -73.5t-88.5 -59t-117 -40t-150 -16t-187.5 12q-1 -4 -2 -10.5t0 -25t6 -35t20 -37t38 -35.5t63.5 -25t93.5 -10q167 0 322 96 t258 282q35 -3 72 -30t51 -58q-45 -79 -98 -148.5t-128 -138.5t-159.5 -117.5t-194 -79t-229.5 -30.5q-226 0 -341.5 102t-115.5 279zM401 1333q0 72 50.5 123t121.5 51q72 0 122 -51t50 -123q0 -71 -50 -121.5t-122 -50.5q-71 0 -121.5 50.5t-50.5 121.5zM408 571 q53 -12 96 -6t71 15.5t50.5 32.5t35.5 45t25 53q7 19 10 31t3 28t-12.5 24.5t-37.5 8.5q-39 0 -78.5 -24t-67.5 -58t-50.5 -68t-33.5 -58zM801 1333q0 72 50.5 123t121.5 51q72 0 122 -51t50 -123q0 -71 -50 -121.5t-122 -50.5q-71 0 -121.5 50.5t-50.5 121.5z" />
<glyph unicode="&#xec;" horiz-adv-x="641" d="M-47.5 306q13.5 90 57.5 198l226 559h362l-244 -606q-27 -66 -42 -115.5t-18.5 -76.5t1.5 -43t13 -20.5t20 -4.5q61 0 156 97t200 281q35 -3 72 -30t51 -58q-61 -108 -127.5 -196t-144 -162t-165 -115t-175.5 -41q-59 0 -108 19t-84 61t-49.5 102.5t-1 150.5zM6 1491h379 l285 -330h-283z" />
<glyph unicode="&#xed;" horiz-adv-x="641" d="M-47.5 306q13.5 90 57.5 198l226 559h362l-244 -606q-27 -66 -42 -115.5t-18.5 -76.5t1.5 -43t13 -20.5t20 -4.5q61 0 156 97t200 281q35 -3 72 -30t51 -58q-61 -108 -127.5 -196t-144 -162t-165 -115t-175.5 -41q-59 0 -108 19t-84 61t-49.5 102.5t-1 150.5zM268 1161 l283 330h381l-381 -330h-283z" />
<glyph unicode="&#xee;" horiz-adv-x="641" d="M-47.5 306q13.5 90 57.5 198l226 559h362l-244 -606q-27 -66 -42 -115.5t-18.5 -76.5t1.5 -43t13 -20.5t20 -4.5q61 0 156 97t200 281q35 -3 72 -30t51 -58q-61 -108 -127.5 -196t-144 -162t-165 -115t-175.5 -41q-59 0 -108 19t-84 61t-49.5 102.5t-1 150.5zM2 1141 l479 375h187l178 -375h-254l-84 137l-186 -137h-320z" />
<glyph unicode="&#xef;" horiz-adv-x="641" d="M-47.5 306q13.5 90 57.5 198l226 559h362l-244 -606q-27 -66 -42 -115.5t-18.5 -76.5t1.5 -43t13 -20.5t20 -4.5q61 0 156 97t200 281q35 -3 72 -30t51 -58q-61 -108 -127.5 -196t-144 -162t-165 -115t-175.5 -41q-59 0 -108 19t-84 61t-49.5 102.5t-1 150.5zM104 1333 q0 72 50.5 123t121.5 51q72 0 122.5 -51t50.5 -123q0 -71 -50.5 -121.5t-122.5 -50.5q-70 0 -121 50.5t-51 121.5zM504 1333q0 72 50.5 123t121.5 51q72 0 122 -51t50 -123q0 -71 -50 -121.5t-122 -50.5q-70 0 -121 50.5t-51 121.5z" />
<glyph unicode="&#xf0;" horiz-adv-x="1140" d="M-16 326q0 51 11.5 110.5t37 126t62 130.5t91 122.5t120 102.5t152.5 70t185 26l80 -2q-11 54 -37.5 100t-47.5 65l-20 19l-83 -119l-134 88l68 99q-6 1 -17 2.5t-46.5 4.5t-65.5 -1l-39 213q89 11 157 8t109 -13l41 -10l82 121l133 -88l-61 -92q7 -3 18 -9.5t44 -31 t63 -53.5t67 -79t63.5 -106t45 -135t18.5 -166q1 -89 -18.5 -184.5t-56 -192t-96 -182.5t-134 -152.5t-175.5 -105.5t-214 -39q-84 0 -156.5 22t-128 64.5t-87 111t-31.5 155.5zM352 313q0 -106 66 -106q65 0 129.5 76.5t103.5 185.5t39 205q0 54 -15 80t-52 26 q-65 0 -129 -75.5t-103 -184.5t-39 -207z" />
<glyph unicode="&#xf1;" horiz-adv-x="1253" d="M-195 0l431 1063l319 -109q-3 -3 0 -1q0 1 3 3q164 125 329 133l22 1q103 0 156 -50t53 -135q0 -75 -61 -225l-90 -223q-27 -67 -41.5 -115.5t-18 -76t1 -43.5t12.5 -20.5t21 -4.5q59 0 152.5 96.5t201.5 281.5q35 -3 72 -30t51 -58q-66 -114 -131 -201.5t-143 -161 t-166.5 -112.5t-183.5 -39q-85 0 -141.5 33.5t-81.5 99.5t-11.5 170.5t66.5 239.5l14 33q72 177 72 207q0 20 -15 31.5t-39 11.5q-39 0 -102.5 -38t-122.5 -106l-266 -655h-363zM362 1321q19 30 23.5 37t25 35.5t31 39t33 31t41.5 29t45.5 16t54.5 7.5q49 0 93 -19.5 t81.5 -39t69.5 -19.5q29 0 59.5 18.5t51.5 52.5l108 -120q-21 -33 -33 -50.5t-37.5 -48t-49 -46.5t-58.5 -29t-74 -13q-49 0 -92.5 19.5t-80.5 39t-70 19.5q-27 0 -57.5 -20.5t-53.5 -53.5z" />
<glyph unicode="&#xf2;" horiz-adv-x="1234" d="M14 395q0 87 23.5 179.5t76 185.5t126.5 166t185.5 118.5t242.5 45.5q205 0 314.5 -110.5t109.5 -301.5q0 -172 -78 -338q154 45 264 235q35 -3 72 -30t51 -58q-83 -142 -218 -231t-286 -86q-182 -197 -448 -197q-209 0 -322 116.5t-113 305.5zM365 313q0 -47 21 -75.5 t56 -28.5q64 0 129 82q-45 51 -45 123q0 74 52 125.5t133 50.5q30 94 30 162q0 52 -21.5 77t-55.5 25q-55 0 -112 -65t-96.5 -154.5t-65 -179t-25.5 -142.5zM385 1491h381l283 -330h-283z" />
<glyph unicode="&#xf3;" horiz-adv-x="1234" d="M14 395q0 87 23.5 179.5t76 185.5t126.5 166t185.5 118.5t242.5 45.5q205 0 314.5 -110.5t109.5 -301.5q0 -172 -78 -338q154 45 264 235q35 -3 72 -30t51 -58q-83 -142 -218 -231t-286 -86q-182 -197 -448 -197q-209 0 -322 116.5t-113 305.5zM365 313q0 -47 21 -75.5 t56 -28.5q64 0 129 82q-45 51 -45 123q0 74 52 125.5t133 50.5q30 94 30 162q0 52 -21.5 77t-55.5 25q-55 0 -112 -65t-96.5 -154.5t-65 -179t-25.5 -142.5zM547 1161l284 330h379l-379 -330h-284z" />
<glyph unicode="&#xf4;" horiz-adv-x="1234" d="M14 395q0 87 23.5 179.5t76 185.5t126.5 166t185.5 118.5t242.5 45.5q205 0 314.5 -110.5t109.5 -301.5q0 -172 -78 -338q154 45 264 235q35 -3 72 -30t51 -58q-83 -142 -218 -231t-286 -86q-182 -197 -448 -197q-209 0 -322 116.5t-113 305.5zM289 1141l479 375h186 l179 -375h-254l-84 137l-187 -137h-319zM365 313q0 -47 21 -75.5t56 -28.5q64 0 129 82q-45 51 -45 123q0 74 52 125.5t133 50.5q30 94 30 162q0 52 -21.5 77t-55.5 25q-55 0 -112 -65t-96.5 -154.5t-65 -179t-25.5 -142.5z" />
<glyph unicode="&#xf5;" horiz-adv-x="1234" d="M14 395q0 87 23.5 179.5t76 185.5t126.5 166t185.5 118.5t242.5 45.5q205 0 314.5 -110.5t109.5 -301.5q0 -172 -78 -338q154 45 264 235q35 -3 72 -30t51 -58q-83 -142 -218 -231t-286 -86q-182 -197 -448 -197q-209 0 -322 116.5t-113 305.5zM365 313q0 -47 21 -75.5 t56 -28.5q64 0 129 82q-45 51 -45 123q0 74 52 125.5t133 50.5q30 94 30 162q0 52 -21.5 77t-55.5 25q-55 0 -112 -65t-96.5 -154.5t-65 -179t-25.5 -142.5zM471 1321q19 30 23.5 37t25 35.5t31 39t33 31t41.5 29t45.5 16t54.5 7.5q49 0 93 -19.5t81.5 -39t69.5 -19.5 q29 0 59 18.5t51 52.5l109 -120q-21 -33 -33 -50.5t-37.5 -48t-49 -46.5t-58.5 -29t-74 -13q-49 0 -92.5 19.5t-81 39t-70.5 19.5q-26 0 -56.5 -20t-53.5 -54z" />
<glyph unicode="&#xf6;" horiz-adv-x="1234" d="M14 395q0 87 23.5 179.5t76 185.5t126.5 166t185.5 118.5t242.5 45.5q205 0 314.5 -110.5t109.5 -301.5q0 -172 -78 -338q154 45 264 235q35 -3 72 -30t51 -58q-83 -142 -218 -231t-286 -86q-182 -197 -448 -197q-209 0 -322 116.5t-113 305.5zM365 313q0 -47 21 -75.5 t56 -28.5q64 0 129 82q-45 51 -45 123q0 74 52 125.5t133 50.5q30 94 30 162q0 52 -21.5 77t-55.5 25q-55 0 -112 -65t-96.5 -154.5t-65 -179t-25.5 -142.5zM428 1333q0 72 50.5 123t121.5 51q72 0 123 -51t51 -123q0 -71 -51 -121.5t-123 -50.5q-70 0 -121 50.5t-51 121.5z M827 1333q0 72 50.5 123t121.5 51q72 0 123.5 -51t51.5 -123q0 -71 -51.5 -121.5t-123.5 -50.5q-71 0 -121.5 50.5t-50.5 121.5z" />
<glyph unicode="&#xf7;" horiz-adv-x="1267" d="M53 432l127 309h942l-125 -309h-944zM229 195q0 82 57.5 139t139.5 57q80 0 139.5 -57.5t59.5 -138.5q0 -79 -59.5 -139t-139.5 -60q-81 0 -139 59.5t-58 139.5zM547 981q0 82 56.5 139.5t139.5 57.5q80 0 138.5 -58t58.5 -139q0 -80 -59 -139.5t-138 -59.5 q-82 0 -139 59t-57 140z" />
<glyph unicode="&#xf8;" horiz-adv-x="1234" d="M14 395q0 89 25 184.5t80.5 190.5t133 168t194.5 115t253 34l119 293h154l-129 -317q122 -41 185 -141t63 -244q0 -172 -78 -338q154 45 264 235q35 -3 72 -30t51 -58q-83 -142 -218 -231t-286 -86q-87 -98 -216 -152.5t-275 -42.5l-72 -180h-154l82 209 q-121 44 -184.5 146.5t-63.5 244.5zM371 268l225 559q-55 -33 -115.5 -146.5t-93 -234.5t-16.5 -178zM510 233q61 41 120.5 153t89.5 229.5t15 177.5z" />
<glyph unicode="&#xf9;" horiz-adv-x="1224" d="M-54 265.5q8 104.5 62 238.5l225 559h363l-244 -606q-24 -59 -36.5 -102t-15 -67t3 -38.5t14 -18.5t22.5 -4q47 0 102 62t158 231l219 543h363l-244 -606q-27 -67 -41.5 -116.5t-17 -76.5t3.5 -43.5t15 -21t22 -4.5q126 0 348 380q35 -3 72 -30t51 -58 q-62 -108 -128.5 -196.5t-143.5 -162t-164 -114.5t-175 -41q-93 0 -158.5 46.5t-86.5 140.5q-156 -187 -342 -187q-76 0 -132.5 31.5t-89.5 94t-25 167zM319 1491h379l285 -330h-285z" />
<glyph unicode="&#xfa;" horiz-adv-x="1224" d="M-54 265.5q8 104.5 62 238.5l225 559h363l-244 -606q-24 -59 -36.5 -102t-15 -67t3 -38.5t14 -18.5t22.5 -4q47 0 102 62t158 231l219 543h363l-244 -606q-27 -67 -41.5 -116.5t-17 -76.5t3.5 -43.5t15 -21t22 -4.5q126 0 348 380q35 -3 72 -30t51 -58 q-62 -108 -128.5 -196.5t-143.5 -162t-164 -114.5t-175 -41q-93 0 -158.5 46.5t-86.5 140.5q-156 -187 -342 -187q-76 0 -132.5 31.5t-89.5 94t-25 167zM516 1161l283 330h381l-381 -330h-283z" />
<glyph unicode="&#xfb;" horiz-adv-x="1224" d="M-54 265.5q8 104.5 62 238.5l225 559h363l-244 -606q-24 -59 -36.5 -102t-15 -67t3 -38.5t14 -18.5t22.5 -4q47 0 102 62t158 231l219 543h363l-244 -606q-27 -67 -41.5 -116.5t-17 -76.5t3.5 -43.5t15 -21t22 -4.5q126 0 348 380q35 -3 72 -30t51 -58 q-62 -108 -128.5 -196.5t-143.5 -162t-164 -114.5t-175 -41q-93 0 -158.5 46.5t-86.5 140.5q-156 -187 -342 -187q-76 0 -132.5 31.5t-89.5 94t-25 167zM285 1141l481 375h186l176 -375h-251l-84 137l-187 -137h-321z" />
<glyph unicode="&#xfc;" horiz-adv-x="1224" d="M-54 265.5q8 104.5 62 238.5l225 559h363l-244 -606q-24 -59 -36.5 -102t-15 -67t3 -38.5t14 -18.5t22.5 -4q47 0 102 62t158 231l219 543h363l-244 -606q-27 -67 -41.5 -116.5t-17 -76.5t3.5 -43.5t15 -21t22 -4.5q126 0 348 380q35 -3 72 -30t51 -58 q-62 -108 -128.5 -196.5t-143.5 -162t-164 -114.5t-175 -41q-93 0 -158.5 46.5t-86.5 140.5q-156 -187 -342 -187q-76 0 -132.5 31.5t-89.5 94t-25 167zM391 1333q0 72 51.5 123t122.5 51q72 0 122 -51t50 -123q0 -71 -50 -121.5t-122 -50.5q-71 0 -122.5 51t-51.5 121z M793 1333q0 72 50.5 123t121.5 51q72 0 122 -51t50 -123q0 -71 -50 -121.5t-122 -50.5q-71 0 -121.5 50.5t-50.5 121.5z" />
<glyph unicode="&#xfd;" horiz-adv-x="1206" d="M-86 -428q1 54 23 103.5t58 87t74.5 64.5t80.5 46q32 16 121 55.5t114 53.5l47 118q-4 -5 -11 -13.5t-31.5 -30.5t-51.5 -39t-69.5 -30.5t-86.5 -13.5q-53 0 -98 18.5t-79.5 60t-49 101.5t-2 151t56.5 200l226 559h362l-244 -606q-24 -59 -36.5 -102t-15 -67t3 -38.5 t14 -18.5t22.5 -4q49 0 102.5 61.5t157.5 235.5l219 539h363l-398 -979q143 72 247.5 184.5t215.5 306.5q35 -3 72 -30t51 -58q-62 -108 -127.5 -195t-126 -147.5t-134.5 -113.5t-137 -88t-149 -76q-33 -78 -43 -107q-28 -69 -56.5 -125t-71.5 -114t-90.5 -96.5 t-113.5 -63.5t-141 -25q-68 0 -120.5 20t-83.5 54.5t-47 75t-17 86.5zM80 -391q0 -24 14.5 -40.5t38.5 -17.5q36 0 80.5 53t91.5 175q-120 -57 -155 -78q-70 -45 -70 -92zM518 1161l285 330h379l-381 -330h-283z" />
<glyph unicode="&#xfe;" horiz-adv-x="1198" d="M-360 -406l770 1901h362l-209 -522q5 5 13.5 13t36.5 28t58 35.5t76 28t91 12.5q66 0 116 -25.5t78 -68.5t41.5 -94t13.5 -109q0 -91 -32 -197t-80 -197t-85.5 -151t-66.5 -98q126 63 221.5 157t196.5 268q35 -3 72 -30t51 -58q-61 -109 -134 -196.5t-167.5 -161.5 t-215 -115t-255.5 -41q-76 0 -139.5 13t-101 31.5t-63.5 37.5t-36 32l-10 13l114 105q33 -43 68 -43q50 0 120 99.5t120.5 233t50.5 222.5q0 86 -64 86q-53 0 -115 -49t-116 -123l-418 -1037h-362z" />
<glyph unicode="&#xff;" horiz-adv-x="1206" d="M-86 -428q1 54 23 103.5t58 87t74.5 64.5t80.5 46q32 16 121 55.5t114 53.5l47 118q-4 -5 -11 -13.5t-31.5 -30.5t-51.5 -39t-69.5 -30.5t-86.5 -13.5q-53 0 -98 18.5t-79.5 60t-49 101.5t-2 151t56.5 200l226 559h362l-244 -606q-24 -59 -36.5 -102t-15 -67t3 -38.5 t14 -18.5t22.5 -4q49 0 102.5 61.5t157.5 235.5l219 539h363l-398 -979q143 72 247.5 184.5t215.5 306.5q35 -3 72 -30t51 -58q-62 -108 -127.5 -195t-126 -147.5t-134.5 -113.5t-137 -88t-149 -76q-33 -78 -43 -107q-28 -69 -56.5 -125t-71.5 -114t-90.5 -96.5 t-113.5 -63.5t-141 -25q-68 0 -120.5 20t-83.5 54.5t-47 75t-17 86.5zM80 -391q0 -24 14.5 -40.5t38.5 -17.5q36 0 80.5 53t91.5 175q-120 -57 -155 -78q-70 -45 -70 -92zM393 1333q0 72 51.5 123t122.5 51q72 0 123 -51t51 -123q0 -71 -51 -121.5t-123 -50.5 q-71 0 -122.5 51t-51.5 121zM795 1333q0 72 50.5 123t121.5 51q72 0 123 -51t51 -123q0 -71 -51 -121.5t-123 -50.5q-71 0 -121.5 50.5t-50.5 121.5z" />
<glyph unicode="&#x102;" horiz-adv-x="1894" d="M-131 354q0 66 19.5 129.5t60 121t98 100.5t140 68.5t178.5 25.5q173 0 389 -90l354 602q14 23 41.5 71.5t41.5 72.5t41 64.5t46 61t49.5 48t59.5 40.5t67 23t80 10q115 0 195 -58t108.5 -152t1.5 -200l-248 -948h27t32.5 0.5t35 5.5t41.5 13.5t44 25.5t51 41t54 61 t61 84q35 -3 72 -30t51 -58q-67 -120 -120.5 -192.5t-116 -121.5t-133 -64t-164.5 -5l-117 -446l-319 158l104 383q-128 54 -295 141q-76 -118 -158 -198.5t-194 -131.5t-240 -51q-204 0 -321 114.5t-117 280.5zM176 369q0 -41 26.5 -69t57 -37t59.5 -9q8 0 20 1.5t44.5 13 t65 32t77 64.5t84.5 104q-133 47 -233 47q-98 0 -149.5 -44t-51.5 -103zM1036 567q191 -95 230 -114l229 837l-20 8zM1441.5 1909.5q-7.5 38.5 1.5 76.5t17.5 62.5t16.5 36.5h231l-8 -16q-8 -16 -14.5 -36.5t-10 -41.5t8 -35t38.5 -14q32 0 62 21.5t46.5 46t30.5 49.5t15 26 h229q-3 -17 -11 -43.5t-38.5 -79.5t-73 -94.5t-121.5 -74t-178 -32.5q-82 0 -136.5 21.5t-76 55t-29 72z" />
<glyph unicode="&#x103;" d="M-23 254q0 49 10.5 115.5t33 146t54.5 159.5t80 155t104 132.5t131.5 92.5t158.5 35q59 0 107 -17t74.5 -41.5t45 -49t24.5 -41.5l7 -17l420 139l-244 -606q-28 -69 -42.5 -119t-17.5 -76.5t2 -42t12.5 -19t18.5 -3.5q60 0 154.5 96.5t202.5 281.5q35 -3 72 -30t51 -58 q-64 -112 -129.5 -199.5t-143.5 -161t-167.5 -113.5t-184.5 -40q-46 0 -84.5 9.5t-64.5 24.5t-46 33.5t-31.5 37t-19 33.5t-9.5 25l-3 9q-6 -7 -17 -18.5t-46.5 -41t-72.5 -52.5t-90.5 -41.5t-105.5 -18.5q-117 0 -180.5 79.5t-63.5 201.5zM332 334q0 -72 65 -72 q31 0 63 13.5t55 33t41.5 38.5t27.5 33l10 13l121 297q0 4 -1 11t-6 25.5t-13.5 32t-26 25t-41.5 11.5q-54 0 -110.5 -55t-95.5 -130.5t-64 -152t-25 -123.5zM542.5 1317.5q-7.5 38.5 1.5 76.5t17.5 62.5t16.5 36.5h231l-8 -16q-8 -16 -14.5 -36.5t-10 -41.5t8 -35t38.5 -14 q26 0 50.5 13.5t42 34.5t30.5 40t21.5 36.5t9.5 18.5h229q-2 -10 -6 -25.5t-17.5 -48.5t-32.5 -63.5t-53 -66t-75 -61t-103.5 -42.5t-134.5 -17q-82 0 -136.5 21.5t-76 55t-29 72z" />
<glyph unicode="&#x104;" horiz-adv-x="1894" d="M-131 354q0 66 19.5 129.5t60 121t98 100.5t140 68.5t178.5 25.5q173 0 389 -90l354 602q14 23 41.5 71.5t41.5 72.5t41 64.5t46 61t49.5 48t59.5 40.5t67 23t80 10q115 0 195 -58t108.5 -152t1.5 -200l-248 -948h27t32.5 0.5t35 5.5t41.5 13.5t44 25.5t51 41t54 61 t61 84q35 -3 72 -30t51 -58q-67 -120 -120.5 -192.5t-116 -121.5t-133 -64t-164.5 -5l-117 -446l-20 8q-232 -147 -232 -213q0 -18 11.5 -27t33 -8t42.5 4.5t49.5 13.5t45 16.5t37.5 15.5l-84 -209q-24 -12 -62 -22.5t-86 -18t-96 -3t-88 19.5t-65 53t-25 94q0 96 86.5 175 t284.5 185l-151 74l104 383q-128 54 -295 141q-116 -180 -260.5 -280.5t-331.5 -100.5q-204 0 -321 114.5t-117 280.5zM176 369q0 -41 26.5 -69t57 -37t59.5 -9q8 0 20 1.5t44.5 13t65 32t77 64.5t84.5 104q-133 47 -233 47q-98 0 -149.5 -44t-51.5 -103zM1036 567 q191 -95 230 -114l229 837l-20 8z" />
<glyph unicode="&#x105;" d="M-23 254q0 49 10.5 115.5t33 146t54.5 159.5t80 155t104 132.5t131.5 92.5t158.5 35q59 0 107 -17t74.5 -41.5t45 -49t24.5 -41.5l7 -17l420 139l-244 -606q-28 -69 -42.5 -119t-17.5 -76.5t2 -42t12.5 -19t18.5 -3.5q60 0 154.5 96.5t202.5 281.5q35 -3 72 -30t51 -58 q-241 -421 -502 -497q-242 -143 -242 -217q0 -18 11.5 -27t32.5 -8.5t42.5 4.5t50 13.5t45.5 16t37 15.5l-84 -209q-29 -15 -77.5 -27.5t-108.5 -16t-112 7.5t-87.5 51.5t-35.5 107.5q0 83 63 153t199 150q-42 22 -70.5 57t-36.5 59l-8 25q-6 -7 -17 -18.5t-46.5 -41 t-72.5 -52.5t-90.5 -41.5t-105.5 -18.5q-117 0 -180.5 79.5t-63.5 201.5zM332 334q0 -72 65 -72q31 0 63 13.5t55 33t41.5 38.5t27.5 33l10 13l121 297q0 4 -1 11t-6 25.5t-13.5 32t-26 25t-41.5 11.5q-54 0 -110.5 -55t-95.5 -130.5t-64 -152t-25 -123.5z" />
<glyph unicode="&#x106;" horiz-adv-x="1587" d="M0 1102q0 156 73 280.5t195 194.5l174 -254l-24 -11q-84 -50 -101 -159q-4 -25 -4 -51l-1 -9v-17t1 -22.5t4 -27.5t9 -30.5t14.5 -33t22 -33t31 -32.5t42 -29.5t53.5 -25.5q47 131 109 253t145 235.5t174 197t202 134t224 50.5q95 0 170.5 -34.5t121.5 -94t70 -134 t24 -159.5q0 -158 -92.5 -324.5t-266.5 -287.5q-254 -168 -606 -168h2q-16 -94 -16 -166q0 -223 196 -223q52 0 114 14t139 48t150 84t148 130t133 178q35 -3 72 -30t51 -58q-164 -284 -395 -444t-502 -160q-231 0 -349 121.5t-118 337.5q0 105 23 217q-195 65 -303.5 205.5 t-108.5 337.5zM856 811q190 24 318 125q95 76 139.5 169.5t44.5 158.5q0 86 -74 86q-99 0 -218 -157.5t-210 -381.5zM1253 1761l283 330h381l-381 -330h-283z" />
<glyph unicode="&#x107;" horiz-adv-x="1103" d="M4 354q0 69 17.5 147.5t51 162t89.5 159t126.5 136t169 96t210.5 35.5q158 0 252 -68.5t105.5 -196.5t-79.5 -313h-362q101 208 104 256q-4 35 -39 37q-59 0 -116.5 -53t-96.5 -127.5t-63.5 -151t-24.5 -127.5q0 -149 221 -149q167 0 320 95.5t258 282.5q35 -3 72 -30 t51 -58q-44 -79 -96.5 -148.5t-127.5 -138t-159.5 -117.5t-194 -79.5t-229.5 -30.5q-227 0 -343 102t-116 279zM518 1161l285 330h379l-379 -330h-285z" />
<glyph unicode="&#x10c;" horiz-adv-x="1587" d="M0 1102q0 156 73 280.5t195 194.5l174 -254l-24 -11q-84 -50 -101 -159q-4 -25 -4 -51l-1 -9v-17t1 -22.5t4 -27.5t9 -30.5t14.5 -33t22 -33t31 -32.5t42 -29.5t53.5 -25.5q47 131 109 253t145 235.5t174 197t202 134t224 50.5q95 0 170.5 -34.5t121.5 -94t70 -134 t24 -159.5q0 -158 -92.5 -324.5t-266.5 -287.5q-254 -168 -606 -168h2q-16 -94 -16 -166q0 -223 196 -223q52 0 114 14t139 48t150 84t148 130t133 178q35 -3 72 -30t51 -58q-164 -284 -395 -444t-502 -160q-231 0 -349 121.5t-118 337.5q0 105 23 217q-195 65 -303.5 205.5 t-108.5 337.5zM856 811q190 24 318 125q95 76 139.5 169.5t44.5 158.5q0 86 -74 86q-99 0 -218 -157.5t-210 -381.5zM1167 2136h256l82 -141l191 141h317l-479 -375h-186z" />
<glyph unicode="&#x10d;" horiz-adv-x="1103" d="M4 354q0 69 17.5 147.5t51 162t89.5 159t126.5 136t169 96t210.5 35.5q158 0 252 -68.5t105.5 -196.5t-79.5 -313h-362q101 208 104 256q-4 35 -39 37q-59 0 -116.5 -53t-96.5 -127.5t-63.5 -151t-24.5 -127.5q0 -149 221 -149q167 0 320 95.5t258 282.5q35 -3 72 -30 t51 -58q-44 -79 -96.5 -148.5t-127.5 -138t-159.5 -117.5t-194 -79.5t-229.5 -30.5q-227 0 -343 102t-116 279zM473 1516h256l82 -142l193 142h317l-481 -375h-187z" />
<glyph unicode="&#x10e;" horiz-adv-x="2043" d="M-61 258q0 44 12 89t40 89.5t69 78.5t104.5 55.5t140.5 21.5q160 0 352 -119q28 55 50 105l184 454q23 55 61 107t91 98t125.5 74t152.5 28l65 -190q-4 -2 -11.5 -6t-29 -19.5t-40.5 -35t-42 -53t-38 -72.5q-189 -467 -189 -469q-40 -105 -110 -222q133 -94 254 -94 q111 0 209.5 72.5t163 186t102 250t37.5 267.5q0 82 -15 152t-49.5 131t-85.5 103.5t-127.5 67t-171.5 24.5q-102 0 -189.5 -27t-147 -71t-102 -101t-62 -116t-19.5 -116q0 -43 11.5 -89.5t23.5 -71.5l12 -25l-242 -180q-4 6 -11 17t-24 48t-30 76t-24 98.5t-11 118.5 q0 106 32 208.5t100 195t165 162.5t236 111.5t303 41.5q159 0 289.5 -37.5t222.5 -105.5t155 -163.5t93 -210.5t30 -247q0 -99 -16 -202t-50.5 -207.5t-84 -200t-120.5 -178.5t-156 -144t-195 -96t-232 -35q-74 0 -136 13t-116.5 42t-94.5 57.5t-97 76.5 q-177 -150 -416 -150q-91 0 -163 22.5t-115.5 57t-72 80.5t-39.5 88.5t-11 85.5zM207 279q0 -38 30 -56t78 -18q102 0 193 78q-116 82 -189 82q-54 0 -83 -24.5t-29 -61.5zM1309 2136h256l82 -141l190 141h317l-479 -375h-186z" />
<glyph unicode="&#x10f;" horiz-adv-x="1267" d="M-29 252q0 59 17 141.5t48 177t81.5 186.5t112 166.5t145 120.5t174.5 46q57 0 104 -17t74 -41.5t46 -49t25 -41.5l7 -17l221 544h363l-410 -1011q-27 -68 -41.5 -117.5t-17.5 -76.5t2 -42.5t12.5 -19.5t19.5 -4q59 0 154.5 97t202.5 281q35 -3 72 -30t51 -58 q-52 -89 -102.5 -161t-112 -139.5t-124 -113.5t-136.5 -73t-150 -27q-46 0 -84.5 9.5t-64.5 24.5t-46 33.5t-31.5 37t-19 33.5t-9.5 25l-3 9q-6 -7 -17 -18.5t-47 -41t-73 -52.5t-91.5 -41.5t-107.5 -18.5q-116 0 -180 81.5t-64 197.5zM330 334q0 -72 65 -72q31 0 62.5 13.5 t54.5 33t41 38.5t27 33l10 13l121 297q0 4 -0.5 11t-5.5 25.5t-13.5 32t-26.5 25t-42 11.5q-54 0 -109.5 -55t-94.5 -130.5t-64 -152t-25 -123.5zM1335 1130q101 79 113 132q-34 11 -54 39.5t-20 68.5q0 46 33 79.5t82 33.5q47 0 81 -31t34 -90q0 -85 -64.5 -165.5 t-157.5 -141.5z" />
<glyph unicode="&#x110;" horiz-adv-x="2043" d="M-61 258q0 44 12 89t40 89.5t69 78.5t104.5 55.5t140.5 21.5q160 0 352 -119q2 3 12 22.5t15 30.5h-86l88 219h88l117 287q23 55 61 107t91 98t125.5 74t152.5 28l65 -190q-4 -2 -11.5 -6t-29 -19.5t-40.5 -35t-42 -53t-38 -72.5q-43 -105 -88 -218h161l-88 -219h-161 q-8 -16 -48.5 -106t-74.5 -148q133 -94 254 -94q111 0 209.5 72.5t163 186t102 250t37.5 267.5q0 82 -15 152t-49.5 131t-85.5 103.5t-127.5 67t-171.5 24.5q-102 0 -189.5 -27t-147 -71t-102 -101t-62 -116t-19.5 -116q0 -43 11.5 -89.5t23.5 -71.5l12 -25l-242 -180 q-4 6 -11 17t-24 48t-30 76t-24 98.5t-11 118.5q0 106 32 208.5t100 195t165 162.5t236 111.5t303 41.5q159 0 289.5 -37.5t222.5 -105.5t155 -163.5t93 -210.5t30 -247q0 -99 -16 -202t-50.5 -207.5t-84 -200t-120.5 -178.5t-156 -144t-195 -96t-232 -35q-74 0 -136 13 t-116.5 42t-94.5 57.5t-97 76.5q-177 -150 -416 -150q-91 0 -163 22.5t-115.5 57t-72 80.5t-39.5 88.5t-11 85.5zM207 279q0 -38 30 -56t78 -18q102 0 193 78q-116 82 -189 82q-54 0 -83 -24.5t-29 -61.5z" />
<glyph unicode="&#x111;" horiz-adv-x="1267" d="M-29 252q0 59 17 141.5t48 177t81.5 186.5t112 166.5t145 120.5t174.5 46q57 0 104 -17t74 -41.5t46 -49t25 -41.5l7 -17l92 231h-162l72 170h158l61 143h363l-60 -143h152l-72 -170h-147l-283 -698q-27 -68 -41.5 -117.5t-17.5 -76.5t2 -42.5t12.5 -19.5t19.5 -4 q59 0 154.5 97t202.5 281q35 -3 72 -30t51 -58q-52 -89 -102.5 -161t-112 -139.5t-124 -113.5t-136.5 -73t-150 -27q-46 0 -84.5 9.5t-64.5 24.5t-46 33.5t-31.5 37t-19 33.5t-9.5 25l-3 9q-6 -7 -17 -18.5t-47 -41t-73 -52.5t-91.5 -41.5t-107.5 -18.5q-116 0 -180 81.5 t-64 197.5zM330 334q0 -72 65 -72q31 0 62.5 13.5t54.5 33t41 38.5t27 33l10 13l121 297q0 4 -0.5 11t-5.5 25.5t-13.5 32t-26.5 25t-42 11.5q-54 0 -109.5 -55t-94.5 -130.5t-64 -152t-25 -123.5z" />
<glyph unicode="&#x118;" horiz-adv-x="1327" d="M0 383q0 138 55 259t142.5 200t198 120t220.5 31q-14 45 -14 127q0 166 74 299q-64 178 -58 383l234 -33q0 -82 14 -145q145 94 328 94q103 0 182.5 -30.5t125.5 -82t68.5 -111.5t22.5 -126q0 -71 -27.5 -136t-77.5 -115.5t-127 -80.5t-169 -30q-150 0 -270 69 q13 -133 95 -210q20 -18 24 -18l-3 3l-176 -262q-4 3 -11.5 9t-32 20.5t-51 25.5t-67.5 20t-82 9q-124 0 -196 -74.5t-72 -204.5q0 -132 74.5 -219.5t204.5 -87.5q64 0 119.5 25.5t92.5 68.5t57.5 97t18.5 115t-28 118l303 88q68 -221 18.5 -396.5t-186 -289t-319.5 -137.5 q-168 -118 -168 -174q0 -18 11.5 -27t32.5 -8.5t42.5 4.5t50 13.5t45.5 16t37 15.5l-84 -209q-24 -12 -62 -22.5t-86 -18t-96 -3t-88 19.5t-65 53t-25 94q0 72 46 133t144 127q-198 56 -319 218.5t-121 375.5zM999 1339q75 -69 172 -69q115 0 115 67q0 36 -34 54t-83 18 q-100 0 -170 -70z" />
<glyph unicode="&#x119;" horiz-adv-x="1077" d="M2 354q0 83 23.5 178t76.5 195t127.5 180t189 131.5t249.5 51.5q94 0 173 -27.5t134.5 -83.5t64 -141.5t-38.5 -202.5q-21 -46 -47 -83.5t-65 -73.5t-88.5 -59t-117 -40t-150 -16t-187.5 12q-1 -4 -2 -10.5t0 -25t6 -35t20 -37t38 -35.5t63.5 -25t93.5 -10q167 0 322 96 t258 282q35 -3 72 -30t51 -58q-48 -85 -107 -159t-137.5 -144t-180.5 -120.5t-216 -71.5q-236 -152 -236 -219q0 -18 11.5 -27t32.5 -8.5t42.5 4.5t50 13.5t45.5 16t37 15.5l-86 -209q-29 -15 -77.5 -27.5t-108.5 -16t-111.5 7.5t-87 51.5t-35.5 107.5q0 77 56 143.5 t174 137.5q-165 27 -248.5 124t-83.5 248zM408 571q53 -12 96 -6t71 15.5t50.5 32.5t35.5 45t25 53q7 19 10 31t3 28t-12.5 24.5t-37.5 8.5q-39 0 -78.5 -24t-67.5 -58t-50.5 -68t-33.5 -58z" />
<glyph unicode="&#x11a;" horiz-adv-x="1327" d="M0 383q0 138 55 259t142.5 200t198 120t220.5 31q-14 45 -14 127q0 166 74 299q-64 178 -58 383l234 -33q0 -82 14 -145q145 94 328 94q103 0 182.5 -30.5t125.5 -82t68.5 -111.5t22.5 -126q0 -71 -27.5 -136t-77.5 -115.5t-127 -80.5t-169 -30q-150 0 -270 69 q13 -133 95 -210q20 -18 24 -18l-3 3l-176 -262q-4 3 -11.5 9t-32 20.5t-51 25.5t-67.5 20t-82 9q-124 0 -196 -74.5t-72 -204.5q0 -132 74.5 -219.5t204.5 -87.5q64 0 119.5 25.5t92.5 68.5t57.5 97t18.5 115t-28 118l303 88q60 -176 33.5 -328t-110 -263.5t-216 -175.5 t-283.5 -64q-177 0 -319 83t-219.5 223.5t-77.5 309.5zM999 1339q75 -69 172 -69q115 0 115 67q0 36 -34 54t-83 18q-100 0 -170 -70zM1008 2161h256l82 -142l190 142h317l-479 -375h-186z" />
<glyph unicode="&#x11b;" horiz-adv-x="1101" d="M2 354q0 83 23.5 178t76.5 195t127.5 180t189 131.5t249.5 51.5q94 0 173 -27.5t134.5 -83.5t64 -141.5t-38.5 -202.5q-21 -46 -47 -83.5t-65 -73.5t-88.5 -59t-117 -40t-150 -16t-187.5 12q-1 -4 -2 -10.5t0 -25t6 -35t20 -37t38 -35.5t63.5 -25t93.5 -10q167 0 322 96 t258 282q35 -3 72 -30t51 -58q-45 -79 -98 -148.5t-128 -138.5t-159.5 -117.5t-194 -79t-229.5 -30.5q-226 0 -341.5 102t-115.5 279zM408 571q53 -12 96 -6t71 15.5t50.5 32.5t35.5 45t25 53q7 19 10 31t3 28t-12.5 24.5t-37.5 8.5q-39 0 -78.5 -24t-67.5 -58t-50.5 -68 t-33.5 -58zM451 1516h256l81 -142l191 142h317l-479 -375h-186z" />
<glyph unicode="&#x131;" horiz-adv-x="641" d="M-47.5 306q13.5 90 57.5 198l226 559h362l-244 -606q-27 -66 -42 -115.5t-18.5 -76.5t1.5 -43t13 -20.5t20 -4.5q61 0 156 97t200 281q35 -3 72 -30t51 -58q-61 -108 -127.5 -196t-144 -162t-165 -115t-175.5 -41q-59 0 -108 19t-84 61t-49.5 102.5t-1 150.5z" />
<glyph unicode="&#x139;" horiz-adv-x="1699" d="M-133 195q0 61 23 123t66.5 117.5t118 90.5t167.5 35q148 0 305 -104q30 67 51 102q-195 66 -305.5 206.5t-110.5 336.5q0 156 73 281t196 194l174 -254l-24 -11q-84 -50 -101 -159q-4 -25 -4 -51q0 -203 217 -268q35 84 60.5 142.5t63.5 138.5t70 136t76 123t86 112.5 t95.5 91.5t108.5 73t121.5 44t137.5 17q70 0 137 -24.5t125 -73.5t93.5 -133t35.5 -191q0 -103 -37.5 -209.5t-120 -214t-200.5 -188.5q-262 -173 -635 -168q-51 -144 -121 -279q80 -74 216.5 -193t205.5 -175q71 -57 112 -75.5t80 -18.5q122 0 273 145l205 -233 q-109 -105 -234 -162.5t-240 -57.5q-96 0 -182.5 40.5t-191.5 123.5q-60 47 -116 97t-148 137t-152 141q-155 -145 -375 -145q-87 1 -156.5 23t-113 57t-72.5 81t-41 90.5t-12 88.5zM143 207q0 -36 27.5 -57t65.5 -21q74 0 155 88q-96 84 -160 84q-37 0 -62.5 -28t-25.5 -66 zM1051 813q186 21 319 123q93 76 138.5 168.5t45.5 150.5q0 97 -90 97q-176 0 -413 -539zM1401 1759l285 330h378l-378 -330h-285z" />
<glyph unicode="&#x13a;" horiz-adv-x="641" d="M-51.5 265q7.5 105 61.5 239l389 964h363l-408 -1011q-27 -68 -41.5 -117.5t-18 -76.5t1.5 -42.5t12.5 -19.5t19.5 -4q61 0 156 97t200 281q35 -3 72 -30t51 -58q-61 -108 -127.5 -196t-144 -162t-165 -115t-175.5 -41q-75 0 -131.5 31.5t-89.5 93.5t-25.5 167zM399 1567 l283 329h381l-381 -329h-283z" />
<glyph unicode="&#x13d;" horiz-adv-x="1699" d="M-133 195q0 61 23 123t66.5 117.5t118 90.5t167.5 35q148 0 305 -104q30 67 51 102q-195 66 -305.5 206.5t-110.5 336.5q0 156 73 281t196 194l174 -254l-24 -11q-84 -50 -101 -159q-4 -25 -4 -51q0 -203 217 -268q35 84 60.5 142.5t63.5 138.5t70 136t76 123t86 112.5 t95.5 91.5t108.5 73t121.5 44t137.5 17q70 0 137 -24.5t125 -73.5t93.5 -133t35.5 -191q0 -103 -37.5 -209.5t-120 -214t-200.5 -188.5q-262 -173 -635 -168q-51 -144 -121 -279q80 -74 216.5 -193t205.5 -175q71 -57 112 -75.5t80 -18.5q122 0 273 145l205 -233 q-109 -105 -234 -162.5t-240 -57.5q-96 0 -182.5 40.5t-191.5 123.5q-60 47 -116 97t-148 137t-152 141q-155 -145 -375 -145q-87 1 -156.5 23t-113 57t-72.5 81t-41 90.5t-12 88.5zM143 207q0 -36 27.5 -57t65.5 -21q74 0 155 88q-96 84 -160 84q-37 0 -62.5 -28t-25.5 -66 zM1051 813q186 21 319 123q93 76 138.5 168.5t45.5 150.5q0 97 -90 97q-176 0 -413 -539zM1898 1057q113 86 161.5 146.5t54.5 94.5q-61 22 -97.5 74.5t-36.5 120.5q0 88 58.5 147.5t144.5 59.5q82 0 143.5 -57.5t61.5 -165.5q0 -80 -36.5 -164.5t-97 -156t-128 -130 t-139.5 -102.5z" />
<glyph unicode="&#x13e;" horiz-adv-x="641" d="M-51.5 265q7.5 105 61.5 239l389 964h363l-408 -1011q-27 -68 -41.5 -117.5t-18 -76.5t1.5 -42.5t12.5 -19.5t19.5 -4q61 0 156 97t200 281q35 -3 72 -30t51 -58q-61 -108 -127.5 -196t-144 -162t-165 -115t-175.5 -41q-75 0 -131.5 31.5t-89.5 93.5t-25.5 167zM711 1133 q104 75 116 129q-34 12 -55.5 41t-21.5 65q0 49 34 82t82 33q45 0 79 -32t34 -91q0 -85 -64.5 -166.5t-156.5 -136.5z" />
<glyph unicode="&#x141;" horiz-adv-x="1699" d="M-133 195q0 61 23 123t66.5 117.5t118 90.5t167.5 35q148 0 305 -104q40 82 82 178l-197 -45l84 205l199 45q33 81 55.5 133.5t59.5 133t67 134t73.5 123t83.5 115t92.5 93.5t105.5 76t117.5 46t133.5 18q138 0 237.5 -63t146 -167.5t42.5 -236.5h-373q0 48 -24.5 77.5 t-67.5 29.5q-85 0 -182 -109t-190 -319l241 55l-84 -205l-239 -55q-99 -295 -201 -488q80 -74 216.5 -193t205.5 -175q71 -57 112 -75.5t80 -18.5q122 0 273 145l205 -233q-111 -106 -236 -165t-240 -55q-171 5 -374 164q-129 103 -414 375q-158 -145 -375 -145 q-87 1 -156.5 23t-113 57t-72.5 81t-41 90.5t-12 88.5zM143 207q0 -36 27.5 -57t65.5 -21q74 0 155 88q-96 84 -160 84q-37 0 -62.5 -28t-25.5 -66z" />
<glyph unicode="&#x142;" horiz-adv-x="641" d="M-92 526l84 205l133 60l274 677h363l-195 -479l125 53l-84 -202l-123 -56l-131 -327q-27 -68 -41.5 -117.5t-18 -76.5t1.5 -42.5t12.5 -19.5t19.5 -4q61 0 156 97t200 281q35 -3 72 -30t51 -58q-61 -108 -127.5 -196t-144 -162t-165 -115t-175.5 -41q-75 0 -131.5 31.5 t-89.5 93.5t-25.5 167t61.5 239l33 82z" />
<glyph unicode="&#x143;" horiz-adv-x="1847" d="M0 922q0 78 24.5 143t63.5 113t104.5 91.5t130.5 73.5t158.5 62.5t172 56t188 57.5t190.5 62l256 -266q118 107 243 177.5t232 70.5q103 0 157 -65t54 -163q0 -54 -17.5 -114.5t-58.5 -167.5l-421 -1049q-17 -48 -22.5 -82t1 -65.5t31 -56.5t69.5 -46l-108 -270 q-103 31 -175.5 79t-111 104t-53 123t-6.5 134t35 139l342 846q10 26 28.5 72.5t27 69t19.5 52t15 48t4 31.5q0 21 -13.5 33t-31.5 12q-53 0 -173 -88.5t-214 -188.5l-391 -977h-363l508 1264q-44 -14 -129 -39q-87 -26 -129.5 -39.5t-108 -36.5t-96.5 -40t-65.5 -41 t-48 -50t-13.5 -57q0 -34 15.5 -56.5t40.5 -32t44 -13t37 -3.5v-294q-198 0 -320.5 106.5t-121.5 280.5zM1348 1671l282 330h381l-381 -330h-282z" />
<glyph unicode="&#x144;" horiz-adv-x="1253" d="M-195 0l431 1063l319 -109q-3 -3 0 -1q0 1 3 3q164 125 329 133l22 1q103 0 156 -50t53 -135q0 -75 -61 -225l-90 -223q-27 -67 -41.5 -115.5t-18 -76t1 -43.5t12.5 -20.5t21 -4.5q59 0 152.5 96.5t201.5 281.5q35 -3 72 -30t51 -58q-66 -114 -131 -201.5t-143 -161 t-166.5 -112.5t-183.5 -39q-85 0 -141.5 33.5t-81.5 99.5t-11.5 170.5t66.5 239.5l14 33q72 177 72 207q0 20 -15 31.5t-39 11.5q-39 0 -102.5 -38t-122.5 -106l-266 -655h-363zM471 1161l283 330h381l-381 -330h-283z" />
<glyph unicode="&#x147;" horiz-adv-x="1847" d="M0 922q0 78 24.5 143t63.5 113t104.5 91.5t130.5 73.5t158.5 62.5t172 56t188 57.5t190.5 62l256 -266q118 107 243 177.5t232 70.5q103 0 157 -65t54 -163q0 -54 -17.5 -114.5t-58.5 -167.5l-421 -1049q-17 -48 -22.5 -82t1 -65.5t31 -56.5t69.5 -46l-108 -270 q-103 31 -175.5 79t-111 104t-53 123t-6.5 134t35 139l342 846q10 26 28.5 72.5t27 69t19.5 52t15 48t4 31.5q0 21 -13.5 33t-31.5 12q-53 0 -173 -88.5t-214 -188.5l-391 -977h-363l508 1264q-44 -14 -129 -39q-87 -26 -129.5 -39.5t-108 -36.5t-96.5 -40t-65.5 -41 t-48 -50t-13.5 -57q0 -34 15.5 -56.5t40.5 -32t44 -13t37 -3.5v-294q-198 0 -320.5 106.5t-121.5 280.5zM1268 2050h256l82 -141l190 141h318l-480 -375h-186z" />
<glyph unicode="&#x148;" horiz-adv-x="1253" d="M-195 0l431 1063l319 -109q-3 -3 0 -1q0 1 3 3q164 125 329 133l22 1q103 0 156 -50t53 -135q0 -75 -61 -225l-90 -223q-27 -67 -41.5 -115.5t-18 -76t1 -43.5t12.5 -20.5t21 -4.5q59 0 152.5 96.5t201.5 281.5q35 -3 72 -30t51 -58q-66 -114 -131 -201.5t-143 -161 t-166.5 -112.5t-183.5 -39q-85 0 -141.5 33.5t-81.5 99.5t-11.5 170.5t66.5 239.5l14 33q72 177 72 207q0 20 -15 31.5t-39 11.5q-39 0 -102.5 -38t-122.5 -106l-266 -655h-363zM408 1516h256l81 -142l193 142h317l-481 -375h-186z" />
<glyph unicode="&#x150;" horiz-adv-x="1517" d="M0 362q0 116 27 248.5t84.5 272.5t138 263.5t197.5 226.5t253 157q139 176 357 176q64 0 122 -15.5t113.5 -53t95.5 -95t64.5 -148.5t24.5 -206q0 -189 -64 -414t-178 -420q198 4 326 221q35 -3 71.5 -30t50.5 -58q-17 -29 -36.5 -56.5t-46.5 -60.5t-56.5 -60.5 t-67 -55.5t-76.5 -46t-86 -32.5t-96 -14t-106 8.5q-285 -354 -641 -354q-100 0 -180 29.5t-133.5 80.5t-89.5 121t-52 148.5t-16 166.5zM338 340q0 -108 39 -176t119 -68q142 0 303 213q-11 8 -30 24t-67 75t-84.5 129t-67.5 188t-32 250q-81 -173 -130.5 -340.5 t-49.5 -294.5zM735 1759l234 330h352l-324 -330h-262zM811 958q0 -254 121 -428q86 170 140 344t54 289q0 80 -28.5 128t-79.5 48q-81 0 -144 -99t-63 -282zM1147 1759l233 330h353l-324 -330h-262z" />
<glyph unicode="&#x151;" horiz-adv-x="1234" d="M14 395q0 87 23.5 179.5t76 185.5t126.5 166t185.5 118.5t242.5 45.5q205 0 314.5 -110.5t109.5 -301.5q0 -172 -78 -338q154 45 264 235q35 -3 72 -30t51 -58q-83 -142 -218 -231t-286 -86q-182 -197 -448 -197q-209 0 -322 116.5t-113 305.5zM365 313q0 -47 21 -75.5 t56 -28.5q64 0 129 82q-45 51 -45 123q0 74 52 125.5t133 50.5q30 94 30 162q0 52 -21.5 77t-55.5 25q-55 0 -112 -65t-96.5 -154.5t-65 -179t-25.5 -142.5zM387 1161l234 330h352l-324 -330h-262zM799 1161l233 330h352l-323 -330h-262z" />
<glyph unicode="&#x152;" horiz-adv-x="2277" d="M0 362q0 116 27 248.5t84.5 272.5t138 263.5t197.5 226.5t253 157q139 176 357 176q64 0 122 -15.5t113.5 -53t95.5 -95t64.5 -148.5t24.5 -206q0 -81 -17 -197q65 7 107 2q-15 45 -15 127q0 168 76 299q-66 183 -57 383l231 -33q0 -77 15 -145q148 94 327 94 q83 0 151.5 -20.5t114 -54.5t76.5 -79.5t45 -94.5t15 -101q0 -148 -110.5 -255t-293.5 -107q-150 0 -270 69q13 -133 95 -209q22 -20 25 -19l-3 3l-177 -262q-4 3 -11.5 9t-32 20.5t-51 25.5t-67 20t-81.5 9q-124 0 -196.5 -74.5t-72.5 -202.5q0 -130 74 -213.5t197 -83.5 q63 0 116 23.5t88 64.5t53.5 92.5t16 111t-27.5 116.5l327 92q43 -141 37 -265t-60 -228t-137 -179t-193.5 -117t-229.5 -42q-173 0 -314 83.5t-219 223.5q-255 -258 -557 -258q-100 0 -180 29.5t-133.5 80.5t-89.5 121t-52 148.5t-16 166.5zM338 340q0 -108 39 -176 t119 -68q142 0 303 213q-6 4 -16 12.5t-39 39.5t-55.5 66.5t-58.5 93.5t-55.5 122t-40 151.5t-16.5 180.5q-81 -173 -130.5 -340.5t-49.5 -294.5zM811 958q0 -254 121 -428q86 170 140 344t54 289q0 80 -28.5 128t-79.5 48q-81 0 -144 -99t-63 -282zM1950 1339 q75 -69 172 -69q116 0 116 67q0 36 -34 54t-82 18q-102 0 -172 -70z" />
<glyph unicode="&#x153;" horiz-adv-x="1785" d="M14 395q0 87 23.5 179.5t76 185.5t126.5 166t185.5 118.5t242.5 45.5q211 0 323 -115q159 115 359 115q95 0 174.5 -27.5t135 -83.5t63.5 -141.5t-40 -202.5q-20 -46 -46 -83.5t-65 -73.5t-88.5 -59t-117 -40t-150 -16t-188.5 12q-1 -4 -1.5 -10.5t0.5 -25t6 -35t20 -37 t38 -35.5t64 -25t94 -10q167 0 322 96t258 282q35 -3 72 -30t51 -58q-45 -79 -97.5 -148.5t-127.5 -138.5t-159.5 -117.5t-194.5 -79t-230 -30.5q-228 0 -350 103q-150 -103 -344 -103q-209 0 -322 116.5t-113 305.5zM365 313q0 -47 21 -75.5t56 -28.5q54 0 111 64t97 152.5 t65.5 179.5t25.5 147q0 52 -21.5 77t-55.5 25q-55 0 -112 -65t-96.5 -154.5t-65 -179t-25.5 -142.5zM1090 571q47 -6 82 -7t64 9t49 22t36.5 32t26.5 39.5t20 44.5q40 92 -35 92q-39 0 -79 -24t-68 -58t-50.5 -68t-33.5 -58z" />
<glyph unicode="&#x154;" horiz-adv-x="1454" d="M-8 1012q0 61 13 127t44 138.5t75.5 139t113 127.5t152.5 105.5t197.5 71t243.5 26.5q158 0 286.5 -39.5t211 -102.5t139 -146t80 -166t23.5 -167q0 -97 -33.5 -193t-95 -177t-155.5 -139.5t-206 -77.5q42 -35 66.5 -81.5t30 -100.5t3 -98.5t-11.5 -100.5l-51 -291 q-11 -113 13.5 -151.5t119.5 -37.5v-251q-130 -25 -232.5 0.5t-162 87.5t-84.5 149t-10 186l43 263q39 172 28.5 284.5t-88.5 169.5q-60 19 -96 37l-256 -631h-362l446 1106q23 56 61 108t91 98t125.5 73.5t152.5 27.5l66 -190q-4 -2 -11.5 -6t-29 -20t-40.5 -35.5 t-41.5 -53t-37.5 -71.5l-70 -174q56 -39 123.5 -47t129.5 15.5t114.5 66.5t83.5 108.5t31 138.5q0 42 -8.5 84t-35 90.5t-67.5 85.5t-113.5 61.5t-166.5 24.5q-127 0 -232.5 -42.5t-170.5 -109.5t-100.5 -144t-35.5 -150q0 -44 11.5 -91t22.5 -73l11 -25l-240 -180 q-4 7 -11.5 19t-26 51.5t-33 80t-26 99t-11.5 113.5zM911 1804l285 330h379l-381 -330h-283z" />
<glyph unicode="&#x155;" horiz-adv-x="942" d="M43 575q73 132 156 316q-33 35 -48.5 61.5t-15.5 61.5q0 75 63.5 151.5t131.5 98.5l139 -74l-59 -158q20 -16 69.5 -47t96.5 -62.5t94.5 -70t76.5 -84t29 -90.5q0 -40 -24 -103l-45 -116q-27 -65 -40.5 -114.5t-15.5 -77t4 -44t14.5 -21.5t18.5 -5q75 0 297 378 q35 -3 72 -30t51 -58q-53 -92 -96 -159t-100 -138t-110.5 -115.5t-119.5 -73t-135 -28.5q-50 0 -96.5 14.5t-86 50.5t-60 89t-12.5 138t50 190l64 159q18 46 18 72q0 7 -1.5 13.5t-5.5 13.5t-7 13t-10.5 14t-11.5 13t-14.5 14.5t-15 13.5t-17 15t-17.5 15 q-64 -158 -158 -324q-35 3 -72 30t-51 58zM250 1311l285 329h378l-378 -329h-285z" />
<glyph unicode="&#x158;" horiz-adv-x="1454" d="M-8 1012q0 61 13 127t44 138.5t75.5 139t113 127.5t152.5 105.5t197.5 71t243.5 26.5q158 0 286.5 -39.5t211 -102.5t139 -146t80 -166t23.5 -167q0 -97 -33.5 -193t-95 -177t-155.5 -139.5t-206 -77.5q42 -35 66.5 -81.5t30 -100.5t3 -98.5t-11.5 -100.5l-51 -291 q-11 -113 13.5 -151.5t119.5 -37.5v-251q-130 -25 -232.5 0.5t-162 87.5t-84.5 149t-10 186l43 263q39 172 28.5 284.5t-88.5 169.5q-60 19 -96 37l-256 -631h-362l446 1106q23 56 61 108t91 98t125.5 73.5t152.5 27.5l66 -190q-4 -2 -11.5 -6t-29 -20t-40.5 -35.5 t-41.5 -53t-37.5 -71.5l-70 -174q56 -39 123.5 -47t129.5 15.5t114.5 66.5t83.5 108.5t31 138.5q0 42 -8.5 84t-35 90.5t-67.5 85.5t-113.5 61.5t-166.5 24.5q-127 0 -232.5 -42.5t-170.5 -109.5t-100.5 -144t-35.5 -150q0 -44 11.5 -91t22.5 -73l11 -25l-240 -180 q-4 7 -11.5 19t-26 51.5t-33 80t-26 99t-11.5 113.5zM854 2181h256l82 -141l190 141h318l-479 -375h-187z" />
<glyph unicode="&#x159;" horiz-adv-x="942" d="M43 575q73 132 156 316q-33 35 -48.5 61.5t-15.5 61.5q0 75 63.5 151.5t131.5 98.5l139 -74l-59 -158q20 -16 69.5 -47t96.5 -62.5t94.5 -70t76.5 -84t29 -90.5q0 -40 -24 -103l-45 -116q-27 -65 -40.5 -114.5t-15.5 -77t4 -44t14.5 -21.5t18.5 -5q75 0 297 378 q35 -3 72 -30t51 -58q-53 -92 -96 -159t-100 -138t-110.5 -115.5t-119.5 -73t-135 -28.5q-50 0 -96.5 14.5t-86 50.5t-60 89t-12.5 138t50 190l64 159q18 46 18 72q0 7 -1.5 13.5t-5.5 13.5t-7 13t-10.5 14t-11.5 13t-14.5 14.5t-15 13.5t-17 15t-17.5 15 q-64 -158 -158 -324q-35 3 -72 30t-51 58zM147 1688h259l81 -142l191 142h317l-479 -375h-188z" />
<glyph unicode="&#x15a;" horiz-adv-x="1417" d="M-94 -485q-24 132 21 274t149 277q-117 161 -117 376q0 118 35 220.5t94.5 176.5t140 124.5t170.5 70t188 7t189 -59.5l-110 -279q-72 41 -141 37.5t-123 -36.5t-86.5 -97.5t-32.5 -144.5q0 -87 32 -150q105 97 337 300.5t280 246.5q-60 250 -60 389q0 222 118.5 356 t309.5 134q70 0 127.5 -20.5t95 -53t62.5 -75.5t36 -87t11 -88q0 -70 -27 -143.5t-78.5 -146.5t-107.5 -136.5t-133 -138.5q45 -214 45 -350q0 -206 -93 -362.5t-252 -238t-359 -81.5q-205 0 -369 90q-81 -94 -110.5 -185t-8.5 -206h-233zM506 145q49 -16 121 -16 q160 0 261 114t101 277q0 8 -1 25t-1 26q-96 -88 -265 -235.5t-216 -190.5zM1207 1308q-2 -24 1 -29v-1q0 -50 17 -137q123 131 123 227q0 62 -56 62q-34 0 -54.5 -22t-24.5 -49t-6 -51zM1229 1804l284 330h379l-381 -330h-282z" />
<glyph unicode="&#x15b;" horiz-adv-x="872" d="M-39 113l203 127q19 -19 47 -19q48 0 74 56.5t26 197.5q0 26 -3 133.5t-1 155.5q-19 -36 -49.5 -98t-53 -106t-38.5 -73q-35 3 -72 30t-51 58q61 103 146.5 269t142.5 291l319 -72q-21 -129 -22 -275t9.5 -294.5t10.5 -169.5q0 -45 -6 -93q82 70 142.5 147t129.5 197 q35 -3 72 -30t51 -58q-48 -87 -98 -158t-116.5 -139t-138 -114.5t-163 -74.5t-192.5 -28q-246 0 -369 140zM299 1210l285 330h379l-379 -330h-285z" />
<glyph unicode="&#x15e;" horiz-adv-x="1417" d="M-94 -485q-24 132 21 274t149 277q-117 161 -117 376q0 118 35 220.5t94.5 176.5t140 124.5t170.5 70t188 7t189 -59.5l-110 -279q-72 41 -141 37.5t-123 -36.5t-86.5 -97.5t-32.5 -144.5q0 -87 32 -150q105 97 337 300.5t280 246.5q-60 250 -60 389q0 222 118.5 356 t309.5 134q70 0 127.5 -20.5t95 -53t62.5 -75.5t36 -87t11 -88q0 -70 -27 -143.5t-78.5 -146.5t-107.5 -136.5t-133 -138.5q45 -214 45 -350q0 -275 -160 -454.5t-417 -217.5l-47 -96q55 -22 80.5 -52.5t25.5 -87.5q0 -88 -62 -146.5t-148 -76t-178 -6.5t-151 51l101 156 q32 -17 66 -25.5t59.5 -1.5t25.5 33q0 30 -36 35.5t-93 -4.5l117 217q-131 17 -256 84q-81 -94 -110.5 -185t-8.5 -206h-233zM506 145q49 -16 121 -16q160 0 261 114t101 277q0 8 -1 25t-1 26q-96 -88 -265 -235.5t-216 -190.5zM1207 1308q-2 -24 1 -29v-1q0 -50 17 -137 q123 131 123 227q0 62 -56 62q-34 0 -54.5 -22t-24.5 -49t-6 -51z" />
<glyph unicode="&#x15f;" horiz-adv-x="872" d="M-76 -414q19 30 54.5 83.5t46.5 70.5q24 -12 49.5 -19.5t48.5 -9t38 7t15 27.5q0 29 -37 35.5t-94 -2.5l117 217q-130 29 -201 117q137 86 203 127q19 -19 47 -19q48 0 74 56.5t26 197.5q0 26 -3 133.5t-1 155.5q-19 -36 -49.5 -98t-53 -106t-38.5 -73q-35 3 -72 30 t-51 58q61 103 146.5 269t142.5 291l319 -72q-21 -129 -22 -275t9.5 -294.5t10.5 -169.5q0 -45 -6 -93q82 70 142.5 147t129.5 197q35 -3 72 -30t51 -58q-57 -103 -118.5 -184.5t-140.5 -154t-177 -117.5t-209 -56l-39 -71q56 -22 82.5 -53t26.5 -87q0 -60 -29 -107t-76 -74 t-106 -41.5t-118.5 -13t-115.5 16t-94 41.5z" />
<glyph unicode="&#x160;" horiz-adv-x="1417" d="M-94 -485q-24 132 21 274t149 277q-117 161 -117 376q0 118 35 220.5t94.5 176.5t140 124.5t170.5 70t188 7t189 -59.5l-110 -279q-72 41 -141 37.5t-123 -36.5t-86.5 -97.5t-32.5 -144.5q0 -87 32 -150q105 97 337 300.5t280 246.5q-60 250 -60 389q0 222 118.5 356 t309.5 134q70 0 127.5 -20.5t95 -53t62.5 -75.5t36 -87t11 -88q0 -70 -27 -143.5t-78.5 -146.5t-107.5 -136.5t-133 -138.5q45 -214 45 -350q0 -206 -93 -362.5t-252 -238t-359 -81.5q-205 0 -369 90q-81 -94 -110.5 -185t-8.5 -206h-233zM506 145q49 -16 121 -16 q160 0 261 114t101 277q0 8 -1 25t-1 26q-96 -88 -265 -235.5t-216 -190.5zM1174 2181h256l81 -141l191 141h317l-479 -375h-186zM1207 1308q-2 -24 1 -29v-1q0 -50 17 -137q123 131 123 227q0 62 -56 62q-34 0 -54.5 -22t-24.5 -49t-6 -51z" />
<glyph unicode="&#x161;" horiz-adv-x="872" d="M-39 113l203 127q19 -19 47 -19q48 0 74 56.5t26 197.5q0 26 -3 133.5t-1 155.5q-19 -36 -49.5 -98t-53 -106t-38.5 -73q-35 3 -72 30t-51 58q61 103 146.5 269t142.5 291l319 -72q-21 -129 -22 -275t9.5 -294.5t10.5 -169.5q0 -45 -6 -93q82 70 142.5 147t129.5 197 q35 -3 72 -30t51 -58q-48 -87 -98 -158t-116.5 -139t-138 -114.5t-163 -74.5t-192.5 -28q-246 0 -369 140zM219 1561h256l82 -142l191 142h317l-479 -375h-187z" />
<glyph unicode="&#x162;" horiz-adv-x="1394" d="M0 373q0 77 21.5 148t66 131.5t107 103t149 63t186.5 12.5v-301q-56 4 -98 -5.5t-64.5 -26t-36 -40.5t-17 -43t-3.5 -40q0 -84 56.5 -129t128.5 -45q69 0 127.5 30t110 93t95.5 142.5t95 197.5l262 649q-16 3 -76 16.5t-79 17.5t-71.5 15t-75 15.5t-65.5 12.5t-67.5 11.5 t-57 8t-57.5 6t-47 1.5q-93 0 -140 -30.5t-47 -86.5q0 -50 37 -76t84 -26q35 0 68.5 15t49.5 29l17 15l146 -219q-5 -5 -14 -13t-39.5 -28t-64 -35.5t-85 -28.5t-104.5 -13q-75 0 -143.5 23.5t-124 69t-88.5 120t-33 167.5q0 67 16.5 127t55 114.5t95 94t142.5 63t192 23.5 q115 0 278 -29.5t302.5 -64.5t312 -64.5t305.5 -29.5q76 0 136.5 15t83.5 29l22 15l193 -106q-1 -5 -3.5 -14.5t-14.5 -36.5t-29 -51t-51 -54t-77 -51.5t-110 -36t-146 -14.5q-163 0 -286 20l-307 -757q-50 -128 -113 -228.5t-124 -164t-129 -107t-125.5 -63t-115.5 -25.5 l-45 -84q56 -21 81.5 -52t25.5 -87q0 -88 -62 -147t-148 -77t-177.5 -7t-149.5 52l99 154q24 -12 49.5 -19.5t48.5 -9t38 7t15 27.5q0 29 -36 35.5t-93 -2.5l119 219q-96 20 -170.5 67t-118.5 110.5t-66 134.5t-22 147z" />
<glyph unicode="&#x163;" horiz-adv-x="675" d="M-166 -414l100 154q24 -12 50 -19.5t49 -9t38 7t15 27.5q0 29 -36 35.5t-93 -2.5l119 223q-48 22 -79 63.5t-43.5 102.5t1.5 147t55 189l226 559h-164l75 182h160l92 223h363l-92 -223h159l-75 -182h-156l-244 -606q-27 -67 -40.5 -116.5t-15.5 -76.5t5.5 -43.5t17.5 -21 t25 -4.5q71 0 167.5 97.5t205.5 282.5q35 -3 72 -30t51 -58q-250 -438 -535 -503l-41 -80q56 -21 81.5 -52.5t25.5 -87.5q0 -71 -40.5 -124t-104 -77.5t-136 -32t-142 8t-116.5 47.5z" />
<glyph unicode="&#x164;" horiz-adv-x="1394" d="M0 373q0 77 21.5 148t66 131.5t107 103t149 63t186.5 12.5v-301q-56 4 -98 -5.5t-64.5 -26t-36 -40.5t-17 -43t-3.5 -40q0 -84 56.5 -129t128.5 -45q69 0 127.5 30t110 93t95.5 142.5t95 197.5l262 649q-16 3 -76 16.5t-79 17.5t-71.5 15t-75 15.5t-65.5 12.5t-67.5 11.5 t-57 8t-57.5 6t-47 1.5q-93 0 -140 -30.5t-47 -86.5q0 -50 37 -76t84 -26q35 0 68.5 15t49.5 29l17 15l146 -219q-5 -5 -14 -13t-39.5 -28t-64 -35.5t-85 -28.5t-104.5 -13q-75 0 -143.5 23.5t-124 69t-88.5 120t-33 167.5q0 66 17 126.5t55.5 115t95.5 94t142.5 63 t190.5 23.5q115 0 283.5 -29.5t313.5 -64.5t313 -64.5t282 -29.5q86 0 148 15t81 29l19 15l193 -106q-1 -5 -3.5 -14.5t-14.5 -36.5t-29 -51t-51 -54t-77 -51.5t-110 -36t-146 -14.5q-163 0 -286 20l-307 -757q-233 -592 -697 -592q-130 0 -232.5 40.5t-164 109t-93.5 151 t-32 172.5zM1217 2050h256l81 -141l191 141h317l-479 -375h-186z" />
<glyph unicode="&#x165;" horiz-adv-x="675" d="M-50.5 203q-13.5 118 60.5 301l226 559h-164l75 182h160l92 223h363l-92 -223h159l-75 -182h-156l-244 -606q-27 -67 -40.5 -116.5t-15.5 -76.5t5.5 -43.5t17.5 -21t25 -4.5q71 0 167.5 97.5t205.5 282.5q35 -3 72 -30t51 -58q-292 -514 -631 -514q-111 0 -179.5 56 t-82 174zM797 1130q106 76 118 132q-35 12 -56 40.5t-21 63.5q0 49 33 83t79 34q47 0 82 -32.5t35 -92.5q0 -84 -64.5 -165t-156.5 -136z" />
<glyph unicode="&#x16e;" horiz-adv-x="1884" d="M0 819q0 59 14 110.5t37 93t62.5 79.5t79.5 66t100 57.5t111.5 50t127 45.5t134 43t144 44t146.5 46q60 73 147 118.5t193 45.5l66 -191q-4 -2 -11.5 -6t-28.5 -19t-40 -34.5t-42 -53.5t-38 -73l-289 -715q-50 -126 -61.5 -194.5t-2 -79t29.5 -10.5q79 0 205 99t196 234 l367 912h362l-403 -1012q-23 -60 -33.5 -104.5t-10.5 -69.5t8.5 -39.5t20 -19t27.5 -4.5q65 0 133 74.5t176 262.5q35 -3 72 -30t51 -58q-64 -112 -125.5 -197t-135.5 -160.5t-159 -116t-174 -40.5q-50 0 -93 13.5t-79.5 41t-54.5 77t-12 114.5q-240 -297 -480 -297 q-72 0 -126.5 26t-87 79.5t-40.5 129t13 181t73 229.5l215 535q-66 -19 -105 -31t-92 -29.5t-83.5 -30t-67.5 -29.5t-57 -32t-39 -34t-27 -39t-8 -43q0 -34 15.5 -57t41 -32.5t43.5 -12.5t37 -3v-297q-198 0 -320.5 106.5t-121.5 280.5zM1307 1919q0 123 86 209t209 86 t209.5 -86t86.5 -209t-86.5 -210t-209.5 -87t-209 87t-86 210zM1497 1919q0 -43 31 -73.5t74 -30.5t73.5 30.5t30.5 73.5t-30.5 73.5t-73.5 30.5t-74 -30.5t-31 -73.5z" />
<glyph unicode="&#x16f;" horiz-adv-x="1224" d="M-54 265.5q8 104.5 62 238.5l225 559h363l-244 -606q-24 -59 -36.5 -102t-15 -67t3 -38.5t14 -18.5t22.5 -4q47 0 102 62t158 231l219 543h363l-244 -606q-27 -67 -41.5 -116.5t-17 -76.5t3.5 -43.5t15 -21t22 -4.5q126 0 348 380q35 -3 72 -30t51 -58 q-62 -108 -128.5 -196.5t-143.5 -162t-164 -114.5t-175 -41q-93 0 -158.5 46.5t-86.5 140.5q-156 -187 -342 -187q-76 0 -132.5 31.5t-89.5 94t-25 167zM485 1430q0 124 87 210t210 86t209 -86t86 -210q0 -123 -86 -209t-209 -86t-210 86t-87 209zM678 1430q0 -42 31 -72.5 t73 -30.5q43 0 74 31t31 72q0 43 -31 73.5t-74 30.5t-73.5 -30.5t-30.5 -73.5z" />
<glyph unicode="&#x170;" horiz-adv-x="1884" d="M0 819q0 59 14 110.5t37 93t62.5 79.5t79.5 66t100 57.5t111.5 50t127 45.5t134 43t144 44t146.5 46q60 73 147 118.5t193 45.5l66 -191q-4 -2 -11.5 -6t-28.5 -19t-40 -34.5t-42 -53.5t-38 -73l-289 -715q-50 -126 -61.5 -194.5t-2 -79t29.5 -10.5q79 0 205 99t196 234 l367 912h362l-403 -1012q-23 -60 -33.5 -104.5t-10.5 -69.5t8.5 -39.5t20 -19t27.5 -4.5q65 0 133 74.5t176 262.5q35 -3 72 -30t51 -58q-64 -112 -125.5 -197t-135.5 -160.5t-159 -116t-174 -40.5q-50 0 -93 13.5t-79.5 41t-54.5 77t-12 114.5q-240 -297 -480 -297 q-72 0 -126.5 26t-87 79.5t-40.5 129t13 181t73 229.5l215 535q-66 -19 -105 -31t-92 -29.5t-83.5 -30t-67.5 -29.5t-57 -32t-39 -34t-27 -39t-8 -43q0 -34 15.5 -57t41 -32.5t43.5 -12.5t37 -3v-297q-198 0 -320.5 106.5t-121.5 280.5zM1235 1675l235 330h353l-324 -330 h-264zM1647 1675l235 330h352l-323 -330h-264z" />
<glyph unicode="&#x171;" horiz-adv-x="1224" d="M-54 265.5q8 104.5 62 238.5l225 559h363l-244 -606q-24 -59 -36.5 -102t-15 -67t3 -38.5t14 -18.5t22.5 -4q47 0 102 62t158 231l219 543h363l-244 -606q-27 -67 -41.5 -116.5t-17 -76.5t3.5 -43.5t15 -21t22 -4.5q126 0 348 380q35 -3 72 -30t51 -58 q-62 -108 -128.5 -196.5t-143.5 -162t-164 -114.5t-175 -41q-93 0 -158.5 46.5t-86.5 140.5q-156 -187 -342 -187q-76 0 -132.5 31.5t-89.5 94t-25 167zM350 1161l236 330h350l-324 -330h-262zM762 1161l235 330h351l-324 -330h-262z" />
<glyph unicode="&#x178;" horiz-adv-x="1822" d="M0 819q0 72 20 133.5t57 108.5t90 87.5t116.5 72.5t140 61t158 55t171.5 53q45 13 69.5 20.5t63 19.5t70.5 22q60 75 147 120.5t193 45.5l66 -191q-4 -2 -11.5 -6t-28.5 -19t-40 -34.5t-42 -53.5t-38 -73l-289 -715q-51 -129 -61 -197.5t0 -77.5t29 -9q80 0 203 100.5 t198 232.5l367 912h360l-536 -1329q128 84 221.5 180.5t171.5 236.5q35 -3 72 -30t51 -58q-70 -123 -142.5 -216t-152.5 -162.5t-154 -118.5t-176 -103q-14 -34 -37 -97t-40.5 -111t-45.5 -111.5t-55.5 -110.5t-68 -96t-84.5 -80.5t-102.5 -51.5t-125.5 -20q-68 0 -122 19 t-86.5 49t-54.5 69t-30.5 75.5t-9.5 72.5q0 204 272 330q21 11 51.5 24t55.5 23t68 27.5t69 27.5l63 156q-174 -160 -346 -160q-89 0 -150 42t-88 121.5t-10 203.5t80 278l217 535q-69 -20 -105.5 -31.5t-91 -29t-83.5 -29.5t-67.5 -29t-57.5 -32t-39 -34t-27.5 -39.5 t-7.5 -43.5q0 -34 15.5 -57t41 -32.5t43.5 -12.5t37 -3v-297q-198 0 -320.5 106.5t-121.5 280.5zM709 -487q0 -27 17.5 -39.5t39.5 -12.5q38 0 71.5 52t86.5 180q-76 -31 -113 -53q-42 -24 -72 -58.5t-30 -68.5zM1204 1825q0 72 50.5 123t121.5 51q72 0 122 -51t50 -123 q0 -71 -50 -121.5t-122 -50.5q-70 0 -121 50.5t-51 121.5zM1604 1825q0 72 50.5 123t121.5 51q72 0 122 -51t50 -123q0 -71 -50 -121.5t-122 -50.5q-70 0 -121 50.5t-51 121.5z" />
<glyph unicode="&#x179;" horiz-adv-x="1404" d="M-154 197q0 58 22.5 118.5t66 117t120 92.5t172.5 36q107 0 201.5 -45t196.5 -127q66 69 131 152l565 745q-74 11 -259.5 54.5t-264.5 43.5q-100 0 -149.5 -40t-49.5 -97q0 -54 36.5 -80t84.5 -26q36 0 70 14.5t51 29.5l16 15l143 -219q-5 -5 -14 -13t-39.5 -28.5 t-64 -36t-85 -28.5t-104.5 -13q-73 0 -141.5 24t-124 69.5t-89.5 119t-34 164.5q0 85 29 159.5t86 135t152.5 96t217.5 35.5q94 0 217.5 -23t213.5 -46t203 -35t186 10q117 92 276 92l66 -190q-107 -36 -162 -97l-655 -860q-166 -220 -277 -336q170 -153 367 -317 q71 -57 112 -75.5t80 -18.5q122 0 273 145l204 -233q-116 -111 -241 -168t-234 -52q-186 5 -375 162q-38 30 -91.5 79t-145.5 136t-166 154q-202 -137 -403 -137q-104 0 -183 33t-122 86t-64 109.5t-21 113.5zM123 207q0 -37 26 -56.5t66 -19.5q73 -3 191 70 q-123 98 -193 98q-40 0 -65 -27t-25 -65zM1200 1718l283 330h381l-381 -330h-283z" />
<glyph unicode="&#x17a;" horiz-adv-x="1110" d="M16 154l609 532q-14 3 -58 17t-81.5 22t-73.5 8q-63 0 -110 -45t-136 -201q-35 3 -72 30t-51 58q30 52 65 120t57.5 111t52 93.5t56.5 81t62 58t78 39.5t96 12q52 0 125.5 -14.5t130 -28t133.5 -12t148 27.5l110 -154l-565 -497q27 -6 119.5 -48t148.5 -42q28 0 53 7 t63 30t83.5 78t93.5 138q35 -3 72 -30t51 -58q-42 -71 -76 -124t-74.5 -109t-77.5 -96t-81.5 -77t-89.5 -59.5t-97.5 -35.5t-109.5 -13q-70 0 -136 19.5t-109 40t-88.5 33.5t-97 -2t-112.5 -64zM537 1161l282 330h381l-381 -330h-282z" />
<glyph unicode="&#x17b;" horiz-adv-x="1404" d="M-154 197q0 58 22.5 118.5t66 117t120 92.5t172.5 36q107 0 201.5 -45t196.5 -127q66 69 131 152l565 745q-74 11 -259.5 54.5t-264.5 43.5q-100 0 -149.5 -40t-49.5 -97q0 -54 36.5 -80t84.5 -26q36 0 70 14.5t51 29.5l16 15l143 -219q-5 -5 -14 -13t-39.5 -28.5 t-64 -36t-85 -28.5t-104.5 -13q-73 0 -141.5 24t-124 69.5t-89.5 119t-34 164.5q0 85 29 159.5t86 135t152.5 96t217.5 35.5q94 0 217.5 -23t213.5 -46t203 -35t186 10q117 92 276 92l66 -190q-107 -36 -162 -97l-655 -860q-166 -220 -277 -336q170 -153 367 -317 q71 -57 112 -75.5t80 -18.5q122 0 273 145l204 -233q-116 -111 -241 -168t-234 -52q-186 5 -375 162q-38 30 -91.5 79t-145.5 136t-166 154q-202 -137 -403 -137q-104 0 -183 33t-122 86t-64 109.5t-21 113.5zM123 207q0 -37 26 -56.5t66 -19.5q73 -3 191 70 q-123 98 -193 98q-40 0 -65 -27t-25 -65zM1257 1872q0 72 51 123t122 51q72 0 123 -51t51 -123q0 -71 -51 -121.5t-123 -50.5q-71 0 -122 51t-51 121z" />
<glyph unicode="&#x17c;" horiz-adv-x="1110" d="M16 154l609 532q-14 3 -58 17t-81.5 22t-73.5 8q-63 0 -110 -45t-136 -201q-35 3 -72 30t-51 58q30 52 65 120t57.5 111t52 93.5t56.5 81t62 58t78 39.5t96 12q52 0 125.5 -14.5t130 -28t133.5 -12t148 27.5l110 -154l-565 -497q27 -6 119.5 -48t148.5 -42q28 0 53 7 t63 30t83.5 78t93.5 138q35 -3 72 -30t51 -58q-42 -71 -76 -124t-74.5 -109t-77.5 -96t-81.5 -77t-89.5 -59.5t-97.5 -35.5t-109.5 -13q-70 0 -136 19.5t-109 40t-88.5 33.5t-97 -2t-112.5 -64zM629 1333q0 72 50.5 123t121.5 51q72 0 122 -51t50 -123q0 -71 -50 -121.5 t-122 -50.5q-71 0 -121.5 50.5t-50.5 121.5z" />
<glyph unicode="&#x17d;" horiz-adv-x="1404" d="M-154 197q0 58 22.5 118.5t66 117t120 92.5t172.5 36q107 0 201.5 -45t196.5 -127q66 69 131 152l565 745q-74 11 -259.5 54.5t-264.5 43.5q-100 0 -149.5 -40t-49.5 -97q0 -54 36.5 -80t84.5 -26q36 0 70 14.5t51 29.5l16 15l143 -219q-5 -5 -14 -13t-39.5 -28.5 t-64 -36t-85 -28.5t-104.5 -13q-73 0 -141.5 24t-124 69.5t-89.5 119t-34 164.5q0 85 29 159.5t86 135t152.5 96t217.5 35.5q94 0 217.5 -23t213.5 -46t203 -35t186 10q117 92 276 92l66 -190q-107 -36 -162 -97l-655 -860q-166 -220 -277 -336q170 -153 367 -317 q71 -57 112 -75.5t80 -18.5q122 0 273 145l204 -233q-116 -111 -241 -168t-234 -52q-186 5 -375 162q-38 30 -91.5 79t-145.5 136t-166 154q-202 -137 -403 -137q-104 0 -183 33t-122 86t-64 109.5t-21 113.5zM123 207q0 -37 26 -56.5t66 -19.5q73 -3 191 70 q-123 98 -193 98q-40 0 -65 -27t-25 -65zM1069 2097h256l82 -141l190 141h318l-479 -375h-187z" />
<glyph unicode="&#x17e;" horiz-adv-x="1110" d="M16 154l609 532q-14 3 -58 17t-81.5 22t-73.5 8q-63 0 -110 -45t-136 -201q-35 3 -72 30t-51 58q30 52 65 120t57.5 111t52 93.5t56.5 81t62 58t78 39.5t96 12q52 0 125.5 -14.5t130 -28t133.5 -12t148 27.5l110 -154l-565 -497q27 -6 119.5 -48t148.5 -42q28 0 53 7 t63 30t83.5 78t93.5 138q35 -3 72 -30t51 -58q-42 -71 -76 -124t-74.5 -109t-77.5 -96t-81.5 -77t-89.5 -59.5t-97.5 -35.5t-109.5 -13q-70 0 -136 19.5t-109 40t-88.5 33.5t-97 -2t-112.5 -64zM508 1556h258l82 -141l190 141h318l-479 -374h-189z" />
<glyph unicode="&#x192;" horiz-adv-x="1267" d="M-266 -254l149 268q77 1 134.5 20t107 65.5t87.5 100.5t91 148l183 351l69 132h-188l92 218h207l102 196q68 132 164 206t219 82.5t264 -71.5q-73 -173 -98 -239q-45 19 -80.5 21.5t-61.5 -6.5t-50 -35.5t-41.5 -56t-41.5 -77.5l-12 -20h195l-92 -218h-213l-328 -630 q-78 -145 -175.5 -246.5t-206 -154.5t-229.5 -68t-247 14z" />
<glyph unicode="&#x2c6;" horiz-adv-x="757" d="M-49 1141l479 375h186l179 -375h-254l-84 137l-187 -137h-319z" />
<glyph unicode="&#x2c7;" horiz-adv-x="757" d="M100 1516h256l82 -142l191 142h317l-479 -375h-186z" />
<glyph unicode="&#x2d8;" horiz-adv-x="757" d="M165 1350.5q1 31.5 8 63t14.5 50.5t13.5 29h233l-8 -16q-8 -16 -15 -36.5t-10 -41.5t8 -35t37 -14t50.5 13.5t42 34.5t30.5 40t21.5 36.5t9.5 18.5h229q-2 -10 -6 -25.5t-17.5 -48.5t-32 -63.5t-52.5 -66t-75.5 -61t-103.5 -42.5t-134 -17q-71 0 -121 16.5t-75 41.5 t-36.5 58.5t-10.5 65z" />
<glyph unicode="&#x2d9;" horiz-adv-x="757" d="M274 1333q0 72 50.5 123t121.5 51q72 0 123.5 -51t51.5 -123q0 -71 -51.5 -121.5t-123.5 -50.5q-70 0 -121 50.5t-51 121.5z" />
<glyph unicode="&#x2da;" horiz-adv-x="757" d="M188 1466q0 124 87 210.5t210 86.5t209 -86.5t86 -210.5q0 -123 -86 -209t-209 -86t-210 86t-87 209zM381 1466q0 -41 30.5 -71.5t73.5 -30.5t74 30.5t31 71.5q0 43 -31 74t-74 31t-73.5 -31t-30.5 -74z" />
<glyph unicode="&#x2db;" horiz-adv-x="757" d="M-6 -299q0 46 21 88t55.5 78.5t99 79.5t130 80t169.5 92l68 -119q-254 -157 -254 -227q0 -18 11.5 -27t32.5 -8.5t42.5 4.5t50 13.5t45.5 16t37 15.5l-86 -209q-24 -12 -62 -22.5t-86 -18t-96 -3t-88 19.5t-65 53t-25 94z" />
<glyph unicode="&#x2dc;" horiz-adv-x="856" d="M145 1321q19 30 23.5 37t25 35.5t31 39t33 31t41.5 29t45.5 16t54.5 7.5q49 0 93 -19.5t81.5 -39t69.5 -19.5q29 0 59.5 18.5t51.5 52.5l108 -120q-21 -33 -33 -50.5t-37.5 -48t-49 -46.5t-58.5 -29t-74 -13q-49 0 -92.5 19.5t-80.5 39t-70 19.5q-27 0 -57.5 -20.5 t-53.5 -53.5z" />
<glyph unicode="&#x2dd;" horiz-adv-x="1011" d="M96 1161l236 330h352l-324 -330h-264zM508 1161l235 330h353l-324 -330h-264z" />
<glyph unicode="&#x2000;" horiz-adv-x="1158" />
<glyph unicode="&#x2001;" horiz-adv-x="2316" />
<glyph unicode="&#x2002;" horiz-adv-x="1158" />
<glyph unicode="&#x2003;" horiz-adv-x="2316" />
<glyph unicode="&#x2004;" horiz-adv-x="772" />
<glyph unicode="&#x2005;" horiz-adv-x="579" />
<glyph unicode="&#x2006;" horiz-adv-x="386" />
<glyph unicode="&#x2007;" horiz-adv-x="386" />
<glyph unicode="&#x2008;" horiz-adv-x="289" />
<glyph unicode="&#x2009;" horiz-adv-x="463" />
<glyph unicode="&#x200a;" horiz-adv-x="128" />
<glyph unicode="&#x2010;" horiz-adv-x="1099" d="M260 479l88 217h613l-89 -217h-612z" />
<glyph unicode="&#x2011;" horiz-adv-x="1099" d="M260 479l88 217h613l-89 -217h-612z" />
<glyph unicode="&#x2012;" horiz-adv-x="1099" d="M260 479l88 217h613l-89 -217h-612z" />
<glyph unicode="&#x2013;" horiz-adv-x="1482" d="M260 479l88 217h995l-86 -217h-997z" />
<glyph unicode="&#x2014;" horiz-adv-x="1849" d="M260 479l88 217h1362l-86 -217h-1364z" />
<glyph unicode="&#x2018;" horiz-adv-x="632" d="M100 881q0 91 41 184.5t108.5 172.5t143.5 143.5t158 113.5l96 -147q-87 -65 -143.5 -125t-73.5 -90.5t-22 -53.5q68 -25 109.5 -83t41.5 -132q0 -97 -66 -164t-163 -67q-42 0 -81 14.5t-73.5 43t-55 78t-20.5 112.5z" />
<glyph unicode="&#x2019;" horiz-adv-x="581" d="M152 780q87 65 143.5 125t73.5 90.5t22 53.5q-69 25 -110 82.5t-41 132.5q0 97 66 164t161 67q94 0 162.5 -63.5t68.5 -184.5q0 -90 -41 -183.5t-108.5 -173t-143.5 -144t-157 -113.5z" />
<glyph unicode="&#x201a;" horiz-adv-x="757" d="M53 -283q87 65 144 126t74 90t24 53q-70 25 -112 84t-42 133q0 97 66.5 163t163.5 66q93 0 162 -64t69 -184q0 -90 -41 -183.5t-109 -173t-144.5 -144t-157.5 -113.5z" />
<glyph unicode="&#x201c;" horiz-adv-x="1226" d="M100 883q0 89 41 182t108.5 172t144 144t157.5 114l96 -147q-87 -65 -143.5 -125t-73.5 -90.5t-22 -53.5q68 -25 109.5 -83t41.5 -132q0 -97 -66 -164t-163 -67q-91 0 -161 63.5t-69 186.5zM686 883q0 89 41 182t109 172t144 144t157 114l98 -147q-87 -66 -144 -125.5 t-75 -90t-23 -53.5q69 -25 110.5 -83t41.5 -132q0 -97 -65.5 -164t-161.5 -67q-43 0 -82.5 14.5t-74 43.5t-55 78.5t-20.5 113.5z" />
<glyph unicode="&#x201d;" horiz-adv-x="1169" d="M152 780q87 65 143.5 125t73.5 90.5t22 53.5q-69 25 -110 82.5t-41 132.5q0 97 66 164t161 67q43 0 82.5 -14.5t73.5 -43.5t54.5 -78.5t20.5 -113.5q0 -89 -41 -182t-108.5 -172t-143.5 -144t-157 -114zM737 780q210 158 242 269q-70 25 -112 83t-42 132q0 97 66.5 164 t163.5 67q42 0 81.5 -14.5t73.5 -43t55 -78.5t21 -114q0 -89 -41 -182t-109 -172t-144.5 -144t-157.5 -114z" />
<glyph unicode="&#x201e;" horiz-adv-x="1343" d="M53 -283q87 65 144 126t74 90t24 53q-70 25 -112 84t-42 133q0 95 66.5 162t163.5 67q91 0 161 -63t70 -187q0 -89 -41 -182t-109 -172t-144.5 -144t-157.5 -114zM639 -283q67 50 116 96.5t74 80.5t36.5 55t15.5 37q-69 25 -110.5 83.5t-41.5 133.5q0 96 65.5 162.5 t161.5 66.5q43 0 82.5 -14t74 -43t55 -78.5t20.5 -114.5q0 -89 -41 -182t-109 -172t-144 -144t-157 -114z" />
<glyph unicode="&#x2020;" horiz-adv-x="1398" d="M178 -313q213 635 238 845l178 259l-117 -46q-18 -6 -47 -6q-75 0 -126.5 52t-51.5 127q0 74 51 125t125 51q22 0 59 -11l203 -88l53 340q9 67 60 113.5t119 46.5q72 0 125 -53t53 -125q0 -55 -33 -103l-149 -202l126 49q18 6 48 6q75 0 126.5 -52t51.5 -126t-51.5 -126 t-126.5 -52q-18 0 -64 12l-184 78l-21 -269q-141 -203 -446 -845h-199z" />
<glyph unicode="&#x2021;" horiz-adv-x="1478" d="M49 174q0 74 52.5 126t125.5 52q18 0 64 -12l184 -78l23 268l176 261l-117 -46q-18 -6 -47 -6q-75 0 -126.5 51t-51.5 125q0 75 51.5 127t126.5 52q17 0 59 -11l201 -88l55 340q8 66 58 113t118 47q72 0 125.5 -53t53.5 -125q0 -55 -33 -103l-150 -204l127 51q18 6 50 6 q73 0 124.5 -52t51.5 -126t-51.5 -126t-124.5 -52q-32 0 -66 12l-182 76l-23 -269q-42 -62 -104 -152.5t-72 -105.5l115 45q24 7 49 7q74 0 126 -52t52 -127q0 -73 -52 -124.5t-126 -51.5q-18 0 -60 11l-202 88l-54 -340q-9 -67 -59.5 -113.5t-118.5 -46.5q-72 0 -125 53 t-53 125q0 49 33 102l149 203l-127 -49q-18 -6 -47 -6q-73 0 -125.5 52t-52.5 126z" />
<glyph unicode="&#x2022;" horiz-adv-x="1067" d="M274 584q0 121 83.5 204.5t203.5 83.5q122 0 206.5 -83.5t84.5 -204.5q0 -122 -84.5 -205.5t-206.5 -83.5q-121 0 -204 83.5t-83 205.5z" />
<glyph unicode="&#x2026;" horiz-adv-x="1929" d="M141 203q0 95 66.5 162t163.5 67t164 -67t67 -162q0 -97 -67 -163.5t-164 -66.5t-163.5 66.5t-66.5 163.5zM727 203q0 96 66.5 162.5t162.5 66.5q97 0 164.5 -67t67.5 -162q0 -97 -67.5 -163.5t-164.5 -66.5t-163 66.5t-66 163.5zM1313 203q0 96 66.5 162.5t162.5 66.5 q97 0 164.5 -67t67.5 -162q0 -97 -67.5 -163.5t-164.5 -66.5t-163 66.5t-66 163.5z" />
<glyph unicode="&#x202f;" horiz-adv-x="463" />
<glyph unicode="&#x2030;" horiz-adv-x="2224" d="M109 858q0 131 92.5 223.5t222.5 92.5t222.5 -92.5t92.5 -223.5q0 -130 -92.5 -222.5t-222.5 -92.5t-222.5 92.5t-92.5 222.5zM213 0l969 1174h248l-971 -1174h-246zM342 858q0 -34 24 -59t58 -25q35 0 59.5 25t24.5 59t-24.5 58t-59.5 24q-34 0 -58 -24t-24 -58z M899 315q0 131 93 223.5t225 92.5q130 0 222.5 -92.5t92.5 -223.5t-92 -223t-223 -92q-132 0 -225 92t-93 223zM1133 315q0 -34 24.5 -58t59.5 -24q34 0 57.5 24t23.5 58q0 35 -23.5 59.5t-57.5 24.5q-35 0 -59.5 -24.5t-24.5 -59.5zM1579 315q0 131 92.5 223.5t222.5 92.5 t223 -92.5t93 -223.5q0 -130 -92.5 -222.5t-223.5 -92.5q-130 0 -222.5 92t-92.5 223zM1812 315q0 -34 24 -58t58 -24q35 0 59.5 24t24.5 58q0 35 -24.5 59.5t-59.5 24.5q-34 0 -58 -24.5t-24 -59.5z" />
<glyph unicode="&#x2039;" horiz-adv-x="1189" d="M219 479l70 170l729 418l-172 -422l-236 -151l113 -150l-115 -289z" />
<glyph unicode="&#x203a;" horiz-adv-x="1157" d="M145 59l168 424l240 150l-119 151l115 289l389 -422l-70 -172z" />
<glyph unicode="&#x2044;" horiz-adv-x="833" d="M-227 0l1214 1468h189l-1217 -1468h-186z" />
<glyph unicode="&#x205f;" horiz-adv-x="579" />
<glyph unicode="&#x2070;" horiz-adv-x="786" d="M35 831q0 40 8 94.5t26 122t44 134.5t66 131t88 112.5t113.5 78.5t139.5 30q66 0 114.5 -23t75 -62t38.5 -82t12 -91q0 -57 -15.5 -138.5t-53 -180.5t-91 -182.5t-139.5 -140t-189 -56.5q-64 0 -111.5 22t-74 59.5t-39 80.5t-12.5 91zM240 813q0 -38 16 -53t33 -15 q48 0 113 110t109 241t44 198q0 33 -11.5 50.5t-29.5 17.5q-52 0 -118.5 -110.5t-111 -241t-44.5 -197.5z" />
<glyph unicode="&#x2074;" horiz-adv-x="849" d="M-8 819l86 209l430 488h330l-193 -484q19 2 37 9t26 13l9 7l94 -105q-3 -6 -9.5 -15.5t-29 -33.5t-49.5 -42t-71 -32.5t-93 -13.5l-92 -225h-236l93 225h-332zM272 1028h136l110 285z" />
<glyph unicode="&#x2075;" horiz-adv-x="831" d="M32.5 854q7.5 50 28.5 100h244q-38 -75 -29 -135.5t60 -60.5q59 0 107.5 73.5t48.5 167.5q0 72 -50 72q-67 0 -118 -96l-220 47l205 494q314 -54 353 -54q70 0 133 54l92 -109q-20 -27 -28 -37t-35.5 -36.5t-52.5 -38.5t-68.5 -23.5t-94.5 -11.5q-16 0 -61.5 5t-82.5 10 l-38 5l-37 -96q66 45 146 45q43 0 77.5 -14.5t56 -38t35.5 -55t19.5 -62t5.5 -62.5q0 -47 -11 -98t-41 -110t-75 -104.5t-120.5 -76t-170.5 -30.5q-85 0 -145 24t-89.5 62.5t-40.5 89t-3.5 100.5z" />
<glyph unicode="&#x2076;" horiz-adv-x="817" d="M53 840q0 55 13 125t38.5 148.5t68 152.5t95.5 134.5t128 97t159 36.5q134 0 199.5 -89.5t27.5 -236.5h-243q10 21 17.5 44t10.5 46.5t-6 38.5t-31 15q-42 0 -77.5 -48.5t-85.5 -152.5q64 43 147 43q55 0 94.5 -17.5t60.5 -47.5t30 -64.5t8 -75.5q-1 -72 -32.5 -145.5 t-83.5 -132.5t-126 -96t-154 -37q-24 0 -47.5 2.5t-64.5 17t-70.5 40t-52.5 78t-23 124.5zM268 823q0 -65 47 -65q57 0 109.5 74.5t52.5 138.5q0 29 -14.5 47t-40.5 18q-57 0 -125 -71q-29 -89 -29 -142z" />
<glyph unicode="&#x2077;" horiz-adv-x="714" d="M45 594q28 71 72 147t103 158t102.5 138t114 143t93.5 116q-1 0 -14.5 -2t-28.5 -2q-17 0 -55 5t-49 6l-61 -150h-234l145 363q322 -54 363 -54q66 0 133 54l84 -101q-2 -3 -69.5 -96.5t-104 -148.5t-102 -157t-121 -206.5t-103.5 -212.5h-268z" />
<glyph unicode="&#x2078;" horiz-adv-x="831" d="M8 807q0 104 65.5 186t184.5 113q-3 0 -13 11t-22 42t-12 72q0 40 10 79t36 80.5t65 72.5t104 51t147 20q78 0 133 -18t83.5 -48.5t40.5 -63.5t12 -71q0 -86 -53 -155t-148 -101l8 -6q8 -6 18 -17.5t20 -28t17 -43t7 -58.5q0 -45 -12 -90.5t-42 -92t-74.5 -82.5 t-115 -58.5t-158.5 -22.5q-143 0 -222 57.5t-79 171.5zM252 827q0 -37 21.5 -54t52.5 -17q53 0 96 50.5t43 108.5q0 38 -20 57t-50 19q-53 0 -98 -52.5t-45 -111.5zM459 1237q0 -25 12.5 -39t32.5 -14q32 0 61 35t29 77q0 26 -12 41t-31 15q-32 0 -62 -36t-30 -79z" />
<glyph unicode="&#x2079;" horiz-adv-x="774" d="M35 901h239q-32 -89 -22 -119q9 -23 37 -24q35 0 72 47.5t85 150.5q-61 -41 -145 -41q-54 0 -93 17.5t-60 47.5t-30.5 64.5t-8.5 75.5q2 98 53.5 193t143.5 158t198 63q24 0 47.5 -2.5t64.5 -17.5t70.5 -41t52.5 -78.5t23 -124.5q0 -67 -18 -153t-58 -181.5t-96.5 -174.5 t-143 -131t-186.5 -52q-140 0 -203 98t-22 225zM340 1139q0 -30 13.5 -48t39.5 -18q49 0 127 70q25 98 25 141q0 68 -45 68q-57 0 -108.5 -74.5t-51.5 -138.5z" />
<glyph unicode="&#x20ac;" horiz-adv-x="1404" d="M49 469l70 178h160q8 26 18 55h-154l70 179h156q59 125 133.5 230t169.5 194t214 139.5t249 50.5q89 0 154.5 -25.5t100 -68.5t51.5 -97.5t13.5 -113.5t-18.5 -115t-41 -104h-367q111 179 59 225q-15 14 -45 14q-81 0 -158 -90.5t-145 -238.5h408l-68 -179h-413l-17 -55 h404l-68 -178h-381q-16 -88 -16 -137q0 -53 20.5 -83t77.5 -30q50 0 105 26.5t91 55.5t101 86q12 11 18 16l168 -159q-152 -138 -286 -204.5t-289 -66.5q-184 0 -278.5 89.5t-94.5 246.5q0 53 15 160h-187z" />
<glyph unicode="&#x2122;" horiz-adv-x="1423" d="M158 1040q0 32 11.5 59t37 51t74.5 35.5t116 6.5l-2 -117q-30 9 -45 2.5t-19.5 -13.5t-4.5 -17q0 -11 9 -19t25 -8q59 0 103 117l80 206q-97 25 -133 25q-62 0 -62 -29q0 -6 4.5 -11t13 -7t20 -0.5t27 9t31.5 20.5l45 -107q-84 -44 -150.5 -39t-107.5 46t-41 100 q0 64 52.5 104.5t150.5 40.5q54 0 130 -14.5t130.5 -28.5t117.5 -20t91 10l17 41l131 -78q64 45 151 45q91 0 99 -64q32 32 90.5 48t101.5 16q47 0 66.5 -23t19.5 -51q0 -49 -39 -137l-106 -266q-12 -30 -7.5 -50.5t33.5 -33.5l-57 -144q-58 18 -94 49t-46.5 66.5t-8.5 68 t14 64.5q123 304 123 322q0 4 -6 8t-17 4q-42 0 -88 -43l-147 -371h-170q155 388 155 398q0 16 -22 16q-39 0 -84 -39l-150 -375h-170l154 383q-27 -5 -105 7l-86 -216q-80 -200 -268 -200q-93 0 -140.5 43t-47.5 110z" />
<glyph unicode="&#x2212;" horiz-adv-x="1247" d="M51 432l129 309h940l-125 -309h-944z" />
<glyph unicode="&#x2264;" horiz-adv-x="1421" d="M-129 0l127 309h993l-127 -309h-993zM180 762l96 246l1156 399l-160 -385l-535 -186l387 -183l-114 -291z" />
<glyph unicode="&#x2265;" horiz-adv-x="1419" d="M-109 0l127 309h994l-127 -309h-994zM39 362l158 386l536 186l-387 184l117 291l827 -401l-98 -246z" />
<glyph unicode="&#xe000;" horiz-adv-x="1105" d="M0 0v1106h1106v-1106h-1106z" />
<glyph unicode="&#xfb01;" horiz-adv-x="1566" d="M-290 -519q-62 124 16 322l559 1389q93 236 207 338t278 102q70 0 123.5 -22t82.5 -58.5t47 -83t16.5 -94.5t-9.5 -94q-55 -265 -248 -618q-42 -79 -79 -127.5t-90.5 -87.5t-125 -57t-172.5 -21l-32 -78q74 -66 178 -66q152 0 268.5 74t218.5 238l213 526h363l-244 -606 q-27 -68 -42 -117.5t-18 -76.5t1.5 -42.5t12 -19.5t19.5 -4q61 0 156.5 97t200.5 281q35 -3 72 -30t51 -58q-61 -107 -127.5 -196t-144 -162.5t-165.5 -114.5t-176 -41q-104 0 -174 61.5t-74 178.5q-183 -143 -432 -137q2 -58 -4 -119q-31 -219 -129 -375 q-142 -225 -366 -225q-169 0 -231 124zM16 -400q0 -14 6.5 -19t20.5 -5q36 1 69 30t56 70t44 97t33.5 101t22.5 93q29 140 -49 164q-29 -73 -89.5 -221t-88.5 -221q-13 -35 -19 -55t-6 -34zM381 526q71 10 109.5 52t101.5 157q156 291 215 488q38 137 -8 137 q-83 0 -197 -283zM1253 1335q0 82 57.5 138.5t139.5 56.5q80 0 139.5 -57t59.5 -138q0 -79 -59.5 -138.5t-139.5 -59.5q-81 0 -139 59t-58 139z" />
<glyph unicode="&#xfb02;" horiz-adv-x="1566" d="M-290 -519q-62 124 16 322l559 1389q93 236 207 338t278 102q70 0 123.5 -22t82.5 -58.5t47 -83t16.5 -94.5t-9.5 -94q-55 -265 -248 -618q-42 -79 -79 -127.5t-90.5 -87.5t-125 -57t-172.5 -21l-32 -78q74 -66 178 -66q152 0 268.5 74t218.5 238l377 931h363l-408 -1011 q-27 -68 -42 -117.5t-18 -76.5t1.5 -42.5t12 -19.5t19.5 -4q61 0 156.5 97t200.5 281q35 -3 72 -30t51 -58q-61 -107 -127.5 -196t-144 -162.5t-165.5 -114.5t-176 -41q-104 0 -174 61.5t-74 178.5q-183 -143 -432 -137q2 -58 -4 -119q-31 -219 -129 -375 q-142 -225 -366 -225q-169 0 -231 124zM16 -400q0 -14 6.5 -19t20.5 -5q36 1 69 30t56 70t44 97t33.5 101t22.5 93q29 140 -49 164l-178 -442q-13 -35 -19 -55t-6 -34zM381 526q71 10 109.5 52t101.5 157q156 291 215 488q38 137 -8 137q-83 0 -197 -283z" />
<glyph horiz-adv-x="1413" d="M91.5 159.5q-1.5 42.5 14.5 77.5t48 63t72 41.5t91 8.5t101 -31q13 23 24.5 46t21.5 49.5t15 40t14.5 43.5t10.5 34h-139l53 158h104q11 50 21.5 88t33 95.5t48.5 100t69.5 89.5t95.5 77t126.5 50t162.5 20q107 0 182 -29t109.5 -75t44 -104.5t-5.5 -117t-47 -112.5h-289 q1 2 8.5 16t12 23t12 25.5t9.5 28t4.5 26.5t-1.5 25t-12 19.5t-24 14t-38 4.5q-42 0 -75.5 -16.5t-54.5 -40t-38 -61.5t-26 -69.5t-19 -76.5h291l-53 -158h-256q-20 -86 -61.5 -158.5t-106.5 -148.5q12 -3 36.5 -9.5t43 -10.5t33.5 -4q17 0 32.5 4t30 14.5t25 18.5t23 26.5 t19.5 28.5t18 34t15 33t15.5 35.5t13.5 32.5h283q-14 -51 -26.5 -88.5t-34 -87.5t-45.5 -86t-60.5 -73.5t-79 -61.5t-101 -39t-126.5 -15q-75 0 -167.5 25.5t-119.5 28.5q-54 -31 -122.5 -41t-135.5 11.5t-100 76.5q-22 39 -23.5 81.5z" />
<glyph horiz-adv-x="1316" d="M-25 227q-2 47 7 114.5t30.5 149.5t54 165t81 161.5t106 139t135.5 97t164 36.5q161 0 233 -119q10 -14 23 -47l55 139h365l-363 -893q62 -16 130 11t132 88t121 137t111 169q35 -3 72 -30t51 -58q-228 -400 -459 -467q38 -76 12 -204q-18 -89 -52.5 -167.5t-88 -145.5 t-133.5 -106.5t-176 -39.5q-178 0 -243 121t15 325l103 258q-122 -88 -238 -88q-112 0 -177.5 73t-70.5 181zM332 317q5 -55 67 -55q91 0 176 103q3 4 21 30l121 297l-1 1q-7 94 -74 101q-5 1 -11 1q-56 0 -114.5 -58t-98 -137t-64 -158.5t-22.5 -124.5zM648 -400 q1 -22 30 -22q24 0 43.5 7.5t36.5 26t29 36.5t27.5 53.5t25 61.5t26.5 75q19 49 11 85t-28 55.5t-48 27.5l-129 -317q-25 -67 -24 -89z" />
<glyph horiz-adv-x="1222" d="M-106 66l126 311l723 797h494l-319 -791q36 4 66 16t42 21l12 10l144 -156q-5 -9 -14 -23t-44 -50t-76 -63.5t-110.5 -50t-146.5 -21.5l-146 -361h-354l145 361h-542zM317 377h244l195 485z" />
<glyph horiz-adv-x="849" d="M-8 225l86 209l430 490h330l-193 -484q19 1 37 8t26 14l9 7l94 -104q-3 -6 -9.5 -15.5t-29 -34t-49.5 -43t-71 -33.5t-93 -14l-92 -225h-236l93 225h-332zM272 434h136l110 285z" />
<glyph horiz-adv-x="1751" d="M100 858q0 131 93 223.5t225 92.5q130 0 222.5 -92.5t92.5 -223.5q0 -130 -92.5 -222.5t-222.5 -92.5q-132 0 -225 92t-93 223zM205 0l969 1174h247l-970 -1174h-246zM334 858q0 -34 24.5 -59t59.5 -25q34 0 58 25t24 59t-24 58t-58 24q-35 0 -59.5 -24t-24.5 -58z M893 315q0 131 92.5 223.5t222.5 92.5t223 -92.5t93 -223.5q0 -130 -92.5 -222.5t-223.5 -92.5q-130 0 -222.5 92t-92.5 223zM1126 315q0 -34 24 -58t58 -24q35 0 59.5 24t24.5 58q0 35 -24.5 59.5t-59.5 24.5q-34 0 -58 -24.5t-24 -59.5z" />
<glyph horiz-adv-x="620" d="M-672 -428q1 54 22.5 103.5t57.5 87t75 64.5t81 46q32 16 121 55.5t114 53.5l437 1081h362l-397 -979q143 72 247.5 184.5t215.5 306.5q35 -3 71.5 -30t50.5 -58q-77 -134 -156 -234t-166 -171t-165 -117.5t-186 -97.5q-29 -72 -43 -107q-28 -69 -56.5 -125t-71.5 -114 t-90.5 -96.5t-113.5 -63.5t-141 -25q-68 0 -120.5 20t-84 54.5t-47.5 75t-17 86.5zM-504 -399q0 -24 16.5 -38t34.5 -14q36 0 80 53t92 177q-31 -20 -77.5 -44.5t-69.5 -39.5q-23 -16 -35.5 -26t-26.5 -29.5t-14 -38.5zM328 1335q0 82 56.5 138.5t139.5 56.5q80 0 139.5 -57 t59.5 -138q0 -79 -59.5 -138.5t-139.5 -59.5q-82 0 -139 58.5t-57 139.5z" />
<glyph horiz-adv-x="1200" d="M-358 -406l594 1469h360l-35 -88q43 43 115 77q82 38 164 38q66 0 116 -25.5t78.5 -68.5t42 -94t13.5 -109q0 -91 -32 -197t-80.5 -197t-86 -151t-66.5 -98q126 63 221.5 157t196.5 268q35 -3 72 -30t51 -58q-61 -108 -134.5 -196t-168 -162t-215 -115t-256.5 -41 q-76 0 -139.5 13t-100.5 31.5t-63 37.5t-35 32l-10 13l114 105q31 -43 66 -43q50 0 121 99.5t122.5 233t51.5 222.5q0 86 -64 86q-55 0 -117.5 -49t-113.5 -123l-420 -1037h-362z" />
<glyph horiz-adv-x="1224" d="M6 379q0 78 24 160.5t68.5 159t118 137.5t164.5 88q45 81 140.5 130.5t185.5 49.5q176 0 275 -117.5t99 -306.5q0 -151 -65 -311q90 23 148 74t104 132q35 -3 72 -30t51 -58q-161 -262 -473 -282q-84 -106 -204.5 -169t-271.5 -63q-209 0 -322.5 115t-113.5 291zM356 313 q0 -47 21.5 -75.5t56.5 -28.5q57 0 117 67q-116 64 -172 179q-23 -82 -23 -142zM471 1321q19 30 23.5 37t25 35.5t31 39t33 31t41.5 29t45.5 16t54.5 7.5q49 0 93 -19.5t81.5 -39t69.5 -19.5q29 0 59 18.5t51 52.5l109 -120q-21 -33 -33 -50.5t-37.5 -48t-49 -46.5 t-58.5 -29t-74 -13q-49 0 -92.5 19.5t-81 39t-70.5 19.5q-26 0 -56.5 -20t-53.5 -54zM506 645q0 -152 133 -225q41 86 66.5 180t25.5 152q0 52 -22 77t-54 25q-36 0 -65 -16q-84 -70 -84 -193z" />
<glyph horiz-adv-x="1869" d="M-195 0l431 1063h362l-43 -109q-3 -3 0 -1q1 1 4 3q182 130 348 134q101 0 154.5 -49.5t56.5 -129.5q21 19 47.5 39.5t83.5 57t130 59.5t145 23q104 0 156.5 -50.5t52.5 -134.5q0 -73 -60 -225l-90 -223q-27 -66 -42 -115t-18.5 -76.5t1 -43.5t12.5 -20.5t20 -4.5 q60 0 154.5 96.5t202.5 281.5q35 -3 72 -30t51 -58q-65 -114 -131 -202t-144 -161t-167 -112t-183 -39q-86 0 -142.5 34t-81 100t-11 170.5t66.5 238.5l12 33q5 12 13 31.5t12 30.5t10.5 28t10.5 27t8.5 23t7.5 21.5t5.5 18t3.5 16t1 11.5q0 20 -14.5 31.5t-36.5 11.5 q-41 0 -104 -37t-123 -103l-265 -659h-366q139 339 223 549q72 179 72 209q0 18 -15 29.5t-39 11.5q-39 0 -102.5 -38t-122.5 -106l-266 -655h-363z" />
<glyph horiz-adv-x="1224" d="M6 379q0 78 24 160.5t68.5 159t118 137.5t164.5 88q45 81 140.5 130.5t185.5 49.5q176 0 275 -117.5t99 -306.5q0 -151 -65 -311q90 23 148 74t104 132q35 -3 72 -30t51 -58q-161 -262 -473 -282q-84 -106 -204.5 -169t-271.5 -63q-209 0 -322.5 115t-113.5 291zM356 313 q0 -47 21.5 -75.5t56.5 -28.5q57 0 117 67q-116 64 -172 179q-23 -82 -23 -142zM506 645q0 -152 133 -225q41 86 66.5 180t25.5 152q0 52 -22 77t-54 25q-36 0 -65 -16q-84 -70 -84 -193zM549 1161l282 330h381l-381 -330h-282z" />
<glyph horiz-adv-x="1253" d="M-195 0l431 1063h362l-43 -109q-3 -3 0 -1q0 1 3 3q164 125 329 133l22 1q103 0 156 -50t53 -135q0 -75 -61 -225l-90 -223q-27 -67 -41.5 -115.5t-18 -76t1 -43.5t12.5 -20.5t21 -4.5q59 0 152.5 96.5t201.5 281.5q35 -3 72 -30t51 -58q-66 -114 -131 -201.5t-143 -161 t-166.5 -112.5t-183.5 -39q-85 0 -141.5 33.5t-81.5 99.5t-11.5 170.5t66.5 239.5l14 33q72 177 72 207q0 20 -15 31.5t-39 11.5q-39 0 -102.5 -38t-122.5 -106l-266 -655h-363z" />
<glyph horiz-adv-x="991" d="M-227 82q78 74 208 290.5t267 518.5q-33 35 -48.5 61.5t-15.5 61.5q0 75 63.5 151.5t131.5 98.5l139 -74l-59 -158q20 -16 69.5 -47t96.5 -62.5t94.5 -70t76.5 -84t29 -90.5q0 -40 -24 -103l-45 -116q-27 -67 -41 -117.5t-15.5 -77t4.5 -43t14 -20.5t17 -4q79 0 299 378 q35 -3 72 -30t51 -58q-53 -92 -96 -159t-100 -138t-110.5 -115.5t-119.5 -73t-135 -28.5q-50 0 -96.5 14.5t-86 50.5t-60 89t-12.5 138t50 190l64 159q18 46 18 74q0 15 -6.5 29t-26 33t-29 27.5t-38.5 33.5q-127 -283 -261 -511.5t-214 -299.5q-36 3 -71.5 27t-53.5 55z " />
<glyph horiz-adv-x="1202" d="M-46.5 10q-2.5 68 8.5 133t36 129h369q-40 -82 -48.5 -156.5t18 -120.5t83.5 -46q68 0 134 64.5t106 162t40 191.5q0 125 -86 125q-49 0 -102.5 -37.5t-101.5 -128.5l-328 71l317 777q487 -82 553 -82q105 0 209 82l142 -162q-20 -28 -30 -41t-35 -41.5t-45 -44 t-55 -37.5t-70.5 -33.5t-85 -20t-105.5 -8.5q-26 0 -100 8t-135 16l-60 9l-66 -164q11 8 31.5 19.5t81 31t116.5 19.5q69 0 124.5 -22.5t90 -59t57.5 -85.5t32.5 -98t9.5 -100q0 -52 -10 -110.5t-33.5 -125.5t-58.5 -129.5t-89.5 -120.5t-121.5 -101t-159.5 -69t-199.5 -26 q-112 0 -196.5 27t-132.5 73.5t-75 105t-29.5 126.5z" />
<glyph horiz-adv-x="991" d="M-227 82q78 74 208 290.5t267 518.5q-33 35 -48.5 61.5t-15.5 61.5q0 75 63.5 151.5t131.5 98.5l139 -74l-59 -158q20 -16 69.5 -47t96.5 -62.5t94.5 -70t76.5 -84t29 -90.5q0 -40 -24 -103l-45 -116q-27 -67 -41 -117.5t-15.5 -77t4.5 -43t14 -20.5t17 -4q79 0 299 378 q35 -3 72 -30t51 -58q-53 -92 -96 -159t-100 -138t-110.5 -115.5t-119.5 -73t-135 -28.5q-50 0 -96.5 14.5t-86 50.5t-60 89t-12.5 138t50 190l64 159q18 46 18 74q0 15 -6.5 29t-26 33t-29 27.5t-38.5 33.5q-127 -283 -261 -511.5t-214 -299.5q-36 3 -71.5 27t-53.5 55z M299 1311l285 329h379l-379 -329h-285z" />
<glyph horiz-adv-x="831" d="M32.5 260q7.5 50 28.5 100h244q-38 -75 -29 -135.5t60 -60.5q59 0 107.5 74.5t48.5 167.5q0 73 -50 73q-65 0 -118 -96l-220 45l205 496q314 -54 353 -54q70 0 133 54l92 -109q-45 -61 -76 -86q-79 -63 -203 -63q-16 0 -61.5 5t-82.5 10l-38 5l-37 -94q66 43 146 43 q53 0 93 -21.5t61 -57t30.5 -73t9.5 -77.5q0 -47 -11 -98.5t-41 -110.5t-75 -105.5t-120.5 -77t-170.5 -30.5q-85 0 -145 24t-89.5 62.5t-40.5 89t-3.5 100.5z" />
<glyph horiz-adv-x="991" d="M-227 82q78 74 208 290.5t267 518.5q-33 35 -48.5 61.5t-15.5 61.5q0 75 63.5 151.5t131.5 98.5l139 -74l-59 -158q20 -16 69.5 -47t96.5 -62.5t94.5 -70t76.5 -84t29 -90.5q0 -40 -24 -103l-45 -116q-27 -67 -41 -117.5t-15.5 -77t4.5 -43t14 -20.5t17 -4q79 0 299 378 q35 -3 72 -30t51 -58q-53 -92 -96 -159t-100 -138t-110.5 -115.5t-119.5 -73t-135 -28.5q-52 0 -98 14.5t-86 50.5t-59.5 89t-11.5 138t50 190l64 159q18 46 18 74q0 15 -6.5 29t-26 33t-29 27.5t-38.5 33.5q-127 -283 -261 -511.5t-214 -299.5q-36 3 -71.5 27t-53.5 55z M197 1688h258l82 -142l190 142h317l-479 -375h-188z" />
<glyph horiz-adv-x="1253" d="M-195 0l431 1063h362l-43 -109q-3 -3 0 -1q0 1 3 3q164 125 329 133l22 1q103 0 156 -50t53 -135q0 -75 -61 -225l-90 -223q-27 -67 -41.5 -115.5t-18 -76t1 -43.5t12.5 -20.5t21 -4.5q59 0 152.5 96.5t201.5 281.5q35 -3 72 -30t51 -58q-66 -114 -131 -201.5t-143 -161 t-166.5 -112.5t-183.5 -39q-85 0 -141.5 33.5t-81.5 99.5t-11.5 170.5t66.5 239.5l14 33q72 177 72 207q0 20 -15 31.5t-39 11.5q-39 0 -102.5 -38t-122.5 -106l-266 -655h-363zM471 1161l283 330h381l-381 -330h-283z" />
<glyph horiz-adv-x="1253" d="M-195 0l431 1063h362l-43 -109q-3 -3 0 -1q0 1 3 3q164 125 329 133l22 1q103 0 156 -50t53 -135q0 -75 -61 -225l-90 -223q-27 -67 -41.5 -115.5t-18 -76t1 -43.5t12.5 -20.5t21 -4.5q59 0 152.5 96.5t201.5 281.5q35 -3 72 -30t51 -58q-66 -114 -131 -201.5t-143 -161 t-166.5 -112.5t-183.5 -39q-85 0 -141.5 33.5t-81.5 99.5t-11.5 170.5t66.5 239.5l14 33q72 177 72 207q0 20 -15 31.5t-39 11.5q-39 0 -102.5 -38t-122.5 -106l-266 -655h-363zM408 1516h256l81 -142l193 142h317l-481 -375h-186z" />
<glyph horiz-adv-x="774" d="M20.5 188.5q-7.5 58.5 14.5 120.5h239q-26 -77 -25 -105q2 -40 40 -40q34 0 71 47.5t86 150.5q-59 -40 -145 -40q-54 0 -93 17.5t-60 47.5t-30.5 65t-8.5 76q2 97 53.5 191.5t143.5 157.5t198 63q24 0 47.5 -2.5t64.5 -17.5t70.5 -41t52.5 -78.5t23 -124.5 q0 -55 -13 -124t-38.5 -148t-68 -153t-95.5 -134t-128 -96.5t-159 -36.5q-70 0 -124 27.5t-81 73t-34.5 104zM340 545q0 -29 14 -46.5t39 -17.5q52 0 127 68q25 98 25 141q0 70 -45 70q-57 0 -108.5 -75t-51.5 -140z" />
<glyph horiz-adv-x="940" d="M-246 57q78 79 153 186t204 335q157 281 288 557l320 -72q-22 -137 -22.5 -278t10 -280t10.5 -186q0 -40 -6 -88q82 70 142.5 147t129.5 197q35 -3 72 -30t51 -58q-48 -87 -98 -158t-116.5 -139t-138.5 -114.5t-163.5 -74.5t-192.5 -28h-6q-244 -5 -362 140 q136 86 202 127q19 -19 48 -19q48 0 74 56.5t26 197.5q0 26 -3 133.5t-1 155.5q-108 -215 -142 -277q-79 -145 -188.5 -307.5t-165.5 -206.5q-36 3 -71.5 27.5t-53.5 56.5z" />
<glyph horiz-adv-x="1144" d="M-59 31q0 71 22 157h365q-43 -103 -43 -161q0 -78 67 -78q63 0 131.5 85t149.5 253q-113 -70 -246 -70q-84 0 -146 27t-96 74t-48.5 104t-12.5 125q3 115 53 231.5t131 210t197.5 152.5t241.5 59q25 0 50.5 -2t68 -11.5t79.5 -25.5t77.5 -47.5t69.5 -73.5t47.5 -107.5 t18.5 -146.5q0 -76 -15 -170t-48 -200.5t-79.5 -210.5t-114 -199.5t-147 -168t-183.5 -116t-218 -43.5q-172 0 -272 93t-100 260zM430 571q-2 -53 22 -84.5t70 -31.5q49 0 109 35.5t114 91.5q46 157 46 231q0 117 -82 117q-64 0 -130 -62t-106.5 -145.5t-42.5 -151.5z" />
<glyph horiz-adv-x="940" d="M-246 57q78 79 153 186t204 335q157 281 288 557l320 -72q-22 -137 -22.5 -278t10 -280t10.5 -186q0 -40 -6 -88q82 70 142.5 147t129.5 197q36 -3 72.5 -30t50.5 -58q-48 -87 -98 -158t-116.5 -139t-138.5 -114.5t-163.5 -74.5t-192.5 -28h-6q-244 -5 -362 140 q136 86 202 127q19 -19 48 -19q48 0 74 56.5t26 197.5q0 26 -3 133.5t-1 155.5q-108 -215 -142 -277q-79 -145 -188.5 -307.5t-165.5 -206.5q-36 3 -71.5 27.5t-53.5 56.5zM367 1210l284 330h379l-379 -330h-284z" />
<glyph horiz-adv-x="946" d="M16 395q120 113 234 234.5t190 215t135.5 170.5t86.5 118l28 41h354l-473 -1174h-354l207 512q-19 -19 -79.5 -82.5t-104 -106.5t-86.5 -83z" />
<glyph horiz-adv-x="940" d="M-246 57q78 79 153 186t204 335q157 281 288 557l320 -72q-22 -137 -22.5 -278t10 -280t10.5 -186q0 -40 -6 -88q82 70 142.5 147t129.5 197q36 -3 72.5 -30t50.5 -58q-48 -87 -98 -158t-116.5 -139t-138.5 -114.5t-163.5 -74.5t-192.5 -28h-6q-244 -5 -362 140 q136 86 202 127q19 -19 48 -19q48 0 74 56.5t26 197.5q0 26 -3 133.5t-1 155.5q-108 -215 -142 -277q-79 -145 -188.5 -307.5t-165.5 -206.5q-36 3 -71.5 27.5t-53.5 56.5zM287 1561h256l82 -142l190 142h318l-480 -375h-186z" />
<glyph horiz-adv-x="657" d="M59 434q118 112 222 234.5t149 189.5l45 66h236l-371 -924h-236l193 485q-16 -17 -67.5 -72t-79.5 -83z" />
<glyph horiz-adv-x="940" d="M-246 57q78 79 153 186t204 335q157 281 288 557l320 -72q-22 -137 -22.5 -278t10 -280t10.5 -186q0 -40 -6 -88q82 70 142.5 147t129.5 197q36 -3 72.5 -30t50.5 -58q-57 -103 -118.5 -184.5t-140.5 -154t-177 -117.5t-209 -56l-39 -71q56 -22 82 -53t26 -87 q0 -71 -40.5 -124t-104 -77.5t-136 -32t-142 8t-115.5 47.5l100 154q24 -12 50 -19.5t49 -9t38 7t15 27.5q0 29 -37 35.5t-94 -2.5l116 217q-129 29 -200 117q136 86 202 127q19 -19 48 -19q48 0 74 56.5t26 197.5q0 26 -3 133.5t-1 155.5q-108 -215 -142 -277 q-79 -145 -188.5 -307.5t-165.5 -206.5q-36 3 -71.5 27.5t-53.5 56.5z" />
<glyph horiz-adv-x="1232" d="M-14 338q0 165 106 298t297 179q-3 2 -10 7.5t-20.5 22.5t-24 38.5t-19 58t-8.5 78.5q0 63 17 126t59 127t105 112.5t163.5 79t225.5 30.5q97 0 172.5 -18.5t121.5 -48.5t75.5 -72.5t40.5 -85t11 -90.5q0 -134 -85 -247.5t-238 -164.5q117 -78 117 -246q0 -72 -20 -144.5 t-67.5 -146.5t-117.5 -130.5t-180.5 -92t-245.5 -35.5q-219 0 -347 91.5t-128 273.5zM350 362q0 -63 38 -92.5t91 -29.5q96 0 171 88.5t75 185.5q0 63 -34.5 95t-88.5 32q-65 0 -124.5 -43.5t-93.5 -108.5t-34 -127zM682 1026q0 -44 23.5 -69t58.5 -25q60 0 112 65.5 t52 135.5q0 43 -22 67.5t-58 24.5q-60 0 -113 -64t-53 -135z" />
<glyph horiz-adv-x="831" d="M8 215q0 104 66 185.5t184 111.5q-3 0 -13 11t-22 42t-12 72q0 40 10 79.5t36 81t65 72t104 50.5t147 20q78 0 133 -18t83.5 -48.5t40.5 -63.5t12 -71q0 -85 -53 -154.5t-148 -101.5l8 -6q8 -6 18 -17t20 -27t17 -42.5t7 -58.5q0 -46 -12 -91.5t-42 -92.5t-74.5 -83 t-115 -58.5t-158.5 -22.5q-143 0 -222 58t-79 173zM252 233q0 -37 21.5 -54t52.5 -17q53 0 96 51.5t43 108.5q0 38 -20 57.5t-50 19.5q-53 0 -98 -53.5t-45 -112.5zM459 645q0 -25 12.5 -39t32.5 -14q31 0 60.5 35t29.5 75q0 27 -12 42.5t-31 15.5q-32 0 -62 -36t-30 -79z " />
<glyph horiz-adv-x="714" d="M45 0q28 71 72 147t103 158t102.5 138t114 143t93.5 116q-1 0 -14.5 -2t-28.5 -2t-104 13l-61 -150h-234l145 363q322 -54 363 -54q66 0 133 54l84 -101q-9 -13 -58 -81t-79 -111t-85 -127t-96.5 -154t-91.5 -164.5t-90 -185.5h-268z" />
</font>
</defs>
</svg>
