<?xml version="1.0" standalone="no"?>
<!DOCTYPE svg PUBLIC "-//W3C//DTD SVG 1.1//EN" "http://www.w3.org/Graphics/SVG/1.1/DTD/svg11.dtd" >
<svg xmlns="http://www.w3.org/2000/svg">
<metadata></metadata>
<defs>
<font id="thirsty_scriptextrabold" horiz-adv-x="1218" >
<font-face units-per-em="2048" ascent="1638" descent="-410" />
<missing-glyph horiz-adv-x="512" />
<glyph unicode="Br" horiz-adv-x="2832" d="M-59 244q0 55 19.5 108.5t59.5 102.5t112.5 79.5t166.5 30.5q76 0 143 -23t154 -77q35 67 68 149l198 494q49 120 155.5 208.5t248.5 88.5l59 -176q-4 -1 -11 -4.5t-27.5 -17.5t-40 -33.5t-44 -55.5t-43.5 -80l-24 -61q52 -14 106.5 -15t106 19t92 51t65.5 81.5t25 109.5 q0 115 -90 192.5t-260 77.5q-120 0 -222 -42.5t-165.5 -109t-98.5 -142t-35 -146.5q0 -42 12 -88.5t24 -72.5l12 -26l-218 -161q-4 6 -10 16.5t-22.5 46t-29 72.5t-22.5 93t-10 111q0 108 35 211t104 192t163.5 156t221.5 105.5t269 38.5q144 0 264 -40.5t200.5 -110.5 t124.5 -165t44 -204q0 -68 -17 -127t-44.5 -99t-61 -72.5t-67 -51.5t-61 -32t-44.5 -17l-17 -5q8 -5 21 -16t45.5 -48.5t58 -80.5t46 -113.5t20.5 -146.5q0 -75 -18.5 -149.5t-58 -144t-95.5 -122.5t-137 -85t-177 -32q-127 0 -248 55.5t-266 165.5q-172 -182 -397 -182 q-90 0 -161.5 29t-114 76t-64.5 102.5t-22 112.5zM184 262q0 -40 32.5 -62t76.5 -22q93 0 184 105q-99 71 -174 71q-55 0 -87 -26.5t-32 -65.5zM840 295q168 -125 303 -125q62 0 112 23.5t79.5 61.5t45 83t15.5 92q0 17 -2 34.5t-10 47t-22 56t-40 58t-60.5 57.5t-88 49.5 t-119.5 37.5q-84 -206 -113 -270q-44 -104 -100 -205zM1647 82q78 75 208.5 292t268.5 523q-32 34 -48 62t-16 63q0 74 62.5 147t130.5 95l133 -74l-66 -164q20 -18 66.5 -48.5t89 -60.5t85.5 -66.5t69 -80t26 -86.5q0 -39 -24 -102l-58 -146q-27 -67 -40.5 -117.5 t-14.5 -77t6 -43t15 -20.5t18 -4q42 0 118.5 96.5t194.5 298.5q33 -3 68 -28t47 -54q-54 -93 -96.5 -159t-99 -138t-108 -116t-115 -72.5t-128.5 -28.5q-51 0 -95 15t-80 51t-53 89.5t-6.5 138t52.5 188.5l65 166q19 49 19 71q0 15 -6 28.5t-24 32.5t-28.5 28t-41.5 36 q-132 -288 -267 -517t-215 -300q-32 3 -66 28t-46 54z" />
<glyph unicode="Dr" horiz-adv-x="2969" d="M-61 242q0 43 12 87t39 87t66.5 75.5t99.5 53t133 20.5q84 0 167.5 -30.5t186.5 -100.5q35 59 70 144l196 485q48 120 156 208.5t250 88.5l59 -174q-4 -2 -11.5 -6t-29.5 -20t-41.5 -35.5t-43 -55t-40.5 -76.5q-202 -497 -202 -499q-45 -119 -123 -240q141 -104 264 -104 q91 0 176.5 49t150.5 132.5t114 188t74.5 220t25.5 225.5q0 106 -26 194t-79.5 156.5t-143 106.5t-208.5 38q-103 0 -193 -29t-152 -77t-107 -109t-66 -124.5t-21 -123.5q0 -44 12 -91t24 -72l11 -25l-217 -162q-4 6 -10 16t-22.5 45t-29 72.5t-22.5 94.5t-10 114 q0 110 33.5 215t102.5 197t165.5 161.5t231 109.5t290.5 40q185 0 330.5 -55.5t239 -155.5t142 -237t48.5 -303q0 -117 -24 -240.5t-70 -244t-119 -227t-164.5 -188t-213 -129t-257.5 -47.5q-71 0 -130 12.5t-112.5 40.5t-95 57.5t-98.5 78.5q-173 -150 -405 -150 q-104 0 -182.5 30.5t-120 79.5t-61 101.5t-19.5 106.5zM182 260q0 -41 33 -61.5t88 -20.5q106 0 201 82q-122 94 -203 94q-56 0 -87.5 -27.5t-31.5 -66.5zM1784 82q78 75 208.5 292t268.5 523q-63 66 -63 125q0 74 62 147t130 95l133 -74l-65 -164q21 -19 86 -62.5 t115 -79.5t92 -91.5t42 -108.5q0 -39 -24 -102l-57 -146q-27 -67 -40.5 -117.5t-15 -77t5.5 -43t15 -20.5t18 -4q82 0 314 395q32 -3 67 -28t47 -54q-54 -93 -96.5 -159t-99 -138t-108 -116t-115 -72.5t-128.5 -28.5q-51 0 -95 15t-80 51t-53 89.5t-6.5 138t52.5 188.5 l66 166q18 46 18 71q0 15 -6 28.5t-24 32.5t-28.5 28t-41.5 36q-132 -288 -267 -517t-215 -300q-32 3 -66 28t-46 54z" />
<glyph unicode="Er" horiz-adv-x="2369" d="M0 381q0 134 53.5 252.5t140 197.5t198 120t224.5 30q-20 55 -20 143q0 165 80 301q-60 170 -51 373l209 -29q-3 -85 12 -159q150 102 332 102q100 0 178 -30t123 -80.5t67.5 -108.5t22.5 -121q0 -145 -107 -249.5t-284 -104.5q-166 0 -291 98q1 -49 13 -94t27 -74.5 t33 -54t29 -35t17 -14.5l-156 -232q-4 3 -11.5 9t-32 20.5t-51 25.5t-67.5 20t-82 9q-132 0 -212.5 -84.5t-80.5 -222.5q0 -137 81 -230t218 -93q69 0 129 26.5t99.5 72t62 102t21 120.5t-26.5 123l272 78q57 -171 30.5 -318.5t-109 -256.5t-211.5 -171.5t-277 -62.5 q-129 0 -242 47.5t-191.5 128.5t-123.5 192t-45 234zM963 1348q87 -93 196 -93q55 0 94 23.5t39 64.5q0 40 -38 65.5t-97 25.5q-114 0 -194 -86zM1184 82q78 75 208.5 292t268.5 523q-32 34 -48 62t-16 63q0 74 62.5 147t130.5 95l133 -74l-65 -164q21 -19 86 -62.5 t115 -79.5t92 -91.5t42 -108.5q0 -39 -24 -102l-58 -146q-27 -67 -40.5 -117.5t-14.5 -77t6 -43t15 -20.5t18 -4q42 0 118.5 96.5t194.5 298.5q33 -3 68 -28t47 -54q-54 -93 -96.5 -159t-99 -138t-108 -116t-115 -72.5t-128.5 -28.5q-51 0 -95 15t-80 51t-53 89.5t-6.5 138 t52.5 188.5l66 166q18 46 18 71q0 15 -6 28.5t-24 32.5t-28.5 28t-41.5 36q-132 -288 -267 -517t-215 -300q-32 3 -66 28t-46 54z" />
<glyph unicode="Fr" horiz-adv-x="2484" d="M0 258q0 95 36 180t100 147.5t161 95.5t211 24v-271q-55 4 -97.5 -6.5t-66.5 -28.5t-39.5 -44t-20.5 -49.5t-5 -47.5q0 -84 59 -137t137 -53q131 0 235.5 117.5t198.5 340.5l64 162h-182l67 164h182l183 453q-105 8 -313.5 58t-291.5 50q-106 0 -157 -46t-51 -110 q0 -58 38.5 -89t90.5 -31q37 0 73 15.5t53 30.5l17 15l131 -199q-5 -5 -13.5 -12.5t-37.5 -26.5t-61 -34t-81.5 -27t-99.5 -12q-98 0 -182 40.5t-139.5 125.5t-55.5 198q0 81 28.5 153.5t84 131.5t147.5 94t209 35q87 0 202.5 -21.5t202 -44.5t194.5 -36.5t180 2.5 q53 46 121.5 72t138.5 26l59 -176q-4 -2 -11.5 -5.5t-29 -18.5t-41 -34.5t-43.5 -55t-41 -77.5l-178 -444h186l-65 -164h-189l-131 -328q-225 -563 -665 -563q-124 0 -222 39t-158 105t-91 147t-31 170zM1298 82q78 75 209 292t269 523q-32 34 -48 62t-16 63q0 74 62.5 147 t130.5 95l133 -74l-66 -164q20 -18 66.5 -48.5t89 -60.5t85.5 -66.5t69 -80t26 -86.5q0 -39 -24 -102l-58 -146q-27 -67 -40.5 -117.5t-14.5 -77t6 -43t15 -20.5t18 -4q42 0 118.5 96.5t194.5 298.5q33 -3 68 -28t47 -54q-54 -93 -96.5 -159t-99 -138t-108 -116t-115 -72.5 t-128.5 -28.5q-51 0 -95 15t-80 51t-53 89.5t-6.5 138t52.5 188.5l65 166q19 49 19 71q0 19 -16.5 42t-30 35.5t-54.5 47.5q-132 -289 -266.5 -517.5t-214.5 -299.5q-32 3 -66.5 28t-46.5 54z" />
<glyph unicode="Es" horiz-adv-x="2312" d="M0 381q0 134 53.5 252.5t140 197.5t198 120t224.5 30q-20 55 -20 143q0 165 80 301q-60 170 -51 373l209 -29q-3 -85 12 -159q150 102 332 102q100 0 178 -30t123 -80.5t67.5 -108.5t22.5 -121q0 -145 -107 -249.5t-284 -104.5q-166 0 -291 98q1 -49 13 -94t27 -74.5 t33 -54t29 -35t17 -14.5l-156 -232q-4 3 -11.5 9t-32 20.5t-51 25.5t-67.5 20t-82 9q-132 0 -212.5 -84.5t-80.5 -222.5q0 -137 81 -230t218 -93q69 0 129 26.5t99.5 72t62 102t21 120.5t-26.5 123l272 78q57 -171 30.5 -318.5t-109 -256.5t-211.5 -171.5t-277 -62.5 q-129 0 -242 47.5t-191.5 128.5t-123.5 192t-45 234zM963 1348q87 -93 196 -93q55 0 94 23.5t39 64.5q0 40 -38 65.5t-97 25.5q-114 0 -194 -86zM1157 57q72 72 151 185t201 329q151 267 293 564l283 -72q-25 -135 -26.5 -277.5t8.5 -285.5t10 -181q0 -60 -11 -106 q80 63 147 147.5t138 208.5q33 -3 68 -28t47 -54q-49 -88 -97 -157.5t-113 -138.5t-134.5 -115t-159.5 -74.5t-190 -28.5q-32 0 -70 5t-90.5 18.5t-102.5 43.5t-84 73q115 71 181 112q25 -28 63 -28q53 0 80 56t27 198q0 25 -3 142.5t-1 176.5q-113 -219 -148 -283 q-92 -165 -195.5 -317t-158.5 -197q-32 3 -66.5 29t-46.5 55z" />
<glyph unicode="Ir" horiz-adv-x="2295" d="M-125 258q0 96 36.5 181.5t101 147.5t161 94.5t209.5 23.5v-271q-68 5 -116.5 -11t-71 -46t-32 -58.5t-9.5 -58.5q0 -79 60 -135.5t146 -56.5q136 0 244 118t199 340l297 738h-1l-1 -1h-1h-1l-1 -1h-1h-1l-1 -1h-1h-1h-1l-1 -1h-1h-1l-1 -1h-1h-1l-1 -1h-1h-1l-1 -1h-1 h-1l-1 -1h-1h-1q-231 -73 -314 -115q-149 -77 -150 -180q0 -65 46.5 -94t97.5 -29v-267q-187 0 -303.5 105.5t-114.5 271.5q0 59 14.5 111.5t39 94.5t64 80.5t81 67.5t100.5 58t111.5 50.5t124 46t129 42.5t135.5 43t135 45q130 137 299 137l59 -176q-4 -2 -11.5 -5.5 t-29 -18.5t-41 -34.5t-43.5 -54.5t-41 -77l-401 -998q-53 -135 -122 -237.5t-137.5 -163t-147 -98.5t-144.5 -51t-137 -13q-121 0 -218.5 39t-157 105t-91 147t-31.5 170zM1110 82q78 75 208.5 292t268.5 523q-63 66 -63 125q0 74 62 147t130 95l133 -74l-65 -164 q20 -18 66.5 -48.5t89 -60.5t85.5 -66.5t69 -80t26 -86.5q0 -37 -25 -102l-57 -146q-27 -67 -40.5 -117.5t-15 -77t5.5 -43t15 -20.5t18 -4q82 0 314 395q32 -3 67 -28t47 -54q-54 -94 -96.5 -159.5t-98.5 -137.5t-107.5 -116t-115 -72.5t-128.5 -28.5q-51 0 -95 15 t-80.5 51t-53 89.5t-6.5 138t52 188.5l66 166q18 46 18 71q0 15 -6 28.5t-24 32.5t-28.5 28t-41.5 36q-132 -289 -266.5 -517.5t-214.5 -299.5q-32 3 -66.5 28t-46.5 54z" />
<glyph unicode="Is" horiz-adv-x="2236" d="M-125 258q0 96 36.5 181.5t101 147.5t161 94.5t209.5 23.5v-271q-68 5 -116.5 -11t-71 -46t-32 -58.5t-9.5 -58.5q0 -79 60 -135.5t146 -56.5q136 0 244 118t199 340l297 738h-1l-1 -1h-1h-1l-1 -1h-1h-1l-1 -1h-1h-1h-1l-1 -1h-1h-1l-1 -1h-1h-1l-1 -1h-1h-1l-1 -1h-1 h-1l-1 -1h-1h-1q-231 -73 -314 -115q-149 -77 -150 -180q0 -65 46.5 -94t97.5 -29v-267q-187 0 -303.5 105.5t-114.5 271.5q0 59 14.5 111.5t39 94.5t64 80.5t81 67.5t100.5 58t111.5 50.5t124 46t129 42.5t135.5 43t135 45q130 137 299 137l59 -176q-4 -2 -11.5 -5.5 t-29 -18.5t-41 -34.5t-43.5 -54.5t-41 -77l-401 -998q-53 -135 -122 -237.5t-137.5 -163t-147 -98.5t-144.5 -51t-137 -13q-121 0 -218.5 39t-157 105t-91 147t-31.5 170zM1081 57q72 72 152 185t201 329q145 256 292 564l283 -72q-25 -135 -26.5 -277.5t8.5 -285.5t10 -181 q0 -64 -10 -106q79 63 146 147.5t138 208.5q33 -3 68 -28t47 -54q-49 -88 -97 -157.5t-113 -138.5t-134.5 -115t-159.5 -74.5t-190 -28.5q-32 0 -70 5t-90 18.5t-102 43.5t-84 73q114 71 180 112q25 -28 63 -28q53 0 80 56t27 198q0 25 -3 142.5t-1 176.5 q-113 -219 -148 -283q-92 -165 -195.5 -317t-158.5 -197q-32 3 -66.5 29t-46.5 55z" />
<glyph unicode="Wr" horiz-adv-x="3205" d="M0 844q0 59 14.5 111.5t39 94.5t64.5 80t81.5 67t100.5 58t112 50t124.5 45.5t129 42.5t135.5 43t135 45q61 81 147 131.5t189 50.5l59 -176q-4 -2 -11.5 -5.5t-29 -19t-41 -35t-43.5 -55t-41 -78.5l-331 -827q-28 -69 -43 -119t-18.5 -78t1.5 -44.5t14 -21.5t23 -5 q73 0 175 120.5t181 296.5l353 871h327l-411 -1020q-28 -69 -43 -119t-18.5 -78t1.5 -44.5t14 -21.5t23 -5q74 0 177 122.5t179 296.5l299 738q158 389 605 301l-54 -232q-56 4 -99.5 3t-84.5 -39t-76 -121l-286 -713q-37 -92 -81.5 -175.5t-108.5 -169t-134.5 -147 t-162 -100.5t-189.5 -39q-73 0 -127 21t-81.5 55.5t-39.5 71t-10 73.5q-33 -37 -74.5 -72t-96.5 -70.5t-122.5 -57t-134.5 -21.5q-73 0 -126.5 25t-86 76t-40.5 124.5t12.5 176t70.5 225.5l247 614q-237 -75 -307 -105q-170 -72 -200 -160q-7 -23 -7 -46q0 -65 46.5 -94 t97.5 -29v-266q-187 0 -303.5 106.5t-114.5 272.5zM2019 82q78 75 209 292t269 523q-32 34 -48 62t-16 63q0 74 62.5 147t130.5 95l133 -74l-66 -164q20 -18 66.5 -48.5t89 -60.5t85.5 -66.5t69 -80t26 -86.5q0 -37 -25 -102l-57 -146q-27 -67 -40.5 -117.5t-14.5 -77t6 -43 t15 -20.5t18 -4q42 0 118.5 96.5t194.5 298.5q33 -3 68 -28t47 -54q-54 -93 -96.5 -159t-99 -138t-108 -116t-115 -72.5t-128.5 -28.5q-51 0 -95 15t-80 51t-53 89.5t-6.5 138t52.5 188.5l65 166q19 49 19 71q0 19 -16.5 42t-30 35.5t-54.5 47.5q-132 -289 -266.5 -517.5 t-214.5 -299.5q-32 3 -66.5 28t-46.5 54z" />
<glyph unicode="Wi" horiz-adv-x="2869" d="M0 844q0 59 14.5 111.5t39 94.5t64.5 80t81.5 67t100.5 58t112 50t124.5 45.5t129 42.5t135.5 43t135 45q61 81 147 131.5t189 50.5l59 -176q-4 -2 -11.5 -5.5t-29 -19t-41 -35t-43.5 -55t-41 -78.5q-329 -819 -331 -827q-28 -69 -43 -119t-18.5 -78t1.5 -44.5t14 -21.5 t23 -5q73 0 175 120.5t181 296.5l353 871h327l-411 -1020q-28 -69 -43 -119t-18.5 -78t1.5 -44.5t14 -21.5t23 -5q74 0 177 122.5t179 296.5l299 738q22 56 53.5 106.5t78 101t112.5 80t142 29.5q96 0 180 -42t172 -120q58 -14 96.5 -62t38.5 -110q0 -72 -54 -126t-126 -54 q-83 0 -134.5 63t-41.5 152q-64 48 -123.5 22t-102.5 -128l-286 -713q-37 -92 -81.5 -175.5t-108.5 -169t-134.5 -147t-162 -100.5t-189.5 -39q-73 0 -127 21t-81.5 55.5t-39.5 71t-10 73.5q-33 -37 -74.5 -72t-96.5 -70.5t-122.5 -57t-134.5 -21.5q-73 0 -126.5 25t-86 76 t-40.5 124.5t12.5 176t70.5 225.5l247 614q-237 -75 -307 -105q-170 -72 -200 -160q-7 -23 -7 -46q0 -65 46.5 -94t97.5 -29v-266q-187 0 -303.5 106.5t-114.5 272.5zM2198 149q-13 59 1 147t58 196l231 571h326l-254 -627q-26 -66 -40.5 -115.5t-17.5 -77t2.5 -43.5t14 -21 t21.5 -5q63 0 162 105t206 290q33 -3 68 -28t47 -54q-294 -514 -598 -514q-57 0 -103 18t-78.5 58.5t-45.5 99.5z" />
<glyph unicode="Wh" horiz-adv-x="3469" d="M0 844q0 59 14.5 111.5t39 94.5t64.5 80t81.5 67t100.5 58t112 50t124.5 45.5t129 42.5t135.5 43t135 45q61 81 147 131.5t189 50.5l59 -176q-4 -2 -11.5 -5.5t-29 -19t-41 -35t-43.5 -55t-41 -78.5l-331 -827q-28 -69 -43 -119t-18.5 -78t1.5 -44.5t14 -21.5t23 -5 q73 0 175 120.5t181 296.5l353 871h327l-411 -1020q-28 -69 -43 -119t-18.5 -78t1.5 -44.5t14 -21.5t23 -5q74 0 177 122.5t179 296.5q30 73 299 738q128 317 412 317q126 0 249 -47.5t267 -157.5l-207 -514q6 6 17.5 15t48 32.5t74 41.5t91.5 32.5t105 14.5q95 0 146 -48 t51 -131q0 -78 -62 -231l-100 -244q-27 -68 -41 -117.5t-17 -76.5t3 -43t14.5 -20.5t20.5 -4.5q63 0 162 105t206 290q33 -3 68 -28t47 -54q-66 -115 -131 -203t-141 -161t-161 -111.5t-175 -38.5q-81 0 -134 32.5t-76.5 96.5t-10 165.5t66.5 232.5l31 75q8 21 22 56.5 t20.5 53t14.5 39.5t11 35.5t3 22.5q0 21 -15 33t-40 12q-40 0 -104.5 -38t-124.5 -107l-277 -682h-325l557 1376q-190 91 -275 -108l-286 -713q-37 -92 -81.5 -175.5t-108.5 -169t-134.5 -147t-162 -100.5t-189.5 -39q-73 0 -127 21t-81.5 55.5t-39.5 71t-10 73.5 q-33 -37 -74.5 -72t-96.5 -70.5t-122.5 -57t-134.5 -21.5q-73 0 -126.5 25t-86 76t-40.5 124.5t12.5 176t70.5 225.5l247 614q-237 -75 -307 -105q-170 -72 -200 -160q-7 -23 -7 -46q0 -65 46.5 -94t97.5 -29v-266q-187 0 -303.5 106.5t-114.5 272.5z" />
<glyph unicode="Vs" horiz-adv-x="2623" d="M0 844q0 59 14.5 111t38 93.5t63 79.5t80.5 67t99 58t110 49.5t122.5 45.5t127.5 42.5t134 42.5t133 44q53 81 142.5 133.5t213.5 52.5l59 -176q-6 -1 -15.5 -4t-35 -17t-48 -34t-46 -60t-35.5 -90l-203 -928q126 97 232.5 213.5t181 235t131.5 237t92.5 235t55.5 212 t28 184.5l303 41q-5 -66 -13.5 -130t-28 -161t-46.5 -188.5t-73 -205t-103.5 -217.5t-141 -219.5t-183 -218.5t-233 -207.5t-286.5 -191.5h-317l266 1203q-246 -79 -289 -96q-188 -71 -236 -152q-20 -35 -20 -74q0 -65 46.5 -94t97.5 -29v-266q-187 0 -303.5 106.5 t-114.5 272.5zM1468 57q72 72 152 185t201 329q151 267 293 564l282 -72q-25 -135 -26.5 -277.5t8.5 -285.5t10 -181q0 -64 -10 -106q79 63 146 147.5t138 208.5q33 -3 68 -28t47 -54q-49 -88 -97 -157.5t-113 -138.5t-134.5 -115t-159.5 -74.5t-190 -28.5q-32 0 -70 5 t-90 18.5t-102 43.5t-84 73q114 71 180 112q25 -28 63 -28q53 0 80 56t27 198q0 25 -3 142.5t-1 176.5q-113 -219 -148 -283q-92 -165 -195.5 -317t-158.5 -197q-32 3 -66.5 29t-46.5 55z" />
<glyph unicode="Tr" horiz-adv-x="2381" d="M0 367q0 94 35 178t98.5 147t161 96.5t213.5 24.5v-270q-68 5 -116.5 -11t-71 -46t-32 -59.5t-9.5 -61.5q0 -85 59 -137t141 -52q137 0 235.5 113t194.5 346l285 704q-23 5 -88 19.5t-91 20t-82.5 17.5t-85 17.5t-74.5 13.5t-75 11.5t-61.5 6.5t-58.5 3 q-102 0 -153.5 -37.5t-51.5 -97.5q0 -56 40.5 -87.5t92.5 -31.5q36 0 71 15t53 31l17 15l131 -198q-5 -5 -13.5 -12.5t-37.5 -27t-60.5 -34.5t-81 -27t-100.5 -12q-99 0 -183 40.5t-138.5 126.5t-54.5 202q0 63 16.5 121t54 111t92.5 92t138.5 62t185.5 23q111 0 279 -29.5 t314 -64.5t316 -64.5t285 -29.5q84 0 146 15t82 29l20 15l170 -94q-1 -5 -3 -13.5t-12.5 -33t-26.5 -46.5t-47.5 -49.5t-71.5 -47.5t-102.5 -34t-136.5 -15l127 -70l-65 -164q20 -18 66.5 -48.5t89 -60.5t85.5 -66.5t69 -80t26 -86.5q0 -37 -25 -102l-57 -146 q-27 -67 -40.5 -117.5t-15 -77t5.5 -43t15 -20.5t18 -4q82 0 314 395q32 -3 67 -28t47 -54q-54 -94 -96.5 -159.5t-98.5 -137.5t-107.5 -116t-115 -72.5t-128.5 -28.5q-51 0 -95 15t-80.5 51t-53 89.5t-6.5 138t52 188.5l66 166q18 46 18 71q0 15 -6 28.5t-24 32.5t-28.5 28 t-41.5 36q-132 -289 -266.5 -517.5t-214.5 -299.5q-32 3 -66.5 28t-46.5 54q78 75 208.5 292t268.5 523q-63 66 -63 125q0 70 57 140.5t123 97.5q-156 0 -291 22l-330 -813q-223 -563 -669 -563q-98 0 -181 26t-141 70t-99 103t-60 125.5t-19 136.5z" />
<glyph unicode="Ti" horiz-adv-x="2019" d="M0 367q0 95 36 180t100.5 147.5t161.5 95t210 23.5v-270q-55 4 -97.5 -6.5t-66.5 -28.5t-39.5 -44t-20.5 -49.5t-5 -47.5q0 -86 59 -138.5t141 -52.5q71 0 131 30t111.5 93t95 142.5t90.5 193.5l281 698q-37 9 -138 32.5t-146 33t-117 24t-122 20t-92 5.5 q-52 0 -90.5 -10.5t-59 -25t-32.5 -34.5t-15 -34t-3 -29q0 -53 38 -89t95 -36q36 0 71 16.5t53 32.5l17 16l131 -198q-4 -5 -12 -12.5t-36 -27t-58.5 -34.5t-79 -27t-98.5 -12q-58 0 -113 15t-104.5 45.5t-86.5 74t-59 104.5t-22 132q0 79 27.5 149t82.5 129t150.5 94 t220.5 35q116 0 283 -32.5t310 -72t315 -72t298 -32.5q11 62 61 104t115 42q74 0 127 -52.5t53 -133.5q0 -14 -0.5 -22t-6 -36t-16.5 -47t-36 -46t-59 -43.5t-90.5 -29t-126.5 -12.5q-123 0 -326 33l-322 -801q-228 -563 -671 -563q-121 0 -218.5 39t-157 105t-91 147 t-31.5 170zM1347.5 149q-12.5 59 1.5 147t58 196l231 571h326l-254 -627q-26 -66 -40.5 -115.5t-17.5 -77t2.5 -43.5t14 -21t21.5 -5q63 0 161 104.5t207 290.5q33 -3 68 -28t47 -54q-63 -109 -128.5 -197.5t-141 -162t-160 -114t-168.5 -40.5q-57 0 -103.5 18t-79 58.5 t-45 99.5z" />
<glyph unicode="Sr" horiz-adv-x="2433" d="M-92 -485q-46 263 168 546q-117 158 -117 375q0 115 34.5 215.5t93 172.5t138 122t167 69t183 7t183.5 -57l-99 -248q-62 31 -123.5 35t-112 -17.5t-90 -61.5t-61.5 -98.5t-22 -125.5q0 -95 39 -166q100 94 643 583q-53 236 -53 383q0 224 112.5 356t296.5 132 q66 0 120.5 -19t90.5 -50t61.5 -71.5t36.5 -84t11 -87.5q0 -71 -27.5 -144t-83.5 -148.5t-110.5 -135.5t-137.5 -141q45 -229 45 -369q0 -202 -89 -355.5t-243 -234.5t-348 -81q-207 0 -374 98q-80 -95 -110 -189t-9 -210h-213zM457 131q65 -33 153 -33q166 0 272.5 116.5 t106.5 289.5q0 17 -3.5 52t-4.5 50q-100 -93 -524 -475zM1180 1278q0 -65 16 -156q82 85 119 147.5t37 116.5q0 76 -66 76q-35 0 -58.5 -21t-32.5 -55t-12 -58t-3 -50zM1247 82q78 75 208.5 292t268.5 523q-63 66 -63 125q0 74 62 147t130 95l134 -74l-66 -164 q20 -18 66.5 -48.5t89 -60.5t85.5 -66.5t69 -80t26 -86.5q0 -37 -25 -102l-57 -146q-27 -67 -40.5 -117.5t-14.5 -77t6 -43t15 -20.5t18 -4q42 0 118.5 96.5t194.5 298.5q33 -3 68 -28t47 -54q-54 -93 -96.5 -159t-99 -138t-108 -116t-115 -72.5t-128.5 -28.5q-51 0 -95 15 t-80 51t-53 89.5t-6.5 138t52.5 188.5l65 166q19 49 19 71q0 19 -16.5 42t-30 35.5t-54.5 47.5q-132 -289 -266.5 -517.5t-214.5 -299.5q-32 3 -66.5 28t-46.5 54z" />
<glyph unicode="Ps" horiz-adv-x="2340" d="M-6 1014q0 65 14.5 133.5t46.5 140.5t78 138.5t114.5 125t150.5 102t191 68.5t232 25q146 0 267.5 -36t203.5 -96.5t138.5 -142t82 -170.5t25.5 -184q0 -160 -71.5 -304t-198 -237t-301 -114t-381.5 63l-221 -553h-326l457 1135q22 55 59 106t87.5 95t117.5 70t141 26 l60 -176q-4 -2 -11.5 -5.5t-29 -19.5t-41 -35.5t-43.5 -54.5t-41 -76l-125 -305q71 -39 150.5 -42.5t150.5 28.5t129 87t92.5 136.5t34.5 173.5q0 53 -11.5 103t-41 101t-74 88.5t-116.5 61t-163 23.5q-105 0 -197.5 -30t-157 -79.5t-111 -111.5t-69 -127.5t-22.5 -126.5 q0 -44 12 -91t24 -73l11 -25l-217 -161q-4 6 -11 17.5t-24 48.5t-30 75t-24 94.5t-11 110.5zM1186 57q72 72 151 185t201 329q151 267 293 564l283 -72q-25 -135 -27 -277.5t8 -286t10 -180.5q0 -64 -10 -106q80 63 147 147.5t138 208.5q32 -3 67 -28t47 -54 q-49 -88 -97 -157.5t-113 -138.5t-134.5 -115t-159.5 -74.5t-190 -28.5q-32 0 -70 5t-90 18.5t-102 43.5t-84 73q114 71 180 112q25 -28 64 -28q53 0 79.5 56t26.5 198q0 25 -3 142.5t-1 176.5q-124 -242 -147 -283q-92 -164 -196 -316t-159 -198q-32 3 -66 28.5t-46 55.5z " />
<glyph unicode="Pr" horiz-adv-x="2390" d="M-6 1014q0 65 14.5 133.5t46.5 140.5t78 138.5t114.5 125t150.5 102t191 68.5t232 25q146 0 267.5 -36t203.5 -96.5t138.5 -142t82 -170.5t25.5 -184q0 -160 -71.5 -304t-198 -237t-301 -114t-381.5 63l-221 -553h-326l457 1135q22 55 59 106t87.5 95t117.5 70t141 26 l60 -176q-4 -2 -11.5 -5.5t-29 -19.5t-41 -35.5t-43.5 -54.5t-41 -76l-125 -305q71 -39 150.5 -42.5t150.5 28.5t129 87t92.5 136.5t34.5 173.5q0 53 -11.5 103t-41 101t-74 88.5t-116.5 61t-163 23.5q-105 0 -197.5 -30t-157 -79.5t-111 -111.5t-69 -127.5t-22.5 -126.5 q0 -44 12 -91t24 -73l11 -25l-217 -161q-4 6 -11 17.5t-24 48.5t-30 75t-24 94.5t-11 110.5zM1204 82q78 75 208.5 292t268.5 523q-63 66 -63 125q0 74 62 147t130 95l134 -74l-66 -164q20 -18 66.5 -48.5t89 -60.5t85.5 -66.5t69 -80t26 -86.5q0 -37 -25 -102l-57 -146 q-27 -67 -40.5 -117.5t-14.5 -77t6 -43t15 -20.5t18 -4q42 0 118.5 96.5t194.5 298.5q33 -3 68 -28t47 -54q-54 -93 -96.5 -159t-99 -138t-108 -116t-115 -72.5t-128.5 -28.5q-51 0 -95 15t-80 51t-53 89.5t-6.5 138t52.5 188.5l65 166q18 46 18 71q0 15 -6 28.5t-24 32.5 t-28.5 28t-41.5 36q-132 -289 -266.5 -517.5t-214.5 -299.5q-32 3 -66.5 28t-46.5 54z" />
<glyph unicode="Ms" horiz-adv-x="3276" d="M0 915q0 77 25 143t65 115t105 93t130.5 75t156.5 64t168 57t180 57.5t178 61.5l258 -164q85 68 184 107t176 39q92 0 147 -57t58 -144q99 97 217 149t205 52q96 0 149.5 -60.5t53.5 -152.5q0 -94 -76 -285l-428 -1061q-17 -48 -22.5 -82t1 -66t31 -57.5t68.5 -48.5 l-101 -248q-116 39 -190 99.5t-102.5 135t-24.5 155.5t37 171l354 879q94 227 94 270q0 48 -53 48q-52 0 -134 -51t-157 -136l-440 -1100h-326l389 969q94 227 94 270q0 48 -55 48q-48 0 -125.5 -47.5t-154.5 -125.5l-447 -1114h-326l521 1295q-41 -14 -103 -33.5 t-101.5 -32t-92.5 -30.5t-87 -32.5t-74 -33t-64 -37t-45.5 -41t-31.5 -47.5t-10 -53q0 -65 46.5 -94t97.5 -29v-266q-187 0 -303.5 105t-114.5 271zM2122 57q72 72 151 185t201 329q151 267 293 564l282 -72q-25 -135 -26.5 -277.5t8.5 -285.5t10 -181q0 -64 -10 -106 q80 63 147 147.5t138 208.5q32 -3 67 -28t47 -54q-49 -88 -97 -157.5t-113 -138.5t-134.5 -115t-159.5 -74.5t-190 -28.5q-32 0 -70 5t-90 18.5t-102 43.5t-84 73q114 71 180 112q25 -28 64 -28q53 0 79.5 56t26.5 198q0 25 -3 142.5t-1 176.5q-124 -242 -147 -283 q-92 -164 -196 -316t-159 -198q-32 3 -66 28.5t-46 55.5z" />
<glyph unicode="Mr" horiz-adv-x="3325" d="M0 915q0 77 25 143t65 115t105 93t130.5 75t156.5 64t168 57t180 57.5t178 61.5l258 -164q85 68 184 107t176 39q92 0 147 -57t58 -144q99 97 217 149t205 52q96 0 149.5 -60.5t53.5 -152.5q0 -94 -76 -285l-428 -1061q-17 -48 -22.5 -82t1 -66t31 -57.5t68.5 -48.5 l-101 -248q-116 39 -190 99.5t-102.5 135t-24.5 155.5t37 171l354 879q94 227 94 270q0 48 -53 48q-52 0 -134 -51t-157 -136l-440 -1100h-326l389 969q94 227 94 270q0 48 -55 48q-48 0 -125.5 -47.5t-154.5 -125.5l-447 -1114h-326l521 1295q-41 -14 -103 -33.5 t-101.5 -32t-92.5 -30.5t-87 -32.5t-74 -33t-64 -37t-45.5 -41t-31.5 -47.5t-10 -53q0 -65 46.5 -94t97.5 -29v-266q-187 0 -303.5 105t-114.5 271zM2140 82q78 75 208.5 292t268.5 523q-63 66 -63 125q0 74 62 147t130 95l133 -74l-65 -164q20 -18 66.5 -48.5t89 -60.5 t85.5 -66.5t69 -80t26 -86.5q0 -37 -25 -102l-57 -146q-27 -67 -40.5 -117.5t-14.5 -77t6 -43t15 -20.5t18 -4q42 0 118.5 96.5t194.5 298.5q33 -3 68 -28t47 -54q-54 -93 -96.5 -159t-99 -138t-108 -116t-115 -72.5t-128.5 -28.5q-51 0 -95 15t-80.5 51t-53 89.5t-6.5 138 t52 188.5l66 166q18 46 18 71q0 15 -6 28.5t-24 32.5t-28.5 28t-41.5 36q-132 -289 -266.5 -517.5t-214.5 -299.5q-32 3 -66.5 28t-46.5 54z" />
<glyph unicode="Kr" horiz-adv-x="2852" d="M-125 258q0 96 36.5 181.5t101 147.5t161 94.5t209.5 23.5v-271q-68 5 -116.5 -11t-71 -46t-32 -58.5t-9.5 -58.5q0 -79 60 -135.5t146 -56.5q141 0 245.5 116t197.5 342l274 680q-43 -12 -105 -28t-99.5 -25.5t-84.5 -24t-75 -29t-54 -34.5t-37.5 -46t-11.5 -58 q0 -65 46.5 -94t97.5 -29v-267q-187 0 -303.5 105.5t-114.5 271.5q0 74 21.5 134.5t57 104t93 81.5t116 63t140 51.5t152 45.5t165 46.5t166.5 51.5q130 137 299 137l60 -176q-4 -2 -11.5 -5.5t-29 -18.5t-41 -34.5t-43.5 -55t-41 -77.5l-221 -544q77 -17 144.5 -1.5 t132.5 87.5t122 202l127 314q157 391 606 303l-53 -232q-56 4 -99.5 3t-84.5 -39t-76 -121l-86 -207q-175 -430 -473 -483q161 -105 106 -420l-53 -308q-11 -113 13.5 -152t119.5 -38v-233q-117 -20 -209.5 5.5t-146.5 85t-76.5 144t-7.5 182.5l45 269q28 127 22 213.5 t-35.5 135.5t-93.5 91l-24 4l-78 -197q-53 -135 -122 -237.5t-137.5 -163t-146.5 -98.5t-144 -51t-136 -13q-98 0 -181 26t-141 70t-99 103t-60 125.5t-19 136.5zM1667 82q78 75 208.5 292t268.5 523q-63 66 -63 125q0 74 62 147t130 95l133 -74l-65 -164q20 -18 66.5 -48.5 t89 -60.5t85.5 -66.5t69 -80t26 -86.5q0 -37 -25 -102l-57 -146q-27 -67 -40.5 -117.5t-15 -77t5.5 -43t15 -20.5t18 -4q82 0 314 395q32 -3 67 -28t47 -54q-54 -94 -96.5 -159.5t-98.5 -137.5t-107.5 -116t-115 -72.5t-128.5 -28.5q-51 0 -95 15t-80.5 51t-53 89.5 t-6.5 138t52 188.5l66 166q18 46 18 71q0 15 -6 28.5t-24 32.5t-28.5 28t-41.5 36q-132 -289 -266.5 -517.5t-214.5 -299.5q-32 3 -66.5 28t-46.5 54z" />
<glyph unicode="Kl" horiz-adv-x="2560" d="M-125 258q0 96 36.5 181.5t101 147.5t161 94.5t209.5 23.5v-271q-68 5 -116.5 -11t-71 -46t-32 -58.5t-9.5 -58.5q0 -79 60 -135.5t146 -56.5q140 0 245 116.5t198 341.5l274 680q-43 -12 -105 -28t-99.5 -25.5t-84.5 -24t-75 -29t-54 -34.5t-37.5 -46t-11.5 -58 q0 -65 46.5 -94t97.5 -29v-267q-187 0 -303.5 105.5t-114.5 271.5q0 74 21.5 134.5t57 104t93 81.5t116 63t140 51.5t152 45.5t165 46.5t166.5 51.5q130 137 299 137l60 -176q-4 -2 -11.5 -5.5t-29.5 -19.5t-41.5 -35.5t-43 -54.5t-40.5 -76l-221 -544q77 -17 144.5 -1.5 t132.5 87.5t122 202l127 316q22 55 55 105.5t82.5 101t120 80.5t151.5 30q129 0 251 -47.5t264 -157.5l-416 -1032q-27 -67 -41.5 -116.5t-17.5 -76.5t2.5 -43.5t14 -21t21.5 -4.5q62 0 160 104.5t207 290.5q33 -3 68 -28t47 -54q-62 -109 -127.5 -197.5t-140.5 -162 t-159.5 -114t-168.5 -40.5q-57 0 -103 18t-78.5 58.5t-45.5 99.5t1 147t58 196l356 884q-186 90 -268 -108l-86 -207q-174 -430 -473 -483q161 -105 106 -420l-53 -308q-11 -113 13.5 -152t119.5 -38v-233q-117 -20 -209.5 5.5t-146.5 85t-76.5 144t-7.5 182.5l45 269 q28 127 22 213.5t-35.5 135.5t-93.5 91l-24 4l-78 -197q-53 -135 -122 -237.5t-137.5 -163t-146.5 -98.5t-144 -51t-136 -13q-98 0 -181 26t-141 70t-99 103t-60 125.5t-19 136.5z" />
<glyph unicode="Ki" horiz-adv-x="2539" d="M-125 258q0 96 36.5 181.5t101 147.5t161 94.5t209.5 23.5v-271q-68 5 -116.5 -11t-71 -46t-32 -58.5t-9.5 -58.5q0 -79 60 -135.5t146 -56.5q140 0 245 116.5t198 341.5l274 680q-43 -12 -105 -28t-99.5 -25.5t-84.5 -24t-75 -29t-54 -34.5t-37.5 -46t-11.5 -58 q0 -65 46.5 -94t97.5 -29v-267q-187 0 -303.5 105.5t-114.5 271.5q0 74 21.5 134.5t57 104t93 81.5t116 63t140 51.5t152 45.5t165 46.5t166.5 51.5q130 137 299 137l60 -176q-4 -2 -11.5 -5.5t-29.5 -19.5t-41.5 -35.5t-43 -54.5t-40.5 -76l-221 -544q77 -17 144.5 -1.5 t132.5 87.5t122 202l127 316q23 56 54 106t77.5 100.5t112 80.5t141.5 30q101 0 181 -40.5t167 -121.5q58 -14 96.5 -62t38.5 -110q0 -72 -53.5 -126t-126.5 -54q-83 0 -136.5 65.5t-39.5 147.5q-137 97 -219 -104q-15 -34 -43 -103.5t-43 -103.5q-174 -430 -473 -483 q161 -105 106 -420q-9 -51 -26.5 -154t-26.5 -154q-11 -113 13.5 -152t119.5 -38v-233q-117 -20 -209.5 5.5t-146.5 85t-76.5 144t-7.5 182.5q7 44 22.5 134.5t22.5 134.5q28 127 22 213.5t-35.5 135.5t-93.5 91l-24 4l-78 -197q-53 -135 -122 -237.5t-137.5 -163 t-146.5 -98.5t-144 -51t-136 -13q-98 0 -181 26t-141 70t-99 103t-60 125.5t-19 136.5zM1870 149q-13 59 1 147t58 196l230 571h325l-252 -627q-26 -66 -40.5 -115.5t-17.5 -77t2.5 -43.5t14 -21t21.5 -5q62 0 159.5 104t206.5 291q33 -3 68 -28t47 -54 q-62 -109 -127.5 -197.5t-140.5 -162t-159.5 -114t-168.5 -40.5q-57 0 -103 18t-78.5 58.5t-45.5 99.5z" />
<glyph unicode="Kh" horiz-adv-x="3141" d="M-125 258q0 96 36.5 181.5t101 147.5t161 94.5t209.5 23.5v-271q-68 5 -116.5 -11t-71 -46t-32 -58.5t-9.5 -58.5q0 -79 60 -135.5t146 -56.5q140 0 245 116.5t198 341.5l274 680q-43 -12 -105 -28t-99.5 -25.5t-84.5 -24t-75 -29t-54 -34.5t-37.5 -46t-11.5 -58 q0 -65 46.5 -94t97.5 -29v-267q-187 0 -303.5 105.5t-114.5 271.5q0 74 21.5 134.5t57 104t93 81.5t116 63t140 51.5t152 45.5t165 46.5t166.5 51.5q130 137 299 137l60 -176q-4 -2 -11.5 -5.5t-29.5 -19.5t-41.5 -35.5t-43 -54.5t-40.5 -76l-221 -544q77 -17 144.5 -1.5 t132.5 87.5t122 202l127 316q22 55 55 105.5t82.5 101t120 80.5t151.5 30q129 0 251 -47.5t264 -157.5l-207 -514q6 6 18 15t48.5 32.5t74 41.5t91.5 32.5t104 14.5q95 0 146.5 -48t51.5 -131q0 -76 -63 -231l-99 -244q-27 -68 -41 -117.5t-17 -76.5t3 -43t14.5 -20.5 t20.5 -4.5q62 0 160 104.5t207 290.5q32 -3 67 -28t47 -54q-65 -115 -130.5 -203.5t-141 -161t-160.5 -111t-174 -38.5q-82 0 -135.5 32.5t-77 96.5t-10 165t66.5 233l31 75q72 179 72 207q0 21 -14.5 33t-38.5 12q-41 0 -106.5 -38t-125.5 -107l-276 -682h-326l557 1376 q-186 90 -268 -108l-86 -207q-174 -430 -473 -483q161 -105 106 -420l-53 -308q-11 -113 13.5 -152t119.5 -38v-233q-117 -20 -209.5 5.5t-146.5 85t-76.5 144t-7.5 182.5l45 269q28 127 22 213.5t-35.5 135.5t-93.5 91l-24 4l-78 -197q-55 -138 -126 -242.5t-140 -164 t-148.5 -96t-142.5 -48.5t-129 -12q-98 0 -181 26t-141 70t-99 103t-60 125.5t-19 136.5z" />
<glyph unicode="&#xd;" horiz-adv-x="778" />
<glyph unicode=" "  horiz-adv-x="512" />
<glyph unicode="&#x09;" horiz-adv-x="512" />
<glyph unicode="&#xa0;" horiz-adv-x="512" />
<glyph unicode="!" horiz-adv-x="833" d="M131 182q0 88 60.5 148.5t148.5 60.5t149.5 -60.5t61.5 -148.5t-61.5 -148.5t-149.5 -60.5t-148.5 60.5t-60.5 148.5zM367 496l307 972h377l-484 -972h-200z" />
<glyph unicode="&#x22;" horiz-adv-x="1024" d="M147 680l156 684q12 56 58.5 93.5t107.5 37.5q73 0 124.5 -51t51.5 -119q0 -59 -27 -98l-325 -547h-146zM641 680l156 684q12 56 58.5 93.5t107.5 37.5q73 0 124.5 -51t51.5 -119q0 -59 -27 -98l-328 -547h-143z" />
<glyph unicode="#" horiz-adv-x="1525" d="M-51 330l94 229h264l142 350h-265l92 230h265l133 329h278l-133 -329h258l133 329h277l-133 -329h266l-92 -230h-268l-142 -350h268l-94 -229h-266l-133 -330h-275l134 330h-260l-134 -330h-276l133 330h-266zM584 559h260l141 350h-260z" />
<glyph unicode="$" horiz-adv-x="1024" d="M5 413q6 69 22.5 119.5t35.5 83.5h285q-28 -46 -47.5 -96.5t-20 -106t32.5 -81.5l133 332q-44 48 -70.5 80.5t-59 82.5t-48.5 102.5t-16 108.5q0 98 42.5 179t112.5 131.5t161.5 74t189.5 13.5l67 166h144l-80 -195q81 -28 129 -84t60.5 -117.5t7.5 -128t-20.5 -115 t-33.5 -79.5h-282q125 208 43 280l-134 -334q33 -35 41 -43.5t38 -43t40 -50.5t31 -49t28.5 -57.5t15 -58t7.5 -66.5q0 -57 -16.5 -114t-56 -112.5t-97 -96.5t-146.5 -64t-198 -17l-70 -174h-143l80 203q-86 24 -137 79t-64 117t-7 131zM446 307q41 4 71.5 22.5t45 43.5 t21 47.5t6.5 42.5q0 39 -41 100zM518 1044q0 -43 43 -96l98 242q-40 -1 -70 -19t-44 -43t-20.5 -46.5t-6.5 -37.5z" />
<glyph unicode="%" horiz-adv-x="1495" d="M109 864q0 128 90 219t219 91q127 0 218 -91t91 -219t-90.5 -218.5t-218.5 -90.5q-129 0 -219 90.5t-90 218.5zM201 0l968 1174h226l-971 -1174h-223zM322 864q0 -40 27.5 -68t68.5 -28q40 0 68 28t28 68t-28 68.5t-68 28.5q-41 0 -68.5 -28.5t-27.5 -68.5zM868 309 q0 128 90.5 218.5t219.5 90.5q128 0 218.5 -91t90.5 -218q0 -129 -90.5 -219t-218.5 -90q-129 0 -219.5 90t-90.5 219zM1079 309q0 -41 28.5 -68.5t70.5 -27.5q40 0 68 27.5t28 68.5q0 40 -28 68.5t-68 28.5q-41 0 -70 -28.5t-29 -68.5z" />
<glyph unicode="&#x26;" horiz-adv-x="1482" d="M2 489q0 209 142 359.5t343 161.5q-18 58 -18 118q0 189 132 314t327 125q93 0 167.5 -31t119 -81.5t67.5 -109.5t23 -120q0 -126 -84.5 -215.5t-206.5 -89.5q-107 0 -162.5 67.5t-40.5 149.5q6 52 44 86t91 34q37 0 67.5 -19.5t45.5 -51.5q18 67 -21.5 114.5 t-107.5 47.5q-83 0 -146 -62.5t-63 -159.5q0 -129 104 -217l-139 -204q-7 6 -20.5 15t-55 24.5t-84.5 15.5q-105 0 -179.5 -77t-74.5 -189q0 -107 71 -184t206 -77q146 0 236.5 91t93.5 215q-96 -20 -128 -56.5t-42 -107.5h-177q7 63 22.5 113t37.5 87.5t55 67t68.5 50 t86 37t99 27t115.5 21.5q207 31 252.5 60t7.5 129l201 75q48 -99 55.5 -176t-27.5 -138t-123 -101t-229 -58q-3 -116 -49 -224t-124.5 -190.5t-192 -132t-242.5 -49.5q-119 0 -221.5 41.5t-172.5 112t-109.5 164.5t-39.5 198z" />
<glyph unicode="'" horiz-adv-x="530" d="M147 680l156 684q12 56 58.5 93.5t107.5 37.5q73 0 124.5 -51t51.5 -119q0 -59 -27 -98l-325 -547h-146z" />
<glyph unicode="(" horiz-adv-x="899" d="M-37 31q0 89 64 239l399 992q21 52 40.5 90t58 93.5t88 105t130.5 113.5t185 130l155 -260q-158 -98 -243 -190.5t-125 -190.5l-350 -866q-4 -10 -20.5 -50t-23.5 -58t-18 -50t-15.5 -55.5t-4.5 -42.5q0 -36 17.5 -80t35.5 -70l18 -26l-245 -174q-6 8 -16 22t-35 56 t-44 82t-35 93t-16 97z" />
<glyph unicode=")" horiz-adv-x="899" d="M-14 -59q158 99 244 191t126 190l351 866q4 10 17 42t19 47t16.5 43.5t15.5 46.5t9 39.5t4 37.5q0 36 -18 80t-36 70l-17 26l246 174q6 -8 15.5 -22t34.5 -56t44.5 -82t35 -93t15.5 -97q0 -90 -64 -240l-399 -991q-26 -65 -54.5 -115t-83 -118t-146 -142.5t-220.5 -156.5 z" />
<glyph unicode="*" horiz-adv-x="866" d="M99.5 979q13.5 56 64.5 90q35 17 141 41q-119 45 -133 59q-45 39 -51.5 97t29.5 102q37 43 95.5 47t102.5 -33q30 -30 82 -122q8 123 19 145q23 56 75.5 80t104.5 2q54 -22 76 -75t0 -109q-10 -23 -91 -119q102 30 144 30q60 -3 99 -45.5t34 -99.5q-4 -58 -48.5 -96 t-103.5 -33q-39 4 -141 49q61 -92 74 -127q15 -58 -14 -108t-85 -64q-55 -13 -103.5 17.5t-63.5 87.5q-6 18 2 147q-72 -95 -99 -108q-50 -32 -106.5 -20t-87.5 60q-29 49 -15.5 105z" />
<glyph unicode="+" horiz-adv-x="1234" d="M57 449l115 276h311l129 324h308l-132 -324h316l-113 -276h-315l-131 -324h-303l129 324h-314z" />
<glyph unicode="," horiz-adv-x="706" d="M33 -274q66 50 114.5 94.5t72.5 77t35 53t15 35.5q-62 22 -100.5 75t-38.5 121q0 88 60.5 148.5t148.5 60.5q52 0 98.5 -22t79.5 -74.5t33 -128.5q0 -72 -31 -147.5t-77.5 -136.5t-107.5 -119.5t-115 -98t-105 -70.5z" />
<glyph unicode="-" horiz-adv-x="1075" d="M260 485l82 205h594l-82 -205h-594z" />
<glyph unicode="." horiz-adv-x="706" d="M131 182q0 88 60.5 148.5t148.5 60.5t149.5 -60.5t61.5 -148.5t-61.5 -148.5t-149.5 -60.5t-148.5 60.5t-60.5 148.5z" />
<glyph unicode="/" horiz-adv-x="948" d="M102 -254l793 1966h143l-792 -1966h-144z" />
<glyph unicode="0" horiz-adv-x="1124" d="M0 358q0 72 15 166t47 202.5t77 216.5t110 208t141 176t175 122t207 46q172 0 260 -108.5t88 -276.5q0 -61 -12 -140.5t-35 -171.5t-60 -188t-83 -188t-108.5 -173.5t-132.5 -143t-158 -97t-183 -35.5q-172 0 -260 107t-88 278zM283 324q0 -67 26.5 -93t57.5 -26 q66 0 152 115t155 269t117.5 312.5t48.5 243.5q0 56 -22 87.5t-58 31.5q-68 0 -155 -114.5t-156.5 -269.5t-117.5 -313t-48 -243z" />
<glyph unicode="1" horiz-adv-x="907" d="M37 690q120 113 234 234.5t190 214.5t135.5 170t87.5 118l27 41h317l-592 -1468h-317l348 862q-200 -213 -305 -313z" />
<glyph unicode="2" horiz-adv-x="1150" d="M-143 0l125 309q276 158 512 340q358 277 358 471q0 54 -27.5 90.5t-79.5 36.5q-94 0 -159.5 -105.5t-65.5 -238.5h-317q0 71 16 145.5t57.5 156t103.5 145t164 104.5t230 41q109 0 191 -29t129.5 -78.5t70.5 -109.5t23 -129q0 -338 -547 -723l-186 -129h471l-119 -297 h-950z" />
<glyph unicode="3" horiz-adv-x="1146" d="M-31.5 335.5q2.5 69.5 18 132.5t42.5 116h329q-29 -46 -48.5 -105t-24.5 -118.5t26 -99.5t99 -40q60 0 111.5 31.5t83 78.5t49.5 98.5t18 94.5q0 169 -289 142h-4l96 237q74 0 134 12t98.5 29.5t67 42.5t42.5 47.5t23 47t10.5 37.5t1.5 24t-3 24t-12.5 33.5t-34 33.5 t-61.5 13q-87 0 -138 -71.5t-68 -180.5h-316q10 67 31.5 130.5t65.5 132.5t105 120t155.5 84t209.5 33q78 0 141 -16t102 -39t67.5 -57.5t42 -62.5t21 -63.5t8.5 -52t1 -35.5q0 -116 -85.5 -222t-258.5 -161q152 -73 152 -260q0 -72 -21 -146.5t-68 -148t-114.5 -130.5 t-169 -92.5t-221.5 -35.5q-114 0 -198 31t-128.5 82.5t-67.5 115.5t-20.5 133.5z" />
<glyph unicode="4" horiz-adv-x="1202" d="M-70 360l115 281l752 827h438l-332 -821q38 4 69.5 16t43.5 21l12 10l129 -139q-4 -8 -13 -21t-41.5 -46.5t-71.5 -59.5t-104.5 -47t-138.5 -21l-145 -360h-317l145 360h-541zM311 641h273l217 539z" />
<glyph unicode="5" horiz-adv-x="1169" d="M-14 338.5q1 57.5 13 111.5t32 105h331q-42 -88 -51 -166t18 -125t85 -47q76 0 150 80.5t117.5 191.5t43.5 205q0 127 -90 127q-52 0 -110 -44.5t-107 -137.5l-291 72l309 757q452 -75 518 -75q108 0 203 75l129 -147q-24 -34 -42.5 -56.5t-54.5 -53.5t-74.5 -50t-97 -33 t-126.5 -14q-27 0 -99.5 8t-131.5 16l-58 9l-74 -184q11 8 30 19.5t75.5 30.5t111.5 19q79 0 139 -31t94.5 -82.5t51.5 -112t17 -126.5q0 -53 -10.5 -114t-34.5 -130t-59.5 -134t-89.5 -125.5t-119.5 -105t-155 -71.5t-191.5 -27q-91 0 -161.5 20t-115.5 54.5t-74 82 t-40 99.5t-10 109.5z" />
<glyph unicode="6" horiz-adv-x="1148" d="M20 369q0 78 16.5 175t50 205t81 213.5t115 202t145 170t177 117t206.5 43.5q201 0 294.5 -136t33.5 -362h-328q16 35 27 75t15 82t-13 69.5t-56 27.5q-76 0 -150 -97.5t-159 -276.5q112 79 248 79q145 0 217 -85t72 -224q0 -112 -46.5 -231t-125.5 -217.5t-195.5 -162 t-243.5 -63.5q-23 0 -46.5 2t-63.5 11t-74 24t-72 45t-64 70.5t-43.5 103.5t-17.5 140zM315 340q0 -123 88 -123q69 0 141 73.5t115 170t43 168.5q0 52 -24.5 83t-69.5 31q-56 0 -122 -43.5t-119 -109.5q-52 -158 -52 -250z" />
<glyph unicode="7" horiz-adv-x="1011" d="M23 0q25 62 58.5 128.5t65.5 124t79 130t79.5 122t89 125.5t86 115.5t91 117t84 105t85 104t74.5 91.5q-48 -6 -74 -6q-23 0 -225 23l-98 -248h-318l215 536q506 -75 572 -75q108 0 203 75l118 -135q-3 -4 -59.5 -81t-78.5 -107.5t-83.5 -117t-97.5 -142.5t-97 -148.5 t-106 -171.5t-99 -174.5t-102.5 -194t-91.5 -196.5h-370z" />
<glyph unicode="8" horiz-adv-x="1161" d="M-49 324q0 107 44.5 205.5t138 177t220.5 108.5q-3 2 -10 7.5t-20.5 22.5t-24 38.5t-19 58t-8.5 78.5q0 63 17.5 126t59 127t102 112.5t156 79t212.5 30.5q87 0 156 -17.5t113 -46t73 -68.5t41 -82.5t12 -90.5q0 -86 -36 -168t-110.5 -151t-176.5 -103q117 -78 117 -246 q0 -71 -20 -144.5t-67 -147t-115 -130t-173.5 -92t-233.5 -35.5q-95 0 -174 19.5t-141.5 60t-97.5 110t-35 161.5zM279 344q0 -67 40 -98t95 -31q72 0 135 49.5t97 119.5t34 136q0 65 -36 99t-95 34q-73 0 -137 -50.5t-98.5 -121.5t-34.5 -137zM608 1020q0 -49 25.5 -74.5 t64.5 -25.5q72 0 129.5 76.5t57.5 154.5q0 48 -24.5 74t-65.5 26q-72 0 -129.5 -76t-57.5 -155z" />
<glyph unicode="9" horiz-adv-x="1099" d="M-25.5 280q-10.5 90 23.5 191h328q-14 -27 -25.5 -66t-17.5 -83t11.5 -74.5t59.5 -30.5q131 0 305 373q-120 -78 -245 -78q-145 0 -218 85.5t-73 223.5q1 89 30 184t85 182t129 156t169 110.5t199 41.5q23 0 46.5 -2t63 -10.5t73.5 -24t71.5 -45t64 -70t43.5 -103.5 t17 -140q0 -92 -23 -208t-66 -243t-111.5 -247t-153 -216t-198 -154.5t-238.5 -58.5q-101 0 -179 40t-119 108.5t-51.5 158.5zM432 840q0 -52 25.5 -83.5t70.5 -31.5q54 0 121.5 44t120.5 108q51 168 51 251q0 123 -88 123q-71 0 -143 -73t-115 -169t-43 -169z" />
<glyph unicode=":" horiz-adv-x="735" d="M131 182q0 88 60.5 148.5t148.5 60.5t149.5 -60.5t61.5 -148.5t-61.5 -148.5t-149.5 -60.5t-148.5 60.5t-60.5 148.5zM348 719q0 88 60.5 149.5t148.5 61.5t148.5 -61.5t60.5 -149.5t-60.5 -147.5t-148.5 -59.5t-148.5 59.5t-60.5 147.5z" />
<glyph unicode=";" horiz-adv-x="735" d="M33 -274q87 65 143 123t72.5 86.5t21.5 50.5q-62 22 -100.5 75t-38.5 121q0 88 60.5 148.5t148.5 60.5q87 0 149 -60.5t62 -150.5q0 -80 -31.5 -160t-77 -140.5t-109 -119.5t-113 -95.5t-103.5 -70.5zM348 719q0 88 60.5 149.5t148.5 61.5t148.5 -61.5t60.5 -149.5 t-60.5 -147.5t-148.5 -59.5t-148.5 59.5t-60.5 147.5z" />
<glyph unicode="&#x3c;" horiz-adv-x="1337" d="M66 459l90 227l1147 397l-142 -346l-600 -207l434 -206l-104 -261z" />
<glyph unicode="=" horiz-adv-x="1271" d="M-18 248l112 278h932l-111 -278h-933zM139 645l113 279h934l-113 -279h-934z" />
<glyph unicode="&#x3e;" horiz-adv-x="1325" d="M-88 61l141 345l602 208l-434 209l105 260l823 -399l-90 -227z" />
<glyph unicode="?" horiz-adv-x="1060" d="M131 182q0 88 60.5 148.5t148.5 60.5t149.5 -60.5t61.5 -148.5t-61.5 -148.5t-149.5 -60.5t-148.5 60.5t-60.5 148.5zM205 989q0 70 14.5 138t52.5 139.5t95.5 125t152.5 87.5t215 34q88 0 158.5 -21t115 -54.5t74.5 -78t42 -88.5t12 -89q0 -67 -23 -127.5t-61.5 -108 t-85.5 -91t-99 -85.5t-99 -82.5t-87 -90.5t-61 -101h-277q26 90 85.5 176t124.5 149.5t127 122t102 115t40 106.5q0 43 -24 79t-76 36q-86 0 -152.5 -82.5t-66.5 -208.5h-299z" />
<glyph unicode="@" horiz-adv-x="2164" d="M225 309q0 151 42.5 303.5t129.5 293t208 249t292 173.5t367 65q149 0 272.5 -38t207.5 -102t141.5 -150.5t83.5 -181t26 -196.5q0 -112 -32 -224t-91 -206.5t-136 -168t-172.5 -115.5t-195.5 -42q-53 0 -96.5 12t-70.5 31.5t-47.5 42.5t-30 46.5t-15.5 43t-7 31.5l-1 12 q-5 -6 -14 -15.5t-37.5 -33.5t-58 -43t-73.5 -34t-86 -15q-87 0 -139.5 60t-52.5 159q0 48 12.5 115t36 147.5t63 158t89 141.5t119 103.5t147.5 39.5q46 0 84.5 -14t60 -34.5t36 -40.5t19.5 -34l5 -14l315 114l-205 -506q-20 -49 -33.5 -85.5t-22 -68.5t-9.5 -53.5t5 -37 t20 -22.5t36 -7q85 0 164.5 94.5t124.5 225t45 243.5q0 194 -141 316t-348 122q-112 0 -217 -34.5t-190 -95t-156 -142t-119 -175t-74.5 -196t-26.5 -202.5q0 -114 33 -207.5t99.5 -165t176.5 -111t254 -39.5q95 0 208 30.5t208 90.5l107 -158q-231 -180 -572 -180 q-164 0 -303 46.5t-243.5 135.5t-163 228.5t-58.5 314.5zM901 324q0 -62 55 -62q25 0 51.5 12.5t46.5 30t36.5 35.5t25.5 30l8 13l111 270q-1 50 -23.5 73.5t-54.5 23.5q-60 0 -122.5 -85.5t-98 -184.5t-35.5 -156z" />
<glyph unicode="A" horiz-adv-x="1853" d="M-135 344q0 82 31 157.5t89.5 136t151 96.5t205.5 36q179 0 397 -98l385 651q14 24 41.5 72t41.5 71t39.5 62t43.5 58.5t46 45t54.5 38t61 21.5t72.5 9q150 0 230 -108q54 -73 55 -168q0 -46 -13 -97l-266 -1008q22 -3 47.5 -0.5t51 6.5t56 20.5t62 42.5t69.5 72t78 109 q33 -3 68 -28t45 -54q-68 -120 -121.5 -192.5t-116.5 -121.5t-133 -64q-42 -9 -92 -9q-34 0 -71 4l-117 -446l-283 158l103 372q-124 50 -308 148q-115 -178 -255 -276.5t-322 -98.5q-197 0 -311.5 110.5t-114.5 272.5zM141 356q0 -61 49 -95t111 -34q14 0 32.5 3.5 t51.5 17.5t66.5 37.5t76.5 68t82 103.5q-148 59 -258 59q-106 0 -158.5 -47.5t-52.5 -112.5zM993 543q149 -82 246 -127l250 913l-21 8z" />
<glyph unicode="B" horiz-adv-x="1787" d="M-59 244q0 55 19.5 108.5t59.5 102.5t112.5 79.5t166.5 30.5q76 0 143 -23t154 -77q35 67 68 149l198 494q49 120 155.5 208.5t248.5 88.5l59 -176q-4 -1 -11 -4.5t-27.5 -17.5t-40 -33.5t-44 -55.5t-43.5 -80l-24 -61q53 -14 107 -15h5q53 0 101 19q52 20 92 51t65 81.5 t25 109.5q0 115 -90 192.5t-260 77.5q-120 0 -222 -42.5t-165.5 -109t-98.5 -142t-35 -146.5q0 -42 12 -88.5t24 -72.5l12 -26l-218 -161q-4 6 -10 16.5t-22.5 46t-29 72.5t-22.5 93t-10 111q0 108 35 211t104 192t163.5 156t221.5 105.5t269 38.5q144 0 264 -40.5 t200.5 -110.5t124.5 -165t44 -204q0 -68 -17 -127t-44.5 -99t-61 -72.5t-67 -51.5t-61 -32t-44.5 -17l-17 -5q8 -5 21 -16t45.5 -48.5t58 -80.5t46 -113.5t20.5 -146.5q0 -75 -18.5 -149.5t-58 -144t-95.5 -122.5t-137 -85t-177 -32q-127 0 -248 55.5t-266 165.5 q-172 -182 -397 -182q-90 0 -161.5 29t-114 76t-64.5 102.5t-22 112.5zM184 262q0 -40 32.5 -62t76.5 -22q93 0 184 105q-99 71 -174 71q-55 0 -87 -26.5t-32 -65.5zM840 295q168 -125 303 -125q62 0 112 23.5t79.5 61.5t45 83t15.5 92q0 17 -2 34.5t-10 47t-22 56t-40 58 t-60.5 57.5t-88 49.5t-119.5 37.5q-84 -206 -113 -270q-44 -104 -100 -205z" />
<glyph unicode="C" horiz-adv-x="1538" d="M0 1104q0 155 74 279.5t194 193.5l156 -227q-105 -53 -135 -168q-10 -37 -10 -80q0 -20 2 -40t14 -56t31.5 -66t59 -62t93.5 -51q47 133 109.5 257.5t144.5 239.5t172.5 200.5t198.5 136.5t217 51q117 0 200.5 -56.5t121.5 -144.5t38 -196q0 -151 -84 -312.5t-245 -281.5 q-257 -193 -619 -193h-6q-27 -111 -27 -202q0 -224 197 -224q68 0 152 26.5t177 79.5t187 147t164 214q34 -3 68.5 -28t46.5 -54q-162 -281 -387.5 -442.5t-485.5 -161.5q-223 0 -331.5 119t-108.5 324q0 102 29 247q-196 64 -302 203.5t-106 327.5zM809 799q211 19 358 145 q93 80 139 176.5t46 167.5q0 43 -20 72t-64 29q-72 0 -158.5 -86.5t-162.5 -217.5t-138 -286z" />
<glyph unicode="D" horiz-adv-x="2011" d="M-61 242q0 43 12 87t39 87t66.5 75.5t99.5 53t133 20.5q84 0 167.5 -30.5t186.5 -100.5q35 59 70 144l196 485q48 120 156 208.5t250 88.5l59 -174q-4 -2 -11.5 -6t-29.5 -20t-41.5 -35.5t-43 -55t-40.5 -76.5q-202 -497 -202 -499q-45 -119 -123 -240q141 -104 264 -104 q91 0 176.5 49t150.5 132.5t114 188t74.5 220t25.5 225.5q0 106 -26 194t-79.5 156.5t-143 106.5t-208.5 38q-103 0 -193 -29t-152 -77t-107 -109t-66 -124.5t-21 -123.5q0 -44 12 -91t24 -72l11 -25l-217 -162q-4 6 -10 16t-22.5 45t-29 72.5t-22.5 94.5t-10 114 q0 110 33.5 215t102.5 197t165.5 161.5t231 109.5t290.5 40q185 0 330.5 -55.5t239 -155.5t142 -237t48.5 -303q0 -117 -24 -240.5t-70 -244t-119 -227t-164.5 -188t-213 -129t-257.5 -47.5q-71 0 -130 12.5t-112.5 40.5t-95 57.5t-98.5 78.5q-173 -150 -405 -150 q-104 0 -182.5 30.5t-120 79.5t-61 101.5t-19.5 106.5zM182 260q0 -41 33 -61.5t88 -20.5q106 0 201 82q-122 94 -203 94q-56 0 -87.5 -27.5t-31.5 -66.5z" />
<glyph unicode="E" horiz-adv-x="1310" d="M0 381q0 134 53.5 252.5t140 197.5t198.5 120q88 32 176 32q24 0 48 -2q-20 55 -20 143q0 165 80 301q-52 148 -52 321q0 26 1 52l209 -29v-28q0 -69 12 -131q150 102 332 102q100 0 178 -30t123 -80.5t67.5 -108.5t22.5 -121q0 -145 -107 -249.5t-284 -104.5 q-166 0 -291 98q1 -49 13 -94t27 -74.5t33 -54t29 -35t17 -14.5l-156 -232q-4 3 -11.5 9t-32 20.5t-51 25.5t-67.5 20t-82 9q-132 0 -212.5 -84.5t-80.5 -222.5q0 -137 81 -230t218 -93q69 0 129 26.5t99.5 72t61.5 101.5q21 53 22 113v8q-2 64 -27 123l272 78 q39 -117 39 -223q0 -49 -8 -95q-26 -148 -109 -257t-212 -171.5t-277 -62.5q-129 0 -242 47.5t-191.5 128.5t-123.5 192t-45 234zM963 1348q87 -93 196 -93q55 0 94 23.5t39 64.5q0 40 -38 65.5t-97 25.5q-114 0 -194 -86z" />
<glyph unicode="F" horiz-adv-x="1505" d="M0 258q0 95 36 180t100 147.5t161 95.5q76 26 163 26q24 0 48 -2v-271q-15 1 -29 1q-37 1 -69 -7q-42 -10 -66 -28.5t-39.5 -44.5t-20.5 -49.5t-5 -47.5q0 -84 59 -137t137 -53q131 0 235.5 117.5t198.5 340.5l64 162h-182l67 164h182l183 453q-105 8 -313.5 58 t-291.5 50q-106 0 -157 -46t-51 -110q0 -58 38.5 -89t90.5 -31q37 0 73 15.5t53 30.5l17 15l131 -199q-5 -5 -13.5 -12.5t-37.5 -26.5t-61 -34t-81.5 -27t-99.5 -12q-98 0 -182 40.5t-139.5 125.5t-55.5 198q0 81 28.5 153.5t84 131.5t147.5 94t209 35q87 0 202.5 -21.5 t202 -44.5t194.5 -37q49 -6 91 -6q50 0 89 9q53 46 121.5 72t138.5 26l59 -176q-4 -2 -11.5 -5.5t-29 -18.5t-41 -34.5t-43.5 -55t-41 -77.5l-178 -444h186l-65 -164h-189l-131 -328q-225 -563 -665 -563q-124 0 -222 39t-158 105t-91 147t-31 170z" />
<glyph unicode="G" horiz-adv-x="1740" d="M0 1112q0 152 76 276t192 189l156 -227q-6 -3 -17 -10t-35 -27.5t-43.5 -44t-34.5 -61t-15 -77.5q0 -21 3.5 -43.5t17 -56.5t35.5 -63t64 -59t97 -50q50 129 116 248t155 231t187.5 194t219.5 131.5t247 49.5q193 0 296.5 -108t103.5 -277q0 -180 -102.5 -329.5 t-272.5 -254.5q-141 -88 -318.5 -136t-363.5 -48q-27 0 -41 2q-29 -126 -29 -201q0 -139 101 -139q81 0 189 77t183 181l35 86l352 72l-198 -492q148 97 256.5 206.5t167.5 217.5q34 -3 68 -28t46 -54q-109 -191 -270 -333.5t-371 -255.5q-12 -30 -35 -95t-38.5 -107 t-43.5 -105t-53.5 -105t-64.5 -89.5t-80 -75.5t-96.5 -47t-118.5 -19q-75 0 -132 25t-88 66t-45 86q-14 42 -14 85v6q0 188 261 309q34 17 121 53.5t122 51.5l68 165q-149 -129 -311 -129q-154 0 -237 107t-83 280q0 94 33 246q-201 63 -309.5 195.5t-108.5 310.5zM629 -467 q0 -27 17 -39t40 -12q42 0 81.5 54.5t92.5 182.5q-102 -44 -129 -59q-43 -24 -72.5 -58t-29.5 -69zM819 821q255 16 443 133q229 145 229 326q0 49 -27.5 79t-89.5 30q-100 0 -207 -83.5t-193 -208t-155 -276.5z" />
<glyph unicode="H" horiz-adv-x="1988" d="M0 344q0 82 31 157.5t89 136t151 96.5t208 36q157 0 340 -72l234 584q-98 6 -253.5 43t-230.5 37q-62 0 -106 -14.5t-66 -39t-31.5 -48.5t-9.5 -50q0 -56 36 -83t89 -27q40 0 77.5 15t55.5 29l17 15l131 -196q-5 -5 -13.5 -12.5t-37.5 -27t-60.5 -34.5t-81 -27 t-100.5 -12q-73 0 -140.5 23.5t-120.5 67.5t-84.5 113.5t-31.5 155.5q0 59 15 116t50 111t86 94.5t129.5 65.5t174.5 25q95 0 218 -26t236 -48q77 -15 143 -15q30 0 58 3q127 127 289 127l59 -176q-4 -2 -11.5 -6t-29.5 -20t-41.5 -36t-43 -54.5t-40.5 -74.5l-292 -729 q40 -23 123.5 -68.5t123.5 -68.5l428 1057h328l-473 -1165q43 -3 74 -3q36 0 57 4q107 22 217 161q29 38 60 85q33 -3 67.5 -28t44.5 -54q-38 -69 -72.5 -122t-72 -99.5t-75 -77.5t-80 -53.5t-89.5 -32.5q-41 -8 -86 -8h-15q-54 2 -116 15l-193 -478l-249 187l157 395 q-45 21 -129.5 66.5t-128.5 66.5q-36 -65 -72 -117t-87.5 -104t-108 -86.5t-131.5 -56t-160 -21.5q-198 0 -316 111t-118 272zM276 356q0 -56 47 -92.5t117 -36.5q72 0 147 56.5t134 183.5q-139 49 -236 49q-102 0 -155.5 -48t-53.5 -112z" />
<glyph unicode="I" horiz-adv-x="1296" d="M-125 258q0 96 36.5 181.5t100.5 147.5q66 63 162 95q76 25 161 25q24 0 48 -2v-271q-16 1 -31 1q-48 0 -86 -12q-48 -16 -70.5 -46t-32 -58.5t-9.5 -58.5q0 -79 60 -135.5t146 -56.5q136 0 244 118t199 340l297 738h-1l-1 -1h-1h-1l-1 -1h-1h-1l-1 -1h-1h-1h-1l-1 -1h-1 h-1l-1 -1h-1h-1l-1 -1h-1h-1l-1 -1h-1h-1l-1 -1h-1h-1q-231 -73 -314 -115q-149 -77 -150 -180q0 -65 46.5 -94t97.5 -29v-267q-188 -1 -304 105q-115 104 -114 266v6q0 59 14.5 111.5t39 94.5t64 80.5t81 67.5t100.5 58t111.5 50.5t124 46t129 42.5t135.5 43t135 45 q130 137 299 137l59 -176q-4 -2 -11.5 -5.5t-29 -18.5t-41 -34.5t-43.5 -54.5t-41 -77l-401 -998q-53 -135 -122 -237.5t-137.5 -163t-147 -98.5t-144.5 -51t-137 -13q-121 0 -218.5 39t-157 105t-91 147t-31.5 170z" />
<glyph unicode="J" horiz-adv-x="1196" d="M-311 -340q0 78 24.5 146t66 119t105.5 95t132 75.5t157 59t169.5 45.5t180.5 36l373 923q-34 -16 -90 -41.5t-89.5 -41t-82 -39.5t-78 -41.5t-65.5 -41t-57.5 -44.5t-41 -46.5t-28.5 -53t-9 -56.5q0 -34 11.5 -60.5t28.5 -42t39 -25t41 -13t36 -3.5v-266 q-191 0 -311 109q-119 108 -119 287q0 79 25 147.5t65 122t105 105.5t129.5 90.5t156 83t166 76.5t177.5 77t175 80q127 141 303 141l60 -176q-4 -2 -11.5 -5.5t-29.5 -19.5t-41.5 -35.5t-43 -54.5t-40.5 -76l-397 -985q122 35 208.5 96t147.5 162q33 -3 68 -28t45 -54 q-37 -64 -70.5 -111.5t-81.5 -96t-104 -85t-134 -70.5t-176 -61q-77 -197 -151.5 -331t-164 -228t-194.5 -137t-237 -43q-143 0 -245.5 96t-102.5 240zM-35 -305q0 -48 28 -74.5t75 -26.5q92 0 178 94.5t172 291.5q-85 -22 -148 -41.5t-123 -45.5t-98 -54t-61 -65t-23 -79z " />
<glyph unicode="K" horiz-adv-x="1835" d="M-125 258q0 96 36.5 181.5t100.5 147.5q66 63 162 95q76 25 161 25q24 0 48 -2v-271q-16 1 -31 1q-48 0 -86 -12q-48 -16 -70.5 -46t-32 -58.5t-9.5 -58.5q0 -79 60 -135.5t146 -56.5q141 0 245.5 116t197.5 342l274 680q-43 -12 -105 -28t-99.5 -25.5t-84.5 -24t-75 -29 t-54 -34.5t-37.5 -46t-11.5 -58q0 -65 46.5 -94t97.5 -29v-267q-188 -1 -304 105q-115 104 -114 266v6q0 74 21.5 134.5t57 104t93 81.5t116 63t140 51.5t152 45.5t165 46.5t166.5 51.5q130 137 299 137l60 -176q-4 -2 -11.5 -5.5t-29 -18.5t-41 -34.5t-43.5 -55t-41 -77.5 l-221 -544q40 -9 78 -9q35 -1 67 7q68 16 132.5 88t121.5 202l127 314q128 319 451 319q73 0 155 -16l-53 -232q-45 3 -82 3h-18q-44 -1 -84.5 -39t-75.5 -121l-86 -207q-175 -430 -473 -483q120 -78 120 -273q0 -67 -14 -147l-53 -308q-3 -35 -3 -63q1 -62 17 -89 q24 -38 114 -38h5v-233q-51 -9 -98 -9q-59 0 -111 14q-92 26 -146 86q-56 60 -78 144q-14 51 -13 106q0 37 6 76l45 269q23 105 23 182q0 17 -1 31q-6 86 -35.5 135.5t-93.5 91.5l-24 4l-78 -197q-53 -135 -122 -237.5t-137.5 -163t-146.5 -98.5t-144 -51t-136 -13 q-98 0 -181 26t-141 70t-99 103t-60 125.5t-19 136.5z" />
<glyph unicode="L" horiz-adv-x="1648" d="M-133 178q0 59 22 118t64 111.5t113 85.5t159 33q148 0 303 -106q14 27 37.5 79t34.5 74q-197 64 -304.5 204t-107.5 327q0 154 74.5 279t194.5 194l155 -227q-105 -53 -135 -168q-10 -37 -10 -80q0 -20 3 -41.5t16.5 -59t36.5 -68.5t69 -63t108 -51q32 77 56.5 134.5 t57.5 130.5t62.5 126.5t66.5 116t73 108t79 92t88.5 78t96.5 57t108 38t119 12.5q72 0 138.5 -25.5t119 -74t84 -125.5t31.5 -172q0 -151 -85 -312.5t-247 -281.5q-257 -193 -628 -193h-19q-68 -186 -135 -311q278 -256 424 -377q73 -57 119 -78.5t90 -21.5q121 0 272 145 l187 -211q-108 -104 -227.5 -158.5t-227.5 -54.5q-95 0 -183.5 41.5t-191.5 122.5q-55 43 -110.5 93t-151 139.5t-158.5 146.5q-149 -149 -364 -149q-98 0 -174.5 30.5t-118.5 79.5t-63 103.5t-21 109.5zM119 190q0 -39 29 -62.5t71 -23.5q84 0 168 97q-101 88 -168 88 q-44 0 -72 -29.5t-28 -69.5zM1008 799q208 18 356 145q92 80 138 175.5t46 160.5q0 109 -96 109q-195 0 -444 -590z" />
<glyph unicode="M" horiz-adv-x="2326" d="M0 915q0 77 25 143t65 115t105 93t130.5 75t156.5 64t168 57t180 57.5t178 61.5l258 -164q85 68 184 107t176 39q92 0 147 -57t58 -144q99 97 217 149t205 52q96 0 149.5 -60.5t53.5 -152.5q0 -94 -76 -285l-428 -1061q-16 -48 -22 -82q-3 -16 -3 -31q-1 -18 3 -35 q6 -32 31 -57.5t69 -48.5l-101 -248q-116 39 -190 100q-75 60 -103 134q-25 65 -24 136v20q4 81 37 171l354 879q94 227 94 270q0 48 -53 48q-52 0 -134 -51t-157 -136l-440 -1100h-326l389 969q94 227 94 270q0 48 -55 48q-48 0 -125.5 -47.5t-154.5 -125.5l-447 -1114 h-326l521 1295q-41 -14 -103 -33.5t-101.5 -32t-92.5 -30.5t-87 -32.5t-74 -33t-64 -37t-45.5 -41t-31.5 -47.5t-10 -53q0 -65 46.5 -94t97.5 -29v-266q-188 0 -304 105q-115 103 -114 265v6z" />
<glyph unicode="N" horiz-adv-x="1765" d="M0 915q0 77 25 143t65 115t105 93t130.5 75t156.5 64t168 57t180 57.5t178 61.5l219 -264q273 246 465 246q96 0 149 -61t53 -154q0 -90 -77 -283l-426 -1061q-17 -48 -23 -82q-3 -16 -3 -32q-1 -17 3 -34q6 -32 31 -57.5t69 -48.5l-100 -248q-116 39 -190 99.5 t-102 134.5q-25 66 -26 138v18q4 81 37 171l355 879q8 21 28 71t27.5 69.5t19 50.5t15.5 49t4 30q0 22 -13 35t-34 13q-56 0 -179.5 -89.5t-217.5 -189.5l-404 -1008h-326l521 1295q-41 -14 -103 -33.5t-101.5 -32t-92.5 -30.5t-87 -32.5t-74 -33t-64 -37t-45.5 -41 t-31.5 -47.5t-10 -53q0 -65 46.5 -94t97.5 -29v-266q-188 0 -304 105q-115 103 -114 265v6z" />
<glyph unicode="O" horiz-adv-x="1488" d="M0 342q0 118 28.5 254.5t87.5 279.5t140.5 270t197 231.5t246.5 158.5q137 170 342 170q79 0 147.5 -27t126 -83t91 -155t33.5 -231q0 -192 -63.5 -420t-178.5 -428q10 -1 19 0q188 0 311 207q32 -3 67 -28t47 -54q-28 -49 -66 -94t-91 -90t-113 -72.5t-134 -40.5 q-31 -5 -62 -5q-44 0 -89 10q-132 -176 -293 -277.5t-343 -101.5q-95 0 -172 28.5t-128 77t-85.5 116t-50 143.5t-15.5 161zM303 322q0 -110 41 -182t127 -72q161 0 334 254q-6 4 -17 12.5t-42 40t-58.5 68.5t-60 99.5t-55.5 131.5q-22 70 -35 166q-9 66 -9 135q0 32 2 65 q-96 -171 -161.5 -372t-65.5 -346zM786 967q0 -274 138 -449q90 177 146 364.5t56 305.5q0 91 -31.5 140.5t-88.5 49.5q-88 0 -154 -111t-66 -300z" />
<glyph unicode="P" horiz-adv-x="1431" d="M-6 1014q0 65 14.5 133.5t46.5 140.5t78 138.5t114.5 125t150.5 102t191 68.5t232 25q146 0 267.5 -36t203.5 -96.5t138.5 -142t82 -170.5t25.5 -184q0 -160 -71.5 -304t-198 -237t-300.5 -114q-35 -4 -72 -4q-145 0 -310 67l-221 -553h-326l457 1135q22 55 59 106 t87.5 95t117.5 70t141 26l60 -176q-4 -2 -11.5 -5.5t-29 -19.5t-41 -35.5t-43.5 -54.5t-41 -76l-125 -305q70 -39 150 -43h16q71 0 135 29q71 32 129 87t92.5 136.5t34.5 173.5q0 53 -11.5 103t-41 101t-74 88.5t-116.5 61t-163 23.5q-105 0 -197.5 -30t-157 -79.5 t-111 -111.5t-69 -127.5t-22.5 -126.5q0 -44 12 -91t24 -73l11 -25l-217 -161q-4 6 -11 17.5t-24 48.5t-30 75t-24 94.5t-11 110.5z" />
<glyph unicode="Q" horiz-adv-x="1464" d="M-72 84q0 46 13 93t43 93t73 82t109 58t145 22q207 0 420 -170q175 189 298.5 434.5t123.5 429.5q0 134 -70.5 220t-201.5 86q-98 0 -188 -50.5t-151 -128.5t-97.5 -170.5t-36.5 -177.5q0 -34 5.5 -62t17 -47t23 -34t30 -24t31 -15t33 -8.5t30 -3.5t27 -1.5t18.5 -0.5 l-52 -222h-26q-218 0 -329 113q-118 120 -118 320q0 144 60.5 284.5t165.5 252t262 180.5t336 69q97 0 177.5 -21t136 -55.5t98 -83.5t68 -99.5t41.5 -109.5t21.5 -108t5.5 -99q0 -244 -150.5 -537.5t-379.5 -514.5q268 -249 369 -330q68 -55 116.5 -77.5t92.5 -22.5 q121 0 272 145l186 -213q-107 -102 -226.5 -157.5t-225.5 -55.5q-96 0 -185.5 42.5t-193.5 121.5q-85 66 -215 193.5t-197 187.5q-225 -152 -424 -152q-161 0 -271 92.5t-110 231.5zM180 104q0 -46 42.5 -70t99.5 -24q91 0 204 74q-130 102 -237 102q-52 0 -80.5 -23.5 t-28.5 -58.5z" />
<glyph unicode="R" horiz-adv-x="1421" d="M-6 1012q0 92 28.5 189.5t93 196.5t157.5 175.5t234.5 125t311.5 48.5q147 0 268.5 -36t203.5 -96t139 -139t82.5 -164t25.5 -173q0 -80 -21.5 -159.5t-64 -151t-101 -130t-138 -98.5t-169.5 -53q44 -35 69 -82t31 -103q4 -38 4 -71q0 -15 -2 -29q-2 -46 -11 -104 l-54 -308q-3 -35 -3 -63q0 -62 16 -89q24 -38 115 -38h5v-233q-53 -9 -101 -9q-61 0 -113 14q-94 26 -150 86q-55 60 -78 144q-14 51 -14 107q0 37 6 75l47 269q29 134 29 229q0 34 -4 64q-14 110 -97 167q-27 8 -53.5 18t-43.5 17l-17 8l-260 -643h-326l457 1135 q22 55 59 106t87.5 95t117.5 70t141 26l60 -176q-4 -2 -11.5 -6t-29.5 -19.5t-41.5 -35.5t-43 -54.5t-40.5 -75.5l-86 -215q70 -43 146 -50q16 -1 31 -1q58 0 110 21q64 27 117 76t83.5 118.5t30.5 145.5q0 47 -11.5 94t-41 96t-74 86t-117 60.5t-162.5 23.5 q-104 0 -196 -30t-157 -79.5t-112 -111.5t-69.5 -127.5t-22.5 -126.5q0 -44 12 -91t24 -73l11 -25l-217 -161q-4 6 -11 17.5t-24 48.5t-30 75t-24 94t-11 109z" />
<glyph unicode="S" horiz-adv-x="1394" d="M-92 -485q-8 47 -8 94q0 219 176 452q-117 158 -117 375q0 115 34.5 215.5t93 172.5t138 122t167.5 69q54 12 110 12q36 0 72 -5q96 -12 184 -57l-99 -248q-61 31 -123 35q-10 1 -20 1q-50 -1 -92 -19q-50 -22 -90 -61.5t-62 -98t-22 -125.5q0 -95 39 -166 q100 94 643 583q-53 236 -53 383q0 224 112.5 356t296.5 132q66 0 120.5 -19t90.5 -50t61.5 -71.5t36.5 -84t11 -87.5q0 -71 -27.5 -144t-83.5 -148.5t-110.5 -135.5t-137.5 -141q45 -229 45 -369q0 -202 -89 -355.5t-243 -234.5t-348 -81q-207 0 -374 98q-80 -95 -110 -189 q-18 -55 -18 -118q0 -44 9 -92h-213zM457 131q65 -33 153 -33q166 0 272.5 116.5t106.5 289.5q0 17 -3.5 52t-4.5 50q-100 -93 -524 -475zM1180 1278q0 -65 16 -156q82 85 119 147.5t37 116.5q0 76 -66 76q-35 0 -58.5 -21t-32.5 -55t-12 -58t-3 -50z" />
<glyph unicode="T" horiz-adv-x="1361" d="M0 367q0 94 35 178t99 147q62 62 160 96q77 26 166 27q24 0 48 -2v-270q-16 1 -31 1q-47 0 -85 -12q-48 -16 -71 -46t-32.5 -59.5t-9.5 -61.5q0 -85 59 -137t141 -52q137 0 235.5 113t194.5 346l285 704q-23 5 -88 19.5t-91 20t-82.5 17.5t-85 17.5t-74.5 13.5t-75 11.5 t-61.5 6.5t-58.5 3q-102 0 -153.5 -37.5t-51.5 -97.5q0 -56 40.5 -87.5t92.5 -31.5q36 0 71 15t53 31l17 15l131 -198q-5 -5 -13.5 -12.5t-37.5 -27t-60.5 -34.5t-81 -27t-100.5 -12q-99 0 -183 40.5t-138.5 126.5t-54.5 202q0 63 16.5 121t54 111t92.5 92t138.5 62 t185.5 23q111 0 279 -29.5t314 -64.5t316 -64.5t285 -29.5q84 0 146 15t82 29l20 15l170 -94q-1 -5 -3 -13.5t-13 -33.5t-27 -47.5t-48 -50t-72.5 -47.5t-104.5 -33.5t-140 -13.5q-160 0 -301 22l-330 -813q-223 -563 -669 -563q-98 0 -181 26t-141 70t-99 103t-60 125.5 t-19 136.5z" />
<glyph unicode="U" horiz-adv-x="1830" d="M0 813q0 59 14.5 111.5t39 94t64.5 80t81 67.5t100.5 58.5t112 50.5t124.5 46t129 43t135.5 43t135.5 45q58 74 141.5 120t182.5 46l59 -176q-4 -2 -11.5 -5.5t-29 -19t-41 -35t-43.5 -55t-41 -78.5l-305 -755q-50 -126 -58 -196q-3 -28 -3 -46q0 -27 7 -33 q12 -10 31 -10q89 0 225 119.5t210 261.5l358 897h326l-416 -1043q-24 -60 -34 -104q-10 -42 -10 -67t10 -41q8 -14 18.5 -18.5t25.5 -4.5q69 0 146.5 85t187.5 275q33 -3 68 -28t45 -54q-64 -112 -125 -197t-134 -160.5t-155 -116t-168 -40.5q-103 0 -171 60 q-57 51 -58 149q0 18 2 37q-240 -297 -469 -297q-84 0 -142.5 38.5t-86.5 113.5q-18 48 -19 116q0 38 6 82q16 122 80 277l235 584q-16 -5 -47 -15q-50 -16 -74.5 -24t-68.5 -22.5t-66.5 -24t-58.5 -24.5t-55.5 -26.5t-45 -27.5t-39 -31t-27 -33.5t-19 -38t-5.5 -41.5 q0 -35 15 -61t38.5 -38.5t46 -18t44.5 -5.5v-268q-188 0 -304 106q-115 105 -114 267v6z" />
<glyph unicode="V" horiz-adv-x="1714" d="M0 844q0 59 14.5 111t38 93.5t63 79.5t80.5 67t99 58t110 49.5t122.5 45.5t127.5 42.5t134 42.5t133 44q53 81 142.5 133.5t213.5 52.5l59 -176q-6 -1 -15.5 -4t-35 -17t-48 -34t-46 -60t-35.5 -90l-203 -928q126 97 232.5 213.5t181 235t131.5 237t92.5 235t55.5 212 t28 184.5l303 41q-5 -66 -13.5 -130t-28 -161t-46.5 -188.5t-73 -205t-103.5 -217.5t-141 -219.5t-183 -218.5t-233 -207.5t-286.5 -191.5h-317l266 1203q-246 -79 -289 -96q-188 -71 -236 -152q-20 -35 -20 -74q0 -65 46.5 -94t97.5 -29v-266q-188 1 -304 107 q-115 105 -114 266v6z" />
<glyph unicode="W" horiz-adv-x="2185" d="M0 844q0 59 14.5 111.5t39 94.5t64.5 80t81.5 67t100.5 58t112 50t124.5 45.5t129 42.5t135.5 43t135 45q61 81 147 131.5t189 50.5l59 -176q-4 -2 -11.5 -5.5t-29 -19t-41 -35t-43.5 -55t-41 -78.5l-331 -827q-28 -69 -43 -119t-18.5 -78t1.5 -44.5t14 -21.5t23 -5 q73 0 175 120.5t181 296.5l353 871h327l-411 -1020q-28 -69 -43 -119t-18.5 -78t1.5 -44.5t14 -21.5t23 -5q74 0 177 122.5t179 296.5l299 738q129 317 450 317q73 0 155 -16l-54 -232q-45 3 -82 3h-17q-44 -1 -85 -39t-76 -121l-286 -713q-37 -92 -81.5 -175.5t-108.5 -169 t-134.5 -147t-162 -100.5t-189.5 -39q-73 0 -127 21t-82 55q-27 36 -39 72q-10 31 -10 62v11q-33 -37 -74.5 -72t-96.5 -70.5t-122.5 -57t-134.5 -21.5q-73 0 -126.5 25t-86 76t-40.5 125q-2 21 -2 43q0 59 14 133q20 102 71 225l247 614q-237 -75 -307 -105 q-170 -72 -200 -160q-7 -23 -7 -46q0 -65 46.5 -94t97.5 -29v-266q-188 1 -304 107q-115 105 -114 266v6z" />
<glyph unicode="X" horiz-adv-x="1619" d="M-82 33q0 48 10.5 97.5t42 107t80 101.5t134 73.5t194.5 29.5v-258q-101 0 -146 -39.5t-45 -97.5q0 -35 14.5 -60.5t38.5 -38t48 -18.5t49 -6q53 0 113.5 28t110.5 67.5t101.5 93t83.5 93.5t60 79l225 315l-43 649q-36 -12 -98 -31.5t-97 -31t-88 -29.5t-84 -32 t-70.5 -33t-62 -37.5t-43.5 -41t-30.5 -47.5t-9.5 -53q0 -34 15 -59t38.5 -37.5t46 -18t43.5 -5.5v-267q-187 0 -303 106q-115 105 -115 267v6q0 57 14 108t36 92t61 79t76.5 66.5t96 58t106 49.5t118.5 45t122.5 41.5t130.5 41.5t130 42q107 196 369 196l59 -176 q-26 -9 -52 -25t-56 -42.5t-48 -68.5q-15 -36 -14 -79v-14l23 -338l405 571q51 72 111 118q61 46 137 68q49 14 106 14q32 0 66 -4q96 -12 211 -62l-107 -216q-32 11 -50.5 16t-46.5 9t-49 -1.5t-47 -17.5t-52 -38t-54 -64l-602 -846l45 -680q4 -59 15 -98.5t26.5 -59 t40.5 -26t48 -3.5t57 13l49 -252q-62 -19 -124 -24q-14 -1 -29 -1q-50 0 -105 13q-71 17 -126.5 60t-96.5 133t-50 219l-22 323l-33 -49q-35 -50 -76.5 -99.5t-110.5 -114.5t-141.5 -113t-167 -81.5t-188.5 -33.5q-186 0 -305 108t-119 271z" />
<glyph unicode="Y" horiz-adv-x="1771" d="M0 813q0 59 14.5 111.5t39 94.5t64 80.5t81 67.5t100.5 58t112 50.5t124.5 46t129 42.5t136 43t135.5 45q58 74 141.5 120t182.5 46l59 -176q-4 -2 -11.5 -5.5t-29 -19t-41 -35t-43.5 -55t-41 -78.5l-305 -755q-50 -125 -58 -194q-4 -29 -4 -48q0 -26 6 -32 q12 -11 33 -11q90 0 224.5 120.5t210.5 260.5l360 897h326l-545 -1348q258 159 409 430q33 -3 68 -28t47 -54q-68 -119 -141.5 -211.5t-153.5 -162t-155 -119.5t-172 -100q-13 -32 -36 -94.5t-39.5 -106t-44.5 -104.5t-54 -104t-64.5 -89.5t-79.5 -75t-96 -47t-117 -18.5 q-76 0 -133 25t-87.5 66.5t-45 85.5t-14.5 91q2 192 262 309q32 16 120 53t121 52l68 165q-184 -180 -361 -180q-65 0 -115.5 24t-82.5 74.5t-42 123.5q-3 22 -3 49q0 56 15 127q20 105 71 229l237 584q-237 -75 -308 -106q-165 -71 -193 -159q-7 -21 -7 -43q0 -35 15 -61 t38.5 -38.5t46 -18t44.5 -5.5v-268q-187 0 -304 106q-114 105 -114 267v6zM678 -467q0 -27 17 -39t40 -12q41 0 81 55.5t93 183.5q-115 -52 -129 -61q-43 -24 -72.5 -58t-29.5 -69z" />
<glyph unicode="Z" horiz-adv-x="1368" d="M-154 180q0 45 13 92t42.5 93t70.5 82t102.5 58.5t134.5 22.5q104 0 194 -43.5t191 -124.5q73 83 135 162l598 789q-87 11 -280 56.5t-273 45.5q-106 0 -158.5 -46t-52.5 -110q0 -58 39.5 -89t91.5 -31q37 0 73 15.5t53 30.5l18 15l131 -199q-5 -5 -13.5 -12.5 t-37.5 -26.5t-61 -34t-81.5 -27t-99.5 -12q-73 0 -140.5 24t-120.5 68.5t-84.5 115t-31.5 156.5q0 81 28.5 153.5t84 131.5t147.5 94t209 35q90 0 212 -23t212.5 -46t203.5 -35q40 -4 75 -4q64 0 110 14q117 92 262 92l60 -176l-7 -2q-6 -2 -15 -6t-22 -10t-28 -15 t-30.5 -19.5t-32 -26t-31.5 -32.5l-684 -899q-169 -219 -250 -305q275 -249 377 -332q73 -57 118.5 -78.5t87.5 -21.5q124 0 275 145l186 -211q-113 -108 -233 -162q-113 -51 -212 -51h-11q-180 5 -375 162q-45 36 -101 87t-152.5 141.5t-154.5 144.5q-195 -141 -391 -141 q-95 0 -169.5 30.5t-116.5 79.5t-63.5 104t-21.5 111zM98 190q0 -40 30 -64q27 -22 68 -22h7q78 0 194 80q-127 105 -200 105q-43 0 -71 -29t-28 -70z" />
<glyph unicode="[" horiz-adv-x="899" d="M-209 -319l854 2113h549l-98 -242h-222l-659 -1630h223l-98 -241h-549z" />
<glyph unicode="\" horiz-adv-x="786" d="M143 1712h142l256 -1966h-142z" />
<glyph unicode="]" horiz-adv-x="897" d="M-125 -319l98 241h222l659 1630h-223l98 242h549l-854 -2113h-549z" />
<glyph unicode="^" horiz-adv-x="1067" d="M0 623l696 845h271v-845h-281v393l-319 -393h-367z" />
<glyph unicode="_" horiz-adv-x="1140" d="M-223 -250l63 150h1143l-63 -150h-1143z" />
<glyph unicode="`" horiz-adv-x="757" d="M133 1485h344l273 -318h-250z" />
<glyph unicode="a" d="M-29 242q0 58 15 139.5t44 177.5t77.5 189.5t108.5 170t144 124t177 47.5q56 0 101.5 -17t70.5 -41.5t42.5 -49t22.5 -41.5l6 -17l383 139l-254 -627q-26 -66 -40.5 -115.5t-17.5 -77t2.5 -43.5t14 -21t21.5 -5q63 0 161 104.5t207 290.5q33 -3 68 -28t47 -54 q-64 -112 -128.5 -199t-140.5 -161t-162.5 -114t-176.5 -40q-60 0 -106.5 17.5t-70.5 42.5t-39.5 50t-19.5 43l-4 17q-6 -7 -16.5 -18.5t-44.5 -40.5t-69.5 -51.5t-88 -41t-102.5 -18.5q-111 0 -171.5 76.5t-60.5 192.5zM289 309q0 -76 65 -76q32 0 65 15t57 37t44 44t30 37 l11 15l133 328q0 5 -0.5 12.5t-6 27t-14 34.5t-27.5 27.5t-44 12.5q-57 0 -116.5 -61.5t-101.5 -146.5t-68.5 -170t-26.5 -136z" />
<glyph unicode="b" horiz-adv-x="1134" d="M-15 288v17q0 152 89 373l319 790h326l-205 -505q4 5 12 13.5t35 30.5t56 39t74 30.5t91 13.5q111 0 175.5 -66.5t64.5 -173.5q0 -90 -41 -246t-125 -297q110 21 183.5 89t134.5 173q32 -3 67 -28t47 -54q-42 -74 -88.5 -128.5t-111 -101t-151 -71.5t-192.5 -26 q-172 -187 -419 -187q-160 0 -248 79.5t-93 235.5zM284 262q2 -36 21 -56t53 -20q53 0 105 52q-111 65 -160 178q-12 -42 -17 -80q-3 -25 -3 -50q0 -12 1 -24zM408 584q0 -75 38 -136t105 -98q56 94 95.5 213.5t39.5 167.5q0 38 -21.5 65t-70.5 27q-60 0 -123 -66t-63 -173z " />
<glyph unicode="c" horiz-adv-x="1048" d="M-2 336q0 70 18 151t52 166t89 163t123.5 139.5t161.5 98t197 36.5q147 0 233 -66q88 -66 96 -188q1 -11 0 -23q0 -116 -77 -274h-326q101 208 101 258q0 34 -41 34q-62 0 -123.5 -59t-103 -141.5t-67.5 -166t-26 -136.5q0 -47 21.5 -79.5t56.5 -47.5t66.5 -21t64.5 -6 q159 0 313 103t260 292q33 -3 68 -28t47 -54q-45 -79 -97 -148.5t-125.5 -138.5t-154.5 -117.5t-186 -79t-219 -30.5q-209 0 -315.5 96t-106.5 267z" />
<glyph unicode="d" horiz-adv-x="1216" d="M-33 240q0 72 22.5 175.5t71 221.5t113.5 219t160.5 167.5t202.5 66.5q55 0 99.5 -17t70 -41.5t42.5 -49t23 -41.5l6 -17l221 544h326l-418 -1032q-27 -67 -41.5 -116.5t-17 -76.5t3.5 -43.5t14.5 -21t20.5 -4.5q63 0 161 104.5t207 290.5q33 -3 68 -28t47 -54 q-51 -89 -101 -161.5t-110 -139.5t-120.5 -113t-131.5 -73t-143 -27q-60 0 -107 17.5t-71.5 42.5t-40 50t-19.5 43l-4 17q-6 -7 -16.5 -18.5t-44.5 -40.5t-70 -51.5t-88.5 -41t-103.5 -18.5q-110 0 -171 77t-61 190zM287 309q0 -76 65 -76q32 0 65.5 15t57.5 37t44 44t30 37 l10 15l133 328q0 5 -0.5 12.5t-6 27t-14 34.5t-27.5 27.5t-44 12.5q-57 0 -116.5 -61.5t-101.5 -146.5t-68.5 -170t-26.5 -136z" />
<glyph unicode="e" horiz-adv-x="1046" d="M-4 336q0 70 18 150.5t51.5 165.5t89 163t124 139.5t163 98.5t199.5 37q89 0 162.5 -28.5t122.5 -84.5q48 -55 54 -139q1 -9 1 -18q0 -77 -43 -177q-27 -58 -62 -102.5t-87.5 -82t-119.5 -56t-157 -25.5q-26 -2 -55 -2q-69 0 -148 12q-1 -4 -2.5 -12t-2.5 -30t2 -42 t16 -44.5t34.5 -42.5t61 -30t92.5 -12q161 0 315 103t260 292q33 -3 68 -28t47 -54q-45 -79 -97 -148.5t-125.5 -138.5t-154.5 -117.5t-186 -79t-219 -30.5q-209 0 -315.5 96t-106.5 267zM365 563q39 -7 73 -7t59.5 5.5t47.5 17t37.5 25t29.5 32.5t23.5 36.5t19.5 40.5 q11 27 17 45q5 17 5 33q0 20 -14 29q-13 9 -38 9q-43 0 -85 -27.5t-72.5 -66.5t-54.5 -78t-36 -67z" />
<glyph unicode="f" horiz-adv-x="892" d="M-302 -529q-24 49 -24 113q0 86 43 199l570 1415q92 233 202.5 333.5t262.5 100.5q65 0 114.5 -20.5t78 -55.5t43.5 -81q14 -44 14 -93q0 -52 -15 -106q-77 -296 -252 -614q-34 -63 -62 -104.5t-66 -79t-82.5 -59t-105.5 -35t-140 -15.5l-37 -88q74 -66 178 -66 q162 0 284.5 84.5t227.5 269.5q33 -3 68 -28t47 -54q-227 -411 -629 -411h-27q1 -19 1 -39q0 -39 -5 -80q-28 -211 -129 -379q-138 -221 -348 -221q-156 0 -212 114zM-22 -438q6 -4 18 -4h2q42 0 82 42q40 44 69.5 113t49 131.5t32.5 122.5q8 38 8 67q0 80 -57 97l-188 -465 q-12 -33 -18 -54q-5 -18 -5 -29q0 -15 7 -21zM338 516q72 10 114 54t103 155q165 308 229 522q17 61 17 94q0 43 -27 43q-85 0 -199 -282z" />
<glyph unicode="g" horiz-adv-x="1198" d="M-72 -422q1 67 38 126.5t85.5 96t110.5 66.5q16 7 112.5 50t122.5 58l56 140q-5 -6 -13 -15.5t-35 -34t-55 -43t-69.5 -34t-81.5 -15.5q-109 0 -169.5 77t-60.5 194q0 58 15.5 139t45 177t78 189t109 170t144 124t176.5 47q53 0 97 -17t68.5 -37.5t44 -48.5t24.5 -40 t9 -23l383 139l-401 -985q146 74 256.5 188t218.5 303q33 -3 68 -28t47 -54q-61 -107 -128.5 -194.5t-128.5 -147t-136 -111.5t-135.5 -85t-143.5 -72q-31 -76 -45 -117q-28 -68 -56 -121t-69 -109t-86.5 -93t-108 -60.5t-133.5 -23.5q-124 0 -189 64.5t-65 160.5zM86 -399 q0 -25 14.5 -38.5t36.5 -13.5q40 0 88.5 54.5t96.5 181.5q-25 -15 -76 -40.5t-78 -43.5q-82 -50 -82 -100zM289 309q0 -76 65 -76q32 0 64.5 15t56.5 37t44 44t30 37l10 15l133 328q0 5 -0.5 12.5t-6 27t-14 34.5t-26.5 27.5t-43 12.5q-57 0 -116.5 -61.5t-101.5 -146.5 t-68.5 -170t-26.5 -136z" />
<glyph unicode="h" horiz-adv-x="1198" d="M-195 0l594 1468h326l-207 -514q6 6 17.5 15t48 32.5t74 41.5t91.5 32.5t105 14.5q95 0 146 -48t51 -131q0 -78 -62 -231l-100 -244q-27 -68 -41.5 -117.5t-17 -77t3 -43t14 -20t20.5 -4.5q63 0 163 105t206 290q33 -3 68 -28t47 -54q-66 -115 -131.5 -203.5t-141 -161 t-161 -111t-175.5 -38.5q-81 0 -133.5 32.5t-75.5 96.5q-14 40 -14 94q0 33 5 71q14 101 67 233l31 75q8 21 22 56.5t20.5 53t14.5 39.5t11 35.5t3 22.5q0 21 -16 33t-41 12q-40 0 -104.5 -38t-124.5 -107l-277 -682h-326z" />
<glyph unicode="i" horiz-adv-x="616" d="M-56 149q-6 28 -5 62q0 38 7 85q14 88 58 196l232 571h325l-252 -627q-27 -67 -41.5 -116.5t-17.5 -76.5t2.5 -43.5t14 -21t20.5 -4.5q63 0 162 105t206 290q33 -3 68 -28t47 -54q-294 -514 -598 -514q-57 0 -103.5 18t-79.5 58.5t-45 99.5zM324 1329q0 75 52.5 126.5 t127.5 51.5q73 0 126.5 -52t53.5 -126q0 -72 -54 -126t-126 -54q-74 0 -127 53.5t-53 126.5z" />
<glyph unicode="j" horiz-adv-x="675" d="M-594 -422q1 52 22 99t56.5 83t74 62t81.5 45q33 16 122 55t113 53l217 535q-19 15 -32.5 29.5t-17.5 22.5l-3 7q39 68 105.5 187.5t115 208.5t53.5 98h328l-399 -985q145 74 255 187.5t218 303.5q32 -3 67 -28t47 -54q-61 -107 -128.5 -194.5t-128 -147t-135.5 -111.5 t-134.5 -85t-142.5 -72q-33 -80 -47 -117q-28 -68 -56 -121t-69 -109t-86.5 -93t-108 -60.5t-133.5 -23.5q-125 0 -189.5 65t-64.5 160zM-438 -399q0 -25 16 -38.5t37 -13.5q39 0 86.5 54.5t95.5 181.5q-24 -14 -74.5 -40t-78.5 -44q-82 -51 -82 -100zM403 1329 q0 75 52 126.5t127 51.5q73 0 126.5 -52t53.5 -126q0 -72 -54 -126t-126 -54q-74 0 -126.5 53.5t-52.5 126.5z" />
<glyph unicode="k" horiz-adv-x="1144" d="M-195 0l594 1468h326l-207 -514q6 6 18 15t48.5 32.5t73.5 41.5t90.5 32.5t103.5 14.5q95 0 147 -48t52 -124q0 -101 -93 -295q-55 -107 -139 -173t-178 -73q-1 -17 -1 -32q0 -171 99 -171h9q90 5 213.5 113t222.5 282q32 -3 67 -28t47 -54q-50 -86 -118 -171.5 t-152.5 -164.5t-184 -128.5t-192.5 -49.5q-144 0 -235 111q-80 97 -80 239q0 20 2 42q6 72 26.5 98t59.5 26q25 0 42 1.5t47.5 11.5t53.5 28t50 55t47 89q24 69 24 102q0 51 -49 51q-44 0 -104.5 -36.5t-126.5 -108.5l-277 -682h-326z" />
<glyph unicode="l" horiz-adv-x="616" d="M-56 149q-6 28 -5 62q0 38 7 85q14 88 58 196l395 976h326l-416 -1032q-27 -67 -41.5 -116.5t-17.5 -76.5t2.5 -43.5t14 -21t20.5 -4.5q63 0 162 105t206 290q33 -3 68 -28t47 -54q-294 -514 -598 -514q-57 0 -103.5 18t-79.5 58.5t-45 99.5z" />
<glyph unicode="m" horiz-adv-x="1781" d="M-195 0l431 1063l282 -109q8 8 34 26t71.5 45t107.5 46t121 19q94 0 145.5 -48.5t53.5 -128.5q23 23 57.5 49t86 57t115.5 51t126 20q96 0 147 -48.5t51 -130.5q0 -73 -61 -231l-100 -244q-27 -68 -41.5 -117.5t-17 -77t3 -43t14 -20t20.5 -4.5q63 0 162 104.5t207 290.5 q32 -3 67 -28t47 -54q-66 -114 -130.5 -201.5t-140.5 -161t-161 -112.5t-174 -39q-81 0 -135 31q-54 32 -78 95q-16 40 -15 96q0 32 5 69q14 102 68 236l28 75q72 177 72 207q0 21 -14.5 33t-38.5 12q-41 0 -106 -38t-126 -105l-274 -684h-328q1 2 234 575q71 177 71 209 q0 20 -15.5 31.5t-39.5 11.5q-40 0 -104.5 -38t-124.5 -107l-277 -682h-326z" />
<glyph unicode="n" horiz-adv-x="1198" d="M-195 0l431 1063l282 -109q8 8 34 26t71 45t108 46t123 19q95 0 146 -48t51 -131q0 -78 -62 -231l-100 -244q-27 -68 -41.5 -117.5t-17 -77t3 -43t14 -20t20.5 -4.5q63 0 163 105t206 290q33 -3 68 -28t47 -54q-65 -114 -130.5 -202t-141 -161t-161 -112t-174.5 -39 q-81 0 -135 32q-53 31 -77 95q-15 40 -15 96q0 32 5 70q14 102 67 234l31 75q71 178 71 207q0 21 -15.5 33t-39.5 12q-40 0 -104.5 -38t-124.5 -107l-277 -682h-326z" />
<glyph unicode="o" horiz-adv-x="1177" d="M4 362q0 85 23.5 181t75.5 193.5t124.5 176t179.5 128t232 49.5q185 0 285 -100.5t100 -280.5q0 -186 -92 -375q162 26 285 235q32 -3 67 -28t47 -54q-87 -149 -221 -236q-118 -76 -249 -76q-18 0 -36 1q-174 -203 -428 -203q-187 0 -290 105.5t-103 283.5zM315 295 q0 -50 21.5 -79.5t58.5 -29.5q69 0 146 101q-45 48 -45 114q0 71 50 119q47 46 115 45h9q45 124 45 205q0 54 -22.5 80.5t-57.5 26.5q-57 0 -117.5 -69.5t-103.5 -165t-71 -192.5t-28 -155z" />
<glyph unicode="p" horiz-adv-x="1144" d="M-358 -406l594 1469l288 -88q4 5 12.5 12.5t35.5 27.5t55.5 35t72 27.5t86.5 12.5q119 0 177.5 -81.5t58.5 -203.5q0 -92 -32.5 -202.5t-80 -203t-91 -161t-73.5 -103.5q129 58 232.5 158t206.5 276q32 -3 67 -28t47 -54q-61 -108 -134.5 -196t-167 -162t-211 -115 t-246.5 -41q-72 0 -133 13t-96 31.5t-60 37.5t-34 32l-9 13l104 97q31 -43 68 -43q54 0 129.5 108t129.5 249t54 232q0 86 -63 86q-54 0 -116.5 -48.5t-115.5 -123.5l-430 -1063h-325z" />
<glyph unicode="q" horiz-adv-x="1251" d="M-27 254q1 50 12 116.5t34.5 146.5t56 159.5t80 154.5t102.5 132.5t127.5 92t151.5 34.5q54 0 99 -17t69.5 -37t44 -49t24 -40t8.5 -23l381 139l-364 -903q23 -6 46 -6q41 0 83 18q68 27 131.5 89.5t120 138t110.5 169.5q33 -3 68 -28t47 -54q-228 -400 -459 -467 q24 -48 24 -111q0 -45 -12 -97q-18 -86 -51.5 -163t-85 -144.5t-127.5 -107.5t-166 -40q-162 0 -222 114q-26 50 -26 117q0 85 42 195l110 274q-115 -84 -227 -84q-113 0 -174 79q-58 75 -58 191v11zM291 317v-7q0 -77 65 -77q38 0 76 20.5t66 50t42.5 47.5t20.5 28l135 330 q0 7 -3 21.5t-11 37.5t-28.5 39t-49.5 16q-57 0 -116 -60.5t-100.5 -144t-68 -167t-28.5 -134.5zM583 -438q7 -4 21 -4h3q32 0 60 20q29 20 54 65t41 85t39 106q13 36 13 65q0 12 -2 23q-8 36 -28 56t-49 28l-137 -340q-13 -34 -18 -54q-5 -17 -5 -28q0 -16 8 -22z" />
<glyph unicode="r" horiz-adv-x="909" d="M39 569q72 127 162 328q-32 34 -48 62t-16 63q0 74 62.5 147t130.5 95l133 -74l-66 -164q20 -18 66.5 -48.5t89 -60.5t85.5 -66.5t69 -80t26 -86.5q0 -39 -24 -102l-58 -146q-27 -65 -40.5 -114.5t-14.5 -77t5.5 -44t15 -21.5t18.5 -5q42 0 117.5 95.5t195.5 299.5 q33 -3 68 -28t47 -54q-54 -93 -96.5 -159t-99 -138t-108 -116t-115 -72.5t-128.5 -28.5q-51 0 -95 15t-80 51q-36 35 -53 89q-11 33 -11 78q1 28 5 60q10 84 52 189l65 166q19 49 19 71q0 19 -16.5 42.5t-31 36.5t-53.5 46q-75 -175 -163 -330q-33 3 -68 28t-47 54z" />
<glyph unicode="s" horiz-adv-x="841" d="M-45 113l180 112q25 -28 64 -28q53 0 79.5 56t26.5 198q0 25 -3 143q-2 70 -2 119q0 33 1 57q-121 -237 -147 -283q-33 3 -68 28t-47 54q63 107 149.5 273.5t143.5 292.5l282 -72q-24 -129 -26 -274q0 -28 -1 -56q1 -118 9 -242q10 -153 10 -167q0 -69 -10 -111 q80 63 147 147.5t138 208.5q32 -3 67 -28t47 -54q-49 -88 -97 -157.5t-113 -138.5t-134.5 -115t-159.5 -74.5t-190 -28.5q-68 0 -128.5 14t-95.5 30.5t-66 41t-39 33.5t-16 20z" />
<glyph unicode="t" horiz-adv-x="651" d="M-54 150q-6 28 -6 63q0 39 7 85q14 88 57 194l232 571h-170l67 164h168l98 241h326l-98 -241h164l-68 -164h-162l-252 -627q-28 -67 -41.5 -116.5t-14.5 -76.5t6 -43.5t17.5 -21t26.5 -4.5q75 0 175.5 103.5t211.5 291.5q33 -3 68 -28t47 -54q-294 -514 -619 -514 q-62 0 -111 18.5t-83 58.5t-46 100z" />
<glyph unicode="u" horiz-adv-x="1175" d="M-57 149q-6 28 -6 64q0 38 7 83q14 88 58 196l231 571h326l-252 -627q-24 -59 -37 -102.5t-16 -68t2.5 -39t14 -19t22.5 -4.5q57 0 119 74t163 243l220 543h325l-252 -627q-27 -65 -41 -114t-16.5 -76.5t3 -44.5t15 -22t23.5 -5q64 0 158 102t204 293q33 -3 68 -28 t47 -54q-62 -109 -127.5 -197t-140.5 -161.5t-159.5 -114.5t-168.5 -41q-90 0 -152 46t-79 139q-157 -185 -332 -185q-57 0 -103 18t-78.5 58.5t-45.5 99.5z" />
<glyph unicode="v" horiz-adv-x="1046" d="M-92 0l233 1063h320l-176 -803q396 296 510 803l260 27q-67 -404 -338 -732q43 -18 84 -18q149 0 284 229q33 -3 68 -28t47 -54q-53 -93 -116 -159.5t-141 -106.5q-75 -39 -158 -39h-7q-86 2 -186 43q-3 -3 -9.5 -9t-34.5 -27.5t-65 -45.5t-105 -63t-151 -80h-319z" />
<glyph unicode="w" horiz-adv-x="1675" d="M-55 146q-6 28 -6 64q0 38 7 84q14 89 58 198l232 571h325l-252 -627q-24 -60 -37 -103.5t-15.5 -68t3 -39t14 -18.5t21.5 -4q57 0 120.5 74.5t164.5 244.5l217 541h325l-254 -627q-23 -59 -36 -102t-16.5 -68t1 -39.5t13 -19t22.5 -4.5q72 0 168 104q-27 46 -27 94 q-1 77 57 125q46 39 106 39q15 0 30 -2q100 220 162 500l278 27q-102 -477 -297 -754q28 -6 55 -6q74 0 148 42q102 58 182 197q33 -3 68 -28t47 -54q-102 -177 -265 -261q-98 -51 -203 -51q-70 0 -142 22q-208 -224 -457 -224q-109 0 -175 46.5t-81 138.5 q-160 -185 -334 -185q-57 0 -102.5 17.5t-78.5 57t-46 98.5z" />
<glyph unicode="x" horiz-adv-x="1134" d="M-27 0l449 463q4 31 12.5 91.5t13.5 96.5t9 80.5t4 73.5q0 30 -5.5 42.5t-23.5 12.5q-17 0 -36 -11.5t-40 -36t-39 -48.5t-42.5 -64.5t-40 -68t-41.5 -75t-39 -69.5q-33 3 -68 28t-47 54q20 34 54 94.5t54.5 95.5t53 85.5t57 81t60 65.5t68.5 54t75.5 32t87.5 13 q111 0 166 -68.5t55 -194.5l262 275l127 -117l-414 -430q-3 -21 -12 -75t-12.5 -80t-7.5 -63t-4 -63q0 -100 61 -100q72 0 188 111t216 284q32 -3 67 -28t47 -54q-60 -106 -128 -194.5t-148 -162t-171.5 -115.5t-183.5 -42q-105 0 -171 57t-83 173l-194 -203h-236z" />
<glyph unicode="y" horiz-adv-x="1157" d="M-111 -422q1 68 39 128.5t86.5 97.5t106.5 63q33 16 122 55t113 53l52 125q-4 -5 -11 -13.5t-31.5 -30.5t-51.5 -39t-69 -30.5t-85 -13.5q-42 0 -79 12.5t-68 38t-49.5 68t-23.5 98.5q-1 12 -1 26q0 47 13 107q15 78 52 169l232 571h325l-252 -627q-24 -59 -37 -102.5 t-16 -68t2.5 -39t14 -19t22.5 -4.5q57 0 120.5 75.5t162.5 245.5l219 539h325l-401 -985q146 74 256.5 188t218.5 303q33 -3 68 -28t47 -54q-61 -107 -128.5 -194.5t-128 -147t-135.5 -112t-135 -85t-143 -71.5q-31 -76 -47 -117q-28 -68 -56 -121t-69 -109t-86.5 -93 t-108 -60.5t-133.5 -23.5q-124 0 -189 65q-63 63 -63 154v6zM43 -393q0 -24 15 -40t40 -16q40 0 88 54.5t95 179.5q-19 -9 -53 -24t-58 -27t-49 -27q-78 -48 -78 -100z" />
<glyph unicode="z" horiz-adv-x="1085" d="M10 141l639 578q-10 2 -92 26.5t-133 24.5q-70 0 -119.5 -53t-150.5 -230q-33 3 -68 28t-47 54q31 53 66.5 122t58.5 113t52.5 94.5t56 81.5t61 58.5t76.5 39.5t94 12t124 -14t126 -28q49 -12 114 -13q6 1 14 1q74 2 144 27l107 -141l-601 -547q40 -6 129 -48t146 -42 q69 0 145.5 59.5t171.5 224.5q33 -3 68 -28t47 -54q-57 -98 -103.5 -168t-105 -139.5t-115 -112t-126.5 -68.5t-146 -26q-67 0 -130 20t-104.5 40.5t-85.5 33.5q-20 6 -42 6q-25 0 -53 -8q-50 -15 -111 -65z" />
<glyph unicode="{" horiz-adv-x="983" d="M-15 -99q0 44 9 85t26 80q18 42 60.5 128.5t88.5 177t50 99.5q35 66 6 100.5t-129 34.5h-37l107 262h37q209 0 274 236q2 6 22 84t41 150.5t42 125.5q2 4 5 13q13 34 21.5 54t30.5 58t44.5 61.5t62.5 54t87 47.5t115 29.5t148 12.5h153l-94 -235h-59q-50 0 -91.5 -20.5 t-71 -58.5t-49 -75t-38.5 -86q-26 -64 -62.5 -183t-50.5 -155q-17 -44 -37.5 -80t-39 -60.5t-42 -44t-40 -30t-39 -19t-32.5 -11.5t-27.5 -6t-18.5 -3q12 -3 28 -12t34.5 -31.5t28.5 -52t4.5 -78.5t-32.5 -107q-5 -10 -36 -75t-67 -141.5t-63 -137.5q-17 -37 -25 -59.5 t-12 -47.5t4 -38t29 -22t58 -9h84l-95 -235h-116q-79 0 -137.5 18t-90.5 49t-50 70t-18 83z" />
<glyph unicode="|" horiz-adv-x="784" d="M332 -254v1966h133v-1966h-133z" />
<glyph unicode="}" horiz-adv-x="972" d="M-94 -319l94 235h59q50 0 91 20.5t71 58t49.5 75t38.5 86.5q24 61 61 180t52 158q17 44 37.5 80t39 60.5t42 44t40 30t39 19t32.5 11.5t27.5 6t18.5 3q-12 3 -27.5 12t-34.5 31t-29 51.5t-4.5 78.5t32.5 107q5 10 36 75t67 141.5t63 137.5q17 38 25 60t12 47.5t-3.5 38.5 t-28.5 22t-58 9h-84l94 235h116q78 0 136.5 -18t91 -49t50 -70t18 -83t-8.5 -85t-26 -80q-18 -42 -60.5 -128.5t-88.5 -177t-50 -99.5q-35 -66 -6 -101t129 -35h37l-107 -262h-37q-209 0 -274 -235q-2 -6 -21.5 -84.5t-41 -151t-42.5 -125.5q-38 -93 -61 -130 q-124 -199 -453 -199h-153z" />
<glyph unicode="~" horiz-adv-x="1544" d="M293 614q173 187 366 187q63 0 124 -20t101.5 -43.5t93 -43.5t101.5 -20q107 0 189 94l118 -205q-159 -188 -356 -188q-65 0 -125 20t-99 44.5t-91.5 44.5t-104.5 20q-112 0 -198 -96z" />
<glyph unicode="&#xa1;" horiz-adv-x="792" d="M-207 -406l483 973h201l-307 -973h-377zM295 881q0 88 60.5 148.5t148.5 60.5t148.5 -60.5t60.5 -148.5t-60.5 -148.5t-148.5 -60.5t-148.5 60.5t-60.5 148.5z" />
<glyph unicode="&#xa2;" horiz-adv-x="976" d="M-23 309q0 65 13.5 141.5t43 161t70.5 166t101 156t130.5 132t162 93t192.5 39.5l74 182h113l-76 -186q83 -14 136 -56t73.5 -98.5t19 -125.5t-21.5 -136.5t-54 -132.5h-311q67 97 83.5 179t-32.5 110l-295 -737q103 -7 199.5 32t206.5 121l123 -121q-296 -275 -619 -254 l-71 -180h-113l78 195q-226 58 -226 319zM283.5 320q-2.5 -54 19.5 -78l275 678q-41 -22 -85.5 -75t-80 -119t-66.5 -142t-45.5 -143t-17 -121z" />
<glyph unicode="&#xa3;" horiz-adv-x="1472" d="M107.5 165q-0.5 36 13 67t37 58.5t56.5 45.5t70 26.5t80.5 2.5t84.5 -27q75 114 114 334h-147l65 166h113q14 68 29.5 125.5t42 127t58.5 124.5t79.5 109t104 90.5t133 58.5t165.5 22q107 0 179.5 -32t103.5 -83.5t36 -119t-14 -137.5t-57 -140h-289q43 91 52 127 q31 117 -68 117q-43 0 -79.5 -23.5t-61 -59.5t-45.5 -90.5t-33.5 -103.5t-24.5 -112h295l-65 -166h-263q-29 -139 -72.5 -227t-129.5 -205q7 -2 27.5 -9.5t32 -11t28.5 -7t30 -3.5q33 0 62.5 18t50 42t43 67t35 73t31.5 80h282q-64 -168 -106 -244q-153 -272 -412 -272 q-76 0 -171.5 31t-119.5 35q-57 -38 -129.5 -48t-138 16.5t-92.5 88.5q-15 33 -15.5 69z" />
<glyph unicode="&#xa4;" horiz-adv-x="1247" d="M133 397l119 117q-57 101 -57 217.5t57 216.5l-119 119l168 168l119 -119q100 58 217 58t217 -58l117 119l168 -168l-117 -119q57 -101 57 -217t-57 -217l117 -117l-168 -168l-117 117q-100 -58 -217 -58t-217 58l-119 -117zM468 731q0 -69 50 -119q51 -47 119.5 -47 t118.5 47q50 50 50 119t-50 119t-118.5 50t-119.5 -50q-50 -50 -50 -119z" />
<glyph unicode="&#xa5;" horiz-adv-x="1097" d="M39 547l63 166h222l6 67h-197l66 166h141l41 522h299l-43 -446l307 446h346l-387 -522h137l-65 -166h-195l-49 -67h215l-65 -166h-267l-219 -547h-336l220 547h-240z" />
<glyph unicode="&#xa6;" horiz-adv-x="784" d="M332 -254v877h133v-877h-133zM332 836v876h133v-876h-133z" />
<glyph unicode="&#xa7;" horiz-adv-x="1200" d="M45 296q11 102 79 149q38 26 87 26q56 0 94.5 -38t38.5 -93q0 -41 -21.5 -74t-54.5 -49q20 -55 80 -55q56 0 86.5 45.5t30.5 89.5q0 35 -29 69.5t-70.5 67t-82.5 70t-70 94t-29 123.5q0 99 61 185.5t189 117.5q3 42 15 82.5t38.5 82.5t63.5 74t95.5 52t129.5 20 q175 0 263 -120q66 -90 55 -202q-10 -102 -79 -149q-38 -26 -87 -26q-56 0 -94.5 38t-38.5 93q0 41 20.5 73t54.5 50q-21 55 -79 55q-56 0 -86.5 -45.5t-30.5 -89.5q0 -35 28.5 -69.5t69.5 -67t82 -70t69.5 -94t28.5 -123.5q0 -100 -61 -186.5t-189 -116.5q-3 -53 -22 -104 t-56.5 -99.5t-105 -78.5t-156.5 -30q-175 0 -262 120q-67 91 -55 203zM410 735q0 -42 26.5 -79t61 -62t80 -62.5t71.5 -72.5q78 35 78 114q0 41 -26.5 78t-60.5 62t-80 62.5t-73 72.5q-77 -34 -77 -113z" />
<glyph unicode="&#xa8;" horiz-adv-x="870" d="M135 1366q0 67 47 114.5t113 47.5q67 0 114.5 -47t47.5 -115q0 -66 -47.5 -113t-114.5 -47q-66 0 -113 47t-47 113zM522 1366q0 67 47 114.5t113 47.5q68 0 115 -47t47 -115q0 -66 -47.5 -113t-114.5 -47q-66 0 -113 47t-47 113z" />
<glyph unicode="&#xa9;" horiz-adv-x="1441" d="M102 483q0 138 61.5 270.5t162 230t234 157t271.5 59.5q225 0 371 -145t146 -365q0 -139 -62 -271.5t-163 -229.5t-235 -156.5t-272 -59.5q-224 0 -369 145t-145 365zM256 481q0 -158 104 -258t261 -100q106 0 211 49t184 126.5t128.5 180.5t49.5 205q0 153 -99.5 256.5 t-265.5 103.5q-109 0 -214.5 -48.5t-184 -126.5t-126.5 -181t-48 -207zM401 479q0 102 55 210.5t152 183.5t203 75q80 0 132.5 -32t69.5 -83.5t8.5 -114t-42.5 -124.5h-209q16 33 26.5 56t19.5 45.5t12 37t2 26t-7.5 16.5t-19.5 5q-46 0 -94.5 -58.5t-77.5 -132t-29 -122.5 q0 -40 20.5 -64t59.5 -24q51 0 113.5 41t103.5 98l98 -74q-52 -88 -152 -149.5t-208 -61.5q-105 0 -170.5 64t-65.5 182z" />
<glyph unicode="&#xaa;" horiz-adv-x="1058" d="M143 805q0 45 12.5 110.5t36.5 143.5t63.5 154.5t88 140t116 102.5t142.5 39q44 0 80.5 -13.5t57 -32.5t34 -38.5t18.5 -32.5l5 -14l303 109l-201 -502q-21 -53 -32.5 -92t-13.5 -60.5t3 -34.5t13 -16.5t20 -3.5q26 0 55 20l76 -88q-117 -92 -236 -92q-48 0 -85 14 t-56 34t-31 39.5t-15 33.5l-3 14q-4 -5 -12.5 -14.5t-35.5 -32.5t-56 -41t-72 -32.5t-86 -14.5q-87 0 -138 55.5t-51 145.5zM406 870q0 -57 51 -57q39 0 80 28.5t63 56.5l21 28l104 264q0 4 -0.5 10t-4.5 22t-11 28t-21.5 22t-34.5 10q-59 0 -119.5 -83t-94 -178.5 t-33.5 -150.5z" />
<glyph unicode="&#xab;" horiz-adv-x="1736" d="M221 485l64 158l696 399l-152 -372l-262 -168l127 -166l-102 -256zM805 485l63 158l697 399l-152 -372l-262 -168l127 -166l-102 -256z" />
<glyph unicode="&#xac;" horiz-adv-x="1247" d="M59 449l113 276h932l-223 -551h-283l113 275h-652z" />
<glyph unicode="&#xad;" horiz-adv-x="1075" d="M260 485l82 205h594l-82 -205h-594z" />
<glyph unicode="&#xae;" horiz-adv-x="860" d="M119 985q0 133 73.5 251.5t193 188.5t249.5 70q161 0 263.5 -104t102.5 -261q0 -98 -44 -191.5t-115 -162t-166 -110t-193 -41.5q-160 0 -263 102.5t-101 257.5zM248 987q0 -104 64 -168.5t180 -64.5q27 0 51 3.5t35 6.5l10 4q-13 16 -13 53q0 24 8.5 77.5t8.5 64.5 q0 35 -21 49l-63 -160h-113l129 326h117l-43 -107q29 1 50.5 27.5t21.5 56.5t-22.5 49t-63.5 19q-59 0 -91 -37t-32 -74q0 -7 2 -15.5t4 -12.5l2 -5l-96 -22q-8 24 -8 53q0 85 65 144t160 59q83 0 135.5 -45.5t52.5 -112.5q0 -51 -32.5 -91.5t-94.5 -51.5l4 -2 q4 -3 8.5 -6.5t10.5 -9.5t11 -13.5t8 -18.5t3 -24q0 -17 -7 -57.5t-7 -46.5q0 -25 36 1q8 6 15 13q6 5 15 14t33 38.5t42.5 60.5t33.5 78.5t15 93.5q0 101 -65 167t-172 66q-94 0 -183.5 -51t-146.5 -140t-57 -188z" />
<glyph unicode="&#xaf;" horiz-adv-x="757" d="M106 1264l66 157h641l-65 -157h-642z" />
<glyph unicode="&#xb0;" horiz-adv-x="653" d="M152 1145q0 145 102 247.5t248 102.5q141 0 243.5 -103t102.5 -247q0 -142 -102.5 -244t-243.5 -102q-146 0 -248 101.5t-102 244.5zM352 1145q0 -61 44 -103.5t106 -42.5q59 0 102 42.5t43 103.5t-43 104t-102 43q-62 0 -106 -43t-44 -104z" />
<glyph unicode="&#xb1;" horiz-adv-x="1261" d="M-106 0l112 281h934l-113 -281h-933zM94 551l115 278h313l82 203h299l-78 -203h318l-115 -278h-315l-82 -203h-303l82 203h-316z" />
<glyph unicode="&#xb2;" horiz-adv-x="792" d="M-47 610l86 207q183 96 328 211q192 147 192 258q0 33 -14 54.5t-43 21.5q-54 0 -91.5 -65t-39.5 -148h-211q1 45 10.5 92t35.5 100.5t65 95t104.5 68.5t148.5 27q71 0 124 -19t82.5 -51t43.5 -70t14 -81q0 -208 -325 -434l-43 -31l-53 -37h272l-84 -199h-602z" />
<glyph unicode="&#xb3;" horiz-adv-x="774" d="M18 820.5q1 43.5 11.5 85t29.5 77.5h217q-17 -29 -29 -64.5t-16 -71.5t13.5 -60.5t56.5 -24.5q64 0 103.5 58t39.5 112q0 104 -178 84l62 153q58 0 102 12.5t66 29t35.5 38t16.5 34.5t3 22q0 14 -2.5 24.5t-18 21.5t-43.5 11q-85 0 -112 -152h-213q7 42 20.5 82t41.5 85 t66.5 78t99 55t134.5 22q62 0 108 -16.5t70.5 -39t39 -53t18.5 -51.5t4 -41q0 -74 -50 -138.5t-155 -98.5q88 -43 88 -156q0 -57 -21.5 -114.5t-63.5 -110.5t-116 -86t-167 -33q-70 0 -122.5 19t-81 51t-43.5 72.5t-14 84z" />
<glyph unicode="&#xb4;" horiz-adv-x="757" d="M150 1167l272 318h344l-367 -318h-249z" />
<glyph unicode="&#xb5;" horiz-adv-x="1177" d="M-358 -406l594 1469h325l-252 -627q-24 -60 -37 -103.5t-15.5 -68t3 -39t14 -18.5t21.5 -4q57 0 119.5 74t160.5 241l222 545h325l-254 -627q-26 -66 -40.5 -115.5t-17.5 -77t2.5 -43.5t14 -21t21.5 -5q63 0 163 105t206 290q32 -3 67 -28t47 -54q-294 -514 -598 -514 q-92 0 -152 46.5t-77 138.5q-157 -185 -332 -185q-26 0 -51 7l-154 -386h-325z" />
<glyph unicode="&#xb6;" horiz-adv-x="1556" d="M152 811q62 151 210 257t297 106h957l-94 -238h-105l-377 -936q-18 -45 -45.5 -87t-68 -84.5t-98.5 -68.5t-123 -26l-50 166q3 0 8 2t20 10.5t29 21t32.5 38.5t33.5 59l365 905h-142l-378 -936q-18 -45 -45.5 -87.5t-68.5 -84.5t-98 -68t-122 -26l-49 166q3 0 8 2 t19.5 10.5t28.5 21t32 38.5t32 59l170 418h-163q-149 0 -212 105.5t-3 256.5z" />
<glyph unicode="&#xb7;" horiz-adv-x="907" d="M274 588q0 88 60.5 149.5t148.5 61.5t148.5 -61.5t60.5 -149.5t-60.5 -148.5t-148.5 -60.5t-148.5 60.5t-60.5 148.5z" />
<glyph unicode="&#xb8;" horiz-adv-x="757" d="M53 -414l90 142q31 -16 68.5 -23t66.5 3.5t29 39.5q0 32 -36 40t-93 -1l117 213h205l-51 -100q54 -16 81 -47.5t27 -88.5q0 -84 -57 -140t-137 -74t-166 -9t-144 45z" />
<glyph unicode="&#xb9;" horiz-adv-x="626" d="M59 1034q73 70 141.5 145.5t115 133t82 105t52.5 72.5l17 26h213l-365 -906h-213l199 500q-19 -20 -74 -79.5t-86 -90.5z" />
<glyph unicode="&#xba;" horiz-adv-x="931" d="M168 897q0 66 18 142.5t59 158t99 147t147 108t193 42.5q141 0 219 -75.5t78 -211.5q0 -68 -18.5 -146.5t-60 -160.5t-99.5 -147.5t-144.5 -107.5t-187.5 -42q-144 0 -223.5 79.5t-79.5 213.5zM412 858q0 -41 17.5 -63.5t47.5 -22.5q59 0 121.5 91t99.5 201t37 177 q0 43 -17 64.5t-44 21.5q-59 0 -122.5 -92.5t-101.5 -202t-38 -174.5z" />
<glyph unicode="&#xbb;" horiz-adv-x="1736" d="M154 84l149 375l266 164l-133 168l103 256l370 -404l-63 -158zM737 84l150 375l264 164l-131 168l102 256l371 -404l-63 -158z" />
<glyph unicode="&#xbc;" horiz-adv-x="1730" d="M135 0l1215 1468h176l-1217 -1468h-174zM162 987q116 111 217.5 231.5t145.5 185.5l44 64h213l-362 -905h-215l198 502q-106 -119 -159 -172zM827 221l80 191l434 493h299l-196 -489q21 2 39 9t25 13l8 6l86 -94q-3 -5 -9 -14t-27 -31t-46.5 -39t-67.5 -31t-88 -14 l-88 -221h-215l90 221h-324zM1085 412h144l119 303z" />
<glyph unicode="&#xbd;" horiz-adv-x="1771" d="M135 0l1215 1468h176l-1217 -1468h-174zM162 987q116 111 217.5 231.5t145.5 185.5l44 64h213l-362 -905h-215l198 502q-106 -119 -159 -172zM885 0l86 207q0 1 28 17t74 43t101 62t110.5 78t101.5 86.5t74.5 92.5t28.5 92q0 31 -14.5 52.5t-42.5 21.5q-52 0 -89.5 -65 t-39.5 -146h-213q1 36 8 74.5t22.5 83t44 83t67 71t96 51t126.5 18.5q71 0 124 -19t82.5 -51.5t43.5 -70.5t14 -81q-2 -209 -317 -428l-62 -45l-39 -26h269l-84 -201h-600z" />
<glyph unicode="&#xbe;" horiz-adv-x="1865" d="M116 783q-7 53 4 103t34 93h217q-17 -29 -29 -64.5t-16 -72t13 -60.5t56 -24q64 0 104 58t40 112q0 104 -179 84l62 155q58 0 101.5 11.5t66 27t36 35.5t16.5 33.5t3 25.5q0 58 -63 58q-86 0 -113 -152h-213q7 42 20.5 82.5t41.5 85.5t66.5 78t99 54.5t134.5 21.5 q62 0 108 -16t70.5 -38.5t39 -52.5t18.5 -51t4 -41q0 -75 -50 -139.5t-155 -97.5q88 -43 88 -158q0 -56 -21.5 -113.5t-63.5 -110.5t-116 -86.5t-167 -33.5q-83 0 -140.5 27.5t-83.5 70t-33 95.5zM268 0l1215 1468h176l-1217 -1468h-174zM963 221l79 191l433 493h299 l-195 -489q20 2 38 9t26 13l8 6l84 -94q-3 -5 -9 -14t-27 -31t-46 -39t-66.5 -31t-87.5 -14l-90 -221h-213l90 221h-323zM1221 412h141l121 303z" />
<glyph unicode="&#xbf;" horiz-adv-x="1081" d="M0 -119q0 67 23 127.5t61.5 108t85.5 91t99 85.5t99 82.5t87 90.5t61 101h277q-25 -90 -84.5 -176t-125 -149.5t-127.5 -122t-102.5 -115t-40.5 -106.5q0 -44 24 -79.5t77 -35.5q86 0 152.5 82.5t66.5 208.5h299q0 -70 -14.5 -138.5t-52.5 -140t-96 -125t-153 -87.5 t-215 -34q-109 0 -190.5 31.5t-125.5 82.5t-64.5 106t-20.5 112zM588 881q0 88 60.5 148.5t148.5 60.5t148.5 -60.5t60.5 -148.5t-60.5 -148.5t-148.5 -60.5t-148.5 60.5t-60.5 148.5z" />
<glyph unicode="&#xc0;" horiz-adv-x="1853" d="M-135 344q0 82 31 157.5t89.5 136t151 96.5t205.5 36q179 0 397 -98l385 651q14 24 41.5 72t41.5 71t39.5 62t43.5 58.5t46 45t54.5 38t61 21.5t72.5 9q150 0 230.5 -108.5t41.5 -264.5l-266 -1008q22 -3 47.5 -0.5t50.5 6.5t55.5 20.5t61.5 42.5t69 72t78 109 q33 -3 68 -28t47 -54q-68 -120 -121.5 -192.5t-116.5 -121.5t-133 -64t-163 -5l-117 -446l-283 158l103 372q-124 50 -308 148q-115 -178 -255 -276.5t-322 -98.5q-197 0 -311.5 110.5t-114.5 272.5zM141 356q0 -61 49 -95t111 -34q14 0 32.5 3.5t51.5 17.5t66.5 37.5 t76.5 68t82 103.5q-148 59 -258 59q-106 0 -158.5 -47.5t-52.5 -112.5zM993 543q149 -82 246 -127l250 913l-21 8zM1223 2083h346l272 -318h-252z" />
<glyph unicode="&#xc1;" horiz-adv-x="1853" d="M-135 344q0 82 31 157.5t89.5 136t151 96.5t205.5 36q179 0 397 -98l385 651q14 24 41.5 72t41.5 71t39.5 62t43.5 58.5t46 45t54.5 38t61 21.5t72.5 9q150 0 230.5 -108.5t41.5 -264.5l-266 -1008q22 -3 47.5 -0.5t50.5 6.5t55.5 20.5t61.5 42.5t69 72t78 109 q33 -3 68 -28t47 -54q-68 -120 -121.5 -192.5t-116.5 -121.5t-133 -64t-163 -5l-117 -446l-283 158l103 372q-124 50 -308 148q-115 -178 -255 -276.5t-322 -98.5q-197 0 -311.5 110.5t-114.5 272.5zM141 356q0 -61 49 -95t111 -34q14 0 32.5 3.5t51.5 17.5t66.5 37.5 t76.5 68t82 103.5q-148 59 -258 59q-106 0 -158.5 -47.5t-52.5 -112.5zM993 543q149 -82 246 -127l250 913l-21 8zM1485 1765l272 318h344l-364 -318h-252z" />
<glyph unicode="&#xc2;" horiz-adv-x="1853" d="M-135 344q0 82 31 157.5t89.5 136t151 96.5t205.5 36q179 0 397 -98l385 651q14 24 41.5 72t41.5 71t39.5 62t43.5 58.5t46 45t54.5 38t61 21.5t72.5 9q150 0 230.5 -108.5t41.5 -264.5l-266 -1008q22 -3 47.5 -0.5t50.5 6.5t55.5 20.5t61.5 42.5t69 72t78 109 q33 -3 68 -28t47 -54q-68 -120 -121.5 -192.5t-116.5 -121.5t-133 -64t-163 -5l-117 -446l-283 158l103 372q-124 50 -308 148q-115 -178 -255 -276.5t-322 -98.5q-197 0 -311.5 110.5t-114.5 272.5zM141 356q0 -61 49 -95t111 -34q14 0 32.5 3.5t51.5 17.5t66.5 37.5 t76.5 68t82 103.5q-148 59 -258 59q-106 0 -158.5 -47.5t-52.5 -112.5zM993 543q149 -82 246 -127l250 913l-21 8zM1223 1767l463 363h163l174 -363h-225l-90 150l-201 -150h-284z" />
<glyph unicode="&#xc3;" horiz-adv-x="1853" d="M-135 344q0 82 31 157.5t89.5 136t151 96.5t205.5 36q179 0 397 -98l385 651q14 24 41.5 72t41.5 71t39.5 62t43.5 58.5t46 45t54.5 38t61 21.5t72.5 9q150 0 230.5 -108.5t41.5 -264.5l-266 -1008q22 -3 47.5 -0.5t50.5 6.5t55.5 20.5t61.5 42.5t69 72t78 109 q33 -3 68 -28t47 -54q-68 -120 -121.5 -192.5t-116.5 -121.5t-133 -64t-163 -5l-117 -446l-283 158l103 372q-124 50 -308 148q-115 -178 -255 -276.5t-322 -98.5q-197 0 -311.5 110.5t-114.5 272.5zM141 356q0 -61 49 -95t111 -34q14 0 32.5 3.5t51.5 17.5t66.5 37.5 t76.5 68t82 103.5q-148 59 -258 59q-106 0 -158.5 -47.5t-52.5 -112.5zM993 543q149 -82 246 -127l250 913l-21 8zM1311 1876q60 88 94 119q65 61 147 61q49 0 93 -19.5t81.5 -39t69.5 -19.5q29 0 59.5 19t51.5 53l98 -108q-22 -32 -34.5 -49t-37.5 -45t-47.5 -43t-55 -26.5 t-67.5 -11.5q-49 0 -92.5 19.5t-80.5 39t-70 19.5q-27 0 -57.5 -20t-53.5 -53z" />
<glyph unicode="&#xc4;" horiz-adv-x="1853" d="M-135 344q0 82 31 157.5t89.5 136t151 96.5t205.5 36q179 0 397 -98l385 651q14 24 41.5 72t41.5 71t39.5 62t43.5 58.5t46 45t54.5 38t61 21.5t72.5 9q150 0 230.5 -108.5t41.5 -264.5l-266 -1008q22 -3 47.5 -0.5t50.5 6.5t55.5 20.5t61.5 42.5t69 72t78 109 q33 -3 68 -28t47 -54q-68 -120 -121.5 -192.5t-116.5 -121.5t-133 -64t-163 -5l-117 -446l-283 158l103 372q-124 50 -308 148q-115 -178 -255 -276.5t-322 -98.5q-197 0 -311.5 110.5t-114.5 272.5zM141 356q0 -61 49 -95t111 -34q14 0 32.5 3.5t51.5 17.5t66.5 37.5 t76.5 68t82 103.5q-148 59 -258 59q-106 0 -158.5 -47.5t-52.5 -112.5zM993 543q149 -82 246 -127l250 913l-21 8zM1272 1911q0 67 47 114.5t113 47.5q67 0 114 -47t47 -115q0 -66 -47 -113t-114 -47q-66 0 -113 47t-47 113zM1659 1911q0 67 47 114.5t113 47.5q67 0 114 -47 t47 -115q0 -66 -47 -113t-114 -47q-66 0 -113 47t-47 113z" />
<glyph unicode="&#xc5;" horiz-adv-x="1853" d="M-135 344q0 82 31 157.5t89.5 136t151 96.5t205.5 36q179 0 397 -98l385 651q14 24 41.5 72t41.5 71t39.5 62t43.5 58.5t46 45t54.5 38t61 21.5t72.5 9q150 0 230.5 -108.5t41.5 -264.5l-266 -1008q22 -3 47.5 -0.5t50.5 6.5t55.5 20.5t61.5 42.5t69 72t78 109 q33 -3 68 -28t47 -54q-68 -120 -121.5 -192.5t-116.5 -121.5t-133 -64t-163 -5l-117 -446l-283 158l103 372q-124 50 -308 148q-115 -178 -255 -276.5t-322 -98.5q-197 0 -311.5 110.5t-114.5 272.5zM141 356q0 -61 49 -95t111 -34q14 0 32.5 3.5t51.5 17.5t66.5 37.5 t76.5 68t82 103.5q-148 59 -258 59q-106 0 -158.5 -47.5t-52.5 -112.5zM993 543q149 -82 246 -127l250 913l-21 8zM1470 2009q0 117 81.5 198t197.5 81q117 0 198 -81t81 -198q0 -116 -81 -197t-198 -81q-116 0 -197.5 81.5t-81.5 196.5zM1645 2009q0 -43 30.5 -73.5 t73.5 -30.5t73.5 30.5t30.5 73.5t-30.5 74t-73.5 31t-73.5 -31t-30.5 -74z" />
<glyph unicode="&#xc6;" horiz-adv-x="2566" d="M-135 344q0 82 31 157.5t89.5 136t151 96.5t205.5 36q179 0 397 -98l385 651q14 24 41.5 72t41.5 71t39.5 62t43.5 58.5t46 45t54.5 38t61 21.5t72.5 9q150 0 230.5 -108.5t41.5 -264.5l-96 -360q80 20 172 14q-21 55 -21 143q0 165 80 301q-60 170 -51 373l209 -29 q-3 -85 12 -159q150 102 332 102q100 0 178 -30t123 -80.5t67.5 -108.5t22.5 -121q0 -145 -107 -249.5t-284 -104.5q-166 0 -291 98q1 -49 13 -94t27 -74.5t33 -54t29 -35t17 -14.5l-156 -232q-4 3 -11.5 9t-32 20.5t-51 25.5t-67 20t-81.5 9q-132 0 -212.5 -84t-80.5 -221 q0 -136 81 -226.5t212 -90.5q68 0 125.5 25.5t95 69.5t58.5 98.5t19.5 117t-26.5 121.5l291 82q56 -170 28 -317.5t-111.5 -257t-213.5 -172t-277 -62.5q-124 0 -231 45t-186 125l-78 -291l-283 158l103 372q-124 50 -308 148q-113 -174 -254 -269.5t-323 -95.5 q-198 0 -312 106t-114 267zM141 356q0 -61 48 -90.5t112 -29.5q14 0 31 2.5t51 15.5t67.5 34.5t77 65.5t82.5 103q-148 59 -258 59q-106 0 -158.5 -47.5t-52.5 -112.5zM993 543q149 -82 246 -127l250 913l-21 8zM2218 1348q87 -93 197 -93q55 0 94 23.5t39 64.5 q0 40 -38 65.5t-97 25.5q-115 0 -195 -86z" />
<glyph unicode="&#xc7;" horiz-adv-x="1538" d="M0 1104q0 155 74 279.5t194 193.5l156 -227q-105 -53 -135 -168q-10 -37 -10 -80q0 -20 2 -40t14 -56t31.5 -66t59 -62t93.5 -51q47 133 109.5 257.5t144.5 239.5t172.5 200.5t198.5 136.5t217 51q117 0 200.5 -56.5t121.5 -144.5t38 -196q0 -151 -84 -312.5t-245 -281.5 q-257 -193 -619 -193h-6q-27 -111 -27 -202q0 -224 197 -224q68 0 152 26.5t177 79.5t187 147t164 214q33 -3 68 -28t47 -54q-153 -265 -362 -423.5t-451 -176.5l-39 -73q54 -16 82 -47.5t28 -88.5q0 -84 -57 -140.5t-137.5 -74.5t-167 -9t-144.5 46l93 140 q31 -16 67.5 -22.5t66 3.5t29.5 41q0 22 -16.5 32t-45 10.5t-67.5 -3.5l107 197q-151 36 -225 147t-74 281q0 102 29 247q-196 64 -302 203.5t-106 327.5zM809 799q211 19 358 145q93 80 139 176.5t46 167.5q0 43 -20 72t-64 29q-72 0 -158.5 -86.5t-162.5 -217.5t-138 -286 z" />
<glyph unicode="&#xc8;" horiz-adv-x="1310" d="M0 381q0 134 53.5 252.5t140 197.5t198 120t224.5 30q-20 55 -20 143q0 165 80 301q-60 170 -51 373l209 -29q-3 -85 12 -159q150 102 332 102q100 0 178 -30t123 -80.5t67.5 -108.5t22.5 -121q0 -145 -107 -249.5t-284 -104.5q-166 0 -291 98q1 -49 13 -94t27 -74.5 t33 -54t29 -35t17 -14.5l-156 -232q-4 3 -11.5 9t-32 20.5t-51 25.5t-67.5 20t-82 9q-132 0 -212.5 -84.5t-80.5 -222.5q0 -137 81 -230t218 -93q69 0 129 26.5t99.5 72t62 102t21 120.5t-26.5 123l272 78q57 -171 30.5 -318.5t-109 -256.5t-211.5 -171.5t-277 -62.5 q-129 0 -242 47.5t-191.5 128.5t-123.5 192t-45 234zM928 2101h344l272 -317h-250zM963 1348q87 -93 196 -93q55 0 94 23.5t39 64.5q0 40 -38 65.5t-97 25.5q-114 0 -194 -86z" />
<glyph unicode="&#xc9;" horiz-adv-x="1310" d="M0 381q0 134 53.5 252.5t140 197.5t198 120t224.5 30q-20 55 -20 143q0 165 80 301q-60 170 -51 373l209 -29q-3 -85 12 -159q150 102 332 102q100 0 178 -30t123 -80.5t67.5 -108.5t22.5 -121q0 -145 -107 -249.5t-284 -104.5q-166 0 -291 98q1 -49 13 -94t27 -74.5 t33 -54t29 -35t17 -14.5l-156 -232q-4 3 -11.5 9t-32 20.5t-51 25.5t-67.5 20t-82 9q-132 0 -212.5 -84.5t-80.5 -222.5q0 -137 81 -230t218 -93q69 0 129 26.5t99.5 72t62 102t21 120.5t-26.5 123l272 78q57 -171 30.5 -318.5t-109 -256.5t-211.5 -171.5t-277 -62.5 q-129 0 -242 47.5t-191.5 128.5t-123.5 192t-45 234zM963 1348q87 -93 196 -93q55 0 94 23.5t39 64.5q0 40 -38 65.5t-97 25.5q-114 0 -194 -86zM1167 1784l273 317h344l-367 -317h-250z" />
<glyph unicode="&#xca;" horiz-adv-x="1310" d="M0 381q0 134 53.5 252.5t140 197.5t198 120t224.5 30q-20 55 -20 143q0 165 80 301q-60 170 -51 373l209 -29q-3 -85 12 -159q150 102 332 102q100 0 178 -30t123 -80.5t67.5 -108.5t22.5 -121q0 -145 -107 -249.5t-284 -104.5q-166 0 -291 98q1 -49 13 -94t27 -74.5 t33 -54t29 -35t17 -14.5l-156 -232q-4 3 -11.5 9t-32 20.5t-51 25.5t-67.5 20t-82 9q-132 0 -212.5 -84.5t-80.5 -222.5q0 -137 81 -230t218 -93q69 0 129 26.5t99.5 72t62 102t21 120.5t-26.5 123l272 78q57 -171 30.5 -318.5t-109 -256.5t-211.5 -171.5t-277 -62.5 q-129 0 -242 47.5t-191.5 128.5t-123.5 192t-45 234zM899 1786l465 362h164l172 -362h-223l-91 149l-200 -149h-287zM963 1348q87 -93 196 -93q55 0 94 23.5t39 64.5q0 40 -38 65.5t-97 25.5q-114 0 -194 -86z" />
<glyph unicode="&#xcb;" horiz-adv-x="1310" d="M0 381q0 134 53.5 252.5t140 197.5t198 120t224.5 30q-20 55 -20 143q0 165 80 301q-60 170 -51 373l209 -29q-3 -85 12 -159q150 102 332 102q100 0 178 -30t123 -80.5t67.5 -108.5t22.5 -121q0 -145 -107 -249.5t-284 -104.5q-166 0 -291 98q1 -49 13 -94t27 -74.5 t33 -54t29 -35t17 -14.5l-156 -232q-4 3 -11.5 9t-32 20.5t-51 25.5t-67.5 20t-82 9q-132 0 -212.5 -84.5t-80.5 -222.5q0 -137 81 -230t218 -93q69 0 129 26.5t99.5 72t62 102t21 120.5t-26.5 123l272 78q57 -171 30.5 -318.5t-109 -256.5t-211.5 -171.5t-277 -62.5 q-129 0 -242 47.5t-191.5 128.5t-123.5 192t-45 234zM954 1927q0 67 48 114.5t114 47.5t114 -47.5t48 -114.5q0 -66 -48 -113t-114 -47t-114 47t-48 113zM963 1348q87 -93 196 -93q55 0 94 23.5t39 64.5q0 40 -38 65.5t-97 25.5q-114 0 -194 -86zM1341 1927q0 67 48 114.5 t114 47.5t114 -47.5t48 -114.5q0 -66 -48 -113t-114 -47t-114 47t-48 113z" />
<glyph unicode="&#xcc;" horiz-adv-x="1296" d="M-125 258q0 96 36.5 181.5t101 147.5t161 94.5t209.5 23.5v-271q-68 5 -116.5 -11t-71 -46t-32 -58.5t-9.5 -58.5q0 -79 60 -135.5t146 -56.5q136 0 244 118t199 340l297 738h-1l-1 -1h-1h-1l-1 -1h-1h-1l-1 -1h-1h-1h-1l-1 -1h-1h-1l-1 -1h-1h-1l-1 -1h-1h-1l-1 -1h-1 h-1l-1 -1h-1h-1q-231 -73 -314 -115q-149 -77 -150 -180q0 -65 46.5 -94t97.5 -29v-267q-187 0 -303.5 105.5t-114.5 271.5q0 59 14.5 111.5t39 94.5t64 80.5t81 67.5t100.5 58t111.5 50.5t124 46t129 42.5t135.5 43t135 45q130 137 299 137l59 -176q-4 -2 -11.5 -5.5 t-29 -18.5t-41 -34.5t-43.5 -54.5t-41 -77l-401 -998q-53 -135 -122 -237.5t-137.5 -163t-147 -98.5t-144.5 -51t-137 -13q-121 0 -218.5 39t-157 105t-91 147t-31.5 170zM1024 2128h344l274 -318h-251z" />
<glyph unicode="&#xcd;" horiz-adv-x="1296" d="M-125 258q0 96 36.5 181.5t101 147.5t161 94.5t209.5 23.5v-271q-68 5 -116.5 -11t-71 -46t-32 -58.5t-9.5 -58.5q0 -79 60 -135.5t146 -56.5q136 0 244 118t199 340l297 738h-1l-1 -1h-1h-1l-1 -1h-1h-1l-1 -1h-1h-1h-1l-1 -1h-1h-1l-1 -1h-1h-1l-1 -1h-1h-1l-1 -1h-1 h-1l-1 -1h-1h-1q-231 -73 -314 -115q-149 -77 -150 -180q0 -65 46.5 -94t97.5 -29v-267q-187 0 -303.5 105.5t-114.5 271.5q0 59 14.5 111.5t39 94.5t64 80.5t81 67.5t100.5 58t111.5 50.5t124 46t129 42.5t135.5 43t135 45q130 137 299 137l59 -176q-4 -2 -11.5 -5.5 t-29 -18.5t-41 -34.5t-43.5 -54.5t-41 -77l-401 -998q-53 -135 -122 -237.5t-137.5 -163t-147 -98.5t-144.5 -51t-137 -13q-121 0 -218.5 39t-157 105t-91 147t-31.5 170zM1311 1810l272 318h344l-364 -318h-252z" />
<glyph unicode="&#xce;" horiz-adv-x="1296" d="M-125 258q0 96 36.5 181.5t101 147.5t161 94.5t209.5 23.5v-271q-68 5 -116.5 -11t-71 -46t-32 -58.5t-9.5 -58.5q0 -79 60 -135.5t146 -56.5q136 0 244 118t199 340l297 738h-1l-1 -1h-1h-1l-1 -1h-1h-1l-1 -1h-1h-1h-1l-1 -1h-1h-1l-1 -1h-1h-1l-1 -1h-1h-1l-1 -1h-1 h-1l-1 -1h-1h-1q-231 -73 -314 -115q-149 -77 -150 -180q0 -65 46.5 -94t97.5 -29v-267q-187 0 -303.5 105.5t-114.5 271.5q0 59 14.5 111.5t39 94.5t64 80.5t81 67.5t100.5 58t111.5 50.5t124 46t129 42.5t135.5 43t135 45q130 137 299 137l59 -176q-4 -2 -11.5 -5.5 t-29 -18.5t-41 -34.5t-43.5 -54.5t-41 -77l-401 -998q-53 -135 -122 -237.5t-137.5 -163t-147 -98.5t-144.5 -51t-137 -13q-121 0 -218.5 39t-157 105t-91 147t-31.5 170zM981 1812l463 363h166l172 -363h-223l-91 150l-202 -150h-285z" />
<glyph unicode="&#xcf;" horiz-adv-x="1296" d="M-125 258q0 96 36.5 181.5t101 147.5t161 94.5t209.5 23.5v-271q-68 5 -116.5 -11t-71 -46t-32 -58.5t-9.5 -58.5q0 -79 60 -135.5t146 -56.5q136 0 244 118t199 340l297 738h-1l-1 -1h-1h-1l-1 -1h-1h-1l-1 -1h-1h-1h-1l-1 -1h-1h-1l-1 -1h-1h-1l-1 -1h-1h-1l-1 -1h-1 h-1l-1 -1h-1h-1q-231 -73 -314 -115q-149 -77 -150 -180q0 -65 46.5 -94t97.5 -29v-267q-187 0 -303.5 105.5t-114.5 271.5q0 59 14.5 111.5t39 94.5t64 80.5t81 67.5t100.5 58t111.5 50.5t124 46t129 42.5t135.5 43t135 45q130 137 299 137l59 -176q-4 -2 -11.5 -5.5 t-29 -18.5t-41 -34.5t-43.5 -54.5t-41 -77l-401 -998q-53 -135 -122 -237.5t-137.5 -163t-147 -98.5t-144.5 -51t-137 -13q-121 0 -218.5 39t-157 105t-91 147t-31.5 170zM1085 1956q0 67 47 114.5t113 47.5q67 0 114.5 -47t47.5 -115q0 -66 -47.5 -113t-114.5 -47 q-66 0 -113 47t-47 113zM1473 1956q0 67 46.5 114.5t112.5 47.5q68 0 115 -47t47 -115q0 -66 -47.5 -113t-114.5 -47q-66 0 -112.5 47t-46.5 113z" />
<glyph unicode="&#xd0;" horiz-adv-x="2013" d="M-61 242q0 43 12 87t39 87t66.5 75.5t99.5 53t133 20.5q84 0 167.5 -30.5t186.5 -100.5q40 72 47 88h-104l82 205h106l135 336q48 120 156 208.5t250 88.5l59 -174q-4 -2 -11.5 -6t-29.5 -20t-41.5 -35.5t-43 -55t-40.5 -76.5q-57 -137 -108 -266h162l-82 -205h-162 q-5 -11 -22.5 -50t-25.5 -56t-23.5 -49t-31 -59t-32.5 -54q141 -104 264 -104q91 0 176.5 49t150.5 132.5t114 188t74.5 220t25.5 225.5q0 106 -26 194t-79.5 156.5t-143 106.5t-208.5 38q-103 0 -193 -29t-152 -77t-107 -109t-66 -124.5t-21 -123.5q0 -44 12 -91t24 -72 l11 -25l-217 -162q-4 6 -10 16t-22.5 45t-29 72.5t-22.5 94.5t-10 114q0 110 33.5 215t102.5 197t165.5 161.5t231 109.5t290.5 40q185 0 330.5 -55.5t239 -155.5t142 -237t48.5 -303q0 -117 -24 -240.5t-70 -244t-119 -227t-164.5 -188t-213 -129t-257.5 -47.5 q-71 0 -130 12.5t-112.5 40.5t-95 57.5t-98.5 78.5q-173 -150 -405 -150q-104 0 -182.5 30.5t-120 79.5t-61 101.5t-19.5 106.5zM182 260q0 -41 33 -61.5t88 -20.5q106 0 201 82q-122 94 -203 94q-56 0 -87.5 -27.5t-31.5 -66.5z" />
<glyph unicode="&#xd1;" horiz-adv-x="1765" d="M0 915q0 77 25 143t65 115t105 93t130.5 75t156.5 64t168 57t180 57.5t178 61.5l219 -264q273 246 465 246q96 0 149 -61t53 -154q0 -90 -77 -283l-426 -1061q-17 -48 -23 -82t0.5 -66t31 -57.5t68.5 -48.5l-100 -248q-116 39 -190 99.5t-102.5 135t-25 155.5t36.5 171 l355 879q8 21 28 71t27.5 69.5t19 50.5t15.5 49t4 30q0 22 -13 35t-34 13q-56 0 -179.5 -89.5t-217.5 -189.5l-404 -1008h-326l521 1295q-41 -14 -103 -33.5t-101.5 -32t-92.5 -30.5t-87 -32.5t-74 -33t-64 -37t-45.5 -41t-31.5 -47.5t-10 -53q0 -65 46.5 -94t97.5 -29v-266 q-187 0 -303.5 105t-114.5 271zM1204 1790q26 37 35.5 51t37 45.5t48 45t53.5 26t68 12.5q49 0 93 -19.5t81.5 -39t69.5 -19.5q29 0 59 19t51 53l96 -109q-20 -31 -33 -49t-37.5 -45t-46.5 -42t-54.5 -26.5t-67.5 -11.5q-49 0 -92.5 19.5t-81 39t-70.5 19.5q-27 0 -57 -20 t-53 -53z" />
<glyph unicode="&#xd2;" horiz-adv-x="1488" d="M0 342q0 118 28.5 254.5t87.5 279.5t140.5 270t197 231.5t246.5 158.5q137 170 342 170q79 0 147.5 -27t126 -83t91 -155t33.5 -231q0 -192 -63.5 -420t-178.5 -428q201 -11 330 207q32 -3 67 -28t47 -54q-28 -49 -66 -94t-91 -90t-113 -72.5t-133.5 -40.5t-151.5 5 q-132 -176 -293 -277.5t-343 -101.5q-95 0 -172 28.5t-128 77t-85.5 116t-50 143.5t-15.5 161zM303 322q0 -110 41 -182t127 -72q161 0 334 254q-6 4 -17 12.5t-42 40t-58.5 68.5t-60 99.5t-55 131.5t-35.5 165.5t-7 200.5q-96 -171 -161.5 -372t-65.5 -346zM694 2083h346 l273 -318h-252zM786 967q0 -274 138 -449q90 177 146 364.5t56 305.5q0 91 -31.5 140.5t-88.5 49.5q-88 0 -154 -111t-66 -300z" />
<glyph unicode="&#xd3;" horiz-adv-x="1488" d="M0 342q0 118 28.5 254.5t87.5 279.5t140.5 270t197 231.5t246.5 158.5q137 170 342 170q79 0 147.5 -27t126 -83t91 -155t33.5 -231q0 -192 -63.5 -420t-178.5 -428q201 -11 330 207q32 -3 67 -28t47 -54q-28 -49 -66 -94t-91 -90t-113 -72.5t-133.5 -40.5t-151.5 5 q-132 -176 -293 -277.5t-343 -101.5q-95 0 -172 28.5t-128 77t-85.5 116t-50 143.5t-15.5 161zM303 322q0 -110 41 -182t127 -72q161 0 334 254q-6 4 -17 12.5t-42 40t-58.5 68.5t-60 99.5t-55 131.5t-35.5 165.5t-7 200.5q-96 -171 -161.5 -372t-65.5 -346zM786 967 q0 -274 138 -449q90 177 146 364.5t56 305.5q0 91 -31.5 140.5t-88.5 49.5q-88 0 -154 -111t-66 -300zM909 1765l273 318h344l-365 -318h-252z" />
<glyph unicode="&#xd4;" horiz-adv-x="1488" d="M0 342q0 118 28.5 254.5t87.5 279.5t140.5 270t197 231.5t246.5 158.5q137 170 342 170q79 0 147.5 -27t126 -83t91 -155t33.5 -231q0 -192 -63.5 -420t-178.5 -428q201 -11 330 207q32 -3 67 -28t47 -54q-28 -49 -66 -94t-91 -90t-113 -72.5t-133.5 -40.5t-151.5 5 q-132 -176 -293 -277.5t-343 -101.5q-95 0 -172 28.5t-128 77t-85.5 116t-50 143.5t-15.5 161zM303 322q0 -110 41 -182t127 -72q161 0 334 254q-6 4 -17 12.5t-42 40t-58.5 68.5t-60 99.5t-55 131.5t-35.5 165.5t-7 200.5q-96 -171 -161.5 -372t-65.5 -346zM690 1767 l463 363h164l174 -363h-225l-90 150l-201 -150h-285zM786 967q0 -274 138 -449q90 177 146 364.5t56 305.5q0 91 -31.5 140.5t-88.5 49.5q-88 0 -154 -111t-66 -300z" />
<glyph unicode="&#xd5;" horiz-adv-x="1488" d="M0 342q0 118 28.5 254.5t87.5 279.5t140.5 270t197 231.5t246.5 158.5q137 170 342 170q79 0 147.5 -27t126 -83t91 -155t33.5 -231q0 -192 -63.5 -420t-178.5 -428q201 -11 330 207q32 -3 67 -28t47 -54q-28 -49 -66 -94t-91 -90t-113 -72.5t-133.5 -40.5t-151.5 5 q-132 -176 -293 -277.5t-343 -101.5q-95 0 -172 28.5t-128 77t-85.5 116t-50 143.5t-15.5 161zM303 322q0 -110 41 -182t127 -72q161 0 334 254q-6 4 -17 12.5t-42 40t-58.5 68.5t-60 99.5t-55 131.5t-35.5 165.5t-7 200.5q-96 -171 -161.5 -372t-65.5 -346zM786 967 q0 -274 138 -449q90 177 146 364.5t56 305.5q0 91 -31.5 140.5t-88.5 49.5q-88 0 -154 -111t-66 -300zM805 1876q26 37 35.5 51t37 45.5t48 45t53.5 26t68 12.5q49 0 93 -19.5t81 -39t69 -19.5q29 0 59.5 19t51.5 53l96 -108q-25 -39 -43 -62t-48.5 -53t-67.5 -45t-81 -15 q-49 0 -92.5 19.5t-80.5 39t-70 19.5q-27 0 -57.5 -20t-53.5 -53z" />
<glyph unicode="&#xd6;" horiz-adv-x="1488" d="M0 342q0 118 28.5 254.5t87.5 279.5t140.5 270t197 231.5t246.5 158.5q137 170 342 170q79 0 147.5 -27t126 -83t91 -155t33.5 -231q0 -192 -63.5 -420t-178.5 -428q201 -11 330 207q32 -3 67 -28t47 -54q-28 -49 -66 -94t-91 -90t-113 -72.5t-133.5 -40.5t-151.5 5 q-132 -176 -293 -277.5t-343 -101.5q-95 0 -172 28.5t-128 77t-85.5 116t-50 143.5t-15.5 161zM303 322q0 -110 41 -182t127 -72q161 0 334 254q-6 4 -17 12.5t-42 40t-58.5 68.5t-60 99.5t-55 131.5t-35.5 165.5t-7 200.5q-96 -171 -161.5 -372t-65.5 -346zM776 1911 q0 67 46.5 113.5t111.5 46.5q68 0 115 -46.5t47 -113.5q0 -66 -47 -112t-115 -46q-65 0 -111.5 46t-46.5 112zM786 967q0 -274 138 -449q90 177 146 364.5t56 305.5q0 91 -31.5 140.5t-88.5 49.5q-88 0 -154 -111t-66 -300zM1161 1911q0 67 47 113.5t113 46.5t113 -46.5 t47 -113.5q0 -66 -47 -112t-113 -46t-113 46t-47 112z" />
<glyph unicode="&#xd7;" horiz-adv-x="1249" d="M68 381l325 233l-125 207l232 168l125 -209l340 242l135 -240l-334 -239q101 -173 135 -228l-235 -163l-136 227l-325 -232z" />
<glyph unicode="&#xd8;" horiz-adv-x="1488" d="M0 342q0 118 28.5 254.5t87.5 279.5t140.5 270t197 231.5t246.5 158.5q116 146 283 166l51 129h146l-54 -133q65 -13 119 -46t99 -90t70.5 -147t25.5 -205q0 -192 -63.5 -420t-178.5 -428q201 -11 330 207q32 -3 67 -28t47 -54q-27 -60 -79 -118t-123 -105.5t-164.5 -68 t-188.5 -0.5q-145 -196 -329 -298.5t-391 -74.5l-70 -176h-145l88 217q-120 59 -180 186t-60 293zM303 322q0 -110 41 -182t127 -72q161 0 334 254q-6 4 -17 12.5t-42 40t-58.5 68.5t-60 99.5t-55 131.5t-35.5 165.5t-7 200.5q-96 -171 -161.5 -372t-65.5 -346zM786 967 q0 -274 138 -449q90 177 146 364.5t56 305.5q0 91 -31.5 140.5t-88.5 49.5q-88 0 -154 -111t-66 -300z" />
<glyph unicode="&#xd9;" horiz-adv-x="1830" d="M0 813q0 59 14.5 111.5t39 94t64.5 80t81 67.5t100.5 58.5t112 50.5t124.5 46t129 43t135.5 43t135.5 45q58 74 141.5 120t182.5 46l59 -176q-4 -2 -11.5 -5.5t-29 -19t-41 -35t-43.5 -55t-41 -78.5l-305 -755q-50 -126 -58 -195.5t4 -79.5t31 -10q89 0 225 119.5 t210 261.5l358 897h326l-416 -1043q-23 -60 -33.5 -104.5t-10 -69t9 -39t19 -18.5t25.5 -4q69 0 145 84.5t187 275.5q33 -3 68 -28t47 -54q-64 -112 -125 -197t-134 -160.5t-155 -116t-168 -40.5q-104 0 -171.5 60t-55.5 186q-240 -297 -469 -297q-84 0 -142.5 38.5 t-87 113.5t-12.5 197.5t80 277.5l235 584q-16 -5 -47 -15q-50 -16 -74.5 -24t-68.5 -22.5t-66.5 -24t-58.5 -24.5t-55.5 -26.5t-45 -27.5t-39 -31t-27 -33.5t-19 -38t-5.5 -41.5q0 -35 15 -61t38.5 -38.5t46 -18t44.5 -5.5v-268q-187 0 -303.5 106.5t-114.5 272.5z M1176 1997h346l272 -318h-252z" />
<glyph unicode="&#xda;" horiz-adv-x="1830" d="M0 813q0 59 14.5 111.5t39 94t64.5 80t81 67.5t100.5 58.5t112 50.5t124.5 46t129 43t135.5 43t135.5 45q58 74 141.5 120t182.5 46l59 -176q-4 -2 -11.5 -5.5t-29 -19t-41 -35t-43.5 -55t-41 -78.5l-305 -755q-50 -126 -58 -195.5t4 -79.5t31 -10q89 0 225 119.5 t210 261.5l358 897h326l-416 -1043q-23 -60 -33.5 -104.5t-10 -69t9 -39t19 -18.5t25.5 -4q69 0 145 84.5t187 275.5q33 -3 68 -28t47 -54q-64 -112 -125 -197t-134 -160.5t-155 -116t-168 -40.5q-104 0 -171.5 60t-55.5 186q-240 -297 -469 -297q-84 0 -142.5 38.5 t-87 113.5t-12.5 197.5t80 277.5l235 584q-16 -5 -47 -15q-50 -16 -74.5 -24t-68.5 -22.5t-66.5 -24t-58.5 -24.5t-55.5 -26.5t-45 -27.5t-39 -31t-27 -33.5t-19 -38t-5.5 -41.5q0 -35 15 -61t38.5 -38.5t46 -18t44.5 -5.5v-268q-187 0 -303.5 106.5t-114.5 272.5z M1356 1679l272 318h346l-366 -318h-252z" />
<glyph unicode="&#xdb;" horiz-adv-x="1830" d="M0 813q0 59 14.5 111.5t39 94t64.5 80t81 67.5t100.5 58.5t112 50.5t124.5 46t129 43t135.5 43t135.5 45q58 74 141.5 120t182.5 46l59 -176q-4 -2 -11.5 -5.5t-29 -19t-41 -35t-43.5 -55t-41 -78.5l-305 -755q-50 -126 -58 -195.5t4 -79.5t31 -10q89 0 225 119.5 t210 261.5l358 897h326l-416 -1043q-23 -60 -33.5 -104.5t-10 -69t9 -39t19 -18.5t25.5 -4q69 0 145 84.5t187 275.5q33 -3 68 -28t47 -54q-64 -112 -125 -197t-134 -160.5t-155 -116t-168 -40.5q-104 0 -171.5 60t-55.5 186q-240 -297 -469 -297q-84 0 -142.5 38.5 t-87 113.5t-12.5 197.5t80 277.5l235 584q-16 -5 -47 -15q-50 -16 -74.5 -24t-68.5 -22.5t-66.5 -24t-58.5 -24.5t-55.5 -26.5t-45 -27.5t-39 -31t-27 -33.5t-19 -38t-5.5 -41.5q0 -35 15 -61t38.5 -38.5t46 -18t44.5 -5.5v-268q-187 0 -303.5 106.5t-114.5 272.5z M1120 1681l463 363h164l174 -363h-223l-90 150l-203 -150h-285z" />
<glyph unicode="&#xdc;" horiz-adv-x="1830" d="M0 813q0 59 14.5 111.5t39 94t64.5 80t81 67.5t100.5 58.5t112 50.5t124.5 46t129 43t135.5 43t135.5 45q58 74 141.5 120t182.5 46l59 -176q-4 -2 -11.5 -5.5t-29 -19t-41 -35t-43.5 -55t-41 -78.5l-305 -755q-50 -126 -58 -195.5t4 -79.5t31 -10q89 0 225 119.5 t210 261.5l358 897h326l-416 -1043q-23 -60 -33.5 -104.5t-10 -69t9 -39t19 -18.5t25.5 -4q69 0 145 84.5t187 275.5q33 -3 68 -28t47 -54q-64 -112 -125 -197t-134 -160.5t-155 -116t-168 -40.5q-104 0 -171.5 60t-55.5 186q-240 -297 -469 -297q-84 0 -142.5 38.5 t-87 113.5t-12.5 197.5t80 277.5l235 584q-16 -5 -47 -15q-50 -16 -74.5 -24t-68.5 -22.5t-66.5 -24t-58.5 -24.5t-55.5 -26.5t-45 -27.5t-39 -31t-27 -33.5t-19 -38t-5.5 -41.5q0 -35 15 -61t38.5 -38.5t46 -18t44.5 -5.5v-268q-187 0 -303.5 106.5t-114.5 272.5z M1186 1825q0 67 47 114.5t113 47.5q67 0 114 -47t47 -115q0 -66 -47 -113t-114 -47q-66 0 -113 47t-47 113zM1573 1825q0 67 47 114.5t113 47.5q67 0 114 -47t47 -115q0 -66 -47 -113t-114 -47q-66 0 -113 47t-47 113z" />
<glyph unicode="&#xdd;" horiz-adv-x="1771" d="M0 813q0 59 14.5 111.5t39 94.5t64 80.5t81 67.5t100.5 58t112 50.5t124.5 46t129 42.5t136 43t135.5 45q58 74 141.5 120t182.5 46l59 -176q-4 -2 -11.5 -5.5t-29 -19t-41 -35t-43.5 -55t-41 -78.5l-305 -755q-50 -125 -58.5 -194t3 -80t32.5 -11q90 0 224.5 120.5 t210.5 260.5l360 897h326l-545 -1348q258 159 409 430q33 -3 68 -28t47 -54q-68 -119 -141.5 -211.5t-153.5 -162t-155 -119.5t-172 -100q-13 -32 -36 -94.5t-39.5 -106t-44.5 -104.5t-54 -104t-64.5 -89.5t-79.5 -75t-96 -47t-117 -18.5q-76 0 -133 25t-87.5 66.5t-45 85.5 t-14.5 91q2 192 262 309q32 16 120 53t121 52l68 165q-184 -180 -361 -180q-65 0 -115.5 24t-82.5 74.5t-41.5 123t11 177t71.5 228.5l237 584q-237 -75 -308 -106q-165 -71 -193 -159q-7 -21 -7 -43q0 -35 15 -61t38.5 -38.5t46 -18t44.5 -5.5v-268q-187 0 -303.5 106.5 t-114.5 272.5zM678 -467q0 -27 17 -39t40 -12q41 0 81 55.5t93 183.5q-115 -52 -129 -61q-43 -24 -72.5 -58t-29.5 -69zM1352 1681l272 318h346l-366 -318h-252z" />
<glyph unicode="&#xde;" horiz-adv-x="1581" d="M2 725q0 73 19 151t57 158t101 152t144 130t194.5 95.5t244.5 44.5q23 55 59.5 104.5t86 92.5t116 68.5t139.5 25.5l60 -176q-3 -1 -9.5 -4t-24 -15t-34.5 -27t-38 -41t-38 -57q118 -31 209 -94t145.5 -144t82.5 -172.5t28 -187.5q0 -160 -71 -304t-197.5 -236.5 t-300.5 -113.5t-381 63l-105 -265h-323l483 1205q-117 -33 -205.5 -110.5t-130 -165.5t-41.5 -173q0 -44 12 -91t24 -72l11 -25l-217 -162q-4 6 -11 17.5t-24 48.5t-30 75t-24 94.5t-11 110.5zM678 444q71 -39 150.5 -42.5t150.5 28.5t129 87t92.5 136.5t34.5 173.5 q0 55 -13 106.5t-41.5 102t-80.5 90.5t-123 60z" />
<glyph unicode="&#xdf;" horiz-adv-x="1177" d="M-266 -184l401 997q33 81 58.5 137t66.5 132.5t80 129t95 109t115.5 90.5t138 56t165.5 22q78 0 139.5 -16.5t99 -43.5t61.5 -63.5t33 -72.5t9 -76q0 -132 -96 -257.5t-215 -185.5q70 -43 110.5 -115.5t40.5 -169.5q0 -53 -13.5 -108.5t-25 -82.5t-14.5 -30 q136 129 234 301q32 -3 67 -28t47 -54q-51 -89 -101.5 -159t-121.5 -139t-148.5 -114.5t-180.5 -73.5t-220 -28q-64 0 -122.5 13t-96 31.5t-66 37.5t-40.5 32l-13 13l105 95q7 -6 19.5 -16t50 -26t73.5 -16q80 0 143 54.5t93 127t30 140.5q0 94 -62 150.5t-177 56.5l77 200 q73 19 131.5 60t90.5 88.5t48.5 91.5t16.5 80q0 57 -63 57q-166 0 -318 -387l-420 -1040h-325z" />
<glyph unicode="&#xe0;" d="M-29 242q0 58 15 139.5t44 177.5t77.5 189.5t108.5 170t144 124t177 47.5q56 0 101.5 -17t70.5 -41.5t42.5 -49t22.5 -41.5l6 -17l383 139l-254 -627q-26 -66 -40.5 -115.5t-17.5 -77t2.5 -43.5t14 -21t21.5 -5q63 0 161 104.5t207 290.5q33 -3 68 -28t47 -54 q-64 -112 -128.5 -199t-140.5 -161t-162.5 -114t-176.5 -40q-60 0 -106.5 17.5t-70.5 42.5t-39.5 50t-19.5 43l-4 17q-6 -7 -16.5 -18.5t-44.5 -40.5t-69.5 -51.5t-88 -41t-102.5 -18.5q-111 0 -171.5 76.5t-60.5 192.5zM289 309q0 -76 65 -76q32 0 65 15t57 37t44 44t30 37 l11 15l133 328q0 5 -0.5 12.5t-6 27t-14 34.5t-27.5 27.5t-44 12.5q-57 0 -116.5 -61.5t-101.5 -146.5t-68.5 -170t-26.5 -136zM432 1485h344l273 -318h-252z" />
<glyph unicode="&#xe1;" d="M-29 242q0 58 15 139.5t44 177.5t77.5 189.5t108.5 170t144 124t177 47.5q56 0 101.5 -17t70.5 -41.5t42.5 -49t22.5 -41.5l6 -17l383 139l-254 -627q-26 -66 -40.5 -115.5t-17.5 -77t2.5 -43.5t14 -21t21.5 -5q63 0 161 104.5t207 290.5q33 -3 68 -28t47 -54 q-64 -112 -128.5 -199t-140.5 -161t-162.5 -114t-176.5 -40q-60 0 -106.5 17.5t-70.5 42.5t-39.5 50t-19.5 43l-4 17q-6 -7 -16.5 -18.5t-44.5 -40.5t-69.5 -51.5t-88 -41t-102.5 -18.5q-111 0 -171.5 76.5t-60.5 192.5zM289 309q0 -76 65 -76q32 0 65 15t57 37t44 44t30 37 l11 15l133 328q0 5 -0.5 12.5t-6 27t-14 34.5t-27.5 27.5t-44 12.5q-57 0 -116.5 -61.5t-101.5 -146.5t-68.5 -170t-26.5 -136zM514 1167l274 318h345l-367 -318h-252z" />
<glyph unicode="&#xe2;" d="M-29 242q0 58 15 139.5t44 177.5t77.5 189.5t108.5 170t144 124t177 47.5q56 0 101.5 -17t70.5 -41.5t42.5 -49t22.5 -41.5l6 -17l383 139l-254 -627q-26 -66 -40.5 -115.5t-17.5 -77t2.5 -43.5t14 -21t21.5 -5q63 0 161 104.5t207 290.5q33 -3 68 -28t47 -54 q-64 -112 -128.5 -199t-140.5 -161t-162.5 -114t-176.5 -40q-60 0 -106.5 17.5t-70.5 42.5t-39.5 50t-19.5 43l-4 17q-6 -7 -16.5 -18.5t-44.5 -40.5t-69.5 -51.5t-88 -41t-102.5 -18.5q-111 0 -171.5 76.5t-60.5 192.5zM289 309q0 -76 65 -76q32 0 65 15t57 37t44 44t30 37 l11 15l133 328q0 5 -0.5 12.5t-6 27t-14 34.5t-27.5 27.5t-44 12.5q-57 0 -116.5 -61.5t-101.5 -146.5t-68.5 -170t-26.5 -136zM344 1147l463 362h166l172 -362h-223l-91 149l-202 -149h-285z" />
<glyph unicode="&#xe3;" d="M-29 242q0 58 15 139.5t44 177.5t77.5 189.5t108.5 170t144 124t177 47.5q56 0 101.5 -17t70.5 -41.5t42.5 -49t22.5 -41.5l6 -17l383 139l-254 -627q-26 -66 -40.5 -115.5t-17.5 -77t2.5 -43.5t14 -21t21.5 -5q63 0 161 104.5t207 290.5q33 -3 68 -28t47 -54 q-64 -112 -128.5 -199t-140.5 -161t-162.5 -114t-176.5 -40q-60 0 -106.5 17.5t-70.5 42.5t-39.5 50t-19.5 43l-4 17q-6 -7 -16.5 -18.5t-44.5 -40.5t-69.5 -51.5t-88 -41t-102.5 -18.5q-111 0 -171.5 76.5t-60.5 192.5zM289 309q0 -76 65 -76q32 0 65 15t57 37t44 44t30 37 l11 15l133 328q0 5 -0.5 12.5t-6 27t-14 34.5t-27.5 27.5t-44 12.5q-57 0 -116.5 -61.5t-101.5 -146.5t-68.5 -170t-26.5 -136zM489 1317q26 37 35.5 51t37 45.5t48 45t53.5 26t68 12.5q49 0 93 -19.5t81.5 -39t69.5 -19.5q29 0 59 19t51 53l99 -109q-27 -40 -44.5 -62 t-48.5 -52.5t-68 -45t-81 -14.5q-49 0 -92.5 19.5t-81 39t-70.5 19.5q-26 0 -56.5 -20t-53.5 -54z" />
<glyph unicode="&#xe4;" d="M-29 242q0 58 15 139.5t44 177.5t77.5 189.5t108.5 170t144 124t177 47.5q56 0 101.5 -17t70.5 -41.5t42.5 -49t22.5 -41.5l6 -17l383 139l-254 -627q-26 -66 -40.5 -115.5t-17.5 -77t2.5 -43.5t14 -21t21.5 -5q63 0 161 104.5t207 290.5q33 -3 68 -28t47 -54 q-64 -112 -128.5 -199t-140.5 -161t-162.5 -114t-176.5 -40q-60 0 -106.5 17.5t-70.5 42.5t-39.5 50t-19.5 43l-4 17q-6 -7 -16.5 -18.5t-44.5 -40.5t-69.5 -51.5t-88 -41t-102.5 -18.5q-111 0 -171.5 76.5t-60.5 192.5zM289 309q0 -76 65 -76q32 0 65 15t57 37t44 44t30 37 l11 15l133 328q0 5 -0.5 12.5t-6 27t-14 34.5t-27.5 27.5t-44 12.5q-57 0 -116.5 -61.5t-101.5 -146.5t-68.5 -170t-26.5 -136zM453 1333q0 67 46.5 114.5t112.5 47.5q68 0 115 -47.5t47 -114.5q0 -66 -47.5 -112.5t-114.5 -46.5q-66 0 -112.5 46.5t-46.5 112.5zM840 1333 q0 67 46.5 114.5t112.5 47.5q67 0 114.5 -47.5t47.5 -114.5q0 -66 -47.5 -112.5t-114.5 -46.5q-66 0 -112.5 46.5t-46.5 112.5z" />
<glyph unicode="&#xe5;" d="M-29 242q0 58 15 139.5t44 177.5t77.5 189.5t108.5 170t144 124t177 47.5q56 0 101.5 -17t70.5 -41.5t42.5 -49t22.5 -41.5l6 -17l383 139l-254 -627q-26 -66 -40.5 -115.5t-17.5 -77t2.5 -43.5t14 -21t21.5 -5q63 0 161 104.5t207 290.5q33 -3 68 -28t47 -54 q-64 -112 -128.5 -199t-140.5 -161t-162.5 -114t-176.5 -40q-60 0 -106.5 17.5t-70.5 42.5t-39.5 50t-19.5 43l-4 17q-6 -7 -16.5 -18.5t-44.5 -40.5t-69.5 -51.5t-88 -41t-102.5 -18.5q-111 0 -171.5 76.5t-60.5 192.5zM289 309q0 -76 65 -76q32 0 65 15t57 37t44 44t30 37 l11 15l133 328q0 5 -0.5 12.5t-6 27t-14 34.5t-27.5 27.5t-44 12.5q-57 0 -116.5 -61.5t-101.5 -146.5t-68.5 -170t-26.5 -136zM578 1419q0 117 81 198t197 81q117 0 199 -81t82 -198q0 -116 -82 -197t-199 -81q-116 0 -197 81.5t-81 196.5zM752 1419q0 -43 30.5 -73.5 t73.5 -30.5t74 30.5t31 73.5t-31 74t-74 31t-73.5 -31t-30.5 -74z" />
<glyph unicode="&#xe6;" horiz-adv-x="1652" d="M-29 242q0 58 15 139.5t44 177.5t77.5 189.5t108.5 170t144 124t177 47.5q56 0 101.5 -17t70.5 -41.5t42.5 -49t22.5 -41.5l6 -17l121 45q150 121 346 121q121 0 209 -50.5t120 -149.5t-34 -247q-26 -58 -61 -102.5t-87 -82t-119 -56t-157.5 -25.5t-202.5 10 q-1 -4 -2.5 -12t-2.5 -30t2 -42t16 -44.5t34.5 -42.5t61 -30t92.5 -12q161 0 315.5 103t260.5 292q32 -3 67 -28t47 -54q-45 -79 -97 -148.5t-125.5 -138.5t-154.5 -117.5t-186 -79t-219 -30.5q-317 0 -397 217q-16 -18 -32.5 -35.5t-61 -53.5t-89 -61.5t-110 -46 t-131.5 -20.5q-111 0 -171.5 76.5t-60.5 192.5zM289 309q0 -76 65 -76q32 0 65 15t57 37t44 44t30 37l11 15l133 328q0 5 -0.5 12.5t-6 27t-14 34.5t-27.5 27.5t-44 12.5q-57 0 -116.5 -61.5t-101.5 -146.5t-68.5 -170t-26.5 -136zM971 563q48 -6 83.5 -7t65.5 10t51 23.5 t39 34.5t29.5 42t22.5 47q11 25 16.5 44t4.5 36.5t-14 26.5t-38 9q-43 0 -85 -27.5t-72.5 -66.5t-54.5 -78t-36 -67z" />
<glyph unicode="&#xe7;" horiz-adv-x="1048" d="M-2 336q0 70 18 151t52 166t89 163t123.5 139.5t161.5 98t197 36.5q147 0 233.5 -66t95 -188.5t-76.5 -296.5h-326q102 210 101 259q-1 33 -41 33q-62 0 -123.5 -59t-103 -141.5t-67.5 -166t-26 -136.5q0 -47 21.5 -79.5t56.5 -47.5t66.5 -21t64.5 -6q159 0 313 103 t260 292q33 -3 68 -28t47 -54q-44 -77 -95.5 -145.5t-123 -136.5t-151 -117t-181 -80.5t-211.5 -34.5l-39 -73q55 -16 83 -47.5t28 -88.5q0 -84 -57 -140t-137.5 -74t-166.5 -9t-145 45l92 142q30 -16 67.5 -23t67 3.5t29.5 39.5q0 32 -36 40t-93 -1l113 209 q-123 33 -185.5 121t-62.5 219z" />
<glyph unicode="&#xe8;" horiz-adv-x="1046" d="M-4 336q0 70 18 150.5t51.5 165.5t89 163t124 139.5t163 98.5t199.5 37q89 0 162.5 -28.5t122 -84.5t54 -139.5t-41.5 -194.5q-27 -58 -62 -102.5t-87.5 -82t-119.5 -56t-157.5 -25.5t-202.5 10q-1 -4 -2.5 -12t-2.5 -30t2 -42t16 -44.5t34.5 -42.5t61 -30t92.5 -12 q161 0 315 103t260 292q33 -3 68 -28t47 -54q-45 -79 -97 -148.5t-125.5 -138.5t-154.5 -117.5t-186 -79t-219 -30.5q-209 0 -315.5 96t-106.5 267zM315 1485h347l272 -318h-252zM365 563q39 -7 73 -7t59.5 5.5t47.5 17t37.5 25t29.5 32.5t23.5 36.5t19.5 40.5 q11 26 16.5 44.5t5 36t-13.5 26.5t-38 9q-43 0 -85 -27.5t-72.5 -66.5t-54.5 -78t-36 -67z" />
<glyph unicode="&#xe9;" horiz-adv-x="1046" d="M-4 336q0 70 18 150.5t51.5 165.5t89 163t124 139.5t163 98.5t199.5 37q89 0 162.5 -28.5t122 -84.5t54 -139.5t-41.5 -194.5q-27 -58 -62 -102.5t-87.5 -82t-119.5 -56t-157.5 -25.5t-202.5 10q-1 -4 -2.5 -12t-2.5 -30t2 -42t16 -44.5t34.5 -42.5t61 -30t92.5 -12 q161 0 315 103t260 292q33 -3 68 -28t47 -54q-45 -79 -97 -148.5t-125.5 -138.5t-154.5 -117.5t-186 -79t-219 -30.5q-209 0 -315.5 96t-106.5 267zM365 563q39 -7 73 -7t59.5 5.5t47.5 17t37.5 25t29.5 32.5t23.5 36.5t19.5 40.5q11 26 16.5 44.5t5 36t-13.5 26.5t-38 9 q-43 0 -85 -27.5t-72.5 -66.5t-54.5 -78t-36 -67zM487 1167l273 318h344l-365 -318h-252z" />
<glyph unicode="&#xea;" horiz-adv-x="1046" d="M-4 336q0 70 18 150.5t51.5 165.5t89 163t124 139.5t163 98.5t199.5 37q89 0 162.5 -28.5t122 -84.5t54 -139.5t-41.5 -194.5q-27 -58 -62 -102.5t-87.5 -82t-119.5 -56t-157.5 -25.5t-202.5 10q-1 -4 -2.5 -12t-2.5 -30t2 -42t16 -44.5t34.5 -42.5t61 -30t92.5 -12 q161 0 315 103t260 292q33 -3 68 -28t47 -54q-45 -79 -97 -148.5t-125.5 -138.5t-154.5 -117.5t-186 -79t-219 -30.5q-209 0 -315.5 96t-106.5 267zM285 1147l465 362h163l172 -362h-223l-90 149l-201 -149h-286zM365 563q39 -7 73 -7t59.5 5.5t47.5 17t37.5 25t29.5 32.5 t23.5 36.5t19.5 40.5q11 26 16.5 44.5t5 36t-13.5 26.5t-38 9q-43 0 -85 -27.5t-72.5 -66.5t-54.5 -78t-36 -67z" />
<glyph unicode="&#xeb;" horiz-adv-x="1046" d="M-4 336q0 70 18 150.5t51.5 165.5t89 163t124 139.5t163 98.5t199.5 37q89 0 162.5 -28.5t122 -84.5t54 -139.5t-41.5 -194.5q-27 -58 -62 -102.5t-87.5 -82t-119.5 -56t-157.5 -25.5t-202.5 10q-1 -4 -2.5 -12t-2.5 -30t2 -42t16 -44.5t34.5 -42.5t61 -30t92.5 -12 q161 0 315 103t260 292q33 -3 68 -28t47 -54q-45 -79 -97 -148.5t-125.5 -138.5t-154.5 -117.5t-186 -79t-219 -30.5q-209 0 -315.5 96t-106.5 267zM365 563q39 -7 73 -7t59.5 5.5t47.5 17t37.5 25t29.5 32.5t23.5 36.5t19.5 40.5q11 26 16.5 44.5t5 36t-13.5 26.5t-38 9 q-43 0 -85 -27.5t-72.5 -66.5t-54.5 -78t-36 -67zM387 1333q0 67 47 114.5t113 47.5q67 0 114.5 -47.5t47.5 -114.5q0 -66 -47.5 -112.5t-114.5 -46.5q-66 0 -113 46.5t-47 112.5zM774 1333q0 67 47 114.5t113 47.5q68 0 115 -47.5t47 -114.5q0 -66 -47.5 -112.5 t-114.5 -46.5q-66 0 -113 46.5t-47 112.5z" />
<glyph unicode="&#xec;" horiz-adv-x="616" d="M-55.5 149.5q-12.5 59.5 1.5 147.5t58 195l232 571h325l-252 -627q-28 -68 -42.5 -117.5t-17 -76.5t3 -43t14 -20.5t20.5 -4.5q63 0 162 105t206 290q33 -3 68 -28t47 -54q-294 -514 -598 -514q-57 0 -103.5 18t-79 58.5t-45 100zM12 1485h344l273 -318h-250z" />
<glyph unicode="&#xed;" horiz-adv-x="616" d="M-55.5 149.5q-12.5 59.5 1.5 147.5t58 195l232 571h325l-252 -627q-28 -68 -42.5 -117.5t-17 -76.5t3 -43t14 -20.5t20.5 -4.5q63 0 162 105t206 290q33 -3 68 -28t47 -54q-294 -514 -598 -514q-57 0 -103.5 18t-79 58.5t-45 100zM272 1167l273 318h344l-367 -318h-250z " />
<glyph unicode="&#xee;" horiz-adv-x="616" d="M-55.5 149.5q-12.5 59.5 1.5 147.5t58 195l232 571h325l-252 -627q-28 -68 -42.5 -117.5t-17 -76.5t3 -43t14 -20.5t20.5 -4.5q63 0 162 105t206 290q33 -3 68 -28t47 -54q-294 -514 -598 -514q-57 0 -103.5 18t-79 58.5t-45 100zM8 1147l465 362h164l172 -362h-223 l-90 149l-201 -149h-287z" />
<glyph unicode="&#xef;" horiz-adv-x="616" d="M-55.5 149.5q-12.5 59.5 1.5 147.5t58 195l232 571h325l-252 -627q-28 -68 -42.5 -117.5t-17 -76.5t3 -43t14 -20.5t20.5 -4.5q63 0 162 105t206 290q33 -3 68 -28t47 -54q-294 -514 -598 -514q-57 0 -103.5 18t-79 58.5t-45 100zM109 1333q0 67 46.5 114.5t112.5 47.5 q68 0 115 -47.5t47 -114.5q0 -66 -47.5 -112.5t-114.5 -46.5q-66 0 -112.5 46.5t-46.5 112.5zM496 1333q0 67 46.5 114.5t112.5 47.5q67 0 114.5 -47.5t47.5 -114.5q0 -66 -47.5 -112.5t-114.5 -46.5q-66 0 -112.5 46.5t-46.5 112.5z" />
<glyph unicode="&#xf0;" horiz-adv-x="1075" d="M-18 307q0 55 11.5 117.5t36.5 131t61 134t88.5 124.5t115 103.5t144.5 70.5t173 26q24 0 46 -3t32 -7l10 -3q-5 43 -18.5 81.5t-29.5 63t-31 42.5t-25 26l-10 7l-88 -127l-123 80l71 108q-6 2 -18 3.5t-50 4.5t-75 -2l-35 195q88 11 155.5 8t108.5 -13l41 -10l84 121 l123 -82l-65 -96q6 -3 17 -9t42.5 -29.5t60 -51.5t63.5 -76.5t60.5 -103.5t42.5 -133.5t17 -165.5q-1 -111 -27.5 -229t-82 -232.5t-132.5 -205t-188 -146.5t-238 -56q-162 0 -265 87t-103 247zM305 295q0 -111 72 -111q69 0 139 87.5t111 205t41 211.5q0 115 -74 115 q-70 0 -139 -87.5t-109.5 -206t-40.5 -214.5z" />
<glyph unicode="&#xf1;" horiz-adv-x="1198" d="M-195 0l431 1063l282 -109q8 8 34 26t71 45t108 46t123 19q95 0 146 -48t51 -131q0 -78 -62 -231l-100 -244q-27 -68 -41.5 -117.5t-17 -77t3 -43t14 -20t20.5 -4.5q63 0 163 105t206 290q33 -3 68 -28t47 -54q-65 -114 -130.5 -202t-141 -161t-161 -112t-174.5 -39 q-81 0 -134.5 32t-77.5 95.5t-10 165t67 234.5l31 75q71 178 71 207q0 21 -15.5 33t-39.5 12q-40 0 -104.5 -38t-124.5 -107l-277 -682h-326zM342 1317q22 33 34.5 50.5t37.5 46.5t47.5 44t55 27t67.5 12q49 0 93 -19.5t81 -39t69 -19.5q29 0 59.5 19t51.5 53l96 -109 q-23 -34 -34 -49.5t-36.5 -44.5t-47 -42.5t-54 -25.5t-67.5 -12q-49 0 -92.5 19.5t-81 39t-70.5 19.5q-27 0 -57.5 -20.5t-53.5 -53.5z" />
<glyph unicode="&#xf2;" horiz-adv-x="1177" d="M4 362q0 85 23.5 181t75.5 193.5t124.5 176t179.5 128t232 49.5q185 0 285 -100.5t100 -280.5q0 -186 -92 -375q162 26 285 235q32 -3 67 -28t47 -54q-87 -149 -221 -236t-285 -75q-174 -203 -428 -203q-187 0 -290 105.5t-103 283.5zM315 295q0 -50 21.5 -79.5 t58.5 -29.5q69 0 146 101q-45 48 -45 114q0 70 50 118.5t124 45.5q45 124 45 205q0 54 -22.5 80.5t-57.5 26.5q-57 0 -117.5 -69.5t-103.5 -165t-71 -192.5t-28 -155zM375 1485h346l272 -318h-252z" />
<glyph unicode="&#xf3;" horiz-adv-x="1177" d="M4 362q0 85 23.5 181t75.5 193.5t124.5 176t179.5 128t232 49.5q185 0 285 -100.5t100 -280.5q0 -186 -92 -375q162 26 285 235q32 -3 67 -28t47 -54q-87 -149 -221 -236t-285 -75q-174 -203 -428 -203q-187 0 -290 105.5t-103 283.5zM315 295q0 -50 21.5 -79.5 t58.5 -29.5q69 0 146 101q-45 48 -45 114q0 70 50 118.5t124 45.5q45 124 45 205q0 54 -22.5 80.5t-57.5 26.5q-57 0 -117.5 -69.5t-103.5 -165t-71 -192.5t-28 -155zM535 1167l272 318h344l-365 -318h-251z" />
<glyph unicode="&#xf4;" horiz-adv-x="1177" d="M4 362q0 85 23.5 181t75.5 193.5t124.5 176t179.5 128t232 49.5q185 0 285 -100.5t100 -280.5q0 -186 -92 -375q162 26 285 235q32 -3 67 -28t47 -54q-87 -149 -221 -236t-285 -75q-174 -203 -428 -203q-187 0 -290 105.5t-103 283.5zM281 1147l462 362h164l174 -362 h-223l-90 149l-203 -149h-284zM315 295q0 -50 21.5 -79.5t58.5 -29.5q69 0 146 101q-45 48 -45 114q0 70 50 118.5t124 45.5q45 124 45 205q0 54 -22.5 80.5t-57.5 26.5q-57 0 -117.5 -69.5t-103.5 -165t-71 -192.5t-28 -155z" />
<glyph unicode="&#xf5;" horiz-adv-x="1177" d="M4 362q0 85 23.5 181t75.5 193.5t124.5 176t179.5 128t232 49.5q185 0 285 -100.5t100 -280.5q0 -186 -92 -375q162 26 285 235q32 -3 67 -28t47 -54q-87 -149 -221 -236t-285 -75q-174 -203 -428 -203q-187 0 -290 105.5t-103 283.5zM315 295q0 -50 21.5 -79.5 t58.5 -29.5q69 0 146 101q-45 48 -45 114q0 70 50 118.5t124 45.5q45 124 45 205q0 54 -22.5 80.5t-57.5 26.5q-57 0 -117.5 -69.5t-103.5 -165t-71 -192.5t-28 -155zM449 1317q60 88 94 119q65 61 147 61q49 0 93 -19.5t81.5 -39t69.5 -19.5q29 0 59 19t51 53l99 -109 q-27 -40 -44.5 -62t-48.5 -52.5t-68 -45t-81 -14.5q-49 0 -92.5 19.5t-81 39t-70.5 19.5q-26 0 -56.5 -20t-53.5 -54z" />
<glyph unicode="&#xf6;" horiz-adv-x="1177" d="M4 362q0 85 23.5 181t75.5 193.5t124.5 176t179.5 128t232 49.5q185 0 285 -100.5t100 -280.5q0 -186 -92 -375q162 26 285 235q32 -3 67 -28t47 -54q-87 -149 -221 -236t-285 -75q-174 -203 -428 -203q-187 0 -290 105.5t-103 283.5zM315 295q0 -50 21.5 -79.5 t58.5 -29.5q69 0 146 101q-45 48 -45 114q0 70 50 118.5t124 45.5q45 124 45 205q0 54 -22.5 80.5t-57.5 26.5q-57 0 -117.5 -69.5t-103.5 -165t-71 -192.5t-28 -155zM416 1333q0 67 46.5 114.5t112.5 47.5q67 0 114.5 -47.5t47.5 -114.5q0 -66 -47.5 -112.5t-114.5 -46.5 q-66 0 -112.5 46.5t-46.5 112.5zM803 1333q0 67 47 114.5t113 47.5q67 0 114 -47t47 -115q0 -66 -47 -112.5t-114 -46.5q-66 0 -113 46.5t-47 112.5z" />
<glyph unicode="&#xf7;" horiz-adv-x="1249" d="M57 446l115 279h932l-113 -279h-934zM250 215q0 75 52 126.5t126 51.5t127 -52t53 -126q0 -72 -53.5 -126t-126.5 -54t-125.5 53.5t-52.5 126.5zM551 958q0 75 51.5 128t126.5 53q73 0 126.5 -53.5t53.5 -127.5q0 -72 -54 -126t-126 -54q-74 0 -126 53.5t-52 126.5z" />
<glyph unicode="&#xf8;" horiz-adv-x="1177" d="M4 362q0 72 18 153t53 165t91.5 159.5t127.5 133t168 89t206 25.5l118 293h144l-129 -317q108 -37 165.5 -128.5t57.5 -225.5q0 -186 -92 -375q162 26 285 235q32 -3 67 -28t47 -54q-87 -149 -221 -236t-285 -75q-84 -99 -205.5 -155t-257.5 -46l-71 -180h-144l80 207 q-108 39 -165.5 133t-57.5 227zM326 238l247 616q-63 -33 -131.5 -160.5t-104 -263t-11.5 -192.5zM455 207q66 36 135 161.5t103.5 259t11.5 195.5z" />
<glyph unicode="&#xf9;" horiz-adv-x="1175" d="M-57 149q-13 59 1 147t58 196l231 571h326l-252 -627q-24 -59 -37 -102.5t-16 -68t2.5 -39t14 -19t22.5 -4.5q57 0 119 74t163 243l220 543h325l-252 -627q-27 -65 -41 -114t-16.5 -76.5t3 -44.5t15 -22t23.5 -5q64 0 158 102t204 293q33 -3 68 -28t47 -54 q-62 -109 -127.5 -197t-140.5 -161.5t-159.5 -114.5t-168.5 -41q-90 0 -152 46t-79 139q-157 -185 -332 -185q-57 0 -103 18t-78.5 58.5t-45.5 99.5zM313 1485h344l275 -318h-252z" />
<glyph unicode="&#xfa;" horiz-adv-x="1175" d="M-57 149q-13 59 1 147t58 196l231 571h326l-252 -627q-24 -59 -37 -102.5t-16 -68t2.5 -39t14 -19t22.5 -4.5q57 0 119 74t163 243l220 543h325l-252 -627q-27 -65 -41 -114t-16.5 -76.5t3 -44.5t15 -22t23.5 -5q64 0 158 102t204 293q33 -3 68 -28t47 -54 q-62 -109 -127.5 -197t-140.5 -161.5t-159.5 -114.5t-168.5 -41q-90 0 -152 46t-79 139q-157 -185 -332 -185q-57 0 -103 18t-78.5 58.5t-45.5 99.5zM508 1167l272 318h344l-366 -318h-250z" />
<glyph unicode="&#xfb;" horiz-adv-x="1175" d="M-57 149q-13 59 1 147t58 196l231 571h326l-252 -627q-24 -59 -37 -102.5t-16 -68t2.5 -39t14 -19t22.5 -4.5q57 0 119 74t163 243l220 543h325l-252 -627q-27 -65 -41 -114t-16.5 -76.5t3 -44.5t15 -22t23.5 -5q64 0 158 102t204 293q33 -3 68 -28t47 -54 q-62 -109 -127.5 -197t-140.5 -161.5t-159.5 -114.5t-168.5 -41q-90 0 -152 46t-79 139q-157 -185 -332 -185q-57 0 -103 18t-78.5 58.5t-45.5 99.5zM281 1147l464 362h164l172 -362h-223l-90 149l-201 -149h-286z" />
<glyph unicode="&#xfc;" horiz-adv-x="1175" d="M-57 149q-13 59 1 147t58 196l231 571h326l-252 -627q-24 -59 -37 -102.5t-16 -68t2.5 -39t14 -19t22.5 -4.5q57 0 119 74t163 243l220 543h325l-252 -627q-27 -65 -41 -114t-16.5 -76.5t3 -44.5t15 -22t23.5 -5q64 0 158 102t204 293q33 -3 68 -28t47 -54 q-62 -109 -127.5 -197t-140.5 -161.5t-159.5 -114.5t-168.5 -41q-90 0 -152 46t-79 139q-157 -185 -332 -185q-57 0 -103 18t-78.5 58.5t-45.5 99.5zM383 1333q0 67 48 114.5t114 47.5q67 0 114.5 -47.5t47.5 -114.5q0 -66 -47.5 -112.5t-114.5 -46.5q-66 0 -114 46.5 t-48 112.5zM772 1333q0 67 47 114.5t113 47.5q68 0 115 -47.5t47 -114.5q0 -66 -47.5 -112.5t-114.5 -46.5q-66 0 -113 46.5t-47 112.5z" />
<glyph unicode="&#xfd;" horiz-adv-x="1157" d="M-111 -422q1 68 39 128.5t86.5 97.5t106.5 63q33 16 122 55t113 53l52 125q-4 -5 -11 -13.5t-31.5 -30.5t-51.5 -39t-69 -30.5t-85 -13.5q-42 0 -79 12.5t-68 38t-49.5 68t-23 98t11 133.5t52.5 169l232 571h325l-252 -627q-24 -59 -37 -102.5t-16 -68t2.5 -39t14 -19 t22.5 -4.5q57 0 120.5 75.5t162.5 245.5l219 539h325l-401 -985q146 74 256.5 188t218.5 303q33 -3 68 -28t47 -54q-61 -107 -128.5 -194.5t-128 -147t-135.5 -112t-135 -85t-143 -71.5q-31 -76 -47 -117q-28 -68 -56 -121t-69 -109t-86.5 -93t-108 -60.5t-133.5 -23.5 q-124 0 -189 65t-63 160zM43 -393q0 -24 15 -40t40 -16q40 0 88 54.5t95 179.5q-19 -9 -53 -24t-58 -27t-49 -27q-78 -48 -78 -100zM508 1167l274 318h344l-366 -318h-252z" />
<glyph unicode="&#xfe;" horiz-adv-x="1142" d="M-360 -406l770 1901h325l-209 -520q4 5 12 12.5t35 27.5t55.5 35t71.5 27.5t86 12.5q118 0 176 -82t58 -203q0 -92 -32.5 -202.5t-80 -203t-91 -161t-73.5 -103.5q129 58 232.5 158t206.5 276q32 -3 67 -28t47 -54q-61 -108 -134 -196t-166.5 -162t-210.5 -115t-246 -41 q-72 0 -133 13t-96.5 31.5t-60.5 37.5t-35 32l-9 13l106 97q31 -43 68 -43q54 0 129 108t128.5 249t53.5 232q0 86 -63 86q-54 0 -116.5 -48.5t-115.5 -123.5l-430 -1063h-325z" />
<glyph unicode="&#xff;" horiz-adv-x="1157" d="M-111 -422q1 68 39 128.5t86.5 97.5t106.5 63q33 16 122 55t113 53l52 125q-4 -5 -11 -13.5t-31.5 -30.5t-51.5 -39t-69 -30.5t-85 -13.5q-42 0 -79 12.5t-68 38t-49.5 68t-23 98t11 133.5t52.5 169l232 571h325l-252 -627q-24 -59 -37 -102.5t-16 -68t2.5 -39t14 -19 t22.5 -4.5q57 0 120.5 75.5t162.5 245.5l219 539h325l-401 -985q146 74 256.5 188t218.5 303q33 -3 68 -28t47 -54q-61 -107 -128.5 -194.5t-128 -147t-135.5 -112t-135 -85t-143 -71.5q-31 -76 -47 -117q-28 -68 -56 -121t-69 -109t-86.5 -93t-108 -60.5t-133.5 -23.5 q-124 0 -189 65t-63 160zM43 -393q0 -24 15 -40t40 -16q40 0 88 54.5t95 179.5q-19 -9 -53 -24t-58 -27t-49 -27q-78 -48 -78 -100zM385 1333q0 67 48 114.5t114 47.5t114 -47.5t48 -114.5q0 -66 -48 -112.5t-114 -46.5t-114 46.5t-48 112.5zM772 1333q0 67 48 114.5 t114 47.5t114 -47.5t48 -114.5q0 -66 -48 -112.5t-114 -46.5t-114 46.5t-48 112.5z" />
<glyph unicode="&#x102;" horiz-adv-x="1853" d="M-135 344q0 82 31 157.5t89.5 136t151 96.5t205.5 36q179 0 397 -98l385 651q14 24 41.5 72t41.5 71t39.5 62t43.5 58.5t46 45t54.5 38t61 21.5t72.5 9q150 0 230.5 -108.5t41.5 -264.5l-266 -1008q22 -3 47.5 -0.5t50.5 6.5t55.5 20.5t61.5 42.5t69 72t78 109 q33 -3 68 -28t47 -54q-68 -120 -121.5 -192.5t-116.5 -121.5t-133 -64t-163 -5l-117 -446l-283 158l103 372q-124 50 -308 148q-115 -178 -255 -276.5t-322 -98.5q-197 0 -311.5 110.5t-114.5 272.5zM141 356q0 -61 49 -95t111 -34q14 0 32.5 3.5t51.5 17.5t66.5 37.5 t76.5 68t82 103.5q-148 59 -258 59q-106 0 -158.5 -47.5t-52.5 -112.5zM993 543q149 -82 246 -127l250 913l-21 8zM1431 1910.5q-7 36.5 1.5 73.5t16.5 60.5t15 34.5h201l-5 -12q-6 -12 -12 -27.5t-9 -34t-0.5 -34t17 -26t40.5 -10.5q30 0 57 13.5t45.5 34.5t31.5 40.5 t22 37t10 18.5h198q-2 -9 -6 -24.5t-17.5 -47t-32 -61.5t-50.5 -63.5t-71.5 -58t-98 -41t-125.5 -16.5q-78 0 -129.5 20.5t-71.5 53.5t-27 69.5z" />
<glyph unicode="&#x103;" d="M-29 242q0 58 15 139.5t44 177.5t77.5 189.5t108.5 170t144 124t177 47.5q56 0 101.5 -17t70.5 -41.5t42.5 -49t22.5 -41.5l6 -17l383 139l-254 -627q-26 -66 -40.5 -115.5t-17.5 -77t2.5 -43.5t14 -21t21.5 -5q63 0 161 104.5t207 290.5q33 -3 68 -28t47 -54 q-64 -112 -128.5 -199t-140.5 -161t-162.5 -114t-176.5 -40q-60 0 -106.5 17.5t-70.5 42.5t-39.5 50t-19.5 43l-4 17q-6 -7 -16.5 -18.5t-44.5 -40.5t-69.5 -51.5t-88 -41t-102.5 -18.5q-111 0 -171.5 76.5t-60.5 192.5zM289 309q0 -76 65 -76q32 0 65 15t57 37t44 44t30 37 l11 15l133 328q0 5 -0.5 12.5t-6 27t-14 34.5t-27.5 27.5t-44 12.5q-57 0 -116.5 -61.5t-101.5 -146.5t-68.5 -170t-26.5 -136zM526 1318.5q-7 36.5 1.5 73.5t16.5 60t15 35h201l-6 -12q-5 -12 -11.5 -27.5t-9.5 -34t-1 -34t16 -26t40 -10.5q30 0 57 13.5t46 34.5t32.5 40.5 t22.5 37t10 18.5h197q-2 -9 -6 -24.5t-17.5 -47t-31.5 -61t-50 -63t-71 -58t-97.5 -41t-125.5 -16.5q-78 0 -129.5 20.5t-71.5 53t-27 69z" />
<glyph unicode="&#x104;" horiz-adv-x="1853" d="M-135 344q0 82 31 157.5t89.5 136t151 96.5t205.5 36q179 0 397 -98l385 651q14 24 41.5 72t41.5 71t39.5 62t43.5 58.5t46 45t54.5 38t61 21.5t72.5 9q150 0 230.5 -108.5t41.5 -264.5l-266 -1008q22 -3 47.5 -0.5t50.5 6.5t55.5 20.5t61.5 42.5t69 72t78 109 q33 -3 68 -28t47 -54q-68 -120 -121.5 -192.5t-116.5 -121.5t-133 -64t-163 -5l-117 -446l-21 10q-233 -145 -233 -221q0 -19 11 -28.5t32 -9.5t40.5 2.5t49 12.5t43.5 15t37 14l-78 -190q-29 -14 -74.5 -25.5t-101 -14t-103 8.5t-80 50t-32.5 102q0 94 87 173t277 181 l-137 78l103 372q-124 50 -308 148q-115 -177 -255.5 -276t-321.5 -99q-197 0 -311.5 110.5t-114.5 272.5zM141 356q0 -61 49 -95t111 -34q14 0 32.5 3.5t51.5 17.5t66.5 37.5t76.5 68t82 103.5q-148 59 -258 59q-106 0 -158.5 -47.5t-52.5 -112.5zM993 543 q149 -82 246 -127l250 913l-21 8z" />
<glyph unicode="&#x105;" d="M-29 242q0 58 15 139.5t44 177.5t77.5 189.5t108.5 170t144 124t177 47.5q56 0 101.5 -17t70.5 -41.5t42.5 -49t22.5 -41.5l6 -17l383 139l-254 -627q-26 -66 -40.5 -115.5t-17.5 -77t2.5 -43.5t14 -21t21.5 -5q63 0 161 104.5t207 290.5q33 -3 68 -28t47 -54 q-116 -199 -237 -329t-258 -168q-105 -65 -171.5 -124t-66.5 -99q0 -19 11 -28.5t32 -9.5t40.5 2.5t49 12.5t43.5 15t37 14l-78 -191q-29 -14 -74.5 -25.5t-101 -14t-103 8.5t-80 50t-32.5 102q0 81 63 150t193 145q-44 20 -72.5 56.5t-35.5 62.5l-7 26q-6 -7 -16.5 -18.5 t-44.5 -40.5t-69.5 -51.5t-88 -41t-102.5 -18.5q-111 0 -171.5 76.5t-60.5 192.5zM289 309q0 -76 65 -76q32 0 65 15t57 37t44 44t30 37l11 15l133 328q0 5 -0.5 12.5t-6 27t-14 34.5t-27.5 27.5t-44 12.5q-57 0 -116.5 -61.5t-101.5 -146.5t-68.5 -170t-26.5 -136z" />
<glyph unicode="&#x106;" horiz-adv-x="1538" d="M0 1104q0 155 74 279.5t194 193.5l156 -227q-105 -53 -135 -168q-10 -37 -10 -80q0 -20 2 -40t14 -56t31.5 -66t59 -62t93.5 -51q47 133 109.5 257.5t144.5 239.5t172.5 200.5t198.5 136.5t217 51q117 0 200.5 -56.5t121.5 -144.5t38 -196q0 -151 -84 -312.5t-245 -281.5 q-257 -193 -619 -193h-6q-27 -111 -27 -202q0 -224 197 -224q68 0 152 26.5t177 79.5t187 147t164 214q33 -3 68 -28t47 -54q-162 -281 -387.5 -442.5t-485.5 -161.5q-223 0 -331.5 119t-108.5 324q0 102 29 247q-196 64 -302 203.5t-106 327.5zM809 799q211 19 358 145 q93 80 139 176.5t46 167.5q0 43 -20 72t-64 29q-72 0 -158.5 -86.5t-162.5 -217.5t-138 -286zM1241 1767l272 318h347l-367 -318h-252z" />
<glyph unicode="&#x107;" horiz-adv-x="1048" d="M-2 336q0 70 18 151t52 166t89 163t123.5 139.5t161.5 98t197 36.5q147 0 233.5 -66t95 -188.5t-76.5 -296.5h-326q102 210 101 259q-1 33 -41 33q-62 0 -123.5 -59t-103 -141.5t-67.5 -166t-26 -136.5q0 -47 21.5 -79.5t56.5 -47.5t66.5 -21t64.5 -6q159 0 313 103 t260 292q33 -3 68 -28t47 -54q-45 -79 -97 -148.5t-125.5 -138.5t-154.5 -117.5t-186 -79t-219 -30.5q-209 0 -315.5 96t-106.5 267zM506 1167l272 318h344l-364 -318h-252z" />
<glyph unicode="&#x10c;" horiz-adv-x="1538" d="M0 1104q0 155 74 279.5t194 193.5l156 -227q-105 -53 -135 -168q-10 -37 -10 -80q0 -20 2 -40t14 -56t31.5 -66t59 -62t93.5 -51q47 133 109.5 257.5t144.5 239.5t172.5 200.5t198.5 136.5t217 51q117 0 200.5 -56.5t121.5 -144.5t38 -196q0 -151 -84 -312.5t-245 -281.5 q-257 -193 -619 -193h-6q-27 -111 -27 -202q0 -224 197 -224q68 0 152 26.5t177 79.5t187 147t164 214q33 -3 68 -28t47 -54q-162 -281 -387.5 -442.5t-485.5 -161.5q-223 0 -331.5 119t-108.5 324q0 102 29 247q-196 64 -302 203.5t-106 327.5zM809 799q211 19 358 145 q93 80 139 176.5t46 167.5q0 43 -20 72t-64 29q-72 0 -158.5 -86.5t-162.5 -217.5t-138 -286zM1153 2130h225l88 -152l205 152h283l-463 -363h-164z" />
<glyph unicode="&#x10d;" horiz-adv-x="1048" d="M-2 336q0 70 18 151t52 166t89 163t123.5 139.5t161.5 98t197 36.5q147 0 233.5 -66t95 -188.5t-76.5 -296.5h-326q102 210 101 259q-1 33 -41 33q-62 0 -123.5 -59t-103 -141.5t-67.5 -166t-26 -136.5q0 -47 21.5 -79.5t56.5 -47.5t66.5 -21t64.5 -6q159 0 313 103 t260 292q33 -3 68 -28t47 -54q-45 -79 -97 -148.5t-125.5 -138.5t-154.5 -117.5t-186 -79t-219 -30.5q-209 0 -315.5 96t-106.5 267zM457 1509h225l88 -151l207 151h283l-463 -362h-166z" />
<glyph unicode="&#x10e;" horiz-adv-x="2013" d="M-61 242q0 43 12 87t39 87t66.5 75.5t99.5 53t133 20.5q84 0 167.5 -30.5t186.5 -100.5q35 59 70 144l196 485q48 120 156 208.5t250 88.5l59 -174q-4 -2 -11.5 -6t-29.5 -20t-41.5 -35.5t-43 -55t-40.5 -76.5q-202 -497 -202 -499q-45 -119 -123 -240q141 -104 264 -104 q91 0 176.5 49t150.5 132.5t114 188t74.5 220t25.5 225.5q0 106 -26 194t-79.5 156.5t-143 106.5t-208.5 38q-103 0 -193 -29t-152 -77t-107 -109t-66 -124.5t-21 -123.5q0 -44 12 -91t24 -72l11 -25l-217 -162q-4 6 -10 16t-22.5 45t-29 72.5t-22.5 94.5t-10 114 q0 110 33.5 215t102.5 197t165.5 161.5t231 109.5t290.5 40q185 0 330.5 -55.5t239 -155.5t142 -237t48.5 -303q0 -117 -24 -240.5t-70 -244t-119 -227t-164.5 -188t-213 -129t-257.5 -47.5q-71 0 -130 12.5t-112.5 40.5t-95 57.5t-98.5 78.5q-173 -150 -405 -150 q-104 0 -182.5 30.5t-120 79.5t-61 101.5t-19.5 106.5zM182 260q0 -41 33 -61.5t88 -20.5q106 0 201 82q-122 94 -203 94q-56 0 -87.5 -27.5t-31.5 -66.5zM1309 2130h225l88 -152l205 152h284l-464 -363h-164z" />
<glyph unicode="&#x10f;" horiz-adv-x="1216" d="M-33 240q0 72 22.5 175.5t71 221.5t113.5 219t160.5 167.5t202.5 66.5q55 0 99.5 -17t70 -41.5t42.5 -49t23 -41.5l6 -17l221 544h326l-418 -1032q-27 -67 -41.5 -116.5t-17 -76.5t3.5 -43.5t14.5 -21t20.5 -4.5q63 0 161 104.5t207 290.5q33 -3 68 -28t47 -54 q-51 -89 -101 -161.5t-110 -139.5t-120.5 -113t-131.5 -73t-143 -27q-60 0 -107 17.5t-71.5 42.5t-40 50t-19.5 43l-4 17q-6 -7 -16.5 -18.5t-44.5 -40.5t-70 -51.5t-88.5 -41t-103.5 -18.5q-110 0 -171 77t-61 190zM287 309q0 -76 65 -76q32 0 65.5 15t57.5 37t44 44t30 37 l10 15l133 328q0 5 -0.5 12.5t-6 27t-14 34.5t-27.5 27.5t-44 12.5q-57 0 -116.5 -61.5t-101.5 -146.5t-68.5 -170t-26.5 -136zM1260 1118q116 87 129 144q-34 11 -54 39.5t-20 68.5q0 46 33 79.5t82 33.5q45 0 79.5 -30.5t34.5 -90.5q0 -50 -25 -100.5t-66 -92.5t-77 -71.5 t-73 -53.5z" />
<glyph unicode="&#x110;" horiz-adv-x="2013" d="M-61 242q0 43 12 87t39 87t66.5 75.5t99.5 53t133 20.5q84 0 167.5 -30.5t186.5 -100.5q40 72 47 88h-104l82 205h106l135 336q48 120 156 208.5t250 88.5l59 -174q-4 -2 -11.5 -6t-29.5 -20t-41.5 -35.5t-43 -55t-40.5 -76.5q-57 -137 -108 -266h162l-82 -205h-162 q-5 -11 -22.5 -50t-25.5 -56t-23.5 -49t-31 -59t-32.5 -54q141 -104 264 -104q91 0 176.5 49t150.5 132.5t114 188t74.5 220t25.5 225.5q0 106 -26 194t-79.5 156.5t-143 106.5t-208.5 38q-103 0 -193 -29t-152 -77t-107 -109t-66 -124.5t-21 -123.5q0 -44 12 -91t24 -72 l11 -25l-217 -162q-4 6 -10 16t-22.5 45t-29 72.5t-22.5 94.5t-10 114q0 110 33.5 215t102.5 197t165.5 161.5t231 109.5t290.5 40q185 0 330.5 -55.5t239 -155.5t142 -237t48.5 -303q0 -117 -24 -240.5t-70 -244t-119 -227t-164.5 -188t-213 -129t-257.5 -47.5 q-71 0 -130 12.5t-112.5 40.5t-95 57.5t-98.5 78.5q-173 -150 -405 -150q-104 0 -182.5 30.5t-120 79.5t-61 101.5t-19.5 106.5zM182 260q0 -41 33 -61.5t88 -20.5q106 0 201 82q-122 94 -203 94q-56 0 -87.5 -27.5t-31.5 -66.5z" />
<glyph unicode="&#x111;" horiz-adv-x="1216" d="M-33 240q0 72 22.5 175.5t71 221.5t113.5 219t160.5 167.5t202.5 66.5q55 0 99.5 -17t70 -41.5t42.5 -49t23 -41.5l6 -17l94 237h-161l65 158h160l63 149h326l-61 -149h153l-67 -158h-150l-293 -725q-27 -67 -41.5 -116.5t-17 -76.5t3.5 -43.5t14.5 -21t20.5 -4.5 q63 0 161 104.5t207 290.5q33 -3 68 -28t47 -54q-51 -89 -101 -161.5t-110 -139.5t-120.5 -113t-131.5 -73t-143 -27q-60 0 -107 17.5t-71.5 42.5t-40 50t-19.5 43l-4 17q-6 -7 -16.5 -18.5t-44.5 -40.5t-70 -51.5t-88.5 -41t-103.5 -18.5q-110 0 -171 77t-61 190zM287 309 q0 -76 65 -76q32 0 65.5 15t57.5 37t44 44t30 37l10 15l133 328q0 5 -0.5 12.5t-6 27t-14 34.5t-27.5 27.5t-44 12.5q-57 0 -116.5 -61.5t-101.5 -146.5t-68.5 -170t-26.5 -136z" />
<glyph unicode="&#x118;" horiz-adv-x="1310" d="M0 381q0 134 53.5 252.5t140 197.5t198 120t224.5 30q-20 55 -20 143q0 165 80 301q-60 170 -51 373l209 -29q-3 -85 12 -159q150 102 332 102q100 0 178 -30t123 -80.5t67.5 -108.5t22.5 -121q0 -145 -107 -249.5t-284 -104.5q-166 0 -291 98q1 -49 13 -94t27 -74.5 t33 -54t29 -35t17 -14.5l-156 -232q-4 3 -11.5 9t-32 20.5t-51 25.5t-67.5 20t-82 9q-132 0 -212.5 -84.5t-80.5 -222.5q0 -137 81 -230t218 -93q69 0 129 26.5t99.5 72t62 102t21 120.5t-26.5 123l272 78q65 -213 16.5 -383t-180 -281t-309.5 -137q-188 -127 -188 -193 q0 -76 203 3l1 1h1h1l1 1h2l1 1h1l1 1h1l-76 -191q-29 -14 -74.5 -25.5t-101.5 -14t-104 8.5t-80.5 50t-32.5 102q0 72 51 134t156 130q-204 46 -331.5 208.5t-127.5 377.5zM963 1348q87 -93 196 -93q55 0 94 23.5t39 64.5q0 40 -38 65.5t-97 25.5q-114 0 -194 -86z" />
<glyph unicode="&#x119;" horiz-adv-x="1046" d="M-4 336q0 70 18 150.5t51.5 165.5t89 163t124 139.5t163 98.5t199.5 37q89 0 162.5 -28.5t122 -84.5t54 -139.5t-41.5 -194.5q-27 -58 -62 -102.5t-87.5 -82t-119.5 -56t-157.5 -25.5t-202.5 10q-1 -4 -2.5 -12t-2.5 -30t2 -42t16 -44.5t34.5 -42.5t61 -30t92.5 -12 q161 0 315 103t260 292q33 -3 68 -28t47 -54q-49 -86 -108 -161t-136.5 -145.5t-177.5 -120.5t-211 -70q-231 -150 -231 -223q0 -19 11 -28.5t32 -9.5t40.5 2.5t49 12.5t43.5 15t37 14l-78 -191q-29 -14 -74.5 -25.5t-101 -14t-103 8.5t-80 50t-32.5 102q0 75 56.5 140.5 t172.5 138.5q-156 23 -234.5 114.5t-78.5 239.5zM365 563q39 -7 73 -7t59.5 5.5t47.5 17t37.5 25t29.5 32.5t23.5 36.5t19.5 40.5q11 26 16.5 44.5t5 36t-13.5 26.5t-38 9q-43 0 -85 -27.5t-72.5 -66.5t-54.5 -78t-36 -67z" />
<glyph unicode="&#x11a;" horiz-adv-x="1310" d="M0 381q0 134 53.5 252.5t140 197.5t198 120t224.5 30q-20 55 -20 143q0 165 80 301q-60 170 -51 373l209 -29q-3 -85 12 -159q150 102 332 102q100 0 178 -30t123 -80.5t67.5 -108.5t22.5 -121q0 -145 -107 -249.5t-284 -104.5q-166 0 -291 98q1 -49 13 -94t27 -74.5 t33 -54t29 -35t17 -14.5l-156 -232q-4 3 -11.5 9t-32 20.5t-51 25.5t-67.5 20t-82 9q-132 0 -212.5 -84.5t-80.5 -222.5q0 -137 81 -230t218 -93q69 0 129 26.5t99.5 72t62 102t21 120.5t-26.5 123l272 78q57 -171 30.5 -318.5t-109 -256.5t-211.5 -171.5t-277 -62.5 q-129 0 -242 47.5t-191.5 128.5t-123.5 192t-45 234zM963 1348q87 -93 196 -93q55 0 94 23.5t39 64.5q0 40 -38 65.5t-97 25.5q-114 0 -194 -86zM1012 2148h225l88 -151l205 151h282l-462 -362h-164z" />
<glyph unicode="&#x11b;" horiz-adv-x="1046" d="M-4 336q0 70 18 150.5t51.5 165.5t89 163t124 139.5t163 98.5t199.5 37q89 0 162.5 -28.5t122 -84.5t54 -139.5t-41.5 -194.5q-27 -58 -62 -102.5t-87.5 -82t-119.5 -56t-157.5 -25.5t-202.5 10q-1 -4 -2.5 -12t-2.5 -30t2 -42t16 -44.5t34.5 -42.5t61 -30t92.5 -12 q161 0 315 103t260 292q33 -3 68 -28t47 -54q-45 -79 -97 -148.5t-125.5 -138.5t-154.5 -117.5t-186 -79t-219 -30.5q-209 0 -315.5 96t-106.5 267zM365 563q39 -7 73 -7t59.5 5.5t47.5 17t37.5 25t29.5 32.5t23.5 36.5t19.5 40.5q11 26 16.5 44.5t5 36t-13.5 26.5t-38 9 q-43 0 -85 -27.5t-72.5 -66.5t-54.5 -78t-36 -67zM432 1509h225l88 -151l205 151h285l-465 -362h-164z" />
<glyph unicode="&#x131;" horiz-adv-x="616" d="M-55.5 149.5q-12.5 59.5 1.5 147.5t58 195l232 571h325l-252 -627q-28 -68 -42.5 -117.5t-17 -76.5t3 -43t14 -20.5t20.5 -4.5q63 0 162 105t206 290q33 -3 68 -28t47 -54q-294 -514 -598 -514q-57 0 -103.5 18t-79 58.5t-45 100z" />
<glyph unicode="&#x139;" horiz-adv-x="1648" d="M-133 178q0 59 22 118t64 111.5t113 85.5t159 33q148 0 303 -106q14 27 37.5 79t34.5 74q-197 64 -304.5 204t-107.5 327q0 154 74.5 279t194.5 194l155 -227q-105 -53 -135 -168q-10 -37 -10 -80q0 -20 3 -41.5t16.5 -59t36.5 -68.5t69 -63t108 -51q32 77 56.5 134.5 t57.5 130.5t62.5 126.5t66.5 116t73 108t79 92t88.5 78t96.5 57t108 38t119 12.5q72 0 138.5 -25.5t119 -74t84 -125.5t31.5 -172q0 -151 -85 -312.5t-247 -281.5q-264 -198 -647 -193q-68 -186 -135 -311q278 -256 424 -377q73 -57 119 -78.5t90 -21.5q121 0 272 145 l187 -211q-108 -104 -227.5 -158.5t-227.5 -54.5q-95 0 -183.5 41.5t-191.5 122.5q-55 43 -110.5 93t-151 139.5t-158.5 146.5q-149 -149 -364 -149q-98 0 -174.5 30.5t-118.5 79.5t-63 103.5t-21 109.5zM119 190q0 -39 29 -62.5t71 -23.5q84 0 168 97q-101 88 -168 88 q-44 0 -72 -29.5t-28 -69.5zM1008 799q208 18 356 145q92 80 138 175.5t46 160.5q0 109 -96 109q-195 0 -444 -590zM1397 1765l272 318h346l-366 -318h-252z" />
<glyph unicode="&#x13a;" horiz-adv-x="616" d="M-55.5 149q-12.5 59 1.5 147t58 196l395 976h326l-416 -1032q-27 -67 -41.5 -116.5t-17.5 -76.5t2.5 -43.5t14 -21t20.5 -4.5q63 0 162 105t206 290q33 -3 68 -28t47 -54q-294 -514 -598 -514q-57 0 -103.5 18t-79 58.5t-45 99.5zM401 1573l273 317h344l-367 -317h-250z " />
<glyph unicode="&#x13d;" horiz-adv-x="1648" d="M-133 178q0 59 22 118t64 111.5t113 85.5t159 33q148 0 303 -106q14 27 37.5 79t34.5 74q-197 64 -304.5 204t-107.5 327q0 154 74.5 279t194.5 194l155 -227q-105 -53 -135 -168q-10 -37 -10 -80q0 -20 3 -41.5t16.5 -59t36.5 -68.5t69 -63t108 -51q32 77 56.5 134.5 t57.5 130.5t62.5 126.5t66.5 116t73 108t79 92t88.5 78t96.5 57t108 38t119 12.5q72 0 138.5 -25.5t119 -74t84 -125.5t31.5 -172q0 -151 -85 -312.5t-247 -281.5q-264 -198 -647 -193q-68 -186 -135 -311q278 -256 424 -377q73 -57 119 -78.5t90 -21.5q121 0 272 145 l187 -211q-108 -104 -227.5 -158.5t-227.5 -54.5q-95 0 -183.5 41.5t-191.5 122.5q-55 43 -110.5 93t-151 139.5t-158.5 146.5q-149 -149 -364 -149q-98 0 -174.5 30.5t-118.5 79.5t-63 103.5t-21 109.5zM119 190q0 -39 29 -62.5t71 -23.5q84 0 168 97q-101 88 -168 88 q-44 0 -72 -29.5t-28 -69.5zM1008 799q208 18 356 145q92 80 138 175.5t46 160.5q0 109 -96 109q-195 0 -444 -590zM1862 1102q114 84 161.5 142t53.5 91q-56 19 -89.5 66.5t-33.5 109.5q0 79 53.5 134t132.5 55q73 0 130 -53t57 -152q0 -79 -40.5 -161.5t-104.5 -150 t-125 -117t-120 -85.5z" />
<glyph unicode="&#x13e;" horiz-adv-x="616" d="M-55.5 149q-12.5 59 1.5 147t58 196l395 976h326l-416 -1032q-27 -67 -41.5 -116.5t-17.5 -76.5t2.5 -43.5t14 -21t20.5 -4.5q63 0 162 105t206 290q33 -3 68 -28t47 -54q-294 -514 -598 -514q-57 0 -103.5 18t-79 58.5t-45 99.5zM662 1120q118 85 131 142q-34 12 -56 41 t-22 65q0 49 34 82t82 33q45 0 79 -31.5t34 -91.5q0 -49 -25 -99.5t-64 -91.5t-76.5 -71t-73.5 -51z" />
<glyph unicode="&#x141;" horiz-adv-x="1648" d="M-133 178q0 59 22 118t64 111.5t113 85.5t159 33q148 0 303 -106q62 123 101 221l-213 -47l78 188l213 49q43 107 75.5 182t81.5 174t93 167.5t105 141t122.5 116.5t139 72t161.5 28q195 0 298 -122.5t97 -313.5h-332q0 53 -24 83t-72 30q-95 0 -198 -125.5t-205 -356.5 l247 58l-77 -191l-246 -55q-105 -309 -207 -502q278 -256 424 -377q73 -57 119 -78.5t90 -21.5q121 0 272 145l187 -211q-109 -104 -228.5 -160t-228.5 -53q-172 5 -375 164q-110 87 -418 379q-152 -149 -364 -149q-98 0 -174.5 30.5t-118.5 79.5t-63 103.5t-21 109.5z M119 190q0 -39 29 -62.5t71 -23.5q84 0 168 97q-101 88 -168 88q-44 0 -72 -29.5t-28 -69.5z" />
<glyph unicode="&#x142;" horiz-adv-x="616" d="M-98 522l78 191l139 63l280 692h326l-209 -516l139 62l-77 -189l-138 -61l-131 -328q-27 -67 -41.5 -116.5t-17.5 -76.5t2.5 -43.5t14 -21t20.5 -4.5q63 0 162 105t206 290q33 -3 68 -28t47 -54q-294 -514 -598 -514q-57 0 -103.5 18t-79 58.5t-45 99.5t1.5 147t58 196 l39 94z" />
<glyph unicode="&#x143;" horiz-adv-x="1765" d="M0 915q0 77 25 143t65 115t105 93t130.5 75t156.5 64t168 57t180 57.5t178 61.5l219 -264q273 246 465 246q96 0 149 -61t53 -154q0 -90 -77 -283l-426 -1061q-17 -48 -23 -82t0.5 -66t31 -57.5t68.5 -48.5l-100 -248q-116 39 -190 99.5t-102.5 135t-25 155.5t36.5 171 l355 879q8 21 28 71t27.5 69.5t19 50.5t15.5 49t4 30q0 22 -13 35t-34 13q-56 0 -179.5 -89.5t-217.5 -189.5l-404 -1008h-326l521 1295q-41 -14 -103 -33.5t-101.5 -32t-92.5 -30.5t-87 -32.5t-74 -33t-64 -37t-45.5 -41t-31.5 -47.5t-10 -53q0 -65 46.5 -94t97.5 -29v-266 q-187 0 -303.5 105t-114.5 271zM1315 1677l272 318h344l-366 -318h-250z" />
<glyph unicode="&#x144;" horiz-adv-x="1198" d="M-195 0l431 1063l282 -109q8 8 34 26t71 45t108 46t123 19q95 0 146 -48t51 -131q0 -78 -62 -231l-100 -244q-27 -68 -41.5 -117.5t-17 -77t3 -43t14 -20t20.5 -4.5q63 0 163 105t206 290q33 -3 68 -28t47 -54q-65 -114 -130.5 -202t-141 -161t-161 -112t-174.5 -39 q-81 0 -134.5 32t-77.5 95.5t-10 165t67 234.5l31 75q71 178 71 207q0 21 -15.5 33t-39.5 12q-40 0 -104.5 -38t-124.5 -107l-277 -682h-326zM459 1167l272 318h346l-366 -318h-252z" />
<glyph unicode="&#x147;" horiz-adv-x="1765" d="M0 915q0 77 25 143t65 115t105 93t130.5 75t156.5 64t168 57t180 57.5t178 61.5l219 -264q273 246 465 246q96 0 149 -61t53 -154q0 -90 -77 -283l-426 -1061q-17 -48 -23 -82t0.5 -66t31 -57.5t68.5 -48.5l-100 -248q-116 39 -190 99.5t-102.5 135t-25 155.5t36.5 171 l355 879q8 21 28 71t27.5 69.5t19 50.5t15.5 49t4 30q0 22 -13 35t-34 13q-56 0 -179.5 -89.5t-217.5 -189.5l-404 -1008h-326l521 1295q-41 -14 -103 -33.5t-101.5 -32t-92.5 -30.5t-87 -32.5t-74 -33t-64 -37t-45.5 -41t-31.5 -47.5t-10 -53q0 -65 46.5 -94t97.5 -29v-266 q-187 0 -303.5 105t-114.5 271zM1231 2044h225l88 -152l205 152h285l-465 -363h-164z" />
<glyph unicode="&#x148;" horiz-adv-x="1198" d="M-195 0l431 1063l282 -109q8 8 34 26t71 45t108 46t123 19q95 0 146 -48t51 -131q0 -78 -62 -231l-100 -244q-27 -68 -41.5 -117.5t-17 -77t3 -43t14 -20t20.5 -4.5q63 0 163 105t206 290q33 -3 68 -28t47 -54q-65 -114 -130.5 -202t-141 -161t-161 -112t-174.5 -39 q-81 0 -134.5 32t-77.5 95.5t-10 165t67 234.5l31 75q71 178 71 207q0 21 -15.5 33t-39.5 12q-40 0 -104.5 -38t-124.5 -107l-277 -682h-326zM391 1509h225l89 -151l206 151h283l-463 -362h-166z" />
<glyph unicode="&#x150;" horiz-adv-x="1488" d="M0 342q0 118 28.5 254.5t87.5 279.5t140.5 270t197 231.5t246.5 158.5q137 170 342 170q79 0 147.5 -27t126 -83t91 -155t33.5 -231q0 -192 -63.5 -420t-178.5 -428q201 -11 330 207q32 -3 67 -28t47 -54q-28 -49 -66 -94t-91 -90t-113 -72.5t-133.5 -40.5t-151.5 5 q-132 -176 -293 -277.5t-343 -101.5q-95 0 -172 28.5t-128 77t-85.5 116t-50 143.5t-15.5 161zM303 322q0 -110 41 -182t127 -72q161 0 334 254q-6 4 -17 12.5t-42 40t-58.5 68.5t-60 99.5t-55 131.5t-35.5 165.5t-7 200.5q-96 -171 -161.5 -372t-65.5 -346zM752 1765 l225 318h317l-311 -318h-231zM786 967q0 -274 138 -449q90 177 146 364.5t56 305.5q0 91 -31.5 140.5t-88.5 49.5q-88 0 -154 -111t-66 -300zM1139 1765l225 318h317l-311 -318h-231z" />
<glyph unicode="&#x151;" horiz-adv-x="1177" d="M4 362q0 85 23.5 181t75.5 193.5t124.5 176t179.5 128t232 49.5q185 0 285 -100.5t100 -280.5q0 -186 -92 -375q162 26 285 235q32 -3 67 -28t47 -54q-87 -149 -221 -236t-285 -75q-174 -203 -428 -203q-187 0 -290 105.5t-103 283.5zM315 295q0 -50 21.5 -79.5 t58.5 -29.5q69 0 146 101q-45 48 -45 114q0 70 50 118.5t124 45.5q45 124 45 205q0 54 -22.5 80.5t-57.5 26.5q-57 0 -117.5 -69.5t-103.5 -165t-71 -192.5t-28 -155zM385 1167l225 318h318l-312 -318h-231zM772 1167l225 318h318l-311 -318h-232z" />
<glyph unicode="&#x152;" horiz-adv-x="2254" d="M0 342q0 118 28.5 254.5t87.5 279.5t140.5 270t197 231.5t246.5 158.5q137 170 342 170q79 0 147.5 -27t126 -83t91 -155t33.5 -231q0 -119 -23 -237q67 14 144 8q-21 55 -21 143q0 165 80 301q-63 177 -51 373l209 -29q-6 -82 10 -159q154 102 334 102q100 0 178 -30 t123 -80.5t67.5 -108.5t22.5 -121q0 -69 -27 -133t-76 -113t-124.5 -78.5t-165.5 -29.5q-164 0 -289 98q1 -49 12.5 -94t26.5 -74.5t33 -54t28.5 -35t16.5 -14.5l-154 -232q-4 3 -11.5 9t-32 20.5t-51 25.5t-67.5 20t-82 9q-132 0 -212.5 -84t-80.5 -221t80.5 -227 t212.5 -90q85 0 153 39.5t102.5 102t43 139t-25.5 151.5l291 82q56 -170 28 -317.5t-111.5 -257t-213.5 -172t-277 -62.5q-176 0 -316 87.5t-214 233.5q-257 -284 -559 -284q-95 0 -172 28.5t-128 77t-85.5 116t-50 143.5t-15.5 161zM303 322q0 -110 41 -182t127 -72 q161 0 334 254q-6 5 -17 13.5t-42 41t-59 70t-60.5 100t-55 131.5t-35 164.5t-6.5 197.5q-96 -171 -161.5 -372t-65.5 -346zM786 967q0 -274 138 -449q90 177 146 364.5t56 305.5q0 91 -31.5 140.5t-88.5 49.5q-88 0 -154 -111t-66 -300zM1907 1348q84 -93 196 -93 q55 0 94 23.5t39 64.5q0 40 -38 65.5t-97 25.5q-114 0 -194 -86z" />
<glyph unicode="&#x153;" horiz-adv-x="1697" d="M4 362q0 85 23.5 181t75.5 193.5t124.5 176t179.5 128t232 49.5q207 0 303 -125q159 125 348 125q122 0 210.5 -50.5t120.5 -149.5t-34 -247q-33 -74 -80 -125.5t-123 -90.5t-178 -47t-245 7q-1 -4 -2.5 -12t-3 -30t2 -42t16 -44.5t34 -42.5t61 -30t92.5 -12 q161 0 315.5 103t260.5 292q32 -3 67 -28t47 -54q-45 -79 -97.5 -148.5t-125.5 -138.5t-154 -117.5t-186 -79t-219 -30.5q-227 0 -336 115q-148 -115 -336 -115q-187 0 -290 105.5t-103 283.5zM315 295q0 -50 21.5 -79.5t58.5 -29.5q56 0 116.5 68.5t104 163.5t71.5 193 t28 159q0 54 -22.5 80.5t-57.5 26.5q-57 0 -117.5 -69.5t-103.5 -165t-71 -192.5t-28 -155zM1016 563q48 -6 83.5 -7t65.5 10t51 23.5t39 34.5t29.5 42t22.5 47q11 25 16 44t4.5 36.5t-14 26.5t-39.5 9q-42 0 -84 -27.5t-72 -66.5t-54 -78t-36 -67z" />
<glyph unicode="&#x154;" horiz-adv-x="1421" d="M-6 1012q0 92 28.5 189.5t93 196.5t157.5 175.5t234.5 125t311.5 48.5q147 0 268.5 -36t203.5 -96t139 -139t82.5 -164t25.5 -173q0 -80 -21.5 -159.5t-64 -151t-101 -130t-138 -98.5t-169.5 -53q44 -35 69 -82t30.5 -102.5t3 -101t-11.5 -103.5l-54 -308 q-11 -113 13.5 -152t119.5 -38v-233q-120 -20 -214.5 5.5t-149.5 85t-78 144t-8 182.5l47 269q39 182 25 292.5t-97 167.5q-27 8 -53.5 18t-43.5 17l-17 8l-260 -643h-326l457 1135q22 55 59 106t87.5 95t117.5 70t141 26l60 -176q-4 -2 -11.5 -6t-29.5 -19.5t-41.5 -35.5 t-43 -54.5t-40.5 -75.5l-86 -215q70 -43 146 -50t140.5 20t117.5 76t83.5 118.5t30.5 145.5q0 47 -11.5 94t-41 96t-74 86t-117 60.5t-162.5 23.5q-104 0 -196 -30t-157 -79.5t-112 -111.5t-69.5 -127.5t-22.5 -126.5q0 -44 12 -91t24 -73l11 -25l-217 -161q-4 6 -11 17.5 t-24 48.5t-30 75t-24 94t-11 109zM913 1810l275 318h344l-367 -318h-252z" />
<glyph unicode="&#x155;" horiz-adv-x="909" d="M39 569q72 127 162 328q-32 34 -48 62t-16 63q0 74 62.5 147t130.5 95l133 -74l-66 -164q20 -18 66.5 -48.5t89 -60.5t85.5 -66.5t69 -80t26 -86.5q0 -39 -24 -102l-58 -146q-27 -65 -40.5 -114.5t-14.5 -77t5.5 -44t15 -21.5t18.5 -5q42 0 117.5 95.5t195.5 299.5 q33 -3 68 -28t47 -54q-54 -93 -96.5 -159t-99 -138t-108 -116t-115 -72.5t-128.5 -28.5q-51 0 -95 15t-80 51t-53 89.5t-6.5 138t52.5 188.5l65 166q19 49 19 71q0 19 -16.5 42.5t-31 36.5t-53.5 46q-75 -175 -163 -330q-33 3 -68 28t-47 54zM262 1317l273 317h344 l-365 -317h-252z" />
<glyph unicode="&#x158;" horiz-adv-x="1421" d="M-6 1012q0 92 28.5 189.5t93 196.5t157.5 175.5t234.5 125t311.5 48.5q147 0 268.5 -36t203.5 -96t139 -139t82.5 -164t25.5 -173q0 -80 -21.5 -159.5t-64 -151t-101 -130t-138 -98.5t-169.5 -53q44 -35 69 -82t30.5 -102.5t3 -101t-11.5 -103.5l-54 -308 q-11 -113 13.5 -152t119.5 -38v-233q-120 -20 -214.5 5.5t-149.5 85t-78 144t-8 182.5l47 269q39 182 25 292.5t-97 167.5q-27 8 -53.5 18t-43.5 17l-17 8l-260 -643h-326l457 1135q22 55 59 106t87.5 95t117.5 70t141 26l60 -176q-4 -2 -11.5 -6t-29.5 -19.5t-41.5 -35.5 t-43 -54.5t-40.5 -75.5l-86 -215q70 -43 146 -50t140.5 20t117.5 76t83.5 118.5t30.5 145.5q0 47 -11.5 94t-41 96t-74 86t-117 60.5t-162.5 23.5q-104 0 -196 -30t-157 -79.5t-112 -111.5t-69.5 -127.5t-22.5 -126.5q0 -44 12 -91t24 -73l11 -25l-217 -161q-4 6 -11 17.5 t-24 48.5t-30 75t-24 94t-11 109zM854 2175h225l88 -152l205 152h285l-465 -363h-164z" />
<glyph unicode="&#x159;" horiz-adv-x="909" d="M39 569q72 127 162 328q-32 34 -48 62t-16 63q0 74 62.5 147t130.5 95l133 -74l-66 -164q20 -18 66.5 -48.5t89 -60.5t85.5 -66.5t69 -80t26 -86.5q0 -39 -24 -102l-58 -146q-27 -65 -40.5 -114.5t-14.5 -77t5.5 -44t15 -21.5t18.5 -5q42 0 117.5 95.5t195.5 299.5 q33 -3 68 -28t47 -54q-54 -93 -96.5 -159t-99 -138t-108 -116t-115 -72.5t-128.5 -28.5q-51 0 -95 15t-80 51t-53 89.5t-6.5 138t52.5 188.5l65 166q19 49 19 71q0 19 -16.5 42.5t-31 36.5t-53.5 46q-75 -175 -163 -330q-33 3 -68 28t-47 54zM156 1681h225l88 -151l207 151 h282l-462 -362h-166z" />
<glyph unicode="&#x15a;" horiz-adv-x="1394" d="M-92 -485q-46 263 168 546q-117 158 -117 375q0 115 34.5 215.5t93 172.5t138 122t167 69t183 7t183.5 -57l-99 -248q-62 31 -123.5 35t-112 -17.5t-90 -61.5t-61.5 -98.5t-22 -125.5q0 -95 39 -166q100 94 643 583q-53 236 -53 383q0 224 112.5 356t296.5 132 q66 0 120.5 -19t90.5 -50t61.5 -71.5t36.5 -84t11 -87.5q0 -71 -27.5 -144t-83.5 -148.5t-110.5 -135.5t-137.5 -141q45 -229 45 -369q0 -202 -89 -355.5t-243 -234.5t-348 -81q-207 0 -374 98q-80 -95 -110 -189t-9 -210h-213zM457 131q65 -33 153 -33q166 0 272.5 116.5 t106.5 289.5q0 17 -3.5 52t-4.5 50q-100 -93 -524 -475zM1180 1278q0 -65 16 -156q82 85 119 147.5t37 116.5q0 76 -66 76q-35 0 -58.5 -21t-32.5 -55t-12 -58t-3 -50zM1235 1810l272 318h344l-364 -318h-252z" />
<glyph unicode="&#x15b;" horiz-adv-x="841" d="M-45 113l180 112q25 -28 64 -28q53 0 79.5 56t26.5 198q0 25 -3 142.5t-1 176.5q-121 -237 -147 -283q-33 3 -68 28t-47 54q63 107 149.5 273.5t143.5 292.5l282 -72q-24 -129 -26.5 -274t8 -298t10.5 -167q0 -69 -10 -111q80 63 147 147.5t138 208.5q32 -3 67 -28 t47 -54q-49 -88 -97 -157.5t-113 -138.5t-134.5 -115t-159.5 -74.5t-190 -28.5q-68 0 -128.5 14t-95.5 30.5t-66 41t-39 33.5t-16 20zM295 1210l274 318h344l-366 -318h-252z" />
<glyph unicode="&#x15e;" horiz-adv-x="1394" d="M-92 -485q-46 263 168 546q-117 158 -117 375q0 115 34.5 215.5t93 172.5t138 122t167 69t183 7t183.5 -57l-99 -248q-62 31 -123.5 35t-112 -17.5t-90 -61.5t-61.5 -98.5t-22 -125.5q0 -95 39 -166q100 94 643 583q-53 236 -53 383q0 224 112.5 356t296.5 132 q66 0 120.5 -19t90.5 -50t61.5 -71.5t36.5 -84t11 -87.5q0 -71 -27.5 -144t-83.5 -148.5t-110.5 -135.5t-137.5 -141q45 -229 45 -369q0 -274 -157.5 -451.5t-413.5 -211.5l-49 -98q53 -16 80.5 -47.5t27.5 -88.5q0 -84 -57 -140t-137.5 -74t-166.5 -9t-145 45l93 142 q30 -16 67.5 -23t66.5 3.5t29 39.5q0 32 -36 40t-93 -1l113 209q-149 17 -276 92q-80 -95 -110 -189t-9 -210h-213zM457 131q65 -33 153 -33q166 0 272.5 116.5t106.5 289.5q0 17 -3.5 52t-4.5 50q-100 -93 -524 -475zM1180 1278q0 -65 16 -156q82 85 119 147.5t37 116.5 q0 76 -66 76q-35 0 -58.5 -21t-32.5 -55t-12 -58t-3 -50z" />
<glyph unicode="&#x15f;" horiz-adv-x="841" d="M-88 -414q15 24 46 71.5t46 70.5q30 -16 67.5 -23t67 3.5t29.5 39.5q0 32 -36 40t-93 -1l111 207q-124 28 -195 119q114 71 180 112q25 -28 64 -28q53 0 79.5 56t26.5 198q0 25 -3 142.5t-1 176.5q-121 -237 -147 -283q-33 3 -68 28t-47 54q63 107 149.5 273.5 t143.5 292.5l282 -72q-24 -129 -26.5 -274t8 -298t10.5 -167q0 -69 -10 -111q80 63 147 147.5t138 208.5q34 -3 68 -28t46 -54q-47 -83 -92.5 -150t-106.5 -133.5t-125.5 -112.5t-147.5 -77.5t-175 -38.5l-41 -75q55 -16 83 -47.5t28 -88.5q0 -84 -57 -140t-137.5 -74 t-166.5 -9t-145 45z" />
<glyph unicode="&#x160;" horiz-adv-x="1394" d="M-92 -485q-46 263 168 546q-117 158 -117 375q0 115 34.5 215.5t93 172.5t138 122t167 69t183 7t183.5 -57l-99 -248q-62 31 -123.5 35t-112 -17.5t-90 -61.5t-61.5 -98.5t-22 -125.5q0 -95 39 -166q100 94 643 583q-53 236 -53 383q0 224 112.5 356t296.5 132 q66 0 120.5 -19t90.5 -50t61.5 -71.5t36.5 -84t11 -87.5q0 -71 -27.5 -144t-83.5 -148.5t-110.5 -135.5t-137.5 -141q45 -229 45 -369q0 -202 -89 -355.5t-243 -234.5t-348 -81q-207 0 -374 98q-80 -95 -110 -189t-9 -210h-213zM457 131q65 -33 153 -33q166 0 272.5 116.5 t106.5 289.5q0 17 -3.5 52t-4.5 50q-100 -93 -524 -475zM1180 1278q0 -65 16 -156q82 85 119 147.5t37 116.5q0 76 -66 76q-35 0 -58.5 -21t-32.5 -55t-12 -58t-3 -50zM1180 2175h225l88 -152l205 152h284l-464 -363h-164z" />
<glyph unicode="&#x161;" horiz-adv-x="841" d="M-45 113l180 112q25 -28 64 -28q53 0 79.5 56t26.5 198q0 25 -3 142.5t-1 176.5q-121 -237 -147 -283q-33 3 -68 28t-47 54q63 107 149.5 273.5t143.5 292.5l282 -72q-24 -129 -26.5 -274t8 -298t10.5 -167q0 -69 -10 -111q80 63 147 147.5t138 208.5q32 -3 67 -28 t47 -54q-49 -88 -97 -157.5t-113 -138.5t-134.5 -115t-159.5 -74.5t-190 -28.5q-68 0 -128.5 14t-95.5 30.5t-66 41t-39 33.5t-16 20zM213 1548h225l88 -151l205 151h285l-465 -362h-164z" />
<glyph unicode="&#x162;" horiz-adv-x="1361" d="M0 367q0 94 35 178t98.5 147t161 96.5t213.5 24.5v-270q-68 5 -116.5 -11t-71 -46t-32 -59.5t-9.5 -61.5q0 -85 59 -137t141 -52q137 0 235.5 113t194.5 346l285 704q-23 5 -88 19.5t-91 20t-82.5 17.5t-85 17.5t-74.5 13.5t-75 11.5t-61.5 6.5t-58.5 3 q-102 0 -153.5 -37.5t-51.5 -97.5q0 -56 40.5 -87.5t92.5 -31.5q36 0 71 15t53 31l17 15l131 -198q-5 -5 -13.5 -12.5t-37.5 -27t-60.5 -34.5t-81 -27t-100.5 -12q-99 0 -183 40.5t-138.5 126.5t-54.5 202q0 63 16.5 121t54 111t92.5 92t138.5 62t185.5 23 q112 0 274.5 -29.5t302.5 -64.5t310.5 -64.5t296.5 -29.5q76 0 136.5 15t82.5 29l22 15l172 -94q-1 -5 -3 -13.5t-13 -33.5t-27 -47.5t-47.5 -50t-72.5 -47.5t-104.5 -33.5t-139.5 -13.5q-146 0 -287 22l-330 -813q-49 -122 -109.5 -218.5t-120 -156.5t-126 -101t-123.5 -59 t-115 -24l-45 -88q54 -16 81.5 -47t27.5 -88q0 -68 -37.5 -118.5t-96 -74.5t-126 -32t-133 4.5t-111.5 41.5l90 142q31 -16 68.5 -23t66.5 3.5t29 39.5q0 32 -36 40t-93 -1l113 209q-93 18 -166 63t-117 106.5t-67 132.5t-23 147z" />
<glyph unicode="&#x163;" horiz-adv-x="651" d="M-178 -414l90 142q31 -16 68.5 -23t66.5 3.5t29 39.5q0 32 -35 40t-92 -1l112 211q-47 21 -76.5 61t-40.5 100t4 145t56 188l232 571h-170l67 164h168l98 241h326l-98 -241h164l-68 -164h-162l-252 -627q-28 -67 -41.5 -116.5t-15 -76.5t6 -43.5t18 -21t26.5 -4.5 q75 0 175.5 103.5t211.5 291.5q33 -3 68 -28t47 -54q-259 -455 -547 -505l-41 -82q54 -16 81.5 -47.5t27.5 -88.5q0 -84 -57 -140t-137 -74t-166 -9t-144 45z" />
<glyph unicode="&#x164;" horiz-adv-x="1361" d="M0 367q0 94 35 178t98.5 147t161 96.5t213.5 24.5v-270q-68 5 -116.5 -11t-71 -46t-32 -59.5t-9.5 -61.5q0 -85 59 -137t141 -52q137 0 235.5 113t194.5 346l285 704q-23 5 -88 19.5t-91 20t-82.5 17.5t-85 17.5t-74.5 13.5t-75 11.5t-61.5 6.5t-58.5 3 q-102 0 -153.5 -37.5t-51.5 -97.5q0 -56 40.5 -87.5t92.5 -31.5q36 0 71 15t53 31l17 15l131 -198q-5 -5 -13.5 -12.5t-37.5 -27t-60.5 -34.5t-81 -27t-100.5 -12q-99 0 -183 40.5t-138.5 126.5t-54.5 202q0 63 16.5 121t54 111t92.5 92t138.5 62t185.5 23q111 0 278 -29.5 t311.5 -64.5t311.5 -64.5t279 -29.5q84 0 145 15t81 29l19 15l172 -94q-1 -5 -3 -13.5t-13 -33.5t-27 -47.5t-47.5 -50t-72.5 -47.5t-104.5 -33.5t-139.5 -13.5q-146 0 -287 22l-330 -813q-223 -563 -669 -563q-98 0 -181 26t-141 70t-99 103t-60 125.5t-19 136.5z M1212 2044h226l88 -152l207 152h282l-463 -363h-166z" />
<glyph unicode="&#x165;" horiz-adv-x="651" d="M-54.5 150.5q-12.5 59.5 1.5 147t57 194.5l232 571h-170l67 164h168l98 241h326l-98 -241h164l-68 -164h-162l-252 -627q-28 -67 -41.5 -116.5t-15 -76.5t6 -43.5t18 -21t26.5 -4.5q75 0 175.5 103.5t211.5 291.5q33 -3 68 -28t47 -54q-294 -514 -619 -514 q-62 0 -111 18.5t-83 59t-46.5 100zM752 1118q122 85 135 144q-35 12 -56.5 40.5t-21.5 63.5q0 49 33.5 83t79.5 34q45 0 80.5 -32t35.5 -93q0 -48 -25 -98.5t-64.5 -91t-76.5 -70.5t-73 -51z" />
<glyph unicode="&#x16e;" horiz-adv-x="1830" d="M0 813q0 59 14.5 111.5t39 94t64.5 80t81 67.5t100.5 58.5t112 50.5t124.5 46t129 43t135.5 43t135.5 45q58 74 141.5 120t182.5 46l59 -176q-4 -2 -11.5 -5.5t-29 -19t-41 -35t-43.5 -55t-41 -78.5l-305 -755q-50 -126 -58 -195.5t4 -79.5t31 -10q89 0 223.5 119.5 t208.5 261.5l361 897h326l-416 -1043q-23 -60 -33.5 -104.5t-10 -69t9 -39t19 -18.5t25.5 -4q69 0 145 84.5t187 275.5q33 -3 68 -28t47 -54q-64 -112 -125 -197t-134 -160.5t-155 -116t-168 -40.5q-104 0 -171.5 60t-55.5 186q-240 -297 -469 -297q-84 0 -142.5 38.5 t-87 113.5t-12.5 197.5t80 277.5l235 584q-16 -5 -47 -15q-50 -16 -74.5 -24t-68.5 -22.5t-66.5 -24t-58.5 -24.5t-55.5 -26.5t-45 -27.5t-39 -31t-27 -33.5t-19 -38t-5.5 -41.5q0 -35 15 -61t38.5 -38.5t46 -18t44.5 -5.5v-268q-187 0 -303.5 106.5t-114.5 272.5z M1280 1907q0 117 81 197.5t198 80.5q116 0 197 -80.5t81 -197.5q0 -116 -81.5 -197.5t-196.5 -81.5q-117 0 -198 81.5t-81 197.5zM1454 1907q0 -43 31 -74t74 -31t73.5 31t30.5 74t-30.5 73.5t-73.5 30.5t-74 -30.5t-31 -73.5z" />
<glyph unicode="&#x16f;" horiz-adv-x="1175" d="M-57 149q-13 59 1 147t58 196l231 571h326l-252 -627q-24 -59 -37 -102.5t-16 -68t2.5 -39t14 -19t22.5 -4.5q57 0 119 74t163 243l220 543h325l-252 -627q-27 -65 -41 -114t-16.5 -76.5t3 -44.5t15 -22t23.5 -5q64 0 158 102t204 293q33 -3 68 -28t47 -54 q-62 -109 -127.5 -197t-140.5 -161.5t-159.5 -114.5t-168.5 -41q-90 0 -152 46t-79 139q-157 -185 -332 -185q-57 0 -103 18t-78.5 58.5t-45.5 99.5zM469 1419q0 117 81.5 198t197.5 81q117 0 198.5 -81t81.5 -198q0 -116 -81.5 -197t-198.5 -81q-116 0 -197.5 81.5 t-81.5 196.5zM643 1419q0 -43 31 -73.5t74 -30.5q44 0 75 30.5t31 73.5t-31 74t-75 31q-43 0 -74 -31t-31 -74z" />
<glyph unicode="&#x170;" horiz-adv-x="1830" d="M0 813q0 59 14.5 111.5t39 94t64.5 80t81 67.5t100.5 58.5t112 50.5t124.5 46t129 43t135.5 43t135.5 45q58 74 141.5 120t182.5 46l59 -176q-4 -2 -11.5 -5.5t-29 -19t-41 -35t-43.5 -55t-41 -78.5l-305 -755q-50 -126 -58 -195.5t4 -79.5t31 -10q89 0 223.5 119.5 t208.5 261.5l361 897h326l-416 -1043q-23 -60 -33.5 -104.5t-10 -69t9 -39t19 -18.5t25.5 -4q69 0 145 84.5t187 275.5q33 -3 68 -28t47 -54q-64 -112 -125 -197t-134 -160.5t-155 -116t-168 -40.5q-104 0 -171.5 60t-55.5 186q-240 -297 -469 -297q-84 0 -142.5 38.5 t-87 113.5t-12.5 197.5t80 277.5l235 584q-16 -5 -47 -15q-50 -16 -74.5 -24t-68.5 -22.5t-66.5 -24t-58.5 -24.5t-55.5 -26.5t-45 -27.5t-39 -31t-27 -33.5t-19 -38t-5.5 -41.5q0 -35 15 -61t38.5 -38.5t46 -18t44.5 -5.5v-268q-187 0 -303.5 106.5t-114.5 272.5z M1229 1681l225 318h318l-312 -318h-231zM1616 1681l225 318h318l-312 -318h-231z" />
<glyph unicode="&#x171;" horiz-adv-x="1175" d="M-57 149q-13 59 1 147t58 196l231 571h326l-252 -627q-24 -59 -37 -102.5t-16 -68t2.5 -39t14 -19t22.5 -4.5q57 0 119 74t163 243l220 543h325l-252 -627q-27 -65 -41 -114t-16.5 -76.5t3 -44.5t15 -22t23.5 -5q64 0 158 102t204 293q33 -3 68 -28t47 -54 q-62 -109 -127.5 -197t-140.5 -161.5t-159.5 -114.5t-168.5 -41q-90 0 -152 46t-79 139q-157 -185 -332 -185q-57 0 -103 18t-78.5 58.5t-45.5 99.5zM352 1167l228 318h315l-311 -318h-232zM739 1167l228 318h315l-311 -318h-232z" />
<glyph unicode="&#x178;" horiz-adv-x="1771" d="M0 813q0 59 14.5 111.5t39 94.5t64 80.5t81 67.5t100.5 58t112 50.5t124.5 46t129 42.5t136 43t135.5 45q58 74 141.5 120t182.5 46l59 -176q-4 -2 -11.5 -5.5t-29 -19t-41 -35t-43.5 -55t-41 -78.5l-305 -755q-50 -125 -58.5 -194t3 -80t32.5 -11q90 0 224.5 120.5 t210.5 260.5l360 897h326l-545 -1348q258 159 409 430q33 -3 68 -28t47 -54q-68 -119 -141.5 -211.5t-153.5 -162t-155 -119.5t-172 -100q-13 -32 -36 -94.5t-39.5 -106t-44.5 -104.5t-54 -104t-64.5 -89.5t-79.5 -75t-96 -47t-117 -18.5q-76 0 -133 25t-87.5 66.5t-45 85.5 t-14.5 91q2 192 262 309q32 16 120 53t121 52l68 165q-184 -180 -361 -180q-65 0 -115.5 24t-82.5 74.5t-41.5 123t11 177t71.5 228.5l237 584q-237 -75 -308 -106q-165 -71 -193 -159q-7 -21 -7 -43q0 -35 15 -61t38.5 -38.5t46 -18t44.5 -5.5v-268q-187 0 -303.5 106.5 t-114.5 272.5zM678 -467q0 -27 17 -39t40 -12q41 0 81 55.5t93 183.5q-115 -52 -129 -61q-43 -24 -72.5 -58t-29.5 -69zM1186 1825q0 67 47 114.5t113 47.5q67 0 114 -47t47 -115q0 -66 -47 -113t-114 -47q-66 0 -113 47t-47 113zM1573 1825q0 67 47 114.5t113 47.5 q67 0 114 -47t47 -115q0 -66 -47 -113t-114 -47q-66 0 -113 47t-47 113z" />
<glyph unicode="&#x179;" horiz-adv-x="1374" d="M-154 180q0 45 13 92t42.5 93t70.5 82t102.5 58.5t134.5 22.5q104 0 194 -43.5t191 -124.5q73 83 135 162l598 789q-87 11 -280 56.5t-273 45.5q-106 0 -158.5 -46t-52.5 -110q0 -58 39.5 -89t91.5 -31q37 0 73 15.5t53 30.5l18 15l131 -199q-5 -5 -13.5 -12.5 t-37.5 -26.5t-61 -34t-81.5 -27t-99.5 -12q-73 0 -140.5 24t-120.5 68.5t-84.5 115t-31.5 156.5q0 81 28.5 153.5t84 131.5t147.5 94t209 35q90 0 212 -23t212.5 -46t203.5 -35t185 10q117 92 262 92l60 -176l-7 -2q-6 -2 -15 -6t-22 -10t-28 -15t-30.5 -19.5t-32 -26 t-31.5 -32.5l-684 -899q-169 -219 -250 -305q275 -249 377 -332q73 -57 118.5 -78.5t87.5 -21.5q124 0 275 145l186 -211q-113 -109 -232.5 -162.5t-223.5 -50.5q-180 5 -375 162q-45 36 -101 87t-152.5 141.5t-154.5 144.5q-195 -141 -391 -141q-95 0 -169.5 30.5 t-116.5 79.5t-63.5 104t-21.5 111zM98 190q0 -40 29.5 -64t75.5 -22q78 0 194 80q-127 105 -200 105q-43 0 -71 -29t-28 -70zM1198 1724l272 318h345l-367 -318h-250z" />
<glyph unicode="&#x17a;" horiz-adv-x="1085" d="M10 141l639 578q-10 2 -92 26.5t-133 24.5q-70 0 -119.5 -53t-150.5 -230q-33 3 -68 28t-47 54q31 53 66.5 122t58.5 113t52.5 94.5t56 81.5t61 58.5t76.5 39.5t94 12t123.5 -14.5t126 -28t129 -12t143.5 27.5l107 -141l-601 -547q40 -6 129 -48t146 -42q69 0 145.5 59.5 t171.5 224.5q33 -3 68 -28t47 -54q-57 -98 -103.5 -168t-105 -139.5t-115 -112t-126.5 -68.5t-146 -26q-67 0 -130 20t-104.5 40.5t-85.5 33.5t-94.5 -2t-111.5 -65zM541 1167l272 318h344l-366 -318h-250z" />
<glyph unicode="&#x17b;" horiz-adv-x="1374" d="M-154 180q0 45 13 92t42.5 93t70.5 82t102.5 58.5t134.5 22.5q104 0 194 -43.5t191 -124.5q73 83 135 162l598 789q-87 11 -280 56.5t-273 45.5q-106 0 -158.5 -46t-52.5 -110q0 -58 39.5 -89t91.5 -31q37 0 73 15.5t53 30.5l18 15l131 -199q-5 -5 -13.5 -12.5 t-37.5 -26.5t-61 -34t-81.5 -27t-99.5 -12q-73 0 -140.5 24t-120.5 68.5t-84.5 115t-31.5 156.5q0 81 28.5 153.5t84 131.5t147.5 94t209 35q90 0 212 -23t212.5 -46t203.5 -35t185 10q117 92 262 92l60 -176l-7 -2q-6 -2 -15 -6t-22 -10t-28 -15t-30.5 -19.5t-32 -26 t-31.5 -32.5l-684 -899q-169 -219 -250 -305q275 -249 377 -332q73 -57 118.5 -78.5t87.5 -21.5q124 0 275 145l186 -211q-113 -109 -232.5 -162.5t-223.5 -50.5q-180 5 -375 162q-45 36 -101 87t-152.5 141.5t-154.5 144.5q-195 -141 -391 -141q-95 0 -169.5 30.5 t-116.5 79.5t-63.5 104t-21.5 111zM98 190q0 -40 29.5 -64t75.5 -22q78 0 194 80q-127 105 -200 105q-43 0 -71 -29t-28 -70zM1247 1872q0 67 47 114.5t113 47.5q67 0 114.5 -47t47.5 -115q0 -66 -47.5 -113t-114.5 -47q-66 0 -113 47t-47 113z" />
<glyph unicode="&#x17c;" horiz-adv-x="1085" d="M10 141l639 578q-10 2 -92 26.5t-133 24.5q-70 0 -119.5 -53t-150.5 -230q-33 3 -68 28t-47 54q31 53 66.5 122t58.5 113t52.5 94.5t56 81.5t61 58.5t76.5 39.5t94 12t123.5 -14.5t126 -28t129 -12t143.5 27.5l107 -141l-601 -547q40 -6 129 -48t146 -42q69 0 145.5 59.5 t171.5 224.5q33 -3 68 -28t47 -54q-57 -98 -103.5 -168t-105 -139.5t-115 -112t-126.5 -68.5t-146 -26q-67 0 -130 20t-104.5 40.5t-85.5 33.5t-94.5 -2t-111.5 -65zM623 1333q0 67 46.5 114.5t112.5 47.5q68 0 115 -47.5t47 -114.5q0 -66 -47.5 -112.5t-114.5 -46.5 q-66 0 -112.5 46.5t-46.5 112.5z" />
<glyph unicode="&#x17d;" horiz-adv-x="1374" d="M-154 180q0 45 13 92t42.5 93t70.5 82t102.5 58.5t134.5 22.5q104 0 194 -43.5t191 -124.5q73 83 135 162l598 789q-87 11 -280 56.5t-273 45.5q-106 0 -158.5 -46t-52.5 -110q0 -58 39.5 -89t91.5 -31q37 0 73 15.5t53 30.5l18 15l131 -199q-5 -5 -13.5 -12.5 t-37.5 -26.5t-61 -34t-81.5 -27t-99.5 -12q-73 0 -140.5 24t-120.5 68.5t-84.5 115t-31.5 156.5q0 81 28.5 153.5t84 131.5t147.5 94t209 35q90 0 212 -23t212.5 -46t203.5 -35t185 10q117 92 262 92l60 -176l-7 -2q-6 -2 -15 -6t-22 -10t-28 -15t-30.5 -19.5t-32 -26 t-31.5 -32.5l-684 -899q-169 -219 -250 -305q275 -249 377 -332q73 -57 118.5 -78.5t87.5 -21.5q124 0 275 145l186 -211q-113 -109 -232.5 -162.5t-223.5 -50.5q-180 5 -375 162q-45 36 -101 87t-152.5 141.5t-154.5 144.5q-195 -141 -391 -141q-95 0 -169.5 30.5 t-116.5 79.5t-63.5 104t-21.5 111zM98 190q0 -40 29.5 -64t75.5 -22q78 0 194 80q-127 105 -200 105q-43 0 -71 -29t-28 -70zM1061 2091h223l88 -152l207 152h283l-463 -362h-164z" />
<glyph unicode="&#x17e;" horiz-adv-x="1085" d="M10 141l639 578q-10 2 -92 26.5t-133 24.5q-70 0 -119.5 -53t-150.5 -230q-33 3 -68 28t-47 54q31 53 66.5 122t58.5 113t52.5 94.5t56 81.5t61 58.5t76.5 39.5t94 12t123.5 -14.5t126 -28t129 -12t143.5 27.5l107 -141l-601 -547q40 -6 129 -48t146 -42q69 0 145.5 59.5 t171.5 224.5q33 -3 68 -28t47 -54q-57 -98 -103.5 -168t-105 -139.5t-115 -112t-126.5 -68.5t-146 -26q-67 0 -130 20t-104.5 40.5t-85.5 33.5t-94.5 -2t-111.5 -65zM510 1550h225l88 -151l207 151h283l-463 -362h-166z" />
<glyph unicode="&#x192;" horiz-adv-x="1224" d="M-266 -254l135 242q60 -2 111 12t90 38.5t77.5 69t68.5 89.5t69 114l274 527h-188l84 204h207l106 203q66 128 155.5 199t205.5 81.5t253 -55.5q-63 -151 -88 -217q-42 15 -75 17t-60 -7t-51 -32t-44.5 -53.5t-43.5 -77.5l-31 -58h195l-84 -204h-213l-332 -637 q-152 -281 -360.5 -394.5t-460.5 -60.5z" />
<glyph unicode="&#x2c6;" horiz-adv-x="757" d="M-25 1147l463 362h166l172 -362h-223l-90 149l-203 -149h-285z" />
<glyph unicode="&#x2c7;" horiz-adv-x="757" d="M119 1509h225l88 -151l205 151h285l-463 -362h-166z" />
<glyph unicode="&#x2d8;" horiz-adv-x="757" d="M180.5 1350.5q1.5 30.5 8.5 60.5t14 48t12 28h201l-5 -12q-5 -12 -11.5 -27.5t-9.5 -34t-0.5 -34t16.5 -26t40 -10.5q30 0 57 13.5t45.5 34.5t31.5 40.5t22 37t10 18.5h199q-3 -16 -11 -42t-37 -76.5t-70 -90.5t-115.5 -71t-167.5 -31q-67 0 -114.5 15.5t-71 40 t-34.5 56.5t-9.5 62.5z" />
<glyph unicode="&#x2d9;" horiz-adv-x="757" d="M287 1333q0 67 46.5 114.5t112.5 47.5q68 0 115 -47.5t47 -114.5q0 -66 -47.5 -112.5t-114.5 -46.5q-66 0 -112.5 46.5t-46.5 112.5z" />
<glyph unicode="&#x2da;" horiz-adv-x="757" d="M207 1456q0 117 81 198t197 81t197.5 -81t81.5 -198q0 -115 -81.5 -196.5t-197.5 -81.5q-115 0 -196.5 81t-81.5 197zM381 1456q0 -43 30.5 -73.5t73.5 -30.5t74 30.5t31 73.5t-31 74t-74 31t-73.5 -31t-30.5 -74z" />
<glyph unicode="&#x2db;" horiz-adv-x="757" d="M8 -297q0 43 20.5 84t54.5 77t94.5 77t124 77t159.5 86l57 -104q-254 -157 -254 -233q0 -19 11 -28.5t32 -9.5t40.5 2.5t49 12.5t43.5 15t37 14l-78 -191q-29 -14 -74.5 -25.5t-101 -14t-103 8.5t-80 50t-32.5 102z" />
<glyph unicode="&#x2dc;" horiz-adv-x="831" d="M145 1317q22 33 34.5 50.5t37.5 46.5t47.5 44t55 27t67.5 12q49 0 93 -19.5t81.5 -39t69.5 -19.5q29 0 59 19t51 53l97 -109q-28 -41 -44.5 -62t-47.5 -52t-67.5 -45.5t-80.5 -14.5q-49 0 -92.5 19.5t-81 39t-70.5 19.5q-26 0 -56.5 -20t-53.5 -54z" />
<glyph unicode="&#x2dd;" horiz-adv-x="948" d="M102 1167l226 318h317l-311 -318h-232zM489 1167l226 318h317l-311 -318h-232z" />
<glyph unicode="&#x2000;" horiz-adv-x="1144" />
<glyph unicode="&#x2001;" horiz-adv-x="2288" />
<glyph unicode="&#x2002;" horiz-adv-x="1144" />
<glyph unicode="&#x2003;" horiz-adv-x="2288" />
<glyph unicode="&#x2004;" horiz-adv-x="762" />
<glyph unicode="&#x2005;" horiz-adv-x="572" />
<glyph unicode="&#x2006;" horiz-adv-x="381" />
<glyph unicode="&#x2007;" horiz-adv-x="381" />
<glyph unicode="&#x2008;" horiz-adv-x="286" />
<glyph unicode="&#x2009;" horiz-adv-x="457" />
<glyph unicode="&#x200a;" horiz-adv-x="127" />
<glyph unicode="&#x2010;" horiz-adv-x="1075" d="M260 485l82 205h594l-82 -205h-594z" />
<glyph unicode="&#x2011;" horiz-adv-x="1075" d="M260 485l82 205h594l-82 -205h-594z" />
<glyph unicode="&#x2012;" horiz-adv-x="1075" d="M260 485l82 205h594l-82 -205h-594z" />
<glyph unicode="&#x2013;" horiz-adv-x="1458" d="M260 485l82 205h977l-80 -205h-979z" />
<glyph unicode="&#x2014;" horiz-adv-x="1824" d="M260 485l82 205h1344l-80 -205h-1346z" />
<glyph unicode="&#x2018;" horiz-adv-x="595" d="M117 924q0 89 45 181t116 166.5t139 129t134 94.5l84 -133q-67 -49 -116 -93.5t-73.5 -76.5t-35.5 -52.5t-15 -35.5q64 -24 102 -76.5t38 -120.5q0 -88 -60.5 -149.5t-148.5 -61.5q-84 0 -146.5 59t-62.5 169z" />
<glyph unicode="&#x2019;" horiz-adv-x="546" d="M145 829q87 63 144 121.5t74 87t22 49.5q-63 23 -101 76.5t-38 120.5q0 88 60.5 149.5t148.5 61.5q83 0 146 -58t63 -169q0 -89 -45 -181t-116 -166.5t-139.5 -130t-134.5 -94.5z" />
<glyph unicode="&#x201a;" horiz-adv-x="706" d="M33 -274q66 50 114.5 94.5t72.5 77t35 53t15 35.5q-62 22 -100.5 75t-38.5 121q0 88 60.5 148.5t148.5 60.5q52 0 98.5 -22t79.5 -74.5t33 -128.5q0 -72 -31 -147.5t-77.5 -136.5t-107.5 -119.5t-115 -98t-105 -70.5z" />
<glyph unicode="&#x201c;" horiz-adv-x="1136" d="M117 922q0 73 31 148.5t77 136.5t107 119.5t114.5 98t104.5 70.5l84 -133q-67 -49 -116 -93.5t-73.5 -76.5t-35.5 -52.5t-15 -35.5q64 -24 102 -76.5t38 -120.5q0 -88 -60.5 -149.5t-148.5 -61.5q-83 0 -146 58.5t-63 167.5zM662 922q0 90 45 182t116.5 167t139 129.5 t133.5 94.5l84 -133q-67 -49 -116 -93.5t-73.5 -76.5t-35.5 -52.5t-15 -35.5q64 -24 101.5 -76.5t37.5 -120.5q0 -88 -60 -149.5t-147 -61.5q-84 0 -147 58.5t-63 167.5z" />
<glyph unicode="&#x201d;" horiz-adv-x="1093" d="M145 829q87 63 144 121.5t74 87t22 49.5q-63 23 -101 76.5t-38 120.5q0 88 60.5 149.5t148.5 61.5q84 0 146.5 -58t62.5 -167q0 -73 -31 -148.5t-77.5 -137t-107.5 -120t-114.5 -98t-104.5 -70.5zM690 829q87 63 144 121.5t74 87t22 49.5q-62 24 -100.5 77t-38.5 120 q0 88 60.5 149.5t147.5 61.5q84 0 147.5 -58t63.5 -167q0 -73 -31 -148.5t-77.5 -137t-107.5 -120t-115 -98t-105 -70.5z" />
<glyph unicode="&#x201e;" horiz-adv-x="1251" d="M33 -274q66 50 114.5 94.5t72.5 77t35 53t15 35.5q-62 22 -100.5 75t-38.5 121q0 88 60.5 148.5t148.5 60.5q84 0 147.5 -57.5t63.5 -167.5q0 -73 -31 -148.5t-77.5 -136.5t-108 -119t-114.5 -97.5t-105 -70.5zM578 -274q125 93 177.5 158.5t59.5 101.5q-62 22 -99.5 75 t-37.5 121q0 88 59.5 148.5t147.5 60.5q84 0 147.5 -57.5t63.5 -167.5q0 -73 -31 -148.5t-77.5 -136.5t-107.5 -119t-114 -97.5t-104 -70.5z" />
<glyph unicode="&#x2020;" horiz-adv-x="1339" d="M160 -313q219 654 243 845l189 283l-137 -45q-15 -6 -43 -6q-66 0 -113 47t-47 113q0 67 47 113t113 46q23 0 53 -10l207 -82l65 361q8 60 53 101.5t107 41.5q65 0 112.5 -47.5t47.5 -112.5q0 -49 -31 -92l-162 -239l144 49q24 4 43 4q67 0 113 -46t46 -114 q0 -66 -46 -113t-113 -47q-21 0 -58 11l-192 75l-33 -291q-141 -207 -440 -845h-168z" />
<glyph unicode="&#x2021;" horiz-adv-x="1425" d="M45 168q0 66 47.5 113t114.5 47q22 0 55 -11l195 -73l32 288l189 283l-137 -45q-15 -6 -43 -6q-66 0 -113 47t-47 113q0 67 47 113t113 46q17 0 53 -8l207 -84l65 361q6 59 52 101t108 42q65 0 112.5 -47.5t47.5 -112.5q0 -49 -31 -92l-162 -239l144 49q18 6 43 6 q67 0 113 -47t46 -115q0 -66 -46 -113t-113 -47q-21 0 -58 11l-192 75l-33 -291q-139 -207 -188 -282l135 45q18 6 45 6q66 0 113 -46.5t47 -113.5q0 -66 -47 -112.5t-113 -46.5q-23 0 -53 10l-207 82l-66 -359q-8 -61 -53.5 -103t-106.5 -42q-65 0 -112 48t-47 114 q0 45 28 92l162 239l-141 -49q-18 -6 -45 -6q-66 0 -113 47t-47 113z" />
<glyph unicode="&#x2022;" horiz-adv-x="1015" d="M274 584q0 110 76.5 187t186.5 77q109 0 186.5 -77t77.5 -187t-77.5 -186t-186.5 -76q-110 0 -186.5 76t-76.5 186z" />
<glyph unicode="&#x2026;" horiz-adv-x="1804" d="M131 182q0 88 60.5 148.5t148.5 60.5t149.5 -60.5t61.5 -148.5t-61.5 -148.5t-149.5 -60.5t-148.5 60.5t-60.5 148.5zM680 182q0 88 60.5 148.5t148.5 60.5t149.5 -60.5t61.5 -148.5t-61.5 -148.5t-149.5 -60.5t-148.5 60.5t-60.5 148.5zM1229 182q0 88 60.5 148.5 t148.5 60.5t149.5 -60.5t61.5 -148.5t-61.5 -148.5t-149.5 -60.5t-148.5 60.5t-60.5 148.5z" />
<glyph unicode="&#x202f;" horiz-adv-x="457" />
<glyph unicode="&#x2030;" horiz-adv-x="2168" d="M109 864q0 128 90 219t219 91q127 0 218 -91t91 -219t-90.5 -218.5t-218.5 -90.5q-129 0 -219 90.5t-90 218.5zM201 0l968 1174h226l-971 -1174h-223zM322 864q0 -40 27.5 -68t68.5 -28q40 0 68 28t28 68t-28 68.5t-68 28.5q-41 0 -68.5 -28.5t-27.5 -68.5zM868 309 q0 128 90.5 218.5t219.5 90.5q128 0 218.5 -91t90.5 -218q0 -129 -90.5 -219t-218.5 -90q-129 0 -219.5 90t-90.5 219zM1079 309q0 -41 28.5 -68.5t70.5 -27.5q40 0 68 27.5t28 68.5q0 40 -28 68.5t-68 28.5q-41 0 -70 -28.5t-29 -68.5zM1540 309q0 128 90 218.5t217 90.5 q129 0 219.5 -90.5t90.5 -218.5q0 -129 -90.5 -219t-219.5 -90q-128 0 -217.5 90t-89.5 219zM1751 309q0 -41 28 -68.5t68 -27.5q42 0 70.5 27.5t28.5 68.5q0 40 -29 68.5t-70 28.5q-40 0 -68 -28.5t-28 -68.5z" />
<glyph unicode="&#x2039;" horiz-adv-x="1153" d="M221 485l64 158l696 399l-152 -372l-262 -168l127 -166l-102 -256z" />
<glyph unicode="&#x203a;" horiz-adv-x="1128" d="M154 84l149 375l266 164l-133 168l103 256l370 -404l-63 -158z" />
<glyph unicode="&#x2044;" horiz-adv-x="821" d="M-227 0l1214 1468h176l-1216 -1468h-174z" />
<glyph unicode="&#x205f;" horiz-adv-x="572" />
<glyph unicode="&#x2070;" horiz-adv-x="753" d="M35 836q0 41 8.5 96.5t27 122t45 133t65.5 128.5t86 110t109.5 77t131.5 29q59 0 103.5 -20.5t69 -56.5t36.5 -77.5t12 -89.5q0 -47 -12 -113.5t-35.5 -145.5t-63.5 -155t-90 -139t-121.5 -102t-152.5 -39q-112 0 -165.5 69t-53.5 173zM221 817q0 -39 15.5 -54t33.5 -15 q48 0 115 112.5t112.5 246t45.5 200.5q0 33 -12 50t-31 17q-52 0 -120 -112t-113.5 -244.5t-45.5 -200.5z" />
<glyph unicode="&#x2074;" horiz-adv-x="808" d="M-8 831l80 191l434 494h297l-195 -490q20 2 38 9t26 13l8 7l84 -97q-3 -5 -9 -14t-27 -31t-46 -38.5t-66.5 -30.5t-87.5 -13l-90 -221h-213l90 221h-323zM248 1022h145l119 303z" />
<glyph unicode="&#x2075;" horiz-adv-x="790" d="M32.5 862.5q7.5 48.5 26.5 95.5h222q-39 -78 -31 -139t59 -61q62 0 114 86.5t52 179.5q0 72 -49 72q-67 0 -121 -103l-199 45l197 478q291 -52 330 -52q67 0 127 52l84 -101q-22 -30 -36 -45.5t-45.5 -41t-76 -38t-100.5 -12.5q-16 0 -60 5t-80 10l-36 5l-39 -102 q59 43 137 43q50 0 87 -20t57.5 -53.5t30 -70.5t9.5 -77q0 -46 -11.5 -98.5t-41.5 -111.5t-74 -105.5t-116.5 -77.5t-161.5 -31q-79 0 -135 23.5t-82.5 61t-35.5 86.5t-1.5 97.5z" />
<glyph unicode="&#x2076;" horiz-adv-x="778" d="M51 842q0 67 18 153.5t58 181.5t95 173.5t137.5 130t177.5 51.5q127 0 186.5 -86.5t21.5 -226.5h-219q10 21 17 44t9.5 47.5t-7 40t-31.5 15.5q-42 0 -81.5 -54t-88.5 -159q64 47 145 47q97 0 140 -56.5t41 -142.5q-2 -94 -51 -187t-137.5 -156.5t-190.5 -63.5 q-22 0 -44.5 2.5t-60.5 16.5t-65.5 38.5t-48.5 74t-21 116.5zM246 825q0 -67 49 -67q58 0 113 81.5t55 149.5q0 29 -14.5 47.5t-40.5 18.5q-60 0 -132 -82q-30 -85 -30 -148z" />
<glyph unicode="&#x2077;" horiz-adv-x="684" d="M45 610q28 71 70 146t104.5 162.5t97.5 134.5t114.5 146.5t90.5 113.5q-16 -4 -43 -4q-24 0 -114 12l-62 -150h-211l139 345q308 -52 347 -52q67 0 127 52l77 -93q-173 -238 -265 -387q-136 -219 -228 -426h-244z" />
<glyph unicode="&#x2078;" horiz-adv-x="788" d="M8 813q0 102 64.5 185.5t179.5 113.5q-3 0 -13 11t-22 41.5t-12 70.5q0 39 10 77.5t35.5 79t63 71t98.5 50t137 19.5q71 0 122.5 -16.5t78 -46t38 -61t11.5 -69.5q0 -82 -52 -153.5t-143 -102.5l8 -6q7 -6 17 -16.5t19.5 -26.5t16.5 -41.5t7 -56.5q0 -45 -12 -90t-41 -91 t-71.5 -81.5t-109.5 -57.5t-149 -22q-131 0 -206 54t-75 165zM227 829q0 -38 22 -55.5t54 -17.5q56 0 101 56t45 116q0 38 -20.5 58t-51.5 20q-57 0 -103.5 -58t-46.5 -119zM430 1239q0 -27 14 -41t35 -14q35 0 65.5 41t30.5 84q0 27 -12 42t-33 15q-36 0 -68 -41t-32 -86z " />
<glyph unicode="&#x2079;" horiz-adv-x="739" d="M19.5 789q-6.5 57 15.5 118h217q-56 -149 16 -149q68 0 166 211q-64 -43 -145 -43q-96 0 -139 55.5t-41 140.5q2 94 51.5 188t138 158t190.5 64q22 0 44 -2.5t60 -17t66 -38.5t49 -74t21 -118q0 -67 -18 -153t-58 -180.5t-95.5 -173t-138 -130t-177.5 -51.5 q-65 0 -115 26t-75.5 69t-32 100zM317 1137q0 -31 14 -49.5t40 -18.5q57 0 133 80q28 103 28 147q0 70 -47 70q-59 0 -113.5 -81t-54.5 -148z" />
<glyph unicode="&#x20ac;" horiz-adv-x="1345" d="M61 475l66 166h152q10 35 22 68h-145l65 165h148q57 125 129 231.5t163 196.5t204 141.5t233 51.5q101 0 168.5 -36.5t95.5 -93.5t32 -127.5t-13 -139t-48 -127.5h-329q90 145 79 218q-7 48 -61 48q-82 0 -164.5 -100.5t-155.5 -262.5h396l-64 -165h-399l-23 -68h392 l-64 -166h-373q-18 -85 -18 -160q0 -56 23 -87t83 -31q72 0 144 45t172 133l153 -144q-141 -128 -272 -193t-277 -65q-179 0 -266.5 89.5t-87.5 240.5q0 65 17 172h-177z" />
<glyph unicode="&#x2122;" horiz-adv-x="1386" d="M158 1040q0 69 52.5 114.5t170.5 37.5l-2 -115q-29 8 -44 1.5t-19.5 -14.5t-4.5 -17q0 -13 10.5 -23t30.5 -10q65 0 111 123l82 209q-109 28 -148 28q-61 0 -61 -31q0 -12 11 -19t34 -2.5t51 24.5l41 -101q-79 -41 -142 -36.5t-102 44t-39 97.5q0 62 51 103.5t146 41.5 q52 0 128 -15.5t131.5 -30.5t118.5 -22t91 9l18 43l123 -74q64 45 148 45t92 -64q32 32 87.5 48t96.5 16q47 0 66.5 -23t19.5 -51q0 -40 -39 -137l-106 -266q-12 -30 -7 -50.5t34 -33.5l-56 -135q-56 18 -90.5 47.5t-44.5 63.5t-8 65t14 63q127 310 127 328q0 12 -22 12 q-42 0 -88 -43l-152 -377h-160q158 394 158 404q0 16 -23 16q-38 0 -83 -39l-152 -381h-162l158 392q-32 -8 -111 4l-90 -222q-80 -200 -262 -200q-90 0 -137 43t-47 110z" />
<glyph unicode="&#x2212;" horiz-adv-x="1234" d="M57 449l115 276h932l-113 -276h-934z" />
<glyph unicode="&#x2264;" horiz-adv-x="1390" d="M-129 0l115 279h985l-113 -279h-987zM166 725l88 227l1147 396l-141 -344l-601 -209l435 -207l-105 -260z" />
<glyph unicode="&#x2265;" horiz-adv-x="1388" d="M-109 0l115 279h985l-112 -279h-988zM25 328l141 346l600 209l-432 207l104 260l822 -398l-91 -227z" />
<glyph unicode="&#xe000;" horiz-adv-x="1105" d="M0 0v1106h1106v-1106h-1106z" />
<glyph unicode="&#xfb01;" horiz-adv-x="1507" d="M-302 -529q-56 114 19 312l570 1415q92 233 202.5 333.5t262.5 100.5q65 0 114.5 -20.5t78 -55.5t43 -81t14 -96.5t-14.5 -102.5q-77 -296 -252 -614q-34 -63 -62 -104.5t-66 -79t-82.5 -59t-105.5 -35t-140 -15.5l-37 -88q74 -66 178 -66q154 0 272.5 77t220.5 245 l213 526h326l-252 -627q-27 -67 -41.5 -116.5t-17 -76.5t3 -43.5t14 -21t21.5 -4.5q62 0 159.5 104t206.5 291q33 -3 68 -28t47 -54q-62 -109 -127.5 -197.5t-140.5 -162t-159.5 -114t-168.5 -40.5q-105 0 -170 61.5t-64 184.5q-184 -152 -440 -143q4 -58 -4 -119 q-28 -211 -129 -379q-138 -221 -348 -221q-156 0 -212 114zM-29 -421q1 -12 7 -16.5t18 -4.5q43 -1 83.5 42.5t70 112.5t49 131.5t32.5 122.5q29 140 -49 164q-31 -77 -94.5 -232.5t-93.5 -232.5q-12 -33 -18 -54t-5 -33zM338 516q72 10 114 54t103 155q165 308 229 522 q38 137 -10 137q-85 0 -199 -282zM1217 1329q0 75 52 126.5t126 51.5t127 -52t53 -126q0 -72 -53.5 -126t-126.5 -54t-125.5 53.5t-52.5 126.5z" />
<glyph unicode="&#xfb02;" horiz-adv-x="1507" d="M-302 -529q-56 114 19 312l570 1415q92 233 202.5 333.5t262.5 100.5q65 0 114.5 -20.5t78 -55.5t43 -81t14 -96.5t-14.5 -102.5q-77 -296 -252 -614q-34 -63 -62 -104.5t-66 -79t-82.5 -59t-105.5 -35t-140 -15.5l-37 -88q74 -66 178 -66q154 0 272.5 77t220.5 245 l377 931h326l-416 -1032q-27 -67 -41.5 -116.5t-17 -76.5t3 -43.5t14 -21t21.5 -4.5q62 0 159.5 104t206.5 291q33 -3 68 -28t47 -54q-62 -109 -127.5 -197.5t-140.5 -162t-159.5 -114t-168.5 -40.5q-105 0 -170 61.5t-64 184.5q-184 -152 -440 -143q4 -58 -4 -119 q-29 -217 -129 -379q-138 -221 -348 -221q-156 0 -212 114zM-29 -421q1 -12 7 -16.5t18 -4.5q43 -1 83.5 42.5t70 112.5t49 131.5t32.5 122.5q29 140 -49 164l-188 -465q-12 -33 -18 -54t-5 -33zM338 516q72 10 114 54t103 155q165 308 229 522q38 137 -10 137 q-85 0 -199 -282z" />
<glyph horiz-adv-x="1357" d="M92.5 151q-0.5 38 15 70t45 57t66.5 37.5t84 8.5t94 -27q68 104 99 242h-142l52 145h108q10 51 22 94.5t34 99t49 100t68.5 89.5t91.5 75t119.5 49t150.5 19q97 0 166 -27.5t101.5 -72t41.5 -100.5t-5 -114t-46 -112h-265l8 16q9 16 12.5 24t12 26t10.5 29l5 27.5 t-1.5 26.5t-12 20t-23 15t-37.5 5q-50 0 -88.5 -24.5t-63.5 -70t-39.5 -90t-27.5 -104.5h276l-51 -145h-244q-21 -97 -64 -172t-112 -158q12 -2 37.5 -9.5t45.5 -11.5t36 -4q35 0 64.5 18.5t51.5 50.5t38.5 65t33.5 72q6 15 9 22h258q-13 -46 -24.5 -79.5t-33 -82 t-44.5 -83.5t-58.5 -73t-76 -62t-96.5 -39.5t-120 -15.5q-70 0 -160 25t-119 29q-51 -30 -117 -39t-127.5 12t-88.5 74q-18 35 -18.5 73z" />
<glyph horiz-adv-x="1251" d="M-27 254q1 50 12 116.5t34.5 146.5t56 159.5t80 154.5t102.5 132.5t127.5 92t151.5 34.5q54 0 99 -17t69.5 -37t44 -49t24 -40t8.5 -23l56 139h325l-364 -903q62 -16 129.5 11.5t131 90t120 138t110.5 169.5q33 -3 68 -28t47 -54q-228 -400 -459 -467q38 -76 12 -204 q-18 -88 -53 -167.5t-87.5 -146t-128 -106t-163.5 -39.5q-160 0 -219 114.5t15 311.5l110 274q-115 -84 -227 -84q-113 0 -174 79t-58 202zM291 317q-3 -84 65 -84q38 0 76 20.5t66 50t42.5 47.5t20.5 28l135 330q0 7 -3 21.5t-11 37.5t-28.5 39t-49.5 16q-57 0 -116 -60.5 t-100.5 -144t-68 -167t-28.5 -134.5zM574 -422q1 -22 30 -22q34 0 63 21.5t54 67t41 85.5t39 106q19 51 11 87t-28 55.5t-49 27.5l-137 -340q-25 -66 -24 -88z" />
<glyph horiz-adv-x="1177" d="M-106 66l114 280l752 828h438l-332 -822q38 4 69.5 16t43.5 22l12 9l129 -139q-4 -8 -13 -21t-41.5 -46.5t-71 -59t-104 -46.5t-138.5 -21l-146 -361h-317l145 361h-540zM274 346h273l217 541z" />
<glyph horiz-adv-x="808" d="M-8 221l80 191l434 493h297l-195 -489q20 2 38 9t26 13l8 6l84 -94q-3 -5 -9 -14t-27 -31t-46 -39t-66.5 -31t-87.5 -14l-90 -221h-213l90 221h-323zM248 412h145l119 303z" />
<glyph horiz-adv-x="1718" d="M113 864q0 128 90 219t219 91q127 0 218 -91t91 -219t-90.5 -218.5t-218.5 -90.5q-129 0 -219 90.5t-90 218.5zM205 0l969 1174h225l-971 -1174h-223zM324 864q0 -40 28.5 -68t69.5 -28q40 0 68 28t28 68t-28 68.5t-68 28.5q-41 0 -69.5 -28.5t-28.5 -68.5zM872 309 q0 128 90.5 218.5t217.5 90.5q129 0 219 -90.5t90 -218.5q0 -129 -90 -219t-219 -90q-128 0 -218 90t-90 219zM1083 309q0 -41 28.5 -68.5t68.5 -27.5q41 0 69.5 27.5t28.5 68.5q0 40 -28.5 68.5t-69.5 28.5q-40 0 -68.5 -28.5t-28.5 -68.5z" />
<glyph horiz-adv-x="595" d="M-672 -422q1 68 39 128.5t86.5 97.5t106.5 63q33 16 122 55t113 53l441 1088h325l-401 -985q146 74 256.5 188t218.5 303q33 -3 68 -28t47 -54q-61 -107 -128.5 -194.5t-128 -147t-135.5 -112t-135 -85t-143 -71.5q-33 -80 -47 -117q-28 -68 -56 -121t-69 -109t-86.5 -93 t-108 -60.5t-133.5 -23.5q-124 0 -189 65t-63 160zM-516 -399q0 -25 16 -38.5t37 -13.5q39 0 86.5 54.5t95.5 181.5q-22 -13 -73.5 -39t-79.5 -45q-82 -51 -82 -100zM324 1329q0 75 52.5 126.5t127.5 51.5q73 0 126.5 -52t53.5 -126q0 -72 -54 -126t-126 -54 q-74 0 -127 53.5t-53 126.5z" />
<glyph horiz-adv-x="1144" d="M-358 -406l594 1469h323l-35 -88q0 1 12 12.5t36 29t54.5 34t73.5 28t86 11.5q119 0 177.5 -81.5t58.5 -203.5q0 -92 -32.5 -202.5t-80 -203t-91 -161t-73.5 -103.5q129 58 232.5 158t206.5 276q32 -3 67 -28t47 -54q-61 -108 -134.5 -196t-167 -162t-211 -115 t-246.5 -41q-72 0 -133 13t-96 31.5t-60 37.5t-34 32l-9 13l104 97q31 -43 68 -43q54 0 129.5 108t129.5 249t54 232q0 86 -63 86q-54 0 -116.5 -48.5t-115.5 -123.5l-430 -1063h-325z" />
<glyph horiz-adv-x="1169" d="M-2 350q0 110 40.5 225t123.5 213t190 136q50 80 141 130t179 50q160 0 252 -108t92 -285q0 -165 -80 -349q174 33 272 207q33 -3 68 -28t47 -54q-164 -263 -477 -276q-181 -238 -455 -238q-187 0 -290 104.5t-103 272.5zM307 295q0 -50 21.5 -79.5t58.5 -29.5 q62 0 135 90q-132 69 -180 199q-35 -110 -35 -180zM449 1317q60 88 94 119q65 61 147 61q49 0 93 -19.5t81.5 -39t69.5 -19.5q29 0 59 19t51 53l97 -109q-20 -30 -33.5 -49t-37.5 -45.5t-46.5 -41.5t-55 -26.5t-67.5 -11.5q-49 0 -92.5 19.5t-81 39t-70.5 19.5 q-26 0 -56.5 -20t-53.5 -54zM463 641q0 -156 139 -233q46 97 75.5 199t29.5 163q0 54 -22.5 80.5t-57.5 26.5q-45 0 -86 -41q-78 -78 -78 -195z" />
<glyph horiz-adv-x="1781" d="M-195 0l431 1063h325l-43 -109q8 8 34 26t71.5 45t107.5 46t121 19q94 0 145.5 -48.5t53.5 -128.5q23 23 57.5 49t86 57t115.5 51t126 20q96 0 147 -48.5t51 -130.5q0 -73 -61 -231l-100 -244q-27 -68 -41.5 -117.5t-17 -77t3 -43t14 -20t20.5 -4.5q63 0 162 104.5 t207 290.5q32 -3 67 -28t47 -54q-66 -114 -130.5 -201.5t-140.5 -161t-161 -112.5t-174 -39q-81 0 -134.5 31.5t-78 94.5t-10.5 165t68 236l28 75q72 177 72 207q0 21 -14.5 33t-38.5 12q-41 0 -106 -38t-126 -105l-274 -684h-328q1 2 234 575q71 177 71 209 q0 20 -15.5 31.5t-39.5 11.5q-40 0 -104.5 -38t-124.5 -107l-277 -682h-326z" />
<glyph horiz-adv-x="1169" d="M-2 350q0 110 40.5 225t123.5 213t190 136q50 80 141 130t179 50q160 0 252 -108t92 -285q0 -165 -80 -349q174 33 272 207q33 -3 68 -28t47 -54q-164 -263 -477 -276q-181 -238 -455 -238q-187 0 -290 104.5t-103 272.5zM307 295q0 -50 21.5 -79.5t58.5 -29.5 q62 0 135 90q-132 69 -180 199q-35 -110 -35 -180zM463 641q0 -156 139 -233q46 97 75.5 199t29.5 163q0 54 -22.5 80.5t-57.5 26.5q-45 0 -86 -41q-78 -78 -78 -195zM535 1167l272 318h344l-367 -318h-249z" />
<glyph horiz-adv-x="1198" d="M-195 0l431 1063h325l-43 -109q8 8 34 26t71 45t108 46t123 19q95 0 146 -48t51 -131q0 -78 -62 -231l-100 -244q-27 -68 -41.5 -117.5t-17 -77t3 -43t14 -20t20.5 -4.5q63 0 163 105t206 290q33 -3 68 -28t47 -54q-65 -114 -130.5 -202t-141 -161t-161 -112t-174.5 -39 q-81 0 -134.5 32t-77.5 95.5t-10 165t67 234.5l31 75q71 178 71 207q0 21 -15.5 33t-39.5 12q-40 0 -104.5 -38t-124.5 -107l-277 -682h-326z" />
<glyph horiz-adv-x="958" d="M-227 82q78 75 208.5 292t268.5 523q-32 34 -48 62t-16 63q0 74 62.5 147t130.5 95l133 -74l-66 -164q20 -18 66.5 -48.5t89 -60.5t85.5 -66.5t69 -80t26 -86.5q0 -39 -24 -102l-58 -146q-27 -67 -40.5 -117.5t-14.5 -77t6 -43t15 -20.5t18 -4q42 0 118.5 96.5 t194.5 298.5q33 -3 68 -28t47 -54q-54 -93 -96.5 -159t-99 -138t-108 -116t-115 -72.5t-128.5 -28.5q-51 0 -95 15t-80 51t-53 89.5t-6.5 138t52.5 188.5l66 166q18 46 18 71q0 15 -6 28.5t-24 32.5t-28.5 28t-41.5 36q-132 -288 -267 -517t-215 -300q-32 3 -66 28t-46 54z " />
<glyph horiz-adv-x="1153" d="M-50.5 43.5q1.5 57.5 13 111.5t31.5 105h332q-42 -88 -51 -166t18 -125t84 -47q76 0 150 80.5t117.5 191.5t43.5 205q0 127 -90 127q-52 0 -110 -44.5t-107 -137.5l-291 72l309 758q453 -76 519 -76q105 0 202 76l129 -148q-24 -34 -42.5 -56.5t-54.5 -53.5t-74.5 -50 t-97 -33t-126.5 -14q-27 0 -99.5 8.5t-130.5 16.5l-59 8l-73 -184q11 8 30 19.5t75.5 30.5t111.5 19q79 0 139 -31t94 -82.5t51 -112t17 -126.5q0 -53 -10.5 -114t-34.5 -130t-59.5 -134t-89.5 -125.5t-119.5 -105t-155 -71.5t-191.5 -27q-90 0 -161 20t-115.5 54.5t-74 82 t-40.5 99.5t-9.5 109.5z" />
<glyph horiz-adv-x="958" d="M-227 82q78 75 208.5 292t268.5 523q-32 34 -48 62t-16 63q0 74 62.5 147t130.5 95l133 -74l-66 -164q20 -18 66.5 -48.5t89 -60.5t85.5 -66.5t69 -80t26 -86.5q0 -39 -24 -102l-58 -146q-27 -67 -40.5 -117.5t-14.5 -77t6 -43t15 -20.5t18 -4q42 0 118.5 96.5 t194.5 298.5q33 -3 68 -28t47 -54q-54 -93 -96.5 -159t-99 -138t-108 -116t-115 -72.5t-128.5 -28.5q-51 0 -95 15t-80 51t-53 89.5t-6.5 138t52.5 188.5l66 166q18 46 18 71q0 15 -6 28.5t-24 32.5t-28.5 28t-41.5 36q-132 -288 -267 -517t-215 -300q-32 3 -66 28t-46 54z M311 1317l273 317h344l-365 -317h-252z" />
<glyph horiz-adv-x="790" d="M32.5 252.5q7.5 48.5 26.5 95.5h222q-39 -78 -31 -139.5t59 -61.5q40 0 79.5 41.5t63 103.5t23.5 122q0 71 -49 71q-68 0 -121 -102l-199 45l197 477q291 -49 330 -49q70 0 127 49l84 -98q-18 -25 -27 -36t-34 -35t-49 -35.5t-63 -22t-85 -10.5q-16 0 -60 5t-80 10l-36 5 l-39 -102q59 43 137 43q50 0 87 -19.5t57.5 -52.5t30 -70t9.5 -77q0 -46 -11.5 -98.5t-41.5 -112t-74 -106.5t-116.5 -78t-161.5 -31q-79 0 -135 23.5t-82.5 61t-35.5 86.5t-1.5 97.5z" />
<glyph horiz-adv-x="958" d="M-227 82q78 75 208.5 292t268.5 523q-32 34 -48 62t-16 63q0 74 62.5 147t130.5 95l133 -74l-66 -164q20 -18 66.5 -48.5t89 -60.5t85.5 -66.5t69 -80t26 -86.5q0 -39 -24 -102l-58 -146q-27 -67 -40.5 -117.5t-14.5 -77t6 -43t15 -20.5t18 -4q42 0 118.5 96.5 t194.5 298.5q33 -3 68 -28t47 -54q-54 -93 -96.5 -159t-99 -138t-108 -116t-115 -72.5t-128.5 -28.5q-50 0 -94 15t-80 51t-53 89.5t-7 138t52 188.5l66 166q18 46 18 71q0 15 -6 28.5t-24 32.5t-28.5 28t-41.5 36q-132 -288 -267 -517t-215 -300q-32 3 -66 28t-46 54z M205 1681h225l88 -151l207 151h283l-463 -362h-166z" />
<glyph horiz-adv-x="1198" d="M-195 0l431 1063h325l-43 -109q8 8 34 26t71 45t108 46t123 19q95 0 146 -48t51 -131q0 -78 -62 -231l-100 -244q-27 -68 -41.5 -117.5t-17 -77t3 -43t14 -20t20.5 -4.5q63 0 163 105t206 290q33 -3 68 -28t47 -54q-65 -114 -130.5 -202t-141 -161t-161 -112t-174.5 -39 q-81 0 -134.5 32t-77.5 95.5t-10 165t67 234.5l31 75q71 178 71 207q0 21 -15.5 33t-39.5 12q-40 0 -104.5 -38t-124.5 -107l-277 -682h-326zM459 1167l272 318h346l-366 -318h-252z" />
<glyph horiz-adv-x="1198" d="M-195 0l431 1063h325l-43 -109q8 8 34 26t71 45t108 46t123 19q95 0 146 -48t51 -131q0 -78 -62 -231l-100 -244q-27 -68 -41.5 -117.5t-17 -77t3 -43t14 -20t20.5 -4.5q63 0 163 105t206 290q33 -3 68 -28t47 -54q-65 -114 -130.5 -202t-141 -161t-161 -112t-174.5 -39 q-81 0 -134.5 32t-77.5 95.5t-10 165t67 234.5l31 75q71 178 71 207q0 21 -15.5 33t-39.5 12q-40 0 -104.5 -38t-124.5 -107l-277 -682h-326zM391 1509h225l89 -151l206 151h283l-463 -362h-166z" />
<glyph horiz-adv-x="739" d="M19.5 179q-6.5 57 15.5 118h217q-8 -20 -13.5 -39.5t-10.5 -47.5t5 -45.5t35 -17.5q68 0 166 211q-64 -43 -145 -43q-65 0 -107.5 29.5t-58 72t-14.5 97.5q1 69 31.5 141.5t79.5 131.5t120.5 97t148.5 38q22 0 44 -2.5t60 -17t66 -38.5t49 -74t21 -118q0 -67 -18 -153 t-58 -180.5t-95.5 -173t-138 -130t-177.5 -51.5q-65 0 -115 26t-75.5 69t-32 100zM317 526q0 -30 14 -47.5t40 -17.5q59 0 133 78q28 103 28 147q0 41 -14.5 56.5t-32.5 15.5q-59 0 -113.5 -82.5t-54.5 -149.5z" />
<glyph horiz-adv-x="909" d="M-246 57q72 72 151 185t201 329q151 267 293 564l283 -72q-25 -135 -26.5 -277.5t8.5 -285.5t10 -181q0 -64 -10 -106q79 63 146 147.5t138 208.5q33 -3 68 -28t47 -54q-49 -88 -97 -157.5t-113 -138.5t-134.5 -115t-159.5 -74.5t-190 -28.5q-32 0 -70 5t-90 18.5 t-102 43.5t-84 73q114 71 180 112q25 -28 63 -28q53 0 80 56t27 198q0 25 -3 142.5t-1 176.5q-113 -219 -148 -283q-92 -165 -195.5 -317t-158.5 -197q-32 3 -66.5 29t-46.5 55z" />
<glyph horiz-adv-x="1103" d="M-63 16q0 66 24 160h328q-43 -105 -43 -166q0 -39 18.5 -63.5t54.5 -24.5q130 0 304 373q-120 -78 -244 -78q-142 0 -215.5 82.5t-75.5 218.5q-2 111 43.5 231t124.5 220.5t197 165.5t247 65q23 0 46 -2t62.5 -10.5t73 -24t71 -45t64 -70t43.5 -103.5t17 -140 q0 -78 -16 -175t-50 -205t-81.5 -214t-114 -202.5t-144 -170t-176.5 -117t-206 -43.5q-159 0 -255.5 89t-96.5 249zM397 541q0 -49 25 -80t70 -31q53 0 120.5 44t120.5 108q51 179 51 254q0 120 -88 120q-54 0 -110.5 -45t-97 -109.5t-66.5 -136t-25 -124.5z" />
<glyph horiz-adv-x="909" d="M-246 57q72 72 151 185t201 329q151 267 293 564l283 -72q-25 -135 -26.5 -277.5t8.5 -285.5t10 -181q0 -64 -10 -106q79 63 146 147.5t138 208.5q33 -3 68 -28t47 -54q-49 -88 -97 -157.5t-113 -138.5t-134.5 -115t-159.5 -74.5t-190 -28.5q-32 0 -70 5t-90 18.5 t-102 43.5t-84 73q114 71 180 112q25 -28 63 -28q53 0 80 56t27 198q0 25 -3 142.5t-1 176.5q-113 -219 -148 -283q-92 -165 -195.5 -317t-158.5 -197q-32 3 -66.5 29t-46.5 55zM362 1210l275 318h344l-367 -318h-252z" />
<glyph horiz-adv-x="909" d="M16 395q120 113 234 234.5t190 215t135.5 170.5t86.5 118l28 41h318l-473 -1174h-318l229 567q-200 -213 -305 -313z" />
<glyph horiz-adv-x="909" d="M-246 57q72 72 151 185t201 329q151 267 293 564l283 -72q-25 -135 -26.5 -277.5t8.5 -285.5t10 -181q0 -64 -10 -106q79 63 146 147.5t138 208.5q33 -3 68 -28t47 -54q-49 -88 -97 -157.5t-113 -138.5t-134.5 -115t-159.5 -74.5t-190 -28.5q-32 0 -70 5t-90 18.5 t-102 43.5t-84 73q114 71 180 112q25 -28 63 -28q53 0 80 56t27 198q0 25 -3 142.5t-1 176.5q-113 -219 -148 -283q-92 -165 -195.5 -317t-158.5 -197q-32 3 -66.5 29t-46.5 55zM281 1548h225l88 -151l205 151h284l-465 -362h-163z" />
<glyph horiz-adv-x="626" d="M59 426q116 110 218 230t146 184l44 65h213l-365 -905h-213l199 502q-16 -17 -49 -53.5t-59.5 -65t-51.5 -53.5z" />
<glyph horiz-adv-x="909" d="M-246 57q72 72 151 185t201 329q151 267 293 564l283 -72q-25 -135 -26.5 -277.5t8.5 -285.5t10 -181q0 -64 -10 -106q79 63 146 147.5t138 208.5q33 -3 68 -28t47 -54q-47 -83 -92.5 -150t-106.5 -133.5t-125.5 -112.5t-147.5 -77.5t-175 -38.5l-41 -75q54 -16 82 -47.5 t28 -88.5q0 -84 -57 -140t-137 -74t-166 -9t-145 45l92 142q30 -16 67.5 -23t67 3.5t29.5 39.5q0 32 -36.5 40t-93.5 -1l111 207q-122 26 -194 119q114 71 180 112q25 -28 63 -28q53 0 80 56t27 198q0 25 -3 142.5t-1 176.5q-113 -219 -148 -283q-92 -165 -195.5 -317 t-158.5 -197q-32 3 -66.5 29t-46.5 55z" />
<glyph horiz-adv-x="1179" d="M-18 324q0 107 44.5 205.5t138 177t220.5 108.5q-3 2 -10 7.5t-20.5 22.5t-24 38.5t-19 58t-8.5 78.5q0 63 17.5 126t59 127t102 112.5t156 79t212.5 30.5q87 0 156 -17.5t113 -46t73 -68.5t41 -82.5t12 -90.5q0 -86 -36 -168t-110.5 -151t-176.5 -103q116 -77 116 -246 q0 -71 -20 -144.5t-67 -147t-115 -130t-173 -92t-233 -35.5q-95 0 -174 19.5t-141.5 60t-97.5 110t-35 161.5zM309 344q0 -67 40 -98t95 -31q72 0 135.5 49.5t97.5 119.5t34 136q0 65 -36 99t-95 34q-55 0 -107 -30t-87 -76t-56 -100t-21 -103zM639 1020q0 -49 25.5 -74.5 t64.5 -25.5q72 0 129 76.5t57 154.5q0 48 -24.5 74t-65.5 26q-72 0 -129 -76t-57 -155z" />
<glyph horiz-adv-x="788" d="M8 203q0 104 64.5 187.5t179.5 111.5q-3 0 -13 11t-22 41.5t-12 70.5q0 39 10 78t35.5 79.5t63 70.5t98.5 49.5t137 19.5q71 0 122.5 -16.5t78 -46t38 -61t11.5 -69.5q0 -82 -52 -153.5t-143 -102.5l8 -5q7 -6 17 -16.5t19.5 -26.5t16.5 -42t7 -57q0 -45 -12 -90t-41 -91 t-71.5 -81.5t-109.5 -57.5t-149 -22q-130 0 -205.5 54.5t-75.5 164.5zM227 221q0 -39 22 -57.5t54 -18.5q56 0 101 56t45 116q0 38 -20.5 59t-51.5 21q-57 0 -103.5 -57.5t-46.5 -118.5zM430 631q0 -28 14 -43t35 -15q35 0 65.5 41t30.5 84q0 29 -12 44.5t-33 15.5 q-36 0 -68 -41t-32 -86z" />
<glyph horiz-adv-x="684" d="M45 0q28 71 70 146t104 161.5t98.5 135.5t114 145.5t90.5 113.5q-2 0 -16 -2t-27 -2q-17 0 -114 13l-62 -150h-211l139 344q308 -49 347 -49q70 0 127 49l77 -90q-4 -6 -41.5 -58t-54.5 -75.5t-58.5 -84t-67.5 -102t-67 -108t-72 -122.5t-66.5 -126.5t-65.5 -138.5h-244z " />
<glyph horiz-adv-x="1024" d="M-6 -295q25 62 58.5 128.5t65.5 124t79 130t79.5 122t89 125.5t86 115.5t91 117t84 105t85 104t74.5 91.5q-48 -6 -73 -6q-24 0 -226 23l-98 -248h-317l215 537q505 -76 571 -76q106 0 203 76l119 -136q-3 -4 -59.5 -81t-78.5 -107.5t-83.5 -117t-97.5 -142.5t-97 -148.5 t-106 -171.5t-99 -174.5t-102.5 -194t-91.5 -196.5h-371z" />
<glyph horiz-adv-x="1169" d="M-2 350q0 110 40.5 225t123.5 213t190 136q50 80 141 130t179 50q160 0 252 -108t92 -285q0 -165 -80 -349q174 33 272 207q33 -3 68 -28t47 -54q-164 -263 -477 -276q-181 -238 -455 -238q-187 0 -290 104.5t-103 272.5zM307 295q0 -50 21.5 -79.5t58.5 -29.5 q62 0 135 90q-132 69 -180 199q-35 -110 -35 -180zM383 1167l227 318h316l-312 -318h-231zM463 641q0 -156 139 -233q46 97 75.5 199t29.5 163q0 54 -22.5 80.5t-57.5 26.5q-45 0 -86 -41q-78 -78 -78 -195zM770 1167l227 318h316l-312 -318h-231z" />
<glyph horiz-adv-x="1335" d="M100 379l52 145h139q10 20 20 45h-135l51 144h135q48 101 110.5 186.5t143 157t182 112.5t212.5 41q93 0 157 -29.5t92.5 -76t35.5 -103.5t-5.5 -112.5t-38.5 -102.5h-301q28 43 44 75t22 60t-8.5 43t-49.5 15q-78 0 -153 -73.5t-137 -192.5h370l-49 -144h-373l-20 -45 h365l-50 -145h-348q-12 -56 -12 -98q0 -101 108 -101q66 0 132 38t157 112l148 -133q-120 -108 -239.5 -164t-254.5 -56q-178 0 -263 78.5t-85 216.5q0 45 10 107h-164z" />
<glyph horiz-adv-x="778" d="M51 233q0 47 9.5 105t29 124t48 131t69 124.5t88.5 105t110.5 72.5t131.5 27q127 0 186.5 -86t21.5 -228h-219q10 22 16.5 45.5t9.5 48t-6.5 40.5t-31.5 16q-42 0 -81 -54t-89 -159q67 45 145 45q97 0 140 -56.5t41 -142.5q-2 -94 -51 -187t-137.5 -156.5t-190.5 -63.5 q-23 0 -45 2.5t-60 16.5t-65.5 38.5t-48.5 74t-21 117.5zM246 217q0 -70 49 -70q58 0 113 82.5t55 149.5q0 29 -14.5 47t-40.5 18q-28 0 -64 -22t-68 -57q-30 -89 -30 -148z" />
<glyph horiz-adv-x="1132" d="M61 369q0 78 16.5 175t50 205t81 213.5t115 202t145 170t177 117t206.5 43.5q199 0 293.5 -137t34.5 -361h-328q16 35 27 75t15 82t-13 69.5t-56 27.5q-76 0 -150 -97.5t-159 -276.5q112 79 246 79q145 0 218 -85.5t73 -223.5q0 -89 -29 -184t-84.5 -182t-129 -156 t-170.5 -110.5t-200 -41.5q-23 0 -46 2t-63 10.5t-73.5 23.5t-71.5 45t-64 70.5t-43.5 103.5t-17.5 141zM356 338q0 -121 88 -121q69 0 141 74t115 170t43 168q0 52 -25 83t-69 31q-56 0 -122 -43.5t-119 -109.5q-52 -158 -52 -252z" />
</font>
</defs>
</svg>
